<svg xmlns="http://www.w3.org/2000/svg" viewBox="0 0 96.76 101.33"><defs><style>.cls-1{fill:none;stroke:gray;stroke-miterlimit:10;}</style></defs><title>assortment1</title><g id="Layer_2" data-name="Layer 2"><g id="Layer_1-2" data-name="Layer 1"><path class="cls-1" d="M82.59,7.62A20.89,20.89,0,0,0,67.33.5H29.43A20.89,20.89,0,0,0,14.16,7.62L.64,22,12.36,39.33,23,30.89V78.16H73.71V30.89l10.68,8.44L96.12,22Z"/><polyline class="cls-1" points="36.44 0.5 48.39 18.11 60.32 0.5"/><circle class="cls-1" cx="73.45" cy="78.16" r="22.66"/><path class="cls-1" d="M58.23,61.39a22.67,22.67,0,0,1,0,33.55"/><path class="cls-1" d="M89.19,61.39a22.67,22.67,0,0,0,0,33.55"/><line class="cls-1" x1="73.45" y1="61.39" x2="73.45" y2="100.83"/><line class="cls-1" x1="56.38" y1="78.16" x2="96.12" y2="78.16"/></g></g></svg>