<svg xmlns="http://www.w3.org/2000/svg" viewBox="0 0 33.68 35.65"><defs><style>.cls-1{fill:#fff;}</style></defs><title>clock</title><g id="Layer_2" data-name="Layer 2"><g id="Layer_1-2" data-name="Layer 1"><path class="cls-1" d="M16.46,35.65a16.46,16.46,0,0,1,0-32.92A16.26,16.26,0,0,1,26.61,6.26l.1.08,2.4-2.4a.48.48,0,0,1,.68.68L27.45,7l.12.11a16.44,16.44,0,0,1-11.1,28.58Zm0-3.87a.48.48,0,0,1,.48.48v2.4h.16A15.55,15.55,0,0,0,31.92,19.82v-.16h-2.4a.48.48,0,0,1,0-1h2.4v-.16A15.55,15.55,0,0,0,17.1,3.72h-.16v2.4a.48.48,0,0,1-1,0V3.71h-.16A15.55,15.55,0,0,0,1,18.55v.16h2.4a.48.48,0,0,1,.48.48.48.48,0,0,1-.48.48H1v.16A15.56,15.56,0,0,0,15.82,34.65H16v-2.4A.48.48,0,0,1,16.46,31.78Z"/><path class="cls-1" d="M16.46,21a1.81,1.81,0,0,1-1.81-1.81,1.8,1.8,0,0,1,1.23-1.69l.1,0v-7a.48.48,0,0,1,1,0v7l.1,0a1.78,1.78,0,0,1,1.11,1.11l0,.1h8.44a.48.48,0,0,1,.47.48.47.47,0,0,1-.47.48H18.19l0,.1A1.81,1.81,0,0,1,16.46,21Zm0-2.66a.85.85,0,1,0,.85.85A.85.85,0,0,0,16.46,18.33Z"/><path class="cls-1" d="M31.94,4.73a.48.48,0,0,1-.34-.14L29.09,2.08a.48.48,0,0,1,.68-.68L32.28,3.9a.48.48,0,0,1-.34.82Z"/><path class="cls-1" d="M33.2,3.47a.49.49,0,0,1-.34-.14L30.35.82A.48.48,0,1,1,31,.14l2.51,2.51a.48.48,0,0,1,0,.68A.48.48,0,0,1,33.2,3.47Z"/></g></g></svg>