<svg xmlns="http://www.w3.org/2000/svg" viewBox="0 0 100 75.01"><defs><style>.cls-1{fill:#fff;}</style></defs><title>contact</title><g id="Layer_2" data-name="Layer 2"><g id="Layer_1-2" data-name="Layer 1"><path class="cls-1" d="M34,36.59c-1.56,1.54-3,3-4.49,4.48L13.62,56.93a3.15,3.15,0,0,0-1,3.35c.72,2.39,3.52,3,5.39,1.1q9.93-9.88,19.82-19.81a7.25,7.25,0,0,0,.66-.91c.55.5.91.81,1.27,1.13l8,7.23a3.1,3.1,0,0,0,4.61,0l8.25-7.48c.25-.23.53-.46.84-.75l7.35,7.38L82,61.4A3.12,3.12,0,1,0,86.46,57q-6.64-6.69-13.32-13.33L66,36.59l.83-.78L76.5,27l9.9-9a3,3,0,0,0,1-3.17h0a3,3,0,0,0-2.23-2.25,3.27,3.27,0,0,0-3.2,1Q66.41,27.76,50.78,41.94c-.25.23-.52.45-.8.7L35.1,29.11,17.9,13.51a3.16,3.16,0,0,0-3.13-.88h0a3,3,0,0,0-2.21,2.25A3.07,3.07,0,0,0,13.62,18L25.9,29.2ZM0,64.07V10.94a5.2,5.2,0,0,0,.2-.64A12.42,12.42,0,0,1,12.33,0Q50,0,87.67,0a12.4,12.4,0,0,1,12,9.53c.11.47.25.93.37,1.39V64.07a2.61,2.61,0,0,0-.17.44,12.1,12.1,0,0,1-9.66,10.14,40.38,40.38,0,0,1-7.38.34q-35.08,0-70.17,0A12.45,12.45,0,0,1,.48,65.93C.3,65.33.16,64.69,0,64.07Z"/></g></g></svg>