<svg xmlns="http://www.w3.org/2000/svg" viewBox="0 0 51.63 55.51"><defs><style>.a{fill:black;}</style></defs><title>StoreDNA</title><path class="a" d="M50.71,26h0a25.56,25.56,0,0,0-1.59-5.69c1.36-2.38,2.54-4.91,2.55-6.55a7.18,7.18,0,0,0-2-5.06,6.88,6.88,0,0,0-5-2.11h0a6.9,6.9,0,0,0-5,2.17,25.42,25.42,0,0,0-23-2.7,7.15,7.15,0,0,0-2-4A6.88,6.88,0,0,0,9.75,0h0a7.09,7.09,0,0,0-7,7.15c0,1.75,1.33,4.51,2.8,7a25.52,25.52,0,1,0,45.15,12Zm-1,0a22.23,22.23,0,0,1-2.92,6.44,7,7,0,0,0-.83,3.14A7.81,7.81,0,0,1,45,39.12a3.07,3.07,0,0,1-2,1.77c-.13,0-.19,0-.21,0A7,7,0,0,1,42.25,38a14.06,14.06,0,0,0-1.19-3.5c-.33-.79-.64-1.54-.8-2a3.12,3.12,0,0,0-3.16-2.34l-.54,0a17.69,17.69,0,0,1-4-.25c-1.69-.26-2.14-2.05-2.33-3.58l0-.26c-.26-1.62-.16-3,.23-3.35a5.29,5.29,0,0,0,.58-.74c1.13-1.61,2.34-3,4.76-1.81a9.37,9.37,0,0,0,4.81,1c1.67,2.82,3.45,5.25,3.59,5.44l.4.54.4-.54c.14-.18,1.8-2.45,3.43-5.14A24.61,24.61,0,0,1,49.67,26.07ZM46.21,15.4a2.19,2.19,0,0,1-1.57.67h0a2.27,2.27,0,0,1-2.23-2.3,2.32,2.32,0,0,1,.66-1.63,2.19,2.19,0,0,1,1.57-.67h0a2.27,2.27,0,0,1,2.23,2.3A2.32,2.32,0,0,1,46.21,15.4Zm-8.58-1.63a9.59,9.59,0,0,0,1,3.52,8.68,8.68,0,0,1-1.39-1.09l-.47-.41c-.77-.64-1.68,0-2.55.66a5.6,5.6,0,0,1-1.65.95,1.47,1.47,0,0,1-1.19-.16.76.76,0,0,1-.2-.2.25.25,0,0,1,.08-.06c.62-.33,1.24-1.41,2.19-3.16a14.53,14.53,0,0,1,1.37-2.25A1.68,1.68,0,0,0,35,9.36a1.2,1.2,0,0,0-1.62-.23c-.64.39-2.74.05-3.89-.62-.71-.42-.63-1.72-.51-2.72A24.51,24.51,0,0,1,39,9.58,7.21,7.21,0,0,0,37.63,13.77ZM8.17,5.51a2.19,2.19,0,0,1,1.57-.67h0A2.27,2.27,0,0,1,12,7.15a2.32,2.32,0,0,1-.66,1.63,2.19,2.19,0,0,1-1.57.67h0A2.27,2.27,0,0,1,7.5,7.14,2.32,2.32,0,0,1,8.17,5.51ZM9.32,19.93l.4.54.4-.54c.27-.37,6.61-9,6.61-12.77v0a24.3,24.3,0,0,1,2.92-.92,10.64,10.64,0,0,1,1.28,4.4,5.28,5.28,0,0,0,.34,1.95c.06.19.15.45.17.48a2.92,2.92,0,0,1-.9,0c-.76-.08-1.71-.18-2.14.52a17.45,17.45,0,0,1-1.19,1.3c-1.7,1.78-4.53,4.75-5.21,6.85l0,.15c0,1.22-.4,1.79-.64,1.86s-.4-.13-.62-.46L10.54,23C9.73,21.72,9,20.65,7.68,21.35a4.5,4.5,0,0,0-1.94,3,2,2,0,0,0,.49,1.83,1.62,1.62,0,0,0,2.12.36,2.11,2.11,0,0,1,.73-.23c.39.25.86,2.52,1.05,4.95a22.86,22.86,0,0,1-3.61-2.14A7.93,7.93,0,0,1,4,25.13c-.28-1.48-.92-3.89-1.1-4.57a24.51,24.51,0,0,1,3.2-5.48C7.65,17.64,9.19,19.76,9.32,19.93Zm11.1,10.46h0a2.3,2.3,0,0,1,0-4.6h0a2.3,2.3,0,0,1,0,4.6ZM20,40.88l.4.54.4-.54c.15-.2,2-2.79,3.78-5.73.58.08,1.09.14,1.5.17,1.19.11,1.29.16,1.35.46s-.11.46-.53.9a3.9,3.9,0,0,0-1,1.58,38,38,0,0,1-2.38,6.27l-.2.31c-.79,1.24-2.25,3.54-3.85,4.29l-.1.06c-1.1.89-.6,3.15-.17,4.47l-.85-.24a12.64,12.64,0,0,1-1.9-5,35,35,0,0,1-.5-4.18c-.1-1.48-.14-2.1-1.28-3-1.92-1.6-3.87-3.56-3.9-6L10.81,32l.1-.05c.09,0,1.84-1,2.94-1.78C15.25,34.38,19.78,40.57,20,40.88ZM1,30a24.39,24.39,0,0,1,1.29-7.82c.25,1,.56,2.24.73,3.13a9.08,9.08,0,0,0,2.86,4.51A24.18,24.18,0,0,0,9.8,32.17l-.08,3c0,2.87,2.17,5,4.26,6.78.81.68.83.93.93,2.35a36.54,36.54,0,0,0,.52,4.28,16.68,16.68,0,0,0,1.4,4.36A24.54,24.54,0,0,1,1,30Zm49,0A24.49,24.49,0,0,1,20.32,54c-.51-1.38-.95-3.4-.39-3.94,1.83-.9,3.32-3.23,4.2-4.63l.19-.3a39.35,39.35,0,0,0,2.5-6.53,3,3,0,0,1,.81-1.18,2,2,0,0,0,.79-1.79c-.22-1.07-1.07-1.14-2.24-1.25l-1.05-.11c1.25-2.25,2.3-4.57,2.3-6.1a7.09,7.09,0,0,0-7-7.16h0A6.88,6.88,0,0,0,15.48,23a7.19,7.19,0,0,0-2.05,5.05,5.18,5.18,0,0,0,.14,1.05c-.62.47-1.74,1.13-2.46,1.54-.23-2.61-.74-5.37-1.92-5.4a2.64,2.64,0,0,0-1.24.3c-.46.21-.59.26-1-.16a1.07,1.07,0,0,1-.21-1,3.54,3.54,0,0,1,1.41-2.23c.48-.24.68-.08,1.57,1.27l.19.29c.68,1,1.44,1,1.73.86.82-.24,1.32-1.26,1.36-2.73.64-1.88,3.34-4.71,5-6.4a13.19,13.19,0,0,0,1.31-1.47c.1-.17.8-.09,1.18,0A2.31,2.31,0,0,0,22,13.86c.58-.43.37-1.08.2-1.61a4.36,4.36,0,0,1-.29-1.6A11.33,11.33,0,0,0,20.67,6,23.65,23.65,0,0,1,28,5.66c-.14,1.26-.26,3,1,3.71s3.78,1.31,4.92.61c.21-.13.29,0,.32,0s.17.51-.18.89a14.32,14.32,0,0,0-1.52,2.46,11.33,11.33,0,0,1-1.78,2.75,1,1,0,0,0-.53,1.3,2.14,2.14,0,0,0,2.57,1,6.37,6.37,0,0,0,2-1.11c.46-.33,1.16-.84,1.33-.69l.43.38a7,7,0,0,0,2.71,1.7c.25.5.52,1,.8,1.49a8.5,8.5,0,0,1-3.82-.89c-3.38-1.61-5.15.92-6,2.13a5.14,5.14,0,0,1-.46.6c-.91.87-.72,3-.53,4.23l0,.23c.13,1,.53,4,3.18,4.44a18.61,18.61,0,0,0,4.14.26l.53,0a2.11,2.11,0,0,1,2.18,1.65c.17.54.49,1.31.83,2.12A16.57,16.57,0,0,1,41.25,38a7,7,0,0,0,.65,3.38,1.14,1.14,0,0,0,1,.47H43a3.92,3.92,0,0,0,2.86-2.29,8.7,8.7,0,0,0,1.06-3.84,6.06,6.06,0,0,1,.7-2.73A30,30,0,0,0,50,28.51Q50,29.26,50,30Z"/></svg>
