<svg xmlns="http://www.w3.org/2000/svg" viewBox="0 0 106.67 94.44"><defs><style>.cls-1{fill:none;stroke:gray;stroke-miterlimit:10;}</style></defs><title>memberships</title><g id="Layer_2" data-name="Layer 2"><g id="Layer_1-2" data-name="Layer 1"><path class="cls-1" d="M25.93,40.62V6.2A5.7,5.7,0,0,1,31.63.5h68.84a5.7,5.7,0,0,1,5.7,5.7V49.5a5.7,5.7,0,0,1-5.7,5.7H31.38"/><path class="cls-1" d="M25.93,17.33,11.85,31.7C5.32,38.52-.62,46.21.68,59L4.6,94.38"/><path class="cls-1" d="M10.85,54.14l27-24.22c2.5,2.51,9.51,8.42,1.43,17.39L27.35,59.23s8.85,11.26-.15,23.11"/><path class="cls-1" d="M51,55.2V68.36c0,4.84-2,11.12-9.58,14v12"/><polyline class="cls-1" points="60.15 16.63 51.3 38.56 42.44 16.63"/><line class="cls-1" x1="66.53" y1="16.63" x2="66.53" y2="39.07"/><path class="cls-1" d="M75.94,39.07V18.2h6.87c4.21,0,7.62,2.3,7.62,6.51S87,31.87,82.81,31.87l-6.87,0"/></g></g></svg>