<svg xmlns="http://www.w3.org/2000/svg" viewBox="0 0 31.16 31.98"><defs><style>.cls-1{fill:none;stroke:#fff;stroke-miterlimit:10;}</style></defs><title>men-men_1</title><g id="Layer_2" data-name="Layer 2"><g id="Layer_1-2" data-name="Layer 1"><circle class="cls-1" cx="6.44" cy="3.14" r="2.64"/><path class="cls-1" d="M.5,21V10.62A2.6,2.6,0,0,1,2.9,7.86H10a2.6,2.6,0,0,1,2.4,2.77V16h3.92"/><line class="cls-1" x1="4.15" y1="19.31" x2="4.15" y2="31.98"/><line class="cls-1" x1="8.74" y1="19.31" x2="8.74" y2="31.98"/><circle class="cls-1" cx="24.72" cy="3.14" r="2.64"/><path class="cls-1" d="M18.77,21V10.62a2.6,2.6,0,0,1,2.4-2.77h7.08a2.6,2.6,0,0,1,2.4,2.77V21"/><line class="cls-1" x1="22.43" y1="19.31" x2="22.43" y2="31.98"/><line class="cls-1" x1="27.01" y1="19.31" x2="27.01" y2="31.98"/></g></g></svg>