<svg xmlns="http://www.w3.org/2000/svg" viewBox="0 0 35.3 31.98"><defs><style>.cls-1{fill:none;stroke:#fff;stroke-miterlimit:10;}</style></defs><title>men-fixture</title><g id="Layer_2" data-name="Layer 2"><g id="Layer_1-2" data-name="Layer 1"><circle class="cls-1" cx="6.44" cy="3.14" r="2.64"/><path class="cls-1" d="M.5,21V10.62A2.6,2.6,0,0,1,2.9,7.86H10a2.6,2.6,0,0,1,2.4,2.77V16h3.92"/><line class="cls-1" x1="4.15" y1="19.31" x2="4.15" y2="31.98"/><line class="cls-1" x1="8.74" y1="19.31" x2="8.74" y2="31.98"/><line class="cls-1" x1="17.51" y1="11.03" x2="35.3" y2="11.03"/><line class="cls-1" x1="17.51" y1="19.03" x2="35.3" y2="19.03"/><line class="cls-1" x1="17.51" y1="27.03" x2="35.3" y2="27.03"/><path class="cls-1" d="M21.11,7.35H24A1.07,1.07,0,0,1,25,8.43V11a0,0,0,0,1,0,0H20a0,0,0,0,1,0,0V8.43A1.07,1.07,0,0,1,21.11,7.35Z"/><path class="cls-1" d="M28.94,7.35h2.85a1.07,1.07,0,0,1,1.07,1.07V11a0,0,0,0,1,0,0h-5a0,0,0,0,1,0,0V8.43A1.07,1.07,0,0,1,28.94,7.35Z"/><path class="cls-1" d="M21.11,15.35H24A1.07,1.07,0,0,1,25,16.43V19a0,0,0,0,1,0,0H20a0,0,0,0,1,0,0v-2.6A1.07,1.07,0,0,1,21.11,15.35Z"/><path class="cls-1" d="M28.94,15.35h2.85a1.07,1.07,0,0,1,1.07,1.07V19a0,0,0,0,1,0,0h-5a0,0,0,0,1,0,0v-2.6A1.07,1.07,0,0,1,28.94,15.35Z"/><path class="cls-1" d="M21.11,23.35H24A1.07,1.07,0,0,1,25,24.43V27a0,0,0,0,1,0,0H20a0,0,0,0,1,0,0v-2.6A1.07,1.07,0,0,1,21.11,23.35Z"/><path class="cls-1" d="M28.94,23.35h2.85a1.07,1.07,0,0,1,1.07,1.07V27a0,0,0,0,1,0,0h-5a0,0,0,0,1,0,0v-2.6A1.07,1.07,0,0,1,28.94,23.35Z"/></g></g></svg>