<svg xmlns="http://www.w3.org/2000/svg" viewBox="0 0 81.19 86.58"><defs><style>.cls-1{fill:none;stroke:gray;stroke-miterlimit:10;}</style></defs><title>navigation</title><g id="Layer_2" data-name="Layer 2"><g id="Layer_1-2" data-name="Layer 1"><path class="cls-1" d="M77.31,34.16H17.05a3.49,3.49,0,0,1-2.52-1.05L1.27,19.22a2.7,2.7,0,0,1,0-3.78L14.53,1.55A3.49,3.49,0,0,1,17.05.5H77.31a3.15,3.15,0,0,1,2.91,4.73l-7.56,12.1,7.56,12.1A3.15,3.15,0,0,1,77.31,34.16Z"/><path class="cls-1" d="M3.88,52.42H64.14a3.49,3.49,0,0,1,2.52,1.05L79.92,67.36a2.7,2.7,0,0,1,0,3.78L66.66,85a3.49,3.49,0,0,1-2.52,1.05H3.88A3.15,3.15,0,0,1,1,81.35l7.56-12.1L1,57.15A3.15,3.15,0,0,1,3.88,52.42Z"/><line class="cls-1" x1="22.51" y1="12.29" x2="58.9" y2="12.29"/><line class="cls-1" x1="22.51" y1="22.36" x2="42.69" y2="22.36"/><line class="cls-1" x1="22.51" y1="64.22" x2="58.9" y2="64.22"/><line class="cls-1" x1="22.51" y1="74.29" x2="53.29" y2="74.29"/></g></g></svg>