<svg xmlns="http://www.w3.org/2000/svg" viewBox="0 0 36.07 33.4"><defs><style>.cls-1{fill:#fff;}</style></defs><title>payment</title><g id="Layer_2" data-name="Layer 2"><g id="Layer_1-2" data-name="Layer 1"><path class="cls-1" d="M32.6,33.4l0,0h-.11l-.06-.06,0,0h0l-4.13-2.63a2.86,2.86,0,0,0-1.55-.45,3,3,0,0,0-.84.12l-8.2,2.46a4.93,4.93,0,0,1-1.44.21,5,5,0,0,1-2.39-.61l-12.84-7a1.73,1.73,0,0,1-.79-2.22,1.7,1.7,0,0,1,1.6-1.11,1.89,1.89,0,0,1,.49.07l10,3.34a.48.48,0,0,1,.3.6.48.48,0,0,1-.45.32l-.15,0L2,23.12a.93.93,0,0,0-.25,0A.76.76,0,0,0,1,23.6a.78.78,0,0,0,.37,1l12.84,7a4.07,4.07,0,0,0,1.94.49,4,4,0,0,0,1.16-.17l8.19-2.46a3.85,3.85,0,0,1,1.11-.16,3.89,3.89,0,0,1,2,.58l.2.12L31,24.86,27.21,23a10.34,10.34,0,0,0-3-.48,5.87,5.87,0,0,0-2.44.47l-6.14,2.23a.88.88,0,0,0-.5,1,.86.86,0,0,0,.79.71l5.66-.36a.47.47,0,0,1,0,.95L19,27.64l-3.1.19a1.84,1.84,0,0,1-.68-3.51l6.14-2.22a6.87,6.87,0,0,1,2.83-.55,10.75,10.75,0,0,1,3.32.55l8.26,4.07.1.07v0l.08.08,0,.09v0l0,.1,0,.14,0,.12-2.95,6.27H33v.15h0l0,0h0l-.09.08-.1,0h-.1Zm-2.92-2.9,2.74,1.73L35,26.8l-3.08-1.51Z"/><path class="cls-1" d="M12.18,17.31a.48.48,0,0,1-.48-.48V15.3h-2a.48.48,0,1,1,0-1h3.4a1.6,1.6,0,0,0,0-3.2H11.24a2.55,2.55,0,1,1,0-5.1h.48V4.54a.48.48,0,0,1,1,0V6h1.92a.48.48,0,0,1,0,1H11.25a1.6,1.6,0,1,0,0,3.2h1.89a2.55,2.55,0,0,1,0,5.1h-.48v1.53A.48.48,0,0,1,12.18,17.31Z"/><path class="cls-1" d="M12.19,21.34A10.67,10.67,0,1,1,22.86,10.67,10.68,10.68,0,0,1,12.19,21.34ZM12.19,1a9.72,9.72,0,1,0,9.72,9.72A9.73,9.73,0,0,0,12.19,1Z"/></g></g></svg>