<svg xmlns="http://www.w3.org/2000/svg" viewBox="0 0 76.77 96.11"><defs><style>.cls-1{fill:none;stroke:gray;stroke-miterlimit:10;}</style></defs><title>promos</title><g id="Layer_2" data-name="Layer 2"><g id="Layer_1-2" data-name="Layer 1"><path class="cls-1" d="M49.6,95.34,4.72,81.09A6.37,6.37,0,0,1,.83,73L19.18,15.17a9.17,9.17,0,0,1,5.77-6L49.86.93A8.06,8.06,0,0,1,59,3.82L74.55,25a9.17,9.17,0,0,1,1.27,8.2L57.46,91A6.37,6.37,0,0,1,49.6,95.34Z"/><circle class="cls-1" cx="50" cy="16.29" r="4.62" transform="translate(19.34 59.02) rotate(-72.38)"/><line class="cls-1" x1="20.05" y1="75.92" x2="52.1" y2="43.87"/><circle class="cls-1" cx="26.41" cy="50.23" r="6.36"/><circle class="cls-1" cx="45.74" cy="69.56" r="6.36"/></g></g></svg>