<svg xmlns="http://www.w3.org/2000/svg" viewBox="0 0 826.27 336.67"><defs><style>.cls-1{fill:#ddf3f1;stroke:#c4e3e6;}.cls-1,.cls-4,.cls-9{stroke-miterlimit:10;}.cls-2{fill:#eceff1;}.cls-3{fill:#b0bec5;}.cls-4,.cls-9{fill:none;stroke:#575a67;}.cls-5{font-size:12px;fill:#1d1d1b;font-family:ProximaNova-Semibold, Proxima Nova;font-weight:700;}.cls-6{fill:#cfd8dc;}.cls-7{fill:#dde3e6;}.cls-8{fill:#fff;}.cls-9{stroke-linecap:round;}</style></defs><title>store</title><g id="Layer_2" data-name="Layer 2"><g id="Design"><path class="cls-1" d="M822.77,150h-4.83v-9a3,3,0,0,0-3-3h-41a3,3,0,0,0-3,3v9h-5.83a3,3,0,0,0-3,3v19a3,3,0,0,0,3,3h57.66a3,3,0,0,0,3-3V153A3,3,0,0,0,822.77,150Z"/><path class="cls-2" d="M811.3,97.27l6.86,7.28-6,8.8-5.42-4.28v24h-25.7v-24l-5.42,4.28-5.94-8.8,6.86-7.28a10.59,10.59,0,0,1,7.74-3.61h3.56l6.06,8.93,6-8.93h3.56A10.61,10.61,0,0,1,811.3,97.27Z"/><polygon class="cls-3" points="800 93.66 793.95 102.58 787.89 93.66 793.94 93.66 800 93.66"/><path class="cls-4" d="M787.89,93.66h-3.56a10.59,10.59,0,0,0-7.74,3.61l-6.86,7.28,5.94,8.8,5.42-4.28v24h25.7v-24l5.42,4.28,6-8.8-6.86-7.28a10.61,10.61,0,0,0-7.74-3.61H787.89Z"/><polyline class="cls-4" points="787.89 93.66 793.95 102.58 800 93.66"/><text class="cls-5" transform="translate(778 153.63)">Man’s<tspan x="-6.7" y="12.4">Clothing</tspan></text><path class="cls-1" d="M160.8,96.75h4.83v9a3,3,0,0,0,3,3H221a3,3,0,0,0,3-3v-9h5.83a3,3,0,0,0,3-3v-19a3,3,0,0,0-3-3h-69a3,3,0,0,0-3,3v19A3,3,0,0,0,160.8,96.75Z"/><path class="cls-6" d="M216,36.73l-5.44,8.06-3.43-2c-2.37,6.92-.76,15.19,1,24H182.45c1.75-8.79,3.36-17.06,1-24l-3.43,2-5.45-8.06L180.94,31c2.17-2.33,3.91-3.61,6.75-3.61h1.09a6.52,6.52,0,0,0,13,0h.1A10.59,10.59,0,0,1,209.66,31Z"/><path class="cls-3" d="M195.3,27.4h6.52a6.52,6.52,0,0,1-13,0Z"/><path class="cls-4" d="M188.78,27.4h-1.09c-2.84,0-4.58,1.28-6.75,3.61l-6.37,5.72L180,44.79l3.43-2c2.36,6.92.75,15.19-1,24h25.71c-1.76-8.79-3.37-17.06-1-24l3.43,2L216,36.73,209.66,31a10.59,10.59,0,0,0-7.74-3.61H188.78Z"/><path class="cls-4" d="M201.82,27.4a6.52,6.52,0,0,1-13,0"/><text class="cls-5" transform="translate(170.38 87.37)">Women’s<tspan x="2.27" y="12.4">Clothing</tspan></text><path class="cls-1" d="M638.74,69.92h4.83v9a3,3,0,0,0,3,3h52.33a3,3,0,0,0,3-3v-9h5.83a3,3,0,0,0,3-3v-19a3,3,0,0,0-3-3h-69a3,3,0,0,0-3,3v19A3,3,0,0,0,638.74,69.92Z"/><path class="cls-3" d="M706.17,29.31c5,6-5.74,12.59-22,12.59H650c-13.35,0-11.56-12-9.33-13.2a8.26,8.26,0,0,0,1.19,3.83c2.49,4,9.6,4.11,16.45,3.69,3.37-.21,6.67-.55,9.34-.64l1.28,0c5.71,0,10.83,2.94,18.23,2.94C697.06,38.49,707.69,33.18,706.17,29.31Z"/><path class="cls-2" d="M706.17,29.31c1.52,3.87-9.11,9.18-19,9.18-7.4,0-12.52-2.94-18.23-2.94l-1.28,0h0c-1-8.48-10.11-12.53-10.11-12.53,6.45.39,13.17-2.25,13.17-9.52A21.59,21.59,0,0,1,674.09,15h0l-2,3.94a1.24,1.24,0,0,0,.55,1.7l.07,0a1.31,1.31,0,0,0,1.73-.59l2-3.87,1.92,1.07,0,0-2,3.92a1.25,1.25,0,0,0,.55,1.71l.06,0a1.33,1.33,0,0,0,1.74-.59l2-3.8c.67.37,1.34.73,2,1.09l-2,3.82a1.26,1.26,0,0,0,.55,1.71l.07,0a1.3,1.3,0,0,0,1.73-.59l2-3.8c.62.29,1.23.57,1.86.84l-2,3.78a1.25,1.25,0,0,0,.55,1.71l.07,0a1.3,1.3,0,0,0,1.73-.59l2-3.94,0-.07h0c1.25.41,4.19,2.66,8.79,3.27C703.15,26.52,705.58,27.81,706.17,29.31Z"/><path class="cls-3" d="M686.87,21.66l.08-.16a1.32,1.32,0,0,1,1.73-.59l.07,0a1.24,1.24,0,0,1,.58,1.63l0,.07-2,3.94a1.3,1.3,0,0,1-1.73.59l-.07,0a1.25,1.25,0,0,1-.55-1.71Z"/><path class="cls-3" d="M684.53,19a1.24,1.24,0,0,1,.55,1.7l-.07.14-2,3.8a1.3,1.3,0,0,1-1.73.59l-.07,0a1.26,1.26,0,0,1-.55-1.71l2-3.82.06-.12a1.33,1.33,0,0,1,1.74-.59Z"/><path class="cls-3" d="M680.64,18.56l-2,3.8a1.33,1.33,0,0,1-1.74.59l-.06,0a1.25,1.25,0,0,1-.55-1.71l2-3.92v0a1.31,1.31,0,0,1,1.73-.59l.07,0a1.26,1.26,0,0,1,.55,1.71Z"/><path class="cls-3" d="M675.89,14.42a1.25,1.25,0,0,1,.55,1.71l0,.07-2,3.87a1.31,1.31,0,0,1-1.73.59l-.07,0a1.24,1.24,0,0,1-.55-1.7l2-3.94h0a1.31,1.31,0,0,1,1.73-.58Z"/><path class="cls-3" d="M668.9,13.21a6.23,6.23,0,0,1,1.78.31c0,7.27-6.72,9.91-13.17,9.52a19.8,19.8,0,0,1-5.23-1h0c-3.66-1.26-6.4-3.57-6.4-6.53.42-1.87,1.61-2.27,2.43-2.27,3.52,0,3.12,6.33,12.44,6.33C667.78,19.54,665.41,13.21,668.9,13.21Z"/><path class="cls-2" d="M667.62,35.57h0c-2.67.09-6,.43-9.34.64,1.51-5.85-3.28-10.89-6-14.2a19.8,19.8,0,0,0,5.23,1S666.59,27.09,667.62,35.57Z"/><path class="cls-2" d="M652.28,22c2.72,3.31,7.51,8.35,6,14.2-6.85.42-14,.28-16.45-3.69a8.26,8.26,0,0,1-1.19-3.83c0-.21,0-.42,0-.63,0-5,4.12-7.51,5.25-12.59,0,3,2.74,5.27,6.4,6.53Z"/><path class="cls-4" d="M640.64,28.7c-2.23,1.22-4,13.2,9.33,13.2h34.21c16.25,0,27-6.6,22-12.59"/><path class="cls-4" d="M652.28,22a19.8,19.8,0,0,0,5.23,1c6.45.39,13.17-2.25,13.17-9.52"/><path class="cls-4" d="M645.87,15.48c0,3,2.74,5.27,6.4,6.53"/><path class="cls-4" d="M674.09,15a1.31,1.31,0,0,1,1.73-.58l.07,0a1.25,1.25,0,0,1,.55,1.71l0,.07-2,3.87a1.31,1.31,0,0,1-1.73.59l-.07,0a1.24,1.24,0,0,1-.55-1.7l2-3.94Z"/><path class="cls-4" d="M678.35,17.29v0a1.31,1.31,0,0,1,1.73-.59l.07,0a1.26,1.26,0,0,1,.55,1.71l-.07.14-2,3.8a1.33,1.33,0,0,1-1.74.59l-.06,0a1.25,1.25,0,0,1-.55-1.71Z"/><path class="cls-4" d="M682.67,19.65l.06-.12a1.33,1.33,0,0,1,1.74-.59l.06,0a1.24,1.24,0,0,1,.55,1.7l-.07.14-2,3.8a1.3,1.3,0,0,1-1.73.59l-.07,0a1.26,1.26,0,0,1-.55-1.71Z"/><path class="cls-4" d="M689.33,22.58l0,.07-2,3.94a1.3,1.3,0,0,1-1.73.59l-.07,0a1.25,1.25,0,0,1-.55-1.71l2-3.78.08-.16a1.32,1.32,0,0,1,1.73-.59l.07,0A1.24,1.24,0,0,1,689.33,22.58Z"/><path class="cls-4" d="M685,20.82c.62.29,1.23.57,1.86.84h0"/><path class="cls-4" d="M680.63,18.56h0c.67.37,1.34.73,2,1.09"/><path class="cls-4" d="M676.4,16.2l1.92,1.07"/><path class="cls-4" d="M689.34,22.58c1.25.41,4.19,2.66,8.79,3.27,5,.67,7.45,2,8,3.46,1.52,3.87-9.11,9.18-19,9.18-7.4,0-12.52-2.94-18.23-2.94l-1.28,0c-2.67.09-6,.43-9.34.64-6.85.42-14,.28-16.45-3.69a8.26,8.26,0,0,1-1.19-3.83c0-.21,0-.42,0-.63,0-5,4.12-7.51,5.25-12.59.42-1.87,1.61-2.27,2.43-2.27,3.52,0,3.12,6.33,12.44,6.33,7,0,4.67-6.33,8.16-6.33a6.23,6.23,0,0,1,1.78.31A21.59,21.59,0,0,1,674.09,15"/><path class="cls-4" d="M652.27,22h0c2.72,3.31,7.51,8.35,6,14.2"/><path class="cls-4" d="M657.51,23s9.08,4.05,10.11,12.53"/><text class="cls-5" transform="translate(648.33 60.28)">Women’s<tspan x="2.59" y="12.4">Running</tspan></text><path class="cls-1" d="M775.15,311.17h-4.83v-9a3,3,0,0,0-3-3h-41a3,3,0,0,0-3,3v9h-5.83a3,3,0,0,0-3,3v19a3,3,0,0,0,3,3h57.66a3,3,0,0,0,3-3v-19A3,3,0,0,0,775.15,311.17Z"/><path class="cls-7" d="M781.73,285.92a2.6,2.6,0,0,1-.12.74h0c-2.93,2.87-16.84,5.12-23.61,5.19v-.05l-5.77-3.58v0c4.32.05,21.78-1.42,14.94-8.77l0-.08c2.09.67,4.09,1.25,5.95,1.74C781.4,283.21,781.73,285.06,781.73,285.92Z"/><path class="cls-3" d="M737.3,289.86a148.82,148.82,0,0,0,20.3,2H758c6.77-.07,20.68-2.32,23.61-5.19h0c-.31,1-1.39,2.62-4.67,4.1a22.2,22.2,0,0,1-2.7.95c-1.59.44-3.49.86-5.55,1.23-1.1.2-2.25.38-3.42.54-1.89.26-3.82.47-5.66.62-1,.07-1.93.13-2.84.16-.69,0-1.35,0-2,0-1.53,0-2.71-.05-3.7-.14-3.54-.32-4.71-1.08-10.71-1.49a57.7,57.7,0,0,0-9.66-.1c-1.73.14-3.14.35-5.67.41H723.8q-.77,0-1.47,0h0a22.41,22.41,0,0,1-5.56-.81c-4.53-1.32-5.84-4-5.84-6.74,2.63-1.61,6-2.14,15.51,1.74a32.05,32.05,0,0,0,4.37,1.37C732.77,289,735,289.47,737.3,289.86Z"/><path class="cls-3" d="M774.24,291.71l0,.08a3.25,3.25,0,0,0-.39,1.56,2.18,2.18,0,0,1-1.71,2.05,2.14,2.14,0,0,1-.5.06,2.17,2.17,0,0,1-1.93-1.16,3.19,3.19,0,0,0-1-1.23l0-.13C770.75,292.57,772.65,292.15,774.24,291.71Z"/><path class="cls-7" d="M759.51,280.1l1.5-2.92h0c2.1.79,4.17,1.51,6.16,2.15l0,.08c6.84,7.35-10.62,8.82-14.94,8.77v0L742,281.84l4.42-7.62.94.42-.17.33a1.1,1.1,0,0,0,.49,1.51l.05,0a1.16,1.16,0,0,0,1.53-.52l.2-.39h0l3.12,1.4-.19.36a1.1,1.1,0,0,0,.49,1.5l.06,0a1.15,1.15,0,0,0,1.52-.52l.22-.43h0l2.7,1.21,0,0-.14.27a1.1,1.1,0,0,0,.48,1.5l.06,0a1.16,1.16,0,0,0,1.53-.52Z"/><path class="cls-3" d="M765.27,293.48v0a3.17,3.17,0,0,0-.56,1.5,2.19,2.19,0,0,1-1.92,1.85l-.27,0a2.17,2.17,0,0,1-2-1.39,3.11,3.11,0,0,0-.88-1.33v-.07C761.45,293.95,763.38,293.74,765.27,293.48Z"/><path class="cls-3" d="M760.63,275.48a1.11,1.11,0,0,1,.48,1.51l-.1.19-1.5,2.92-.18.35a1.16,1.16,0,0,1-1.53.52l-.06,0a1.1,1.1,0,0,1-.48-1.5l.14-.27,1.44-2.82.2-.38a1.16,1.16,0,0,1,1.53-.52Z"/><path class="cls-7" d="M758.84,276.35l-1.44,2.82,0,0-2.7-1.21h0l1.41-2.74c.89.38,1.78.75,2.68,1.1Z"/><path class="cls-7" d="M758,291.79v.05h-.38a148.82,148.82,0,0,1-20.3-2l4.66-8,10.25,6.37Z"/><path class="cls-3" d="M756.77,294.26v.09a3.22,3.22,0,0,0-.75,1.4,2.2,2.2,0,0,1-4.25-.09,3.23,3.23,0,0,0-.69-1.44v-.06c1,.09,2.17.14,3.7.14C755.42,294.3,756.08,294.29,756.77,294.26Z"/><path class="cls-3" d="M755.74,273.4a1.1,1.1,0,0,1,.48,1.5l-.16.3-1.41,2.74-.22.43a1.15,1.15,0,0,1-1.52.52l-.06,0a1.1,1.1,0,0,1-.49-1.5l.19-.36,1.4-2.72.2-.39a1.16,1.16,0,0,1,1.53-.52Z"/><path class="cls-7" d="M753.95,274.28l-1.4,2.72-3.12-1.4h0l1.42-2.76C751.87,273.33,752.9,273.81,753.95,274.28Z"/><path class="cls-3" d="M747.32,274.64l1.46-2.83.16-.3a1.15,1.15,0,0,1,1.52-.52l.06,0a1.09,1.09,0,0,1,.49,1.5l-.17.32-1.42,2.76-.2.39a1.16,1.16,0,0,1-1.53.52l-.05,0a1.1,1.1,0,0,1-.49-1.51Z"/><path class="cls-7" d="M746.38,274.22l-1.87-.84,1.56-3c.89.5,1.79,1,2.71,1.46l-1.46,2.83Z"/><path class="cls-7" d="M742,281.84l-4.66,8c-2.31-.39-4.53-.83-6.5-1.34l9.8-16.89v0l1.79.82h0l-.08.15a1.11,1.11,0,0,0,.48,1.51l.06,0a1.16,1.16,0,0,0,1.53-.51l.11-.21,1.87.84Z"/><path class="cls-3" d="M746.07,270.35l-1.56,3-.11.21a1.16,1.16,0,0,1-1.53.51l-.06,0a1.11,1.11,0,0,1-.48-1.51l.08-.15,1.64-3.18h0l.06-.13a1.14,1.14,0,0,1,1.52-.52l.06,0a1.11,1.11,0,0,1,.49,1.51Z"/><path class="cls-7" d="M736.7,269.48A1.77,1.77,0,0,1,738,266.3a31.93,31.93,0,0,1,6.06,2.94l-1.64,3.18h0l-1.79-.82c-1.36-.63-2.35-1.1-2.72-1.29A5.22,5.22,0,0,1,736.7,269.48Z"/><path class="cls-7" d="M740.61,271.6v0l-9.8,16.89a32.05,32.05,0,0,1-4.37-1.37c-9.53-3.88-12.88-3.35-15.51-1.74,0-3.78,1.56-15.87,4.41-15.87s1.1,6.93,8.9,6.93c6.81,0,6.31-6.95,12.47-7a5.22,5.22,0,0,0,1.19.83C738.26,270.5,739.25,271,740.61,271.6Z"/><path class="cls-3" d="M730.72,292.57v.07a3.26,3.26,0,0,0-.61,1.48,2.19,2.19,0,0,1-2,1.78h-.18a2.18,2.18,0,0,1-2.06-1.45,3.14,3.14,0,0,0-.84-1.37V293C727.58,292.92,729,292.71,730.72,292.57Z"/><path class="cls-3" d="M722.32,293a3.43,3.43,0,0,0-.82,1.3,2.16,2.16,0,0,1-2.28,1.35h0a2.18,2.18,0,0,1-1.92-1.84,3.1,3.1,0,0,0-.55-1.51l0-.11A22.41,22.41,0,0,0,722.32,293Z"/><path class="cls-4" d="M710.92,285.41c2.63-1.61,6-2.14,15.51,1.74a32.05,32.05,0,0,0,4.37,1.37c2,.51,4.19.95,6.5,1.34a148.82,148.82,0,0,0,20.3,2H758c6.77-.07,20.68-2.32,23.61-5.19"/><polyline class="cls-4" points="746.43 274.13 746.38 274.22 741.96 281.84 737.3 289.86 737.18 290.07"/><polyline class="cls-4" points="740.6 271.63 730.8 288.52 730.77 288.57"/><polyline class="cls-4" points="741.8 281.74 741.96 281.84 752.21 288.21 757.98 291.79"/><path class="cls-4" d="M752.22,288.19c4.32.05,21.78-1.42,14.94-8.77"/><path class="cls-4" d="M722.32,293a3.43,3.43,0,0,0-.82,1.3,2.16,2.16,0,0,1-2.28,1.35h0a2.18,2.18,0,0,1-1.92-1.84,3.1,3.1,0,0,0-.55-1.51"/><path class="cls-4" d="M722.38,292.91l0,.05"/><path class="cls-4" d="M730.73,292.64a3.26,3.26,0,0,0-.61,1.48,2.19,2.19,0,0,1-2,1.78h-.18a2.18,2.18,0,0,1-2.06-1.45,3.14,3.14,0,0,0-.84-1.37"/><path class="cls-4" d="M756.77,294.35a3.22,3.22,0,0,0-.75,1.4,2.2,2.2,0,0,1-4.25-.09,3.23,3.23,0,0,0-.69-1.44"/><path class="cls-4" d="M765.28,293.52a3.17,3.17,0,0,0-.56,1.5,2.19,2.19,0,0,1-1.92,1.85l-.27,0a2.17,2.17,0,0,1-2-1.39,3.11,3.11,0,0,0-.88-1.33"/><path class="cls-4" d="M774.26,291.79a3.25,3.25,0,0,0-.39,1.56,2.18,2.18,0,0,1-1.71,2.05,2.14,2.14,0,0,1-.5.06,2.17,2.17,0,0,1-1.93-1.16,3.19,3.19,0,0,0-1-1.23"/><path class="cls-4" d="M744.06,269.24l.06-.13a1.14,1.14,0,0,1,1.52-.52l.06,0a1.11,1.11,0,0,1,.49,1.51l-.12.23-1.56,3-.11.21a1.16,1.16,0,0,1-1.53.51l-.06,0a1.11,1.11,0,0,1-.48-1.51l.08-.15,1.64-3.18"/><path class="cls-4" d="M748.78,271.81l.16-.3a1.15,1.15,0,0,1,1.52-.52l.06,0a1.09,1.09,0,0,1,.49,1.5l-.17.32-1.42,2.76-.2.39a1.16,1.16,0,0,1-1.53.52l-.05,0a1.1,1.1,0,0,1-.49-1.51l.17-.33Z"/><path class="cls-4" d="M753.95,274.28l.2-.39a1.16,1.16,0,0,1,1.53-.52l.06,0a1.1,1.1,0,0,1,.48,1.5l-.16.3-1.41,2.74-.22.43a1.15,1.15,0,0,1-1.52.52l-.06,0a1.1,1.1,0,0,1-.49-1.5l.19-.36Z"/><path class="cls-4" d="M758.84,276.35l.2-.38a1.16,1.16,0,0,1,1.53-.52l.06,0a1.11,1.11,0,0,1,.48,1.51l-.1.19-1.5,2.92-.18.35a1.16,1.16,0,0,1-1.53.52l-.06,0a1.1,1.1,0,0,1-.48-1.5l.14-.27Z"/><path class="cls-4" d="M761,277.19c2.1.79,4.17,1.51,6.16,2.15s4.09,1.25,5.95,1.74c8.26,2.13,8.59,4,8.59,4.84a2.6,2.6,0,0,1-.12.74c-.31,1-1.39,2.62-4.67,4.1a22.2,22.2,0,0,1-2.7.95c-1.59.44-3.49.86-5.55,1.23-1.1.2-2.25.38-3.42.54-1.89.26-3.82.47-5.66.62-1,.07-1.93.13-2.84.16-.69,0-1.35,0-2,0-1.53,0-2.71-.05-3.7-.14-3.54-.32-4.71-1.08-10.71-1.49a57.7,57.7,0,0,0-9.66-.1c-1.73.14-3.14.35-5.67.41H723.8q-.77,0-1.47,0h0a22.41,22.41,0,0,1-5.56-.81c-4.53-1.32-5.84-4-5.84-6.74,0-3.78,1.56-15.87,4.41-15.87s1.1,6.93,8.9,6.93c6.81,0,6.31-6.95,12.47-7h0"/><path class="cls-4" d="M756.06,275.2c.89.38,1.78.75,2.68,1.1"/><path class="cls-4" d="M750.84,272.84c1,.49,2.06,1,3.11,1.44"/><path class="cls-4" d="M746.06,270.35h0c.89.5,1.79,1,2.71,1.46"/><path class="cls-4" d="M742.4,272.42l-1.79-.82c-1.36-.63-2.35-1.1-2.72-1.29a5.22,5.22,0,0,1-1.19-.83A1.77,1.77,0,0,1,738,266.3a31.93,31.93,0,0,1,6.06,2.94h0"/><path class="cls-4" d="M747.33,274.65h0l-.94-.42-1.87-.84"/><path class="cls-4" d="M752.55,277l-3.12-1.4"/><path class="cls-4" d="M757.36,279.15l-2.7-1.21"/><path class="cls-4" d="M761.7,281.09l-2.19-1"/><text class="cls-5" transform="translate(730.26 314.78)">Men’s<tspan x="-2.35" y="12.4">Soccer</tspan></text><path class="cls-1" d="M437.87,69.92h4.83v9a3,3,0,0,0,3,3H481a3,3,0,0,0,3-3v-9h5.83a3,3,0,0,0,3-3v-19a3,3,0,0,0-3-3h-52a3,3,0,0,0-3,3v19A3,3,0,0,0,437.87,69.92Z"/><path class="cls-3" d="M484.67,28.39l-1.79,7.05h-38l-1.79-7c4.57-1.61,4.89-4.43,5.17-9S447.58,1,447.58,1L451.3.56c1.32,14.81,5.06,22,12.57,22s11.29-7.17,12.61-22l3.68.47s-.95,13.87-.66,18.4S480.1,26.78,484.67,28.39Z"/><polygon class="cls-6" points="482.88 35.44 481.74 39.95 463.87 39.95 446 39.95 444.86 35.44 482.88 35.44"/><path class="cls-4" d="M444.86,35.44,446,40h35.74l1.14-4.51,1.79-7c-4.57-1.61-4.89-4.43-5.17-9s.66-18.4.66-18.4L476.48.56c-1.32,14.81-5.1,22-12.61,22s-11.25-7.17-12.57-22L447.58,1s.95,13.87.66,18.4-.6,7.35-5.17,9Z"/><line class="cls-4" x1="444.86" y1="35.44" x2="482.88" y2="35.44"/><text class="cls-5" transform="translate(449.39 60.53)">Sport<tspan x="2.45" y="12.4">Bras</tspan></text><rect class="cls-1" x="39.25" y="311.67" width="72.5" height="24.5" rx="3" ry="3"/><path class="cls-6" d="M86.51,265.11c0,4.67-.67,12.79-.83,16.46s-2.15,25.08-2.15,25.08H78l-1.81-35.06s-.1-1.47-.72-1.47V261.9a29.29,29.29,0,0,0,10-1.61A14.3,14.3,0,0,1,86.51,265.11Z"/><path class="cls-6" d="M84.22,257.14c.42.94.9,2,1.3,3.15a29.29,29.29,0,0,1-10,1.61,29.29,29.29,0,0,1-10-1.61c.4-1.14.88-2.21,1.3-3.15a50.67,50.67,0,0,0,8.72,1A50.83,50.83,0,0,0,84.22,257.14Z"/><path class="cls-6" d="M75.5,261.9v8.22c-.62,0-.72,1.47-.72,1.47L73,306.65h-5.5s-2-21.41-2.15-25.08-.83-11.79-.83-16.46a14.3,14.3,0,0,1,1-4.82A29.29,29.29,0,0,0,75.5,261.9Z"/><path class="cls-4" d="M65.48,260.29c.4-1.14.88-2.21,1.3-3.15a50.67,50.67,0,0,0,8.72,1,50.83,50.83,0,0,0,8.72-1c.42.94.9,2,1.3,3.15a14.3,14.3,0,0,1,1,4.82c0,4.67-.67,12.79-.83,16.46s-2.15,25.08-2.15,25.08H78l-1.81-35.06s-.1-1.47-.72-1.47-.72,1.47-.72,1.47L73,306.65h-5.5s-2-21.41-2.15-25.08-.83-11.79-.83-16.46A14.3,14.3,0,0,1,65.48,260.29Z"/><line class="cls-4" x1="75.5" y1="270.12" x2="75.5" y2="261.9"/><path class="cls-4" d="M85.53,260.29h0a29.29,29.29,0,0,1-10,1.61,29.29,29.29,0,0,1-10-1.61h0"/><text class="cls-5" transform="translate(50.98 327.23)">Leggings</text><rect class="cls-1" x="123.24" y="214.34" width="58.33" height="24.5" rx="3" ry="3"/><path class="cls-2" d="M169.82,174.47l-4.11,7.73-5-2.32s2.32,15,1.05,22.94a10,10,0,0,0-6.76,6.51H149.8a10,10,0,0,0-6.76-6.51c-1.27-7.92,1.05-22.94,1.05-22.94l-5,2.32L135,174.47l12.23-5.91h.41a5.42,5.42,0,0,0,9.55,0h.41Z"/><path class="cls-6" d="M147.63,168.56h9.55a5.42,5.42,0,0,1-9.55,0Z"/><path class="cls-4" d="M147.63,168.56h-.41L135,174.47l4.11,7.73,5-2.32s-2.32,15-1.05,22.94a10,10,0,0,1,6.76,6.51H155a10,10,0,0,1,6.76-6.51c1.27-7.92-1.05-22.94-1.05-22.94l5,2.32,4.11-7.73-12.23-5.91h-10Z"/><path class="cls-4" d="M157.18,168.56a5.42,5.42,0,0,1-9.55,0"/><text class="cls-5" transform="translate(135.73 229.91)">Junior</text><path class="cls-1" d="M72.5,108.68H67.67v-9a3,3,0,0,0-3-3H12.33a3,3,0,0,0-3,3v9H3.5a3,3,0,0,0-3,3v19a3,3,0,0,0,3,3h69a3,3,0,0,0,3-3v-19A3,3,0,0,0,72.5,108.68Z"/><path class="cls-2" d="M50.94,53.72V77a5.89,5.89,0,0,1-2.23,4.61l-11.4,9a5.13,5.13,0,0,1-7.21-.86,4.65,4.65,0,0,1-.53-.83,5.17,5.17,0,0,0,3.78-1.08l8.31-6.58h0l3.08-2.44A5.87,5.87,0,0,0,47,74.21V53.72Z"/><path class="cls-8" d="M47,72.72v1.49a5.87,5.87,0,0,1-2.24,4.61l-3.08,2.44V72.72Z"/><rect class="cls-3" x="37.27" y="55" width="9.71" height="3.59"/><path class="cls-3" d="M26.88,79.91l6.47,7.94a5.17,5.17,0,0,1-3.78,1.08h0a5.12,5.12,0,0,1-2.69-9Z"/><path class="cls-4" d="M29.57,88.92a5.12,5.12,0,0,1-2.69-9l10.39-8.7V50.95H47V74.21a5.87,5.87,0,0,1-2.24,4.61l-3.08,2.44"/><path class="cls-4" d="M41.66,81.27l-8.31,6.58a5.17,5.17,0,0,1-3.78,1.08"/><line class="cls-4" x1="26.88" y1="79.91" x2="33.35" y2="87.85"/><line class="cls-4" x1="37.27" y1="55" x2="46.98" y2="55"/><line class="cls-4" x1="37.27" y1="58.59" x2="46.98" y2="58.59"/><polyline class="cls-4" points="46.98 72.72 41.66 72.72 41.66 81.25 41.66 81.27"/><path class="cls-4" d="M47,53.72h4V77a5.89,5.89,0,0,1-2.23,4.61l-11.4,9a5.13,5.13,0,0,1-7.21-.86,4.65,4.65,0,0,1-.53-.83h0"/><text class="cls-5" transform="translate(16.6 112.3)">Socks &amp;<tspan x="-8.41" y="12.4">Underwear</tspan></text><path class="cls-1" d="M364,228.6h-2v-9a3,3,0,0,0-3-3H301a3,3,0,0,0-3,3v9h-3a3,3,0,0,0-3,3v19a3,3,0,0,0,3,3h69a3,3,0,0,0,3-3v-19A3,3,0,0,0,364,228.6Z"/><path class="cls-3" d="M353.49,192.52a3.67,3.67,0,1,1,0,7.33h-.36v-7.33Z"/><path class="cls-7" d="M353.13,199.85v5.69c0,1.49-1.65,2.7-3.68,2.7v-24.1c2,0,3.68,1.2,3.68,2.7v13Z"/><path class="cls-7" d="M349.45,184.22v24a3.45,3.45,0,0,1-3.45,3.37,3.45,3.45,0,0,1-3.46-3.46V184.22a3.46,3.46,0,0,1,6.91-.08Z"/><rect class="cls-3" x="316.46" y="193.24" width="26.08" height="5.89"/><path class="cls-7" d="M316.46,199.13v9a3.46,3.46,0,0,1-6.91.09v-24.1a3.45,3.45,0,0,1,3.45-3.37,3.5,3.5,0,0,1,2.45,1,3.44,3.44,0,0,1,1,2.44v14.91Z"/><path class="cls-7" d="M309.55,184.14v24.1c-2,0-3.68-1.21-3.68-2.7v-18.7C305.87,185.34,307.52,184.14,309.55,184.14Z"/><path class="cls-3" d="M305.87,192.52v7.33h-.36a3.66,3.66,0,0,1-3.66-3.66,3.65,3.65,0,0,1,3.66-3.67Z"/><path class="cls-4" d="M316.46,199.13v9a3.46,3.46,0,0,1-6.91.09v-24.1a3.45,3.45,0,0,1,3.45-3.37,3.5,3.5,0,0,1,2.45,1,3.44,3.44,0,0,1,1,2.44v9"/><path class="cls-4" d="M305.87,192.52v-5.68c0-1.5,1.65-2.7,3.68-2.7"/><path class="cls-4" d="M309.55,208.24c-2,0-3.68-1.21-3.68-2.7v-5.69"/><path class="cls-4" d="M305.87,199.85h-.36a3.66,3.66,0,0,1-3.66-3.66,3.65,3.65,0,0,1,3.66-3.67h.36Z"/><path class="cls-4" d="M342.54,193.24v-9a3.46,3.46,0,0,1,6.91-.08v24.1a3.45,3.45,0,0,1-3.45,3.37,3.45,3.45,0,0,1-3.46-3.46v-9"/><path class="cls-4" d="M353.13,199.85v5.69c0,1.49-1.65,2.7-3.68,2.7"/><path class="cls-4" d="M349.45,184.14c2,0,3.68,1.2,3.68,2.7v5.68"/><path class="cls-4" d="M353.13,192.52h.36a3.67,3.67,0,1,1,0,7.33h-.36Z"/><rect class="cls-4" x="316.46" y="193.24" width="26.08" height="5.89"/><text class="cls-5" transform="translate(307.54 232.17)">Training<tspan x="-6.97" y="12.4">Equipment</tspan></text><rect class="cls-1" x="223.6" y="311.67" width="72.5" height="24.5" rx="3" ry="3"/><path class="cls-6" d="M275.24,285.72l-.07,18.5-30.69-.11.07-18.5c6-4.81,4.34-18.43,4.34-18.43l4.6,0c0,10.52,6.43,11.89,6.43,11.89s6.47-1.32,6.5-11.85l4.61,0S269.23,280.87,275.24,285.72Z"/><polygon class="cls-3" points="275.17 304.22 275.16 306.67 259.82 306.61 244.47 306.56 244.48 304.11 275.17 304.22"/><path class="cls-4" d="M244.48,304.11v2.45l15.35.05,15.34.06v-2.45l.07-18.5c-6-4.85-4.21-18.46-4.21-18.46l-4.61,0c0,10.53-6.5,11.85-6.5,11.85s-6.46-1.37-6.43-11.89l-4.6,0s1.7,13.62-4.34,18.43Z"/><line class="cls-4" x1="244.48" y1="304.11" x2="275.17" y2="304.22"/><line class="cls-4" x1="263.81" y1="282.85" x2="269.5" y2="282.87"/><line class="cls-4" x1="263.8" y1="285.3" x2="269.49" y2="285.32"/><text class="cls-5" transform="translate(231.89 327.23)">Basketball</text><path class="cls-1" d="M588.35,109.33h-7.67v-9a3,3,0,0,0-3-3H525.35a3,3,0,0,0-3,3v9h-8.67a3,3,0,0,0-3,3v19a3,3,0,0,0,3,3h74.67a3,3,0,0,0,3-3v-19A3,3,0,0,0,588.35,109.33Z"/><text class="cls-5" transform="translate(532.16 112.9)">Bags &amp;<tspan x="-13.31" y="12.4">Accessories</tspan></text><path class="cls-2" d="M572.23,85.49v4.13a2.72,2.72,0,0,1-2.72,2.72h-2.3v0c0-3.77,2.19-6.82,4.9-6.82Z"/><path class="cls-2" d="M572.23,81.14v4.35h-.12c-2.71,0-4.9,3.05-4.9,6.82v0h-3.4V77.74a44.61,44.61,0,0,0-1.31-10.93A15.42,15.42,0,0,1,572.23,81.14Z"/><path class="cls-3" d="M558.33,65.8C556.77,59.31,554.06,55,551,55l.1-2.17c5,.08,9.37,5.75,11.44,14a44.61,44.61,0,0,1,1.31,10.93v14.6h-4.08V78.54A55,55,0,0,0,558.33,65.8Z"/><path class="cls-2" d="M559.73,78.54v13.8H542.18V78.54a54.91,54.91,0,0,1,1.4-12.73c.54,0,1.08-.08,1.63-.08h11.61c.51,0,1,0,1.51.07A55,55,0,0,1,559.73,78.54Z"/><path class="cls-3" d="M551.06,52.85,551,55c-3.1,0-5.82,4.3-7.38,10.79a54.91,54.91,0,0,0-1.4,12.73v13.8h-4.07V77.74a44.77,44.77,0,0,1,1.29-10.88c2.08-8.3,6.48-14,11.56-14Z"/><path class="cls-2" d="M539.4,66.86a44.77,44.77,0,0,0-1.29,10.88v14.6h-3.4v0c0-3.77-2.2-6.82-4.91-6.82V81.14A15.42,15.42,0,0,1,539.4,66.86Z"/><path class="cls-2" d="M534.71,92.31v0h-2.19a2.72,2.72,0,0,1-2.72-2.72V85.49C532.51,85.49,534.71,88.54,534.71,92.31Z"/><line class="cls-9" x1="545.52" y1="78.23" x2="556.67" y2="78.23"/><path class="cls-9" d="M529.8,85.49c2.71,0,4.91,3.05,4.91,6.82"/><path class="cls-9" d="M572.11,85.49c-2.71,0-4.9,3.05-4.9,6.82"/><path class="cls-9" d="M538.11,92.34V77.74a44.77,44.77,0,0,1,1.29-10.88c2.08-8.3,6.48-14,11.56-14h.1c5,.08,9.37,5.75,11.44,14a44.61,44.61,0,0,1,1.31,10.93v14.6"/><path class="cls-9" d="M542.18,92.34V78.54a54.91,54.91,0,0,1,1.4-12.73C545.14,59.32,547.86,55,551,55s5.81,4.29,7.37,10.78a55,55,0,0,1,1.4,12.74v13.8"/><path class="cls-9" d="M543.58,65.81c.54,0,1.08-.08,1.63-.08h11.61c.51,0,1,0,1.51.07h0"/><path class="cls-9" d="M562.5,66.81a15.42,15.42,0,0,1,9.73,14.33v8.48a2.72,2.72,0,0,1-2.72,2.72h-37a2.72,2.72,0,0,1-2.72-2.72V81.14a15.42,15.42,0,0,1,9.6-14.28"/><path class="cls-1" d="M492.7,311.17h-4.83v-9a3,3,0,0,0-3-3h-41a3,3,0,0,0-3,3v9H435a3,3,0,0,0-3,3v19a3,3,0,0,0,3,3H492.7a3,3,0,0,0,3-3v-19A3,3,0,0,0,492.7,311.17Z"/><text class="cls-5" transform="translate(447.81 314.78)">Men’s<tspan x="-6.27" y="12.4">Running</tspan></text><path class="cls-3" d="M473.3,275.72c5.65,2.31,12.21,4.41,14.68,4.59,4,.31,7.74.12,7.74,2.75,0,.44,0,.85,0,1.23-4.57,7-30.71,5.9-43.46,3.12l-4.44-1c.82-6.87-7-9.52-10.62-12a13.51,13.51,0,0,0,.79-3.65c2.64,2,5.89,4.55,9,4.55s9.41-4.76,11.7-7.66a32.6,32.6,0,0,1,6,3.67l.37.27a20.68,20.68,0,0,0,2.26,1.37l.13.06c.83.45,1.78.9,2.8,1.37l.09,0C471.35,274.91,472.31,275.32,473.3,275.72Z"/><path class="cls-3" d="M437.24,274.47c3.61,2.46,11.43,5.1,10.62,12-7.26-1.6-10-2.17-14.91-2.17a27.75,27.75,0,0,1,2-4.33A35.66,35.66,0,0,0,437.24,274.47Z"/><path class="cls-4" d="M454.57,266.78c0-1-.16-3.57,1.83-3.57,2.31,0,5.94,5.61,8.41,8.14l.2.2"/><path class="cls-4" d="M495.75,284.3c.05,1.91-.11,3.28-3.86,5.11a40.78,40.78,0,0,1-7.34,2.6c-.34.09-.71,0-1.06.08s-.57.39-.92.47-.78-.09-1.13,0-.65.37-1,.44-.71-.14-1.07-.09-.63.47-1,.52-.74-.27-1.1-.23-.65.44-1,.48-.73-.29-1.08-.26-.66.43-1,.46-.72-.31-1.08-.29-.66.42-1,.43-.71-.32-1.07-.31-.67.4-1,.42-.71-.34-1.06-.33-.69.38-1,.39-.71-.35-1.06-.34-.69.37-1,.37-.7-.37-1-.37-.7.37-1.05.36-.69-.37-1-.37-.71.36-1.05.35-.69-.38-1-.4-.71.35-1.06.34-.68-.39-1-.41-.71.34-1.06.32-.68-.4-1-.42-.71.33-1.07.31-.67-.4-1-.43-.71.32-1.07.3-.67-.41-1-.43-.72.31-1.07.29-.67-.42-1-.44-.72.31-1.07.28-.66-.43-1-.45-.72.31-1.08.27-.66-.43-1-.46-.73.3-1.08.26-.66-.43-1-.47-.7.22-1,.19-.7-.37-1-.41-.72.18-1.07.14-.67-.33-1-.37-.71.1-1.06.07c-6.19-.72-6.54-3.34-6.54-6,0,0,.06-1.71,1-2a27.75,27.75,0,0,1,2-4.33,35.66,35.66,0,0,0,2.34-5.48,13.51,13.51,0,0,0,.79-3.65c0-1.9,1.39-4.85,2.82-5.66a1.5,1.5,0,0,1,.72-.21c3.17,0,.22,7.14,3.82,7.14,3.11,0,6.41-5.31,8.85-5.31h.33a11.07,11.07,0,0,1,4.2.93,32.6,32.6,0,0,1,6,3.67l.37.27a20.68,20.68,0,0,0,2.26,1.37l.13.06c.83.45,1.78.9,2.8,1.37l.09,0c.9.42,1.86.83,2.86,1.23,5.65,2.31,12.21,4.41,14.68,4.59,4,.31,7.74.12,7.74,2.75C495.72,283.51,495.74,283.92,495.75,284.3Z"/><path class="cls-4" d="M432.94,284.28c4.91,0,7.65.57,14.91,2.17l4.44,1c12.75,2.78,38.89,3.9,43.46-3.12v0"/><path class="cls-4" d="M438,270.82c2.64,2,5.89,4.55,9,4.55s9.41-4.76,11.7-7.66"/><path class="cls-4" d="M437.24,274.47c3.61,2.46,11.43,5.1,10.62,12"/><path class="cls-4" d="M440.85,265.16s.34-2.35-1.17-2.35-1.63,5.54-1.65,8"/><path class="cls-4" d="M464.75,271.45l0-.06,0,0a1.46,1.46,0,0,1,1.91-.19,1.41,1.41,0,0,1,.72,1.85"/><path class="cls-4" d="M467.58,273a1.6,1.6,0,0,1,2.77,1.42v0"/><path class="cls-4" d="M470.45,274.48a1.43,1.43,0,0,1,1.92-.51,1.41,1.41,0,0,1,.93,1.75h0"/><path class="cls-1" d="M358.33,109.33h-4.83v-9a3,3,0,0,0-3-3h-41a3,3,0,0,0-3,3v9h-5.83a3,3,0,0,0-3,3v19a3,3,0,0,0,3,3h57.66a3,3,0,0,0,3-3v-19A3,3,0,0,0,358.33,109.33Z"/><text class="cls-5" transform="translate(313.44 112.95)">Men’s<tspan x="-2.15" y="12.4">Casual</tspan></text><path class="cls-7" d="M361.36,81.9h0c-5.25,5.15-12.53,5.59-18.26,5.59h-16l7.1-9.87c1.29.22,2.64.4,4,.55a80.4,80.4,0,0,0,16.24.07c1,.2,1.82.36,2.48.48C360.35,79.32,361.18,80.54,361.36,81.9Z"/><path class="cls-7" d="M340.74,74.63c5.32,1.69,10.38,2.9,13.75,3.61a80.4,80.4,0,0,1-16.24-.07L338.4,77a.76.76,0,0,0,.63-.17A7.13,7.13,0,0,0,340.74,74.63Z"/><path class="cls-7" d="M339.13,74.11l0,0c-.47.65-.82,1.05-1.35,1.8a.71.71,0,0,0,.23,1,.87.87,0,0,0,.37.14l-.14,1.15c-1.4-.15-2.76-.33-4-.55h0l.3-1.81a.82.82,0,0,0,.53-.17,7.67,7.67,0,0,0,1.8-2.32C337.58,73.59,338.35,73.85,339.13,74.11Z"/><path class="cls-7" d="M334.47,75.8l-.3,1.81c-1.7-.27-3.31-.6-4.79-1l.48-2.1a1,1,0,0,0,.88-.15,9.44,9.44,0,0,0,2.12-2.61c.77.32,1.56.63,2.35.94a8.56,8.56,0,0,1-1.5,1.84c-.44.45.14,1,.2,1A.87.87,0,0,0,334.47,75.8Z"/><path class="cls-7" d="M334.21,77.62l-7.1,9.87H304.45v-10a28.68,28.68,0,0,0,7.8,1.09c8.1,0,11.77-3.54,11.77-3.54a54.14,54.14,0,0,0,5.37,1.57c1.48.36,3.09.68,4.79,1Z"/><path class="cls-7" d="M329,70.08c.72.35,1.45.69,2.19,1a15,15,0,0,1-1.73,2.12.77.77,0,0,0,.1,1.2.94.94,0,0,0,.27.14l-.48,2.1A54.14,54.14,0,0,1,324,75.08a28.66,28.66,0,0,1-5-2.23,11.58,11.58,0,0,0,3.68-3.95c.65-1,2-1.1,3.45-.31l1.22.66a13.74,13.74,0,0,1-2,2.39.79.79,0,0,0,0,1.13,1,1,0,0,0,1.25.14A8.75,8.75,0,0,0,329,70.08Z"/><path class="cls-7" d="M324,75.08s-3.67,3.54-11.77,3.54a28.68,28.68,0,0,1-7.8-1.09,25.33,25.33,0,0,1-6-2.45,10.86,10.86,0,0,1,1.19-3.83,29.68,29.68,0,0,0,13,3.3,11.86,11.86,0,0,0,6.44-1.7A28.66,28.66,0,0,0,324,75.08Z"/><path class="cls-7" d="M304.45,77.53v10h-6.39a63.48,63.48,0,0,1,.38-12.41A25.33,25.33,0,0,0,304.45,77.53Z"/><path class="cls-9" d="M327.4,69.26l-1.22-.66c-1.49-.79-2.8-.7-3.45.31A11.58,11.58,0,0,1,319,72.85a11.86,11.86,0,0,1-6.44,1.7,29.68,29.68,0,0,1-13-3.3,10.86,10.86,0,0,0-1.19,3.83,63.48,63.48,0,0,0-.38,12.41s-1.4,3.88.67,4.89h46.61c6.95,0,10.82-2.19,12.92-3.59a5.3,5.3,0,0,0,3.07-4.63,20.08,20.08,0,0,0,0-2.26c-.18-1.36-1-2.59-4.38-3.19-.66-.12-1.5-.27-2.48-.48-3.38-.71-8.43-1.91-13.75-3.61"/><path class="cls-9" d="M298.07,87.49h45c5.73,0,13-.43,18.26-5.59"/><path class="cls-9" d="M319,72.85h0a28.66,28.66,0,0,0,5,2.23,54.14,54.14,0,0,0,5.37,1.57c1.48.36,3.09.68,4.79,1h0c1.29.22,2.64.4,4,.55a80.4,80.4,0,0,0,16.24.07"/><path class="cls-9" d="M298.45,75.08a25.33,25.33,0,0,0,6,2.45,28.68,28.68,0,0,0,7.8,1.09c8.1,0,11.77-3.54,11.77-3.54"/><line class="cls-9" x1="304.45" y1="77.53" x2="304.45" y2="87.49"/><path class="cls-4" d="M329,70.08a8.75,8.75,0,0,1-2.42,2.84,1,1,0,0,1-1.25-.14.79.79,0,0,1,0-1.13,13.74,13.74,0,0,0,2-2.39c.07-.12.14-.24.2-.37a.88.88,0,0,1,1.35-.2,1,1,0,0,1,.2,1.17A1.83,1.83,0,0,1,329,70.08Z"/><path class="cls-4" d="M329.86,74.55a.94.94,0,0,1-.27-.14.77.77,0,0,1-.1-1.2,15,15,0,0,0,1.73-2.12,5.74,5.74,0,0,0,.31-.56.8.8,0,0,1,1.14-.19.81.81,0,0,1,.43,1c-.08.16-.16.32-.25.48a9.44,9.44,0,0,1-2.12,2.61A1,1,0,0,1,329.86,74.55Z"/><path class="cls-4" d="M334.47,75.8a.87.87,0,0,1-.55-.19c-.06-.05-.65-.6-.2-1a8.56,8.56,0,0,0,1.5-1.84,5,5,0,0,0,.24-.48.83.83,0,0,1,1.17-.26.84.84,0,0,1,.37.94l-.18.38a7.67,7.67,0,0,1-1.8,2.32A.82.82,0,0,1,334.47,75.8Z"/><path class="cls-4" d="M338.4,77a.87.87,0,0,1-.37-.14.71.71,0,0,1-.23-1c.54-.75.88-1.16,1.35-1.8l.21-.31a.83.83,0,0,1,1.22-.28.65.65,0,0,1,.29.81,2,2,0,0,1-.12.28A7.13,7.13,0,0,1,339,76.85.76.76,0,0,1,338.4,77Z"/><line class="cls-4" x1="334.21" y1="77.62" x2="327.11" y2="87.49"/><path class="cls-9" d="M331.23,71.09c-.75-.32-1.47-.66-2.19-1h0"/><path class="cls-9" d="M335.22,72.73h0c-.79-.31-1.57-.61-2.35-.94"/><path class="cls-9" d="M339.13,74.11c-.77-.26-1.55-.53-2.32-.81"/><path class="cls-1" d="M591.12,241.6H596v9a3,3,0,0,0,3,3h52.33a3,3,0,0,0,3-3v-9h5.83a3,3,0,0,0,3-3v-19a3,3,0,0,0-3-3h-69a3,3,0,0,0-3,3v19A3,3,0,0,0,591.12,241.6Z"/><text class="cls-5" transform="translate(600.71 231.96)">Women’s<tspan x="6.7" y="12.4">Casual</tspan></text><path class="cls-2" d="M657.5,206.07H624.15l9.23-9.76.39.23,1,.6,1,.53c-.64,1.72,0,5,3.91,5s12.89.71,13.9-1.39A5,5,0,0,1,657.5,206.07Z"/><path class="cls-2" d="M652.55,201a8.43,8.43,0,0,1,1,.25c-1,2.11-10,1.39-13.9,1.39s-4.55-3.28-3.91-5c3,1.57,6.49,2.88,8-.26A42.39,42.39,0,0,0,652.55,201Z"/><path class="cls-2" d="M643.77,197.41c-1.52,3.15-5,1.84-8,.26l-1-.53-1-.6.53-.88a.91.91,0,0,0,.92-.05l2.14-1.39a1,1,0,0,0,.24-.22C639.87,195.36,641.94,196.49,643.77,197.41Z"/><path class="cls-2" d="M637.61,193a.85.85,0,0,1,0,1,1,1,0,0,1-.24.22l-2.14,1.39a.91.91,0,0,1-.92.05.88.88,0,0,1-.34-.3l-.14-.2a.87.87,0,0,1,.26-1.22l1.64-1.06.5-.32a.92.92,0,0,1,1.26.25Z"/><path class="cls-2" d="M635.71,192.88l-1.64,1.06a.87.87,0,0,0-.26,1.22l.14.2a.88.88,0,0,0,.34.3l-.53.88-.39-.23-13-7.76-5.3-3.16a9.49,9.49,0,0,1,3.41-1.79,6.77,6.77,0,0,1,5.27,1l0,0,1,.73-2.43,1.17a1,1,0,0,0-.46,1.31l0,.05a1,1,0,0,0,1.34.44l3.09-1.48a.79.79,0,0,0,.24-.16c.61.45,1.22.88,1.82,1.3l-2.1,1a.93.93,0,0,0-.44,1.27l.05.11a1,1,0,0,0,1.3.43l2.82-1.36a1,1,0,0,0,.24-.15l1.64,1.11-1.6,1a.87.87,0,0,0-.25,1.22l.14.2a.92.92,0,0,0,1.26.25l2.17-1.4a.74.74,0,0,0,.13-.11Z"/><path class="cls-2" d="M633.71,191.62a.74.74,0,0,1-.13.11l-2.17,1.4a.92.92,0,0,1-1.26-.25l-.14-.2a.87.87,0,0,1,.25-1.22l1.6-1,.57-.37a.92.92,0,0,1,1.26.25l.14.2A.87.87,0,0,1,633.71,191.62Z"/><polygon class="cls-2" points="620.36 188.55 633.38 196.32 624.15 206.07 603.57 206.07 620.36 188.55"/><path class="cls-2" d="M630.42,188.21a.92.92,0,0,1-.2,1.11,1,1,0,0,1-.24.15l-2.82,1.36a1,1,0,0,1-1.3-.43l-.05-.11a.93.93,0,0,1,.44-1.27l2.1-1,.72-.35a1,1,0,0,1,1.3.43Z"/><path class="cls-2" d="M624.73,185.39l.65-.31a1,1,0,0,1,1.34.44l0,.05a1,1,0,0,1-.22,1.15.79.79,0,0,1-.24.16l-3.09,1.48a1,1,0,0,1-1.34-.44l0-.05a1,1,0,0,1,.46-1.31Z"/><path class="cls-2" d="M620.36,188.55l-16.79,17.52h-8.49a21.31,21.31,0,0,1-1.35-8.39l8.28-7.36a4.13,4.13,0,0,0,2.57.8c3.53,0,7.35-3.49,10.48-5.72Z"/><path class="cls-2" d="M623.74,184.64a6.77,6.77,0,0,0-5.27-1,9.49,9.49,0,0,0-3.41,1.79c-2.18-1.59-.36-3.45,1.73-4.16C619.2,180.42,623.44,184.36,623.74,184.64Z"/><path class="cls-2" d="M602,190.32l-8.28,7.36V197c0-3.67,1-11,3.88-11C599.76,186,600.1,188.88,602,190.32Z"/><path class="cls-4" d="M615.06,185.4c-2.18-1.59-.36-3.45,1.73-4.16,2.42-.82,6.66,3.12,7,3.4"/><path class="cls-4" d="M624.85,185.47l-.12-.09-1-.73,0,0a6.77,6.77,0,0,0-5.27-1,9.49,9.49,0,0,0-3.41,1.79c-3.13,2.24-6.95,5.72-10.48,5.72a4.13,4.13,0,0,1-2.57-.8c-1.91-1.44-2.25-4.29-4.41-4.29-2.87,0-3.88,7.34-3.88,11v.64a21.31,21.31,0,0,0,1.35,8.39,4.2,4.2,0,0,0-.9,2.69c0,1.7.45,3.12,1.8,3.12h52.1c4,0,9.13-1.37,9.41-5.21a4.83,4.83,0,0,0,0-.6,5,5,0,0,0-3.94-4.79,8.43,8.43,0,0,0-1-.25,42.39,42.39,0,0,1-8.78-3.62c-1.83-.93-3.9-2.06-6.17-3.4"/><path class="cls-4" d="M615.06,185.4l5.3,3.16,13,7.76.39.23,1,.6,1,.53c3,1.57,6.49,2.88,8-.26"/><path class="cls-4" d="M635.76,197.68c-.64,1.72,0,5,3.91,5s12.89.71,13.9-1.39"/><polyline class="cls-4" points="595.08 206.07 603.57 206.07 624.15 206.07 657.5 206.07 657.51 206.07"/><line class="cls-4" x1="593.73" y1="197.68" x2="602.01" y2="190.32"/><line class="cls-4" x1="603.57" y1="206.07" x2="620.36" y2="188.55"/><line class="cls-4" x1="624.15" y1="206.07" x2="633.38" y2="196.32"/><path class="cls-4" d="M626.53,186.71a.79.79,0,0,1-.24.16l-3.09,1.48a1,1,0,0,1-1.34-.44l0-.05a1,1,0,0,1,.46-1.31l2.43-1.17.65-.31a1,1,0,0,1,1.34.44l0,.05A1,1,0,0,1,626.53,186.71Z"/><path class="cls-4" d="M630.22,189.32a1,1,0,0,1-.24.15l-2.82,1.36a1,1,0,0,1-1.3-.43l-.05-.11a.93.93,0,0,1,.44-1.27l2.1-1,.72-.35a1,1,0,0,1,1.3.43l.05.11A.92.92,0,0,1,630.22,189.32Z"/><path class="cls-4" d="M637.59,194a1,1,0,0,1-.24.22l-2.14,1.39a.91.91,0,0,1-.92.05.88.88,0,0,1-.34-.3l-.14-.2a.87.87,0,0,1,.26-1.22l1.64-1.06.5-.32a.92.92,0,0,1,1.26.25l.14.2A.85.85,0,0,1,637.59,194Z"/><path class="cls-4" d="M633.71,191.62a.74.74,0,0,1-.13.11l-2.17,1.4a.92.92,0,0,1-1.26-.25l-.14-.2a.87.87,0,0,1,.25-1.22l1.6-1,.57-.37a.92.92,0,0,1,1.26.25l.14.2A.87.87,0,0,1,633.71,191.62Z"/><path class="cls-4" d="M628.35,188c-.6-.42-1.21-.85-1.82-1.3"/><path class="cls-4" d="M631.86,190.42l-1.64-1.11"/><path class="cls-4" d="M635.71,192.88l-2-1.26,0,0"/></g></g></svg>
