<svg xmlns="http://www.w3.org/2000/svg" xmlns:xlink="http://www.w3.org/1999/xlink" viewBox="0 0 1920 965.01"><defs><style>.cls-1{fill:none;}.cls-2{fill:#1e7c90;}.cls-3{clip-path:url(#clip-path);}.cls-4{fill:#4a426d;}.cls-5{fill:#5f587e;}.cls-6{fill:#6ab9bf;}.cls-7{fill:#429ca5;}.cls-8{fill:#8cc9ce;}.cls-9{clip-path:url(#clip-path-2);}.cls-10{fill:#bfe1e4;}.cls-11{clip-path:url(#clip-path-3);}.cls-12{fill:#023d56;}.cls-13{fill:#2a3f65;}.cls-14{fill:#2f437a;}</style><clipPath id="clip-path"><rect class="cls-1" y="0.34" width="1920" height="964.66"/></clipPath><clipPath id="clip-path-2"><polygon class="cls-1" points="1351 775.84 1351 866.78 1390.23 901.34 1424 863.15 1424 754.02 1351 775.84"/></clipPath><clipPath id="clip-path-3"><polygon class="cls-1" points="1032.18 675.98 1021.29 734.22 1078.07 744.94 1184.31 681.63 1120.71 623.23 1032.18 675.98"/></clipPath></defs><title>intro-bg_1</title><g id="Layer_2" data-name="Layer 2"><g id="Layer_1-2" data-name="Layer 1"><rect class="cls-2" y="0.34" width="1920" height="964.66"/><g class="cls-3"><path class="cls-4" d="M598.75.83c-5.32,144.51-16.08,361.24-17.52,374.63C579.17,394.6,651.72,438.92,676,498s81.95,343.94,81.95,343.94l-43.05-4.64S498.69,447.34,503,422,392.43.34,392.43.34Z"/><path class="cls-5" d="M513.29.55C486,137.94,434.3,387.06,428.74,400.5c-7.36,17.78,5,61.81,11.7,125.33S337.11,922.22,337.11,922.22l-40-16.56s39.08-435.14,50.38-458.23C356.45,429.08,311.93.34,311.93.34Z"/><path class="cls-6" d="M340.07,965H180.93s-10.09-11.77,6.72-21.85,70.6-29.42,82.93-39.51a48.91,48.91,0,0,0,15.69-23.11s15.69,2.76,20.17,12.83S324.71,917.48,332,911s19-8.76,19-8.76V965Z"/><path class="cls-7" d="M786.46,871.55,657.66,965s-15.07-3.6-7.39-21.64,39.87-65.28,43.92-80.68a48.91,48.91,0,0,0-.88-27.92s14.32-7,23.86-1.46,28.94,8.79,31.07-.76,10.2-18.22,10.2-18.22l36.86,50.79Z"/><polygon class="cls-8" points="1100.79 634.88 1012.51 690.96 1031.79 736 1065.02 743 1085.63 743 1168.08 688.94 1100.79 634.88"/><polygon class="cls-8" points="1351 775.84 1351 866.78 1390.23 901.34 1424 863.15 1424 754.02 1351 775.84"/></g><g class="cls-9"><path class="cls-6" d="M1370.67,814A14.67,14.67,0,1,1,1356,799.33,14.67,14.67,0,0,1,1370.67,814"/><path class="cls-6" d="M1414.67,814A14.67,14.67,0,1,1,1400,799.33,14.67,14.67,0,0,1,1414.67,814"/><path class="cls-6" d="M1395.67,856A14.67,14.67,0,1,1,1381,841.33,14.67,14.67,0,0,1,1395.67,856"/><path class="cls-10" d="M1439.67,856A14.67,14.67,0,1,1,1425,841.33,14.67,14.67,0,0,1,1439.67,856"/></g><g class="cls-11"><path class="cls-6" d="M1095,664.51a16.62,16.62,0,1,1,5.77-22.79,16.62,16.62,0,0,1-5.77,22.79"/><path class="cls-6" d="M1120.5,707.35a16.62,16.62,0,1,1,5.77-22.79,16.62,16.62,0,0,1-5.77,22.79"/><path class="cls-6" d="M1068.59,713.21a16.62,16.62,0,1,1,5.77-22.79,16.62,16.62,0,0,1-5.77,22.79"/><path class="cls-10" d="M1094.12,756a16.62,16.62,0,1,1,5.77-22.79,16.62,16.62,0,0,1-5.77,22.79"/></g><g class="cls-3"><path class="cls-12" d="M1135.65,430s139.14-327.43,175.52-334.71S1413,197,1499.12,419h-33.36s-125.5-306.73-142.47-289.76S1168.08,430,1168.08,430Z"/><rect class="cls-12" x="1111" y="419" width="415" height="350"/><polygon class="cls-13" points="1334.81 615.79 1149.29 734.01 1081.99 615.79 1325.71 446.64 1334.81 615.79"/><path class="cls-13" d="M1351.18,965h258.27s16.37-19.1-10.91-35.47S1484,881.79,1463.94,865.42s-25.46-37.51-25.46-37.51-25.46,4.48-32.74,20.83-29.85,39.14-41.75,28.62-31-14.21-31-14.21V965Z"/><path class="cls-13" d="M951.31,730.69,1084,949.36s23.81,4.51,23.65-27-18.84-121.31-15.26-146.66S1110.89,735,1110.89,735s-17-19.2-34.55-17-48.06-4.37-45.27-19.85-3.48-32.74-3.48-32.74L1006,678.54l-64.64,39.23Z"/><path class="cls-14" d="M1178.39,0s-9.09,75.43,0,110,92.76,196.5,92.76,196.5L1325.71,794h138.23L1382.1,0Z"/><path class="cls-14" d="M267.91.34h10.42c-18.75,89.74-36.24,187-36.24,187l-9.88,19.15S248.08,100,267.91.34"/><path class="cls-14" d="M503.16.31c25.67,32,47.36,61,77.72,102.81l-19.15,5.05S529.84,59.12,484.87.35Z"/><rect class="cls-14" x="190.31" y="143.65" width="517" height="334" transform="translate(-64.37 124.69) rotate(-14.77)"/></g></g></g></svg>