<svg xmlns="http://www.w3.org/2000/svg" xmlns:xlink="http://www.w3.org/1999/xlink" viewBox="0 0 1575.73 899.52"><defs><style>.cls-1,.cls-10,.cls-18,.cls-21,.cls-31,.cls-32,.cls-33{fill:none;}.cls-2{clip-path:url(#clip-path);}.cls-3{fill:#007a94;}.cls-4{fill:#d7c2c2;}.cls-11,.cls-5{fill:#233960;}.cls-18,.cls-22,.cls-5{stroke:#0a2347;}.cls-10,.cls-18,.cls-20,.cls-21,.cls-22,.cls-23,.cls-31,.cls-32,.cls-33,.cls-34,.cls-5{stroke-miterlimit:10;}.cls-6{fill:#152c52;}.cls-7{fill:#586896;}.cls-8{fill:#8490b2;}.cls-9{fill:#2a3f74;}.cls-10,.cls-20{stroke:#122a4d;}.cls-12{fill:#193052;}.cls-13{fill:#43557e;}.cls-14{fill:#2a3f65;}.cls-15{fill:#63729d;}.cls-16{fill:#8e99b8;}.cls-17{fill:#2f437a;}.cls-19{fill:#4f6086;}.cls-20{fill:#1e94a0;}.cls-21{stroke:#86777d;}.cls-22{fill:#373c6e;}.cls-23,.cls-24{fill:#126c81;}.cls-23,.cls-33,.cls-34{stroke:#003b4a;}.cls-25{fill:#004457;}.cls-26{fill:#4a5c89;}.cls-27{fill:#00546a;}.cls-28{fill:#3b4d72;}.cls-29{fill:#1e7b9b;}.cls-30{fill:#006178;}.cls-31{stroke:#313f7b;}.cls-32{stroke:#0a547e;}.cls-34{fill:#1c7286;}.cls-35{clip-path:url(#clip-path-2);}.cls-36{fill:#45517c;}</style><clipPath id="clip-path" transform="translate(-141.26)"><rect class="cls-1" y="0.92" width="1920" height="964.66"/></clipPath><clipPath id="clip-path-2" transform="translate(-141.26)"><path class="cls-1" d="M651.49,355.08s-160,44.5-170,47S318,456.58,318,456.58l1,5-4.5,1L379,682.08l55.5,170s13.5-6.5,51.5-15.5,258.5-82.5,275.5-89.5,25.5-8.5,25.5-8.5Z"/></clipPath></defs><title>intro-bg_2</title><g id="Layer_2" data-name="Layer 2"><g id="Layer_1-2" data-name="Layer 1"><g class="cls-2"><path class="cls-3" d="M367.53,826.41s1.63,11.67-25.37,10.67c-12.78-.47-37.67-3.5-52.17-3-6.39.22-74.3,4.08-80.5-3.5-9-11,40.83-13.81,71.33-10.17,17.79,2.13,42.27-12.5,53.3-7.83S367.53,826.41,367.53,826.41Z" transform="translate(-141.26)"/><path class="cls-3" d="M609.32,833.58s3.68,11,25.79,10c10.46-.47,58.14-2.5,63.35-1.83s41.68.91,46.76-6.67c7.37-11-8.6-23-33.57-19.36-14.57,2.13-66-.64-75,4S609.32,833.58,609.32,833.58Z" transform="translate(-141.26)"/><path class="cls-3" d="M1378,889.83s-4.33,10.59-30.32,9.63c-12.3-.46-68.37-2.41-74.49-1.76s-49,.88-55-6.42c-8.66-10.59,10.11-22.14,39.47-18.63,17.13,2,77.55-.62,88.17,3.87S1378,889.83,1378,889.83Z" transform="translate(-141.26)"/><path class="cls-3" d="M1668.42,871.7s28.88,1.93,27.6,6.42-34.65,7.06-50.06,6.42-105.25-3.85-182.66-1.26c-15.63.52-30.2-1-28.7-5.95S1659.44,868.49,1668.42,871.7Z" transform="translate(-141.26)"/><polygon class="cls-4" points="1310.19 744.28 1302.2 771.74 1311.19 804.68 1386.07 812.67 1427.51 776.73 1389.07 735.79 1310.19 744.28"/><path class="cls-5" d="M1551.3,731.42s-4.74.5-6,2.5,5,17,5,17l3.49-4.37Z" transform="translate(-141.26)"/><path class="cls-6" d="M1541.07,727.32l0,.19h0c-1.39-1-17.45,4.93-39.43,6.92-1.32.13-2.67.24-4,.33-.19,0-.37,0-.57,0-3.1.19-6.23.3-9.33.3-1.15,0-2.31,0-3.44,0-1.5,0-3-.06-4.46-.12v-.31c.19-28.65-8.79-31.27-10.29-51.49s-17.22-67.39-15.73-83.87-6-65.15-6.74-80.13,0-75.63,6-98.1c3.46-13,7.65-31.12,10.72-46.64,2-10.09,3.55-19.07,4.1-24.73.06-.73.12-1.41.15-2,.55-9.36-.52-19.95.06-29.35-13,2.2-32.26,1.65-32.26,1.65h-4.12l-.37-.76c-3-6-.75-4.49-.75-12.73s-6-53.92-8.24-66.65-1.5-23.21-4.49-33.7S1373.7,78.08,1373,62.35c-.42-8.78-6.38-25.82-3.5-61.78l206.5.34c0,9.73-.06,28.49.69,39s3.74,18.72,1.5,26.21-.75,21-2.25,27.71,1.5,170-10.48,211.92-1.5,68.14-4.49,81.62-20.22,53.17-22.46,57.66-3,70.39-5.24,86.86-2.25,39.69-4.49,45.68-3,18.72-2.25,28.46,5.24,18,3.74,23.21,10.48,23.21,6.74,30-7.49,3-4.87,12.73.37,17.1,2.25,22.72c0,0,6,13.48,8.24,18.72S1541.07,727.32,1541.07,727.32Z" transform="translate(-141.26)"/><path class="cls-7" d="M1541.11,727.51c.48,2.37,5.08,25.34,3,26.76s-20.55,7.38-42.52,10.3a54,54,0,0,1-.16-11.23c.57-6.17.28-18.89.28-18.89v0c22-2,38-7.94,39.43-6.92Z" transform="translate(-141.26)"/><path class="cls-8" d="M1501.66,734.46s.28,12.72-.28,18.89a54,54,0,0,0,.16,11.23c-1.35.18-2.71.34-4.07.49v-.13a25.94,25.94,0,0,1-.49-9c.49-5.77.1-21.1.1-21.1h0c.19,0,.37,0,.57,0,1.36-.09,2.71-.19,4-.33Z" transform="translate(-141.26)"/><path class="cls-9" d="M1497.46,764.94v.13c-1.44.16-2.88.3-4.33.43-1.69.15-3.37.24-5,.3v-.22c-.84-2.62-.39-14.21,0-18.15a96,96,0,0,0-.36-12.34c3.1,0,6.23-.1,9.33-.3h0s.39,15.34-.1,21.1A25.94,25.94,0,0,0,1497.46,764.94Z" transform="translate(-141.26)"/><path class="cls-8" d="M1487.74,735.09a96,96,0,0,1,.36,12.34c-.37,3.94-.82,15.53,0,18.15v.22c-1.18,0-2.35.06-3.5.06v-.6c-.42-2.07-.55-13-.37-15.71.18-2.41.07-12.33,0-14.5C1485.43,735.07,1486.58,735.09,1487.74,735.09Z" transform="translate(-141.26)"/><path class="cls-7" d="M1484.62,765.27v.6c-21.46-.07-38-7.35-38.65-9.35-.75-2.25,1.62-12,1.62-12a87,87,0,0,0,0-13,253.09,253.09,0,0,0,32.24,3.38c1.47.06,3,.1,4.46.12,0,2.17.13,12.09,0,14.5C1484.07,752.28,1484.2,763.2,1484.62,765.27Z" transform="translate(-141.26)"/><path class="cls-6" d="M1469.55,683.14c1.5,20.22,10.48,22.84,10.29,51.49v.31a253.09,253.09,0,0,1-32.24-3.38c-.49-8-1-23.45-.49-29.44s-9.48-15.49-9.48-27.47,0-40.93-2-55.41-8.48-29.44-9-33.94-28.95-74.39-22.21-123.81,15.73-61.4,17.22-68.14c.43-1.93.91-3.85,1.39-5.81l2.35.57s23.89-11,38.43-13.69c-3.07,15.52-7.26,33.68-10.72,46.64-6,22.46-6.74,83.12-6,98.1s8.24,63.65,6.74,80.13S1468.06,662.92,1469.55,683.14Z" transform="translate(-141.26)"/><path class="cls-6" d="M1468.12,318.31c-.58,9.41.49,20-.06,29.35,0,.61-.09,1.29-.15,2-11,5.54-31.59,11.16-33.17,11.58l-4.27-.72a17.73,17.73,0,0,0,.9-2.4c2.25-7.49-2.25-21.72-.75-28.46,1.44-6.44,3.55-4.67,1.12-9.72h4.12S1455.07,320.51,1468.12,318.31Z" transform="translate(-141.26)"/><path class="cls-6" d="M1434.73,361.26c1.59-.42,22.18-6,33.17-11.58-.55,5.66-2.08,14.63-4.1,24.73-14.54,2.67-38.43,13.69-38.43,13.69l-2.35-.57a65,65,0,0,0,2.35-15.91c0-7.2,2.86-6.4,5.09-11.08Z" transform="translate(-141.26)"/><path class="cls-10" d="M1541.11,727.51l0-.19s3.74-8.73,1.5-14-8.24-18.72-8.24-18.72c-1.87-5.62.37-13-2.25-22.72s1.12-6,4.87-12.73-8.24-24.71-6.74-30-3-13.48-3.74-23.21,0-22.46,2.25-28.46,2.25-29.2,4.49-45.68,3-82.37,5.24-86.86,19.47-44.18,22.46-57.66-7.49-39.69,4.49-81.62,9-205.18,10.48-211.92,0-20.22,2.25-27.71-.75-15.73-1.5-26.21-.69-29.23-.69-39L1369.45.58c-2.88,36,3.09,53,3.5,61.78.75,15.73,41.93,133.29,44.93,143.78s2.25,21,4.49,33.7,8.24,58.41,8.24,66.65-2.25,6.74.75,12.73l.37.76c2.43,5,.31,3.28-1.12,9.72-1.5,6.74,3,21,.75,28.46a17.73,17.73,0,0,1-.9,2.4c-2.23,4.69-5.09,3.88-5.09,11.08a65,65,0,0,1-2.35,15.91c-.48,2-1,3.88-1.39,5.81-1.5,6.74-10.48,18.72-17.22,68.14s21.72,119.32,22.21,123.81,7,19.47,9,33.94,2,43.43,2,55.41,10,21.48,9.48,27.47,0,21.46.49,29.44a87,87,0,0,1,0,13s-2.37,9.73-1.62,12c.67,2,17.19,9.27,38.65,9.35,1.15,0,2.32,0,3.5-.06,1.65-.06,3.32-.15,5-.3,1.45-.13,2.89-.27,4.33-.43s2.73-.31,4.07-.49c22-2.92,40.53-9,42.52-10.3S1541.59,729.88,1541.11,727.51Z" transform="translate(-141.26)"/><path class="cls-10" d="M1479.84,734.63c.19-28.65-8.79-31.27-10.29-51.49s-17.22-67.39-15.73-83.87-6-65.15-6.74-80.13,0-75.63,6-98.1c3.46-13,7.65-31.12,10.72-46.64,2-10.09,3.55-19.07,4.1-24.73.06-.73.12-1.41.15-2,.55-9.36-.52-19.95.06-29.35a49,49,0,0,1,1.44-9.59c3-11.23,9-179,4.49-201.44" transform="translate(-141.26)"/><path class="cls-10" d="M1434.63,361.29l.1,0c1.59-.42,22.18-6,33.17-11.58,2.88-1.47,5.09-2.92,6.14-4.27" transform="translate(-141.26)"/><path class="cls-10" d="M1435.86,320s19.22.55,32.26-1.65A44.27,44.27,0,0,0,1474,317" transform="translate(-141.26)"/><path class="cls-10" d="M1425.37,388.1s23.89-11,38.43-13.69a34.41,34.41,0,0,1,4.25-.54" transform="translate(-141.26)"/><path class="cls-10" d="M1447.46,700.54s10.3,13.12,17.79,17.22" transform="translate(-141.26)"/><path class="cls-10" d="M1447.58,731.56a253.09,253.09,0,0,0,32.24,3.38c1.47.06,3,.1,4.46.12,1.14,0,2.29,0,3.44,0,3.1,0,6.23-.1,9.33-.3.19,0,.37,0,.57,0,1.36-.09,2.71-.19,4-.33,22-2,38-7.94,39.43-6.92" transform="translate(-141.26)"/><path class="cls-10" d="M1501.56,764.76a.82.82,0,0,1,0-.18,54,54,0,0,1-.16-11.23c.57-6.17.28-18.89.28-18.89" transform="translate(-141.26)"/><path class="cls-10" d="M1497.46,764.94a25.94,25.94,0,0,1-.49-9c.49-5.77.1-21.1.1-21.1" transform="translate(-141.26)"/><path class="cls-10" d="M1487.72,734.93a1.3,1.3,0,0,0,0,.16,96,96,0,0,1,.36,12.34c-.37,3.94-.82,15.53,0,18.15" transform="translate(-141.26)"/><path class="cls-10" d="M1484.29,734.64v.42c0,2.17.13,12.09,0,14.5-.18,2.73,0,13.64.37,15.71" transform="translate(-141.26)"/><path class="cls-11" d="M1583.87,849.87c-2.79-1.2-8.39-2.32-14.57-3.25l.1-.73s18-4.49,25-10.48,20.47-15,24.47-6-1.5,19,7,17,20-12,29.46-11.49,35.45,2,41.93-3.49c6.2-5.26,1-11-4.72-12.33l0-.12c8.46,1.89,16,4.31,19.17,7.46a17.75,17.75,0,0,1,3.94,7.71h-.07s-7.86,4.25-8.36,6.74c-.37,1.8.57,5.68.37,9h-.37C1653.77,869.34,1590.86,852.87,1583.87,849.87Z" transform="translate(-141.26)"/><path class="cls-12" d="M1700.7,862.47c.12-.16,1.12-1.59,2.34-3.4s2.67-4,3.64-5.69a8,8,0,0,0,.88-3.49c.19-3.32-.75-7.2-.37-9,.49-2.49,8.36-6.74,8.36-6.74h.07c2.16,8,1,19.62-11.68,26.85,0,0-1,.7-3,1.84Z" transform="translate(-141.26)"/><path class="cls-13" d="M1569.3,846.62c6.19.93,11.79,2.05,14.57,3.25,7,3,69.9,19.47,123.32,0h.37a8,8,0,0,1-.88,3.49c-1,1.69-2.41,3.89-3.64,5.69l-.1-.07c-10,6-31.08,10.11-48.42,11.35-9.57.69-60.28-.37-82.37-2.62-10.24-1-35.21,2-80.92,5l-2.7.16c-47.43,3-64.4-3.5-64.4-3.5l-.1,0c-4.79-9.47,0-24.16,3.52-31.86l1.57.36s6.48,6.5,22.46,6.5c9.23,0,36.39-.33,59.16-.52,16.7-.13,31-.19,34.19,0C1549.42,844.18,1560,845.2,1569.3,846.62Z" transform="translate(-141.26)"/><path class="cls-14" d="M1537.82,794.52a3.75,3.75,0,1,0-4.12-3.73A3.94,3.94,0,0,0,1537.82,794.52Zm26.84-11.79c1.87-.37,1.12-7.11-4.49-8.24s-11.23-2-11.23-2-12-16-11-21,15-11.49,14-14.48-9-3-5.5-4,8.25-4.67,11-.49c2.62,4,16.16,22.3,17.09,26.21,1.26,5.24,9.24,6.11,12.24,8.12s7.61,7.11,7.61,7.11,7.88,3.49,8.37,5.48,9.6,9.5,14.6,13,34.45,19,43.43,21c5.32,1.18,19.47,2.8,31.75,5.53l0,.12c5.71,1.36,10.92,7.07,4.72,12.33-6.48,5.5-32.45,4-41.93,3.49s-21,9.5-29.46,11.49-3-8-7-17-17.48,0-24.47,6-25,10.48-25,10.48l-.1.73c-9.27-1.42-19.87-2.44-24.37-2.74-3.16-.21-17.49-.15-34.19,0v-.1c-13.1-1.12-55.41-23.59-63.28-26.21-7.56-2.52-17.79,2.53-18.56,2.91.34-5.89,1.32-12.6,3.7-18a59.5,59.5,0,0,0,3.5-12.64l.12,0s8.61-4.87,12-3,15.73,22.84,37.44,20.22,32.2-19.84,50.17-24.34S1562.78,783.1,1564.66,782.73Z" transform="translate(-141.26)"/><path class="cls-14" d="M1560.16,774.49c5.62,1.12,6.37,7.86,4.49,8.24s-10.86-4.49-28.83,0-28.46,21.72-50.17,24.34-34.07-18.35-37.44-20.22-12,3-12,3l-.12,0c2.2-11.38,3.43-23.89,9.48-27.8,0,0,2.5,6,6.48,6.48s6.5,2.5,9,7.49,16,29.46,31,23.47S1535.95,772,1546.43,773l2.5-.49S1554.55,773.37,1560.16,774.49Z" transform="translate(-141.26)"/><path class="cls-11" d="M1541.94,790.79a4.14,4.14,0,1,1-4.12-3.74A3.94,3.94,0,0,1,1541.94,790.79Z" transform="translate(-141.26)"/><path class="cls-12" d="M1703,859.07c-1.21,1.81-2.22,3.23-2.34,3.4l.21.36A133.74,133.74,0,0,1,1653.77,879l-8.58-.15a4.34,4.34,0,0,1-2.94-1.26l-.07-.07a4.08,4.08,0,0,0-5.71,0l-2.55,2.47-8.61-.19-1.87-3-7.49-.37-1.12,3-8.91-.61a4.18,4.18,0,0,1-3.09-1.72l-.33-.46a3,3,0,0,0-4.78-.18,4,4,0,0,1-3,1.42h-.13l-10-.31-1.12-3.37h-5.62l-.37,3.18h-13.1l-.75-3.18h-5.24v3.12h-14.42a1.67,1.67,0,0,1-1.68-1.68v-.37a.57.57,0,0,0-.55-.57h-3.5a.56.56,0,0,0-.55.57v.64a1.68,1.68,0,0,1-1.66,1.69l-12.64.22-.06-1.87h-3.86v1.87l-23.78.87-.55-2.07h-3.55l-.24-3.83c45.71-3,70.67-6,80.92-5,22.09,2.25,72.8,3.31,82.37,2.62,17.34-1.24,38.45-5.36,48.42-11.35Z" transform="translate(-141.26)"/><path class="cls-12" d="M1491.46,876.51l-.19,2.07s-35.2,4.24-56.66-1.24c-5.39-1.38-8.72-4.27-10.59-8l.1,0s17,6.5,64.4,3.5l2.7-.16Z" transform="translate(-141.26)"/><path class="cls-11" d="M1429.12,834.4a98,98,0,0,1-.21-13.94c.76-.37,11-5.42,18.56-2.91,7.86,2.62,50.17,25.09,63.28,26.21v.1c-22.76.19-49.93.52-59.16.52-16,0-22.46-6.5-22.46-6.5l-1.57-.36C1428.11,836.29,1428.65,835.22,1429.12,834.4Z" transform="translate(-141.26)"/><path class="cls-10" d="M1541.94,790.79a4.14,4.14,0,1,1-4.12-3.74A3.94,3.94,0,0,1,1541.94,790.79Z" transform="translate(-141.26)"/><path class="cls-10" d="M1429.12,837.89s6.48,6.5,22.46,6.5c9.23,0,36.39-.33,59.16-.52,16.7-.13,31-.19,34.19,0,4.49.3,15.1,1.32,24.37,2.74,6.19.93,11.79,2.05,14.57,3.25,7,3,69.9,19.47,123.32,0" transform="translate(-141.26)"/><path class="cls-10" d="M1715.62,834.13c2.16,8,1,19.62-11.68,26.85,0,0-1,.7-3,1.84A133.74,133.74,0,0,1,1653.77,879l-8.58-.15a4.34,4.34,0,0,1-2.94-1.26l-.07-.07a4.08,4.08,0,0,0-5.71,0l-2.55,2.47-8.61-.19-1.87-3-7.49-.37-1.12,3-8.91-.61a4.18,4.18,0,0,1-3.09-1.72l-.33-.46a3,3,0,0,0-4.78-.18,4,4,0,0,1-3,1.42h-.13l-10-.31-1.12-3.37h-5.62l-.37,3.18h-13.1l-.75-3.18h-5.24v3.12h-14.42a1.67,1.67,0,0,1-1.68-1.68v-.37a.57.57,0,0,0-.55-.57h-3.5a.56.56,0,0,0-.55.57v.64a1.68,1.68,0,0,1-1.66,1.69l-12.64.22-.06-1.87h-3.86v1.87l-23.78.87-.55-2.07h-3.55l-.19,2.07s-35.2,4.24-56.66-1.24c-5.39-1.38-8.72-4.27-10.59-8-4.79-9.47,0-24.16,3.52-31.86.57-1.24,1.11-2.31,1.57-3.13a98,98,0,0,1-.21-13.94c.34-5.89,1.32-12.6,3.7-18a59.5,59.5,0,0,0,3.5-12.64c2.2-11.38,3.43-23.89,9.48-27.8,0,0,2.5,6,6.48,6.48s6.5,2.5,9,7.49,16,29.46,31,23.47S1535.95,772,1546.43,773l2.5-.49s-12-16-11-21,15-11.49,14-14.48-9-3-5.5-4,8.25-4.67,11-.49c2.62,4,16.16,22.3,17.09,26.21,1.26,5.24,9.24,6.11,12.24,8.12s7.61,7.11,7.61,7.11,7.88,3.49,8.37,5.48,9.6,9.5,14.6,13,34.45,19,43.43,21c5.32,1.18,19.47,2.8,31.75,5.53,8.46,1.89,16,4.31,19.17,7.46A17.75,17.75,0,0,1,1715.62,834.13Z" transform="translate(-141.26)"/><path class="cls-10" d="M1428.86,820.49l0,0c.76-.37,11-5.42,18.56-2.91,7.86,2.62,50.17,25.09,63.28,26.21" transform="translate(-141.26)"/><path class="cls-10" d="M1436.23,789.84s8.61-4.87,12-3,15.73,22.84,37.44,20.22,32.2-19.84,50.17-24.34,27,.37,28.83,0,1.12-7.11-4.49-8.24-11.23-2-11.23-2" transform="translate(-141.26)"/><path class="cls-10" d="M1569.4,845.89s18-4.49,25-10.48,20.47-15,24.47-6-1.5,19,7,17,20-12,29.46-11.49,35.45,2,41.93-3.49c6.2-5.26,1-11-4.72-12.33-.25-.06-.52-.1-.78-.15" transform="translate(-141.26)"/><path class="cls-10" d="M1715.55,834.15s-7.86,4.25-8.36,6.74c-.37,1.8.57,5.68.37,9a8,8,0,0,1-.88,3.49c-1,1.69-2.41,3.89-3.64,5.69s-2.22,3.23-2.34,3.4h0" transform="translate(-141.26)"/><path class="cls-10" d="M1424.13,869.34s17,6.5,64.4,3.5l2.7-.16c45.71-3,70.67-6,80.92-5,22.09,2.25,72.8,3.31,82.37,2.62,17.34-1.24,38.45-5.36,48.42-11.35" transform="translate(-141.26)"/><path class="cls-5" d="M1627,804.08a19.8,19.8,0,0,1-.53,7.84s3.45-2.33,6.26-4.32h0l1.81-1.31.67-.5.45-.35c.16-.12.31-.24.47-.35a7.37,7.37,0,0,1,1.14-.68,4.51,4.51,0,0,1,4.38,0c-.18-.74-.51-1.35-4.38-3.68s-4.55-1.51-4.55-1.51c-.94.36-1.74.7-2.41,1-.5.23-.93.46-1.29.67s-.7.42-1,.61a5.8,5.8,0,0,0-.67.55c-.47.45-.53.72-.53.78s0,0,0,0h0Z" transform="translate(-141.26)"/><path class="cls-5" d="M1580.82,781.09c.8-.17,1.58-.32,2.3-.45,2.43-.44,5.14-1.07,7.88-1.64,1-.21,2-.41,3-.6l1.65-.29.94-.15.94-.13,1-.12c1-.11,2-.18,2.91-.19-.95-2.53-5.32-4-5.32-4-.92,0-1.91.12-2.95.24-2.77.33-5.91.94-8.85,1.53s-5.51,1.12-7.43,1.38c-2.83.38-6.19,1-9,1.59l-1.49.34c-.93.22-1.76.44-2.44.64l-.82.27c-2.61.94-5.09,2-4.1,4.23s3.23,2.38,6.24,1.34c1-.34,2.7-.85,4.76-1.4l2.85-.74C1575.49,782.27,1578.31,781.61,1580.82,781.09Z" transform="translate(-141.26)"/><path class="cls-5" d="M1583.14,790l.87-1h0a57.23,57.23,0,0,0,4.89-6.34c1.14-2.1,2.1-3.65,2.1-3.65-2.74.57-5.45,1.2-7.88,1.64-.73.13-1.5.28-2.3.45-.86,1.07-2.36,2.86-3.66,4.51-.35.45-.69.88-1,1.28a18.93,18.93,0,0,0-1.12,1.63c-1,1.74-2.38,3.13-1.33,4.26s2.6,2.49,4.17,2.31,3.15-2.44,3.89-3.43l.46-.56Z" transform="translate(-141.26)"/><path class="cls-5" d="M1584,789l-.87,1c.5.33,4.44,2.92,6.39,4.07.61-2.06,1.27-4.1,1.5-4.93.12-.41.36-1.28.65-2.35-2.13.44-7.47,2.11-7.67,2.18Z" transform="translate(-141.26)"/><path class="cls-5" d="M1589.53,794.08c-.18.6-.36,1.2-.52,1.78a15.81,15.81,0,0,0-.74,3.33c.1,1.12.3,3.4,1.13,4.23s2.49,2.37,4.13,1.85c1.2-.38,2.13-2.69,2.63-4.61a17.44,17.44,0,0,0,.38-1.78c0-.14,0-.3.07-.47l0,0h0c.27-1.69.78-4.48,1.16-6.87l.17-1.13c.2-1.35.76-3.6,1.27-5.49s2-7.31,2-7.31l-5.54.52-1.65.29c0,.16-1.42,5.15-2.32,8.4-.3,1.07-.54,1.94-.65,2.35C1590.8,790,1590.15,792,1589.53,794.08Z" transform="translate(-141.26)"/><path class="cls-5" d="M1587.34,771.19a25.61,25.61,0,0,1-3,4.09c2.94-.59,6.07-1.2,8.85-1.53h0a5.51,5.51,0,0,0,.27-2.19,12.17,12.17,0,0,0-4-4.28c-2.66-1.7-2.71-.4-2.71-.4a3.53,3.53,0,0,1,1.14,2.56,2.89,2.89,0,0,1-.09.6,4.12,4.12,0,0,1-.12.41h0a4.08,4.08,0,0,1-.16.4C1587.46,771,1587.4,771.08,1587.34,771.19Z" transform="translate(-141.26)"/><path class="cls-5" d="M1611,807.22c.4-2.08,3.57-18.59,4.17-20a40.42,40.42,0,0,0-7.37-3.89s-3.92,17-4.35,19.54c0,.21-.07.42-.1.61-.09.54-.18,1.08-.28,1.6a16.94,16.94,0,0,0-.47,5.21c.31,1.79,3.49,3.74,5.18,4.23,1.5.43,2.3-2.54,2.78-5,.06-.3.11-.61.17-.9C1610.78,808.15,1610.86,807.69,1611,807.22Z" transform="translate(-141.26)"/><path class="cls-5" d="M1606.16,788.45c.67-.39,1.24-.75,1.7-1l.21-.12c.23-.14.47-.27.71-.38a8.78,8.78,0,0,1,.93-.4,9.65,9.65,0,0,1,1.17-.34,12.06,12.06,0,0,1,3.36-.24c-1.49-2.74-5.81-4.11-5.81-4.11a9.13,9.13,0,0,0-2.84.63l-1,.37-.77.31-.8.34a25.6,25.6,0,0,1-3.79,1.44h0c-.51,1.89-1.07,4.14-1.27,5.49l-.17,1.13A22.19,22.19,0,0,0,1606.16,788.45Z" transform="translate(-141.26)"/><path class="cls-5" d="M1613.48,808.28l0,.25,5.28,2.76a60.7,60.7,0,0,1,1.89-6.46l-2.12,1Z" transform="translate(-141.26)"/><path class="cls-5" d="M1621,799.71a18.59,18.59,0,0,1-.37,5.12,60.7,60.7,0,0,0-1.89,6.46c-.18.81-.33,1.58-.41,2.26a5.55,5.55,0,0,0,0,1.81c.51,2.07,2.07,6.06,3.27,7.05s3.63,1.38,4.24.17a25.89,25.89,0,0,0,.72-5.28c.08-.86.17-1.73.28-2.53,0-.28.08-.55.12-.81a13.75,13.75,0,0,1,.29-1.35c.16-.6.33-1.25.49-1.92a19.34,19.34,0,0,0,.46-7.71l-.16-1.18h0s0,0,0,0l1-5.89a10.54,10.54,0,0,0-8.06-.23l-.14.73C1620.87,797,1620.95,798.32,1621,799.71Z" transform="translate(-141.26)"/><path class="cls-5" d="M1622.08,795.08a10.48,10.48,0,0,1,1.64-.31,7.57,7.57,0,0,1,3.73.4,7.08,7.08,0,0,0-1.61-2.22c-3.61-3.1-5.73-3.44-5.73-3.44a16.36,16.36,0,0,0-3.23.53c-.41.12-1.65.48-2,.65s-3.11,1.1-3.42,1.31-2.61.94-2.78,1.1c-11.26,3.46-11,5.27-11.17,6.2l-.07.12c.37,2.62,3.73,3.95,5,3.89l.1-.12c.69-.51,10.33-4.84,11-5.17.36-.17,7.09-2.48,7.44-2.6A10.56,10.56,0,0,1,1622.08,795.08Z" transform="translate(-141.26)"/><path class="cls-5" d="M1626.92,814h0c3.5-2.59,5.45-3.29,7.86-3.5-.55-2.27-.91-3.91-.93-4-2.77,2-6.16,4.24-6.16,4.24-.16.67-.33,1.32-.49,1.92A13.75,13.75,0,0,0,1626.92,814Z" transform="translate(-141.26)"/><path class="cls-5" d="M1634.79,810.47c.64,2.62,1.55,6.11,2.51,9l2.5.95h0a12.23,12.23,0,0,1,2.47-4.57,11.07,11.07,0,0,0,.76-.83c-.6-1.72-1.19-3.91-1.56-5.41-.23-.91-.38-1.58-.42-1.73-2.84-1.42-5.41-2.72-5.41-2.72h0l-1.78,1.29h0C1633.88,806.56,1634.23,808.2,1634.79,810.47Z" transform="translate(-141.26)"/><path class="cls-5" d="M1641.47,809.62s1.75-.25,2.45-.31l-2.86-1.42C1641.08,808,1641.24,808.71,1641.47,809.62Z" transform="translate(-141.26)"/><path class="cls-5" d="M1653.53,814.35a15.23,15.23,0,0,1,2.67-2l.49-.28c-.87-1.57-3.78-2.62-5.6-3.48s-2.48-.12-2.48-.12c-.44.44-.91,1-1.39,1.5l-.57.67-.85,1-.36.44c-1.31,1.65-2.58,3.33-3.49,4.4a11.16,11.16,0,0,1-.76.83,12.26,12.26,0,0,0-2.48,4.51h0c-.2.53-.41,1.08-.63,1.63-1,2.54-2.25,4.87-.63,7.64s6,1.69,7,.32c.58-.78,1-3.36,1.58-5.76a10.14,10.14,0,0,1,1.8-4.16C1649.27,820,1650.81,816.89,1653.53,814.35Z" transform="translate(-141.26)"/><polygon class="cls-4" points="1077.15 656.75 1064.72 682.5 1068.12 716.49 1140.65 736.77 1167.74 729.18 1156.34 661.45 1077.15 656.75"/><path class="cls-11" d="M1348.74,52.93c-8.74-11.68-16.09-33.18-21.3-52h241.83s-.27,6.51,1.53,10.87-1.51,21-1,24.13,11,13,9.32,19.79.07,14.68.07,14.68c37.89,132.93,29.28,250.45,30.66,257.25s4.07,20.94,3.64,44.65-42,42.05-47.92,47.13-120.29,114.81-127.44,121.2-34.7,30.24-38.21,35.34-17.44,15.67-21.63,18-5.75,18.4-5.75,18.4c-2.47,7.94-20.31,18.2-24,22.65s-1.52,17-3.4,21.84-13.82,11.54-16.34,12.65c0,0-13.87.31-14.52,4.59-.3,1.94,1.5,2.92,3.56,3.42l-1,4.13c-7.59-2.38-24.19-6.69-39.68-13.93h0c-1-.46-2.08-1-3.11-1.48l-.55-.27a83.31,83.31,0,0,1-8.58-5c-1-.63-1.9-1.28-2.83-1.93a142.06,142.06,0,0,1-26.44-25q1.09-1.62,2.18-3.51s3.55-3.5,4.47-6.1a2.68,2.68,0,0,0,.23-1.27,1.39,1.39,0,0,0-.19-.66c-1.37-2.22-1.84-13.28,4.45-20.89s11.61-19.95,28.28-30.91c8-5.24,11.5-16.49,16.07-27.87,3.91-9.73,23.68-32.47,32.08-43.21s23.53-56.4,42.63-81.89c31.33-41.81,81.24-57.31,85-60.3s3.72-5.25,5.4-9.53,9.85-2.14,9.85-2.14a2.56,2.56,0,0,1,2.13-3.64c3.32-.58,2.56-1.65,2.83-4.46s2.19-4,4.35-5.53.35-4.32-1.34-6.68-1.62-6.16.14-9.85,1.24-5.11-2-7.37-1.49-8-5.13-10.16-5.52-10.1-5.17-15.11-9.09-15.2-12.36-19.79-.31-16.26-16-34.58-39.61-80.57-43.36-91.33S1366.51,76.67,1348.74,52.93Z" transform="translate(-141.26)"/><path class="cls-11" d="M1317.85,677.54c-2.06-.5-3.85-1.48-3.56-3.42.64-4.28,14.52-4.59,14.52-4.59-2.53,1.12,2.51,8,.25,12s-8,1.94-8,1.94c-.18-.39-1.7-1-4.2-1.75Z" transform="translate(-141.26)"/><path class="cls-15" d="M1321.06,683.43s-8.93,23.07-10,24.34-28.33-.95-50-12.64l0,0a46.43,46.43,0,0,1,5.55-10.78c3.62-5,10.52-16.53,10.52-16.53l0,0c15.49,7.24,32.09,11.54,39.68,13.93C1319.36,682.46,1320.89,683,1321.06,683.43Z" transform="translate(-141.26)"/><path class="cls-16" d="M1277.19,667.73h0l0,0s-6.9,11.51-10.52,16.53a46.43,46.43,0,0,0-5.55,10.78l0,0c-.78-.42-1.54-.85-2.3-1.3-.48-.28-1-.57-1.43-.86a41.09,41.09,0,0,1,4.89-9.11c3.36-4.71,11.84-17.56,11.84-17.56l0,0C1275.1,666.76,1276.14,667.27,1277.19,667.73Z" transform="translate(-141.26)"/><path class="cls-17" d="M1273.53,666l.55.27,0,0s-8.48,12.85-11.84,17.56a41.09,41.09,0,0,0-4.89,9.11c-2.67-1.62-5.27-3.36-7.73-5.17l.06-.1c.62-2.69,6.89-12.45,9.22-15.64s6-11,6-11l.06-.1A83.31,83.31,0,0,0,1273.53,666Z" transform="translate(-141.26)"/><path class="cls-16" d="M1265,661l-.06.1s-3.69,7.76-6,11-8.6,13-9.22,15.64l-.06.1c-.95-.69-1.87-1.41-2.79-2.12h0c.68-2,6.1-11.47,7.65-13.72s7.61-12.84,7.61-12.84l0,0C1263.06,659.71,1264,660.35,1265,661Z" transform="translate(-141.26)"/><path class="cls-15" d="M1262.12,659l0,0s-6.08,10.6-7.61,12.84-7,11.72-7.65,13.72h0c-15.59-12.23-26-27-25.3-32.47.73-6.13,7.5-9.26,14.16-19.11A142.06,142.06,0,0,0,1262.12,659Z" transform="translate(-141.26)"/><path class="cls-10" d="M1569.27.92s-.27,6.51,1.53,10.87-1.51,21-1,24.13,11,13,9.32,19.79.07,14.68.07,14.68c37.89,132.93,29.28,250.45,30.66,257.25s4.07,20.94,3.64,44.65-42,42.05-47.92,47.13-120.29,114.81-127.44,121.2-34.7,30.24-38.21,35.34-17.44,15.67-21.63,18-5.75,18.4-5.75,18.4c-2.47,7.94-20.31,18.2-24,22.65s-1.52,17-3.4,21.84-13.82,11.54-16.34,12.65,2.51,8,.25,12-8,1.94-8,1.94-8.93,23.07-10,24.34-28.33-.95-50-12.64c-.78-.42-1.54-.85-2.3-1.3-.48-.28-1-.57-1.43-.86-2.67-1.62-5.27-3.36-7.73-5.17-.95-.69-1.87-1.41-2.79-2.12-15.59-12.23-26-27-25.3-32.47.73-6.13,7.5-9.26,14.16-19.11q1.09-1.62,2.18-3.51s3.55-3.5,4.47-6.1a2.68,2.68,0,0,0,.23-1.27,1.39,1.39,0,0,0-.19-.66c-1.37-2.22-1.84-13.28,4.45-20.89s11.61-19.95,28.28-30.91c8-5.24,11.5-16.49,16.07-27.87,3.91-9.73,23.68-32.47,32.08-43.21s23.53-56.4,42.63-81.89c31.33-41.81,81.24-57.31,85-60.3s3.72-5.25,5.4-9.53,9.85-2.14,9.85-2.14a2.56,2.56,0,0,1,2.13-3.64c3.32-.58,2.56-1.65,2.83-4.46s2.19-4,4.35-5.53.35-4.32-1.34-6.68-1.62-6.16.14-9.85,1.24-5.11-2-7.37-1.49-8-5.13-10.16-5.52-10.1-5.17-15.11-9.09-15.2-12.36-19.79-.31-16.26-16-34.58-39.61-80.57-43.36-91.33-23.73-60.68-41.5-84.43c-8.74-11.68-16.09-33.18-21.3-52h241.83" transform="translate(-141.26)"/><path class="cls-10" d="M1235.42,633.76s.09.12.26.33a142.06,142.06,0,0,0,26.44,25c.94.66,1.88,1.3,2.83,1.93a83.31,83.31,0,0,0,8.58,5l.55.27c1,.51,2.06,1,3.11,1.48h0c15.49,7.24,32.09,11.54,39.68,13.93,2.5.78,4,1.36,4.2,1.75" transform="translate(-141.26)"/><path class="cls-10" d="M1261.09,695.08a46.43,46.43,0,0,1,5.55-10.78c3.62-5,10.52-16.53,10.52-16.53" transform="translate(-141.26)"/><path class="cls-10" d="M1257.33,693h0a41.09,41.09,0,0,1,4.89-9.11c3.36-4.71,11.84-17.56,11.84-17.56" transform="translate(-141.26)"/><path class="cls-10" d="M1264.89,661.08s-3.69,7.76-6,11-8.6,13-9.22,15.64" transform="translate(-141.26)"/><path class="cls-10" d="M1262.1,659.09s-6.08,10.6-7.61,12.84-7,11.72-7.65,13.72" transform="translate(-141.26)"/><path class="cls-10" d="M1252.61,597.43s27.11-22.31,30.93-15.3-7.82,14.69-7.82,14.69" transform="translate(-141.26)"/><path class="cls-10" d="M1246.09,617.54a16.5,16.5,0,0,0-3.52,5.68,5.3,5.3,0,0,0-.23,1.27,3.54,3.54,0,0,0,1.55,3.25c4.52,3.27,28.15-.3,31.72,4.12" transform="translate(-141.26)"/><path class="cls-10" d="M1328.81,669.53s-13.87.31-14.52,4.59c-.3,1.94,1.5,2.92,3.56,3.42a22.08,22.08,0,0,0,5.23.48" transform="translate(-141.26)"/><path class="cls-10" d="M1322.06,602.44s29.21-5.66,34.41,2-3.55,12.45-3.55,12.45" transform="translate(-141.26)"/><path class="cls-18" d="M1277.23,661.29s12.58-16.11,14.92-18.75,14.74-19.92,17.89-25.09,24-27.48,25-28.83,24.85-34.93,34.66-45.81S1443.95,464.54,1447,462s24.47-25.88,33.41-33.87,25.83-24.89,25.83-24.89,4.92,2.35,11-6.51c0,0-.24-3.08,2.66-6.77s13.92-8.29,14.42-13.52,7.89-8.55,7.89-8.55,4.62-4.92,2.55-22-9.61-80.59-13.17-93.33-28.82-128.24-38-152S1472.84,39.79,1468.89.92" transform="translate(-141.26)"/><path class="cls-18" d="M1463.64,348.13s-6,14.68,49.26,44.22a50.57,50.57,0,0,0,18.87,5.2" transform="translate(-141.26)"/><path class="cls-18" d="M1472.84,341.58s31.64,25.57,50.93,28.3,46.36,4.25,53.91,7.54" transform="translate(-141.26)"/><path class="cls-11" d="M1175.78,682.2s3-1.39,6,2c1.85,2.12,28.46,35.61,49,77.48a50.49,50.49,0,0,0,32.35,26.74l.61.16c20.39,5.19,18.58,8.44,16,16.35s-10.64,15.16,8.76,17.16,30.79,18.58,36.62,23.12,26.52,21.41,42.52,19.54c0,0,8.55-2.6,6.5-8.52,10.27,12,10.57,20,9.13,25.62l-.51-.13s-7.15,4.87-10.89,4.5-8.42,3.4-10.15,4.63c-.59.42-1.12,1.51-2.19,2.67l-.27,0c-52.13-18.13-98.29-53.73-111.42-82.51A170.89,170.89,0,0,0,1213,760.59c-4.55-4.56-41.84-46.26-47.61-51s-5.61-8.8-5.61-8.8S1169.38,685.68,1175.78,682.2Z" transform="translate(-141.26)"/><path class="cls-14" d="M1259.35,724.16a4.14,4.14,0,1,0,4.68-3A3.93,3.93,0,0,0,1259.35,724.16Zm-77.57-39.93c-3-3.41-6-2-6-2a12.75,12.75,0,0,0,2-2.71c1.07-1.84,8.39-6.18,11.55-8.43,2.09-1.49,8.8-6.75,13.91-10.95,6.86-1.26,8.11,15.65,8.95,24s3.43,13.48,10.62,20.39,30.64,9.71,41.29,11.88,25.76,22.93,25.76,22.93l3-2.15c2.72-11.69-13.86-21.43-13.86-21.43s-1.25-21.21,7.54-20.75,27.49,2.08,30.48.82,3.5-5.74,6.86-4.68,5.66,10.06,4.5,17-7.33,21-7.39,22.8,2.38,5.47,2,7.69,2.17,3.64,1.67,6.6,1.88,6.91,1.88,6.91,3.24,3.32,2.2,9.48c0,0,3.61,2.63,3,9.36l.41,3.61s4.14,4,3.69,6.69l-.46,2.72s2.49,3.79,2.7,5c.35,2,1.18,3.9,1.37,5.76a22.14,22.14,0,0,0,1.53,5.6s7.07,15.11,9,19,12.52,23.37,24.16,37c2,5.92-6.5,8.52-6.5,8.52-16,1.87-36.7-15-42.52-19.54s-17.21-21.12-36.62-23.12-11.36-9.24-8.76-17.16,4.41-11.16-16-16.35l-.61-.16a50.49,50.49,0,0,1-32.35-26.74C1210.23,719.84,1183.62,686.34,1181.77,684.22Z" transform="translate(-141.26)"/><path class="cls-12" d="M1354.67,896.42a10.44,10.44,0,0,0,4.81-2.87c1.08-1.16,1.61-2.25,2.19-2.67,1.73-1.23,6.41-5,10.15-4.63s10.89-4.5,10.89-4.5l.51.13c-.2.74-.41,1.45-.65,2.12a20.23,20.23,0,0,1-8.26,10.76c-6.35,3.87-18.47,5.25-31.46,1.93C1348.34,897.48,1352.06,897.2,1354.67,896.42Z" transform="translate(-141.26)"/><path class="cls-12" d="M1300.71,876.71c29.55,13.29,46,17.89,54.06,19l-.11.74c-2.61.78-6.33,1.06-11.82.28-45-12.12-63.44-22.81-65.73-24.29a6.82,6.82,0,0,1-3.07-4.84l-.24-1.74a2.16,2.16,0,0,0-.84-1.43l2-2.69A146.06,146.06,0,0,0,1300.71,876.71Z" transform="translate(-141.26)"/><path class="cls-14" d="M1222.49,655.88c-1.33,4.85-8,28.26-2.56,36.28,4.89,7.14,12.1,10.89,30.26,14.2s28.79,9.4,28.79,9.4,16.59,9.74,13.86,21.43l-3,2.15s-15.11-20.76-25.76-22.93-34.09-5-41.29-11.88-9.77-11.89-10.62-20.39-2.08-25.29-8.95-24c2.61-2.16,4.79-4,5.73-5,2.75-2.82,8.62-7.66,14.07-5.47C1223,649.65,1223.8,651,1222.49,655.88Z" transform="translate(-141.26)"/><ellipse class="cls-11" cx="1263.41" cy="724.84" rx="3.73" ry="4.12" transform="translate(197.92 1850.63) rotate(-80.46)"/><path class="cls-12" d="M1239.38,841.19a4.88,4.88,0,0,1-1.27-4.16l.38-2.26a1.67,1.67,0,0,0-1.88-1.93l-.9.14a4.87,4.87,0,0,1-4.28-1.54L1224,823.3a2.83,2.83,0,0,1-.68-2.36,1.88,1.88,0,0,0-1.55-2.16l-.19,0a2.9,2.9,0,0,1-1.55-.81L1208.37,806a4.81,4.81,0,0,1-1.22-4.64l3-3.13a267.81,267.81,0,0,1,20.12,19.92c11.8,13.31,25.76,29.8,44.7,43.54l-2,2.69a2.13,2.13,0,0,0-2-.27l-2.25.9a3.89,3.89,0,0,1-3.74-.52l-5.4-4.11a3.83,3.83,0,0,1-1.47-3.7,2,2,0,0,0-.7-1.91c-1.91-1.58-6.4-5.39-8.77-7.81a2,2,0,0,0-1.13-.6L1245,846a3.87,3.87,0,0,1-2.15-1.14Z" transform="translate(-141.26)"/><path class="cls-12" d="M1139.79,721.71s.84,13.05,24.08,35.18c15.25,14.52,31.93,28.3,46.28,41.36l-3,3.13-3.4-.39a4.85,4.85,0,0,1-2.73-1.26l-13.4-12.43a4.87,4.87,0,0,1-1.54-3.28,1.64,1.64,0,0,0-1.37-1.52h-.09l-1.94-.22a4.85,4.85,0,0,1-2.84-1.37l-12.25-12.07a3.65,3.65,0,0,1-1.09-2.66v-.23a1.38,1.38,0,0,0-1.47-1.4h-.12a3.57,3.57,0,0,1-2.89-1.15c-4.32-4.67-19-21.1-21.39-30.13a30.44,30.44,0,0,1-1.08-11.56Z" transform="translate(-141.26)"/><path class="cls-19" d="M1159.75,700.77s-.16,4,5.61,8.8,43.07,46.47,47.61,51A170.89,170.89,0,0,1,1247.79,811c13.13,28.78,59.3,64.38,111.42,82.51l.27,0a10.44,10.44,0,0,1-4.81,2.87l.11-.74c-8.06-1.08-24.51-5.68-54.06-19a146.06,146.06,0,0,1-25.76-15c-18.94-13.74-32.9-30.22-44.7-43.54a267.81,267.81,0,0,0-20.12-19.92c-14.34-13.06-31-26.84-46.28-41.36-23.24-22.13-24.08-35.18-24.08-35.18l-.24,0c.53-4.51,2.46-8.93,6.54-13.34C1150.73,703.31,1157.5,700.65,1159.75,700.77Z" transform="translate(-141.26)"/><path class="cls-10" d="M1383.22,881.89c-.2.74-.41,1.45-.65,2.12a20.23,20.23,0,0,1-8.26,10.76c-6.35,3.87-18.47,5.25-31.46,1.93-45-12.12-63.44-22.81-65.73-24.29a6.82,6.82,0,0,1-3.07-4.84l-.24-1.74a2.16,2.16,0,0,0-.84-1.43,2.13,2.13,0,0,0-2-.27l-2.25.9a3.89,3.89,0,0,1-3.74-.52l-5.4-4.11a3.83,3.83,0,0,1-1.47-3.7,2,2,0,0,0-.7-1.91c-1.91-1.58-6.4-5.39-8.77-7.81a2,2,0,0,0-1.13-.6L1245,846a3.87,3.87,0,0,1-2.15-1.14l-3.46-3.63a4.88,4.88,0,0,1-1.27-4.16l.38-2.26a1.67,1.67,0,0,0-1.88-1.93l-.9.14a4.87,4.87,0,0,1-4.28-1.54L1224,823.3a2.83,2.83,0,0,1-.68-2.36,1.88,1.88,0,0,0-1.55-2.16l-.19,0a2.9,2.9,0,0,1-1.55-.81L1208.37,806a4.81,4.81,0,0,1-1.22-4.64l-3.4-.39a4.85,4.85,0,0,1-2.73-1.26l-13.4-12.43a4.87,4.87,0,0,1-1.54-3.28,1.64,1.64,0,0,0-1.37-1.52h-.09l-1.94-.22a4.85,4.85,0,0,1-2.84-1.37l-12.25-12.07a3.65,3.65,0,0,1-1.09-2.66v-.23a1.38,1.38,0,0,0-1.47-1.4h-.12a3.57,3.57,0,0,1-2.89-1.15c-4.32-4.67-19-21.1-21.39-30.13a30.44,30.44,0,0,1-1.08-11.56c.53-4.51,2.46-8.93,6.54-13.34,4.64-5,11.41-7.7,13.67-7.57,0,0,9.63-15.09,16-18.57a12.75,12.75,0,0,0,2-2.71c1.07-1.84,8.39-6.18,11.55-8.43,2.09-1.49,8.8-6.75,13.91-10.95,2.61-2.16,4.79-4,5.73-5,2.75-2.82,8.62-7.66,14.07-5.47,0,0,.78,1.39-.53,6.23s-8,28.26-2.56,36.28c4.89,7.14,12.1,10.89,30.26,14.2s28.79,9.4,28.79,9.4-1.25-21.21,7.54-20.75,27.49,2.08,30.48.82,3.5-5.74,6.86-4.68,5.66,10.06,4.5,17-7.33,21-7.39,22.8,2.38,5.47,2,7.69,2.17,3.64,1.67,6.6,1.88,6.91,1.88,6.91,3.24,3.32,2.2,9.48c0,0,3.61,2.63,3,9.36l.41,3.61s4.14,4,3.69,6.69l-.46,2.72s2.49,3.79,2.7,5c.35,2,1.18,3.9,1.37,5.76a22.14,22.14,0,0,0,1.53,5.6s7.07,15.11,9,19,12.52,23.37,24.16,37C1384.35,868.29,1384.65,876.24,1383.22,881.89Z" transform="translate(-141.26)"/><path class="cls-10" d="M1175.78,682.2s3-1.39,6,2c1.85,2.12,28.46,35.61,49,77.48a50.49,50.49,0,0,0,32.35,26.74l.61.16c20.39,5.19,18.58,8.44,16,16.35s-10.64,15.16,8.76,17.16,30.79,18.58,36.62,23.12,26.52,21.41,42.52,19.54c0,0,8.55-2.6,6.5-8.52" transform="translate(-141.26)"/><path class="cls-10" d="M1159.75,700.77s-.16,4,5.61,8.8,43.07,46.47,47.61,51A170.89,170.89,0,0,1,1247.79,811c13.13,28.78,59.3,64.38,111.42,82.51" transform="translate(-141.26)"/><path class="cls-10" d="M1382.71,881.76s-7.15,4.87-10.89,4.5-8.42,3.4-10.15,4.63c-.59.42-1.12,1.51-2.19,2.67a10.44,10.44,0,0,1-4.81,2.87c-2.61.78-6.33,1.06-11.82.28" transform="translate(-141.26)"/><path class="cls-10" d="M1139.79,721.71s.84,13.05,24.08,35.18c15.25,14.52,31.93,28.3,46.28,41.36a267.81,267.81,0,0,1,20.12,19.92c11.8,13.31,25.76,29.8,44.7,43.54a146.06,146.06,0,0,0,25.76,15c29.55,13.29,46,17.89,54.06,19,.22,0,.43.07.64.09" transform="translate(-141.26)"/><path class="cls-10" d="M1279,715.75s16.59,9.74,13.86,21.43l-3,2.15s-15.11-20.76-25.76-22.93-34.09-5-41.29-11.88-9.77-11.89-10.62-20.39-2.08-25.29-8.95-24a2.5,2.5,0,0,0-.32.07" transform="translate(-141.26)"/><ellipse class="cls-10" cx="1263.41" cy="724.84" rx="3.73" ry="4.12" transform="matrix(0.17, -0.99, 0.99, 0.17, 197.92, 1850.63)"/><path class="cls-5" d="M1327.2,795a28.41,28.41,0,0,1-8.11,5s5.61.46,10.47.78h0l3.25.19,1.23.06.85,0,.88,0a17.5,17.5,0,0,1,2,.23c2.65.47,4.25,1.47,4.75,2.72.66-.61,1-1.23-.61-5.29s-3.34-3.92-3.34-3.92c-1.46-.31-2.71-.54-3.79-.71-.8-.13-1.51-.22-2.12-.28s-1.2-.11-1.68-.13-1,0-1.3,0a3.41,3.41,0,0,0-1.37.26h0Z" transform="translate(-141.26)"/><path class="cls-5" d="M1301.07,748.87c1,.24,1.94.49,2.83.73,3,.82,6.56,1.6,10.16,2.47,1.34.32,2.68.66,4,1,.74.19,1.47.4,2.19.61l1.25.37,1.23.39,1.3.44c1.29.45,2.51.94,3.63,1.46,1.84-3.38-1.68-7.6-1.68-7.6-1.14-.48-2.42-.95-3.79-1.39-3.61-1.17-7.87-2.18-11.8-3.09-3.72-.86-7.14-1.63-9.45-2.34-3.34-1-7.36-2.06-10.74-2.77l-1.78-.36c-1.1-.21-2.1-.37-2.93-.48l-1-.1c-3.24-.22-6.38-.23-7,2.62s1.36,4,4.92,4.4c1.19.13,3.21.44,5.64.88,1.07.19,2.21.41,3.4.64C1294.56,747.38,1298,748.12,1301.07,748.87Z" transform="translate(-141.26)"/><path class="cls-5" d="M1295.76,759.08l1.71-.54h0a107.46,107.46,0,0,0,10.68-3.74c3.27-1.59,5.89-2.74,5.89-2.74-3.6-.87-7.15-1.65-10.16-2.47-.89-.24-1.84-.49-2.83-.73-1.84.69-4.91,1.79-7.58,2.81l-2,.79c-1,.4-1.8.75-2.36,1-2.27,1.18-4.58,1.83-4.42,3.4s.6,3.56,2.17,4.18,4.77-.63,6.26-1.17l.88-.29Z" transform="translate(-141.26)"/><path class="cls-5" d="M1297.48,758.55l-1.71.54c.22.57,1.94,5,2.9,7.06,2.32-1.53,4.75-3.08,5.72-3.74l2.81-1.91c-2.61-.72-9.46-1.91-9.71-1.95Z" transform="translate(-141.26)"/><path class="cls-5" d="M1298.67,766.14c-.67.44-1.33.88-1.94,1.3a23,23,0,0,0-3.31,2.46c-.75,1-2.27,2.94-2.14,4s.51,3.12,2.37,3.56c1.37.33,4-1,6-2.27.71-.45,1.35-.9,1.82-1.26l.47-.35v0h0c1.69-1.28,4.62-3.41,7.17-5.34l1.23-.94c1.48-1.14,4.27-3,6.72-4.54l10.19-6.5-7-2.59c-.72-.21-1.45-.41-2.19-.61l-10.86,7.42-2.81,1.91C1303.42,763.06,1301,764.61,1298.67,766.14Z" transform="translate(-141.26)"/><path class="cls-5" d="M1318.16,741a59.43,59.43,0,0,1-7.77,3.24c3.92.91,8.18,1.93,11.8,3.09h0a13.1,13.1,0,0,0,2.84-2.46,12.67,12.67,0,0,0,.21-7.62c-1.26-3.73-2.86-2-2.86-2a5.45,5.45,0,0,1-1.58,3.91,7.14,7.14,0,0,1-.79.71c-.18.15-.39.29-.6.44h0c-.2.14-.41.27-.64.4Z" transform="translate(-141.26)"/><path class="cls-5" d="M1308.27,788.15c2.18-1.3,21.85-13,24.13-14a29.06,29.06,0,0,0-4-8.09s-21,12.93-23.63,14.73l-.6.42-1.57,1.07a20.77,20.77,0,0,0-4.53,3.57c-1.07,1.41.29,4.41,1.43,5.62s4-.5,6.51-2l.9-.54Z" transform="translate(-141.26)"/><path class="cls-5" d="M1321,770.09c1.14,0,2.15,0,3,0h.37c.41,0,.81,0,1.2,0s1,.09,1.48.16a16,16,0,0,1,5.83,2.12c1.48-3.54-2-7.48-2-7.48a14.17,14.17,0,0,0-4-1l-1.54-.19-1.22-.13-1.27-.12a43.18,43.18,0,0,1-5.72-.71h0c-2.45,1.57-5.24,3.4-6.72,4.54l-1.23.94A35.93,35.93,0,0,0,1321,770.09Z" transform="translate(-141.26)"/><path class="cls-5" d="M1309.77,790.29l-.24.15c.82,1.5,1.87,3.41,2.64,4.8,2.82-1.43,6.34-2.9,7.71-3.44l-3.08-.46Z" transform="translate(-141.26)"/><path class="cls-5" d="M1325.31,788.2a28.68,28.68,0,0,1-5.43,3.61c-1.37.53-4.89,2-7.71,3.44-.87.44-1.67.87-2.32,1.27a6.11,6.11,0,0,0-1.51,1.17c-1.22,1.58-3,4.85-2.69,6.07s2.13,2.74,3.64,2.38a32.71,32.71,0,0,0,5-2.72c.82-.48,1.66-1,2.47-1.4l.83-.44c.53-.27,1-.51,1.5-.7.71-.3,1.48-.62,2.26-1a28.41,28.41,0,0,0,8.11-5l1.07-1h0l7.61-3.88s-2.29-4.06-8.68-5l-.94.51C1328,786,1326.71,787.1,1325.31,788.2Z" transform="translate(-141.26)"/><path class="cls-5" d="M1331.4,785.17a17,17,0,0,1,2.15.73,8.29,8.29,0,0,1,3.73,2.58,5,5,0,0,0,.75-2.79c-.51-4.85-2.54-6.44-2.54-6.44a25.52,25.52,0,0,0-4.29-1.46c-.59-.14-2.39-.55-3-.62s-4.58-.84-5.14-.83c-.37,0-3.75-.67-4.1-.63-14.69-3.23-16-1.56-16.93-.89l-.17.06c-1.79,2.31.3,5.13,1.53,5.74l.2,0c1.09,0,14.55,1.87,15.61,2,.54.07,10.07,2.1,10.59,2.21S1330.88,785,1331.4,785.17Z" transform="translate(-141.26)"/><path class="cls-5" d="M1317.63,801.57h0c5.82.35,8.44,1,11.09,2.31,1.73-1.8,3.06-3.11,3.14-3.2-4.86-.33-10.47-.78-10.47-.78-.79.35-1.55.67-2.26,1C1318.67,801.06,1318.16,801.3,1317.63,801.57Z" transform="translate(-141.26)"/><path class="cls-5" d="M1328.72,803.88c-1.94,2-4.4,4.66-6.16,6.9l1.52,2h0a25.46,25.46,0,0,1,6.81-1.15c.4,0,.95,0,1.6,0,1.15-1.38,2.82-3.07,4-4.22.74-.72,1.29-1.24,1.43-1.36-1.49-2.66-2.82-5.1-2.82-5.1h0l-3.25-.19h0C1331.78,800.77,1330.45,802.08,1328.72,803.88Z" transform="translate(-141.26)"/><path class="cls-5" d="M1336.51,807.34s2.12.92,2.93,1.3l-1.5-2.66C1337.8,806.1,1337.25,806.62,1336.51,807.34Z" transform="translate(-141.26)"/><path class="cls-5" d="M1344.09,817.6a42.93,42.93,0,0,1,5.17.55l.87.16c.9-1.47-1.07-3.94-2.07-5.63a3.12,3.12,0,0,0-2.58-1.64c-1,0-2.08,0-3.22.06l-1.35.06-2,.1-.85,0c-3.1.18-6.11.41-8.09.49-.64,0-1.17,0-1.56,0a24.79,24.79,0,0,0-6.61,1.09h0l-2,.53c-3.11.79-6.17,1.31-7,3.6s3.92,4.13,6,4c1.19,0,3.77-1.09,6.5-1.94a19.69,19.69,0,0,1,5.64-1.1C1333.77,818.07,1338.5,817.33,1344.09,817.6Z" transform="translate(-141.26)"/><polyline class="cls-20" points="1327.63 0.92 1428 0.92 1434.68 0.92"/><path class="cls-10" d="M1369.45.58" transform="translate(-141.26)"/><path class="cls-11" d="M365.74,770.33s8.25,31.25,5.5,43.75c-.57,2.6-1,5-1.45,7.05l-.49-.11s-10.06,3.06-35.06,1.81-78.75-7.75-88.25-7.75-89-4-102.5-24c3.21-3.83,7.75-10.25,28.5-11.5a193.18,193.18,0,0,0,24.11-2.79,29.83,29.83,0,0,1,10.45-.06c.72.11,1.44.26,2.15.43,4.83,1.19,11.07,4.41,16,5.42C242,786.08,290.49,793.08,365.74,770.33Z" transform="translate(-141.26)"/><path class="cls-11" d="M369.3,821l.49.11c-1.8,8-4.51,12.19-20.55,11.2-16.47-1-53-4.5-69.25-6s-110.5-2.75-136.5-26.5a6.51,6.51,0,0,1,0-8.75c13.5,20,93,24,102.5,24s63.25,6.5,88.25,7.75S369.3,821,369.3,821Z" transform="translate(-141.26)"/><path class="cls-4" d="M352,694.75l13.75,75.58c-75.25,22.75-123.75,15.75-141,12.25-5-1-11.21-4.23-16-5.42-.71-.17-1.43-.32-2.15-.43l.11-.65a110.61,110.61,0,0,0,21.33-7c10-4.67,34.67-17.33,43.33-23s24.34-21,34.34-53.33Z" transform="translate(-141.26)"/><path class="cls-21" d="M206.66,776.08a110.61,110.61,0,0,0,21.33-7c10-4.67,34.67-17.33,43.33-23s24.34-21,34.34-53.33l46.33,2,13.75,75.58" transform="translate(-141.26)"/><path class="cls-18" d="M365.74,770.33s8.25,31.25,5.5,43.75c-.57,2.6-1,5-1.45,7.05-1.8,8-4.51,12.19-20.55,11.2-16.47-1-53-4.5-69.25-6s-110.5-2.75-136.5-26.5a6.51,6.51,0,0,1,0-8.75c3.21-3.83,7.75-10.25,28.5-11.5a193.18,193.18,0,0,0,24.11-2.79,29.83,29.83,0,0,1,10.45-.06c.72.11,1.44.26,2.15.43,4.83,1.19,11.07,4.41,16,5.42C242,786.08,290.49,793.08,365.74,770.33Z" transform="translate(-141.26)"/><path class="cls-18" d="M369.3,821s-10.06,3.06-35.06,1.81-78.75-7.75-88.25-7.75-89-4-102.5-24" transform="translate(-141.26)"/><path class="cls-22" d="M342,702.08s-36.5-2-41.5-10l2.73-30a3.29,3.29,0,0,1,3.27-3h0s8.5-150,8.5-162-14-161-10-177-2-165,7-197,19.25-79.23,25-90c5.41-10.13,2.1-27.23,1.88-32.5h213.4s6.18,8.64,11.89,51.16c5.59,41.65-13.67,68.33-21.67,78.33s-6.5,10-5.5,21-5,13-3,24,33,121,33,138,99,144,166,280l-92,41s-179-267-186-278-21-48-21-48-20,34-18,55-21,325-21,325S387,706.08,342,702.08Z" transform="translate(-141.26)"/><path class="cls-11" d="M806.49,741.75c1,12.95-39.17,33-43.5,35s-55,41.66-77.33,54.33-55.17,11.25-65.67,8c-6.55-2-15.28-5.21-16.86-11.71l.36,0s8.25,9.5,45.17,7.75c30.66-1.45,52.6-20.35,62.66-29,19-16.33,87.34-60.33,94-73C805.66,734.08,806.49,741.75,806.49,741.75Z" transform="translate(-141.26)"/><path class="cls-11" d="M803.32,718.91c2.54,9.24,1.67,13.17,2,14.17-6.66,12.67-75,56.67-94,73-10.06,8.65-32,27.55-62.66,29-36.92,1.75-45.17-7.75-45.17-7.75l-.36,0a9.43,9.43,0,0,1-.14-3.62c1.33-9,9-13.67,17.67-16s29.33-15,29.33-15c-.33,11,11.67,12.33,30,6.33s32-30.33,36.33-36.67,52-61.33,56-64.33,4.34-11.33,4.34-11.33C786.32,689.41,800.49,708.58,803.32,718.91Z" transform="translate(-141.26)"/><path class="cls-4" d="M776.66,686.75s-.34,8.33-4.34,11.33-51.66,58-56,64.33-18,30.67-36.33,36.67-30.33,4.67-30-6.33c0,0,10.33-9.34,11.67-15.67s32.33-83,32.33-83l66.67-24.67A42.7,42.7,0,0,0,776.66,686.75Z" transform="translate(-141.26)"/><path class="cls-21" d="M650,792.75s10.33-9.34,11.67-15.67,32.33-83,32.33-83l66.67-24.67a42.7,42.7,0,0,0,16,17.34" transform="translate(-141.26)"/><path class="cls-18" d="M650,792.75s-20.67,12.66-29.33,15-16.34,7-17.67,16a9.43,9.43,0,0,0,.14,3.62c1.58,6.5,10.31,9.69,16.86,11.71,10.5,3.25,43.33,4.67,65.67-8s73-52.33,77.33-54.33,44.5-22.05,43.5-35c0,0-.83-7.67-1.17-8.67s.54-4.93-2-14.17c-2.83-10.33-17-29.5-26.66-32.16,0,0-.34,8.33-4.34,11.33s-51.66,58-56,64.33-18,30.67-36.33,36.67S649.66,803.75,650,792.75Z" transform="translate(-141.26)"/><path class="cls-18" d="M603.49,827.33s8.25,9.5,45.17,7.75c30.66-1.45,52.6-20.35,62.66-29,19-16.33,87.34-60.33,94-73" transform="translate(-141.26)"/><path class="cls-18" d="M434.49,309.41s-26-52.83-38.25-98.83-24.75-100.75-28.5-107-10.25-10.25-11.25-12.5" transform="translate(-141.26)"/><polygon class="cls-23" points="181.56 596.41 198.89 750.41 222.22 747.08 193.56 604.41 181.56 596.41"/><path class="cls-24" d="M560.66,347.08,598,323.75h0c4.27-2,6.67-3.33,6.67-3.33l6.66,22.67Z" transform="translate(-141.26)"/><path class="cls-25" d="M611.32,343.08l3.66-.35v.1q-27.7,5.85-53.38,10.77v0l-.95-6.5Z" transform="translate(-141.26)"/><path class="cls-26" d="M787,738.58s-8.5,1.5-25.5,8.5S524,827.58,486,836.58s-51.5,15.5-51.5,15.5l-5.38-16.48-23.47-71.9.35-.12-87-302-1-5s64.09-21.71,112.14-37.75c26.31-8.79,47.82-15.87,51.36-16.75,7.61-1.9,102.08-28.13,146.81-40.56l23.19-6.44Z" transform="translate(-141.26)"/><path class="cls-27" d="M598,323.75l-37.33,23.33.95,6.5v0c-94.35,18.1-167.4,27.15-213,31.6v-.37l-.62-13.6h-.21a.21.21,0,0,0-.2-.21l-58.88-2.62c124-4,196-13.33,237.33-20.66,30.84-5.48,59.46-18,72-24Z" transform="translate(-141.26)"/><polygon class="cls-28" points="264.72 763.58 264.37 763.7 237.72 682.08 173.22 462.58 177.72 461.58 264.72 763.58"/><path class="cls-24" d="M296,389.16l6.66,59.25,0,.17-3.79.9-.25-1.07-10-80L347.54,371a.21.21,0,0,1,.06.41l-51.51,17.35A.23.23,0,0,0,296,389.16Z" transform="translate(-141.26)"/><path class="cls-29" d="M298.91,449.48l3.79-.9L430,418.41l.14.42C382.08,434.87,318,456.58,318,456.58l1,5-4.5,1L379,682.08l26.65,81.62,23.47,71.9-.45.15-47.34,10c-3.33-16.67-92-394-92-394Z" transform="translate(-141.26)"/><path class="cls-25" d="M348.56,385.2c-29.24,2.84-47.24,3.8-52.39,4a.22.22,0,0,1-.17-.07.23.23,0,0,1,.09-.37l51.51-17.35a.21.21,0,0,0,.14-.2h.21l.62,13.6Z" transform="translate(-141.26)"/><path class="cls-30" d="M561.61,353.6q25.65-4.92,53.38-10.77v-.1l10.34-1L628,360.41l.31,1.11C583.57,374,489.1,400.18,481.49,402.08c-3.54.88-25.05,8-51.36,16.75l-.14-.42L302.7,448.58l0-.17L296,389.16a.22.22,0,0,0,.17.07c5.15-.23,23.15-1.19,52.39-4C394.21,380.75,467.26,371.7,561.61,353.6Z" transform="translate(-141.26)"/><path class="cls-31" d="M429.11,835.6l5.38,16.48s13.5-6.5,51.5-15.5,258.5-82.5,275.5-89.5,25.5-8.5,25.5-8.5l-135.5-383.5-23.19,6.44C583.57,374,489.1,400.18,481.49,402.08c-3.54.88-25.05,8-51.36,16.75C382.08,434.87,318,456.58,318,456.58l1,5-4.5,1L379,682.08l26.65,81.62Z" transform="translate(-141.26)"/><line class="cls-31" x1="177.72" y1="461.58" x2="264.72" y2="763.58"/><path class="cls-32" d="M430,418.41,302.7,448.58l-3.79.9-9.59,2.27s88.67,377.33,92,394l47.34-10" transform="translate(-141.26)"/><path class="cls-33" d="M628,360.41l-2.67-18.66-10.34,1-3.66.35-6.66-22.67s-2.4,1.29-6.67,3.33c-12.54,6-41.16,18.53-72,24-41.33,7.33-113.33,16.66-237.33,20.66l10,80" transform="translate(-141.26)"/><polyline class="cls-33" points="456.72 323.75 419.39 347.08 420.34 353.58"/><line class="cls-33" x1="470.05" y1="343.08" x2="419.39" y2="347.08"/><path class="cls-33" d="M288.66,368.41,347.54,371a.21.21,0,0,1,.06.41l-51.51,17.35a.23.23,0,0,0-.09.37.22.22,0,0,0,.17.07c5.15-.23,23.15-1.19,52.39-4,45.65-4.45,118.7-13.5,213-31.6q25.65-4.92,53.38-10.77" transform="translate(-141.26)"/><polyline class="cls-33" points="161.39 448.41 154.73 389.16 154.72 389.08"/><polyline class="cls-33" points="206.66 370.7 206.68 371.23 207.3 384.83"/><path class="cls-23" d="M419.84,272.26l-29.3,119.58c-.88,5,.65,4.62,2.23,3.27a10.75,10.75,0,0,0,3.37-5.6L425,274.08Z" transform="translate(-141.26)"/><path class="cls-34" d="M412.43,434.27s-1,6.4,2,6.06,4.38-11.45,4.38-20.55,10.44-184.92,10.44-184.92l-5.05-5.39Z" transform="translate(-141.26)"/><path class="cls-34" d="M560.3,395.87s-3,0-6.4-7.41S502,230.83,501,229.14a40.52,40.52,0,0,1-2.36-6.06l1-7.41a79.51,79.51,0,0,1,5.73,12.46c2,6.06,52.88,154.27,53.89,157S562.65,395.54,560.3,395.87Z" transform="translate(-141.26)"/><polygon class="cls-23" points="360.42 231.84 388.38 388.8 393.06 387.33 368.51 256.43 360.42 231.84"/><polygon class="cls-34" points="382.73 390.41 353.69 229.14 357.39 223.08 388.38 388.8 382.73 390.41"/><path class="cls-34" d="M398.11,425.33,419.5,307.62l1.61-23.17s-20.81,106.7-22.5,115.12-5.05,26.95-5.05,26.95Z" transform="translate(-141.26)"/><path class="cls-34" d="M387,363.45l46-122.52-4-4.38s-25.94,69.72-29.3,77.13S381.74,364,381.74,364Z" transform="translate(-141.26)"/><path class="cls-6" d="M447,8.75c-1-11-.15-7.83-.15-7.83H526.1c-.34,12.33-.11,7.83-1.44,14.83s-6,42-9,55-1.67,27.66-2.34,32.33-4.33,8.5-4.33,8.5a34.39,34.39,0,0,1,1.75,7.75c.5,4.5-6.5,19.5-7.25,23s-2.75,20.5-2.75,20.5a16.51,16.51,0,0,0-3.37-.52v-.11s-37.26-6.37-56.26-12c-10.41-3.08-12.12,1.21-12.12,1.21l-2-.66,13.33-47s5-13,4.67-20,3.33-37.67,5-44.67S448,19.75,447,8.75Z" transform="translate(-141.26)"/><path class="cls-4" d="M475.49,240.58a13.08,13.08,0,0,1-7.5-1.25s-1.25,4.25-9.25,5.25-10-4.5-10-4.5-3.25,4.75-11,4.25-9.5-13.25-9.5-13.25c0,5.75-4.25,17.75-7,19.25s-6.25.42-6.25.42.33-15,.33-19.34-3.33-10.66-3.66-14,0-17,0-20-1.67-8.66-.67-11.33,5.67-12,6.67-13.67,11.33-21,11.33-21,1.71-4.29,12.12-1.21c19,5.63,56.26,12,56.26,12v.11c-.28,0-.44.1-.38.27.25.75,3,22,3.75,24s1,15.75.5,18.25-.92,12.5-2.42,19.25-4.33,11-6.08,12-10.75,0-10.75,0C481.74,238.83,480,240.08,475.49,240.58Z" transform="translate(-141.26)"/><path class="cls-18" d="M429,151.41s-10.33,19.34-11.33,21-5.67,11-6.67,13.67.67,8.33.67,11.33-.34,16.67,0,20,3.66,9.67,3.66,14-.33,19.34-.33,19.34,3.5,1.08,6.25-.42,7-13.5,7-19.25c0,0,1.75,12.75,9.5,13.25s11-4.25,11-4.25,2,5.5,10,4.5,9.25-5.25,9.25-5.25a13.08,13.08,0,0,0,7.5,1.25c4.5-.5,6.25-1.75,6.5-4.5,0,0,9,1,10.75,0s4.58-5.25,6.08-12,1.92-16.75,2.42-19.25.25-16.25-.5-18.25-3.5-23.25-3.75-24c-.06-.17.1-.25.38-.27a16.51,16.51,0,0,1,3.37.52s2-17,2.75-20.5,7.75-18.5,7.25-23a34.39,34.39,0,0,0-1.75-7.75s3.67-3.83,4.33-8.5-.66-19.33,2.34-32.33,7.66-48,9-55,1.1-2.5,1.44-14.83H446.84S446-2.25,447,8.75s4.67,23.33,3,30.33-5.33,37.67-5,44.67-4.67,20-4.67,20l-13.33,47Z" transform="translate(-141.26)"/><path class="cls-18" d="M422.16,187.41a10.87,10.87,0,0,1,1.5,7c-.67,3.67.66,14.67,2,17.34s2.58,19.33,2.58,19.33" transform="translate(-141.26)"/><path class="cls-18" d="M448.74,240.08s-.58-15-.58-17.33-.84-11.67-.84-11.67" transform="translate(-141.26)"/><path class="cls-18" d="M468,239.33s-.83-15.26-.83-18.92.5-11,.5-11" transform="translate(-141.26)"/><path class="cls-18" d="M482,236.08s1.17-14,1.5-16.33,1.5-13,1.5-13" transform="translate(-141.26)"/><path class="cls-18" d="M429,151.41s1.71-4.29,12.12-1.21c19,5.63,56.26,12,56.26,12" transform="translate(-141.26)"/><g class="cls-35"><path class="cls-36" d="M305,468.24,286.82,488l.45-16.19a.24.24,0,0,1,.29-.19l8.18,3.75.61-.69-9.09-4.17a.74.74,0,0,0-.92.59l-.83,18.62a.57.57,0,0,0,.89.61l18.36-20.23-.17,8.2c0,.16,0,.29-.29.19l-3.43-1.6-.56.72,4.24,1.93a.74.74,0,0,0,.92-.59l.45-10.09A.57.57,0,0,0,305,468.24Z" transform="translate(-141.26)"/><path class="cls-36" d="M348.11,455.22,329.91,475l.45-16.19a.24.24,0,0,1,.29-.19l8.18,3.75.61-.69-9.09-4.17a.74.74,0,0,0-.92.59l-.83,18.62a.57.57,0,0,0,.89.61l18.36-20.23-.17,8.2c0,.16,0,.29-.29.19l-3.43-1.6-.56.72,4.24,1.93a.74.74,0,0,0,.92-.59l.45-10.09A.57.57,0,0,0,348.11,455.22Z" transform="translate(-141.26)"/><path class="cls-36" d="M391.19,442.2,373,462l.45-16.19a.24.24,0,0,1,.29-.19l8.18,3.75.61-.69-9.09-4.17a.74.74,0,0,0-.92.59l-.83,18.62a.57.57,0,0,0,.89.61l18.36-20.23-.17,8.2c0,.16,0,.29-.29.19l-3.43-1.6-.56.72,4.24,1.93a.74.74,0,0,0,.92-.59l.45-10.09A.57.57,0,0,0,391.19,442.2Z" transform="translate(-141.26)"/><path class="cls-36" d="M434.28,429.18l-18.2,19.75.45-16.19a.24.24,0,0,1,.29-.19l8.18,3.75.61-.69-9.09-4.17a.74.74,0,0,0-.92.59l-.83,18.62a.57.57,0,0,0,.89.61L434,431l-.17,8.2c0,.16,0,.29-.29.19l-3.43-1.6-.56.72,4.24,1.93a.74.74,0,0,0,.92-.59l.45-10.09A.57.57,0,0,0,434.28,429.18Z" transform="translate(-141.26)"/><path class="cls-36" d="M477.37,416.16l-18.2,19.75.45-16.19a.24.24,0,0,1,.29-.19l8.18,3.75.61-.69-9.09-4.17a.74.74,0,0,0-.92.59l-.83,18.62a.57.57,0,0,0,.89.61L477.09,418l-.17,8.2c0,.16,0,.29-.29.19l-3.43-1.6-.56.72,4.24,1.93a.74.74,0,0,0,.92-.59l.45-10.09A.57.57,0,0,0,477.37,416.16Z" transform="translate(-141.26)"/><path class="cls-36" d="M520.45,403.14l-18.2,19.75.45-16.19a.24.24,0,0,1,.29-.19l8.18,3.75.61-.69-9.09-4.17a.74.74,0,0,0-.92.59l-.83,18.62a.57.57,0,0,0,.89.61L520.18,405l-.17,8.2c0,.16,0,.29-.29.19l-3.43-1.6-.56.72,4.24,1.93a.74.74,0,0,0,.92-.59l.45-10.09A.57.57,0,0,0,520.45,403.14Z" transform="translate(-141.26)"/><path class="cls-36" d="M563.54,390.12l-18.2,19.75.45-16.19a.24.24,0,0,1,.29-.19l8.18,3.75.61-.69-9.09-4.17a.74.74,0,0,0-.92.59L544,411.6a.57.57,0,0,0,.89.61L563.27,392l-.17,8.2c0,.16,0,.29-.29.19l-3.43-1.6-.56.72,4.24,1.93a.74.74,0,0,0,.92-.59l.45-10.09A.57.57,0,0,0,563.54,390.12Z" transform="translate(-141.26)"/><path class="cls-36" d="M606.63,377.1l-18.2,19.75.45-16.19a.24.24,0,0,1,.29-.19l8.18,3.75.61-.69-9.09-4.17a.74.74,0,0,0-.92.59l-.83,18.62a.57.57,0,0,0,.89.61l18.36-20.23-.17,8.2c0,.16,0,.29-.29.19l-3.43-1.6-.56.72,4.24,1.93a.74.74,0,0,0,.92-.59l.45-10.09A.57.57,0,0,0,606.63,377.1Z" transform="translate(-141.26)"/><path class="cls-36" d="M649.71,364.08l-18.2,19.75.45-16.19a.24.24,0,0,1,.29-.19l8.18,3.75.61-.69-9.09-4.17a.74.74,0,0,0-.92.59l-.83,18.62a.57.57,0,0,0,.89.61l18.36-20.23-.17,8.2c0,.16,0,.29-.29.19l-3.43-1.6-.56.72,4.24,1.93a.74.74,0,0,0,.92-.59l.45-10.09A.57.57,0,0,0,649.71,364.08Z" transform="translate(-141.26)"/><path class="cls-36" d="M692.8,351.06l-18.2,19.75.45-16.19a.24.24,0,0,1,.29-.19l8.18,3.75.61-.69L675,353.32a.74.74,0,0,0-.92.59l-.83,18.62a.57.57,0,0,0,.89.61l18.36-20.23-.17,8.2c0,.16,0,.29-.29.19l-3.43-1.6-.56.72,4.24,1.93a.74.74,0,0,0,.92-.59l.45-10.09A.57.57,0,0,0,692.8,351.06Z" transform="translate(-141.26)"/><path class="cls-36" d="M735.89,338l-18.2,19.75.45-16.19a.24.24,0,0,1,.29-.19l8.18,3.75.61-.69-9.09-4.17a.74.74,0,0,0-.92.59l-.83,18.62a.57.57,0,0,0,.89.61l18.36-20.23-.17,8.2c0,.16,0,.29-.29.19l-3.43-1.6-.56.72,4.24,1.93a.74.74,0,0,0,.92-.59l.45-10.09A.57.57,0,0,0,735.89,338Z" transform="translate(-141.26)"/><path class="cls-36" d="M322.76,493.15l-18.2,19.75.45-16.19a.24.24,0,0,1,.29-.19l8.18,3.75.61-.69L305,495.41a.74.74,0,0,0-.92.59l-.83,18.62a.57.57,0,0,0,.89.61L322.49,495l-.17,8.2c0,.16,0,.29-.29.19l-3.43-1.6-.56.72,4.24,1.93a.74.74,0,0,0,.92-.59l.45-10.09A.57.57,0,0,0,322.76,493.15Z" transform="translate(-141.26)"/><path class="cls-36" d="M365.85,480.13l-18.2,19.75.45-16.19a.24.24,0,0,1,.29-.19l8.18,3.75.61-.69-9.09-4.17a.74.74,0,0,0-.92.59l-.83,18.62a.57.57,0,0,0,.89.61L365.58,482l-.17,8.2c0,.16,0,.29-.29.19l-3.43-1.6-.56.72,4.24,1.93a.74.74,0,0,0,.92-.59l.45-10.09A.57.57,0,0,0,365.85,480.13Z" transform="translate(-141.26)"/><path class="cls-36" d="M408.94,467.11l-18.2,19.75.45-16.19a.24.24,0,0,1,.29-.19l8.18,3.75.61-.69-9.09-4.17a.74.74,0,0,0-.92.59l-.83,18.62a.57.57,0,0,0,.89.61L408.67,469l-.17,8.2c0,.16,0,.29-.29.19l-3.43-1.6-.56.72,4.24,1.93a.74.74,0,0,0,.92-.59l.45-10.09A.57.57,0,0,0,408.94,467.11Z" transform="translate(-141.26)"/><path class="cls-36" d="M452,454.09l-18.2,19.75.45-16.19a.24.24,0,0,1,.29-.19l8.18,3.75.61-.69-9.09-4.17a.74.74,0,0,0-.92.59l-.83,18.62a.57.57,0,0,0,.89.61l18.36-20.23-.17,8.2c0,.16,0,.29-.29.19l-3.43-1.6-.56.72,4.24,1.93a.74.74,0,0,0,.92-.59l.45-10.09A.57.57,0,0,0,452,454.09Z" transform="translate(-141.26)"/><path class="cls-36" d="M495.11,441.07l-18.2,19.75.45-16.19a.24.24,0,0,1,.29-.19l8.18,3.75.61-.69-9.09-4.17a.74.74,0,0,0-.92.59l-.83,18.62a.57.57,0,0,0,.89.61l18.36-20.23-.17,8.2c0,.16,0,.29-.29.19l-3.43-1.6-.56.72,4.24,1.93a.74.74,0,0,0,.92-.59l.45-10.09A.57.57,0,0,0,495.11,441.07Z" transform="translate(-141.26)"/><path class="cls-36" d="M538.2,428,520,447.8l.45-16.19a.24.24,0,0,1,.29-.19l8.18,3.75.61-.69-9.09-4.17a.74.74,0,0,0-.92.59l-.83,18.62a.57.57,0,0,0,.89.61l18.36-20.23-.17,8.2c0,.16,0,.29-.29.19l-3.43-1.6-.56.72,4.24,1.93a.74.74,0,0,0,.92-.59l.45-10.09A.57.57,0,0,0,538.2,428Z" transform="translate(-141.26)"/><path class="cls-36" d="M581.28,415l-18.2,19.75.45-16.19a.24.24,0,0,1,.29-.19l8.18,3.75.61-.69-9.09-4.17a.74.74,0,0,0-.92.59l-.83,18.62a.57.57,0,0,0,.89.61L581,416.88l-.17,8.2c0,.16,0,.29-.29.19l-3.43-1.6-.56.72,4.24,1.93a.74.74,0,0,0,.92-.59l.45-10.09A.57.57,0,0,0,581.28,415Z" transform="translate(-141.26)"/><path class="cls-36" d="M624.37,402l-18.2,19.75.45-16.19a.24.24,0,0,1,.29-.19l8.18,3.75.61-.69-9.09-4.17a.74.74,0,0,0-.92.59l-.83,18.62a.57.57,0,0,0,.89.61l18.36-20.23-.17,8.2c0,.16,0,.29-.29.19l-3.43-1.6-.56.72,4.24,1.93a.74.74,0,0,0,.92-.59l.45-10.09A.57.57,0,0,0,624.37,402Z" transform="translate(-141.26)"/><path class="cls-36" d="M667.46,389l-18.2,19.75.45-16.19a.24.24,0,0,1,.29-.19l8.18,3.75.61-.69-9.09-4.17a.74.74,0,0,0-.92.59l-.83,18.62a.57.57,0,0,0,.89.61l18.36-20.23L667,399c0,.16,0,.29-.29.19l-3.43-1.6-.56.72,4.24,1.93a.74.74,0,0,0,.92-.59l.45-10.09A.57.57,0,0,0,667.46,389Z" transform="translate(-141.26)"/><path class="cls-36" d="M710.54,376l-18.2,19.75.45-16.19a.24.24,0,0,1,.29-.19l8.18,3.75.61-.69-9.09-4.17a.74.74,0,0,0-.92.59L691,397.44a.57.57,0,0,0,.89.61l18.36-20.23-.17,8.2c0,.16,0,.29-.29.19l-3.43-1.6-.56.72,4.24,1.93a.74.74,0,0,0,.92-.59l.45-10.09A.57.57,0,0,0,710.54,376Z" transform="translate(-141.26)"/><path class="cls-36" d="M753.63,362.94l-18.2,19.75.45-16.19a.24.24,0,0,1,.29-.19l8.18,3.75.61-.69-9.09-4.17a.74.74,0,0,0-.92.59l-.83,18.62a.57.57,0,0,0,.89.61l18.36-20.23-.17,8.2c0,.16,0,.29-.29.19l-3.43-1.6-.56.72,4.24,1.93a.74.74,0,0,0,.92-.59l.45-10.09A.57.57,0,0,0,753.63,362.94Z" transform="translate(-141.26)"/><path class="cls-36" d="M321.76,523.66l-18.2,19.75.45-16.19a.24.24,0,0,1,.29-.19l8.18,3.75.61-.69L304,525.92a.74.74,0,0,0-.92.59l-.83,18.62a.57.57,0,0,0,.89.61l18.36-20.23-.17,8.2c0,.16,0,.29-.29.19l-3.43-1.6L317,533l4.24,1.93a.74.74,0,0,0,.92-.59l.45-10.09A.57.57,0,0,0,321.76,523.66Z" transform="translate(-141.26)"/><path class="cls-36" d="M364.85,510.64l-18.2,19.75.45-16.19a.24.24,0,0,1,.29-.19l8.18,3.75.61-.69-9.09-4.17a.74.74,0,0,0-.92.59l-.83,18.62a.57.57,0,0,0,.89.61l18.36-20.23-.17,8.2c0,.16,0,.29-.29.19l-3.43-1.6-.56.72,4.24,1.93a.74.74,0,0,0,.92-.59l.45-10.09A.57.57,0,0,0,364.85,510.64Z" transform="translate(-141.26)"/><path class="cls-36" d="M407.94,497.62l-18.2,19.75.45-16.19a.24.24,0,0,1,.29-.19l8.18,3.75.61-.69-9.09-4.17a.74.74,0,0,0-.92.59l-.83,18.62a.57.57,0,0,0,.89.61l18.36-20.23-.17,8.2c0,.16,0,.29-.29.19l-3.43-1.6-.56.72,4.24,1.93a.74.74,0,0,0,.92-.59l.45-10.09A.57.57,0,0,0,407.94,497.62Z" transform="translate(-141.26)"/><path class="cls-36" d="M451,484.6l-18.2,19.75.45-16.19a.24.24,0,0,1,.29-.19l8.18,3.75.61-.69-9.09-4.17a.74.74,0,0,0-.92.59l-.83,18.62a.57.57,0,0,0,.89.61l18.36-20.23-.17,8.2c0,.16,0,.29-.29.19l-3.43-1.6-.56.72,4.24,1.93a.74.74,0,0,0,.92-.59l.45-10.09A.57.57,0,0,0,451,484.6Z" transform="translate(-141.26)"/><path class="cls-36" d="M494.11,471.58l-18.2,19.75.45-16.19a.24.24,0,0,1,.29-.19l8.18,3.75.61-.69-9.09-4.17a.74.74,0,0,0-.92.59l-.83,18.62a.57.57,0,0,0,.89.61l18.36-20.23-.17,8.2c0,.16,0,.29-.29.19l-3.43-1.6-.56.72,4.24,1.93a.74.74,0,0,0,.92-.59l.45-10.09A.57.57,0,0,0,494.11,471.58Z" transform="translate(-141.26)"/><path class="cls-36" d="M537.2,458.56,519,478.31l.45-16.19a.24.24,0,0,1,.29-.19l8.18,3.75.61-.69-9.09-4.17a.74.74,0,0,0-.92.59L517.68,480a.57.57,0,0,0,.89.61l18.36-20.23-.17,8.2c0,.16,0,.29-.29.19l-3.43-1.6-.56.72,4.24,1.93a.74.74,0,0,0,.92-.59l.45-10.09A.57.57,0,0,0,537.2,458.56Z" transform="translate(-141.26)"/><path class="cls-36" d="M580.28,445.53l-18.2,19.75.45-16.19a.24.24,0,0,1,.29-.19l8.18,3.75.61-.69-9.09-4.17a.74.74,0,0,0-.92.59L560.76,467a.57.57,0,0,0,.89.61L580,447.39l-.17,8.2c0,.16,0,.29-.29.19l-3.43-1.6-.56.72,4.24,1.93a.74.74,0,0,0,.92-.59l.45-10.09A.57.57,0,0,0,580.28,445.53Z" transform="translate(-141.26)"/><path class="cls-36" d="M623.37,432.51l-18.2,19.75.45-16.19a.24.24,0,0,1,.29-.19l8.18,3.75.61-.69-9.09-4.17a.74.74,0,0,0-.92.59L603.85,454a.57.57,0,0,0,.89.61l18.36-20.23-.17,8.2c0,.16,0,.29-.29.19l-3.43-1.6-.56.72,4.24,1.93a.74.74,0,0,0,.92-.59l.45-10.09A.57.57,0,0,0,623.37,432.51Z" transform="translate(-141.26)"/><path class="cls-36" d="M666.46,419.49l-18.2,19.75.45-16.19a.24.24,0,0,1,.29-.19l8.18,3.75.61-.69-9.09-4.17a.74.74,0,0,0-.92.59L646.94,441a.57.57,0,0,0,.89.61l18.36-20.23-.17,8.2c0,.16,0,.29-.29.19l-3.43-1.6-.56.72,4.24,1.93a.74.74,0,0,0,.92-.59l.45-10.09A.57.57,0,0,0,666.46,419.49Z" transform="translate(-141.26)"/><path class="cls-36" d="M709.54,406.47l-18.2,19.75.45-16.19a.24.24,0,0,1,.29-.19l8.18,3.75.61-.69-9.09-4.17a.74.74,0,0,0-.92.59L690,428a.57.57,0,0,0,.89.61l18.36-20.23-.17,8.2c0,.16,0,.29-.29.19l-3.43-1.6-.56.72,4.24,1.93a.74.74,0,0,0,.92-.59l.45-10.09A.57.57,0,0,0,709.54,406.47Z" transform="translate(-141.26)"/><path class="cls-36" d="M752.63,393.45l-18.2,19.75.45-16.19a.24.24,0,0,1,.29-.19l8.18,3.75.61-.69-9.09-4.17a.74.74,0,0,0-.92.59l-.83,18.62a.57.57,0,0,0,.89.61l18.36-20.23-.17,8.2c0,.16,0,.29-.29.19l-3.43-1.6-.56.72,4.24,1.93a.74.74,0,0,0,.92-.59l.45-10.09A.57.57,0,0,0,752.63,393.45Z" transform="translate(-141.26)"/><path class="cls-36" d="M339.51,548.56l-18.2,19.75.45-16.19a.24.24,0,0,1,.29-.19l8.18,3.75.61-.69-9.09-4.17a.74.74,0,0,0-.92.59L320,570a.57.57,0,0,0,.89.61l18.36-20.23-.17,8.2c0,.16,0,.29-.29.19l-3.43-1.6-.56.72,4.24,1.93a.74.74,0,0,0,.92-.59l.45-10.09A.57.57,0,0,0,339.51,548.56Z" transform="translate(-141.26)"/><path class="cls-36" d="M382.6,535.54l-18.2,19.75.45-16.19a.24.24,0,0,1,.29-.19l8.18,3.75.61-.69-9.09-4.17a.74.74,0,0,0-.92.59L363.08,557a.57.57,0,0,0,.89.61l18.36-20.23-.17,8.2c0,.16,0,.29-.29.19l-3.43-1.6-.56.72,4.24,1.93a.74.74,0,0,0,.92-.59l.45-10.09A.57.57,0,0,0,382.6,535.54Z" transform="translate(-141.26)"/><path class="cls-36" d="M425.68,522.52l-18.2,19.75.45-16.19a.24.24,0,0,1,.29-.19l8.18,3.75L417,529l-9.09-4.17a.74.74,0,0,0-.92.59L406.16,544a.57.57,0,0,0,.89.61l18.36-20.23-.17,8.2c0,.16,0,.29-.29.19l-3.43-1.6-.56.72,4.24,1.93a.74.74,0,0,0,.92-.59l.45-10.09A.57.57,0,0,0,425.68,522.52Z" transform="translate(-141.26)"/><path class="cls-36" d="M468.77,509.5l-18.2,19.75.45-16.19a.24.24,0,0,1,.29-.19l8.18,3.75.61-.69L451,511.77a.74.74,0,0,0-.92.59L449.25,531a.57.57,0,0,0,.89.61l18.36-20.23-.17,8.2c0,.16,0,.29-.29.19l-3.43-1.6-.56.72,4.24,1.93a.74.74,0,0,0,.92-.59l.45-10.09A.57.57,0,0,0,468.77,509.5Z" transform="translate(-141.26)"/><path class="cls-36" d="M511.86,496.48l-18.2,19.75L494.1,500a.24.24,0,0,1,.29-.19l8.18,3.75.61-.69-9.09-4.17a.74.74,0,0,0-.92.59L492.34,518a.57.57,0,0,0,.89.61l18.36-20.23-.17,8.2c0,.16,0,.29-.29.19l-3.43-1.6-.56.72,4.24,1.93a.74.74,0,0,0,.92-.59l.45-10.09A.57.57,0,0,0,511.86,496.48Z" transform="translate(-141.26)"/><path class="cls-36" d="M554.94,483.46l-18.2,19.75.45-16.19a.24.24,0,0,1,.29-.19l8.18,3.75.61-.69-9.09-4.17a.74.74,0,0,0-.92.59l-.83,18.62a.57.57,0,0,0,.89.61l18.36-20.23-.17,8.2c0,.16,0,.29-.29.19l-3.43-1.6-.56.72,4.24,1.93a.74.74,0,0,0,.92-.59l.45-10.09A.57.57,0,0,0,554.94,483.46Z" transform="translate(-141.26)"/><path class="cls-36" d="M598,470.44l-18.2,19.75.45-16.19a.24.24,0,0,1,.29-.19l8.18,3.75.61-.69-9.09-4.17a.74.74,0,0,0-.92.59l-.83,18.62a.57.57,0,0,0,.89.61l18.36-20.23-.17,8.2c0,.16,0,.29-.29.19l-3.43-1.6-.56.72,4.24,1.93a.74.74,0,0,0,.92-.59l.45-10.09A.57.57,0,0,0,598,470.44Z" transform="translate(-141.26)"/><path class="cls-36" d="M641.12,457.42l-18.2,19.75.45-16.19a.24.24,0,0,1,.29-.19l8.18,3.75.61-.69-9.09-4.17a.74.74,0,0,0-.92.59l-.83,18.62a.57.57,0,0,0,.89.61l18.36-20.23-.17,8.2c0,.16,0,.29-.29.19l-3.43-1.6-.56.72,4.24,1.93a.74.74,0,0,0,.92-.59L642,458A.57.57,0,0,0,641.12,457.42Z" transform="translate(-141.26)"/><path class="cls-36" d="M684.2,444.4,666,464.15l.45-16.19a.24.24,0,0,1,.29-.19l8.18,3.75.61-.69-9.09-4.17a.74.74,0,0,0-.92.59l-.83,18.62a.57.57,0,0,0,.89.61l18.36-20.23-.17,8.2c0,.16,0,.29-.29.19L680,453l-.56.72,4.24,1.93a.74.74,0,0,0,.92-.59l.45-10.09A.57.57,0,0,0,684.2,444.4Z" transform="translate(-141.26)"/><path class="cls-36" d="M727.29,431.38l-18.2,19.75.45-16.19a.24.24,0,0,1,.29-.19L718,438.5l.61-.69-9.09-4.17a.74.74,0,0,0-.92.59l-.83,18.62a.57.57,0,0,0,.89.61L727,433.23l-.17,8.2c0,.16,0,.29-.29.19l-3.43-1.6-.56.72,4.24,1.93a.74.74,0,0,0,.92-.59l.45-10.09A.57.57,0,0,0,727.29,431.38Z" transform="translate(-141.26)"/><path class="cls-36" d="M770.38,418.36l-18.2,19.75.45-16.19a.24.24,0,0,1,.29-.19l8.18,3.75.61-.69-9.09-4.17a.74.74,0,0,0-.92.59l-.83,18.62a.57.57,0,0,0,.89.61l18.36-20.23-.17,8.2c0,.16,0,.29-.29.19l-3.43-1.6-.56.72,4.24,1.93a.74.74,0,0,0,.92-.59l.45-10.09A.57.57,0,0,0,770.38,418.36Z" transform="translate(-141.26)"/><path class="cls-36" d="M338.51,579.07l-18.2,19.75.45-16.19a.24.24,0,0,1,.29-.19l8.18,3.75.61-.69-9.09-4.17a.74.74,0,0,0-.92.59L319,600.55a.57.57,0,0,0,.89.61l18.36-20.23-.17,8.2c0,.16,0,.29-.29.19l-3.43-1.6-.56.72,4.24,1.93a.74.74,0,0,0,.92-.59l.45-10.09A.57.57,0,0,0,338.51,579.07Z" transform="translate(-141.26)"/><path class="cls-36" d="M381.6,566.05,363.4,585.8l.45-16.19a.24.24,0,0,1,.29-.19l8.18,3.75.61-.69-9.09-4.17a.74.74,0,0,0-.92.59l-.83,18.62a.57.57,0,0,0,.89.61l18.36-20.23-.17,8.2c0,.16,0,.29-.29.19l-3.43-1.6-.56.72,4.24,1.93a.74.74,0,0,0,.92-.59l.45-10.09A.57.57,0,0,0,381.6,566.05Z" transform="translate(-141.26)"/><path class="cls-36" d="M424.68,553l-18.2,19.75.45-16.19a.24.24,0,0,1,.29-.19l8.18,3.75.61-.69-9.09-4.17a.74.74,0,0,0-.92.59l-.83,18.62a.57.57,0,0,0,.89.61l18.36-20.23-.17,8.2c0,.16,0,.29-.29.19l-3.43-1.6-.56.72,4.24,1.93a.74.74,0,0,0,.92-.59l.45-10.09A.57.57,0,0,0,424.68,553Z" transform="translate(-141.26)"/><path class="cls-36" d="M467.77,540l-18.2,19.75.45-16.19a.24.24,0,0,1,.29-.19l8.18,3.75.61-.69L450,542.28a.74.74,0,0,0-.92.59l-.83,18.62a.57.57,0,0,0,.89.61l18.36-20.23-.17,8.2c0,.16,0,.29-.29.19l-3.43-1.6-.56.72,4.24,1.93a.74.74,0,0,0,.92-.59l.45-10.09A.57.57,0,0,0,467.77,540Z" transform="translate(-141.26)"/><path class="cls-36" d="M510.86,527l-18.2,19.75.45-16.19a.24.24,0,0,1,.29-.19l8.18,3.75.61-.69-9.09-4.17a.74.74,0,0,0-.92.59l-.83,18.62a.57.57,0,0,0,.89.61l18.36-20.23-.17,8.2c0,.16,0,.29-.29.19l-3.43-1.6-.56.72,4.24,1.93a.74.74,0,0,0,.92-.59l.45-10.09A.57.57,0,0,0,510.86,527Z" transform="translate(-141.26)"/><path class="cls-36" d="M553.94,514l-18.2,19.75.45-16.19a.24.24,0,0,1,.29-.19l8.18,3.75.61-.69-9.09-4.17a.74.74,0,0,0-.92.59l-.83,18.62a.57.57,0,0,0,.89.61l18.36-20.23-.17,8.2c0,.16,0,.29-.29.19l-3.43-1.6-.56.72,4.24,1.93a.74.74,0,0,0,.92-.59l.45-10.09A.57.57,0,0,0,553.94,514Z" transform="translate(-141.26)"/><path class="cls-36" d="M597,501l-18.2,19.75.45-16.19a.24.24,0,0,1,.29-.19l8.18,3.75.61-.69-9.09-4.17a.74.74,0,0,0-.92.59l-.83,18.62a.57.57,0,0,0,.89.61l18.36-20.23-.17,8.2c0,.16,0,.29-.29.19l-3.43-1.6-.56.72,4.24,1.93a.74.74,0,0,0,.92-.59l.45-10.09A.57.57,0,0,0,597,501Z" transform="translate(-141.26)"/><path class="cls-36" d="M640.12,487.93l-18.2,19.75.45-16.19a.24.24,0,0,1,.29-.19l8.18,3.75.61-.69-9.09-4.17a.74.74,0,0,0-.92.59l-.83,18.62a.57.57,0,0,0,.89.61l18.36-20.23-.17,8.2c0,.16,0,.29-.29.19l-3.43-1.6-.56.72,4.24,1.93a.74.74,0,0,0,.92-.59l.45-10.09A.57.57,0,0,0,640.12,487.93Z" transform="translate(-141.26)"/><path class="cls-36" d="M683.2,474.91,665,494.66l.45-16.19a.24.24,0,0,1,.29-.19l8.18,3.75.61-.69-9.09-4.17a.74.74,0,0,0-.92.59l-.83,18.62a.57.57,0,0,0,.89.61l18.36-20.23-.17,8.2c0,.16,0,.29-.29.19l-3.43-1.6-.56.72,4.24,1.93a.74.74,0,0,0,.92-.59l.45-10.09A.57.57,0,0,0,683.2,474.91Z" transform="translate(-141.26)"/><path class="cls-36" d="M726.29,461.89l-18.2,19.75.45-16.19a.24.24,0,0,1,.29-.19L717,469l.61-.69-9.09-4.17a.74.74,0,0,0-.92.59l-.83,18.62a.57.57,0,0,0,.89.61L726,463.74l-.17,8.2c0,.16,0,.29-.29.19l-3.43-1.6-.56.72,4.24,1.93a.74.74,0,0,0,.92-.59l.45-10.09A.57.57,0,0,0,726.29,461.89Z" transform="translate(-141.26)"/><path class="cls-36" d="M769.38,448.87l-18.2,19.75.45-16.19a.24.24,0,0,1,.29-.19L760.1,456l.61-.69-9.09-4.17a.74.74,0,0,0-.92.59l-.83,18.62a.57.57,0,0,0,.89.61l18.36-20.23-.17,8.2c0,.16,0,.29-.29.19l-3.43-1.6-.56.72,4.24,1.93a.74.74,0,0,0,.92-.59l.45-10.09A.57.57,0,0,0,769.38,448.87Z" transform="translate(-141.26)"/><path class="cls-36" d="M356.26,604l-18.2,19.75.45-16.19a.24.24,0,0,1,.29-.19L347,611.1l.61-.69-9.09-4.17a.74.74,0,0,0-.92.59l-.83,18.62a.57.57,0,0,0,.89.61L356,605.83l-.17,8.2c0,.16,0,.29-.29.19l-3.43-1.6-.56.72,4.24,1.93a.74.74,0,0,0,.92-.59l.45-10.09A.57.57,0,0,0,356.26,604Z" transform="translate(-141.26)"/><path class="cls-36" d="M399.34,591l-18.2,19.75.45-16.19a.24.24,0,0,1,.29-.19l8.18,3.75.61-.69-9.09-4.17a.74.74,0,0,0-.92.59l-.83,18.62a.57.57,0,0,0,.89.61l18.36-20.23-.17,8.2c0,.16,0,.29-.29.19l-3.43-1.6-.56.72,4.24,1.93a.74.74,0,0,0,.92-.59l.45-10.09A.57.57,0,0,0,399.34,591Z" transform="translate(-141.26)"/><path class="cls-36" d="M442.43,577.94l-18.2,19.75.45-16.19a.24.24,0,0,1,.29-.19l8.18,3.75.61-.69-9.09-4.17a.74.74,0,0,0-.92.59l-.83,18.62a.57.57,0,0,0,.89.61l18.36-20.23L442,588c0,.16,0,.29-.29.19l-3.43-1.6-.56.72,4.24,1.93a.74.74,0,0,0,.92-.59l.45-10.09A.57.57,0,0,0,442.43,577.94Z" transform="translate(-141.26)"/><path class="cls-36" d="M485.52,564.92l-18.2,19.75.45-16.19a.24.24,0,0,1,.29-.19l8.18,3.75.61-.69-9.09-4.17a.74.74,0,0,0-.92.59L466,586.4a.57.57,0,0,0,.89.61l18.36-20.23-.17,8.2c0,.16,0,.29-.29.19l-3.43-1.6-.56.72L485,576.2a.74.74,0,0,0,.92-.59l.45-10.09A.57.57,0,0,0,485.52,564.92Z" transform="translate(-141.26)"/><path class="cls-36" d="M528.6,551.9l-18.2,19.75.45-16.19a.24.24,0,0,1,.29-.19l8.18,3.75.61-.69-9.09-4.17a.74.74,0,0,0-.92.59l-.83,18.62a.57.57,0,0,0,.89.61l18.36-20.23-.17,8.2c0,.16,0,.29-.29.19l-3.43-1.6-.56.72,4.24,1.93a.74.74,0,0,0,.92-.59l.45-10.09A.57.57,0,0,0,528.6,551.9Z" transform="translate(-141.26)"/><path class="cls-36" d="M571.69,538.88l-18.2,19.75.45-16.19a.24.24,0,0,1,.29-.19l8.18,3.75.61-.69-9.09-4.17a.74.74,0,0,0-.92.59l-.83,18.62a.57.57,0,0,0,.89.61l18.36-20.23-.17,8.2c0,.16,0,.29-.29.19l-3.43-1.6-.56.72,4.24,1.93a.74.74,0,0,0,.92-.59l.45-10.09A.57.57,0,0,0,571.69,538.88Z" transform="translate(-141.26)"/><path class="cls-36" d="M614.78,525.86l-18.2,19.75.45-16.19a.24.24,0,0,1,.29-.19l8.18,3.75.61-.69L597,528.12a.74.74,0,0,0-.92.59l-.83,18.62a.57.57,0,0,0,.89.61l18.36-20.23-.17,8.2c0,.16,0,.29-.29.19l-3.43-1.6-.56.72,4.24,1.93a.74.74,0,0,0,.92-.59l.45-10.09A.57.57,0,0,0,614.78,525.86Z" transform="translate(-141.26)"/><path class="cls-36" d="M657.86,512.84l-18.2,19.75.45-16.19a.24.24,0,0,1,.29-.19l8.18,3.75.61-.69-9.09-4.17a.74.74,0,0,0-.92.59l-.83,18.62a.57.57,0,0,0,.89.61l18.36-20.23-.17,8.2c0,.16,0,.29-.29.19l-3.43-1.6-.56.72,4.24,1.93a.74.74,0,0,0,.92-.59l.45-10.09A.57.57,0,0,0,657.86,512.84Z" transform="translate(-141.26)"/><path class="cls-36" d="M700.95,499.82l-18.2,19.75.45-16.19a.24.24,0,0,1,.29-.19l8.18,3.75.61-.69-9.09-4.17a.74.74,0,0,0-.92.59l-.83,18.62a.57.57,0,0,0,.89.61l18.36-20.23-.17,8.2c0,.16,0,.29-.29.19l-3.43-1.6-.56.72,4.24,1.93a.74.74,0,0,0,.92-.59l.45-10.09A.57.57,0,0,0,700.95,499.82Z" transform="translate(-141.26)"/><path class="cls-36" d="M744,486.79l-18.2,19.75.45-16.19a.24.24,0,0,1,.29-.19l8.18,3.75.61-.69-9.09-4.17a.74.74,0,0,0-.92.59l-.83,18.62a.57.57,0,0,0,.89.61l18.36-20.23-.17,8.2c0,.16,0,.29-.29.19l-3.43-1.6-.56.72,4.24,1.93a.74.74,0,0,0,.92-.59l.45-10.09A.57.57,0,0,0,744,486.79Z" transform="translate(-141.26)"/><path class="cls-36" d="M787.12,473.77l-18.2,19.75.45-16.19a.24.24,0,0,1,.29-.19l8.18,3.75.61-.69L769.36,476a.74.74,0,0,0-.92.59l-.83,18.62a.57.57,0,0,0,.89.61l18.36-20.23-.17,8.2c0,.16,0,.29-.29.19l-3.43-1.6-.56.72,4.24,1.93a.74.74,0,0,0,.92-.59l.45-10.09A.57.57,0,0,0,787.12,473.77Z" transform="translate(-141.26)"/><path class="cls-36" d="M355.26,634.49l-18.2,19.75.45-16.19a.24.24,0,0,1,.29-.19l8.18,3.75.61-.69-9.09-4.17a.74.74,0,0,0-.92.59L335.74,656a.57.57,0,0,0,.89.61L355,636.34l-.17,8.2c0,.16,0,.29-.29.19l-3.43-1.6-.56.72,4.24,1.93a.74.74,0,0,0,.92-.59l.45-10.09A.57.57,0,0,0,355.26,634.49Z" transform="translate(-141.26)"/><path class="cls-36" d="M398.34,621.47l-18.2,19.75.45-16.19a.24.24,0,0,1,.29-.19l8.18,3.75.61-.69-9.09-4.17a.74.74,0,0,0-.92.59l-.83,18.62a.57.57,0,0,0,.89.61l18.36-20.23-.17,8.2c0,.16,0,.29-.29.19l-3.43-1.6-.56.72,4.24,1.93a.74.74,0,0,0,.92-.59l.45-10.09A.57.57,0,0,0,398.34,621.47Z" transform="translate(-141.26)"/><path class="cls-36" d="M441.43,608.45l-18.2,19.75.45-16.19a.24.24,0,0,1,.29-.19l8.18,3.75.61-.69-9.09-4.17a.74.74,0,0,0-.92.59l-.83,18.62a.57.57,0,0,0,.89.61l18.36-20.23-.17,8.2c0,.16,0,.29-.29.19l-3.43-1.6-.56.72,4.24,1.93a.74.74,0,0,0,.92-.59l.45-10.09A.57.57,0,0,0,441.43,608.45Z" transform="translate(-141.26)"/><path class="cls-36" d="M484.52,595.43l-18.2,19.75.45-16.19a.24.24,0,0,1,.29-.19l8.18,3.75.61-.69-9.09-4.17a.74.74,0,0,0-.92.59L465,616.91a.57.57,0,0,0,.89.61l18.36-20.23-.17,8.2c0,.16,0,.29-.29.19l-3.43-1.6-.56.72,4.24,1.93a.74.74,0,0,0,.92-.59L485.4,596A.57.57,0,0,0,484.52,595.43Z" transform="translate(-141.26)"/><path class="cls-36" d="M527.6,582.41l-18.2,19.75.45-16.19a.24.24,0,0,1,.29-.19l8.18,3.75.61-.69-9.09-4.17a.74.74,0,0,0-.92.59l-.83,18.62a.57.57,0,0,0,.89.61l18.36-20.23-.17,8.2c0,.16,0,.29-.29.19l-3.43-1.6-.56.72,4.24,1.93a.74.74,0,0,0,.92-.59l.45-10.09A.57.57,0,0,0,527.6,582.41Z" transform="translate(-141.26)"/><path class="cls-36" d="M570.69,569.39l-18.2,19.75.45-16.19a.24.24,0,0,1,.29-.19l8.18,3.75.61-.69-9.09-4.17a.74.74,0,0,0-.92.59l-.83,18.62a.57.57,0,0,0,.89.61l18.36-20.23-.17,8.2c0,.16,0,.29-.29.19l-3.43-1.6-.56.72,4.24,1.93a.74.74,0,0,0,.92-.59l.45-10.09A.57.57,0,0,0,570.69,569.39Z" transform="translate(-141.26)"/><path class="cls-36" d="M613.78,556.37l-18.2,19.75.45-16.19a.24.24,0,0,1,.29-.19l8.18,3.75.61-.69L596,558.63a.74.74,0,0,0-.92.59l-.83,18.62a.57.57,0,0,0,.89.61l18.36-20.23-.17,8.2c0,.16,0,.29-.29.19l-3.43-1.6-.56.72,4.24,1.93a.74.74,0,0,0,.92-.59l.45-10.09A.57.57,0,0,0,613.78,556.37Z" transform="translate(-141.26)"/><path class="cls-36" d="M656.86,543.35l-18.2,19.75.45-16.19a.24.24,0,0,1,.29-.19l8.18,3.75.61-.69-9.09-4.17a.74.74,0,0,0-.92.59l-.83,18.62a.57.57,0,0,0,.89.61l18.36-20.23-.17,8.2c0,.16,0,.29-.29.19L652.7,552l-.56.72,4.24,1.93a.74.74,0,0,0,.92-.59l.45-10.09A.57.57,0,0,0,656.86,543.35Z" transform="translate(-141.26)"/><path class="cls-36" d="M700,530.32l-18.2,19.75.45-16.19a.24.24,0,0,1,.29-.19l8.18,3.75.61-.69-9.09-4.17a.74.74,0,0,0-.92.59l-.83,18.62a.57.57,0,0,0,.89.61l18.36-20.23-.17,8.2c0,.16,0,.29-.29.19l-3.43-1.6-.56.72,4.24,1.93a.74.74,0,0,0,.92-.59l.45-10.09A.57.57,0,0,0,700,530.32Z" transform="translate(-141.26)"/><path class="cls-36" d="M743,517.3l-18.2,19.75.45-16.19a.24.24,0,0,1,.29-.19l8.18,3.75.61-.69-9.09-4.17a.74.74,0,0,0-.92.59l-.83,18.62a.57.57,0,0,0,.89.61l18.36-20.23-.17,8.2c0,.16,0,.29-.29.19l-3.43-1.6-.56.72,4.24,1.93a.74.74,0,0,0,.92-.59l.45-10.09A.57.57,0,0,0,743,517.3Z" transform="translate(-141.26)"/><path class="cls-36" d="M786.12,504.28,767.92,524l.45-16.19a.24.24,0,0,1,.29-.19l8.18,3.75.61-.69-9.09-4.17a.74.74,0,0,0-.92.59l-.83,18.62a.57.57,0,0,0,.89.61l18.36-20.23-.17,8.2c0,.16,0,.29-.29.19l-3.43-1.6-.56.72,4.24,1.93a.74.74,0,0,0,.92-.59l.45-10.09A.57.57,0,0,0,786.12,504.28Z" transform="translate(-141.26)"/><path class="cls-36" d="M373,659.39l-18.2,19.75.45-16.19a.24.24,0,0,1,.29-.19l8.18,3.75.61-.69-9.09-4.17a.74.74,0,0,0-.92.59l-.83,18.62a.57.57,0,0,0,.89.61l18.36-20.23-.17,8.2c0,.16,0,.29-.29.19l-3.43-1.6-.56.72,4.24,1.93a.74.74,0,0,0,.92-.59l.45-10.09A.57.57,0,0,0,373,659.39Z" transform="translate(-141.26)"/><path class="cls-36" d="M416.09,646.37l-18.2,19.75.45-16.19a.24.24,0,0,1,.29-.19l8.18,3.75.61-.69-9.09-4.17a.74.74,0,0,0-.92.59l-.83,18.62a.57.57,0,0,0,.89.61l18.36-20.23-.17,8.2c0,.16,0,.29-.29.19l-3.43-1.6-.56.72,4.24,1.93a.74.74,0,0,0,.92-.59L417,647A.57.57,0,0,0,416.09,646.37Z" transform="translate(-141.26)"/><path class="cls-36" d="M459.18,633.35,441,653.1l.45-16.19a.24.24,0,0,1,.29-.19l8.18,3.75.61-.69-9.09-4.17a.74.74,0,0,0-.92.59l-.83,18.62a.57.57,0,0,0,.89.61L458.9,635.2l-.17,8.2c0,.16,0,.29-.29.19L455,642l-.56.72,4.24,1.93a.74.74,0,0,0,.92-.59l.45-10.09A.57.57,0,0,0,459.18,633.35Z" transform="translate(-141.26)"/><path class="cls-36" d="M502.26,620.33l-18.2,19.75.45-16.19a.24.24,0,0,1,.29-.19l8.18,3.75.61-.69-9.09-4.17a.74.74,0,0,0-.92.59l-.83,18.62a.57.57,0,0,0,.89.61L502,622.18l-.17,8.2c0,.16,0,.29-.29.19L498.1,629l-.56.72,4.24,1.93a.74.74,0,0,0,.92-.59l.45-10.09A.57.57,0,0,0,502.26,620.33Z" transform="translate(-141.26)"/><path class="cls-36" d="M545.35,607.31l-18.2,19.75.45-16.19a.24.24,0,0,1,.29-.19l8.18,3.75.61-.69-9.09-4.17a.74.74,0,0,0-.92.59l-.83,18.62a.57.57,0,0,0,.89.61l18.36-20.23-.17,8.2c0,.16,0,.29-.29.19l-3.43-1.6-.56.72,4.24,1.93a.74.74,0,0,0,.92-.59l.45-10.09A.57.57,0,0,0,545.35,607.31Z" transform="translate(-141.26)"/><path class="cls-36" d="M588.44,594.29,570.24,614l.45-16.19a.24.24,0,0,1,.29-.19l8.18,3.75.61-.69-9.09-4.17a.74.74,0,0,0-.92.59l-.83,18.62a.57.57,0,0,0,.89.61l18.36-20.23-.17,8.2c0,.16,0,.29-.29.19l-3.43-1.6-.56.72,4.24,1.93a.74.74,0,0,0,.92-.59l.45-10.09A.57.57,0,0,0,588.44,594.29Z" transform="translate(-141.26)"/><path class="cls-36" d="M631.52,581.27,613.32,601l.45-16.19a.24.24,0,0,1,.29-.19l8.18,3.75.61-.69-9.09-4.17a.74.74,0,0,0-.92.59L612,602.75a.57.57,0,0,0,.89.61l18.36-20.23-.17,8.2c0,.16,0,.29-.29.19l-3.43-1.6-.56.72,4.24,1.93A.74.74,0,0,0,632,592l.45-10.09A.57.57,0,0,0,631.52,581.27Z" transform="translate(-141.26)"/><path class="cls-36" d="M674.61,568.25,656.41,588l.45-16.19a.24.24,0,0,1,.29-.19l8.18,3.75.61-.69-9.09-4.17a.74.74,0,0,0-.92.59l-.83,18.62a.57.57,0,0,0,.89.61l18.36-20.23-.17,8.2c0,.16,0,.29-.29.19l-3.43-1.6-.56.72,4.24,1.93a.74.74,0,0,0,.92-.59l.45-10.09A.57.57,0,0,0,674.61,568.25Z" transform="translate(-141.26)"/><path class="cls-36" d="M717.7,555.23,699.49,575l.45-16.19a.24.24,0,0,1,.29-.19l8.18,3.75.61-.69-9.09-4.17a.74.74,0,0,0-.92.59l-.83,18.62a.57.57,0,0,0,.89.61l18.36-20.23-.17,8.2c0,.16,0,.29-.29.19l-3.43-1.6-.56.72,4.24,1.93a.74.74,0,0,0,.92-.59l.45-10.09A.57.57,0,0,0,717.7,555.23Z" transform="translate(-141.26)"/><path class="cls-36" d="M760.78,542.21,742.58,562l.45-16.19a.24.24,0,0,1,.29-.19l8.18,3.75.61-.69L743,544.47a.74.74,0,0,0-.92.59l-.83,18.62a.57.57,0,0,0,.89.61l18.36-20.23-.17,8.2c0,.16,0,.29-.29.19l-3.43-1.6-.56.72,4.24,1.93a.74.74,0,0,0,.92-.59l.45-10.09A.57.57,0,0,0,760.78,542.21Z" transform="translate(-141.26)"/><path class="cls-36" d="M803.87,529.19l-18.2,19.75.45-16.19a.24.24,0,0,1,.29-.19l8.18,3.75.61-.69-9.09-4.17a.74.74,0,0,0-.92.59l-.83,18.62a.57.57,0,0,0,.89.61L803.6,531l-.17,8.2c0,.16,0,.29-.29.19l-3.43-1.6-.56.72,4.24,1.93a.74.74,0,0,0,.92-.59l.45-10.09A.57.57,0,0,0,803.87,529.19Z" transform="translate(-141.26)"/><path class="cls-36" d="M372,689.9l-18.2,19.75.45-16.19a.24.24,0,0,1,.29-.19l8.18,3.75.61-.69-9.09-4.17a.74.74,0,0,0-.92.59l-.83,18.62a.57.57,0,0,0,.89.61l18.36-20.23-.17,8.2c0,.16,0,.29-.29.19l-3.43-1.6-.56.72,4.24,1.93a.74.74,0,0,0,.92-.59l.45-10.09A.57.57,0,0,0,372,689.9Z" transform="translate(-141.26)"/><path class="cls-36" d="M415.09,676.88l-18.2,19.75.45-16.19a.24.24,0,0,1,.29-.19l8.18,3.75.61-.69-9.09-4.17a.74.74,0,0,0-.92.59l-.83,18.62a.57.57,0,0,0,.89.61l18.36-20.23-.17,8.2c0,.16,0,.29-.29.19l-3.43-1.6-.56.72,4.24,1.93a.74.74,0,0,0,.92-.59l.45-10.09A.57.57,0,0,0,415.09,676.88Z" transform="translate(-141.26)"/><path class="cls-36" d="M458.18,663.86,440,683.61l.45-16.19a.24.24,0,0,1,.29-.19L448.9,671l.61-.69-9.09-4.17a.74.74,0,0,0-.92.59l-.83,18.62a.57.57,0,0,0,.89.61l18.36-20.23-.17,8.2c0,.16,0,.29-.29.19L454,672.5l-.56.72,4.24,1.93a.74.74,0,0,0,.92-.59l.45-10.09A.57.57,0,0,0,458.18,663.86Z" transform="translate(-141.26)"/><path class="cls-36" d="M501.26,650.84l-18.2,19.75.45-16.19a.24.24,0,0,1,.29-.19L492,658l.61-.69-9.09-4.17a.74.74,0,0,0-.92.59l-.83,18.62a.57.57,0,0,0,.89.61L501,652.69l-.17,8.2c0,.16,0,.29-.29.19l-3.43-1.6-.56.72,4.24,1.93a.74.74,0,0,0,.92-.59l.45-10.09A.57.57,0,0,0,501.26,650.84Z" transform="translate(-141.26)"/><path class="cls-36" d="M544.35,637.82l-18.2,19.75.45-16.19a.24.24,0,0,1,.29-.19l8.18,3.75.61-.69-9.09-4.17a.74.74,0,0,0-.92.59l-.83,18.62a.57.57,0,0,0,.89.61l18.36-20.23-.17,8.2c0,.16,0,.29-.29.19l-3.43-1.6-.56.72,4.24,1.93a.74.74,0,0,0,.92-.59l.45-10.09A.57.57,0,0,0,544.35,637.82Z" transform="translate(-141.26)"/><path class="cls-36" d="M587.44,624.8l-18.2,19.75.45-16.19a.24.24,0,0,1,.29-.19l8.18,3.75.61-.69-9.09-4.17a.74.74,0,0,0-.92.59l-.83,18.62a.57.57,0,0,0,.89.61l18.36-20.23-.17,8.2c0,.16,0,.29-.29.19l-3.43-1.6-.56.72,4.24,1.93a.74.74,0,0,0,.92-.59l.45-10.09A.57.57,0,0,0,587.44,624.8Z" transform="translate(-141.26)"/><path class="cls-36" d="M630.52,611.78l-18.2,19.75.45-16.19a.24.24,0,0,1,.29-.19l8.18,3.75.61-.69L612.76,614a.74.74,0,0,0-.92.59L611,633.26a.57.57,0,0,0,.89.61l18.36-20.23-.17,8.2c0,.16,0,.29-.29.19l-3.43-1.6-.56.72,4.24,1.93a.74.74,0,0,0,.92-.59l.45-10.09A.57.57,0,0,0,630.52,611.78Z" transform="translate(-141.26)"/><path class="cls-36" d="M673.61,598.76l-18.2,19.75.45-16.19a.24.24,0,0,1,.29-.19l8.18,3.75.61-.69L655.85,601a.74.74,0,0,0-.92.59l-.83,18.62a.57.57,0,0,0,.89.61l18.36-20.23-.17,8.2c0,.16,0,.29-.29.19l-3.43-1.6-.56.72,4.24,1.93a.74.74,0,0,0,.92-.59l.45-10.09A.57.57,0,0,0,673.61,598.76Z" transform="translate(-141.26)"/><path class="cls-36" d="M716.7,585.74l-18.2,19.75.45-16.19a.24.24,0,0,1,.29-.19l8.18,3.75.61-.69L698.93,588a.74.74,0,0,0-.92.59l-.83,18.62a.57.57,0,0,0,.89.61l18.36-20.23-.17,8.2c0,.16,0,.29-.29.19l-3.43-1.6-.56.72,4.24,1.93a.74.74,0,0,0,.92-.59l.45-10.09A.57.57,0,0,0,716.7,585.74Z" transform="translate(-141.26)"/><path class="cls-36" d="M759.78,572.72l-18.2,19.75.45-16.19a.24.24,0,0,1,.29-.19l8.18,3.75.61-.69L742,575a.74.74,0,0,0-.92.59l-.83,18.62a.57.57,0,0,0,.89.61l18.36-20.23-.17,8.2c0,.16,0,.29-.29.19l-3.43-1.6-.56.72L759.3,584a.74.74,0,0,0,.92-.59l.45-10.09A.57.57,0,0,0,759.78,572.72Z" transform="translate(-141.26)"/><path class="cls-36" d="M802.87,559.7l-18.2,19.75.45-16.19a.24.24,0,0,1,.29-.19l8.18,3.75.61-.69L785.11,562a.74.74,0,0,0-.92.59l-.83,18.62a.57.57,0,0,0,.89.61l18.36-20.23-.17,8.2c0,.16,0,.29-.29.19l-3.43-1.6-.56.72,4.24,1.93a.74.74,0,0,0,.92-.59l.45-10.09A.57.57,0,0,0,802.87,559.7Z" transform="translate(-141.26)"/><path class="cls-36" d="M389.75,714.81l-18.2,19.75.45-16.19a.24.24,0,0,1,.29-.19l8.18,3.75.61-.69L372,717.07a.74.74,0,0,0-.92.59l-.83,18.62a.57.57,0,0,0,.89.61l18.36-20.23-.17,8.2c0,.16,0,.29-.29.19l-3.43-1.6-.56.72,4.24,1.93a.74.74,0,0,0,.92-.59l.45-10.09A.57.57,0,0,0,389.75,714.81Z" transform="translate(-141.26)"/><path class="cls-36" d="M432.83,701.79l-18.2,19.75.45-16.19a.24.24,0,0,1,.29-.19l8.18,3.75.61-.69-9.09-4.17a.74.74,0,0,0-.92.59l-.83,18.62a.57.57,0,0,0,.89.61l18.36-20.23-.17,8.2c0,.16,0,.29-.29.19l-3.43-1.6-.56.72,4.24,1.93a.74.74,0,0,0,.92-.59l.45-10.09A.57.57,0,0,0,432.83,701.79Z" transform="translate(-141.26)"/><path class="cls-36" d="M475.92,688.77l-18.2,19.75.45-16.19a.24.24,0,0,1,.29-.19l8.18,3.75.61-.69L458.16,691a.74.74,0,0,0-.92.59l-.83,18.62a.57.57,0,0,0,.89.61l18.36-20.23-.17,8.2c0,.16,0,.29-.29.19l-3.43-1.6-.56.72,4.24,1.93a.74.74,0,0,0,.92-.59l.45-10.09A.57.57,0,0,0,475.92,688.77Z" transform="translate(-141.26)"/><path class="cls-36" d="M519,675.75l-18.2,19.75.45-16.19a.24.24,0,0,1,.29-.19l8.18,3.75.61-.69L501.24,678a.74.74,0,0,0-.92.59l-.83,18.62a.57.57,0,0,0,.89.61l18.36-20.23-.17,8.2c0,.16,0,.29-.29.19l-3.43-1.6-.56.72,4.24,1.93a.74.74,0,0,0,.92-.59l.45-10.09A.57.57,0,0,0,519,675.75Z" transform="translate(-141.26)"/><path class="cls-36" d="M562.09,662.73l-18.2,19.75.45-16.19a.24.24,0,0,1,.29-.19l8.18,3.75.61-.69L544.33,665a.74.74,0,0,0-.92.59l-.83,18.62a.57.57,0,0,0,.89.61l18.36-20.23-.17,8.2c0,.16,0,.29-.29.19l-3.43-1.6-.56.72,4.24,1.93a.74.74,0,0,0,.92-.59l.45-10.09A.57.57,0,0,0,562.09,662.73Z" transform="translate(-141.26)"/><path class="cls-36" d="M605.18,649.71,587,669.46l.45-16.19a.24.24,0,0,1,.29-.19l8.18,3.75.61-.69L587.42,652a.74.74,0,0,0-.92.59l-.83,18.62a.57.57,0,0,0,.89.61l18.36-20.23-.17,8.2c0,.16,0,.29-.29.19l-3.43-1.6-.56.72L604.7,661a.74.74,0,0,0,.92-.59l.45-10.09A.57.57,0,0,0,605.18,649.71Z" transform="translate(-141.26)"/><path class="cls-36" d="M648.27,636.69l-18.2,19.75.45-16.19a.24.24,0,0,1,.29-.19l8.18,3.75.61-.69L630.5,639a.74.74,0,0,0-.92.59l-.83,18.62a.57.57,0,0,0,.89.61L648,638.54l-.17,8.2c0,.16,0,.29-.29.19l-3.43-1.6-.56.72,4.24,1.93a.74.74,0,0,0,.92-.59l.45-10.09A.57.57,0,0,0,648.27,636.69Z" transform="translate(-141.26)"/><path class="cls-36" d="M691.35,623.67l-18.2,19.75.45-16.19a.24.24,0,0,1,.29-.19l8.18,3.75.61-.69-9.09-4.17a.74.74,0,0,0-.92.59l-.83,18.62a.57.57,0,0,0,.89.61l18.36-20.23-.17,8.2c0,.16,0,.29-.29.19l-3.43-1.6-.56.72,4.24,1.93a.74.74,0,0,0,.92-.59l.45-10.09A.57.57,0,0,0,691.35,623.67Z" transform="translate(-141.26)"/><path class="cls-36" d="M734.44,610.65l-18.2,19.75.45-16.19A.24.24,0,0,1,717,614l8.18,3.75.61-.69-9.09-4.17a.74.74,0,0,0-.92.59l-.83,18.62a.57.57,0,0,0,.89.61l18.36-20.23-.17,8.2c0,.16,0,.29-.29.19l-3.43-1.6-.56.72,4.24,1.93a.74.74,0,0,0,.92-.59l.45-10.09A.57.57,0,0,0,734.44,610.65Z" transform="translate(-141.26)"/><path class="cls-36" d="M777.53,597.63l-18.2,19.75.45-16.19a.24.24,0,0,1,.29-.19l8.18,3.75.61-.69-9.09-4.17a.74.74,0,0,0-.92.59L758,619.11a.57.57,0,0,0,.89.61l18.36-20.23-.17,8.2c0,.16,0,.29-.29.19l-3.43-1.6-.56.72,4.24,1.93a.74.74,0,0,0,.92-.59l.45-10.09A.57.57,0,0,0,777.53,597.63Z" transform="translate(-141.26)"/><path class="cls-36" d="M820.61,584.61l-18.2,19.75.45-16.19a.24.24,0,0,1,.29-.19l8.18,3.75.61-.69-9.09-4.17a.74.74,0,0,0-.92.59l-.83,18.62a.57.57,0,0,0,.89.61l18.36-20.23-.17,8.2c0,.16,0,.29-.29.19l-3.43-1.6-.56.72,4.24,1.93a.74.74,0,0,0,.92-.59l.45-10.09A.57.57,0,0,0,820.61,584.61Z" transform="translate(-141.26)"/><path class="cls-36" d="M389.76,748.66l-18.2,19.75.45-16.19a.24.24,0,0,1,.29-.19l8.18,3.75.61-.69L372,750.93a.74.74,0,0,0-.92.59l-.83,18.62a.57.57,0,0,0,.89.61l18.36-20.23-.17,8.2c0,.16,0,.29-.29.19l-3.43-1.6L385,758l4.24,1.93a.74.74,0,0,0,.92-.59l.45-10.09A.57.57,0,0,0,389.76,748.66Z" transform="translate(-141.26)"/><path class="cls-36" d="M432.85,735.64l-18.2,19.75.45-16.19a.24.24,0,0,1,.29-.19l8.18,3.75.61-.69-9.09-4.17a.74.74,0,0,0-.92.59l-.83,18.62a.57.57,0,0,0,.89.61l18.36-20.23-.17,8.2c0,.16,0,.29-.29.19l-3.43-1.6-.56.72,4.24,1.93a.74.74,0,0,0,.92-.59l.45-10.09A.57.57,0,0,0,432.85,735.64Z" transform="translate(-141.26)"/><path class="cls-36" d="M475.93,722.62l-18.2,19.75.45-16.19a.24.24,0,0,1,.29-.19l8.18,3.75.61-.69-9.09-4.17a.74.74,0,0,0-.92.59l-.83,18.62a.57.57,0,0,0,.89.61l18.36-20.23-.17,8.2c0,.16,0,.29-.29.19l-3.43-1.6-.56.72,4.24,1.93a.74.74,0,0,0,.92-.59l.45-10.09A.57.57,0,0,0,475.93,722.62Z" transform="translate(-141.26)"/><path class="cls-36" d="M519,709.6l-18.2,19.75.45-16.19a.24.24,0,0,1,.29-.19l8.18,3.75.61-.69-9.09-4.17a.74.74,0,0,0-.92.59l-.83,18.62a.57.57,0,0,0,.89.61l18.36-20.23-.17,8.2c0,.16,0,.29-.29.19l-3.43-1.6-.56.72,4.24,1.93a.74.74,0,0,0,.92-.59l.45-10.09A.57.57,0,0,0,519,709.6Z" transform="translate(-141.26)"/><path class="cls-36" d="M562.11,696.58l-18.2,19.75.45-16.19a.24.24,0,0,1,.29-.19l8.18,3.75.61-.69-9.09-4.17a.74.74,0,0,0-.92.59l-.83,18.62a.57.57,0,0,0,.89.61l18.36-20.23-.17,8.2c0,.16,0,.29-.29.19l-3.43-1.6-.56.72,4.24,1.93a.74.74,0,0,0,.92-.59l.45-10.09A.57.57,0,0,0,562.11,696.58Z" transform="translate(-141.26)"/><path class="cls-36" d="M605.19,683.56,587,703.31l.45-16.19a.24.24,0,0,1,.29-.19l8.18,3.75.61-.69-9.09-4.17a.74.74,0,0,0-.92.59L585.67,705a.57.57,0,0,0,.89.61l18.36-20.23-.17,8.2c0,.16,0,.29-.29.19L601,692.2l-.56.72,4.24,1.93a.74.74,0,0,0,.92-.59l.45-10.09A.57.57,0,0,0,605.19,683.56Z" transform="translate(-141.26)"/><path class="cls-36" d="M648.28,670.54l-18.2,19.75.45-16.19a.24.24,0,0,1,.29-.19l8.18,3.75.61-.69-9.09-4.17a.74.74,0,0,0-.92.59L628.76,692a.57.57,0,0,0,.89.61L648,672.39l-.17,8.2c0,.16,0,.29-.29.19l-3.43-1.6-.56.72,4.24,1.93a.74.74,0,0,0,.92-.59l.45-10.09A.57.57,0,0,0,648.28,670.54Z" transform="translate(-141.26)"/><path class="cls-36" d="M691.37,657.52l-18.2,19.75.45-16.19a.24.24,0,0,1,.29-.19l8.18,3.75.61-.69-9.09-4.17a.74.74,0,0,0-.92.59L671.85,679a.57.57,0,0,0,.89.61l18.36-20.23-.17,8.2c0,.16,0,.29-.29.19l-3.43-1.6-.56.72,4.24,1.93a.74.74,0,0,0,.92-.59l.45-10.09A.57.57,0,0,0,691.37,657.52Z" transform="translate(-141.26)"/><path class="cls-36" d="M734.45,644.5l-18.2,19.75.45-16.19a.24.24,0,0,1,.29-.19l8.18,3.75.61-.69-9.09-4.17a.74.74,0,0,0-.92.59L714.93,666a.57.57,0,0,0,.89.61l18.36-20.23-.17,8.2c0,.16,0,.29-.29.19l-3.43-1.6-.56.72,4.24,1.93a.74.74,0,0,0,.92-.59l.45-10.09A.57.57,0,0,0,734.45,644.5Z" transform="translate(-141.26)"/><path class="cls-36" d="M777.54,631.48l-18.2,19.75.45-16.19a.24.24,0,0,1,.29-.19l8.18,3.75.61-.69-9.09-4.17a.74.74,0,0,0-.92.59L758,653a.57.57,0,0,0,.89.61l18.36-20.23-.17,8.2c0,.16,0,.29-.29.19l-3.43-1.6-.56.72,4.24,1.93a.74.74,0,0,0,.92-.59l.45-10.09A.57.57,0,0,0,777.54,631.48Z" transform="translate(-141.26)"/><path class="cls-36" d="M820.63,618.46l-18.2,19.75.45-16.19a.24.24,0,0,1,.29-.19l8.18,3.75.61-.69-9.09-4.17a.74.74,0,0,0-.92.59l-.83,18.62a.57.57,0,0,0,.89.61l18.36-20.23-.17,8.2c0,.16,0,.29-.29.19l-3.43-1.6-.56.72,4.24,1.93a.74.74,0,0,0,.92-.59l.45-10.09A.57.57,0,0,0,820.63,618.46Z" transform="translate(-141.26)"/><path class="cls-36" d="M407.5,773.57l-18.2,19.75.45-16.19a.24.24,0,0,1,.29-.19l8.18,3.75.61-.69-9.09-4.17a.74.74,0,0,0-.92.59L388,795a.57.57,0,0,0,.89.61l18.36-20.23-.17,8.2c0,.16,0,.29-.29.19l-3.43-1.6-.56.72,4.24,1.93a.74.74,0,0,0,.92-.59l.45-10.09A.57.57,0,0,0,407.5,773.57Z" transform="translate(-141.26)"/><path class="cls-36" d="M450.59,760.55l-18.2,19.75.45-16.19a.24.24,0,0,1,.29-.19l8.18,3.75.61-.69-9.09-4.17a.74.74,0,0,0-.92.59L431.07,782a.57.57,0,0,0,.89.61l18.36-20.23-.17,8.2c0,.16,0,.29-.29.19l-3.43-1.6-.56.72,4.24,1.93a.74.74,0,0,0,.92-.59l.45-10.09A.57.57,0,0,0,450.59,760.55Z" transform="translate(-141.26)"/><path class="cls-36" d="M493.68,747.53l-18.2,19.75.45-16.19a.24.24,0,0,1,.29-.19l8.18,3.75L485,754l-9.09-4.17a.74.74,0,0,0-.92.59L474.16,769a.57.57,0,0,0,.89.61l18.36-20.23-.17,8.2c0,.16,0,.29-.29.19l-3.43-1.6-.56.72,4.24,1.93a.74.74,0,0,0,.92-.59l.45-10.09A.57.57,0,0,0,493.68,747.53Z" transform="translate(-141.26)"/><path class="cls-36" d="M536.76,734.51l-18.2,19.75.45-16.19a.24.24,0,0,1,.29-.19l8.18,3.75.61-.69L519,736.77a.74.74,0,0,0-.92.59L517.24,756a.57.57,0,0,0,.89.61l18.36-20.23-.17,8.2c0,.16,0,.29-.29.19l-3.43-1.6-.56.72,4.24,1.93a.74.74,0,0,0,.92-.59l.45-10.09A.57.57,0,0,0,536.76,734.51Z" transform="translate(-141.26)"/><path class="cls-36" d="M579.85,721.49l-18.2,19.75L562.1,725a.24.24,0,0,1,.29-.19l8.18,3.75.61-.69-9.09-4.17a.74.74,0,0,0-.92.59L560.33,743a.57.57,0,0,0,.89.61l18.36-20.23-.17,8.2c0,.16,0,.29-.29.19l-3.43-1.6-.56.72,4.24,1.93a.74.74,0,0,0,.92-.59l.45-10.09A.57.57,0,0,0,579.85,721.49Z" transform="translate(-141.26)"/><path class="cls-36" d="M622.94,708.47l-18.2,19.75.45-16.19a.24.24,0,0,1,.29-.19l8.18,3.75.61-.69-9.09-4.17a.74.74,0,0,0-.92.59l-.83,18.62a.57.57,0,0,0,.89.61l18.36-20.23-.17,8.2c0,.16,0,.29-.29.19l-3.43-1.6-.56.72,4.24,1.93a.74.74,0,0,0,.92-.59l.45-10.09A.57.57,0,0,0,622.94,708.47Z" transform="translate(-141.26)"/><path class="cls-36" d="M666,695.45l-18.2,19.75.45-16.19a.24.24,0,0,1,.29-.19l8.18,3.75.61-.69-9.09-4.17a.74.74,0,0,0-.92.59l-.83,18.62a.57.57,0,0,0,.89.61l18.36-20.23-.17,8.2c0,.16,0,.29-.29.19l-3.43-1.6-.56.72,4.24,1.93a.74.74,0,0,0,.92-.59l.45-10.09A.57.57,0,0,0,666,695.45Z" transform="translate(-141.26)"/><path class="cls-36" d="M709.11,682.43l-18.2,19.75.45-16.19a.24.24,0,0,1,.29-.19l8.18,3.75.61-.69-9.09-4.17a.74.74,0,0,0-.92.59l-.83,18.62a.57.57,0,0,0,.89.61l18.36-20.23-.17,8.2c0,.16,0,.29-.29.19l-3.43-1.6-.56.72,4.24,1.93a.74.74,0,0,0,.92-.59L710,683A.57.57,0,0,0,709.11,682.43Z" transform="translate(-141.26)"/><path class="cls-36" d="M752.2,669.41,734,689.16l.45-16.19a.24.24,0,0,1,.29-.19l8.18,3.75.61-.69-9.09-4.17a.74.74,0,0,0-.92.59l-.83,18.62a.57.57,0,0,0,.89.61l18.36-20.23-.17,8.2c0,.16,0,.29-.29.19L748,678l-.56.72,4.24,1.93a.74.74,0,0,0,.92-.59l.45-10.09A.57.57,0,0,0,752.2,669.41Z" transform="translate(-141.26)"/><path class="cls-36" d="M795.28,656.38l-18.2,19.75.45-16.19a.24.24,0,0,1,.29-.19l8.18,3.75.61-.69-9.09-4.17a.74.74,0,0,0-.92.59l-.83,18.62a.57.57,0,0,0,.89.61L795,658.24l-.17,8.2c0,.16,0,.29-.29.19l-3.43-1.6-.56.72,4.24,1.93a.74.74,0,0,0,.92-.59l.45-10.09A.57.57,0,0,0,795.28,656.38Z" transform="translate(-141.26)"/><path class="cls-36" d="M838.37,643.36l-18.2,19.75.45-16.19a.24.24,0,0,1,.29-.19l8.18,3.75.61-.69-9.09-4.17a.74.74,0,0,0-.92.59l-.83,18.62a.57.57,0,0,0,.89.61l18.36-20.23-.17,8.2c0,.16,0,.29-.29.19l-3.43-1.6-.56.72,4.24,1.93a.74.74,0,0,0,.92-.59l.45-10.09A.57.57,0,0,0,838.37,643.36Z" transform="translate(-141.26)"/><path class="cls-36" d="M407.52,807.42l-18.2,19.75.45-16.19a.24.24,0,0,1,.29-.19l8.18,3.75.61-.69-9.09-4.17a.74.74,0,0,0-.92.59L388,828.9a.57.57,0,0,0,.89.61l18.36-20.23-.17,8.2c0,.16,0,.29-.29.19l-3.43-1.6-.56.72,4.24,1.93a.74.74,0,0,0,.92-.59L408.4,808A.57.57,0,0,0,407.52,807.42Z" transform="translate(-141.26)"/><path class="cls-36" d="M450.6,794.4l-18.2,19.75.45-16.19a.24.24,0,0,1,.29-.19l8.18,3.75.61-.69-9.09-4.17a.74.74,0,0,0-.92.59l-.83,18.62a.57.57,0,0,0,.89.61l18.36-20.23-.17,8.2c0,.16,0,.29-.29.19l-3.43-1.6-.56.72,4.24,1.93a.74.74,0,0,0,.92-.59l.45-10.09A.57.57,0,0,0,450.6,794.4Z" transform="translate(-141.26)"/><path class="cls-36" d="M493.69,781.38l-18.2,19.75.45-16.19a.24.24,0,0,1,.29-.19l8.18,3.75.61-.69-9.09-4.17a.74.74,0,0,0-.92.59l-.83,18.62a.57.57,0,0,0,.89.61l18.36-20.23-.17,8.2c0,.16,0,.29-.29.19l-3.43-1.6-.56.72,4.24,1.93a.74.74,0,0,0,.92-.59l.45-10.09A.57.57,0,0,0,493.69,781.38Z" transform="translate(-141.26)"/><path class="cls-36" d="M536.78,768.36l-18.2,19.75.45-16.19a.24.24,0,0,1,.29-.19l8.18,3.75.61-.69L519,770.63a.74.74,0,0,0-.92.59l-.83,18.62a.57.57,0,0,0,.89.61l18.36-20.23-.17,8.2c0,.16,0,.29-.29.19l-3.43-1.6-.56.72,4.24,1.93a.74.74,0,0,0,.92-.59l.45-10.09A.57.57,0,0,0,536.78,768.36Z" transform="translate(-141.26)"/><path class="cls-36" d="M579.86,755.34l-18.2,19.75.45-16.19a.24.24,0,0,1,.29-.19l8.18,3.75.61-.69-9.09-4.17a.74.74,0,0,0-.92.59l-.83,18.62a.57.57,0,0,0,.89.61l18.36-20.23-.17,8.2c0,.16,0,.29-.29.19L575.7,764l-.56.72,4.24,1.93a.74.74,0,0,0,.92-.59l.45-10.09A.57.57,0,0,0,579.86,755.34Z" transform="translate(-141.26)"/><path class="cls-36" d="M623,742.32l-18.2,19.75.45-16.19a.24.24,0,0,1,.29-.19l8.18,3.75.61-.69-9.09-4.17a.74.74,0,0,0-.92.59l-.83,18.62a.57.57,0,0,0,.89.61l18.36-20.23-.17,8.2c0,.16,0,.29-.29.19l-3.43-1.6-.56.72,4.24,1.93a.74.74,0,0,0,.92-.59l.45-10.09A.57.57,0,0,0,623,742.32Z" transform="translate(-141.26)"/><path class="cls-36" d="M666,729.3,647.84,749l.45-16.19a.24.24,0,0,1,.29-.19l8.18,3.75.61-.69-9.09-4.17a.74.74,0,0,0-.92.59l-.83,18.62a.57.57,0,0,0,.89.61l18.36-20.23-.17,8.2c0,.16,0,.29-.29.19l-3.43-1.6-.56.72,4.24,1.93a.74.74,0,0,0,.92-.59l.45-10.09A.57.57,0,0,0,666,729.3Z" transform="translate(-141.26)"/><path class="cls-36" d="M709.12,716.28,690.92,736l.45-16.19a.24.24,0,0,1,.29-.19l8.18,3.75.61-.69-9.09-4.17a.74.74,0,0,0-.92.59l-.83,18.62a.57.57,0,0,0,.89.61l18.36-20.23-.17,8.2c0,.16,0,.29-.29.19l-3.43-1.6-.56.72,4.24,1.93a.74.74,0,0,0,.92-.59l.45-10.09A.57.57,0,0,0,709.12,716.28Z" transform="translate(-141.26)"/><path class="cls-36" d="M752.21,703.26,734,723l.45-16.19a.24.24,0,0,1,.29-.19l8.18,3.75.61-.69-9.09-4.17a.74.74,0,0,0-.92.59l-.83,18.62a.57.57,0,0,0,.89.61l18.36-20.23-.17,8.2c0,.16,0,.29-.29.19l-3.43-1.6-.56.72,4.24,1.93a.74.74,0,0,0,.92-.59l.45-10.09A.57.57,0,0,0,752.21,703.26Z" transform="translate(-141.26)"/><path class="cls-36" d="M795.3,690.24,777.1,710l.45-16.19a.24.24,0,0,1,.29-.19l8.18,3.75.61-.69-9.09-4.17a.74.74,0,0,0-.92.59l-.83,18.62a.57.57,0,0,0,.89.61L795,692.09l-.17,8.2c0,.16,0,.29-.29.19l-3.43-1.6-.56.72,4.24,1.93a.74.74,0,0,0,.92-.59l.45-10.09A.57.57,0,0,0,795.3,690.24Z" transform="translate(-141.26)"/><path class="cls-36" d="M838.38,677.22,820.18,697l.45-16.19a.24.24,0,0,1,.29-.19l8.18,3.75.61-.69-9.09-4.17a.74.74,0,0,0-.92.59l-.83,18.62a.57.57,0,0,0,.89.61l18.36-20.23-.17,8.2c0,.16,0,.29-.29.19l-3.43-1.6-.56.72,4.24,1.93a.74.74,0,0,0,.92-.59l.45-10.09A.57.57,0,0,0,838.38,677.22Z" transform="translate(-141.26)"/><path class="cls-36" d="M425.26,832.33l-18.2,19.75.45-16.19a.24.24,0,0,1,.29-.19l8.18,3.75.61-.69-9.09-4.17a.74.74,0,0,0-.92.59l-.83,18.62a.57.57,0,0,0,.89.61L425,834.18l-.17,8.2c0,.16,0,.29-.29.19L421.1,841l-.56.72,4.24,1.93a.74.74,0,0,0,.92-.59l.45-10.09A.57.57,0,0,0,425.26,832.33Z" transform="translate(-141.26)"/><path class="cls-36" d="M468.35,819.31l-18.2,19.75.45-16.19a.24.24,0,0,1,.29-.19l8.18,3.75.61-.69-9.09-4.17a.74.74,0,0,0-.92.59l-.83,18.62a.57.57,0,0,0,.89.61l18.36-20.23-.17,8.2c0,.16,0,.29-.29.19l-3.43-1.6-.56.72,4.24,1.93a.74.74,0,0,0,.92-.59l.45-10.09A.57.57,0,0,0,468.35,819.31Z" transform="translate(-141.26)"/><path class="cls-36" d="M511.43,806.29,493.23,826l.45-16.19a.24.24,0,0,1,.29-.19l8.18,3.75.61-.69-9.09-4.17a.74.74,0,0,0-.92.59l-.83,18.62a.57.57,0,0,0,.89.61l18.36-20.23-.17,8.2c0,.16,0,.29-.29.19l-3.43-1.6-.56.72,4.24,1.93a.74.74,0,0,0,.92-.59l.45-10.09A.57.57,0,0,0,511.43,806.29Z" transform="translate(-141.26)"/><path class="cls-36" d="M554.52,793.27,536.32,813l.45-16.19a.24.24,0,0,1,.29-.19l8.18,3.75.61-.69-9.09-4.17a.74.74,0,0,0-.92.59L535,814.75a.57.57,0,0,0,.89.61l18.36-20.23-.17,8.2c0,.16,0,.29-.29.19l-3.43-1.6-.56.72,4.24,1.93A.74.74,0,0,0,555,804l.45-10.09A.57.57,0,0,0,554.52,793.27Z" transform="translate(-141.26)"/><path class="cls-36" d="M597.61,780.25,579.41,800l.45-16.19a.24.24,0,0,1,.29-.19l8.18,3.75.61-.69-9.09-4.17a.74.74,0,0,0-.92.59l-.83,18.62a.57.57,0,0,0,.89.61l18.36-20.23-.17,8.2c0,.16,0,.29-.29.19l-3.43-1.6-.56.72,4.24,1.93a.74.74,0,0,0,.92-.59l.45-10.09A.57.57,0,0,0,597.61,780.25Z" transform="translate(-141.26)"/><path class="cls-36" d="M640.69,767.23,622.49,787l.45-16.19a.24.24,0,0,1,.29-.19l8.18,3.75.61-.69-9.09-4.17a.74.74,0,0,0-.92.59l-.83,18.62a.57.57,0,0,0,.89.61l18.36-20.23-.17,8.2c0,.16,0,.29-.29.19l-3.43-1.6-.56.72,4.24,1.93a.74.74,0,0,0,.92-.59l.45-10.09A.57.57,0,0,0,640.69,767.23Z" transform="translate(-141.26)"/><path class="cls-36" d="M683.78,754.21,665.58,774l.45-16.19a.24.24,0,0,1,.29-.19l8.18,3.75.61-.69L666,756.47a.74.74,0,0,0-.92.59l-.83,18.62a.57.57,0,0,0,.89.61l18.36-20.23-.17,8.2c0,.16,0,.29-.29.19l-3.43-1.6-.56.72,4.24,1.93a.74.74,0,0,0,.92-.59l.45-10.09A.57.57,0,0,0,683.78,754.21Z" transform="translate(-141.26)"/><path class="cls-36" d="M726.87,741.18l-18.2,19.75.45-16.19a.24.24,0,0,1,.29-.19l8.18,3.75.61-.69-9.09-4.17a.74.74,0,0,0-.92.59l-.83,18.62a.57.57,0,0,0,.89.61L726.6,743l-.17,8.2c0,.16,0,.29-.29.19l-3.43-1.6-.56.72,4.24,1.93a.74.74,0,0,0,.92-.59l.45-10.09A.57.57,0,0,0,726.87,741.18Z" transform="translate(-141.26)"/><path class="cls-36" d="M770,728.16l-18.2,19.75.45-16.19a.24.24,0,0,1,.29-.19l8.18,3.75.61-.69-9.09-4.17a.74.74,0,0,0-.92.59l-.83,18.62a.57.57,0,0,0,.89.61L769.68,730l-.17,8.2c0,.16,0,.29-.29.19l-3.43-1.6-.56.72,4.24,1.93a.74.74,0,0,0,.92-.59l.45-10.09A.57.57,0,0,0,770,728.16Z" transform="translate(-141.26)"/><path class="cls-36" d="M813,715.14l-18.2,19.75.45-16.19a.24.24,0,0,1,.29-.19l8.18,3.75.61-.69-9.09-4.17a.74.74,0,0,0-.92.59l-.83,18.62a.57.57,0,0,0,.89.61L812.77,717l-.17,8.2c0,.16,0,.29-.29.19l-3.43-1.6-.56.72,4.24,1.93a.74.74,0,0,0,.92-.59l.45-10.09A.57.57,0,0,0,813,715.14Z" transform="translate(-141.26)"/><path class="cls-36" d="M856.13,702.12l-18.2,19.75.45-16.19a.24.24,0,0,1,.29-.19l8.18,3.75.61-.69-9.09-4.17a.74.74,0,0,0-.92.59l-.83,18.62a.57.57,0,0,0,.89.61L855.86,704l-.17,8.2c0,.16,0,.29-.29.19l-3.43-1.6-.56.72,4.24,1.93a.74.74,0,0,0,.92-.59l.45-10.09A.57.57,0,0,0,856.13,702.12Z" transform="translate(-141.26)"/></g></g></g></g></svg>