<svg xmlns="http://www.w3.org/2000/svg" viewBox="0 0 460.08 225.06"><defs><style>.cls-1{fill:#565f65;}.cls-2{fill:#88c3c8;}.cls-3{fill:#343439;stroke:#b2bcc2;stroke-miterlimit:10;}.cls-4{fill:#fff;}</style></defs><title>browse</title><g id="Layer_2" data-name="Layer 2"><g id="Layer_1-2" data-name="Layer 1"><polygon class="cls-1" points="460.08 149.11 281.75 111.67 281.75 119.03 460.08 172.57 460.08 149.11"/><polygon class="cls-1" points="0 147.42 217.94 112.9 217.94 117.35 0 173.8 0 147.42"/><path class="cls-2" d="M284.7,26.18l-.11-1.38c-.32-2.86.64-6,3.29-9.17,2.38-2.81,3.71-4.88,3.71-7.26,0-2.7-1.69-4.51-5-4.56a9.42,9.42,0,0,0-5.35,1.64l-1.27-3.34A13.9,13.9,0,0,1,287.51,0c6.1,0,8.85,3.76,8.85,7.79,0,3.6-2,6.2-4.56,9.22-2.33,2.76-3.18,5.09-3,7.79l.05,1.38Zm-1.17,7.42a3.13,3.13,0,0,1,3.18-3.34,3.09,3.09,0,0,1,3.13,3.34,3.16,3.16,0,1,1-6.31,0Z"/><path class="cls-1" d="M285.5,104.62l-3.17-.59V75.65l-2.85.33v-6.1l9.27-1.69v6.72l-3.25.37Z"/><path class="cls-1" d="M296.24,94.17l-5.76-.41V86.6h5.76Z"/><path class="cls-1" d="M312.07,79.58l-4.83.27V76.28c0-2.57-.71-4.24-2-4.08-1.17.14-1.9,1.75-1.9,3.62v.42a5.46,5.46,0,0,0,1.31,3.87l4,4.16c2.55,2.61,3.9,6.08,3.9,11.9v1.44a17.35,17.35,0,0,1-1.93,8.52,4.76,4.76,0,0,1-5.43,2.7,6.66,6.66,0,0,1-4.91-4.12,17.57,17.57,0,0,1-1.59-7.7V91.78l4.2.2v4.77c0,2.23.79,4.2,2.21,4.38s2.19-1.35,2.19-3.67V97a7.59,7.59,0,0,0-1.7-5.15l-3.29-3.57c-2.4-2.68-3.41-5.7-3.41-10.53V76.36a17.61,17.61,0,0,1,1.6-7.76,6.57,6.57,0,0,1,4.7-4,4.52,4.52,0,0,1,5.22,2.3,15.17,15.17,0,0,1,1.74,7.61Z"/><path class="cls-1" d="M321.93,90.93v20.48l-6-1.11V63.22l6-1.09V82l5.89-.2V61.06l7.15-1.3v54.08l-7.15-1.33V91.12Z"/><path class="cls-1" d="M349.76,116.6,341.14,115V58.64l8.62-1.57Z"/><path class="cls-1" d="M378.15,121.89a61,61,0,0,1-1-10.54l-.26-7.68c-.26-6.77-2.27-9.72-7-9.92l-2-.08V120l-10.6-2V55.7l15.92-2.9c10.82-2,18.54,4.34,18.54,16.34V71.6c0,8.14-3.22,14.58-9.44,17.35,4.7,2,7.48,7.31,8,15.74l.68,11.48.79,8.26ZM367.87,82.33l3.7-.09c4.28-.1,6.75-2.86,6.75-8v-2.6c0-5-2.31-7.24-6.75-6.71l-3.7.44Z"/><path class="cls-1" d="M432.65,132l-19.1-3.56v-68l-15.7,1.81v-14L454.27,38V55.81L432.65,58.3Z"/><path class="cls-1" d="M46.12,72.3,32,71.82V65.19c0-4.77-2.27-8.19-6.66-8.51a6,6,0,0,0-6.66,6.26v.84c0,3.25,1.6,6,4.66,8l12.8,8.36c7.4,4.71,11.09,10.62,11.09,20.56v2.45A24.88,24.88,0,0,1,41.9,118.7c-3.7,4.8-9.27,7.6-16.9,8.44-7.83.87-14.07-.65-18.3-4.67A20,20,0,0,1,0,107V95.6l16.81-.45v9.56c0,4.48,2.88,8,7.85,7.66a7.49,7.49,0,0,0,7.21-7.85v-.93c0-4-1.83-7-5.55-9.28L14.6,87.66C5.11,82.12.88,75.55.88,65.1v-2.9A20,20,0,0,1,7.55,46.6C11.88,42.72,17.74,41.16,25,42c7.63.85,13,3.39,16.29,7.59a22,22,0,0,1,4.83,14Z"/><path class="cls-1" d="M68.74,121.34l-12.68,1.37V46.51L72.62,48.3l9.77,46.18c-.56-6.34-.81-14.92-.81-25.63V49.26l10.94,1.18v68.32l-14.61,1.58-10-46.05c.62,6.64.88,15.56.88,26.68Z"/><path class="cls-1" d="M101,117.85V51.36L125.7,54V65.12l-14.63-1V77l9.39.24v11.3l-9.39.13v16.45L126.3,104v11.07Z"/><path class="cls-1" d="M153.65,112.15l-7.48.81-1.1-9.73-7.06.5L136.85,114l-7.92.86,7.65-59.63,10.38,1.12ZM141.72,72.4l-2.66,22.52,5.12-.2Z"/><path class="cls-1" d="M157.28,111.75V57.44l6.78.73V81l6.38-22.11,6.46.7L170.1,83l7.25,26.61-7,.76-6.25-23.64V111Z"/><path class="cls-1" d="M179.94,109.3V59.88l13.95,1.51v8.42l-8.32-.57v9.64l5.32.14v8.54l-5.32.07V99.95l8.67-.6v8.41Z"/><path class="cls-1" d="M205.92,106.49a61.45,61.45,0,0,1-.37-6.48l-.09-4.82c-.09-4.26-.85-6.06-2.72-6l-.8,0v17.74l-4.82.52V61.74l7,.75c3.87.42,6.31,5.09,6.31,11.94v1.41c0,4.65-1,8.32-3,10,1.55,1.16,2.42,4.16,2.57,9l.21,6.55.24,4.63Zm-4-25,1.51,0c1.64,0,2.54-1.65,2.54-4.84V75.08c0-3.13-.84-4.75-2.54-4.87l-1.51-.11Z"/><path class="cls-1" d="M223.77,78.31l-3.6-.12V74.87c0-2.38-.56-4.06-1.65-4.13s-1.62,1.36-1.62,3.2v.41A6.27,6.27,0,0,0,218,78.23l3.18,4.1c1.89,2.37,2.85,5.39,2.85,10.46V94a20.78,20.78,0,0,1-1.37,7.82c-.95,2.34-2.35,3.59-4.25,3.8s-3.39-.7-4.39-2.76a16.65,16.65,0,0,1-1.56-7.6V89.85l4-.11v4.69c0,2.19.69,4,1.91,3.9s1.79-1.64,1.79-3.8v-.47a7.25,7.25,0,0,0-1.38-4.68l-2.85-3.32c-2.24-2.69-3.22-5.84-3.22-10.86V73.82a16.72,16.72,0,0,1,1.55-7.65c1-2,2.42-2.91,4.19-2.71a4.89,4.89,0,0,1,4.09,3.38,18.26,18.26,0,0,1,1.25,7Z"/><path class="cls-2" d="M281.09,97.27a39.44,39.44,0,0,0-16-7.81l-9.71-2.25-4-.06-.69-.31L240.57,87l-10.2-.15-.46.31-8.14.12-18.33,7.26-37.16,30.18,9.41,13.79,27-13.76,21.7,41.62.56,1.32h31.33l.16-.78,16.3-44.84,25.39,11.35,9.41-13.79Z"/><path class="cls-3" d="M199.65,225c.55-11.8,1.5-16.81,3.28-23.07,3.66-12.87,14.34-21,22.11-34.25h31.21s24.15,22.87,28.87,33.22S291.48,225,291.48,225"/><path class="cls-4" d="M307.49,119.62,321,131l28.68-37.57,2.36-13.61s.5-7.1.73-8.35c.37-2.06,2-2.22,2.18-.18l-.73,9.8s1.64-1.1,2.72-.54a1.37,1.37,0,0,1,.73,1.63s1.76-.29,2.18.18a.94.94,0,0,1,0,1.09s2.72-.6,2.72.91-4.17,11.62-4.17,11.62l-24,39.75c-5.32,6.69-11.38,13.84-23.6,6.35l-12.77-8.63Z"/><path class="cls-4" d="M166.27,124.71l-14,11.35L123.63,98.49l-2.36-13.61s-.5-7.1-.73-8.35c-.37-2.06-2-2.22-2.18-.18l.73,9.8s-1.64-1.1-2.72-.54a1.37,1.37,0,0,0-.73,1.63s-1.76-.29-2.18.18a.94.94,0,0,0,0,1.09s-2.72-.6-2.72.91S114.92,101,114.92,101l24,39.75c5.32,6.69,10.67,13.84,23.6,6.35l13.2-8.63Z"/><ellipse class="cls-4" cx="241.65" cy="45.73" rx="18.33" ry="25.78" transform="translate(-2.15 78.05) rotate(-18.27)"/><path class="cls-3" d="M250,56.57c3.61,6.41,9.76,13.54,10.18,23.61.7,16.35-8.49,28.27-26.54,27.1-10.41,14.4-23.58,20.25-34.61,20.25-19.83,0-27.3-18-24.3-34.87,2.46-13.87,16.65-28.46,16.65-28.46A53.17,53.17,0,0,0,205,35.85c2.37-16.78,24-33.27,45-20.72C272.9,28.81,239.65,38.2,250,56.57Z"/></g></g></svg>