<svg xmlns="http://www.w3.org/2000/svg" viewBox="0 0 318.79 225"><defs><style>.cls-1{fill:#565f65;}.cls-2{fill:#b2bcc2;}.cls-3{fill:#fff;}.cls-4{fill:#88c3c8;}</style></defs><title>buy</title><g id="Layer_2" data-name="Layer 2"><g id="Layer_1-2" data-name="Layer 1"><circle class="cls-1" cx="166.73" cy="99.91" r="99.91"/><polygon class="cls-2" points="115.62 225 123.16 109.05 207.01 109.05 217.83 225 115.62 225"/><path class="cls-2" d="M189.84,109h-3c0-8.12-2.4-14.92-7-19.64A20.84,20.84,0,0,0,164.74,83c-10.64,0-22.1,8.16-22.1,26.08h-3c0-20,13-29.08,25.1-29.08S189.84,89.07,189.84,109Z"/><ellipse class="cls-1" cx="166.73" cy="160.67" rx="14.18" ry="14.9"/><rect class="cls-1" x="147.59" y="205.55" width="38.28" height="4.45"/><path class="cls-3" d="M186.23,111.57l11.23,3.51,8.48-13.6-13.15-10.1-8.46-.73L186.22,94l-7-5.87c-2.53-.83-4.34.93-4.28,5.75l.68,9.29A19.29,19.29,0,0,0,186.23,111.57Z"/><path class="cls-3" d="M311.08,58l-42.63,51.33-62.8-7.89a13.64,13.64,0,0,0-3.41,1.8c-1.74,1.85-3.48,3.92-3.71,6.6a14.83,14.83,0,0,1-1.41,5.1l.71.3,54.82,13.39c22.71,4.72,33.48,1.29,58.44-33.37V58Z"/><polygon class="cls-4" points="301.64 107.69 287.45 86.44 311.07 49.46 318.79 94.16 301.64 107.69"/><path class="cls-3" d="M138.51,107.56l-11.89-1.37-3.55-15,12.1-3.86a12.34,12.34,0,0,1,7-.15l4.69,1.28-1.52,2.24,5.46-3c2.65.09,5.52,2.49,3.95,7l-3.56,8.53A18.54,18.54,0,0,1,138.51,107.56Z"/><path class="cls-3" d="M126.62,106.19c-1.27-.15-29.84,3.68-48.85,4.29-18.71.6-29,0-44.91-10.32L5.56,82.52V39.75L59.17,88.41l63.89,2.8Z"/><polygon class="cls-1" points="37.09 68.36 29.24 102.19 0 91.17 5.56 39.75 37.09 68.36"/></g></g></svg>