<svg xmlns="http://www.w3.org/2000/svg" viewBox="0 0 496.52 225.56"><defs><style>.cls-1,.cls-4{fill:#343439;}.cls-1{stroke:#b2bcc2;stroke-miterlimit:10;}.cls-2{fill:#88c3c8;}.cls-3{fill:#fff;}.cls-5{fill:#565f65;}</style></defs><title>choose</title><g id="Layer_2" data-name="Layer 2"><g id="Layer_1-2" data-name="Layer 1"><path class="cls-1" d="M251.87,2.14c-19.73,4.8-16.32,25,3.8,29.56,8.45,1.9,2.61,13.84-4.71,18.4-5.35,5.87-11.79,14.05-12.25,25-.74,17.81,13.73,36.85,33,35.58,11.13,15.69,26.72,17,38.43,15.56,22.66-2.79,29.18-19.59,26-38-2.63-15.12-17.81-31-17.81-31-7.81-8.77-13.63-18.88-14.58-30.9C301.23,8.06,277.31-4.06,251.87,2.14Z"/><path class="cls-2" d="M304.49,81.66a30,30,0,0,0-18.29-6.86l-13.48.26-.5-.26H233a25.73,25.73,0,0,0-15.58,6l-39.38,33,10.48,15.36,33.12-19.53,21.62,51.46.1.56h34.9l.48-1.71,18.07-50.26,36,19.48,10.48-15.36Z"/><path class="cls-1" d="M215.26,225.5c.62-13.15,1.67-18.73,3.65-25.7,4.07-14.34,16-23.43,24.63-38.15H278.3s26.9,25.48,32.16,37,7.09,26.86,7.09,26.86"/><rect class="cls-3" x="253.32" y="60.2" width="13.2" height="23.44"/><polygon class="cls-3" points="233.03 74.79 286.19 74.79 259.62 92.33 233.03 74.79"/><polygon class="cls-4" points="418.48 67.29 445.18 62.25 460.55 77.11 410.1 88.11 418.48 67.29"/><path class="cls-5" d="M445,62.79l14.51,14-48.61,10.6,7.93-19.69L445,62.79m.32-1.08-27.22,5.14-8.83,22,52.28-11.4L445.35,61.71Z"/><path class="cls-5" d="M380,104.45l21.11-34.36L418.4,66.8s-.77,15,16,12,10.73-17,10.73-17l19.61-3.68,31.8,23.64L486,98.87l-14.63-11,21.24,76.4-72.35,11.28-11.7-76-12.33,17.79Z"/><path class="cls-3" d="M278.09,39c0,12.82-12.79,27.81-23.7,27.81-12.84,0-16.73-15.08-16.73-27.91,0-18.74,9.77-23.12,20.68-23.12S278.09,26.16,278.09,39Z"/><path class="cls-4" d="M280.06,12,259.33,7.49l-17.77,9.24V22.6c4.22,6.84,15.55,3.66,22.09,3.13,8.53-.69,10.69,5.68,10.69,11.86,0,11.57-10.64,16.44-10.64,27.83,0,7,2.81,9.38,2.81,9.38h9.79c16.59,0,19-27.38,19-27.38Z"/><path class="cls-3" d="M126.8,85.53l25,43.72c5.93,7.45,11,16.36,26.28,7.08l10.48-7.18-10.48-15.36L166,123,134.81,82.14l-2.38-9.64-13.05-5.72h-6.71Z"/><polygon class="cls-4" points="58.58 71.76 74.63 56.04 100.87 62.09 96.66 80.49 58.58 71.76"/><path class="cls-5" d="M74.79,56.59l25.49,5.88-4,17.42-36.7-8.41L74.79,56.59m-.31-1.1L57.57,72l39.46,9,4.44-19.37-27-6.23Z"/><polygon class="cls-5" points="23.84 72.28 57.01 51.48 74.48 55.49 84.78 71.92 101.47 61.72 121.28 66.31 141.89 98.81 125.34 109.18 115.91 94.13 110.16 212.99 0 185.38 52.5 79.35 34.02 89.56 23.84 72.28"/><path class="cls-3" d="M396,85.83l-25,43.72c-5.93,7.45-11.36,14.39-23.82,8.32l-14.39-8.72,10.48-15.36,13.34,9.76L388,82.44l2.38-9.64,13.05-5.72h6.71Z"/></g></g></svg>