<svg xmlns="http://www.w3.org/2000/svg" viewBox="0 0 861 479.5"><defs><style>.cls-1{isolation:isolate;}.cls-2{fill:none;stroke-linecap:round;}.cls-2,.cls-4,.cls-6,.cls-7,.cls-8,.cls-9{stroke:#575a67;stroke-miterlimit:10;stroke-width:2px;}.cls-2,.cls-3{opacity:0.8;mix-blend-mode:multiply;}.cls-4{fill:#e5eaec;}.cls-5,.cls-8{fill:#adbbc2;}.cls-6{fill:#fff;}.cls-7{fill:#575a67;}.cls-9{fill:#b0bec5;}</style></defs><title>Asset 7</title><g class="cls-1"><g id="Layer_2" data-name="Layer 2"><g id="Layer_1-2" data-name="Layer 1"><path class="cls-2" d="M685.53,331.79l-40.44-21c-6.79-3.52-14.65-1.74-18.18,5h0c-3.52,6.79-.44,14.23,6.35,17.75l43.42,22.53a10.27,10.27,0,0,0,13.85-4.39h0a10.27,10.27,0,0,0-4.39-13.85l-38-19.7A6.81,6.81,0,0,0,639,321.1h0a6.81,6.81,0,0,0,2.91,9.18l34.79,18.06"/><path class="cls-2" d="M709,420.23l41.73-18.3c7-3.07,10.55-10.31,7.48-17.32h0c-3.07-7-10.8-9.28-17.8-6.21l-44.8,19.65a10.27,10.27,0,0,0-5.28,13.54h0a10.27,10.27,0,0,0,13.54,5.28l39.17-17.18a6.81,6.81,0,0,0,3.5-9h0a6.81,6.81,0,0,0-9-3.5L701.71,403"/><g class="cls-3"><circle class="cls-4" cx="731.42" cy="129.58" r="128.58"/><ellipse class="cls-5" cx="740.26" cy="144.74" rx="82.26" ry="91.6" transform="translate(67.28 485.38) rotate(-37.91)"/><path class="cls-6" d="M629.5,119H674a0,0,0,0,1,0,0v23a0,0,0,0,1,0,0H629.5a11.5,11.5,0,0,1-11.5-11.5v0A11.5,11.5,0,0,1,629.5,119Z"/><circle class="cls-6" cx="731.42" cy="129.58" r="82.25"/><circle class="cls-7" cx="731.42" cy="129.58" r="69.89"/></g><g class="cls-3"><path class="cls-4" d="M29.16,68.37,30,405.65c0,11.36-2.27,30-5.77,47.11-1.33,6.57-2.82,12.87-4.43,18.44-.62,2.1-1.24,4.1-1.86,6a2,2,0,0,1-3.72,0c-.63-1.88-1.26-3.88-1.89-6-1.64-5.57-3.16-11.88-4.55-18.42-3.55-17.08-5.91-35.69-5.94-47.08L1,68.44a7.73,7.73,0,0,1,7.71-7.78l12.67,0A7.76,7.76,0,0,1,29.16,68.37Z"/><path class="cls-8" d="M10.09,35.62h9.84a2.17,2.17,0,0,1,2.17,2.17V60.66a0,0,0,0,1,0,0H7.93a0,0,0,0,1,0,0V37.79a2.17,2.17,0,0,1,2.17-2.17Z" transform="translate(-0.12 0.04) rotate(-0.14)"/><path class="cls-6" d="M24.24,452.76a206.93,206.93,0,0,1-6.29,24.42,2,2,0,0,1-3.72,0A213.31,213.31,0,0,1,7.78,452.8c2.66-.23,5.44-.36,8.26-.36S21.58,452.55,24.24,452.76Z"/><path class="cls-9" d="M19.81,471.2c-.62,2.1-1.24,4.1-1.86,6a2,2,0,0,1-3.72,0c-.63-1.88-1.26-3.88-1.89-6,1.22,0,2.5-.07,3.76-.07S18.59,471.18,19.81,471.2Z"/><path class="cls-6" d="M15.08,67A38.21,38.21,0,0,0,1,69.75v5.16a35.18,35.18,0,0,1,28.16-.07V69.68A38.21,38.21,0,0,0,15.08,67Z"/><path class="cls-6" d="M29.84,341.06v5.13a45.74,45.74,0,0,0-28.16.07v-5.13a50.51,50.51,0,0,1,28.16-.07Z"/><path class="cls-4" d="M15.09,71.94A35,35,0,0,0,8,72.69l.32,126.8a7.09,7.09,0,0,0,7.11,7.07h0a7.09,7.09,0,0,0,7.07-7.11l-.32-126.8A35,35,0,0,0,15.09,71.94Z"/></g></g></g></g></svg>