<svg xmlns="http://www.w3.org/2000/svg" viewBox="0 0 372.5 225.53"><defs><style>.cls-1{fill:#88c3c8;}.cls-2{fill:#fff;}.cls-3{fill:#565f65;}.cls-4{fill:#b2bcc2;}.cls-5{fill:#343439;stroke:#b2bcc2;stroke-miterlimit:10;}</style></defs><title>decide</title><g id="Layer_2" data-name="Layer 2"><g id="Layer_1-2" data-name="Layer 1"><path class="cls-1" d="M336.32,96.7,312.73,66.3l-3.34,4.09s-25,9.71-18.23,36c6.06,23.5,4.24,40.12,4.24,40.12H324Z"/><rect class="cls-2" x="81.08" y="50.13" width="11.69" height="20.06"/><path class="cls-3" d="M66,92.9c1.12-25.11,15.09-31.69,15.09-31.69H92.77c3,0,6.34,3.65,8.42,9,4.75,12.18,5.91,33.46,5.91,43.4,0,13.42-11.42,27.86-11.42,27.86l-27.57-5.91A299.63,299.63,0,0,1,66,92.9Z"/><rect class="cls-4" y="114.07" width="246.2" height="27.97"/><rect class="cls-3" x="2.6" y="142.05" width="241.01" height="83.45"/><path class="cls-5" d="M280.24,225.5c0-32.47,1.5-52.34,14.9-82.14h29.67s14.08,9.84,18.65,18.89c9,17.92,11.4,63.25,11.4,63.25"/><circle class="cls-2" cx="88.37" cy="30.45" r="24.17"/><path class="cls-5" d="M86.54,37.46c-6.4-2.26-3-16,3.32-10.15,5.16,4.78,13,.35,10.09-7.78,0,0,9.35,3.12,12.28,2.07s2-6-.78-8.2C114.26,6.91,98.18,1.41,94,.95,87.08.17,77.46-.53,67.4,7.54,51,20.66,67.61,45,68.25,45.68c5.16,5.58,7.8,3.81,11.18.4C81.5,44,86.54,37.46,86.54,37.46Z"/><path class="cls-2" d="M289,191.62l6.17-9.69,7.51-65.62h13.57L302.8,185.65s-3.47,9.6-4.42,10.64-2.45-1.08-2.45-1.08-.1.69-.68.75-1.62-1.24-1.62-1.24a1.83,1.83,0,0,1-1.72.31c-1.09-.29-1.35-1.72-1.35-1.72C290.18,193.58,288.41,192.89,289,191.62Z"/><polygon class="cls-2" points="89.86 85.04 100.34 80.32 101.87 87.76 91.76 93.9 89.86 85.04"/><path class="cls-3" d="M128.34,92.4h32.79a0,0,0,0,1,0,0V114a0,0,0,0,1,0,0H115.05a0,0,0,0,1,0,0v-8.31A13.28,13.28,0,0,1,128.34,92.4Z"/><path class="cls-3" d="M158,68.45h0a3.18,3.18,0,0,1,3.18,3.18V93a0,0,0,0,1,0,0h-6.35a0,0,0,0,1,0,0V71.62A3.18,3.18,0,0,1,158,68.45Z"/><polygon class="cls-1" points="180.04 114.07 184.13 54.17 229.65 54.17 235.52 114.07 180.04 114.07"/><path class="cls-1" d="M221.25,54.17h-3.47a12.91,12.91,0,0,0-3.49-9.45,10.71,10.71,0,0,0-7.59-3.06c-5.34,0-11.08,3.92-11.08,12.51h-3.47c0-10.49,7.32-16,14.54-16S221.25,43.68,221.25,54.17Z"/><ellipse class="cls-2" cx="310.17" cy="34.52" rx="23.59" ry="16.78" transform="translate(180.17 318.23) rotate(-71.73)"/><path class="cls-5" d="M302.52,44.44c-3.31,5.87-8.93,12.39-9.32,21.61-.64,15,7.77,25.87,24.29,24.81,9.53,13.18,21.58,18.53,31.68,18.53,18.15,0,25-16.45,22.25-31.92-2.25-12.7-15.24-26-15.24-26a48.66,48.66,0,0,1-12.48-26c-2.17-15.36-22-30.45-41.18-19C281.57,19,312,27.63,302.52,44.44Z"/></g></g></svg>