<svg xmlns="http://www.w3.org/2000/svg" viewBox="0 0 404.98 225.13"><defs><style>.cls-1,.cls-2{fill:#565f65;}.cls-2,.cls-4{stroke:#b2bcc2;stroke-miterlimit:10;}.cls-3{fill:#b2bcc2;}.cls-4,.cls-8{fill:#343439;}.cls-5{fill:#88c3c8;}.cls-6{fill:#dde1e4;}.cls-7{fill:#82939c;}</style></defs><title>discover</title><g id="Layer_2" data-name="Layer 2"><g id="Layer_1-2" data-name="Layer 1"><path class="cls-1" d="M47.23,106.38c1.75,2.11,3.58,4.13,5.17,6.32a8.41,8.41,0,0,1,1.49,6.06c-.46,3.63-2.45,5.59-6.47,6.43l1.06,1a15.72,15.72,0,0,1,5.07,7.15,7.17,7.17,0,0,1-4.41,9.24,48,48,0,0,1-4.84,1.38l1.57,1.34c3.07,2.67,5.78,5.61,7.32,9.46S53.95,163,51,165.2a9.34,9.34,0,0,1-8.89,1.08c-3.57-1.2-7-2.85-10.44-4.36-1.14-.5-2.19-1.19-3.32-1.73-2.67-1.29-3.62-.94-5.08,1.84,2,1.07,4,2.21,6.14,3.17,1,.44,1.12.94.74,1.81-.18.42-.33.86-.52,1.28-.41.95-1,1.16-2,.63-1.95-1.05-4-2-6-3-.33-.16-.9-.3-1.12-.13-2.85,2.1-6,2-9.17,1.16a41.54,41.54,0,0,1-5.59-2,1.43,1.43,0,0,1-.65-1.22,34.35,34.35,0,0,1,2.26-5.32c1-1.79,2.27-2.17,4.27-1.53s4,1.47,6,2.25c1-2.3,1.89-4.66,3-6.94a31,31,0,0,1,2.65-4.53,2.92,2.92,0,0,1,4-1.19c2.63,1.12,5.14,2.51,7.74,3.71,2.3,1.06,4.64,2,7,3a3.28,3.28,0,0,0,1.5.15c1.11-.1,1.62-.83,1.15-1.83a8.85,8.85,0,0,0-1.77-2.62,39.61,39.61,0,0,0-11.19-7.83c-5-2.2-9.29-5.24-11.58-10.44-1.65-3.75-1.08-7.69,1.44-10.05a20.82,20.82,0,0,1,2.8-1.91c-.85-.77-1.9-1.59-2.79-2.56-3-3.23-.82-8,1.76-9.5a2.06,2.06,0,0,1,1.5.15c4.46,1.77,8.88,3.66,13.37,5.32a19.66,19.66,0,0,0,5.14,1c1.51.13,2-.8,1.21-2.13a6,6,0,0,0-1.31-1.6,49.66,49.66,0,0,0-15.41-8.87c-2.69-.93-5.55-1.35-8.45-2A22,22,0,0,1,20.29,90c.86-2.46,2.56-3.38,5.09-2.88a5.58,5.58,0,0,1,2.05.71c-1.62-1.76-3.31-3.46-4.84-5.3a13.25,13.25,0,0,1-3.36-9.84c.32-3.65,3.22-6.16,6.78-5.38s6.87,2.05,10.32,3.07A62.54,62.54,0,0,0,43,72.19c1.78.32,2.61-.88,1.67-2.46a12.67,12.67,0,0,0-3.32-3.83,73.66,73.66,0,0,0-9-5.62c-4.89-2.5-9.2-5.52-11.76-10.55a11.79,11.79,0,0,1-1.27-6.58,8.32,8.32,0,0,1,3.32-5.76L1.17,32.18a21.61,21.61,0,0,1,1.4-8.68c1.11-2.63,2.93-3.69,5.66-2.9,5.67,1.64,11.27,3.52,16.92,5.24q8,2.43,16.06,4.7a8.81,8.81,0,0,0,2.62.19c1.66,0,2.21-1.06,1.16-2.37A16.42,16.42,0,0,0,41.54,25c-3.86-2.62-7.83-5.07-11.77-7.57-.58-.37-1.4-.61-1.07-1.5a16.12,16.12,0,0,1,1.36-2.62c.06-.11.63,0,.88.12,7,3.69,13.9,7.44,19.14,13.55,2.31,2.69,3.92,5.74,3.74,9.43-.19,4-2.38,6.42-6.32,7-.27,0-.55.06-1.12.12.83.67,1.49,1.17,2.13,1.7,2.47,2,4.59,4.38,5.2,7.64.85,4.56-2,8.34-6.84,9.27-.85.16-1.72.28-2.8.45,1.12,1,2.16,1.87,3.14,2.8,2.93,2.76,5.55,5.78,6.38,9.85a12.24,12.24,0,0,1,0,4.92c-.7,3.19-3.82,4.92-7.4,4.67-4.69-.34-8.95-2.15-13.31-3.63a21,21,0,0,0-3.73-1c-1.49-.21-2.19.7-1.46,2a11.25,11.25,0,0,0,2.71,3.26A43.22,43.22,0,0,0,49.5,93.88l4.46.88a21,21,0,0,1-.32,7.68,5.08,5.08,0,0,1-5.22,3.93ZM43,50.17c.45-.28,1.59-.63,2.07-1.39.68-1.06-.3-2-1.06-2.72a10.49,10.49,0,0,0-1.75-1.36,29.27,29.27,0,0,0-9.86-3.88,9.09,9.09,0,0,0-3.54,0,1.42,1.42,0,0,0-1,2.26,7.3,7.3,0,0,0,1.78,2.25A24,24,0,0,0,43,50.17ZM30.56,122.23a1.92,1.92,0,0,0-.69,0c-.76.32-1.94.53-2.15,1.08s.27,1.67.56,2.49a2.15,2.15,0,0,0,.76.79,21.45,21.45,0,0,0,13.14,4.73A3.66,3.66,0,0,0,45,130c.66-1.09-.48-2.06-1.34-2.73A24.91,24.91,0,0,0,30.56,122.23Z"/><path class="cls-1" d="M25.43,180.12a28.94,28.94,0,0,1,3.38-3.93c3.9-3.2,9.16-3.32,14-.47A22.49,22.49,0,0,1,52.67,188a30.81,30.81,0,0,1,.3,21.31c-1.32,3.68-2.67,4.29-6.36,3.17Q30.78,207.7,15,202.84l-.52-.18a6.66,6.66,0,0,0-5,.14c-5,1.77-4.46,1.56-6.38-2.65-3-6.51-4-13.36-2.16-20.4,1.26-4.71,3.91-8.3,9.07-9.22,3.7-.66,6.91.67,9.84,2.83A19.33,19.33,0,0,1,25.43,180.12Zm3.85,15.94,15.58,5a32.4,32.4,0,0,0-.05-5.46c-.73-4.06-2.74-7.37-6.61-9.19a5.36,5.36,0,0,0-7.68,3.15A49.06,49.06,0,0,0,29.28,196.06Zm-6.89-2.36c-.72-2.27-1.23-4.31-2-6.24a10.06,10.06,0,0,0-4.67-5.3c-2.63-1.38-5.19-.46-6.13,2.36a15.33,15.33,0,0,0-.49,4.21c-.05,1.34.54,2.12,2.07,2a6.32,6.32,0,0,1,2,.39C16.11,191.92,19,192.75,22.39,193.69Z"/><polygon class="cls-2" points="403.84 154.05 360.67 113.4 360.67 113.22 360.48 113.22 347.91 101.39 347.91 113.22 242.64 113.22 242.64 191.56 347.91 191.56 347.91 203.38 403.84 154.05"/><circle class="cls-3" cx="250.46" cy="153.05" r="3.16"/><circle class="cls-3" cx="250.46" cy="122.43" r="3.16"/><circle class="cls-3" cx="250.46" cy="137.74" r="3.16"/><circle class="cls-3" cx="250.46" cy="168.36" r="3.16"/><circle class="cls-3" cx="250.46" cy="183.68" r="3.16"/><circle class="cls-3" cx="296.65" cy="122.43" r="3.16"/><circle class="cls-3" cx="296.65" cy="183.68" r="3.16"/><circle class="cls-3" cx="280.65" cy="122.43" r="3.16"/><circle class="cls-3" cx="280.65" cy="183.68" r="3.16"/><circle class="cls-3" cx="265.65" cy="122.43" r="3.16"/><circle class="cls-3" cx="265.65" cy="183.68" r="3.16"/><circle class="cls-3" cx="311.3" cy="122.43" r="3.16"/><circle class="cls-3" cx="311.3" cy="183.68" r="3.16"/><circle class="cls-3" cx="325.94" cy="122.43" r="3.16"/><circle class="cls-3" cx="325.94" cy="183.68" r="3.16"/><circle class="cls-3" cx="340.59" cy="122.43" r="3.16"/><circle class="cls-3" cx="340.59" cy="183.68" r="3.16"/><circle class="cls-3" cx="355.07" cy="122.43" r="3.16"/><path class="cls-3" d="M287.15,147.87H283v-3.09q0-2.23-1.9-2.23a1.73,1.73,0,0,0-1.82,1.86v1.53a3.38,3.38,0,0,0,1.53,2.9l3.39,2.38a7.64,7.64,0,0,1,3.31,6.67v1.38c0,3.46-2.31,6.14-6.44,6.14s-6.44-2.46-6.44-5.85V155.8h4.24v3.57a2.05,2.05,0,0,0,2.12,2.2,1.91,1.91,0,0,0,2-2.09V158a3.57,3.57,0,0,0-1.68-3.17l-3.09-2.09a7.67,7.67,0,0,1-3.43-6.7v-1.49c0-3.39,2.38-5.81,6.26-5.81,4.17,0,6.14,2.42,6.14,5.59Z"/><path class="cls-3" d="M296.68,165.11h-4.43V142.92h-4V139H300.7v3.87h-4Z"/><path class="cls-3" d="M308.41,165.45a6.38,6.38,0,0,1-4.88-1.79,6.16,6.16,0,0,1-1.68-4.47V145c0-3.61,2.27-6.26,6.55-6.26S315,141.36,315,145v14.23a6.16,6.16,0,0,1-1.68,4.47A6.38,6.38,0,0,1,308.41,165.45Zm-2-6.26c0,1.56.67,2.35,2,2.35s2-.78,2-2.35V145c0-1.56-.67-2.35-2-2.35s-2,.78-2,2.35Z"/><path class="cls-3" d="M325.69,165.11a14.83,14.83,0,0,1-.41-3.84l-.11-4c0-2.12-.93-3.09-2.72-3.09h-.74v10.95h-4.47V139h6.37c3.91,0,6.48,2.16,6.48,6.07v1.94c0,2.76-1,4.58-3.16,5.44,1.67.63,2.61,2.27,2.76,4.84l.19,4.69a15,15,0,0,0,.33,3.09Zm-4-14.63h1.41c1.6,0,2.49-1,2.49-2.72v-2.35c0-1.75-.82-2.61-2.49-2.61h-1.41Z"/><path class="cls-3" d="M331.95,165.11V139h11.54v3.87h-7.08v6.33H341v3.87h-4.54v8.12h7.34v3.87Z"/><circle class="cls-3" cx="366.47" cy="132.25" r="3.16"/><circle class="cls-3" cx="377.87" cy="142.98" r="3.16"/><circle class="cls-3" cx="366.47" cy="173.19" r="3.16"/><circle class="cls-3" cx="377.87" cy="162.46" r="3.16"/><circle class="cls-3" cx="389.28" cy="152.72" r="3.16"/><circle class="cls-3" cx="355.07" cy="183.68" r="3.16"/><path class="cls-1" d="M135.13,91.36V15.5h23.95c12.57,0,21.35,7.26,21.35,19.4v2.49a19,19,0,0,1-2.17,8.13,12.86,12.86,0,0,1-6.5,6.18,17.61,17.61,0,0,1,9.64,16.15v1.73A22.21,22.21,0,0,1,175.66,85c-3.9,4.23-9.32,6.39-16.26,6.39ZM151,46.6h4.88c5.74,0,8.89-4,8.89-8.67V37.5c0-4.66-3.14-8.78-8.89-8.67H151ZM151,78h5.74c5.74,0,9-3.68,9-9.32v-.32c0-5.64-3.25-9.32-9-9.32H151Z"/><path class="cls-1" d="M221.07,91.36a54.65,54.65,0,0,1-1.3-11.27l-.32-8.34c-.33-7.37-2.93-10.51-9.32-10.51h-2.71V91.36H191.6V15.5h23.08c13.55,0,22.32,7.8,22.32,19.94v2.49c0,8.24-3.58,14.74-10.84,17.66,5.53,2.06,8.67,7.37,9.21,15.93l.76,11.6.87,8.24ZM207.42,48.23h5.09c5.64,0,8.78-2.93,8.78-8.45V37q0-8.13-8.78-8.13h-5.09Z"/><path class="cls-1" d="M292.38,91.36h-16l-2.28-13.11h-14.2l-2.28,13.11h-15L257.05,15.5H278Zm-25.14-54-5.31,29.48h10.3Z"/><path class="cls-1" d="M315.68,91.36H300.51V15.5h20l12.79,48.55a264.85,264.85,0,0,1-1.08-27.53v-21h15.17V91.36h-20L314.6,42.81a264.6,264.6,0,0,1,1.08,27.53Z"/><path class="cls-1" d="M359.9,91.36V15.5h23c6.72,0,12.14,2.28,16.15,6.72s6,10.19,6,17.23v28c0,7-2,12.79-6,17.23s-9.43,6.72-16.15,6.72ZM375.72,77.6h3.14c6.94,0,10.4-4.44,10.4-11.81V41.08c0-7.37-3.47-11.81-10.4-11.81h-3.14Z"/><path class="cls-4" d="M130,225l12.6-46-33.18-104-8.4-3.15L70.51,137a80.78,80.78,0,0,0-7.37,41L67,225"/><rect class="cls-5" x="97.7" width="103.34" height="198.44" rx="12.9" ry="12.9"/><rect class="cls-6" x="97.7" y="22.4" width="103.34" height="144.22"/><circle class="cls-1" cx="149.37" cy="181.12" r="7.56"/><path class="cls-4" d="M71.8,174.47s8.68-34.66,10.08-41.38,6.3-20.37,8.05-24.71,7.42-21.14,11.76-21.28c5.11,0,6.16,6.51,6.16,11.55s-3.08,20-3.08,20-2.52,10.35-2.52,16.82c0,3.15.18,6.56,3.64,15.87,3.13,8.4,10.5,20.62,10.5,47.08v4"/><rect class="cls-3" x="108.52" y="35.61" width="79.89" height="44.27"/><rect class="cls-3" x="108.52" y="116.53" width="24.66" height="21.38"/><rect class="cls-3" x="136.13" y="116.53" width="24.66" height="21.38"/><rect class="cls-3" x="163.75" y="116.53" width="24.66" height="21.38"/><rect class="cls-7" x="121.12" y="85.71" width="54.69" height="3.33"/><rect class="cls-7" x="114.01" y="91.18" width="68.91" height="3.33"/><rect class="cls-7" x="125.94" y="97.06" width="45.04" height="3.33"/><rect class="cls-7" x="114.01" y="143.85" width="68.91" height="3.33"/><rect class="cls-7" x="125.94" y="149.72" width="45.04" height="3.33"/><rect class="cls-8" x="94.1" y="186.58" width="18.29" height="15.85"/></g></g></svg>