<svg xmlns="http://www.w3.org/2000/svg" viewBox="0 0 360.5 225.06"><defs><style>.cls-1{font-size:87.26px;letter-spacing:-0.04em;}.cls-1,.cls-2,.cls-3{fill:#565f65;}.cls-1,.cls-2,.cls-3,.cls-5,.cls-6{font-family:NewGroteskSquare-FIVE, New Grotesk Square;}.cls-2{font-size:40.34px;letter-spacing:-0.04em;}.cls-3{font-size:76.63px;letter-spacing:-0.04em;}.cls-4{fill:#b2bcc2;}.cls-5{font-size:59.45px;letter-spacing:-0.04em;}.cls-10,.cls-5,.cls-6,.cls-7{fill:#343439;}.cls-6{font-size:31.34px;letter-spacing:-0.04em;}.cls-7{stroke:#b2bcc2;stroke-miterlimit:10;}.cls-8{fill:#fff;}.cls-9{fill:#88c3c8;}</style></defs><title>experience</title><g id="Layer_2" data-name="Layer 2"><g id="Layer_1-2" data-name="Layer 1"><text class="cls-1" transform="translate(74.17 221.18) rotate(-90)">NEW</text><text class="cls-2" transform="translate(113.99 219.03) rotate(-90)">COLLECTION</text><text class="cls-3" transform="translate(233.14 112.86)">SALE</text><circle class="cls-4" cx="136.89" cy="35.47" r="35.47"/><text class="cls-5" transform="translate(116.19 56.66)">% </text><polygon class="cls-4" points="334.1 163.71 327.97 171.91 329.18 182.08 319.76 186.11 315.73 195.53 305.56 194.32 297.36 200.45 289.15 194.32 278.98 195.53 274.95 186.11 265.53 182.08 266.74 171.91 260.61 163.71 266.74 155.5 265.53 145.33 274.95 141.3 278.98 131.88 289.15 133.09 297.36 126.96 305.56 133.09 315.73 131.88 319.76 141.3 329.18 145.33 327.97 155.5 334.1 163.71"/><text class="cls-6" transform="translate(275.99 175.03)">2 + 1</text><path class="cls-7" d="M171.6,28.5c-17.24,4.2-14.26,21.87,3.32,25.83,7.38,1.66,2.28,12.09-4.12,16.08-4.68,5.13-10.31,12.28-10.71,21.87-.65,15.57,12,32.2,28.87,31.09,9.73,13.72,23.35,14.86,33.58,13.6,19.81-2.43,25.5-17.12,22.71-33.21-2.3-13.21-15.56-27.1-15.56-27.1-6.83-7.67-11.91-16.5-12.74-27C214.73,33.68,193.83,23.09,171.6,28.5Z"/><path class="cls-8" d="M151.88,185l-36.34-25.19c-14.13-11-9.7-18-4.19-23.53l15.94-17.55,11.94,9.77-18,18.62,34.18,31.13L163.7,181l4,11.85-.51,5.87Z"/><path class="cls-8" d="M210.77,187l36.34-25.19c15.25-10.05,9.7-18,4.19-23.53l-15.94-17.55-11.94,9.77,18,18.62L207.2,180.24l-8.25,2.82-4,11.85.51,5.87Z"/><path class="cls-9" d="M202.75,92.67h0l-11.64.23-.64-.23h-34.4a27.2,27.2,0,0,0-15.65,9.12l-26.31,31,10.22,11.28,24.45-19.24,15.46,41.89.94,2.19h30.64l.73-1.72,14.68-43,26.29,21,10.9-10.11-24.48-30.7A31.75,31.75,0,0,0,202.75,92.67Z"/><path class="cls-7" d="M140.47,225a78.25,78.25,0,0,1,3.21-22.57c3.58-12.59,14-20.57,21.62-33.5h30.52s23.62,22.37,28.24,32.49S230.28,225,230.28,225"/><path class="cls-8" d="M194.51,60.7c0,11.21-11.18,24.3-20.71,24.3-11.22,0-14.62-13.18-14.62-24.39,0-16.38,8.54-20.2,18.07-20.2S194.51,49.49,194.51,60.7Z"/><rect class="cls-8" x="173.37" y="80.06" width="11.39" height="20.22"/><polygon class="cls-8" points="156.08 92.67 202.75 92.67 178.04 106.55 156.08 92.67"/><path class="cls-10" d="M196.23,37.14l-18.12-4-15.53,8.07v5.14c3.69,6,13.58,3.2,19.3,2.73,7.45-.61,9.34,5,9.34,10.36,0,10.11-9.3,14.37-9.3,24.32,0,6.12,2.85,8.81,2.85,8.81l8.17-.61c14.5,0,16.61-23.93,16.61-23.93Z"/></g></g></svg>