<svg xmlns="http://www.w3.org/2000/svg" xmlns:xlink="http://www.w3.org/1999/xlink" viewBox="0 0 276.79 632.16"><defs><style>.cls-1,.cls-8{fill:none;}.cls-2{clip-path:url(#clip-path);}.cls-3{fill:#cefff5;}.cls-4{fill:#4a93a2;}.cls-5{fill:#0e5f7b;}.cls-6{fill:#82d2d0;}.cls-7{fill:#5c9caa;}.cls-8{stroke:#0e5f7b;stroke-miterlimit:10;stroke-width:0.75px;}</style><clipPath id="clip-path" transform="translate(-41.82)"><rect class="cls-1" y="2.64" width="332.3" height="642.4"/></clipPath></defs><title>girl</title><g id="Layer_2" data-name="Layer 2"><g id="Layer_1-2" data-name="Layer 1"><g class="cls-2"><path class="cls-3" d="M315.35,578.82c-.27,7.2,2.9,18.49,2.89,29.6,0,9.47-6.73,15.94-11,18.88s-11.83,4.12-14.84,4.33-17.23.46-23.33-1.42-6.77-7.27-6.61-11.49,1.3-10.2,2.28-12.05a46.37,46.37,0,0,0-.52,6.07c-.08,6.85-.58,11.12,4.18,13.71,0,0-.08-4.42,2.68-4.34s12.85-.75,14.12,1.51,1.59,3.84,2.68,3.68,14.71-1.1,22.08-10.61c3.67-4.73,5.48-8.65,4.2-19.59-.14-1.19-.31-2.48-.53-3.85a133.25,133.25,0,0,1-1.51-28.66c.24-5.09,1.45-12.72-.77-21.75,3,2,5.42,6.17,5.27,13.27C316.42,563.9,315.6,572.36,315.35,578.82Z" transform="translate(-41.82)"/><path class="cls-4" d="M314.12,597.11c1.27,10.94-.53,14.86-4.2,19.59-7.37,9.5-21,10.44-22.08,10.61s-1.41-1.42-2.68-3.68-11.36-1.42-14.12-1.51-2.68,4.34-2.68,4.34c-4.77-2.59-4.26-6.85-4.18-13.71a46.37,46.37,0,0,1,.52-6.07c.15-1,.32-2.08.51-3.09,5-3.48,10.15-3.3,12.14-5.83a1.31,1.31,0,0,0,1.31,1.31h14.06a1.26,1.26,0,0,0,1-.5c.45,1.8,9.2,1.21,12.52-1.46S314.12,597.11,314.12,597.11Z" transform="translate(-41.82)"/><path class="cls-4" d="M300.71,563.24c.81-6.42,2.58-9.84,4.48-13.77,1.07-2.26,2.52-11.18-2.25-11.08a25.48,25.48,0,0,0,0-4.95,15.4,15.4,0,0,0-1.86-5.43c-.69-.94-3.08-5.83-4.46-7.9a20.1,20.1,0,0,1-1.59-3.67c3.37-.3,4.93,3.05,6.89,6.49s6.77,10,9.2,19.32c.05.2.1.39.14.58,2.23,9,1,16.67.77,21.75a133.25,133.25,0,0,0,1.51,28.66c.22,1.37.39,2.66.53,3.85,0,0-4.55-2.67-7.86,0s-12.07,3.26-12.52,1.46a1.27,1.27,0,0,0,.28-.81v-1.5c5.18.59,6-1.11,6-1.11l-.5-1.34a9.07,9.07,0,0,0-5-.29v-.26a23.54,23.54,0,0,1,.59-2.87,26.8,26.8,0,0,1,.83-2.61c1.13-.32,2.16-.61,2.76-.82,2-.67,3.5-.92,2.47-2.47-.34-.51-2.22-.23-4.3.23l.42-2,.68-3.33c2.16-.7,4.61-1.42,5-2.39.46-1.12-.42-1.21-1-1.25-.16,0-1.51.32-3.36.81l0-.07,1-4.78h0c3.68-1.81,5.7-4.3,5.92-6.2.34-2.88-1.33-.87-1.33-.87a9.21,9.21,0,0,1-3.87,3.34c0-.31,0-.61.05-.9C300.45,565.65,300.56,564.39,300.71,563.24Z" transform="translate(-41.82)"/><path class="cls-3" d="M125.88,86.54c-.31.16-5.28,2.87-7.89,6.64s-8.22,7.46-10,5.7,4.26-10.47,7.47-14.67A43.33,43.33,0,0,1,125.7,75a38.61,38.61,0,0,0,6.09-3.82,6.11,6.11,0,0,1,.77-.61c-2,.62-8.6,2.82-11.75,3.18s-8.41,5.46-10.79,6.52-3.76,6.65-8.34,7-.88-6.77.5-9.53a7.22,7.22,0,0,1,.76-1.13h0c2.56-3.18,9.5-8.75,10.45-10,1.07-1.38,4-2.58,6.21-3.2,1.72-.49,6.26-2.14,8.17-2.83-3.21-.06-5.53-.25-8.17-.25s-5.58,2.08-9,3.33-8,4.13-9.72,1.44,4.33-6.46,5.77-7.41a108.87,108.87,0,0,1,11.42-5.39c1.51-.44,4.83-1.64,7.47-1.51s14.3.81,16,.62,6.9-1.12,9.72,1.19c.46.38,1,.77,1.51,1.16a44,44,0,0,0,7.78,4.72c.53.22,1.11.47,1.72.74h0s.23-6.74,1-9.75.68-5.81,2.57-8.87a2.67,2.67,0,0,1,2.95-1.44c1,.11.41,4.77.09,8.07a16.27,16.27,0,0,0-.11,2.79s1.25,3.76,1.93,6.61c0,0,3.76,7.94,4.52,11.87,0,0,2.51,1.33,3.92.83a10,10,0,0,0,1.16-.71c6.33-4.18,35.8-25.7,46.75-37.42C239.09,18.32,253.31.38,253.31.38h54.51s1.51,7.23-5.77,13-32.19,27.51-38.54,33-34.79,24.41-44.15,29.43c-7.66,4.1-22.62,12.28-30.64,16.7l-4.18,2.33c-4.11,2.31-13.27,3.89-20.12,2.9a17.06,17.06,0,0,1-4.6-1.26c-6.52-3-18.56-9.57-18.56-9.57a22.86,22.86,0,0,1-5.52,3.17c-4.52,1.89-3.76,2.55-4.26,7.27-.34,3.25-1.51,9.78-5.14,9.78s-1-14.8-1.51-18.18A3.59,3.59,0,0,1,125.88,86.54Z" transform="translate(-41.82)"/><path class="cls-5" d="M304.19,564.59s1.68-2,1.33.87c-.22,1.9-2.24,4.39-5.92,6.2h0a23.56,23.56,0,0,1-7.13,2.07l0-3h0a29.33,29.33,0,0,0,7.85-2.8A9.21,9.21,0,0,0,304.19,564.59Z" transform="translate(-41.82)"/><path class="cls-4" d="M268.14,540.55c.57-1.22,1.86-1.88,4.27-1.94,3.88-.09,6.09,1.52,10.05,2.49.34,2.66-.6,11.13-1.23,13.32s-.25,2.95,5.34,3,10.91-.12,11.47-2.19-1.25-7.41-1.57-9-.83-5.7-.83-5.7c2.44-.88,4.33-2,7.08-2.17h.21c4.77-.1,3.32,8.82,2.25,11.08-1.9,3.92-3.66,7.34-4.48,13.77-5.7.33-21.28,1.74-31.66-4.68h0a54.79,54.79,0,0,0-.23-8.69c-.1-.82-.22-1.65-.38-2.43C267.8,544.33,267.46,542,268.14,540.55Z" transform="translate(-41.82)"/><path class="cls-5" d="M302,575.7c.54,0,1.42.13,1,1.25-.39,1-2.84,1.69-5,2.39l-1.1.37c-.78.27-3.06,1-5.87,1.82l-6.21,1.85c-4,1.19-7.86,2.35-9.43,2.85-.88-.19-1.7-.38-2.43-.55a13.59,13.59,0,0,0-.18-2.25l6.79-1.75c2.51-.65,5-1.29,6.13-1.61h0l.23-.07c1.58-.43,8.49-2.37,12.73-3.49C300.51,576,301.85,575.69,302,575.7Z" transform="translate(-41.82)"/><path class="cls-3" d="M295.08,516.45a20.1,20.1,0,0,0,1.59,3.67c1.37,2.07,3.76,7,4.46,7.9a15.4,15.4,0,0,1,1.86,5.43,25.48,25.48,0,0,1,0,4.95h-.21c-2.75.21-4.65,1.28-7.08,2.17a20,20,0,0,1-7.93,1.22,25.64,25.64,0,0,1-5.25-.69c-4-1-6.17-2.58-10.05-2.49-2.42.06-3.7.71-4.27,1.94-1.93-3-1.52-9.34-1.64-13.66A70,70,0,0,0,265.23,516c3,.82,7.34.38,12.49-.71a26,26,0,0,0,9.16-4,28.24,28.24,0,0,0,5-4.35C292.58,508.57,293.88,513.06,295.08,516.45Z" transform="translate(-41.82)"/><path class="cls-5" d="M296,587.77c-2.58.7-5.72,1.51-5.72,1.51-1.68-.35-3.54-.72-5.46-1.1l0-.13a58.35,58.35,0,0,1,7.1-2.18c1-.2,2.35-.54,3.74-.87l1.23-.28c2.09-.46,4-.74,4.3-.23,1,1.55-.5,1.8-2.47,2.47C298.11,587.16,297.08,587.45,296,587.77Z" transform="translate(-41.82)"/><path class="cls-5" d="M300.71,563.24c-.15,1.15-.26,2.41-.34,3.78l-.36,0c-18.6,2-25.21-1.84-29.63-4.17A7.77,7.77,0,0,1,269,562a3.13,3.13,0,0,1-1.49-2.93.86.86,0,0,1,1.32-.58.83.83,0,0,0,.16.09h0C279.42,565,295,563.57,300.71,563.24Z" transform="translate(-41.82)"/><path class="cls-4" d="M286.17,571.78l-.47.07v-.08c-3.72-1-12.49-5.37-16.34-7.18L269,562a7.77,7.77,0,0,0,1.32.85c4.42,2.34,11,6.18,29.63,4.17l.36,0c0,.29,0,.59-.05.9a29.33,29.33,0,0,1-7.85,2.8h0l0,3v1.56h0c1.64.41,6.14,1.15,6.14,1.15l0,.07c-4.24,1.12-11.16,3.06-12.73,3.49l-.23.07h0c-.3-.06-6.74-1.36-11.44-2.19a50.2,50.2,0,0,1,12-2.9Z" transform="translate(-41.82)"/><path class="cls-5" d="M299.5,593.8l.5,1.34s-.8,1.71-6,1.11q-.75-.09-1.63-.24l-.5-1.33a6.54,6.54,0,0,1,2.13-1l.5-.13A9.07,9.07,0,0,1,299.5,593.8Z" transform="translate(-41.82)"/><path class="cls-4" d="M299.6,571.67l-1,4.78s-4.51-.74-6.14-1.15h0v-1.56A23.56,23.56,0,0,0,299.6,571.67Z" transform="translate(-41.82)"/><path class="cls-6" d="M296.47,546.27c.31,1.57,2.14,6.89,1.57,9s-5.89,2.26-11.47,2.19-6-.81-5.34-3,1.58-10.66,1.23-13.32a25.64,25.64,0,0,0,5.25.69,20,20,0,0,0,7.93-1.22S296.16,544.71,296.47,546.27Z" transform="translate(-41.82)"/><path class="cls-4" d="M298,579.35l-.68,3.33-.17,0c-1.72-.38-6.07-1-6.07-1l-.05-.15c2.81-.84,5.09-1.55,5.87-1.82Z" transform="translate(-41.82)"/><path class="cls-5" d="M297.3,582.68l-.42,2-1.23.28c-1.53-.26-10.85-1.61-10.85-1.61h0l6.21-1.85.05.15s4.35.58,6.07,1Z" transform="translate(-41.82)"/><path class="cls-4" d="M296,587.77a26.8,26.8,0,0,0-.83,2.61c-1.17-.31-2.89-.68-4.89-1.1C290.23,589.28,293.37,588.48,296,587.77Z" transform="translate(-41.82)"/><path class="cls-5" d="M273.28,588.49q-.6-.18-1.08-.36c-2.32-.86-2.84-1.83-2.84-2.5a1.45,1.45,0,0,1,.33-.91,20.17,20.17,0,0,0,3.24,1c.73.17,1.55.36,2.43.55,2.77.61,6.15,1.28,9.41,1.95,1.92.38,3.78.75,5.46,1.1,2,.42,3.71.79,4.89,1.1a23.54,23.54,0,0,0-.59,2.87v.26l-.5.13v-1a1.3,1.3,0,0,0-1.3-1.3h-5.17s-3.82-.59-7.84-1.38C277.41,589.54,275,589,273.28,588.49Z" transform="translate(-41.82)"/><path class="cls-4" d="M294,596.26v1.5a1.31,1.31,0,0,1-1.3,1.31H278.66a1.31,1.31,0,0,1-1.31-1.31V596.4c1.47,0,1.92-.58,1.92-.58l-.19-1.42a9.72,9.72,0,0,0-1.73-.84v-.86a1.3,1.3,0,0,1,1.31-1.3h14.06a1.3,1.3,0,0,1,1.3,1.3v1a6.54,6.54,0,0,0-2.13,1l.5,1.33Q293.27,596.17,294,596.26Z" transform="translate(-41.82)"/><path class="cls-6" d="M132.79,221.91h0s.6,18.32,1,28.23,0,39.63,0,49.67-.37,23.33-.5,26.59c-.11,3.05.32,18,.89,25.32h0c-3.4,8.93-9,18.49-18.07,28.45a203,203,0,0,1-21,19.61c-2.38,2-6.27,4.26-4.64,12.29s6.89,28.47,10.41,47.53,5.9,29.35,5.65,34-.62,11,.5,14.15l-.88,0a25,25,0,0,1-3.2.08c-1.31-.12-2.27-.66-2.19-2.34.12-2.88-1-15.67-2.14-26.09s-6.14-37-9.4-53.3-5.77-55.44-6.15-66.1-1-13.3-3.26-21.69-1.25-13-1.76-18.19-4.77-22.7-7.9-33.11S58.36,255,52,235.22s-8.53-58.08-9.53-77,1.64-36.37,2.51-43.9,3-31,3.14-38.38a32.65,32.65,0,0,1,.31-4c10.6,9,42.35,12.5,54.57,4.62a7.22,7.22,0,0,0-.76,1.13c-1.38,2.76-5.09,9.84-.5,9.53s6-5.9,8.34-7,7.59-6.14,10.79-6.52,9.7-2.56,11.75-3.18a6.11,6.11,0,0,0-.77.61A38.61,38.61,0,0,1,125.7,75a43.33,43.33,0,0,0-10.21,9.22c-3.2,4.2-9.22,12.91-7.47,14.67s7.27-1.82,10-5.7,7.58-6.48,7.89-6.64A3.59,3.59,0,0,0,124.83,89c.5,3.38-2.14,18.18,1.51,18.18s4.8-6.53,5.14-9.78c.5-4.73-.25-5.39,4.26-7.27a22.86,22.86,0,0,0,5.52-3.17s12,6.56,18.56,9.57a17.06,17.06,0,0,0,4.6,1.26c5,16.58,32.93,40.83,44.24,75.67,0,0,0,0,0,0,3.34,17.39,6.75,36.08,7.5,43.52,1.19,11.87,2.86,40,3.7,47.83s3.84,28.26,5.35,34.78,6.69,25.59,10.2,33.11S257.32,359.8,263,376s13.38,44.65,16.72,64.39,7.87,38.29,10.2,46.82,5,14.89,3.84,17.23a12.69,12.69,0,0,1-1.86,2.51,28.24,28.24,0,0,1-5,4.35v-6.19c0-4.14-2.26-7.78-4.14-11.67S279.47,477.91,277,467s-14.3-49.42-15.92-55.57-2-5-17.94-8.28-32.11-15.05-41-23c-2.41-6.15-5-12.47-8-16.52a196.31,196.31,0,0,1-15.38-26.76c-3.85-8.53-4.52-13.21-13.39-27.92s-20.07-51.51-24.08-64.06C139.77,240.29,136.68,232.22,132.79,221.91Z" transform="translate(-41.82)"/><path class="cls-4" d="M295.64,585c-1.39.33-2.77.67-3.74.87a58.35,58.35,0,0,0-7.1,2.18l0,.13c-3.26-.66-6.64-1.33-9.41-1.95,1.58-.5,5.41-1.66,9.43-2.85h0S294.11,584.73,295.64,585Z" transform="translate(-41.82)"/><path class="cls-4" d="M287.55,591.39h-8.89a1.3,1.3,0,0,0-1.31,1.3v.86a8.87,8.87,0,0,0-2-.51V593a5.4,5.4,0,0,1-1.34-1.63,35.47,35.47,0,0,1,5.7-1.34C283.73,590.79,287.55,591.39,287.55,591.39Z" transform="translate(-41.82)"/><path class="cls-4" d="M286.88,505.13v6.19a26,26,0,0,1-9.16,4c-5.15,1.09-9.47,1.54-12.49.71a5.7,5.7,0,0,1-4.22-3.72c-1.68-4.85-3.18-7.69-3.35-12.87s-7.86-21.57-12-29.6-21.73-41.31-25.92-48.16-13-29.77-15.88-37.13c-.55-1.42-1.11-2.9-1.7-4.38,8.88,7.94,25.06,19.73,41,23s16.31,2.14,17.94,8.28S274.46,456.09,277,467s3.89,22.58,5.77,26.46S286.88,501,286.88,505.13Z" transform="translate(-41.82)"/><path class="cls-5" d="M286.17,571.78l0,3.21a50.2,50.2,0,0,0-12,2.9l-2.28-.38c0-.58,0-1.24,0-1.92a37.25,37.25,0,0,1,7.8-2.59c1.6-.37,3.54-.75,6-1.15Z" transform="translate(-41.82)"/><path class="cls-5" d="M269.35,564.59c3.84,1.82,12.61,6.21,16.34,7.18v.08c-2.42.4-4.36.78-6,1.15l0-.09a53.76,53.76,0,0,1-10.35-4.77,11.87,11.87,0,0,1-2.44-1.94,6,6,0,0,1-.33-1.32c-.07-.73.11-1.41,1.21-1C268.13,564,268.66,564.26,269.35,564.59Z" transform="translate(-41.82)"/><path class="cls-5" d="M285.68,580.08c-1.13.31-3.62,1-6.13,1.61-1.65-.39-5.24-.8-7.6-1.08h0c-.86-.1-1.57-.2-1.94-.26a1.81,1.81,0,0,1-1.19-1.84c0-.69.34-1.3,1.12-1.24.45,0,1.15.13,2,.26l2.28.38C278.93,578.71,285.37,580,285.68,580.08Z" transform="translate(-41.82)"/><path class="cls-4" d="M279.72,572.91l0,.09a37.25,37.25,0,0,0-7.8,2.59,4.74,4.74,0,0,0-1.3-3.17c-1.26-1.26-1.29-3.56-1.26-4.27A53.76,53.76,0,0,0,279.72,572.91Z" transform="translate(-41.82)"/><path class="cls-5" d="M279.07,594.4l.19,1.42s-.44.55-1.92.58a14.48,14.48,0,0,1-5.7-1.46l-.18-1.41a7.25,7.25,0,0,1,3.88-.48,8.87,8.87,0,0,1,2,.51A9.72,9.72,0,0,1,279.07,594.4Z" transform="translate(-41.82)"/><path class="cls-4" d="M279.55,581.68l-6.79,1.75a12.92,12.92,0,0,0-.8-2.83C274.31,580.88,277.9,581.29,279.55,581.68Z" transform="translate(-41.82)"/><path class="cls-4" d="M279.72,590a35.47,35.47,0,0,0-5.7,1.34,9.29,9.29,0,0,1-.73-2.86C275,589,277.41,589.54,279.72,590Z" transform="translate(-41.82)"/><path class="cls-4" d="M274,591.35a5.4,5.4,0,0,0,1.34,1.63V593a7.25,7.25,0,0,0-3.88.48l.18,1.41a14.48,14.48,0,0,0,5.7,1.46v1.35c-2,2.53-7.1,2.35-12.14,5.83a72.64,72.64,0,0,1,2.33-9.43c.48-1.34.59-4.86.55-8.52h1.27c0,.67.52,1.64,2.84,2.5q.48.18,1.08.36A9.29,9.29,0,0,0,274,591.35Z" transform="translate(-41.82)"/><path class="cls-4" d="M272.75,583.43a13.59,13.59,0,0,1,.18,2.25,20.17,20.17,0,0,1-3.24-1,1.45,1.45,0,0,0-.33.91h-1.27c0-2.51-.11-5.1-.21-7.13h.94a1.81,1.81,0,0,0,1.19,1.84c.37.06,1.07.16,1.94.26h0A12.92,12.92,0,0,1,272.75,583.43Z" transform="translate(-41.82)"/><path class="cls-4" d="M271.94,575.59c.05.67,0,1.33,0,1.92-.86-.13-1.57-.23-2-.26-.78-.06-1.12.55-1.12,1.24h-.94c0-.78-.07-1.47-.11-2.06-.22-3.85-1.19-5.91-1.81-11.49l.64-.07a6,6,0,0,0,.33,1.32,11.87,11.87,0,0,0,2.44,1.94c0,.71,0,3,1.26,4.27A4.74,4.74,0,0,1,271.94,575.59Z" transform="translate(-41.82)"/><path class="cls-4" d="M269,562l.3,2.61c-.69-.32-1.22-.56-1.54-.68-1.1-.43-1.28.25-1.21,1L266,565c-.07-.62-.13-1.29-.19-2-.59-7.15,1.59-10.66,3.05-13.08a54.79,54.79,0,0,1,.23,8.69.83.83,0,0,1-.16-.09.86.86,0,0,0-1.32.58A3.13,3.13,0,0,0,269,562Z" transform="translate(-41.82)"/><path class="cls-4" d="M203.31,146.42c1.37,6.74,3.35,16.64,5.35,27-11.31-34.84-39.19-59.09-44.24-75.67,6.84,1,16-.59,20.12-2.9l4.18-2.33h0C192.27,100.76,200.57,133,203.31,146.42Z" transform="translate(-41.82)"/><path class="cls-7" d="M62.49.38H186.25c-2.68,4.9-9.37,15.93-11.54,19.95s-3.85,13.21-6.86,17.39c0,0-4.87-3.13-14.62-2-1.25.14-2.59.35-4,.65-12.41,2.64-36.94,9.59-45,11.48S81.3,55.48,69,52.6,56.1,44.44,56.1,44.44l0-.16c.46-2.16,5.3-25.28,5.58-29.94C62,9.46,62.49.38,62.49.38Z" transform="translate(-41.82)"/><path class="cls-7" d="M180.3,68.61a10,10,0,0,1-1.16.71c-1.41.5-3.92-.83-3.92-.83-.75-3.93-4.52-11.87-4.52-11.87C170,53.77,168.77,50,168.77,50a16.27,16.27,0,0,1,.11-2.79h0C169.67,50.46,176,58.07,180.3,68.61Z" transform="translate(-41.82)"/><path class="cls-4" d="M168.79,39.15a2.67,2.67,0,0,0-2.95,1.44c-1.89,3.06-1.76,5.86-2.57,8.87s-1,9.75-1,9.75h0c-.6-.27-1.18-.52-1.72-.74a44,44,0,0,1-7.78-4.72c-.82-4.21-.34-13.68.49-18v0c9.75-1.12,14.62,2,14.62,2A3.92,3.92,0,0,1,168.79,39.15Z" transform="translate(-41.82)"/><path class="cls-3" d="M52.83,585.57c2.17.19,7.9,1.12,9.07,3.38s1.25,4.65,2.76,4.86,27.25,3.14,44.45-15.84c.34-.37.7-.75,1.09-1.14h0a51,51,0,0,1,18.3-11.11c7.61-2.55,21.59-6.08,25.92-11.22,0,0,1.37-.88,2.26,2.13s2.82,8.53,2.38,9.53-4.34,4.88-11.7,7.13-21.45,3.75-28.67,8.94S101,595.47,89.79,597.32s-18.7,2.17-24.8.66-10.79-2.92-12.16-6.18S51.64,585.46,52.83,585.57Z" transform="translate(-41.82)"/><path class="cls-4" d="M152,539.62c3.18,6.65,2.51,9.57,2.47,14.87-4.32,5.14-18.31,8.67-25.92,11.22,1.55-5.23,8.93-13.48,12-18.34s8.42-11.25,7.28-17.36C148.74,532.58,150.09,535.71,152,539.62Z" transform="translate(-41.82)"/><path class="cls-6" d="M153.23,35.7v0c-.83,4.34-1.31,13.81-.49,18-.53-.39-1-.78-1.51-1.16-2.82-2.32-8-1.38-9.72-1.19s-13.36-.5-16-.62-6,1.06-7.47,1.51a108.87,108.87,0,0,0-11.42,5.39c-1.43.94-7.53,4.71-5.77,7.41s6.27-.19,9.72-1.44,6.4-3.32,9-3.33,5,.19,8.17.25c-1.91.69-6.45,2.34-8.17,2.83-2.2.62-5.14,1.82-6.21,3.2-.94,1.21-7.89,6.78-10.45,10h0c-12.22,7.89-44,4.39-54.57-4.62.76-5.88,2.8-11.29,3.82-15.7,1.25-5.39,1.51-10.41,3.26-12l.66.09,0,.16S56.72,49.71,69,52.6s27.22-2.89,35.25-4.77,32.55-8.84,45-11.48C150.64,36.06,152,35.85,153.23,35.7Z" transform="translate(-41.82)"/><path class="cls-4" d="M147.77,530c1.13,6.11-4.25,12.5-7.28,17.36s-10.43,13.11-12,18.34a51,51,0,0,0-18.3,11.11h0l-.1-.11c-3.5-4.05-13.33-9-17.69-11A2.36,2.36,0,0,1,91,563v-.08l5.17.36c1.08.09,1.33-1.37.75-1.64a24.81,24.81,0,0,0-5.44-1.14h0c1.54-3.41,3.07-3.77,4.87-5,2.16,1.38,4,2.68,5,2.54,1.55-.2-.41-2.34-.41-2.34a21.36,21.36,0,0,0-3-2.26l3.77-2.73a10.14,10.14,0,0,1,3.43.62c1.29.46,1.78.12,1.88-.38s-.28-1.25-2-2.09a5.36,5.36,0,0,0-1.49-.37l0-.28,5.21-4.49.1-.19c1.7.83,2.89,1.44,3.19,1.63,1.08.67,2.76.25,1.59-1.76a9.51,9.51,0,0,0-2.85-2l2.24-2.17a47,47,0,0,0,5.3.49c2.93,0,.21-1.92-2.18-2.63-.27-.08-.66-.17-1.15-.27,0,0,.82-.86,1.4-1.4a2.48,2.48,0,0,1,.41-.33c1.75-1.25,3.7-.47,6,1.08,2.42,1.68,6,1.42,10.95,1.08s6.77-3.09,7.53-4.85.17-6.6-.66-10.46c0-.16-.07-.33-.11-.52,2.56-.87,5,.77,5.79,4a44.53,44.53,0,0,0,1.5,4.64Z" transform="translate(-41.82)"/><path class="cls-4" d="M141.51,403.29c1.64,15.67-2.38,30.1-3,36.74s-1.25,38.51-1.25,41.77,1.13,8.65,2.51,13.67c1,3.45.35,4.54-2.2,6.1-1.15.7-2.71,1.51-4.7,2.68-5.9,3.47-21.39,3.42-25.84,3.49-1.12-3.16-.75-9.51-.5-14.15s-2.14-14.93-5.65-34-8.78-39.5-10.41-47.53,2.26-10.28,4.64-12.29a203,203,0,0,0,21-19.61c9-10,14.67-19.52,18.07-28.45,0,.5.07,1,.11,1.39C134.87,359.76,139.88,387.61,141.51,403.29Z" transform="translate(-41.82)"/><path class="cls-3" d="M140.59,521.85c.83,3.85,1.41,8.7.66,10.46s-2.59,4.52-7.53,4.85-8.53.59-10.95-1.08c-2.25-1.56-4.2-2.34-6-1.08-.28-2.34,1-5.52,2-8.62s-1.17-7.27-5.6-9.89c-3.09-1.84-6.85-1.71-10.29-.29-.14-2.86.12-3.71,0-8.3v0a25,25,0,0,0,3.2-.08l.88,0c4.45-.07,19.94,0,25.84-3.49,2-1.17,3.54-2,4.7-2.68.18,4.77,2,15.49,2.93,19.76C140.52,521.52,140.56,521.69,140.59,521.85Z" transform="translate(-41.82)"/><path class="cls-4" d="M113.25,516.47c4.42,2.62,6.6,6.8,5.6,9.89s-2.3,6.28-2,8.62a2.48,2.48,0,0,0-.41.33c-.58.54-1.4,1.4-1.4,1.4-3.8-.77-13.43-1.95-17.06-1.7h0c-1.55-.68-2.82-1.22-3.6-1.53h0c0-.31,0-.64,0-1,0,0,0,0,0,0,.08-.21.8-1.92,4.18-2.62,3.6-.75,2.46-1.41,2.46-1.41-.83-3,0-9.82.48-11.59a14.05,14.05,0,0,1,1.47-.69C106.4,514.77,110.16,514.64,113.25,516.47Z" transform="translate(-41.82)"/><path class="cls-5" d="M116.17,537c2.39.71,5.11,2.63,2.18,2.63a47,47,0,0,1-5.3-.49c-2.53-.32-5.4-.71-8-.84-2.44-1.17-5-2.34-7.05-3.26,3.63-.25,13.25.92,17.06,1.7C115.51,536.82,115.9,536.91,116.17,537Z" transform="translate(-41.82)"/><path class="cls-5" d="M94,536.72c-.67-.27-1.31-.52-1.89-.73-.78-.29.17-3.1,1.51-2.76a7,7,0,0,1,.75.27c.78.3,2.06.84,3.6,1.53h0c2.08.92,4.62,2.09,7.05,3.26,2.16,1,4.22,2.1,5.8,3a9.51,9.51,0,0,1,2.85,2c1.17,2-.5,2.43-1.59,1.76-.3-.18-1.5-.79-3.19-1.63-1.46-.72-3.32-1.61-5.31-2.53C100.37,539.44,96.81,537.86,94,536.72Z" transform="translate(-41.82)"/><path class="cls-4" d="M113.05,539.13l-2.24,2.17c-1.58-.91-3.64-2-5.8-3C107.65,538.42,110.52,538.81,113.05,539.13Z" transform="translate(-41.82)"/><path class="cls-4" d="M110.1,576.71l.1.11c-.39.39-.75.77-1.09,1.14-17.2,19-42.95,16.05-44.45,15.84s-1.6-2.6-2.76-4.86-6.9-3.19-9.07-3.38c.07-6.07,3.74-9,6.44-10.92,2.9-2.1,8.15-3.76,10.41-4.93s6.92-5.87,7.3-7a0,0,0,0,1,0,0,1.86,1.86,0,0,0,.18-.23,2.45,2.45,0,0,1,1.49-1,3.9,3.9,0,0,0-.39,1.64c0,.65,1.13.94,4.3,1.37,2.23.3,5.45.62,5.89-1.09l.21-.68,2.32.19V563a2.36,2.36,0,0,0,1.43,2.75C96.78,567.69,106.6,572.65,110.1,576.71Z" transform="translate(-41.82)"/><path class="cls-5" d="M108.89,543.47l-.1.19c-3.5-.43-11.06-.23-15.28-.08l-2.4.08a5.38,5.38,0,0,1,1.18-2.72c2.16.05,9.24-.23,11.29,0C105.57,541.87,107.42,542.75,108.89,543.47Z" transform="translate(-41.82)"/><path class="cls-4" d="M108.79,543.66l-5.21,4.49a36.56,36.56,0,0,0-10.07-4.57C97.73,543.43,105.29,543.23,108.79,543.66Z" transform="translate(-41.82)"/><path class="cls-5" d="M98.45,548.33a28.74,28.74,0,0,1,5.09.1,5.36,5.36,0,0,1,1.49.37c1.74.83,2.14,1.51,2,2.09s-.58.84-1.88.38a10.14,10.14,0,0,0-3.43-.62,51.17,51.17,0,0,0-7.78.45h0c-1.27-.65-2.53-1.23-3.65-1.74l0,0A60.37,60.37,0,0,1,98.45,548.33Z" transform="translate(-41.82)"/><path class="cls-5" d="M103.58,548.15l0,.28a28.74,28.74,0,0,0-5.09-.1A16.46,16.46,0,0,0,91,546.21h-.06a11.71,11.71,0,0,1,.19-2.55l2.4-.08A36.56,36.56,0,0,1,103.58,548.15Z" transform="translate(-41.82)"/><path class="cls-4" d="M103.58,540.95c-2-.23-9.13.05-11.29,0a1.45,1.45,0,0,1,.74-.44,10,10,0,0,0-2.55.16A5.77,5.77,0,0,1,94,536.72C96.81,537.86,100.37,539.44,103.58,540.95Z" transform="translate(-41.82)"/><path class="cls-4" d="M101.73,550.65,98,553.38h0a45.69,45.69,0,0,0-4-2.28A51.17,51.17,0,0,1,101.73,550.65Z" transform="translate(-41.82)"/><path class="cls-5" d="M85.72,547.53l.27.08c.32.12,1.34.5,2.74,1.08l1.57.67c1.12.5,2.38,1.08,3.65,1.74h0a45.69,45.69,0,0,1,4,2.28h0a21.36,21.36,0,0,1,3,2.26s2,2.14.41,2.34c-1,.14-2.84-1.15-5-2.54a29.19,29.19,0,0,0-3.46-2c-1-.47-2.18-1-3.32-1.44s-2.26-.93-3.2-1.36a7.19,7.19,0,0,1-2.46-1.5.37.37,0,0,1-.08-.21A1.7,1.7,0,0,1,85.72,547.53Z" transform="translate(-41.82)"/><path class="cls-6" d="M101,528.46s1.14.66-2.46,1.41c-3.38.7-4.1,2.41-4.18,2.62,0-4.15.41-10.67,4.38-13.82a17.94,17.94,0,0,1,2.74-1.81C101,518.64,100.17,525.49,101,528.46Z" transform="translate(-41.82)"/><path class="cls-5" d="M96.91,561.61c.58.26.33,1.73-.75,1.64L91,562.88l-2.32-.19-.46-.05c-1-.15-1.72-.54-1.57-1a1.57,1.57,0,0,1,1.6-1.34,10.42,10.42,0,0,1,1.87.05l1.36.15A24.81,24.81,0,0,1,96.91,561.61Z" transform="translate(-41.82)"/><path class="cls-4" d="M90.92,546.21H91a16.46,16.46,0,0,1,7.48,2.12,60.37,60.37,0,0,0-8.14,1l0,0-1.57-.67.07-.17c-.1-.09-.89-.89-1.4-3.75A3.18,3.18,0,0,1,89.34,541a4.94,4.94,0,0,1,1.14-.36A10,10,0,0,1,93,540.5a1.45,1.45,0,0,0-.74.44,5.38,5.38,0,0,0-1.18,2.72A11.71,11.71,0,0,0,90.92,546.21Z" transform="translate(-41.82)"/><path class="cls-4" d="M96.33,555.43c-1.8,1.24-3.33,1.61-4.87,5h0l-1.36-.15h0a7.09,7.09,0,0,1,.3-1.13c.18-1.53-7.9-1.47-9.44-1.13a1.57,1.57,0,0,0-.81.43l.4-1.91v0c.3.12,1-.48,1-.48,1.44-2.51,5.09-3.45,8-4h0c1.14.48,2.31,1,3.32,1.44A29.19,29.19,0,0,1,96.33,555.43Z" transform="translate(-41.82)"/><path class="cls-4" d="M92.09,536c.57.21,1.21.46,1.89.73a5.77,5.77,0,0,0-3.49,3.94,4.94,4.94,0,0,0-1.14.36A8.6,8.6,0,0,1,92.09,536Z" transform="translate(-41.82)"/><path class="cls-4" d="M81,558c1.55-.34,9.62-.39,9.44,1.13a7.09,7.09,0,0,0-.3,1.13h0a10.42,10.42,0,0,0-1.87-.05,1.57,1.57,0,0,0-1.6,1.34c-.15.49.6.88,1.57,1l.46.05-.21.68c-.44,1.72-3.66,1.39-5.89,1.09-3.17-.43-4.29-.72-4.3-1.37a3.9,3.9,0,0,1,.39-1.64,1.74,1.74,0,0,1,.52-.05c1.33,0,1.24-1.83,1.24-1.83a2.74,2.74,0,0,0-1-.16,7,7,0,0,1,.75-1A1.57,1.57,0,0,1,81,558Z" transform="translate(-41.82)"/><path class="cls-5" d="M89.55,552h0c-2.91.58-6.55,1.53-8,4,0,0-.7.6-1,.48-.11,0-.17-.18-.12-.48a6.3,6.3,0,0,1,1.86-3.3,8.1,8.1,0,0,1,4.06-2.11C87.29,551.08,88.41,551.54,89.55,552Z" transform="translate(-41.82)"/><path class="cls-4" d="M88.8,548.52l-.07.17c-1.39-.58-2.42-1-2.74-1.08l-.27-.08a6.73,6.73,0,0,1,1.68-2.76C87.91,547.63,88.7,548.43,88.8,548.52Z" transform="translate(-41.82)"/><path class="cls-4" d="M83.89,549.15a7.19,7.19,0,0,0,2.46,1.5,8.1,8.1,0,0,0-4.06,2.11h0A7.18,7.18,0,0,1,83.89,549.15Z" transform="translate(-41.82)"/><path class="cls-5" d="M78.65,561.45a2.45,2.45,0,0,0-1.49,1,1.86,1.86,0,0,1-.18.23,0,0,0,0,0,0,0c-.25.27-.63.52-.48-.7a3.07,3.07,0,0,1,2.9-2.62,2.74,2.74,0,0,1,1,.16s.09,1.87-1.24,1.83A1.74,1.74,0,0,0,78.65,561.45Z" transform="translate(-41.82)"/><path class="cls-8" d="M56.13,44.28c.46-2.16,5.3-25.28,5.58-29.94.28-4.89.78-14,.78-14H186.25c-2.68,4.9-9.37,15.93-11.54,19.95s-3.85,13.21-6.86,17.39c0,0-4.87-3.13-14.62-2-1.25.14-2.59.35-4,.65-12.41,2.64-36.94,9.59-45,11.48S81.3,55.48,69,52.6,56.1,44.44,56.1,44.44Z" transform="translate(-41.82)"/><path class="cls-8" d="M125.88,86.54c-.31.16-5.28,2.87-7.89,6.64s-8.22,7.46-10,5.7,4.26-10.47,7.47-14.67A43.33,43.33,0,0,1,125.7,75a38.61,38.61,0,0,0,6.09-3.82,6.11,6.11,0,0,1,.77-.61c1.49-1.05,4-2.36,5.18-3.71A5.64,5.64,0,0,1,142.56,65" transform="translate(-41.82)"/><path class="cls-8" d="M162.23,59.21s.23-6.74,1-9.75.68-5.81,2.57-8.87a2.67,2.67,0,0,1,2.95-1.44c1,.11.41,4.77.09,8.07a16.27,16.27,0,0,0-.11,2.79s1.25,3.76,1.93,6.61c0,0,3.76,7.94,4.52,11.87,0,0,2.51,1.33,3.92.83a10,10,0,0,0,1.16-.71c6.33-4.18,35.8-25.7,46.75-37.42C239.09,18.32,253.31.38,253.31.38h54.51s1.51,7.23-5.77,13-32.19,27.51-38.54,33-34.79,24.41-44.15,29.43c-7.66,4.1-22.62,12.28-30.64,16.7l-4.18,2.33c-4.11,2.31-13.27,3.89-20.12,2.9a17.06,17.06,0,0,1-4.6-1.26c-6.52-3-18.56-9.57-18.56-9.57a22.86,22.86,0,0,1-5.52,3.17c-4.52,1.89-3.76,2.55-4.26,7.27-.34,3.25-1.51,9.78-5.14,9.78s-1-14.8-1.51-18.18a3.59,3.59,0,0,1,1.05-2.44h0c2.23-2.07,11.44-8.59,12.15-9.84s2.76-4.14,4.21-4.39" transform="translate(-41.82)"/><path class="cls-8" d="M127.8,60.56l.85-.31s4.52-.56,7.47-.68c0,0,3.26-2,3.88-2.91" transform="translate(-41.82)"/><path class="cls-8" d="M103,76.55c2.56-3.18,9.5-8.75,10.45-10,1.07-1.38,4-2.58,6.21-3.2,1.72-.49,6.26-2.14,8.17-2.83" transform="translate(-41.82)"/><path class="cls-8" d="M132.66,70.52l-.09,0c-2,.62-8.6,2.82-11.75,3.18s-8.41,5.46-10.79,6.52-3.76,6.65-8.34,7-.88-6.77.5-9.53a7.22,7.22,0,0,1,.76-1.13" transform="translate(-41.82)"/><path class="cls-8" d="M127.8,60.56h0c-3.21-.06-5.53-.25-8.17-.25s-5.58,2.08-9,3.33-8,4.13-9.72,1.44,4.33-6.46,5.77-7.41a108.87,108.87,0,0,1,11.42-5.39c1.51-.44,4.83-1.64,7.47-1.51s14.3.81,16,.62,6.9-1.12,9.72,1.19c.46.38,1,.77,1.51,1.16a44,44,0,0,0,7.78,4.72c.53.22,1.11.47,1.72.74a17.82,17.82,0,0,0,5.06,1.72" transform="translate(-41.82)"/><path class="cls-8" d="M167.85,37.71a3.92,3.92,0,0,1,.94,1.43" transform="translate(-41.82)"/><path class="cls-8" d="M168.89,47.21c.78,3.25,7.06,10.86,11.41,21.39h0" transform="translate(-41.82)"/><path class="cls-8" d="M208.67,173.47c3.34,17.39,6.75,36.08,7.5,43.52,1.19,11.87,2.86,40,3.7,47.83s3.84,28.26,5.35,34.78,6.69,25.59,10.2,33.11S257.32,359.8,263,376s13.38,44.65,16.72,64.39,7.87,38.29,10.2,46.82,5,14.89,3.84,17.23a12.69,12.69,0,0,1-1.86,2.51,28.24,28.24,0,0,1-5,4.35,26,26,0,0,1-9.16,4c-5.15,1.09-9.47,1.54-12.49.71a5.7,5.7,0,0,1-4.22-3.72c-1.68-4.85-3.18-7.69-3.35-12.87s-7.86-21.57-12-29.6-21.73-41.31-25.92-48.16-13-29.77-15.88-37.13c-.55-1.42-1.11-2.9-1.7-4.38-2.41-6.15-5-12.47-8-16.52a196.31,196.31,0,0,1-15.38-26.76c-3.85-8.53-4.52-13.21-13.39-27.92s-20.07-51.51-24.08-64.06c-1.49-4.63-4.58-12.69-8.47-23-6.64-17.63-15.57-41.84-22.64-66.68-1.51-5.3-8.36-10.82-12.2-13.16" transform="translate(-41.82)"/><path class="cls-8" d="M188.73,92.55c3.54,8.22,11.84,40.44,14.58,53.87,1.37,6.74,3.35,16.64,5.35,27" transform="translate(-41.82)"/><path class="cls-8" d="M134.12,351.71c-.57-7.35-1-22.27-.89-25.32.13-3.26.5-16.56.5-26.59s.38-39.75,0-49.67-1-28.23-1-28.23" transform="translate(-41.82)"/><path class="cls-8" d="M55.47,44.19c-1.76,1.64-2,6.65-3.26,12-1,4.41-3.06,9.82-3.82,15.7a32.65,32.65,0,0,0-.31,4c-.13,7.4-2.26,30.85-3.14,38.38s-3.51,25-2.51,43.9,3.14,57.19,9.53,77S67,276.61,70.15,287s7.4,28,7.9,33.11-.5,9.78,1.76,18.19,2.89,11,3.26,21.69,2.89,49.8,6.15,66.1,8.28,42.9,9.4,53.3,2.26,23.21,2.14,26.09c-.08,1.68.87,2.22,2.19,2.34a25,25,0,0,0,3.2-.08l.88,0c4.45-.07,19.94,0,25.84-3.49,2-1.17,3.54-2,4.7-2.68,2.55-1.57,3.15-2.65,2.2-6.1-1.37-5-2.51-10.41-2.51-13.67s.63-35.12,1.25-41.77,4.65-21.07,3-36.74-6.64-43.53-7.27-50.17c0-.42-.08-.89-.11-1.39" transform="translate(-41.82)"/><path class="cls-8" d="M202.11,380.17c8.88,7.94,25.06,19.73,41,23s16.31,2.14,17.94,8.28S274.46,456.09,277,467s3.89,22.58,5.77,26.46,4.14,7.53,4.14,11.67v6.19" transform="translate(-41.82)"/><path class="cls-8" d="M134.12,351.71h0c-3.4,8.93-9,18.49-18.07,28.45a203,203,0,0,1-21,19.61c-2.38,2-6.27,4.26-4.64,12.29s6.89,28.47,10.41,47.53,5.9,29.35,5.65,34-.62,11,.5,14.15" transform="translate(-41.82)"/><path class="cls-8" d="M294,596.26q-.75-.09-1.63-.24l-.5-1.33a6.54,6.54,0,0,1,2.13-1l.5-.13a9.07,9.07,0,0,1,5,.29l.5,1.34S299.2,596.85,294,596.26Z" transform="translate(-41.82)"/><path class="cls-8" d="M277.35,596.4a14.48,14.48,0,0,1-5.7-1.46l-.18-1.41a7.25,7.25,0,0,1,3.88-.48,8.87,8.87,0,0,1,2,.51,9.72,9.72,0,0,1,1.73.84l.19,1.42S278.82,596.37,277.35,596.4Z" transform="translate(-41.82)"/><path class="cls-8" d="M277.35,593.55v-.86a1.3,1.3,0,0,1,1.31-1.3h14.06a1.3,1.3,0,0,1,1.3,1.3v1" transform="translate(-41.82)"/><path class="cls-8" d="M294,596.26v1.5a1.31,1.31,0,0,1-1.3,1.31H278.66a1.31,1.31,0,0,1-1.31-1.31V596.4" transform="translate(-41.82)"/><path class="cls-8" d="M295.12,590.38c-1.17-.31-2.89-.68-4.89-1.1-1.68-.35-3.54-.72-5.46-1.1-3.26-.66-6.64-1.33-9.41-1.95-.88-.19-1.7-.38-2.43-.55a20.17,20.17,0,0,1-3.24-1,1.45,1.45,0,0,0-.33.91c0,.67.52,1.64,2.84,2.5q.48.18,1.08.36c1.74.52,4.12,1.05,6.43,1.52,4,.79,7.84,1.38,7.84,1.38" transform="translate(-41.82)"/><path class="cls-8" d="M284.79,588a58.35,58.35,0,0,1,7.1-2.18c1-.2,2.35-.54,3.74-.87l1.23-.28c2.09-.46,4-.74,4.3-.23,1,1.55-.5,1.8-2.47,2.47-.6.21-1.63.5-2.76.82-2.58.7-5.72,1.51-5.72,1.51" transform="translate(-41.82)"/><path class="cls-8" d="M273.9,591.39l.12,0a35.47,35.47,0,0,1,5.7-1.34" transform="translate(-41.82)"/><path class="cls-8" d="M285.68,580.08c-1.13.31-3.62,1-6.13,1.61l-6.79,1.75-.19.05" transform="translate(-41.82)"/><path class="cls-8" d="M275.36,586.23c1.58-.5,5.41-1.66,9.43-2.85l6.21-1.85c2.81-.84,5.09-1.55,5.87-1.82l1.1-.37c2.16-.7,4.61-1.42,5-2.39.46-1.12-.42-1.21-1-1.25-.16,0-1.51.32-3.36.81-4.24,1.12-11.16,3.06-12.73,3.49l-.23.07" transform="translate(-41.82)"/><path class="cls-8" d="M295.64,585c-1.53-.26-10.85-1.61-10.85-1.61" transform="translate(-41.82)"/><path class="cls-8" d="M297.12,582.65c-1.72-.38-6.07-1-6.07-1" transform="translate(-41.82)"/><path class="cls-8" d="M271.95,580.59c-.86-.1-1.57-.2-1.94-.26a1.81,1.81,0,0,1-1.19-1.84c0-.69.34-1.3,1.12-1.24.45,0,1.15.13,2,.26l2.28.38c4.7.82,11.14,2.13,11.44,2.19h0" transform="translate(-41.82)"/><path class="cls-8" d="M279.55,581.68c-1.65-.39-5.24-.8-7.6-1.08" transform="translate(-41.82)"/><path class="cls-8" d="M274.24,577.89a50.2,50.2,0,0,1,12-2.9h0" transform="translate(-41.82)"/><path class="cls-8" d="M271.94,575.59a37.25,37.25,0,0,1,7.8-2.59c1.6-.37,3.54-.75,6-1.15l.47-.07h0" transform="translate(-41.82)"/><path class="cls-8" d="M299.6,571.67a23.56,23.56,0,0,1-7.13,2.07h0" transform="translate(-41.82)"/><path class="cls-8" d="M292.47,570.73a29.33,29.33,0,0,0,7.85-2.8,9.21,9.21,0,0,0,3.87-3.34s1.68-2,1.33.87c-.22,1.9-2.24,4.39-5.92,6.2" transform="translate(-41.82)"/><polyline class="cls-8" points="244.34 569.82 244.34 571.78 244.38 574.99 244.38 576.45"/><polyline class="cls-8" points="250.62 569.6 250.63 570.73 250.65 573.74 250.66 575.29 250.67 576.23"/><path class="cls-8" d="M298.63,576.45s-4.51-.74-6.14-1.15" transform="translate(-41.82)"/><path class="cls-8" d="M279.72,572.91a53.76,53.76,0,0,1-10.35-4.77,11.87,11.87,0,0,1-2.44-1.94,6,6,0,0,1-.33-1.32c-.07-.73.11-1.41,1.21-1,.31.12.84.36,1.54.68,3.84,1.82,12.61,6.21,16.34,7.18" transform="translate(-41.82)"/><path class="cls-8" d="M269,558.56a.83.83,0,0,1-.16-.09.86.86,0,0,0-1.32.58A3.13,3.13,0,0,0,269,562a7.77,7.77,0,0,0,1.32.85c4.42,2.34,11,6.18,29.63,4.17" transform="translate(-41.82)"/><path class="cls-8" d="M300.74,563.24h0c-5.7.33-21.28,1.74-31.66-4.68" transform="translate(-41.82)"/><path class="cls-8" d="M300.32,567.93c0-.31,0-.61.05-.9.08-1.37.19-2.63.34-3.78.81-6.42,2.58-9.84,4.48-13.77,1.07-2.26,2.52-11.18-2.25-11.08h-.21c-2.75.21-4.65,1.28-7.08,2.17a20,20,0,0,1-7.93,1.22,25.64,25.64,0,0,1-5.25-.69c-4-1-6.17-2.58-10.05-2.49-2.42.06-3.7.71-4.27,1.94-.67,1.46-.34,3.77.3,6.88.16.78.28,1.61.38,2.43a54.79,54.79,0,0,1,.23,8.69h0" transform="translate(-41.82)"/><polyline class="cls-8" points="257.78 571.66 257.78 571.67 256.81 576.45"/><polyline class="cls-8" points="256.15 579.35 255.47 582.68 255.05 584.71"/><path class="cls-8" d="M296,587.76h0a26.8,26.8,0,0,0-.83,2.61,23.54,23.54,0,0,0-.59,2.87" transform="translate(-41.82)"/><path class="cls-8" d="M282.47,541.11c.34,2.66-.6,11.13-1.23,13.32s-.25,2.95,5.34,3,10.91-.12,11.47-2.19-1.25-7.41-1.57-9-.83-5.7-.83-5.7" transform="translate(-41.82)"/><path class="cls-8" d="M275.36,593a5.4,5.4,0,0,1-1.34-1.63,9.29,9.29,0,0,1-.73-2.86h0" transform="translate(-41.82)"/><path class="cls-8" d="M272.93,585.68a13.59,13.59,0,0,0-.18-2.25,12.92,12.92,0,0,0-.8-2.83h0" transform="translate(-41.82)"/><path class="cls-8" d="M272,577.51c0-.58,0-1.24,0-1.92a4.74,4.74,0,0,0-1.3-3.17c-1.26-1.26-1.29-3.56-1.26-4.27v-.22" transform="translate(-41.82)"/><polyline class="cls-8" points="227.53 564.6 227.53 564.59 227.23 561.98"/><path class="cls-8" d="M268.82,549.87c-1.46,2.43-3.64,5.93-3.05,13.08.06.71.12,1.38.19,2,.61,5.58,1.59,7.64,1.81,11.49,0,.58.07,1.27.11,2.06.1,2,.19,4.63.21,7.13,0,3.66-.07,7.17-.55,8.52a72.64,72.64,0,0,0-2.33,9.43c-.19,1-.36,2-.51,3.09a46.37,46.37,0,0,0-.52,6.07c-.08,6.85-.58,11.12,4.18,13.71,0,0-.08-4.42,2.68-4.34s12.85-.75,14.12,1.51,1.59,3.84,2.68,3.68,14.71-1.1,22.08-10.61c3.67-4.73,5.48-8.65,4.2-19.59-.14-1.19-.31-2.48-.53-3.85a133.25,133.25,0,0,1-1.51-28.66c.24-5.09,1.45-12.72-.77-21.75,0-.19-.09-.38-.14-.58-2.43-9.28-7.19-15.8-9.2-19.32s-3.52-6.79-6.89-6.49l-.21,0" transform="translate(-41.82)"/><path class="cls-8" d="M266.59,606.06c3.52-1,11.88-.17,16,0a113.09,113.09,0,0,0,13-.48,10.79,10.79,0,0,1,9.34,3.74" transform="translate(-41.82)"/><path class="cls-8" d="M291.9,603.41c2.82.12,8.65.62,10.79-.88a6.52,6.52,0,0,1,6.83,0" transform="translate(-41.82)"/><path class="cls-8" d="M280.42,603.59c-2.95,0-8.21.69-11.07-.81" transform="translate(-41.82)"/><path class="cls-8" d="M291.92,507c.66,1.6,2,6.09,3.16,9.48a20.1,20.1,0,0,0,1.59,3.67c1.37,2.07,3.76,7,4.46,7.9a15.4,15.4,0,0,1,1.86,5.43,25.48,25.48,0,0,1,0,4.95" transform="translate(-41.82)"/><path class="cls-8" d="M265.23,516a70,70,0,0,1,1.27,10.86c.12,4.31-.29,10.65,1.64,13.66,0,0,0,0,0,0" transform="translate(-41.82)"/><path class="cls-8" d="M264.69,606.68c-1,1.85-2.11,7.83-2.28,12.05s.5,9.61,6.61,11.49,20.32,1.64,23.33,1.42,10.54-1.39,14.84-4.33,11-9.41,11-18.88c0-11.11-3.16-22.4-2.89-29.6.25-6.46,1.07-14.92,1.23-22.71.15-7.1-2.27-11.31-5.27-13.27" transform="translate(-41.82)"/><path class="cls-8" d="M137.55,501.57c.18,4.77,2,15.49,2.93,19.76,0,.19.08.36.11.52.83,3.85,1.41,8.7.66,10.46s-2.59,4.52-7.53,4.85-8.53.59-10.95-1.08c-2.25-1.56-4.2-2.34-6-1.08a2.48,2.48,0,0,0-.41.33c-.58.54-1.4,1.4-1.4,1.4" transform="translate(-41.82)"/><path class="cls-8" d="M98,535c2.08.92,4.62,2.09,7.05,3.26,2.16,1,4.22,2.1,5.8,3a9.51,9.51,0,0,1,2.85,2c1.17,2-.5,2.43-1.59,1.76-.3-.18-1.5-.79-3.19-1.63-1.46-.72-3.32-1.61-5.31-2.53-3.21-1.51-6.77-3.09-9.6-4.22-.67-.27-1.31-.52-1.89-.73-.78-.29.17-3.1,1.51-2.76a7,7,0,0,1,.75.27c.78.3,2.06.84,3.6,1.53" transform="translate(-41.82)"/><path class="cls-8" d="M98,535h0c3.63-.25,13.25.92,17.06,1.7.49.1.88.19,1.15.27,2.39.71,5.11,2.63,2.18,2.63a47,47,0,0,1-5.3-.49c-2.53-.32-5.4-.71-8-.84h0" transform="translate(-41.82)"/><path class="cls-8" d="M93,540.5a1.45,1.45,0,0,0-.74.44,5.38,5.38,0,0,0-1.18,2.72,11.71,11.71,0,0,0-.19,2.55,11.41,11.41,0,0,0,.06,1.15" transform="translate(-41.82)"/><path class="cls-8" d="M90.48,540.66A5.77,5.77,0,0,1,94,536.72h0" transform="translate(-41.82)"/><path class="cls-8" d="M88.81,548.53h0c-.1-.09-.89-.89-1.4-3.75A3.18,3.18,0,0,1,89.34,541a4.94,4.94,0,0,1,1.14-.36A10,10,0,0,1,93,540.5" transform="translate(-41.82)"/><path class="cls-8" d="M92.23,540.95h.06c2.16.05,9.24-.23,11.29,0" transform="translate(-41.82)"/><path class="cls-8" d="M91,543.66h.13l2.4-.08c4.22-.15,11.78-.35,15.28.08" transform="translate(-41.82)"/><path class="cls-8" d="M93.51,543.58a36.56,36.56,0,0,1,10.07,4.57" transform="translate(-41.82)"/><path class="cls-8" d="M91,546.21a16.46,16.46,0,0,1,7.48,2.12l.29.2" transform="translate(-41.82)"/><path class="cls-8" d="M90.31,549.32a60.37,60.37,0,0,1,8.14-1,28.74,28.74,0,0,1,5.09.1,5.36,5.36,0,0,1,1.49.37c1.74.83,2.14,1.51,2,2.09s-.58.84-1.88.38a10.14,10.14,0,0,0-3.43-.62,51.17,51.17,0,0,0-7.78.45" transform="translate(-41.82)"/><path class="cls-8" d="M98,553.38a21.36,21.36,0,0,1,3,2.26s2,2.14.41,2.34c-1,.14-2.84-1.15-5-2.54a29.19,29.19,0,0,0-3.46-2c-1-.47-2.18-1-3.32-1.44s-2.26-.93-3.2-1.36a7.19,7.19,0,0,1-2.46-1.5.37.37,0,0,1-.08-.21,1.7,1.7,0,0,1,1.91-1.41l.27.08c.32.12,1.34.5,2.74,1.08l1.57.67c1.12.5,2.38,1.08,3.65,1.74h0a45.69,45.69,0,0,1,4,2.28" transform="translate(-41.82)"/><path class="cls-8" d="M89.55,552c-2.91.58-6.55,1.53-8,4,0,0-.7.6-1,.48-.11,0-.17-.18-.12-.48a6.3,6.3,0,0,1,1.86-3.3,8.1,8.1,0,0,1,4.06-2.11" transform="translate(-41.82)"/><path class="cls-8" d="M277.35,597.76c-2,2.53-7.1,2.35-12.14,5.83" transform="translate(-41.82)"/><path class="cls-8" d="M293.74,598.57c.45,1.8,9.2,1.21,12.52-1.46s7.86,0,7.86,0" transform="translate(-41.82)"/><line class="cls-8" x1="71.23" y1="539.13" x2="68.99" y2="541.3"/><line class="cls-8" x1="66.96" y1="543.66" x2="61.76" y2="548.15"/><polyline class="cls-8" points="59.91 550.65 56.14 553.38 56.13 553.38"/><path class="cls-8" d="M78.65,561.44h0a3.9,3.9,0,0,0-.39,1.64c0,.65,1.13.94,4.3,1.37,2.23.3,5.45.62,5.89-1.09l.21-.68" transform="translate(-41.82)"/><path class="cls-8" d="M90.1,560.3a7.09,7.09,0,0,1,.3-1.13c.18-1.53-7.9-1.47-9.44-1.13a1.57,1.57,0,0,0-.81.43,7,7,0,0,0-.75,1l-.06.09" transform="translate(-41.82)"/><path class="cls-8" d="M88.67,562.69l-.46-.05c-1-.15-1.72-.54-1.57-1a1.57,1.57,0,0,1,1.6-1.34,10.42,10.42,0,0,1,1.87.05l1.36.15a24.81,24.81,0,0,1,5.44,1.14c.58.26.33,1.73-.75,1.64L91,562.88Z" transform="translate(-41.82)"/><path class="cls-8" d="M77,562.72a1.86,1.86,0,0,0,.18-.23,2.45,2.45,0,0,1,1.49-1,1.74,1.74,0,0,1,.52-.05c1.33,0,1.24-1.83,1.24-1.83a2.74,2.74,0,0,0-1-.16A3.07,3.07,0,0,0,76.5,562c-.15,1.22.23,1,.48.7" transform="translate(-41.82)"/><line class="cls-8" x1="38.73" y1="556.56" x2="38.33" y2="558.46"/><path class="cls-8" d="M77,562.72a0,0,0,0,0,0,0c-.38,1.11-5.06,5.82-7.3,7s-7.51,2.83-10.41,4.93c-2.7,1.95-6.37,4.85-6.44,10.92v.17" transform="translate(-41.82)"/><path class="cls-8" d="M52.83,585.57c2.17.19,7.9,1.12,9.07,3.38s1.25,4.65,2.76,4.86,27.25,3.14,44.45-15.84c.34-.37.7-.75,1.09-1.14h0a51,51,0,0,1,18.3-11.11c7.61-2.55,21.59-6.08,25.92-11.22,0,0,1.37-.88,2.26,2.13s2.82,8.53,2.38,9.53-4.34,4.88-11.7,7.13-21.45,3.75-28.67,8.94S101,595.47,89.79,597.32s-18.7,2.17-24.8.66-10.79-2.92-12.16-6.18S51.64,585.46,52.83,585.57Z" transform="translate(-41.82)"/><path class="cls-8" d="M147.77,530a44.53,44.53,0,0,1-1.5-4.64c-.83-3.26-3.23-4.91-5.79-4" transform="translate(-41.82)"/><path class="cls-8" d="M154.43,554.49c0-5.3.71-8.22-2.47-14.87-1.88-3.91-3.22-7-4.19-9.61" transform="translate(-41.82)"/><path class="cls-8" d="M128.51,565.71c1.55-5.23,8.93-13.48,12-18.34s8.42-11.25,7.28-17.36h0" transform="translate(-41.82)"/><path class="cls-8" d="M96.33,555.43c-1.8,1.24-3.33,1.61-4.87,5" transform="translate(-41.82)"/><path class="cls-8" d="M110.1,576.71c-3.5-4.05-13.33-9-17.69-11A2.36,2.36,0,0,1,91,563" transform="translate(-41.82)"/><path class="cls-8" d="M92.09,536a8.6,8.6,0,0,0-2.75,5" transform="translate(-41.82)"/><path class="cls-8" d="M87.39,544.77a6.73,6.73,0,0,0-1.68,2.76.83.83,0,0,0-.06.21" transform="translate(-41.82)"/><path class="cls-8" d="M83.89,549.15a7.18,7.18,0,0,0-1.62,3.59" transform="translate(-41.82)"/><path class="cls-8" d="M94.36,532.5c0-4.15.41-10.67,4.38-13.82a17.94,17.94,0,0,1,2.74-1.81,14.05,14.05,0,0,1,1.47-.69c3.44-1.41,7.2-1.55,10.29.29,4.42,2.62,6.6,6.8,5.6,9.89s-2.3,6.28-2,8.62" transform="translate(-41.82)"/><path class="cls-8" d="M94.35,533.49c0-.31,0-.64,0-1" transform="translate(-41.82)"/><path class="cls-8" d="M101.48,516.87c-.48,1.77-1.31,8.62-.48,11.59,0,0,1.14.66-2.46,1.41-3.38.7-4.1,2.41-4.18,2.62,0,0,0,0,0,0h0" transform="translate(-41.82)"/><path class="cls-8" d="M103,516.18c-.14-2.86.12-3.71,0-8.3" transform="translate(-41.82)"/><path class="cls-8" d="M48.38,71.94c10.6,9,42.35,12.5,54.57,4.62h0" transform="translate(-41.82)"/><path class="cls-8" d="M164.42,97.75h0c5,16.58,32.93,40.83,44.24,75.67,0,0,0,0,0,0" transform="translate(-41.82)"/><path class="cls-8" d="M153.23,35.74c-.83,4.34-1.31,13.81-.49,18" transform="translate(-41.82)"/></g></g></g></svg>