<svg xmlns="http://www.w3.org/2000/svg" xmlns:xlink="http://www.w3.org/1999/xlink" viewBox="0 0 337.01 631.72"><defs><style>.cls-1,.cls-10,.cls-11{fill:none;}.cls-2{clip-path:url(#clip-path);}.cls-3{fill:#308596;}.cls-4{fill:#86c5c9;}.cls-5{fill:#4a93a2;}.cls-6{fill:#233960;}.cls-7{fill:#0e5f7b;}.cls-8{fill:#3a7087;}.cls-9{fill:#005573;}.cls-10{stroke:#023d4d;}.cls-10,.cls-11{stroke-miterlimit:10;stroke-width:0.75px;}.cls-11{stroke:#0a2347;}</style><clipPath id="clip-path" transform="translate(-7.54)"><rect class="cls-1" y="2.02" width="350" height="643.2"/></clipPath></defs><title>guy</title><g id="Layer_2" data-name="Layer 2"><g id="Layer_1-2" data-name="Layer 1"><g class="cls-2"><path class="cls-3" d="M276.6.38H344s-8.39,27.51-9.52,36.22S328.81,56,325.73,63s-2.53,8.39-2.53,13.1-1.62,6.28-1.78,8.39A30.45,30.45,0,0,1,315.63,80c-2.2-2.36-6.76-5.86-10-6.68s-6.68-4.15-12.94-7.73-26.62-5-29.15-3.66c0,0,.37-5.13,1-8.3s4-13.8,5.73-19.9c1-3.71,2.76-12.22,4.19-20.15C275.36,8.45,276.18,3.58,276.6.38Z" transform="translate(-7.54)"/><path class="cls-3" d="M321.41,84.46a50.79,50.79,0,0,1-1.71,7.08c-.65-.81-4.64-3.66-5.69-4.64a15.81,15.81,0,0,0-2.12-1.3c-3.45-1.91-9.95-5.17-12.05-6.35-2.77-1.54-13.92-5.61-21-7.81a13.18,13.18,0,0,0-8.73-.05,25.54,25.54,0,0,0-5.51,3.14c-3.31,2.22-1.89,4.19-1.57,5.94l-.57.74-.28.36-1.92-3.29c-2-3.91.85-8.67,1.21-11.6a9.25,9.25,0,0,1,2.08-4.76c2.53-1.38,22.88.08,29.15,3.66s9.69,6.92,12.94,7.73,7.81,4.32,10,6.68A30.45,30.45,0,0,0,321.41,84.46Z" transform="translate(-7.54)"/><path class="cls-4" d="M268.07,143.44a30.57,30.57,0,0,1-4.37.71c-7.06.79-9.19-.43-11.63-2.06s-.88-5.29,2.73-5.29c3.29,0,3.66-.93,5-2.61s3.3-2.2,3.46-4.15,2.24-10.34,2.57-12.29a50.42,50.42,0,0,0,.73-9.27c-.07-1.25-.1-3.52-.06-5.95h-.11c-2.28,2-6.27,14.65-7.4,18.48s-7.17,9.36-8.3,9.93-4,.25-4.89-1.46,1.55-6.67,1.71-7.32.33-3.29.48-5.84c0-.51.06-1,.09-1.49.16-2.85,2.36-9,3.74-10.67a4,4,0,0,0,.59-1.11c.94-2.43,1.38-7.11,2.35-10.12,1.08-3.41,5.42-8.75,7.42-11.36l.28-.36.57-.74c2.1-2.65,6.07-7.18,7.09-9.07a13.18,13.18,0,0,1,8.73.05c7.08,2.2,18.23,6.27,21,7.81,2.11,1.17,8.6,4.43,12.05,6.35-.21,1.6-.34,3.64-.44,5.95-.19,4.8-.21,10.75-.37,16.2-.25,8.05-1.38,9.19-2.37,11.2s-3.18,8.33-5.46,13.95-6.26,4.48-7.89,4.16c-.51,1.05-1,2-1.45,2.76-3.18,5.37-7.49,2.85-9.05,2.44h0c-.25.45-.49.85-.71,1.19a5.4,5.4,0,0,1-3.92,2.31h0a11.17,11.17,0,0,1-4.3-.24C274.44,145.1,269.8,144.45,268.07,143.44Z" transform="translate(-7.54)"/><path class="cls-5" d="M281.69,166.92c.13,1.67-1.47,3.14-5,3.52a20.21,20.21,0,0,1-3.27.06c-5.87-.33-21-.57-34.68,0s-27,.12-34.51-1.66a130.77,130.77,0,0,0-13.31-2.08c-8.23-1-18.26-1.75-26.63-2.07a2.62,2.62,0,0,1-2.49-3.07c.92-5.32,2.62-16.63,1.89-24.3-1-10.33-2.93-38.57-2.45-61.24S163,46,162.68,31.64,161.15.38,161.15.38h20.09c0,10.1.17,49-.64,57.79s-1.3,36.64-2.29,41.52-3.74,14.65-.81,15.14,61.37.65,70,1.46l.48,0c-.15,2.55-.35,5.29-.48,5.84s-2.61,5.61-1.71,7.32,3.75,2,4.89,1.46,7.16-6.11,8.3-9.93,5.12-16.44,7.4-18.48h.11c0,2.43,0,4.69.06,5.95a50.42,50.42,0,0,1-.73,9.27c-.33,2-2.41,10.34-2.57,12.29s-2.13,2.5-3.46,4.15-1.71,2.61-5,2.61c-3.61,0-5.17,3.66-2.73,5.29s4.57,2.85,11.63,2.06a30.57,30.57,0,0,0,4.37-.71c1.73,1,6.38,1.66,7.84,2.08a11.17,11.17,0,0,0,4.3.24l0,.11C280.39,148.68,281.53,164.8,281.69,166.92Z" transform="translate(-7.54)"/><path class="cls-3" d="M253,.38H276.6c-.42,3.21-1.23,8.07-2.16,13.18-4-.36-15.67.37-18.84,0S253.16,5.26,253,.38Z" transform="translate(-7.54)"/><path class="cls-6" d="M168,330.68c2.82,2.79,4.28,6.31,5,11.32,1.22,8.78.17,36.38,0,49.24s-1.44,29,.58,32.72,6.43,14.82,5.44,25.4.93,16.28.14,24.25-1.14,13.74,1.11,17.94c.26-1.11.5-2,.7-2.8,1.14-4.39,1.3-11.88.81-17.25a70.61,70.61,0,0,1,1.63-22c1.95-7.32,6.19-13,7-18.72s.65-45.26.32-50.47.65-14.81,3.91-20.83,5.21-15.3,4-18.36-7.31-.74-2.1-22.75a27.32,27.32,0,0,0-4.13-4.23c-3.42-2.69-.86-8.18-1.46-16.48s-2.21-24.29-1.22-35.77.48-29.43-1-39.19-8.78-38.34-9.27-42.37-1.1.61-1.46,3.3-1.83,11-2.57,12.94-2.57,18.56-2.08,23.32.24,10.38-1,14,.85,12.94,1.09,15.27-1.49,2.81-1.48,6.35,1,12.21.75,18.56.21,17.34-.75,19.65-2.67,2.82-2.67,8.18-1.34,8.79-2.57,10.63,1.1,3.66,1.46,7.08A64.38,64.38,0,0,1,168,330.68Zm-60.95-40c-2.84-2.48-5.42-5.75-6.36-12.26-.77-5.4,1.63-10.91,0-16.28S94,247.5,92.2,239.69,87,211.19,85,202.24s-3.9-27.67-5.44-37.8a71.73,71.73,0,0,0,9.35,1.82c24.58,3.26,71.31,2.61,74.88,2.44s26.57-2.07,27.06-1.89h0a130.77,130.77,0,0,1,13.31,2.08c7.49,1.78,20.83,2.28,34.51,1.66s28.81-.37,34.68,0a20.21,20.21,0,0,0,3.27-.06c-.5,5.43-2.3,27.57-2.3,33.44s-2,23.6-2.44,27.34-1.63,14.82-1.63,18.56-1.21,19.57-1.78,23.28c-.48,3.08-4.51,7.58-8.24,13.18,0,2.86,2.06,11.48,2.7,13.43s1.38,7.57.41,10.34-5.12,3.75-3.66,7.17,3.34,11.55,1.3,18.64-1.35,23-1.61,28.72-3.6,33.38-3.92,42.49-2.45,25.24-4.4,29.64-4.07,18.07-4.88,21.65.33,9.6-.81,12.05-2.45,4.06-2.61,7.81-1.3,11.88-5,15.63-1.46,5.53-1.3,10.42-5.37,12-5.87,15.46,2.77,7.33,2.12,12.86-1.95,13.18-4.07,13.52a46.5,46.5,0,0,1-5.28-.05c-1.72-.07-3.78-.18-6-.34-7.92-.56-18.23-1.72-25-3.78a25.13,25.13,0,0,1-4-1.53,66.51,66.51,0,0,0-6.88-2.79,6.82,6.82,0,0,1-3.8-2.79c-.88-1.5-1.29-3.82-1.33-7.81-5.37,1.34-20.38.37-26.62-1.1a16.73,16.73,0,0,0-2.09-.36c-6-.75-13.69.64-17,.85a14.53,14.53,0,0,1-4.66-.38,6.34,6.34,0,0,1-1-.35s-1.21-10.32,1-16.36a29.08,29.08,0,0,0,1.51-5.91c-5-5.13-3.21-8.34-3.61-18.51s-4.48-12.78-6.6-16.44.49-10.26.48-14.8c-1.9-2.15-3.49-3.39-2.84-7.35.51-3.12.81-8.46-1.3-16.11a105.11,105.11,0,0,1-3.58-20.83c-.33-5.53-1.79-26.3-2.31-34.52s-3.32-31.25-4.37-34.59-1-13.68-1.87-19-1.13-9.27,2.45-9.69l1.71-.08C105.81,307.9,107.14,295.08,107,290.69Z" transform="translate(-7.54)"/><path class="cls-3" d="M274.44,13.56C273,21.49,271.29,30,270.25,33.71c-1.7,6.11-5.12,16.72-5.73,19.9s-1,8.3-1,8.3a9.25,9.25,0,0,0-2.08,4.76c-.36,2.93-3.17,7.69-1.21,11.6l1.92,3.29c-2,2.61-6.34,8-7.42,11.36-1,3-1.4,7.69-2.35,10.12-3.56.76-26.39.06-33.07-.92s-28.16-.65-31.58-.82-4.88-2.27-9.44-1.61c1-4.88,1.46-32.72,2.29-41.52s.64-47.69.64-57.79H253c.12,4.88-.61,12.82,2.57,13.18S270.45,13.2,274.44,13.56Zm-56.57-3.33a5.29,5.29,0,1,0-5.29,5.28A5.29,5.29,0,0,0,217.88,10.23Z" transform="translate(-7.54)"/><path class="cls-3" d="M252.41,103a4,4,0,0,1-.59,1.11c-1.38,1.71-3.58,7.82-3.74,10.67,0,.48-.06,1-.09,1.49l-.48,0c-8.63-.81-67.07-1-70-1.46s-.16-10.26.81-15.14c4.56-.65,6,1.43,9.44,1.61s24.9-.15,31.58.82S248.85,103.8,252.41,103Z" transform="translate(-7.54)"/><path class="cls-7" d="M237.84,612.31c.3,5-1.73,8.3-7.92,13.68s-29.14,6-39.07,4.88-16.6-9.11-17.25-13.51.49-11.56,3.21-13c-.19,4.19,0,8.26,1.11,10.74,2.77,6.19,16.6,8.14,23.6,8.22s31-2.52,33.38-13.6a24.29,24.29,0,0,0,.49-3.5S237.53,607.31,237.84,612.31Z" transform="translate(-7.54)"/><path class="cls-8" d="M176.19,564.32c-.68-9.05,1.08-17.46,2.23-19.64h.08a10,10,0,0,0,2.88,8.54c1.82,1.71,4.76,1.71,6.11,0s3.42-8.06,4.78-11.33c6.82,2.06,17.12,3.22,25,3.78.41,2.35,1.3,11.13,3.58,12.84s3.5.24,3.91-1,1.54-5.21,1.54-5.21c1.79,3.34,1.06,6.43,1.3,10.28s2.12,12.27,3.18,18c.94,5.18,5.35,15.51,4.56,25.56a24.29,24.29,0,0,1-.49,3.5c-2.37,11.08-26.38,13.68-33.38,13.6s-20.83-2-23.6-8.22c-1.1-2.48-1.3-6.55-1.11-10.74a132,132,0,0,1,1.76-14.74,34.18,34.18,0,0,0,.1-9.78,86.29,86.29,0,0,0-1.57-9.18A45.77,45.77,0,0,1,176.19,564.32Z" transform="translate(-7.54)"/><path class="cls-8" d="M226.34,552.33s-1.14,4-1.54,5.21-1.62,2.68-3.91,1-3.17-10.5-3.58-12.84c2.25.16,4.3.27,6,.34C223.33,546,224.55,549,226.34,552.33Z" transform="translate(-7.54)"/><path class="cls-5" d="M190.89,166.8h0c-.49-.17-23.48,1.73-27.06,1.89s-50.3.82-74.88-2.44a71.73,71.73,0,0,1-9.35-1.82c-15.41-4.2-15.89-11.78-16-14.24a15.64,15.64,0,0,0,2.55.47c2.93.18,2.38-3,.85-5.86a6.14,6.14,0,0,0-2.15-2h0A67.88,67.88,0,0,0,66,132.55c2.62.24,2.26,0,2.26,0,4.33-.12,1.81-8.67,1.81-8.67a29.9,29.9,0,0,0-.89-7.39l.89-.2c4.55-1.14,10.42-.81,16.6-1.14s24.25,1.14,26.86,1.14.65-9.27.81-12.21a15.36,15.36,0,0,0-.81-5.53c4.23-6.51,4.56-31.42,4.56-37.12s2.28-25.56,2.28-29.63,1.46-24.58,2-31.42h38.79s1.21,16.93,1.53,31.26-1,21.82-1.46,44.49,1.46,50.91,2.45,61.24c.72,7.67-1,19-1.89,24.3a2.62,2.62,0,0,0,2.49,3.07C172.63,165,182.65,165.84,190.89,166.8Z" transform="translate(-7.54)"/><path class="cls-8" d="M192.26,541.89c-1.36,3.27-3.44,9.62-4.78,11.33s-4.28,1.71-6.11,0a10,10,0,0,1-2.88-8.54,16.54,16.54,0,0,1,2.88-7.11,66.51,66.51,0,0,1,6.88,2.79A25.13,25.13,0,0,0,192.26,541.89Z" transform="translate(-7.54)"/><path class="cls-7" d="M151.43,579.7a37,37,0,0,0-7.88,7.19c-3.1,3.91-4.87,13.38-20,17.12s-33.21,1.63-39.79,1.3-20.11-4.23-20-7.89,1.55-5,3.34-4c0,0,9.28,4.72,25.89,5.37s34.06,1.6,40.21-6c7.81-9.69,13.76-16.34,22.71-21.06s12.34-3.2,20.25-7.4a45.77,45.77,0,0,0,.9,6.33,86.29,86.29,0,0,1,1.57,9.18h-.1a54.74,54.74,0,0,1-16.39,4.88l-1.6-9.27A29.06,29.06,0,0,0,151.43,579.7Z" transform="translate(-7.54)"/><path class="cls-8" d="M181.37,537.57a16.54,16.54,0,0,0-2.88,7.11h-.08c-1.14,2.19-2.91,10.59-2.23,19.64-7.91,4.2-11.32,2.69-20.25,7.4S141,583.1,133.23,592.78c-6.16,7.63-23.61,6.68-40.21,6s-25.89-5.37-25.89-5.37c-1.13-7,5.87-11.24,8.63-12.86a76.25,76.25,0,0,0,11.39-8.79c3.42-3.25,20.19-17.09,25.57-22.63s11.23-17.75,13.2-23.17a14.53,14.53,0,0,0,4.66.38c3.27-.21,10.92-1.6,17-.85-.35,6-2.19,14.45,1.48,16.24s9.93,1.54,14.24-.82,13.91-6,14.32-6.15A6.82,6.82,0,0,0,181.37,537.57Z" transform="translate(-7.54)"/><path class="cls-8" d="M176.24,527c0,4,.45,6.31,1.33,7.81-.41.16-10.09,3.84-14.32,6.15s-10.58,2.61-14.24.82-1.83-10.26-1.48-16.24a16.73,16.73,0,0,1,2.09.36C155.85,527.34,170.86,528.32,176.24,527Z" transform="translate(-7.54)"/><path class="cls-9" d="M160.57,575.45l1.6,9.27-10.74-5A29.06,29.06,0,0,1,160.57,575.45Z" transform="translate(-7.54)"/><path class="cls-3" d="M78.6.38h43.75c-.53,6.84-2,27.35-2,31.42s-2.28,23.93-2.28,29.63-.33,30.61-4.56,37.12c-4.4,2.12-9.45,2.81-27.51,1.61-15.23-1-19.51,3.12-19.51,3.12-.13-1.82-.21-3.88-.21-6.08,0-6.84-2.32-10.81-3.31-13.62-.23-.66-.5-1.3-.78-1.91l.08,0c5.36-3.59,1.34-12.38,1.34-12.38-.09-.57-.18-1.09-.29-1.57l.29-.06s.73-6.59.73-12.94,3.5-15.14,3.84-17.34.23-14.25,0-17.29c1.78.54,3.9.26,5.36.45a4.39,4.39,0,0,0,4.82-3.34c.71-2.53-.59-7.33-.35-10.26S78.6.38,78.6.38Zm32.45,10.08c0-2.93-1.27-5.29-2.85-5.29s-2.86,2.37-2.86,5.29,1.27,5.28,2.86,5.28S111.06,13.37,111.06,10.45Z" transform="translate(-7.54)"/><path class="cls-3" d="M113.52,98.54a15.36,15.36,0,0,1,.81,5.53c-.16,2.94,1.79,12.21-.81,12.21s-20.67-1.46-26.86-1.14-12.05,0-16.6,1.14l-.89.2c-.67-2.83-1.51-5-1.71-5.67a47.09,47.09,0,0,1-1-7.54s4.28-4.12,19.51-3.12C104.07,101.35,109.12,100.66,113.52,98.54Z" transform="translate(-7.54)"/><path class="cls-3" d="M66,.38H78.6S78.28,4,78,6.89s1.06,7.73.35,10.26a4.39,4.39,0,0,1-4.82,3.34C72.1,20.3,70,20.58,68.2,20a4.6,4.6,0,0,1-1.64-.85c-1.2-1-1.32-6.38-1.12-11.32C65.56,4.85,65.8,2,66,.38Z" transform="translate(-7.54)"/><path class="cls-4" d="M53.9,104.75A17.1,17.1,0,0,0,49,109.53c-.37.79-.18,7.82,0,9.9s1.76,8.78,1.4,11.84c0,0,4.94,5.61,7.2,8.42a34,34,0,0,1,7.32,3.14,6.14,6.14,0,0,1,2.15,2c1.52,2.81,2.08,6-.85,5.86a15.64,15.64,0,0,1-2.55-.47c-.53-.13-1.09-.29-1.66-.45-4.7.31-13.86-.24-18.14-2.07s-8.42-2.94-10.44-4.7-6.29-7-7.14-12.82a34.51,34.51,0,0,0-4.64-12.57,11.84,11.84,0,0,1-2.32-8.12c.19-3.33,0-12.35,0-18.58,0-.72,0-1.4,0-2,0-.81,0-1.53,0-2.16,0-3.83,0-5.24,0-5.72,6.37-3.6,8.68-9.55,21.91-8.4,3.69.32,10.82.65,16.11,1.71.35.07.68.15,1,.23.69,1.5,2.55,4.05,3.94,7.15.28.61.55,1.25.78,1.91,1,2.81,3.31,6.78,3.31,13.62,0,2.2.08,4.25.21,6.08a47.09,47.09,0,0,0,1,7.54c.2.72,1,2.85,1.71,5.67a29.9,29.9,0,0,1,.89,7.39s2.52,8.55-1.81,8.67c0,0,.36.24-2.26,0s-7.15-5.81-8.12-11.66-.31-10.81-1.65-13.06a37.26,37.26,0,0,0-2.31-3.08Z" transform="translate(-7.54)"/><path class="cls-3" d="M9,.38H66c-.19,1.6-.43,4.47-.56,7.49h-.08c-1.68.61-2,4.88-2.37,7.82s2.84,7.52,2.37,12.41S63,44.45,63,47.75s-.53,9.44-1.63,10.59-1,4.19,0,5c.81.71,1.48,1.94,2,4.29.11.48.2,1,.29,1.57-2.12-2-4.15-3.42-9.93-3.18S46.94,67.61,43,64.84s-7.24-4.64-12.21-2.69-6.83,7.24-9,9.56-9.77,6.64-12.29,7C10.92,74,9,64.84,8.33,56.42s-.39-38.83,0-44.94S9,.38,9,.38Z" transform="translate(-7.54)"/><path class="cls-3" d="M19.26,81c-.34.19-.69.37-1.05.55-1.63.79-4.88,1.14-5.37,2.21s3.1,4.71,6.11,5.12h.33c0,.63,0,1.31,0,2H19.1s-1.55.63-7.32-2.36C7.74,86.45,7,79,9.49,78.68s10.1-4.63,12.29-7,4.07-7.61,9-9.56,8.31-.08,12.21,2.69,4.88,1.46,10.67,1.22,7.81,1.22,9.93,3.18c0,0,4,8.79-1.34,12.38l-.08,0C60.81,78.57,59,76,58.26,74.52c-.3-.08-.63-.16-1-.23C52,73.22,44.86,72.89,41.17,72.57,27.94,71.42,25.63,77.37,19.26,81Z" transform="translate(-7.54)"/><path class="cls-10" d="M181.24.38c0,10.1.17,49-.64,57.79s-1.3,36.64-2.29,41.52-3.74,14.65-.81,15.14,61.37.65,70,1.46" transform="translate(-7.54)"/><path class="cls-10" d="M276.6.38c-.42,3.21-1.23,8.07-2.16,13.18C273,21.49,271.29,30,270.25,33.71c-1.7,6.11-5.12,16.72-5.73,19.9s-1,8.3-1,8.3a9.25,9.25,0,0,0-2.08,4.76c-.36,2.93-3.17,7.69-1.21,11.6l1.92,3.29.15.25" transform="translate(-7.54)"/><path class="cls-10" d="M263.53,61.91c2.53-1.38,22.88.08,29.15,3.66s9.69,6.92,12.94,7.73,7.81,4.32,10,6.68a30.45,30.45,0,0,0,5.79,4.48" transform="translate(-7.54)"/><path class="cls-10" d="M270.11,71.39c-1,1.89-5,6.43-7.09,9.07l-.57.74-.28.36c-2,2.61-6.34,8-7.42,11.36-1,3-1.4,7.69-2.35,10.12a4,4,0,0,1-.59,1.11c-1.38,1.71-3.58,7.82-3.74,10.67,0,.48-.06,1-.09,1.49-.15,2.55-.35,5.29-.48,5.84s-2.61,5.61-1.71,7.32,3.75,2,4.89,1.46,7.16-6.11,8.3-9.93,5.12-16.44,7.4-18.48" transform="translate(-7.54)"/><path class="cls-10" d="M267,93.5a64.05,64.05,0,0,0-.54,9c0,2.43,0,4.69.06,5.95a50.42,50.42,0,0,1-.73,9.27c-.33,2-2.41,10.34-2.57,12.29s-2.13,2.5-3.46,4.15-1.71,2.61-5,2.61c-3.61,0-5.17,3.66-2.73,5.29s4.57,2.85,11.63,2.06a30.57,30.57,0,0,0,4.37-.71,8.91,8.91,0,0,0,4.18-2.17c2.2-2.28,5.12-9.19,6.19-12.12s3.18-9,4.39-10.88" transform="translate(-7.54)"/><path class="cls-10" d="M268.07,143.44c1.73,1,6.38,1.66,7.84,2.08a11.17,11.17,0,0,0,4.3.24h0a5.4,5.4,0,0,0,3.92-2.31c.22-.34.46-.74.71-1.19a136.29,136.29,0,0,0,5.89-12.61A107.42,107.42,0,0,1,298,116.86" transform="translate(-7.54)"/><path class="cls-10" d="M284.85,142.24c1.56.41,5.88,2.94,9.05-2.44.45-.77.94-1.7,1.45-2.76,3.06-6.29,7-16.63,10.51-19.7" transform="translate(-7.54)"/><path class="cls-10" d="M295.36,137c1.63.32,5.59,1.45,7.89-4.16s4.49-11.94,5.46-13.95,2.12-3.15,2.37-11.2c.16-5.45.18-11.4.37-16.2.1-2.31.23-4.34.44-5.95" transform="translate(-7.54)"/><path class="cls-10" d="M311.45,91.54s6.38.89,8.25,0" transform="translate(-7.54)"/><path class="cls-10" d="M178.31,99.68c4.56-.65,6,1.43,9.44,1.61s24.9-.15,31.58.82,29.51,1.68,33.07.92" transform="translate(-7.54)"/><path class="cls-10" d="M122.36.38c-.53,6.84-2,27.35-2,31.42s-2.28,23.93-2.28,29.63-.33,30.61-4.56,37.12a15.36,15.36,0,0,1,.81,5.53c-.16,2.94,1.79,12.21-.81,12.21s-20.67-1.46-26.86-1.14-12.05,0-16.6,1.14" transform="translate(-7.54)"/><path class="cls-10" d="M66,.38c-.19,1.6-.43,4.47-.56,7.49-.2,4.94-.08,10.31,1.12,11.32A4.6,4.6,0,0,0,68.2,20c1.78.54,3.9.26,5.36.45a4.39,4.39,0,0,0,4.82-3.34c.71-2.53-.59-7.33-.35-10.26S78.6.38,78.6.38" transform="translate(-7.54)"/><path class="cls-10" d="M68.2,20c.23,3,.34,15.1,0,17.29s-3.84,11-3.84,17.34-.73,12.94-.73,12.94" transform="translate(-7.54)"/><path class="cls-10" d="M65.35,7.86c-1.68.61-2,4.88-2.37,7.82s2.84,7.52,2.37,12.41S63,44.45,63,47.75s-.53,9.44-1.63,10.59-1,4.19,0,5c.81.71,1.48,1.94,2,4.29.11.48.2,1,.29,1.57,0,0,4,8.79-1.34,12.38" transform="translate(-7.54)"/><path class="cls-10" d="M61.25,79.52c.37-1.52,1.2-3.84-3-5-.3-.08-.63-.16-1-.23C52,73.22,44.86,72.89,41.17,72.57c-13.22-1.15-15.54,4.8-21.91,8.4-.34.19-.69.37-1.05.55-1.63.79-4.88,1.14-5.37,2.21s3.1,4.71,6.11,5.12" transform="translate(-7.54)"/><path class="cls-10" d="M63.63,69.24c-2.12-2-4.15-3.42-9.93-3.18S46.94,67.61,43,64.84s-7.24-4.64-12.21-2.69-6.83,7.24-9,9.56-9.77,6.64-12.29,7-1.75,7.77,2.29,9.86c5.76,3,7.32,2.36,7.32,2.36" transform="translate(-7.54)"/><path class="cls-10" d="M9.49,78.68C10.92,74,9,64.84,8.33,56.42s-.39-38.83,0-44.94S9,.38,9,.38H344s-8.39,27.51-9.52,36.22S328.81,56,325.73,63s-2.53,8.39-2.53,13.1-1.62,6.28-1.78,8.39a50.79,50.79,0,0,1-1.71,7.08c-.65-.81-4.64-3.66-5.69-4.64a15.81,15.81,0,0,0-2.12-1.3c-3.45-1.91-9.95-5.17-12.05-6.35-2.77-1.54-13.92-5.61-21-7.81a13.18,13.18,0,0,0-8.73-.05,25.54,25.54,0,0,0-5.51,3.14c-3.31,2.22-1.89,4.19-1.57,5.94l0,.17" transform="translate(-7.54)"/><path class="cls-10" d="M53.9,104.75a8,8,0,0,1-1.83-4.07" transform="translate(-7.54)"/><path class="cls-10" d="M58.26,74.52c.69,1.5,2.55,4.05,3.94,7.15.28.61.55,1.25.78,1.91,1,2.81,3.31,6.78,3.31,13.62,0,2.2.08,4.25.21,6.08a47.09,47.09,0,0,0,1,7.54c.2.72,1,2.85,1.71,5.67a29.9,29.9,0,0,1,.89,7.39s2.52,8.55-1.81,8.67c0,0,.36.24-2.26,0s-7.15-5.81-8.12-11.66-.31-10.81-1.65-13.06a37.26,37.26,0,0,0-2.31-3.08" transform="translate(-7.54)"/><path class="cls-10" d="M53.91,104.75h0A17.1,17.1,0,0,0,49,109.53c-.37.79-.18,7.82,0,9.9s1.76,8.78,1.4,11.84c0,0,4.94,5.61,7.2,8.42a34,34,0,0,1,7.32,3.14,6.14,6.14,0,0,1,2.15,2c1.52,2.81,2.08,6-.85,5.86a15.64,15.64,0,0,1-2.55-.47c-.53-.13-1.09-.29-1.66-.45-3.32-1-7.17-2.34-8.3-2.5-1.71-.24-8.79-4.21-10.38-5.12s-4.82-2-5.49-5.37S35.52,126.5,35,124.67s-1.71-6.82-3.42-8.38" transform="translate(-7.54)"/><path class="cls-10" d="M253,.38c.12,4.88-.61,12.82,2.57,13.18s14.85-.36,18.84,0" transform="translate(-7.54)"/><path class="cls-10" d="M217.88,10.23a5.29,5.29,0,1,1-5.29-5.29A5.29,5.29,0,0,1,217.88,10.23Z" transform="translate(-7.54)"/><path class="cls-10" d="M111.06,10.45c0,2.92-1.27,5.28-2.85,5.28s-2.86-2.37-2.86-5.28,1.27-5.29,2.86-5.29S111.06,7.52,111.06,10.45Z" transform="translate(-7.54)"/><path class="cls-10" d="M113.52,98.54c-4.4,2.12-9.45,2.81-27.51,1.61-15.23-1-19.51,3.12-19.51,3.12" transform="translate(-7.54)"/><path class="cls-10" d="M25.7,59.22C28.05,56.86,35.14,53,39,54.67s5.87,5.2,9.6,5.61" transform="translate(-7.54)"/><path class="cls-10" d="M100.17,96.58c1.47-13.68,3.67-45.42,1.47-58.84S91.39,7.86,91.39,7.86" transform="translate(-7.54)"/><path class="cls-10" d="M234.72,7c.73,11.43,8.63,49.52,16.16,57.58" transform="translate(-7.54)"/><path class="cls-10" d="M268.08,57a40.58,40.58,0,0,1,9.25-10.14c3.91-3.18-.24-10.75,0-18.32" transform="translate(-7.54)"/><path class="cls-10" d="M62,149.75c-4.7.31-13.86-.24-18.14-2.07s-8.42-2.94-10.44-4.7-6.29-7-7.14-12.82a34.51,34.51,0,0,0-4.64-12.57,11.84,11.84,0,0,1-2.32-8.12c.19-3.33,0-12.35,0-18.58,0-.72,0-1.4,0-2,0-.81,0-1.53,0-2.16,0-3.83,0-5.24,0-5.72v-.23" transform="translate(-7.54)"/><path class="cls-10" d="M66,132.55a67.88,67.88,0,0,1-1.1,10.27" transform="translate(-7.54)"/><path class="cls-10" d="M63.63,150.2c.07,2.46.55,10,16,14.24a71.73,71.73,0,0,0,9.35,1.82c24.58,3.26,71.31,2.61,74.88,2.44s26.57-2.07,27.06-1.89" transform="translate(-7.54)"/><path class="cls-10" d="M280.23,145.86c.16,2.82,1.3,18.94,1.46,21.05.13,1.67-1.47,3.14-5,3.52a20.21,20.21,0,0,1-3.27.06c-5.87-.33-21-.57-34.68,0s-27,.12-34.51-1.66a130.77,130.77,0,0,0-13.31-2.08c-8.23-1-18.26-1.75-26.63-2.07a2.62,2.62,0,0,1-2.49-3.07c.92-5.32,2.62-16.63,1.89-24.3-1-10.33-2.93-38.57-2.45-61.24S163,46,162.68,31.64,161.15.38,161.15.38" transform="translate(-7.54)"/><path class="cls-11" d="M276.66,170.44c-.5,5.43-2.3,27.57-2.3,33.44s-2,23.6-2.44,27.34-1.63,14.82-1.63,18.56-1.21,19.57-1.78,23.28c-.48,3.08-4.51,7.58-8.24,13.18-3.29,4.92-6.35,10.7-6.58,17.09" transform="translate(-7.54)"/><path class="cls-11" d="M260.27,286.24c0,2.86,2.06,11.48,2.7,13.43s1.38,7.57.41,10.34-5.12,3.75-3.66,7.17,3.34,11.55,1.3,18.64-1.35,23-1.61,28.72-3.6,33.38-3.92,42.49-2.45,25.24-4.4,29.64-4.07,18.07-4.88,21.65.33,9.6-.81,12.05-2.45,4.06-2.61,7.81-1.3,11.88-5,15.63-1.46,5.53-1.3,10.42-5.37,12-5.87,15.46,2.77,7.33,2.12,12.86-1.95,13.18-4.07,13.52a46.5,46.5,0,0,1-5.28-.05c-1.72-.07-3.78-.18-6-.34-7.92-.56-18.23-1.72-25-3.78a25.13,25.13,0,0,1-4-1.53,66.51,66.51,0,0,0-6.88-2.79,6.82,6.82,0,0,1-3.8-2.79c-.88-1.5-1.29-3.82-1.33-7.81,0-1.6,0-3.47.12-5.65.68-15,2.58-24.45,3.86-29.77.26-1.11.5-2,.7-2.8,1.14-4.39,1.3-11.88.81-17.25a70.61,70.61,0,0,1,1.63-22c1.95-7.32,6.19-13,7-18.72s.65-45.26.32-50.47.65-14.81,3.91-20.83,5.21-15.3,4-18.36-7.31-.74-2.1-22.75c0,0,0-.05,0-.08" transform="translate(-7.54)"/><path class="cls-11" d="M201.39,327.34c-.61-2.73-2.64-6.13-4.9-9a27.32,27.32,0,0,0-4.13-4.23c-3.42-2.69-.86-8.18-1.46-16.48s-2.21-24.29-1.22-35.77.48-29.43-1-39.19-8.78-38.34-9.27-42.37-1.1.61-1.46,3.3-1.83,11-2.57,12.94-2.57,18.56-2.08,23.32.24,10.38-1,14,.85,12.94,1.09,15.27-1.49,2.81-1.48,6.35,1,12.21.75,18.56.21,17.34-.75,19.65-2.67,2.82-2.67,8.18-1.34,8.79-2.57,10.63,1.1,3.66,1.46,7.08a64.38,64.38,0,0,1-.21,11c0,.08,0,.15,0,.2" transform="translate(-7.54)"/><path class="cls-11" d="M148.69,311.55c0,4,1.22,10.08,10.34,13.76a26.34,26.34,0,0,1,8.94,5.37c2.82,2.79,4.28,6.31,5,11.32,1.22,8.78.17,36.38,0,49.24s-1.44,29,.58,32.72,6.43,14.82,5.44,25.4.93,16.28.14,24.25-1.14,13.74,1.11,17.94" transform="translate(-7.54)"/><path class="cls-11" d="M79.59,164.44c1.54,10.13,3.5,28.84,5.44,37.8s5.37,29.63,7.17,37.45,6.84,17.09,8.46,22.46-.77,10.88,0,16.28c.93,6.51,3.52,9.79,6.36,12.26,4.12,3.59,8.77,5.45,9.65,13" transform="translate(-7.54)"/><path class="cls-11" d="M105.54,311.55a.25.25,0,0,1,0-.08c.26-3.57,1.58-16.39,1.46-20.78" transform="translate(-7.54)"/><path class="cls-11" d="M137,305.57c-5.59,2.53-21.87,5.31-31.49,5.91l-1.71.08c-3.58.41-3.34,4.4-2.45,9.69s.81,15.63,1.87,19,3.85,26.37,4.37,34.59,2,29,2.31,34.52a105.11,105.11,0,0,0,3.58,20.83c2.12,7.65,1.81,13,1.3,16.11-.65,4,.93,5.2,2.84,7.35a16.42,16.42,0,0,1,4,7.8" transform="translate(-7.54)"/><path class="cls-11" d="M117.67,453.61c0,4.54-2.6,11.13-.48,14.8s6.19,6.19,6.6,16.44-1.35,13.37,3.61,18.51l.13.13" transform="translate(-7.54)"/><path class="cls-11" d="M139.73,489.68c-3.3-.61-10.08.36-11.23,5.55-.71,3.17-.71,5.45-1.11,8.13a29.08,29.08,0,0,1-1.51,5.91c-2.2,6-1,16.36-1,16.36a6.34,6.34,0,0,0,1,.35,14.53,14.53,0,0,0,4.66.38c3.27-.21,10.92-1.6,17-.85a16.73,16.73,0,0,1,2.09.36c6.24,1.47,21.25,2.45,26.62,1.1" transform="translate(-7.54)"/><path class="cls-11" d="M196.39,489.51c6.35-.59,21.81.06,32.22,11.78" transform="translate(-7.54)"/><path class="cls-11" d="M190,466.46c8.3-1.3,26.38-4.56,36.64,2.12" transform="translate(-7.54)"/><path class="cls-11" d="M129.16,451c9.77-3.74,28.1-4.72,35.29-2.77" transform="translate(-7.54)"/><path class="cls-11" d="M168.39,382.33c-3.1,9.56-11.89,29.92-28.65,46.36" transform="translate(-7.54)"/><path class="cls-11" d="M167.26,249.47c-2.46-4.68-3.58-11.94-22.88-19.57" transform="translate(-7.54)"/><path class="cls-11" d="M262.32,258.49c-3.91,5.61-4.89,11.72-18.81,21.25" transform="translate(-7.54)"/><path class="cls-10" d="M125.92,526c-2,5.42-7.83,17.64-13.2,23.17s-22.15,19.38-25.57,22.63a76.25,76.25,0,0,1-11.39,8.79C73,582.2,66,586.44,67.12,593.43c0,0,9.28,4.72,25.89,5.37s34.06,1.6,40.21-6c7.81-9.69,13.76-16.34,22.71-21.06s12.34-3.2,20.25-7.4l.05,0" transform="translate(-7.54)"/><path class="cls-10" d="M147.53,525.51c-.35,6-2.19,14.45,1.48,16.24s9.93,1.54,14.24-.82,13.91-6,14.32-6.15h0" transform="translate(-7.54)"/><path class="cls-10" d="M67.12,593.43c-1.78-1-3.17.32-3.34,4s13.35,7.57,20,7.89,24.65,2.45,39.79-1.3,16.92-13.21,20-17.12a37,37,0,0,1,7.88-7.19,29.06,29.06,0,0,1,9.13-4.25l1.6,9.27a54.74,54.74,0,0,0,16.39-4.88" transform="translate(-7.54)"/><polyline class="cls-10" points="154.63 584.72 143.89 579.7 143.79 579.65"/><path class="cls-10" d="M192.26,541.89c-1.36,3.27-3.44,9.62-4.78,11.33s-4.28,1.71-6.11,0a10,10,0,0,1-2.88-8.54,16.54,16.54,0,0,1,2.88-7.11" transform="translate(-7.54)"/><path class="cls-10" d="M178.41,544.68c-1.14,2.19-2.91,10.59-2.23,19.64a45.77,45.77,0,0,0,.9,6.33,86.29,86.29,0,0,1,1.57,9.18,34.18,34.18,0,0,1-.1,9.78,132,132,0,0,0-1.76,14.74c-.19,4.19,0,8.26,1.11,10.74,2.77,6.19,16.6,8.14,23.6,8.22s31-2.52,33.38-13.6a24.29,24.29,0,0,0,.49-3.5c.79-10-3.62-20.37-4.56-25.56-1.06-5.77-2.94-14.2-3.18-18s.49-6.94-1.3-10.28-3-6.32-3-6.32" transform="translate(-7.54)"/><path class="cls-10" d="M217.3,545.67c.41,2.35,1.3,11.13,3.58,12.84s3.5.24,3.91-1,1.54-5.21,1.54-5.21" transform="translate(-7.54)"/><path class="cls-10" d="M176.8,604.34c-2.72,1.46-3.86,8.62-3.21,13s7.33,12.37,17.25,13.51,32.89.49,39.07-4.88,8.22-8.66,7.92-13.68-2.46-6.11-2.46-6.11" transform="translate(-7.54)"/></g></g></g></svg>