<svg xmlns="http://www.w3.org/2000/svg" viewBox="0 0 340.56 225.53"><defs><style>.cls-1{fill:#565f65;}.cls-2{fill:#fff;}.cls-3{fill:#343439;stroke:#b2bcc2;stroke-miterlimit:10;}.cls-4{fill:#88c3c8;}</style></defs><title>interact</title><g id="Layer_2" data-name="Layer 2"><g id="Layer_1-2" data-name="Layer 1"><polygon class="cls-1" points="44.5 84.4 42 99.66 48.14 98.01 44.5 84.4"/><polygon class="cls-2" points="42 99.66 39.5 114.95 52.37 113.82 48.14 98.01 42 99.66"/><path class="cls-2" d="M40.21,102.66l45.54,30.1.61.26c3.9.82,11.78.77,11.78.77a1,1,0,0,1,.13,1.28c-.27.5-2.16,1.05-3.6,1.41l2.77,1.15s6.25,1.88,7.32,2.34c1.76.75,1.6,2.09-.26,1.8l-8.64-2.45s-.29-.08-.69-.16l.06.05,9,3.68s1.5.54,1,1.49c-.34.71-1.48.12-3.09-.32-1-.28-8.34-2.61-8.34-2.61l8.55,4.15s2.13.67,1.9,1.68-1.48.31-2.23.07-10.21-3.61-10.21-3.61l7.23,3.92s1.31.47.89,1.28-1.94-.06-2.77-.34c-.62-.21-6.94-2.92-6.94-2.92h0c-6.57-3.44-8.57-5.64-8.57-5.64l-41.5-24Z"/><rect class="cls-2" x="21.35" y="50.06" width="11.68" height="20.03"/><path class="cls-1" d="M5.78,95.31C6.95,69.12,21.52,62.25,21.52,62.25H33c4.89,1.15,8.35,8.2,10.33,13.83,4.26,12.09,2,30.68,1.9,41C45,138.57,42.18,142,42.18,142l-33,1.12C6.17,117.69,5.78,95.31,5.78,95.31Z"/><path class="cls-2" d="M52.76,30.41c.78,8-.74,19.75-6.8,24.13-4,2.87-12.94,1.27-17.33,0C15.83,50.83,4.49,43.74,4.49,30.41A24.13,24.13,0,0,1,28.63,6.27C42,6.27,51.48,17.14,52.76,30.41Z"/><path class="cls-3" d="M26.8,37.41c-6.4-2.26-3-16,3.32-10.13,5.15,4.77,13,.35,10.08-7.77,0,0,9.34,3.11,12.26,2.06s2-6-.78-8.19C54.49,6.9,38.43,1.41,34.28.95,27.34.17,17.74-.53,7.69,7.53c-16.35,13.1.21,37.41.85,38.09,5.15,5.57,7.79,3.81,11.17.4C21.77,43.93,26.8,37.41,26.8,37.41Z"/><path class="cls-1" d="M186.11,111.41l18.14,3.24,5.59,14.47-34-4.92,10.29-12.79m-.41-1.09-11.76,14.62,37.44,5.41L205,113.76l-19.28-3.44Z"/><path class="cls-1" d="M150,127.21l23.25-19.1,12.48,2.21s-4.46,10.55,7.58,12.84,11.7-9.4,11.7-9.4l14.15,2.54,15.15,25.38-11.6,9.53-6.94-11.76-5.86,60.48-51.61-11,12.17-57.67-13,9.52Z"/><path class="cls-4" d="M304.37,95.7l-22.8-29.38-3.23,3.95s-24.18,9.39-17.61,34.83c5.86,22.71,4.09,38.78,4.09,38.78h27.67Z"/><path class="cls-2" d="M274.83,105l-2.11,23.35-41.17-4.92a7.48,7.48,0,0,0-1.83.92,5.81,5.81,0,0,0-2,3.38,7.31,7.31,0,0,1-.76,2.61l.38.15,40.08,9.32c7.54.75,15.89,3.3,18.62-11.08l3.37-21.2Z"/><path class="cls-2" d="M221.11,128.6l6,1.8,4.56-7-7.07-5.17-4.55-.37,1,1.7-7.91-3.17a1.57,1.57,0,0,0-1.27,2.49l3.46,5.38A10.3,10.3,0,0,0,221.11,128.6Z"/><path class="cls-4" d="M9.16,142c-9.5,22,1.17,47.51,1.6,83.54H38.65L42.18,142Z"/><path class="cls-2" d="M43.74,175.56l-6.9-10.85-4.5-64.5H17.14l11.17,68.66s3.89,10.75,4.95,11.92S36,179.58,36,179.58s.11.77.77.84S38.58,179,38.58,179a2.05,2.05,0,0,0,1.92.34c1.22-.33,1.51-1.93,1.51-1.93C42.46,177.76,44.44,177,43.74,175.56Z"/><polygon class="cls-2" points="31.67 82.49 41.34 78.14 42.74 84.99 33.42 90.66 31.67 82.49"/><path class="cls-3" d="M249.7,225.5c0-32.27,2.26-52,15.13-81.62H292.5s13.52,9.77,17.91,18.77c8.68,17.81,10.95,62.85,10.95,62.85"/><ellipse class="cls-2" cx="278.96" cy="33.13" rx="23.31" ry="16.58" transform="translate(160.06 287.65) rotate(-71.73)"/><path class="cls-3" d="M271.4,42.93c-3.27,5.8-8.82,12.25-9.21,21.35-.63,14.78,7.68,25.57,24,24.51,9.42,13,21.33,18.31,31.3,18.31,17.93,0,24.69-16.26,22-31.54C337.26,63,324.42,49.84,324.42,49.84a48.09,48.09,0,0,1-12.33-25.65C309.94,9,290.4-5.9,271.4,5.45,250.7,17.83,280.77,26.32,271.4,42.93Z"/></g></g></svg>