<svg xmlns="http://www.w3.org/2000/svg" viewBox="0 0 383.83 225.56"><defs><style>.cls-1{fill:#565f65;}.cls-1,.cls-4{stroke:#b2bcc2;stroke-miterlimit:10;}.cls-2{fill:#b2bcc2;}.cls-3{fill:#fff;}.cls-4{fill:#343439;}.cls-5{fill:#88c3c8;}.cls-6{fill:#dde1e4;}</style></defs><title>mission</title><g id="Layer_2" data-name="Layer 2"><g id="Layer_1-2" data-name="Layer 1"><rect class="cls-1" x="0.5" y="30.25" width="382.83" height="178.26"/><polygon class="cls-2" points="0.53 185.68 228.43 0.5 325.42 0.5 383.33 0.5 383.52 10.37 150.99 208.38 0.5 208.52 0.53 185.68"/><polyline class="cls-2" points="211.57 0.5 0.53 175.83 0.53 163.55 197.72 0.5"/><polyline class="cls-2" points="209.75 208.52 383.33 60.71 383.33 72.77 223.57 208.52"/><polygon class="cls-3" points="198.31 150.52 204.44 194.9 199.02 194.24 194.1 171.68 186.04 147.21 198.31 150.52"/><path class="cls-4" d="M145.09,225.5c.32-22.81,8.42-42.64,17.72-57.89h21.09s13.31,8.3,17.1,17c5.87,13.44,9.08,40.91,9.08,40.91"/><path class="cls-3" d="M145.33,148.32,139,194.9l-4.92,6.5a1.15,1.15,0,0,0,.66,1.72l.26-.28s.22,1.32,1,1.6a.93.93,0,0,0,1.14-.39s.67,1,1.09,1,.54-.5.54-.5,1,1.62,1.7.93,3.81-7.42,3.81-7.42l9-38.67C154.14,153.64,152.15,152.15,145.33,148.32Z"/><polygon class="cls-3" points="145.33 148.32 141.76 180.7 147.96 181.69 156.25 146.05 145.33 148.32"/><path class="cls-5" d="M160,108.94l-5.15,3.64A15.1,15.1,0,0,0,148.63,123l-3.3,25.36,12.22,4,5.26,15.3h21.09L189,152.24l9.32-1.72-1.46-14.8Z"/><ellipse class="cls-3" cx="167.94" cy="80.65" rx="17.4" ry="12.37" transform="translate(38.71 214.85) rotate(-71.73)"/><path class="cls-4" d="M162.31,88c-2.44,4.32-6.58,9.14-6.87,15.93-.47,11,5.73,19.08,17.91,18.29,7,9.72,15.91,13.66,23.36,13.66,13.38,0,18.42-12.13,16.4-23.53-1.66-9.36-11.24-19.2-11.24-19.2A35.88,35.88,0,0,1,192.66,74c-1.6-11.32-16.19-22.45-30.36-14C146.86,69.23,169.29,75.57,162.31,88Z"/><rect class="cls-4" x="0.5" y="0.5" width="382.83" height="29.75"/><path class="cls-6" d="M169.91,12.6h-3V10.39q0-1.6-1.36-1.6a1.24,1.24,0,0,0-1.3,1.33v1.09a2.42,2.42,0,0,0,1.09,2.08l2.42,1.7a5.46,5.46,0,0,1,2.37,4.77v1a4.24,4.24,0,0,1-4.61,4.39c-3,0-4.61-1.76-4.61-4.18V18.27h3v2.56a1.47,1.47,0,0,0,1.52,1.57,1.36,1.36,0,0,0,1.41-1.49V19.82a2.55,2.55,0,0,0-1.2-2.26l-2.21-1.49A5.48,5.48,0,0,1,161,11.27V10.2c0-2.42,1.7-4.15,4.47-4.15,3,0,4.39,1.73,4.39,4Z"/><path class="cls-6" d="M179.95,24.93h-3.17V9.06H173.9V6.29h8.92V9.06h-2.88Z"/><path class="cls-6" d="M191.55,25.17a4.56,4.56,0,0,1-3.49-1.28,4.4,4.4,0,0,1-1.2-3.2V10.52c0-2.58,1.62-4.47,4.69-4.47s4.69,1.89,4.69,4.47V20.7a4.4,4.4,0,0,1-1.2,3.2A4.56,4.56,0,0,1,191.55,25.17Zm-1.46-4.47c0,1.12.48,1.68,1.46,1.68S193,21.81,193,20.7V10.52c0-1.12-.48-1.68-1.46-1.68s-1.46.56-1.46,1.68Z"/><path class="cls-6" d="M207.13,24.93a10.61,10.61,0,0,1-.29-2.74l-.08-2.88c0-1.52-.67-2.21-1.94-2.21h-.53v7.83h-3.2V6.29h4.55c2.8,0,4.63,1.54,4.63,4.34V12c0,2-.75,3.27-2.26,3.89,1.2.45,1.86,1.62,2,3.46l.13,3.35a10.76,10.76,0,0,0,.24,2.21Zm-2.85-10.46h1c1.15,0,1.78-.69,1.78-1.94V10.84c0-1.25-.59-1.86-1.78-1.86h-1Z"/><path class="cls-6" d="M214.83,24.93V6.29h8.25V9.06H218v4.53h3.25v2.77H218v5.8h5.25v2.77Z"/></g></g></svg>