<svg xmlns="http://www.w3.org/2000/svg" viewBox="0 0 266.75 227.88"><defs><style>.cls-1{fill:#a7b8c3;}.cls-2{fill:#fff;}.cls-3{fill:#343439;stroke:#b2bcc2;stroke-miterlimit:10;}.cls-4{fill:#88c3c8;}.cls-5{fill:#b2bcc2;}.cls-6{fill:#565f65;}</style></defs><title>trail</title><g id="Layer_2" data-name="Layer 2"><g id="Layer_1-2" data-name="Layer 1"><polygon class="cls-1" points="150.63 65.81 134.62 45.49 142.25 36.38 149.41 46.38 156.44 58.61 150.63 65.81"/><path class="cls-2" d="M186.89,43.39s.85-.48,1.35,0a.84.84,0,0,1,.15,1s.65-.38,1,0,.11,1,.11,1,1-.3.8.53c-.35,1.64-1.71,2.87-3.1,4a19.76,19.76,0,0,1-3.13,1.94l-17,17.41c-3.8,2.87-8.06,5.88-13.51.1l-5.38-6.72,7.16-5.81,5.23,8L181,48.14l4-5.05C185.93,41.7,187.32,42,186.89,43.39Z"/><path class="cls-3" d="M131.72,84.59s-5.44,7.41-5.63,12,2,13.31,2,13.31l15.45,7.87L162,115.52l-8.91-30.81Z"/><polygon class="cls-2" points="148.35 29.84 150.77 31.51 147.27 42.2 139.02 37.52 142.69 27.84 148.35 29.84"/><path class="cls-4" d="M146.91,37.26s9.58,6.31,11.39,12.21c1.48,4.85-5.56,18.46-5.17,35.25-4.37.11-21.39-.13-21.39-.13l3.07-11.38L130,50.35l1.65-1.44L134.14,39Z"/><rect class="cls-5" x="212.16" y="186.07" width="24.09" height="19.91"/><polygon class="cls-5" points="0 199.91 0 220.11 241.59 220.11 259.37 220.11 247.85 200.1 0 199.91"/><rect class="cls-5" x="18.09" y="179.31" width="210.2" height="10.86"/><path class="cls-5" d="M192.35,106.35l23.23-6.51,50.59,111.34a6.31,6.31,0,0,1-5.75,8.93H242.54Z"/><circle class="cls-6" cx="30.53" cy="221.98" r="5.9"/><circle class="cls-6" cx="206.26" cy="221.98" r="5.9"/><path class="cls-6" d="M21.57,186.31h198q10.88,6.8,0,13.6H9.33Z"/><polyline class="cls-5" points="142.65 94.41 194.82 94.41 193.52 106.36 142.65 106.36"/><path class="cls-5" d="M193.65,94.41,239.16,53c7.36,0,9.59,4.52,6.51,13.7L215.59,99.85l-23.23,6.51Z"/><polygon class="cls-2" points="115.98 54.78 135.81 35.7 146.11 42.9 136.29 51.52 124.11 60.23 115.98 54.78"/><path class="cls-2" d="M144.47,88.86c-.06-.47,0-.41-.46-.86l-6.55-2.71L118,65.24l7.88-6.37-6.79-7-6.54,6.4c-5.55,6.38-2,10.62,1.4,14.37l20.82,17.84s5.48,3.67,6.36,3.57c1.41-.16.6-1.51.6-1.51s.89.14,1.13-.18,0-1.25,0-1.25.83.26,1.19-.37a1.16,1.16,0,0,0-.19-1.25Z"/><path class="cls-2" d="M128.13,109.89l-7.24,26.2L83.43,162.77l.83,6.54,41.52-21.37c2.29-1.21,5.34-3.07,6.58-5.35l11.21-24.83Z"/><path class="cls-2" d="M162,115.52l8.9,16.62a15,15,0,0,1,1.54,5.33l3.72,44.13a14.68,14.68,0,0,1-5.65,5.27l-10.18-46.14-16.78-23Z"/><path class="cls-4" d="M83.43,162.77c-3.28-2.65-4.12-2.45-10-2.6l-2.64,24.35c2.83,2,7.21,1.12,7.93-1.68s1.05-3.59,1.69-5.59a84.17,84.17,0,0,1,3.86-7.95Z"/><path class="cls-4" d="M170.54,186.88c.26,4.21,1,4.69,4.84,9.15l19.76-14.47c-.4-3.47-4-6.08-6.59-4.72s-3.36,1.64-5.27,2.52a68.71,68.71,0,0,1-7.09,2.26Z"/><path class="cls-4" d="M130.9,44.6a8.08,8.08,0,0,1,3.44,9.13l15.8-8L143.77,39Z"/><path class="cls-2" d="M180.88,48.47a10.71,10.71,0,0,1,1.59-3.73,1.46,1.46,0,0,1,1.4-.65l1.18.14Z"/><path class="cls-2" d="M137.55,85.54a10.71,10.71,0,0,1,4.06.05,1.46,1.46,0,0,1,1.14,1l.32,1.15Z"/><ellipse class="cls-2" cx="151.2" cy="20.99" rx="9.45" ry="13.29" transform="translate(1.04 48.45) rotate(-18.27)"/><path class="cls-3" d="M147,24.72c.17,3.79,1.33,8.5-.82,13.23-3.49,7.68-10.49,11-18.52,6.28-8.14,4.2-15.56,3.82-20.64,1.25-9.12-4.62-8.37-14.63-3.06-21.7,4.36-5.81,14.29-9.21,14.29-9.21,6.11-2.31,8.79-4.24,11.39-8,6.07-8.48,20.49-7.53,27-1C166.35,15.43,146.53,13.86,147,24.72Z"/></g></g></svg>