<svg xmlns="http://www.w3.org/2000/svg" viewBox="0 0 308.33 226.76"><defs><style>.cls-1{fill:#343439;}.cls-1,.cls-2{stroke:#b2bcc2;}.cls-1,.cls-2,.cls-6,.cls-7{stroke-miterlimit:10;}.cls-2,.cls-6,.cls-7{fill:none;}.cls-2,.cls-7{stroke-linecap:round;}.cls-2{stroke-width:2.57px;}.cls-3{fill:#b2bcc2;}.cls-4{fill:#ebedef;}.cls-5{fill:#88c3c8;}.cls-6,.cls-7{stroke:#393939;}</style></defs><title>try</title><g id="Layer_2" data-name="Layer 2"><g id="Layer_1-2" data-name="Layer 1"><path class="cls-1" d="M308.17,226.28c-30.24-10.32-135.43-49.8-151.37-55.47-20-4.73-32-5.68-57.47-5.68-75.18,0-87.73-30-92.71-37.2a7.64,7.64,0,0,1-1.2-2.9L.53,99.6c5.36-7.6,9.46-4.3,13.1,3l8.49,19,3.46,3.36,1.13,6.26,7,1.63H155.15l19.68-6.37,22,17,111.3,12.13"/><line class="cls-2" x1="102.67" y1="28.82" x2="102.98" y2="1.28"/><line class="cls-2" x1="136.79" y1="38.36" x2="154.15" y2="8.3"/><line class="cls-2" x1="163.46" y1="55.76" x2="189.54" y2="37.69"/><path class="cls-3" d="M226.9,108.44c0,4.19,2.6,10.55-16.27,16.89s-43.21,9.35-55.13,9.35H127.2v-.08l5.89-7.7,3.27-4.3c8.65-10.38,17.31-13,36-13.2s39.14-5.14,49.91-8.29C222.27,101.1,226.9,101.6,226.9,108.44Z"/><path class="cls-4" d="M211.91,94c6.11,2.18,10.36,4.55,10.36,7.06-10.77,3.15-31.24,8.1-49.91,8.29s-27.36,2.82-36,13.2l-3.27,4.3-.08-.06a174,174,0,0,0-26.66-6.25l29.45-29.87a9.1,9.1,0,0,0,4.27-.92c4.72-2.34,12.7-4.1,19,1.81,4.08,3.85,7.7,6.45,13.15,4.83C182.1,93.51,200.19,92.5,211.91,94Z"/><path class="cls-3" d="M165.72,81.06c1.17.56,2.18,1,2.93,1.34,6.56,2.79,29.62,6.78,43.27,11.64-11.72-1.54-29.81-.53-39.69,2.4-5.44,1.62-9.07-1-13.15-4.83-6.31-5.92-14.29-4.16-19-1.81a9.1,9.1,0,0,1-4.27.92,15.74,15.74,0,0,1-6.2-1.4l-5.22-1.87c-3-1.09-6.92-2.54-10.3-3.85-2.48-1-4.69-1.9-6.06-2.57a21.6,21.6,0,0,1-4.38-2.62c-1.51-1.34-2.07-2.82-2.43-5.36-.59-4.24-5.16-9.3-7.54-12.59l-.11-.22c5.36-2.88,10.77-5,16.36-5,.81,0,3.1.84,6.36,2.23,2.6,1.12,5.81,2.6,9.38,4.27,3,1.42,6.34,3,9.69,4.61,3.15,1.51,6.36,3.07,9.49,4.61l10.24,5C159.3,78,163,79.8,165.72,81.06Zm-29.31.87a3.43,3.43,0,0,0-1.87-4.44l-20.82-8.54a3.54,3.54,0,0,0-1.31-.25,3.42,3.42,0,0,0-3.15,2.09,3.46,3.46,0,0,0,1.87,4.47l20.82,8.54A3.41,3.41,0,0,0,136.41,81.92Z"/><path class="cls-4" d="M134.54,77.48a3.41,3.41,0,1,1-2.6,6.31l-20.82-8.54a3.46,3.46,0,0,1-1.87-4.47,3.42,3.42,0,0,1,3.15-2.09,3.54,3.54,0,0,1,1.31.25Z"/><path class="cls-5" d="M135.79,90.72l-29.45,29.87c-4.3-.7-8.65-1.26-13-1.73l31-31.4,5.22,1.87A15.74,15.74,0,0,0,135.79,90.72Z"/><path class="cls-3" d="M133.09,126.89l-5.89,7.7v.08H40.77s-12.2-.36-19.74-5.81a4.18,4.18,0,0,1-1.56-4.35l2.6-11.44c9.1,2.48,25.29,2.76,44.08,3.71,4.63.25,9.43.53,14.32.89,4.24.31,8.57.7,12.92,1.17s8.65,1,13,1.73A174,174,0,0,1,133,126.84Z"/><path class="cls-4" d="M124.38,87.45l-31,31.4c-4.35-.47-8.68-.87-12.92-1.17L114.08,83.6C117.45,84.91,121.33,86.36,124.38,87.45Z"/><path class="cls-5" d="M114.08,83.6,80.47,117.68c-4.88-.36-9.69-.64-14.32-.89l0-.36,37.46-38A21.6,21.6,0,0,0,108,81C109.39,81.7,111.59,82.62,114.08,83.6Z"/><path class="cls-4" d="M77.26,69.78c5.53-3,10.89-6.62,16.3-9.55l.11.22c2.37,3.29,7,8.35,7.54,12.59.36,2.54.92,4,2.43,5.36l-37.46,38,0,.36c-18.79-.95-35-1.23-44.08-3.71,0,0-6.17-11.64-3.88-23.11.64-3.15,1.59-7.54,2.79-12.23h0c15.88-3.63,17.75,4.83,26.46,4.83,7.4,0,12.17-7.4,12.17-7.4C65.79,75.17,71.59,72.85,77.26,69.78Z"/><path class="cls-4" d="M78.35,35.87c6,4.1,23.2,15.6,31.57,19.37-5.58,0-11,2.12-16.36,5s-10.77,6.59-16.3,9.55c-2-1-19.18-10-16-19.32,2.4-7.09,9.07-12.28,12.65-14.63A4,4,0,0,1,78.35,35.87Z"/><path class="cls-5" d="M59.64,75.17s-4.77,7.4-12.17,7.4c-8.71,0-10.58-8.46-26.46-4.83h0C24.11,65.43,28.91,51,33.88,51,40,51,46.86,75.17,59.64,75.17Z"/><path class="cls-6" d="M21,77.74C24.11,65.43,28.91,51,33.88,51c6.14,0,13,24.17,25.76,24.17,6.14,0,11.95-2.32,17.61-5.39s10.89-6.62,16.3-9.55,10.77-5,16.36-5c.81,0,3.1.84,6.36,2.23,2.6,1.12,5.81,2.6,9.38,4.27,3,1.42,6.34,3,9.69,4.61,3.15,1.51,6.36,3.07,9.49,4.61l10.24,5c4.22,2,7.93,3.82,10.64,5.08,1.17.56,2.18,1,2.93,1.34,6.56,2.79,29.62,6.78,43.27,11.64,6.11,2.18,10.36,4.55,10.36,7.06,0,0,4.63.5,4.63,7.34,0,4.19,2.6,10.55-16.27,16.89s-43.21,9.35-55.13,9.35H40.77s-12.2-.36-19.74-5.81a4.18,4.18,0,0,1-1.56-4.35l2.6-11.44S15.9,101.43,18.19,90C18.83,86.81,19.78,82.43,21,77.74Z"/><path class="cls-6" d="M222.27,101.1c-10.77,3.15-31.24,8.1-49.91,8.29s-27.36,2.82-36,13.2l-3.27,4.3-5.89,7.7"/><path class="cls-6" d="M22.07,113.08c9.1,2.48,25.29,2.76,44.08,3.71,4.63.25,9.43.53,14.32.89,4.24.31,8.57.7,12.92,1.17s8.65,1,13,1.73A174,174,0,0,1,133,126.84"/><path class="cls-6" d="M21,77.74c15.88-3.63,17.75,4.83,26.46,4.83,7.4,0,12.17-7.4,12.17-7.4"/><path class="cls-6" d="M109.92,55.24C101.54,51.47,84.35,40,78.35,35.87a4,4,0,0,0-4.47,0c-3.57,2.34-10.24,7.54-12.65,14.63-3.15,9.32,14,18.31,16,19.32l.2.08"/><path class="cls-6" d="M93.67,60.46c2.37,3.29,7,8.35,7.54,12.59.36,2.54.92,4,2.43,5.36A21.6,21.6,0,0,0,108,81c1.37.67,3.57,1.59,6.06,2.57,3.38,1.31,7.26,2.76,10.3,3.85l5.22,1.87a15.74,15.74,0,0,0,6.2,1.4,9.1,9.1,0,0,0,4.27-.92c4.72-2.34,12.7-4.1,19,1.81,4.08,3.85,7.7,6.45,13.15,4.83,9.88-2.93,28-3.94,39.69-2.4l1.23.17"/><path class="cls-6" d="M136.41,81.92a3.41,3.41,0,0,1-4.47,1.87l-20.82-8.54a3.46,3.46,0,0,1-1.87-4.47,3.42,3.42,0,0,1,3.15-2.09,3.54,3.54,0,0,1,1.31.25l20.82,8.54A3.43,3.43,0,0,1,136.41,81.92Z"/><polyline class="cls-6" points="66.18 116.42 103.64 78.41 103.72 78.32"/><line class="cls-6" x1="80.47" y1="117.68" x2="114.08" y2="83.6"/><line class="cls-6" x1="93.39" y1="118.85" x2="124.38" y2="87.45"/><line class="cls-6" x1="106.34" y1="120.58" x2="135.79" y2="90.72"/><polyline class="cls-7" points="114.41 52.53 116.28 57.47 118.38 63"/><polyline class="cls-7" points="123.85 56.91 125.66 61.74 127.81 67.38"/><polyline class="cls-7" points="133.45 61.35 135.35 66.35 137.41 71.82"/><polyline class="cls-7" points="142.91 65.9 144.84 70.95 146.9 76.37"/><polyline class="cls-7" points="152.96 70.39 155.08 75.98 156.92 80.86"/><polyline class="cls-7" points="163.71 75.75 165.72 81.06 167.67 86.22"/><path class="cls-1" d="M116.88,145.45s-61.75-36-59.62-44.75,21-4.6,42.47,9.41,32.49-2.43,58.44,16.06l21.19,19.29"/></g></g></svg>