<svg xmlns="http://www.w3.org/2000/svg" viewBox="0 0 385.22 225.56"><defs><style>.cls-1,.cls-4{fill:#565f65;}.cls-1,.cls-3{stroke:#b2bcc2;stroke-miterlimit:10;}.cls-2{fill:#b2bcc2;}.cls-3{fill:#343439;}.cls-5{fill:#fff;}.cls-6{fill:#88c3c8;}</style></defs><title>visit</title><g id="Layer_2" data-name="Layer 2"><g id="Layer_1-2" data-name="Layer 1"><rect class="cls-1" x="130.77" y="0.5" width="253.95" height="208.02"/><polygon class="cls-2" points="130.77 80.99 229.82 0.5 326.81 0.5 384.72 0.5 384.91 10.37 152.38 208.38 130.77 208.52 130.77 80.99"/><polyline class="cls-2" points="212.96 0.5 130.77 68.79 130.77 57.01 199.11 0.5"/><polyline class="cls-2" points="211.14 208.52 384.72 60.71 384.72 72.77 224.96 208.52"/><polyline class="cls-3" points="0.5 225.5 0.5 0.5 115.36 0.5 115.36 225.5"/><polygon class="cls-4" points="101.22 17.2 0.5 0.5 0.5 225.5 101.22 225.5 101.22 17.2"/><ellipse class="cls-5" cx="164.64" cy="80.65" rx="17.4" ry="12.37" transform="translate(36.45 211.71) rotate(-71.73)"/><polygon class="cls-5" points="195.1 153.09 201.61 197.47 193.77 196.4 190.91 173.67 183.18 149.87 195.1 153.09"/><path class="cls-6" d="M157.88,112.65l-5.09,1.79a30,30,0,0,0-8.7,4.81l-23.67,18.81,5.85,9.19,22.53-12.59L160,168h20.51l5.5-13.22,9.07-1.67-1.78-18Z"/><path class="cls-5" d="M124,135.15,113.22,144,94.37,119.28l-.08-.47a55.72,55.72,0,0,1,1.33-8.36.7.7,0,0,0-.87-.3c-.4.11-1.08,1.34-1.55,2.3l-.37-2.12s-.33-4.67-.48-5.49c-.25-1.35-1.21-1.45-1.3-.1l.35,6.43s0,.22,0,.51l0,0-1.14-6.88s-.14-1.14-.87-1c-.55.13-.32,1-.27,2.21,0,.78.5,6.25.5,6.25L88,105.6s-.13-1.6-.87-1.6-.45,1-.4,1.54.91,7.71.91,7.71l-1.6-5.68s-.12-1-.76-.82-.27,1.37-.2,2c0,.46.94,5.32.94,5.32h0c1.36,5.14,2.58,6.89,2.58,6.89l15.75,26.13c3.5,4.4,6.8,9,16,3.81l10.34-6.16Z"/><path class="cls-3" d="M159,88c-2.44,4.32-6.58,9.14-6.87,15.93-.47,11,5.73,19.08,17.91,18.29,7,9.72,15.91,13.66,23.36,13.66,13.38,0,18.42-12.13,16.4-23.53-1.66-9.36-11.24-19.2-11.24-19.2A35.88,35.88,0,0,1,189.36,74c-1.6-11.32-16.19-22.45-30.36-14C143.55,69.23,166,75.57,159,88Z"/><path class="cls-3" d="M141.79,225.5c.32-22.81,8.42-42.64,17.72-57.89h21.09s13.31,8.3,17.1,17c5.87,13.44,9.08,40.91,9.08,40.91"/></g></g></svg>