<svg xmlns="http://www.w3.org/2000/svg" xmlns:xlink="http://www.w3.org/1999/xlink" viewBox="0 0 909.83 438"><defs><style>.cls-1,.cls-11,.cls-8,.cls-9{fill:none;}.cls-2{isolation:isolate;}.cls-3{mix-blend-mode:multiply;}.cls-4{clip-path:url(#clip-path);}.cls-5{fill:#ced7db;}.cls-6{fill:#575a67;}.cls-7{fill:#e5eaec;}.cls-8,.cls-9{stroke:#575a67;}.cls-11,.cls-8,.cls-9{stroke-miterlimit:10;stroke-width:2px;}.cls-9{stroke-linecap:round;}.cls-10{fill:#adbbc2;fill-rule:evenodd;}.cls-11{stroke:#adbbc2;}</style><clipPath id="clip-path" transform="translate(-11 -92.62)"><polygon class="cls-1" points="0 529.66 920.83 529.66 929.57 0 2.26 0 0 529.66"/></clipPath></defs><title>workspace</title><g class="cls-2"><g id="Layer_2" data-name="Layer 2"><g id="Layer_1-2" data-name="Layer 1"><g class="cls-3"><g class="cls-4"><path class="cls-5" d="M175,130.2V99.9a6.29,6.29,0,0,1,6.28-6.28H913.55a6.29,6.29,0,0,1,6.28,6.28V130.2Z" transform="translate(-11 -92.62)"/><path class="cls-6" d="M913.55,94.62a5.29,5.29,0,0,1,5.28,5.28V129.2H176V99.91a5.29,5.29,0,0,1,5.28-5.28H913.55m0-2H181.29A7.28,7.28,0,0,0,174,99.91V131.2H920.83V99.91a7.28,7.28,0,0,0-7.28-7.28" transform="translate(-11 -92.62)"/><path class="cls-6" d="M837.79,304.25H257L175.2,135.37a11.78,11.78,0,0,1,10.6-16.92H909a11.78,11.78,0,0,1,10.6,16.92Z" transform="translate(-11 -92.62)"/><polygon class="cls-5" points="246.67 210.62 236.84 190.33 836.12 190.33 826.17 210.62 246.67 210.62"/><path class="cls-6" d="M845.51,284l-9,18.29H258.3L249.43,284Zm3.21-2H246.24L257,304.25H837.79Z" transform="translate(-11 -92.62)"/><path class="cls-6" d="M555.29,293.1c0,2.78-3.29,5-7.35,5s-7.36-2.26-7.36-5,3.29-5,7.36-5,7.35,2.26,7.35,5" transform="translate(-11 -92.62)"/><path class="cls-5" d="M485.28,357.26a8.15,8.15,0,0,1-8-9.52l7.25-42.49H610.34l7.25,42.49a8.15,8.15,0,0,1-8,9.52Z" transform="translate(-11 -92.62)"/><path class="cls-6" d="M609.5,306.25l7.1,41.66a7.15,7.15,0,0,1-7,8.35H485.28a7.15,7.15,0,0,1-7-8.35l7.1-41.66H609.5m1.69-2H483.65l-7.39,43.32a9.15,9.15,0,0,0,9,10.69H609.56a9.15,9.15,0,0,0,9-10.69Z" transform="translate(-11 -92.62)"/><polygon class="cls-7" points="824.88 182.65 247.95 182.65 180.25 42.83 892.59 42.83 824.88 182.65"/><path class="cls-6" d="M752.45,506.79H342.38a3.61,3.61,0,0,1-3.61-3.61V399.28a3.61,3.61,0,0,1,3.61-3.61H752.45a3.61,3.61,0,0,1,3.61,3.61v103.9a3.61,3.61,0,0,1-3.61,3.61" transform="translate(-11 -92.62)"/><rect class="cls-5" x="334.95" y="308.3" width="16.06" height="9.45"/><rect class="cls-5" x="353.2" y="308.3" width="16.06" height="9.45"/><rect class="cls-5" x="371.44" y="308.3" width="16.06" height="9.45"/><rect class="cls-5" x="389.68" y="308.3" width="16.06" height="9.45"/><rect class="cls-5" x="407.92" y="308.3" width="16.06" height="9.45"/><rect class="cls-5" x="426.17" y="308.3" width="16.06" height="9.45"/><rect class="cls-5" x="444.41" y="308.3" width="16.06" height="9.45"/><rect class="cls-5" x="462.65" y="308.3" width="16.06" height="9.45"/><rect class="cls-5" x="480.89" y="308.3" width="16.06" height="9.45"/><rect class="cls-5" x="499.14" y="308.3" width="16.06" height="9.45"/><rect class="cls-5" x="517.38" y="308.3" width="16.06" height="9.45"/><rect class="cls-5" x="535.62" y="308.3" width="16.06" height="9.45"/><rect class="cls-5" x="553.86" y="308.3" width="16.06" height="9.45"/><rect class="cls-5" x="572.11" y="308.3" width="16.06" height="9.45"/><rect class="cls-5" x="590.35" y="308.3" width="16.06" height="9.45"/><rect class="cls-5" x="334.95" y="321.21" width="16.06" height="14.64"/><rect class="cls-5" x="353.2" y="321.21" width="16.06" height="14.64"/><rect class="cls-5" x="371.44" y="321.21" width="16.06" height="14.64"/><rect class="cls-5" x="389.68" y="321.21" width="16.06" height="14.64"/><rect class="cls-5" x="407.92" y="321.21" width="16.06" height="14.64"/><rect class="cls-5" x="426.17" y="321.21" width="16.06" height="14.64"/><rect class="cls-5" x="444.41" y="321.21" width="16.06" height="14.64"/><rect class="cls-5" x="462.65" y="321.21" width="16.06" height="14.64"/><rect class="cls-5" x="480.89" y="321.21" width="16.06" height="14.64"/><rect class="cls-5" x="499.14" y="321.21" width="16.06" height="14.64"/><rect class="cls-5" x="517.38" y="321.21" width="16.06" height="14.64"/><rect class="cls-5" x="535.62" y="321.21" width="16.06" height="14.64"/><rect class="cls-5" x="553.86" y="321.21" width="16.06" height="14.64"/><rect class="cls-5" x="363.41" y="338.85" width="16.06" height="14.64"/><rect class="cls-5" x="334.95" y="338.85" width="26.27" height="14.64"/><rect class="cls-5" x="582.49" y="338.85" width="23.92" height="14.64"/><rect class="cls-5" x="381.65" y="338.85" width="16.06" height="14.64"/><rect class="cls-5" x="399.89" y="338.85" width="16.06" height="14.64"/><rect class="cls-5" x="418.14" y="338.85" width="16.06" height="14.64"/><rect class="cls-5" x="436.38" y="338.85" width="16.06" height="14.64"/><rect class="cls-5" x="454.62" y="338.85" width="16.06" height="14.64"/><rect class="cls-5" x="472.86" y="338.85" width="16.06" height="14.64"/><rect class="cls-5" x="491.11" y="338.85" width="16.06" height="14.64"/><rect class="cls-5" x="509.35" y="338.85" width="16.06" height="14.64"/><rect class="cls-5" x="527.59" y="338.85" width="16.06" height="14.64"/><rect class="cls-5" x="545.83" y="338.85" width="16.06" height="14.64"/><rect class="cls-5" x="564.08" y="338.85" width="16.06" height="14.64"/><rect class="cls-5" x="334.95" y="374.12" width="39.09" height="14.64"/><rect class="cls-5" x="577.21" y="374.12" width="29.2" height="14.64"/><rect class="cls-5" x="376.36" y="374.12" width="16.06" height="14.64"/><rect class="cls-5" x="394.61" y="374.12" width="16.06" height="14.64"/><rect class="cls-5" x="412.85" y="374.12" width="16.06" height="14.64"/><rect class="cls-5" x="431.09" y="374.12" width="16.06" height="14.64"/><rect class="cls-5" x="334.95" y="391.76" width="18.11" height="14.64"/><rect class="cls-5" x="355.53" y="391.76" width="18.11" height="14.64"/><rect class="cls-5" x="376.1" y="391.76" width="18.11" height="14.64"/><rect class="cls-5" x="396.67" y="391.76" width="18.11" height="14.64"/><rect class="cls-5" x="511.59" y="391.76" width="21.51" height="14.64"/><rect class="cls-5" x="536.03" y="391.76" width="21.51" height="14.64"/><rect class="cls-5" x="560.46" y="391.76" width="21.51" height="14.64"/><rect class="cls-5" x="584.9" y="391.76" width="21.51" height="14.64"/><rect class="cls-5" x="417.24" y="391.76" width="92.1" height="14.64"/><rect class="cls-5" x="449.33" y="374.12" width="16.06" height="14.64"/><rect class="cls-5" x="467.58" y="374.12" width="16.06" height="14.64"/><rect class="cls-5" x="485.82" y="374.12" width="16.06" height="14.64"/><rect class="cls-5" x="504.06" y="374.12" width="16.06" height="14.64"/><rect class="cls-5" x="522.31" y="374.12" width="16.06" height="14.64"/><rect class="cls-5" x="540.55" y="374.12" width="16.06" height="14.64"/><rect class="cls-5" x="558.79" y="374.12" width="16.06" height="14.64"/><rect class="cls-5" x="369.08" y="356.48" width="16.06" height="14.64"/><rect class="cls-5" x="334.95" y="356.48" width="31.95" height="14.64"/><rect class="cls-5" x="588.17" y="356.48" width="18.24" height="14.64"/><rect class="cls-5" x="387.33" y="356.48" width="16.06" height="14.64"/><rect class="cls-5" x="405.57" y="356.48" width="16.06" height="14.64"/><rect class="cls-5" x="423.81" y="356.48" width="16.06" height="14.64"/><rect class="cls-5" x="442.05" y="356.48" width="16.06" height="14.64"/><rect class="cls-5" x="460.3" y="356.48" width="16.06" height="14.64"/><rect class="cls-5" x="478.54" y="356.48" width="16.06" height="14.64"/><rect class="cls-5" x="496.78" y="356.48" width="16.06" height="14.64"/><rect class="cls-5" x="515.02" y="356.48" width="16.06" height="14.64"/><rect class="cls-5" x="533.27" y="356.48" width="16.06" height="14.64"/><rect class="cls-5" x="551.51" y="356.48" width="16.06" height="14.64"/><rect class="cls-5" x="569.75" y="356.48" width="16.06" height="14.64"/><rect class="cls-5" x="572.11" y="321.21" width="16.06" height="14.64"/><rect class="cls-5" x="590.35" y="321.21" width="16.06" height="14.64"/><rect class="cls-5" x="666.7" y="308.3" width="16.06" height="9.45"/><rect class="cls-5" x="684.95" y="308.3" width="16.06" height="9.45"/><rect class="cls-5" x="703.19" y="308.3" width="16.06" height="9.45"/><rect class="cls-5" x="721.43" y="308.3" width="16.06" height="9.45"/><rect class="cls-5" x="666.7" y="321.21" width="16.06" height="14.64"/><rect class="cls-5" x="684.95" y="321.21" width="16.06" height="14.64"/><rect class="cls-5" x="703.19" y="321.21" width="16.06" height="14.64"/><rect class="cls-5" x="721.43" y="321.21" width="16.06" height="14.64"/><rect class="cls-5" x="666.7" y="338.85" width="16.06" height="14.64"/><rect class="cls-5" x="684.95" y="338.85" width="16.06" height="14.64"/><rect class="cls-5" x="703.19" y="338.85" width="16.06" height="14.64"/><rect class="cls-5" x="721.43" y="338.85" width="16.06" height="14.64"/><rect class="cls-5" x="666.7" y="356.48" width="16.06" height="14.64"/><rect class="cls-5" x="684.95" y="356.48" width="16.06" height="14.64"/><rect class="cls-5" x="703.19" y="356.48" width="16.06" height="14.64"/><rect class="cls-5" x="721.43" y="356.48" width="16.06" height="14.64"/><rect class="cls-5" x="666.7" y="374.12" width="16.06" height="14.64"/><rect class="cls-5" x="684.95" y="374.12" width="16.06" height="14.64"/><rect class="cls-5" x="703.19" y="374.12" width="16.06" height="14.64"/><rect class="cls-5" x="721.43" y="374.12" width="16.06" height="32.28"/><rect class="cls-5" x="666.7" y="391.76" width="34.3" height="14.64"/><rect class="cls-5" x="703.19" y="391.76" width="16.06" height="14.64"/><rect class="cls-5" x="610.31" y="308.3" width="16.06" height="9.45"/><rect class="cls-5" x="628.55" y="308.3" width="16.06" height="9.45"/><rect class="cls-5" x="646.8" y="308.3" width="16.06" height="9.45"/><rect class="cls-5" x="610.31" y="321.21" width="16.06" height="14.64"/><rect class="cls-5" x="628.55" y="321.21" width="16.06" height="14.64"/><rect class="cls-5" x="646.8" y="321.21" width="16.06" height="14.64"/><rect class="cls-5" x="610.31" y="338.85" width="16.06" height="14.64"/><rect class="cls-5" x="628.55" y="338.85" width="16.06" height="14.64"/><rect class="cls-5" x="646.8" y="338.85" width="16.06" height="14.64"/><rect class="cls-5" x="628.55" y="374.12" width="16.06" height="14.64"/><rect class="cls-5" x="610.31" y="391.76" width="16.06" height="14.64"/><rect class="cls-5" x="628.55" y="391.76" width="16.06" height="14.64"/><rect class="cls-5" x="646.8" y="391.76" width="16.06" height="14.64"/><polygon class="cls-7" points="237.58 412.91 151.84 437.04 58.45 436.55 1.23 233.21 173.39 184.77 237.58 412.91"/><polyline class="cls-8" points="58.59 437.04 1.23 233.21 173.39 184.77 237.58 412.91 151.84 437.04"/><line class="cls-1" x1="151.84" y1="437.04" x2="58.59" y2="437.04"/><line class="cls-9" x1="14.01" y1="220.03" x2="19.03" y2="237.88"/><line class="cls-9" x1="24.18" y1="217.17" x2="29.2" y2="235.01"/><line class="cls-9" x1="34.36" y1="214.3" x2="39.38" y2="232.15"/><line class="cls-9" x1="44.53" y1="211.44" x2="49.55" y2="229.29"/><line class="cls-9" x1="54.71" y1="208.58" x2="59.73" y2="226.42"/><line class="cls-9" x1="64.88" y1="205.71" x2="69.9" y2="223.56"/><line class="cls-9" x1="75.06" y1="202.85" x2="80.08" y2="220.7"/><line class="cls-9" x1="85.23" y1="199.99" x2="90.25" y2="217.84"/><line class="cls-9" x1="95.41" y1="197.13" x2="100.43" y2="214.97"/><line class="cls-9" x1="105.58" y1="194.26" x2="110.6" y2="212.11"/><line class="cls-9" x1="115.76" y1="191.4" x2="120.78" y2="209.25"/><line class="cls-9" x1="125.93" y1="188.54" x2="130.95" y2="206.38"/><line class="cls-9" x1="136.11" y1="185.67" x2="141.13" y2="203.52"/><line class="cls-9" x1="146.28" y1="182.81" x2="151.3" y2="200.66"/><line class="cls-9" x1="156.46" y1="179.95" x2="161.48" y2="197.79"/><path class="cls-10" d="M101.42,383.43l43.8,1.53a43.83,43.83,0,1,1-45.38-45.33Z" transform="translate(-11 -92.62)"/><rect class="cls-6" x="140.62" y="328.08" width="38.11" height="5.21" transform="translate(-94.59 -37.02) rotate(-15.71)"/><rect class="cls-6" x="143.48" y="338.23" width="38.11" height="5.21" transform="translate(-97.23 -35.86) rotate(-15.71)"/><rect class="cls-6" x="146.56" y="350" width="26.11" height="5.21" transform="translate(-100.53 -36.21) rotate(-15.71)"/><rect class="cls-6" x="178.56" y="462.9" width="38.11" height="5.21" transform="translate(-129.69 -21.7) rotate(-15.71)"/><rect class="cls-6" x="181.77" y="475.63" width="19.05" height="5.21" transform="translate(-133.38 -22.93) rotate(-15.72)"/><polyline class="cls-11" points="86.75 420.09 98.01 375.48 125.05 404.5 137.77 347.68 178.47 336.23 183.77 316.28"/><path class="cls-6" d="M102.84,511.29a5.29,5.29,0,1,1-6.52-3.66,5.29,5.29,0,0,1,6.52,3.66" transform="translate(-11 -92.62)"/><path class="cls-6" d="M199.86,407.47a5.29,5.29,0,1,1-6.52-3.66,5.29,5.29,0,0,1,6.52,3.66" transform="translate(-11 -92.62)"/><path class="cls-5" d="M862.88,464.66a23.1,23.1,0,0,1-5.65-.71l-9.36-2.36a23.07,23.07,0,0,1-16.71-28l13.7-54.3a23,23,0,0,1,28-16.71L882.2,365a23,23,0,0,1,16.71,28l-13.7,54.3a23,23,0,0,1-22.33,17.41" transform="translate(-11 -92.62)"/><path class="cls-6" d="M867.18,362.89h0a22.14,22.14,0,0,1,5.41.68l9.36,2.36a22.07,22.07,0,0,1,16,26.77L884.24,447a22,22,0,0,1-26.77,16l-9.36-2.36a22.07,22.07,0,0,1-16-26.77l13.7-54.3a22,22,0,0,1,21.36-16.66m0-2a24.05,24.05,0,0,0-23.3,18.17l-13.7,54.3a24,24,0,0,0,17.43,29.19l9.36,2.36a24,24,0,0,0,29.19-17.43l13.7-54.3A24,24,0,0,0,882.44,364l-9.36-2.36a24.09,24.09,0,0,0-5.9-.74" transform="translate(-11 -92.62)"/><path class="cls-6" d="M875.94,387.63c-1.39,5.49-4.38,9.47-6.69,8.89s-3.06-5.5-1.67-11,4.38-9.47,6.68-8.89,3.06,5.5,1.67,11" transform="translate(-11 -92.62)"/></g></g></g></g></g></svg>