<svg xmlns="http://www.w3.org/2000/svg" viewBox="0 0 159.68 42.19"><defs><style>.cls-1{fill-rule:evenodd;}</style></defs><title>Accenture</title><g id="Layer_2" data-name="Layer 2"><g id="Layer_1-2" data-name="Layer 1"><polygon class="cls-1" points="93.04 11.73 102.11 8.41 93.04 4.91 93.04 0 108.87 6.37 108.87 10.37 93.04 16.78 93.04 11.73 93.04 11.73"/><path class="cls-1" d="M6.06,42.19Zm0,0C2.75,42.19,0,40.5,0,36.76v-.21c0-4.54,3.94-6,8.7-6H11v-.88c0-1.83-.81-3-2.71-3a2.53,2.53,0,0,0-2.78,2.4H.56C.92,25,4.15,23,8.52,23s7.61,1.9,7.61,6.48V41.8h-5V39.69a5.84,5.84,0,0,1-5,2.5ZM11,35.67V33.91h-2c-2.54,0-3.84.7-3.84,2.36v.18c0,1.27.78,2.15,2.5,2.15s3.38-1,3.38-2.92Z"/><path class="cls-1" d="M27.79,42.19c-5.11,0-8.8-3.17-8.8-9.4v-.25C19,26.31,22.93,23,27.83,23c4.19,0,7.64,2.11,8.07,6.94H31c-.32-1.8-1.23-3-3-3-2.18,0-3.7,1.73-3.7,5.35v.56c0,3.73,1.34,5.42,3.73,5.42,1.76,0,3.06-1.3,3.35-3.31H36c-.35,4.19-3.21,7.19-8.21,7.19Z"/><path class="cls-1" d="M47,42.19c-5.11,0-8.81-3.17-8.81-9.4v-.25C38.15,26.31,42.1,23,47,23c4.19,0,7.64,2.11,8.07,6.94H50.13c-.32-1.8-1.23-3-3-3-2.18,0-3.7,1.73-3.7,5.35v.56c0,3.73,1.34,5.42,3.73,5.42,1.76,0,3.06-1.3,3.35-3.31h4.68C54.81,39.2,52,42.19,47,42.19Z"/><path class="cls-1" d="M66.26,42.19c-5.32,0-8.95-3.17-8.95-9.3v-.35c0-6.16,3.84-9.55,8.77-9.55,4.58,0,8.42,2.57,8.42,8.66v2.22h-12c.21,3.31,1.62,4.58,3.84,4.58a3.18,3.18,0,0,0,3.38-2.4H74.5c-.56,3.49-3.42,6.13-8.24,6.13ZM62.6,30.46h6.9c-.11-2.71-1.34-3.88-3.38-3.88-1.62,0-3.1.88-3.52,3.88Z"/><path class="cls-1" d="M77.67,23.38h5.14v2.75A6,6,0,0,1,88.39,23c3.35,0,5.56,2,5.56,6.48V41.81H88.81V30.25c0-2.15-.88-3.1-2.75-3.1a3.08,3.08,0,0,0-3.24,3.42V41.8H77.68V23.38Z"/><path class="cls-1" d="M103.57,17.82v5.57h3.52v3.84h-3.52V36c0,1.37.63,2,1.83,2a4.45,4.45,0,0,0,1.8-.32v4a10.48,10.48,0,0,1-2.89.39c-4,0-5.92-1.83-5.92-5.57V27.22H96.24V23.38h2.15V19.93l5.18-2.11Z"/><path class="cls-1" d="M126.46,41.8h-5.14V39.09a5.61,5.61,0,0,1-5.36,3.1c-3.31,0-5.74-2-5.74-6.34V23.38h5.18V35.08c0,2.11.84,3.1,2.68,3.1a3.1,3.1,0,0,0,3.24-3.42V23.38h5.14V41.8Z"/><path class="cls-1" d="M130.2,23.38h5.14v3.38a5.49,5.49,0,0,1,5.53-3.63v5.07c-3.49,0-5.53,1.06-5.53,4.12v9.48H130.2V23.39Z"/><path class="cls-1" d="M151.44,42.19c-5.32,0-8.95-3.17-8.95-9.3v-.35c0-6.16,3.84-9.55,8.77-9.55,4.58,0,8.42,2.57,8.42,8.66v2.22h-12c.21,3.31,1.62,4.58,3.84,4.58a3.18,3.18,0,0,0,3.38-2.4h4.76c-.56,3.49-3.42,6.13-8.24,6.13Zm-3.66-11.73h6.9c-.11-2.71-1.34-3.88-3.38-3.88-1.62,0-3.1.88-3.52,3.88Z"/></g></g></svg>