<svg xmlns="http://www.w3.org/2000/svg" viewBox="0 0 175.34 30.33"><defs><style>.cls-1{fill:none;}</style></defs><title>ATKearney</title><g id="Layer_2" data-name="Layer 2"><g id="Layer_1-2" data-name="Layer 1"><path class="cls-1" d="M0,22.08c.77,0,1.54,0,2.3,0a.55.55,0,0,0,.56-.32C3.91,20,5,18.31,6,16.58a.52.52,0,0,1,.51-.29h10c.08.4.15.76.22,1.13.27,1.48.53,3,.8,4.43,0,.08.11.21.17.21.84,0,1.68,0,2.58,0L16.22.12c-.82,0-1.61,0-2.4,0a.46.46,0,0,0-.46.26Q11.1,4.07,8.82,7.76L2,18.83C1.33,19.89.66,21,0,22M175.34,4.55h-6a.4.4,0,0,0-.44.23c-.41.84-.83,1.66-1.25,2.49l-4.52,8.93c0,.08-.09.14-.18.28l-.86-11.92h-6.55c0,.15,0,.28.06.4L156,6.88l1.67,8.84c.39,2.09.79,4.17,1.17,6.26a1.07,1.07,0,0,1-.1.64,12,12,0,0,1-2.39,3.05c-.43.42-.89.81-1.34,1.22l1.79,1.86M41.17,0c0,.11,0,.21,0,.32L39.55,7.65l-2.64,12.2-.48,2.22h5.39c.87,0,.86,0,1-.84Q44,15.88,45.18,10.52c.51-2.35,1-4.7,1.52-7.05.25-1.16.52-2.31.77-3.47h7.6c-.24.27-.46.55-.71.81q-4.29,4.49-8.6,9a.4.4,0,0,0-.09.51q2.3,5.76,4.58,11.53a.36.36,0,0,0,.4.26h6.88l.31,0-.16-.35Q55.06,16,52.43,10.32a.39.39,0,0,1,.08-.53l7.11-7L62.41,0M95.65,22.06,99.26,4.58l-.18,0H93.82c-.2,0-.26.09-.3.25-.15.53-.31,1.06-.48,1.63l-.45-.54a5,5,0,0,0-4.42-1.78,9,9,0,0,0-6.39,3.44A13.27,13.27,0,0,0,79,18.1a5,5,0,0,0,1.27,2.72,5.05,5.05,0,0,0,3.37,1.6,7.06,7.06,0,0,0,6-2l.64-.61-.38,2.23Zm24,0a2.09,2.09,0,0,0,.07-.22c.59-2.86,1.17-5.73,1.77-8.59a18,18,0,0,1,.73-2.71,3.35,3.35,0,0,1,3.38-2.29,1.79,1.79,0,0,1,1.91,1.68,5.91,5.91,0,0,1-.08,1.52c-.57,2.87-1.17,5.73-1.76,8.59-.14.67-.27,1.34-.41,2h6.3c.06-.3.13-.58.19-.87q1-4.82,2-9.63a11.82,11.82,0,0,0,.36-3.82,3.46,3.46,0,0,0-2.32-3.11,8,8,0,0,0-2-.42,7.86,7.86,0,0,0-6.12,1.94c-.29.26-.54.56-.8.84l-.06-.06.41-2.34-.14,0h-5.78c-.19,0-.23.1-.27.25q-.49,2.41-1,4.82l-2.25,10.87c-.11.52-.21,1-.31,1.59ZM76.75,14.61c.11-.57.21-1.1.3-1.63a11.51,11.51,0,0,0,.17-4A5.49,5.49,0,0,0,73,4.29,12.84,12.84,0,0,0,67,4.23a9.59,9.59,0,0,0-6.49,4.46,13.72,13.72,0,0,0-2,8.09,5.39,5.39,0,0,0,4.3,5.29,13.71,13.71,0,0,0,8.25-.46,8.26,8.26,0,0,0,4.35-3.48,2.42,2.42,0,0,0,.11-.24c-1.49-.42-3-.84-4.42-1.24a.38.38,0,0,0-.33.13A4.33,4.33,0,0,1,66.53,19,2.2,2.2,0,0,1,64.37,17a16.43,16.43,0,0,1,0-2c0-.37.18-.42.51-.42H76.75Zm77,0c.14-.78.28-1.51.39-2.25a10.09,10.09,0,0,0,0-3.58,5.45,5.45,0,0,0-4.23-4.5,12.89,12.89,0,0,0-5.5-.14,9.88,9.88,0,0,0-7.8,6.21,14.66,14.66,0,0,0-1.11,5.07,8.18,8.18,0,0,0,.4,3.26A5.17,5.17,0,0,0,139.62,22a13.62,13.62,0,0,0,8.56-.41,8.25,8.25,0,0,0,4.26-3.39c.05-.08.09-.18.15-.29-1.48-.42-2.91-.82-4.34-1.23a.32.32,0,0,0-.45.16A4.28,4.28,0,0,1,143.5,19a2.27,2.27,0,0,1-2.13-1.78,5.46,5.46,0,0,1,.11-2.58ZM114.82,4.37a6.76,6.76,0,0,0-6.73,3.77L108,8.08l.63-3.57h-6L99.09,22l.13,0h5.94a.33.33,0,0,0,.24-.21c.32-1.48.61-3,.92-4.43.27-1.25.49-2.52.85-3.75A4.86,4.86,0,0,1,110.68,10a10.54,10.54,0,0,1,3-.19ZM39.32.14H21.9l-.5,2.31h7.47L24.65,22.07h2.56L31.45,2.44h7.37Z"/><path d="M158.26,30.33l-1.48-1.58L155,26.89c.46-.41.91-.8,1.34-1.22a12,12,0,0,0,2.39-3.05,1.07,1.07,0,0,0,.1-.64c-.38-2.09-.78-4.18-1.17-6.26L156,6.88,155.62,5c0-.12,0-.25-.06-.4h6.55L163,16.49c.09-.14.14-.21.18-.28l4.52-8.93c.42-.83.85-1.65,1.25-2.49a.4.4,0,0,1,.44-.23h6v.13a1.5,1.5,0,0,0-.16.19c-1.62,2.77-3.21,5.56-4.86,8.31-1.9,3.17-3.81,6.33-5.77,9.46A43.16,43.16,0,0,1,160,28.71c-.51.57-1.08,1.08-1.62,1.62Z"/><path d="M62.41,0,59.62,2.76l-7.11,7a.39.39,0,0,0-.08.53Q55.06,16,57.69,21.7l.16.35-.31,0H50.66a.36.36,0,0,1-.4-.26Q48,16.05,45.67,10.29a.4.4,0,0,1,.09-.51q4.31-4.48,8.6-9c.25-.26.47-.54.71-.81Z"/><path d="M47.47,0c-.26,1.16-.52,2.31-.77,3.47-.51,2.35-1,4.7-1.52,7.05Q44,15.88,42.86,21.24c-.18.84-.17.84-1,.84H36.43l.48-2.22,2.64-12.2L41.13.32c0-.1,0-.21,0-.32Z"/><path d="M0,22C.66,21,1.33,19.89,2,18.83L8.82,7.76Q11.1,4.07,13.36.38a.46.46,0,0,1,.46-.26c.79,0,1.58,0,2.4,0l4.08,22c-.89,0-1.73,0-2.58,0-.06,0-.16-.13-.17-.21-.27-1.47-.53-3-.8-4.43-.07-.37-.14-.74-.22-1.13h-10a.52.52,0,0,0-.51.29C5,18.31,3.91,20,2.86,21.77a.55.55,0,0,1-.56.32c-.77,0-1.54,0-2.3,0Zm16.13-8.07L14.26,3l-6.71,11Z"/><path d="M95.65,22.06H89.86l.38-2.23-.64.61a7.06,7.06,0,0,1-6,2,5.05,5.05,0,0,1-3.37-1.6A5,5,0,0,1,79,18.1,13.27,13.27,0,0,1,81.77,7.55a9,9,0,0,1,6.39-3.44,5,5,0,0,1,4.42,1.78l.45.54c.17-.57.33-1.1.48-1.63,0-.16.11-.25.3-.25h5.26l.18,0ZM85.07,15.79a12.22,12.22,0,0,0,.26,1.36A1.88,1.88,0,0,0,87,18.62a2.91,2.91,0,0,0,2.38-.81A5.54,5.54,0,0,0,90.57,16a32.81,32.81,0,0,0,2-7.11.41.41,0,0,0-.12-.33,3.86,3.86,0,0,0-2-.88,3.56,3.56,0,0,0-3.19,1.39C85.63,11,85.2,13.29,85.07,15.79Z"/><path d="M119.66,22.07h-6.24c.11-.54.2-1.07.31-1.59L116,9.61q.5-2.41,1-4.82c0-.15.07-.25.27-.25H123l.14,0-.41,2.34.06.06c.27-.28.52-.58.8-.84a7.86,7.86,0,0,1,6.12-1.94,8,8,0,0,1,2,.42,3.46,3.46,0,0,1,2.32,3.11,11.82,11.82,0,0,1-.36,3.82q-1,4.82-2,9.63c-.06.28-.12.57-.19.87h-6.3c.14-.68.27-1.35.41-2,.59-2.86,1.19-5.72,1.76-8.59a5.91,5.91,0,0,0,.08-1.52,1.79,1.79,0,0,0-1.91-1.68,3.35,3.35,0,0,0-3.38,2.29,18,18,0,0,0-.73,2.71c-.61,2.86-1.18,5.72-1.77,8.59A2.09,2.09,0,0,1,119.66,22.07Z"/><path d="M76.75,14.61H64.9c-.33,0-.51,0-.51.42a16.43,16.43,0,0,0,0,2A2.2,2.2,0,0,0,66.53,19a4.33,4.33,0,0,0,4.32-2.18.38.38,0,0,1,.33-.13c1.47.4,2.93.82,4.42,1.24a2.42,2.42,0,0,1-.11.24,8.26,8.26,0,0,1-4.35,3.48,13.71,13.71,0,0,1-8.25.46,5.39,5.39,0,0,1-4.3-5.29,13.72,13.72,0,0,1,2-8.09A9.59,9.59,0,0,1,67,4.23,12.84,12.84,0,0,1,73,4.29,5.49,5.49,0,0,1,77.22,9,11.51,11.51,0,0,1,77,13C77,13.51,76.85,14,76.75,14.61ZM65.25,11h6c.15,0,.33,0,.33-.2a13.09,13.09,0,0,0,0-1.8A1.86,1.86,0,0,0,70.2,7.33a3.33,3.33,0,0,0-2.72.27A5.33,5.33,0,0,0,65.25,11Z"/><path d="M153.75,14.61H141.48a5.46,5.46,0,0,0-.11,2.58A2.27,2.27,0,0,0,143.5,19a4.28,4.28,0,0,0,4.3-2.13.32.32,0,0,1,.45-.16c1.43.42,2.86.81,4.34,1.23-.06.11-.09.21-.15.29a8.25,8.25,0,0,1-4.26,3.39,13.62,13.62,0,0,1-8.56.41,5.17,5.17,0,0,1-3.68-3.32,8.18,8.18,0,0,1-.4-3.26,14.66,14.66,0,0,1,1.11-5.07,9.88,9.88,0,0,1,7.8-6.21,12.89,12.89,0,0,1,5.5.14,5.45,5.45,0,0,1,4.23,4.5,10.09,10.09,0,0,1,0,3.58C154,13.1,153.88,13.83,153.75,14.61ZM142.3,10.94l.12,0h5.87c.19,0,.26-.07.26-.24a11,11,0,0,0,0-1.65,2,2,0,0,0-1.71-1.84,4.57,4.57,0,0,0-1.38,0C143.87,7.48,142.68,9.09,142.3,10.94Z"/><path d="M114.82,4.37,113.7,9.83a10.54,10.54,0,0,0-3,.19,4.86,4.86,0,0,0-3.52,3.61c-.36,1.23-.58,2.5-.85,3.75-.31,1.48-.61,3-.92,4.43a.33.33,0,0,1-.24.21H99.21l-.13,0,3.61-17.48h6L108,8.08l.06.07A6.76,6.76,0,0,1,114.82,4.37Z"/><path d="M39.32.14l-.5,2.31H31.45L27.21,22.07H24.65L28.88,2.45H21.41L21.9.14Z"/><path class="cls-1" d="M85.07,15.79c.12-2.5.56-4.79,2.18-6.68a3.56,3.56,0,0,1,3.19-1.39,3.86,3.86,0,0,1,2,.88.41.41,0,0,1,.12.33,32.81,32.81,0,0,1-2,7.11,5.54,5.54,0,0,1-1.19,1.76,2.91,2.91,0,0,1-2.38.81,1.88,1.88,0,0,1-1.67-1.47A12.22,12.22,0,0,1,85.07,15.79Z"/><path class="cls-1" d="M65.25,11a5.33,5.33,0,0,1,2.23-3.36,3.33,3.33,0,0,1,2.72-.27A1.86,1.86,0,0,1,71.54,9a13.09,13.09,0,0,1,0,1.8c0,.24-.18.2-.33.2h-6Z"/><path class="cls-1" d="M142.3,10.94c.39-1.85,1.58-3.46,3.16-3.69a4.57,4.57,0,0,1,1.38,0,2,2,0,0,1,1.71,1.84,11,11,0,0,1,0,1.65c0,.16-.07.24-.26.24h-5.87Z"/></g></g></svg>