<svg xmlns="http://www.w3.org/2000/svg" viewBox="0 0 29 17.94"><title>audi_white</title><path d="M24.43,17.81V14H22.84v3.85ZM16,16.21V14H14.48v1.68a3.15,3.15,0,0,1,0,.75.83.83,0,0,1-.86.51c-.53,0-.77-.2-.87-.53a1.92,1.92,0,0,1,0-.34c0-.13,0-.26,0-.41V14H11.1v2.2a1.46,1.46,0,0,0,.44,1.12,2.88,2.88,0,0,0,2,.59,2.77,2.77,0,0,0,2.06-.6A1.43,1.43,0,0,0,16,16.21Zm-7.56-.27-.23,0H6.47l-.23,0a1.52,1.52,0,0,0,.15-.17l.79-1.31a2.22,2.22,0,0,0,.18-.34,2.68,2.68,0,0,0,.18.35l.81,1.32a1.07,1.07,0,0,0,.13.15Zm2.94,1.87L7.89,12.55h-2l.52.61,0,0,0,0L3.38,17.81H5.16L5.63,17a.26.26,0,0,0,0-.1l.12,0H8.95l.11,0a.13.13,0,0,0,0,.08l.5.81Zm11-2a2.65,2.65,0,0,0-.72-1.62l-1.32-1.67H18.55l1,1.17a3.63,3.63,0,0,0,.4.37,1.73,1.73,0,0,0-.83-.2,3.63,3.63,0,0,0-1.76.43,1.75,1.75,0,0,0-1,1.57A1.81,1.81,0,0,0,17,17.17a3.72,3.72,0,0,0,2.45.77,3.83,3.83,0,0,0,2.39-.71,1.83,1.83,0,0,0,.6-1.39Zm-1.52,0a1,1,0,0,1-.59.87,1.87,1.87,0,0,1-.88.19,2.06,2.06,0,0,1-.89-.2A1,1,0,0,1,18,15.9a1.06,1.06,0,0,1,.7-.92,1.86,1.86,0,0,1,.74-.15,2.23,2.23,0,0,1,.77.13,1.07,1.07,0,0,1,.73.92ZM23.93,0a5,5,0,0,0-3.14,1.09,5.07,5.07,0,0,0-6.29,0,5.07,5.07,0,0,0-6.29,0,5.07,5.07,0,1,0,0,8A5.07,5.07,0,0,0,14.5,9a5.07,5.07,0,0,0,6.29,0,5.07,5.07,0,1,0,3.14-9ZM7.38,8.22A3.91,3.91,0,1,1,5.07,1.16a3.94,3.94,0,0,1,2.31.76,5.07,5.07,0,0,0,0,6.3Zm.83-.83a3.91,3.91,0,0,1,0-4.64,3.91,3.91,0,0,1,0,4.64Zm5.46.83A3.91,3.91,0,0,1,9,8.22a5.07,5.07,0,0,0,0-6.3,3.91,3.91,0,0,1,4.63,0,5.07,5.07,0,0,0,0,6.3Zm.83-.83a3.91,3.91,0,0,1,0-4.64,3.91,3.91,0,0,1,0,4.64ZM20,8.22a3.91,3.91,0,0,1-4.63,0,5.07,5.07,0,0,0,0-6.3,3.91,3.91,0,0,1,4.63,0,5.07,5.07,0,0,0,0,6.3Zm.83-.83a3.91,3.91,0,0,1,0-4.64,3.91,3.91,0,0,1,0,4.64ZM23.93,9a3.93,3.93,0,0,1-2.31-.76,5.07,5.07,0,0,0,0-6.3A3.91,3.91,0,1,1,23.93,9Z" fill="#fff"/></svg>