<svg xmlns="http://www.w3.org/2000/svg" viewBox="0 0 264.83 91.83"><title>Audi</title><g id="Layer_2" data-name="Layer 2"><g id="Layer_1-2" data-name="Layer 1"><path d="M218.92,0a45.7,45.7,0,0,0-29,10.35,45.79,45.79,0,0,0-57.5-.39,45.79,45.79,0,0,0-57.5.39,45.92,45.92,0,1,0,0,71.14,45.79,45.79,0,0,0,57.5.39,45.79,45.79,0,0,0,57.5-.39A45.91,45.91,0,1,0,218.92,0Zm-29,68.72a36.8,36.8,0,0,1,0-45.61,36.8,36.8,0,0,1,0,45.61Zm-57.5.64a36.84,36.84,0,0,1,0-46.88,36.84,36.84,0,0,1,0,46.88Zm-57.5-.64a36.8,36.8,0,0,1,0-45.61,36.8,36.8,0,0,1,0,45.61ZM9,45.92A36.89,36.89,0,0,1,68.49,16.74a45.83,45.83,0,0,0,0,58.36A36.89,36.89,0,0,1,9,45.92ZM81.34,75.1a45.83,45.83,0,0,0,0-58.36,36.82,36.82,0,0,1,44.55-.46,45.79,45.79,0,0,0,0,59.29,36.82,36.82,0,0,1-44.55-.46Zm57.6.46a45.79,45.79,0,0,0,0-59.29,36.82,36.82,0,0,1,44.55.46,45.83,45.83,0,0,0,0,58.36,36.82,36.82,0,0,1-44.55.46Zm80,7.27a36.72,36.72,0,0,1-22.57-7.74,45.83,45.83,0,0,0,0-58.36,36.91,36.91,0,1,1,22.57,66.1Z"/></g></g></svg>