<svg xmlns="http://www.w3.org/2000/svg" viewBox="0 0 167.8 14.75"><title>Chalhoub_white</title><path d="M13.62,2.83,11.74,4.61a5.82,5.82,0,0,0-4.3-2A4.64,4.64,0,0,0,4,4,4.57,4.57,0,0,0,2.67,7.35a5,5,0,0,0,.61,2.49A4.39,4.39,0,0,0,5,11.54a5,5,0,0,0,2.48.62,5.08,5.08,0,0,0,2.13-.44,7.8,7.8,0,0,0,2.12-1.58L13.55,12a9.9,9.9,0,0,1-2.94,2.12,8.15,8.15,0,0,1-3.16.59,7.31,7.31,0,0,1-5.37-2.07A7.2,7.2,0,0,1,0,7.36,7.28,7.28,0,0,1,1,3.62,7.07,7.07,0,0,1,3.67,1,7.64,7.64,0,0,1,7.49,0a8.09,8.09,0,0,1,3.35.73,8.18,8.18,0,0,1,2.78,2.1" fill="#fff"/><polygon points="24.95 0.35 24.95 5.64 20.25 5.64 20.25 0.35 17.53 0.35 17.53 14.4 20.25 14.4 20.25 8.23 24.95 8.23 24.95 14.4 27.64 14.4 27.64 0.35 24.95 0.35" fill="#fff"/><path d="M36.74.35,31.32,14.4H34.1l1.14-2.91H41l1.1,2.91h2.78L39.45.35Zm1.36,3.72L40,8.9H36.22Z" fill="#fff"/><polygon points="48.55 0.35 48.55 14.4 55.12 14.4 55.12 11.86 51.2 11.86 51.2 0.35 48.55 0.35" fill="#fff"/><polygon points="66.15 0.35 66.15 5.64 61.44 5.64 61.44 0.35 58.73 0.35 58.73 14.4 61.44 14.4 61.44 8.23 66.15 8.23 66.15 14.4 68.84 14.4 68.84 0.35 66.15 0.35" fill="#fff"/><path d="M80.29,0a7,7,0,0,1,5.12,2.15,7.18,7.18,0,0,1,2.15,5.26,7.13,7.13,0,0,1-2.12,5.21,7.32,7.32,0,0,1-10.38-.06A7.26,7.26,0,0,1,73,7.37,7.32,7.32,0,0,1,80.29,0m0,2.62A4.36,4.36,0,0,0,77,4a4.7,4.7,0,0,0-1.33,3.44,4.47,4.47,0,0,0,1.67,3.69,4.58,4.58,0,0,0,3,1.06,4.35,4.35,0,0,0,3.23-1.38,4.65,4.65,0,0,0,1.34-3.38A4.69,4.69,0,0,0,83.53,4a4.37,4.37,0,0,0-3.28-1.39" fill="#fff"/><path d="M91.6,8.73a9.32,9.32,0,0,0,.48,3.56A4,4,0,0,0,93.71,14a4.89,4.89,0,0,0,2.66.71,5.25,5.25,0,0,0,2-.37A4.3,4.3,0,0,0,100,13.25a4.19,4.19,0,0,0,.91-1.58,12.35,12.35,0,0,0,.24-2.94V.35H98.44V9.1a5.83,5.83,0,0,1-.2,1.91,1.71,1.71,0,0,1-.71.83,2.22,2.22,0,0,1-1.22.33,2.09,2.09,0,0,1-1.14-.3,1.51,1.51,0,0,1-.68-.78,4.57,4.57,0,0,1-.21-1.66V.35H91.6Z" fill="#fff"/><path d="M105.83,14.4V.35H108a11.47,11.47,0,0,1,2.82.24,3.86,3.86,0,0,1,2,1.24A3.3,3.3,0,0,1,113.61,4a3.07,3.07,0,0,1-.34,1.46,3.79,3.79,0,0,1-1.1,1.23A4.27,4.27,0,0,1,114,8.17a3.77,3.77,0,0,1,.59,2.13,4,4,0,0,1-.61,2.17,3.84,3.84,0,0,1-1.58,1.46,6.11,6.11,0,0,1-2.66.49ZM108.48,2.9v3h.59a2.19,2.19,0,0,0,1.47-.42A1.38,1.38,0,0,0,111,4.33a1.33,1.33,0,0,0-.46-1,2.08,2.08,0,0,0-1.39-.39Zm0,5.35v3.61h.68a4.18,4.18,0,0,0,2.26-.42A1.43,1.43,0,0,0,112,10.2a1.69,1.69,0,0,0-.68-1.43A3.78,3.78,0,0,0,109,8.25Z" fill="#fff"/><path d="M132.83,7.38,131.7,8.5a3.31,3.31,0,0,0-2.49-1.14,2.82,2.82,0,0,0-2.07.82,2.67,2.67,0,0,0-.84,2,2.78,2.78,0,0,0,.87,2.07,3,3,0,0,0,2.13.84,2.69,2.69,0,0,0,1.4-.34,2.48,2.48,0,0,0,.92-1.09h-2.43v-1.5h4.22v.35a4.11,4.11,0,0,1-.58,2.09,3.92,3.92,0,0,1-1.48,1.51,4.19,4.19,0,0,1-2.13.52,4.75,4.75,0,0,1-2.33-.57,4.14,4.14,0,0,1-1.63-1.62,4.5,4.5,0,0,1-.6-2.27,4.27,4.27,0,0,1,1.1-2.9,4.36,4.36,0,0,1,3.4-1.46,5.24,5.24,0,0,1,2.05.4,4.78,4.78,0,0,1,1.58,1.18" fill="#fff"/><path d="M136,6h1.69a5.69,5.69,0,0,1,2,.25,2.12,2.12,0,0,1,1,.83A2.52,2.52,0,0,1,141,8.44a2.3,2.3,0,0,1-.41,1.38,2.33,2.33,0,0,1-1.19.84l2,3.74h-1.75l-1.89-3.56h-.15V14.4H136Zm1.59,3.28h.5a1.94,1.94,0,0,0,1.06-.2.73.73,0,0,0,.28-.66.81.81,0,0,0-.14-.48.8.8,0,0,0-.38-.29,3.05,3.05,0,0,0-.88-.09h-.44Z" fill="#fff"/><path d="M147.55,5.8a4.16,4.16,0,0,1,3.07,1.29,4.28,4.28,0,0,1,1.28,3.14,4.23,4.23,0,0,1-1.26,3.11,4.39,4.39,0,0,1-6.21,0A4.47,4.47,0,0,1,143.76,8a4.39,4.39,0,0,1,3.79-2.19m0,1.56a2.63,2.63,0,0,0-2,.81,2.81,2.81,0,0,0-.8,2.06,2.71,2.71,0,0,0,1,2.21,2.74,2.74,0,0,0,1.78.64,2.63,2.63,0,0,0,1.95-.83,2.8,2.8,0,0,0,.79-2,2.76,2.76,0,0,0-.81-2,2.58,2.58,0,0,0-1.95-.84" fill="#fff"/><path d="M154.31,11a5.66,5.66,0,0,0,.29,2.14,2.48,2.48,0,0,0,1,1,2.92,2.92,0,0,0,1.58.43,3.08,3.08,0,0,0,1.23-.23,2.63,2.63,0,0,0,1.47-1.62A6.92,6.92,0,0,0,160,11V6H158.4v5.22a3.75,3.75,0,0,1-.12,1.15,1,1,0,0,1-.43.49,1.29,1.29,0,0,1-.72.2,1.31,1.31,0,0,1-.69-.17,1,1,0,0,1-.4-.47,2.59,2.59,0,0,1-.12-1V6h-1.61Z" fill="#fff"/><path d="M162.82,6h1.69a5.43,5.43,0,0,1,2,.26,2,2,0,0,1,1,.82,2.51,2.51,0,0,1,.35,1.36,2.25,2.25,0,0,1-.46,1.46,2.41,2.41,0,0,1-1.25.81,7.33,7.33,0,0,1-1.68.13V14.4h-1.59Zm1.59,3.28h.51a2.45,2.45,0,0,0,.84-.09.74.74,0,0,0,.37-.27.84.84,0,0,0,.13-.48.75.75,0,0,0-.37-.71,2.2,2.2,0,0,0-1-.16h-.45Z" fill="#fff"/></svg>