<svg xmlns="http://www.w3.org/2000/svg" viewBox="0 0 126.51 58.97"><defs><style>.cls-1{fill:#fff;}.cls-2{fill:none;}.cls-3{fill:#666;}</style></defs><title>Deloitte</title><g id="Layer_2" data-name="Layer 2"><g id="Layer_1-2" data-name="Layer 1"><path d="M8.8,0c.09,0,.19.13.28.13a11.28,11.28,0,0,1,2.78.38,9.93,9.93,0,0,1,4,2A8.85,8.85,0,0,1,18.17,5.3a11.29,11.29,0,0,1,1,2.82,16.37,16.37,0,0,1,.3,4A14.07,14.07,0,0,1,19,15.34a14.42,14.42,0,0,1-.55,1.75,10.69,10.69,0,0,1-1.28,2.27,9.31,9.31,0,0,1-2.63,2.41,11,11,0,0,1-1.5.76c-.56.23-1.14.41-1.71.59a5.15,5.15,0,0,1-.76.17A15.73,15.73,0,0,1,8,23.52H0V0H8.06A4.85,4.85,0,0,0,8.57,0ZM6.18,11.76q0,3.11,0,6.22c0,.3,0,.32.32.32.51,0,1,0,1.54,0a5.19,5.19,0,0,0,2.76-.85,4.68,4.68,0,0,0,1.8-2.74A10.75,10.75,0,0,0,13,12.08a10.76,10.76,0,0,0-.48-3.89,4.31,4.31,0,0,0-1.43-2.06,5.08,5.08,0,0,0-2.88-.91c-.56,0-1.12,0-1.68,0-.29,0-.32,0-.32.33Q6.18,8.65,6.18,11.76Z"/><path d="M45.81,0c0,.11,0,.22,0,.33q0,11.41,0,22.83c0,.35,0,.36-.35.36H40.2c-.32,0-.34,0-.34-.36q0-11.39,0-22.78c0-.13,0-.25,0-.38Z"/><path d="M28,59a3.36,3.36,0,0,0-.51-.15,6.16,6.16,0,0,1-3.18-1.27,3.84,3.84,0,0,1-1.43-3,4,4,0,0,1,.77-2.57,4.53,4.53,0,0,1,1.7-1.39c.31-.15.65-.24,1-.37a.78.78,0,0,0,.19-.16,1.2,1.2,0,0,0-.16-.16,2.39,2.39,0,0,1-1.19-2.19A2.74,2.74,0,0,1,26,45.87c.33-.33.71-.61,1.11-.94l-.6-.36a4.68,4.68,0,0,1-1.75-1.93,5.89,5.89,0,0,1-.49-3.36,4.65,4.65,0,0,1,1.37-3,6.08,6.08,0,0,1,1.39-1,6.89,6.89,0,0,1,3.67-.63,15.59,15.59,0,0,1,1.68.27,3.18,3.18,0,0,0,.49,0h4.59c.31,0,.36,0,.36.35a3.18,3.18,0,0,1,0,.54.3.3,0,0,1-.2.2l-2.8.18-.31,0c.2.33.39.6.55.9a5.79,5.79,0,0,1,.63,3.85,4.84,4.84,0,0,1-1.37,2.7,5.4,5.4,0,0,1-2.18,1.27,9.68,9.68,0,0,1-3.51.26.92.92,0,0,0-.58.15,3.46,3.46,0,0,0-1.24,1.23,1.71,1.71,0,0,0,.09,1.94,1.47,1.47,0,0,0,.87.43,17.26,17.26,0,0,0,1.76.14c1.17,0,2.34,0,3.5,0a5.45,5.45,0,0,1,3,.94,3.48,3.48,0,0,1,1.44,2.24,5.6,5.6,0,0,1-.06,2.48,4.23,4.23,0,0,1-1.45,2.24,6.36,6.36,0,0,1-2.72,1.33c-.57.13-1.16.22-1.74.33-.16,0-.32.09-.47.14Zm2.44-8.23v0c-.77,0-1.54,0-2.31.09a4.66,4.66,0,0,0-2.05.57,2.74,2.74,0,0,0-1.28,1.43A3.91,3.91,0,0,0,24.58,55a2.77,2.77,0,0,0,1.27,1.82,5.94,5.94,0,0,0,2.93.78,11.5,11.5,0,0,0,2.71-.11c.33-.06.67-.1,1-.17a5.21,5.21,0,0,0,2.13-.91,3.28,3.28,0,0,0,1.22-1.82A4.3,4.3,0,0,0,35.93,53a2.16,2.16,0,0,0-.58-1.24,3,3,0,0,0-1.87-.85c-.71-.1-1.43-.11-2.14-.15C31,50.72,30.72,50.73,30.41,50.73ZM30,44.17l1-.1a3.82,3.82,0,0,0,1.6-.58,3.25,3.25,0,0,0,1.48-2.33,5.31,5.31,0,0,0-.3-3.13,3.47,3.47,0,0,0-.72-1,3.51,3.51,0,0,0-1.78-.91,5.6,5.6,0,0,0-3.25.19,3.51,3.51,0,0,0-2.15,2.46,5.22,5.22,0,0,0-.06,2.52,3.47,3.47,0,0,0,1.44,2.16A4.59,4.59,0,0,0,30,44.17Z"/><path d="M0,29.34c1.78,0,3.56,0,5.35,0a19.8,19.8,0,0,1,3.32.19,10.76,10.76,0,0,1,3.1.94A8.22,8.22,0,0,1,15.43,34a10.76,10.76,0,0,1,1,2.52,12,12,0,0,1,.36,2.38c0,.8.07,1.61,0,2.41a13.48,13.48,0,0,1-.22,1.85,11.55,11.55,0,0,1-.41,1.76,13.47,13.47,0,0,1-.83,1.92,7.61,7.61,0,0,1-1.45,1.88A9,9,0,0,1,12,50,9.8,9.8,0,0,1,9.69,51a15.71,15.71,0,0,1-3.9.52c-1.83,0-3.66,0-5.49,0l-.31,0ZM1.6,40.42q0,4.68,0,9.37c0,.23.07.31.3.3h2a19.61,19.61,0,0,0,4.73-.33,10.58,10.58,0,0,0,2.1-.74,7.21,7.21,0,0,0,2.22-1.68,8.17,8.17,0,0,0,1.82-3.62,13,13,0,0,0,.35-2.63,13,13,0,0,0-.81-5.53,7.1,7.1,0,0,0-1.08-1.84,6.77,6.77,0,0,0-3-2.14A12.78,12.78,0,0,0,8.32,31a15.5,15.5,0,0,0-2.37-.22c-1.33,0-2.66,0-4,0-.34,0-.35,0-.35.34Q1.6,35.76,1.6,40.42Z"/><path d="M73.36,0q0,1.86,0,3.71c0,.19-.08.26-.27.26h-5.3c-.27,0-.34-.07-.34-.36q0-1.64,0-3.29c0-.11,0-.22,0-.33Z"/><path class="cls-1" d="M8.57,0a4.85,4.85,0,0,1-.51.05H0A.83.83,0,0,1,.19,0Z"/><path d="M48.08,14.69a11.06,11.06,0,0,1,.37-3.16,7.54,7.54,0,0,1,2.48-4,7.27,7.27,0,0,1,2.23-1.25A12.35,12.35,0,0,1,56,5.74a9.8,9.8,0,0,1,2.46.13A7.53,7.53,0,0,1,61,6.76a7.37,7.37,0,0,1,2.23,1.86,8.16,8.16,0,0,1,1.25,2.23,9,9,0,0,1,.6,2.61A12.47,12.47,0,0,1,65,16.94a14.33,14.33,0,0,1-.55,2.11,7.16,7.16,0,0,1-2.29,3.12,7.6,7.6,0,0,1-2.77,1.35,11.56,11.56,0,0,1-4.43.22,7.5,7.5,0,0,1-2.27-.68,7.15,7.15,0,0,1-2.33-1.7,6.9,6.9,0,0,1-1.42-2.21,12.25,12.25,0,0,1-.6-1.93c-.16-.83-.19-1.69-.28-2.53Zm11.09.05c-.08-.75-.13-1.51-.27-2.26a4.6,4.6,0,0,0-.5-1.31,1.83,1.83,0,0,0-1.29-.87,2.17,2.17,0,0,0-2.4,1A5.33,5.33,0,0,0,54.22,13a11.84,11.84,0,0,0,0,3.26A5.91,5.91,0,0,0,54.59,18a2.29,2.29,0,0,0,.75,1,2.11,2.11,0,0,0,1.1.36A2.06,2.06,0,0,0,58,18.86,3.05,3.05,0,0,0,58.92,17C59.05,16.25,59.09,15.5,59.17,14.74Z"/><path d="M32.41,16.44H27.58c-.42,0-.43,0-.39.43a2.78,2.78,0,0,0,1.54,2.21,4.25,4.25,0,0,0,2.31.45,21.84,21.84,0,0,0,2.58-.28,11.9,11.9,0,0,0,1.75-.56c.17-.06.25,0,.29.14.1.45.2.91.31,1.36s.27,1.11.4,1.67a3.37,3.37,0,0,1,.1.61.3.3,0,0,1-.15.22,10.4,10.4,0,0,1-3.42,1,20.49,20.49,0,0,1-4.34.08,9.27,9.27,0,0,1-2.41-.57,7.38,7.38,0,0,1-2.8-1.82A7.09,7.09,0,0,1,21.84,19a10.79,10.79,0,0,1-.67-3.29,17.78,17.78,0,0,1,.09-2.8,11.65,11.65,0,0,1,.41-1.84A7.35,7.35,0,0,1,22.8,8.73,6.6,6.6,0,0,1,24.66,7a6.45,6.45,0,0,1,2.61-1,15.43,15.43,0,0,1,2.41-.25A12.72,12.72,0,0,1,32.37,6a6.42,6.42,0,0,1,4.15,3,8,8,0,0,1,.72,1.68,15.23,15.23,0,0,1,.41,4.78c0,.22,0,.44,0,.66s-.08.32-.33.32H32.41Zm-2.65-3.83H32c.18,0,.27-.05.26-.24a2.66,2.66,0,0,0-1-2,2.42,2.42,0,0,0-1.67-.46,2.34,2.34,0,0,0-1.23.43,2.64,2.64,0,0,0-1.06,2c0,.31,0,.34.3.34Z"/><path d="M114.32,16.45h-4.94c-.23,0-.26.14-.25.31a2.71,2.71,0,0,0,.75,1.69,3.4,3.4,0,0,0,2.21,1,11,11,0,0,0,2.57-.07,7.86,7.86,0,0,0,2.23-.58c.16-.07.32-.11.49-.17s.2,0,.23.12c.09.38.19.76.28,1.15q.22.94.43,1.88c0,.2.09.4.12.6s-.19.32-.35.38a11.86,11.86,0,0,1-2.76.85,19.35,19.35,0,0,1-3.91.19,18.36,18.36,0,0,1-2.26-.32,6.76,6.76,0,0,1-2.27-.88,7.08,7.08,0,0,1-2.27-2.1,7.85,7.85,0,0,1-1.26-3,12.5,12.5,0,0,1-.21-2.06,21.56,21.56,0,0,1,.07-2.5,9.12,9.12,0,0,1,.61-2.51,7.53,7.53,0,0,1,1.45-2.35,6.76,6.76,0,0,1,2.95-1.88A10.72,10.72,0,0,1,110,5.83a8.38,8.38,0,0,1,1.72-.12,15.06,15.06,0,0,1,2.6.33,6.49,6.49,0,0,1,4,2.69,7.47,7.47,0,0,1,1.06,2.55,21.46,21.46,0,0,1,.23,4.52c0,.55.16.66-.66.64-1.54,0-3.08,0-4.61,0Zm-2.6-3.83h2.18c.26,0,.31,0,.3-.3a2.61,2.61,0,0,0-.94-1.94,2.3,2.3,0,0,0-1.68-.49,2.27,2.27,0,0,0-1.66.77,3,3,0,0,0-.65,1.57c0,.33,0,.39.33.39Z"/><path d="M97.34,14.23c0,1.08,0,2.16,0,3.24A1.46,1.46,0,0,0,98,18.85a1.56,1.56,0,0,0,.63.17,6,6,0,0,0,2.36-.35l.49-.16c.17-.05.26,0,.26.19q0,.51,0,1c0,.9,0,1.8,0,2.7,0,.43,0,.47-.41.62a12.49,12.49,0,0,1-1.74.57,16.43,16.43,0,0,1-2.16.24,11.5,11.5,0,0,1-1.42,0A5.3,5.3,0,0,1,93.39,23,3.92,3.92,0,0,1,92,21.26a6.87,6.87,0,0,1-.55-2.33c0-.38-.05-.77-.05-1.15q0-3.38,0-6.77c0-.38,0-.41-.39-.41H89.65c-.29,0-.34-.06-.34-.35q0-1.93,0-3.86c0-.31.07-.38.37-.38.46,0,.92,0,1.37,0,.24,0,.32-.08.32-.32,0-1.25,0-2.51,0-3.76,0-.08,0-.16,0-.24s.09-.23.25-.25L94.35,1,95.51.82,97.1.56c.16,0,.22,0,.23.17s0,.22,0,.33c0,1.55,0,3.11,0,4.66,0,.23.07.3.3.3h3.12c.29,0,.33,0,.33.32,0,1.32,0,2.65,0,4,0,.23-.1.3-.32.29H97.65c-.29,0-.31,0-.31.31q0,1.66,0,3.31Z"/><path d="M77.74,14.9q0-2,0-3.9c0-.37,0-.39-.38-.39H76c-.27,0-.32-.06-.32-.32q0-2,0-3.93c0-.3,0-.33.35-.34.48,0,1,0,1.44,0,.22,0,.28-.08.28-.29,0-1.28,0-2.56,0-3.83,0-.24.08-.36.32-.4l2.21-.37,2.6-.46.58-.09c.16,0,.24,0,.25.2s0,.2,0,.31q0,2.22,0,4.45c0,.07,0,.14,0,.21S83.77,6,84,6h3.15c.3,0,.33,0,.33.32q0,2,0,4c0,.29,0,.32-.33.32H84.07c-.33,0-.37,0-.37.36,0,2,0,4.09,0,6.13a4.7,4.7,0,0,0,.15,1.07A1.24,1.24,0,0,0,85.1,19a6.38,6.38,0,0,0,2.3-.36l.53-.18c.13,0,.2,0,.2.15s0,.36,0,.54q0,1.63,0,3.26c0,.42,0,.44-.38.58A11.87,11.87,0,0,1,86,23.6a15.47,15.47,0,0,1-2.13.24,10.72,10.72,0,0,1-1.63,0,4.78,4.78,0,0,1-3.09-1.29,4.5,4.5,0,0,1-.78-1.17,7.36,7.36,0,0,1-.66-3.25c0-1.06,0-2.13,0-3.19Z"/><path d="M73.36,14.78q0,4.19,0,8.38c0,.36,0,.36-.35.36H67.79c-.3,0-.34,0-.34-.34q0-8.28,0-16.56c0-.67,0-.59.59-.59h5c.35,0,.36,0,.36.36Q73.36,10.58,73.36,14.78Z"/><path d="M67.19,45.13c0,2.27,0,4.17,0,6.07,0,.24-.08.33-.31.31s-.33,0-.5,0c-.32,0-.36,0-.4-.36-.09-.63-.17-1.26-.26-1.9A1,1,0,0,0,65.6,49a1.09,1.09,0,0,0-.22.16,8.14,8.14,0,0,1-2,1.79,5.94,5.94,0,0,1-1.38.59,7.46,7.46,0,0,1-2.69.26,4.82,4.82,0,0,1-3.5-1.55,3.89,3.89,0,0,1-.93-2A5.57,5.57,0,0,1,54.78,47a6.24,6.24,0,0,1,.34-1.65,4,4,0,0,1,1.46-1.81,7.34,7.34,0,0,1,2.34-1.08,19,19,0,0,1,5.06-.5c.5,0,1,0,1.49-.05a.23.23,0,0,0,.26-.27A10.31,10.31,0,0,0,65.56,39a3.68,3.68,0,0,0-1.29-2.24,3.73,3.73,0,0,0-2.15-.69,8.43,8.43,0,0,0-3,.39c-.61.2-1.2.47-1.79.72-.26.11-.37.08-.46-.17s-.23-.57-.36-.84,0-.21.1-.26c.35-.15.68-.32,1-.44s.87-.27,1.31-.39a8.62,8.62,0,0,1,2.21-.34,11.64,11.64,0,0,1,2.1.1,4.19,4.19,0,0,1,3.29,2.22A5.59,5.59,0,0,1,67.08,39C67.32,41.17,67.09,43.34,67.19,45.13Zm-3.91-1.88a18.85,18.85,0,0,0-3,.29,6.65,6.65,0,0,0-2.45.85,2.84,2.84,0,0,0-1.27,1.75,3.94,3.94,0,0,0-.1,1.54,2.84,2.84,0,0,0,1.23,2.1,3.76,3.76,0,0,0,2,.6,6.21,6.21,0,0,0,3.67-.83,4.77,4.77,0,0,0,2.1-2.8,11.62,11.62,0,0,0,.28-3.35c0-.19-.08-.28-.3-.26C64.68,43.2,64,43.22,63.28,43.25Z"/><path d="M48.1,42.07c0,1.58,0,3.15,0,4.73a5.4,5.4,0,0,0,.47,2.39,2.09,2.09,0,0,0,1.11,1,5.06,5.06,0,0,0,2.24.16,10.11,10.11,0,0,0,1.14-.15c.23,0,.31,0,.31.25s0,.52,0,.78-.08.22-.23.26a8.22,8.22,0,0,1-2.88.28,3.56,3.56,0,0,1-2.86-1.41,4.34,4.34,0,0,1-.57-1.23,11.56,11.56,0,0,1-.3-3.3q0-4.53,0-9.06c0-.41,0-.42-.42-.43l-1.75,0c-.19,0-.27-.09-.26-.28s0-.5,0-.76.1-.31.31-.31h1.7c.4,0,.42,0,.42-.4,0-1,0-2,0-3,0-.31,0-.35.35-.4s.63-.13,1-.17.29,0,.29.27q0,1.63,0,3.26c0,.39,0,.39.39.39h4.09c.31,0,.33,0,.34.33s0,.49,0,.73-.09.29-.29.29H48.9c-.19,0-.38,0-.57,0s-.24.08-.24.24c0,.32,0,.63,0,.95q0,2.26,0,4.52Z"/><path d="M72.88,39.7q0,5.74,0,11.47c0,.34,0,.34-.34.34h-.95c-.18,0-.26-.08-.26-.26,0-.39,0-.77,0-1.16q0-10.89,0-21.79c0-.39,0-.43.44-.43h.87c.17,0,.23.07.23.22s0,.22,0,.33Q72.88,34.07,72.88,39.7Z"/><path d="M21.25,43.28q0,4,0,7.92c0,.29,0,.31-.3.31H20c-.19,0-.25-.07-.25-.25,0-.38,0-.76,0-1.14q0-7.32,0-14.64s0-.08,0-.12c0-.33,0-.35.35-.35s.6,0,.9,0,.27.08.27.27c0,.39,0,.77,0,1.16Q21.25,39.86,21.25,43.28Z"/><path d="M41.94,43.3q0,4,0,7.93c0,.21-.06.3-.28.29s-.63,0-.95,0-.31,0-.31-.31q0-5.84,0-11.69,0-2,0-4.07c0-.41,0-.42.43-.42s.57,0,.85,0,.26.06.26.24,0,.65,0,1Q41.94,39.77,41.94,43.3Z"/><path d="M41.94,32.08c0,.24,0,.49,0,.73s0,.31-.31.31h-.94a.25.25,0,0,1-.29-.29c0-.51,0-1,0-1.53,0-.21.11-.3.31-.29s.66,0,1,0,.24.08.24.24S41.94,31.81,41.94,32.08Z"/><path d="M19.73,32.07c0-.25,0-.5,0-.76s.08-.31.29-.3H21c.19,0,.28.08.28.27,0,.53,0,1.06,0,1.58,0,.18-.08.27-.28.27H20c-.18,0-.26-.08-.26-.25s0-.54,0-.8Z"/><path class="cls-2" d="M6.18,11.76q0-3.11,0-6.22c0-.29,0-.33.32-.33.56,0,1.12,0,1.68,0a5.08,5.08,0,0,1,2.88.91,4.31,4.31,0,0,1,1.43,2.06A10.76,10.76,0,0,1,13,12.08a10.75,10.75,0,0,1-.36,2.64,4.68,4.68,0,0,1-1.8,2.74A5.19,5.19,0,0,1,8,18.3c-.51,0-1,0-1.54,0-.3,0-.32,0-.32-.32Q6.18,14.87,6.18,11.76Z"/><path class="cls-2" d="M30.41,50.73c.31,0,.62,0,.92,0,.71,0,1.43,0,2.14.15a3,3,0,0,1,1.87.85A2.16,2.16,0,0,1,35.93,53a4.3,4.3,0,0,1-.09,1.64,3.28,3.28,0,0,1-1.22,1.82,5.21,5.21,0,0,1-2.13.91c-.33.07-.67.11-1,.17a11.5,11.5,0,0,1-2.71.11,5.94,5.94,0,0,1-2.93-.78A2.77,2.77,0,0,1,24.58,55a3.91,3.91,0,0,1,.19-2.25A2.74,2.74,0,0,1,26,51.36a4.66,4.66,0,0,1,2.05-.57c.77-.05,1.54-.06,2.31-.09Z"/><path class="cls-2" d="M30,44.17a4.59,4.59,0,0,1-2.69-.75,3.47,3.47,0,0,1-1.44-2.16,5.22,5.22,0,0,1,.06-2.52,3.51,3.51,0,0,1,2.15-2.46,5.6,5.6,0,0,1,3.25-.19A3.51,3.51,0,0,1,33.1,37a3.47,3.47,0,0,1,.72,1,5.31,5.31,0,0,1,.3,3.13,3.25,3.25,0,0,1-1.48,2.33,3.82,3.82,0,0,1-1.6.58Z"/><path class="cls-2" d="M1.6,40.42q0-4.66,0-9.32c0-.34,0-.34.35-.34,1.33,0,2.67,0,4,0A15.5,15.5,0,0,1,8.32,31a12.78,12.78,0,0,1,1.91.58,6.77,6.77,0,0,1,3,2.14,7.1,7.1,0,0,1,1.08,1.84,13,13,0,0,1,.81,5.53,13,13,0,0,1-.35,2.63,8.17,8.17,0,0,1-1.82,3.62A7.21,7.21,0,0,1,10.69,49a10.58,10.58,0,0,1-2.1.74,19.61,19.61,0,0,1-4.73.33h-2c-.23,0-.3-.08-.3-.3Q1.6,45.1,1.6,40.42Z"/><path class="cls-2" d="M59.17,14.74c-.08.76-.12,1.51-.25,2.25A3.05,3.05,0,0,1,58,18.86a2.06,2.06,0,0,1-1.58.46,2.11,2.11,0,0,1-1.1-.36,2.29,2.29,0,0,1-.75-1,5.91,5.91,0,0,1-.41-1.71,11.84,11.84,0,0,1,0-3.26,5.33,5.33,0,0,1,.49-1.66,2.17,2.17,0,0,1,2.4-1,1.83,1.83,0,0,1,1.29.87,4.6,4.6,0,0,1,.5,1.31C59,13.22,59.09,14,59.17,14.74Z"/><path class="cls-2" d="M29.76,12.61H27.6c-.32,0-.35,0-.3-.34a2.64,2.64,0,0,1,1.06-2,2.34,2.34,0,0,1,1.23-.43,2.42,2.42,0,0,1,1.67.46,2.66,2.66,0,0,1,1,2c0,.19-.08.24-.26.24H29.76Z"/><path class="cls-2" d="M111.72,12.61h-2.13c-.34,0-.38-.06-.33-.39a3,3,0,0,1,.65-1.57,2.27,2.27,0,0,1,1.66-.77,2.3,2.3,0,0,1,1.68.49,2.61,2.61,0,0,1,.94,1.94c0,.26,0,.3-.3.3h-2.18Z"/><path class="cls-2" d="M63.28,43.25c.7,0,1.4-.05,2.1-.09.21,0,.3.07.3.26a11.62,11.62,0,0,1-.28,3.35,4.77,4.77,0,0,1-2.1,2.8,6.21,6.21,0,0,1-3.67.83,3.76,3.76,0,0,1-2-.6,2.84,2.84,0,0,1-1.23-2.1,3.94,3.94,0,0,1,.1-1.54,2.84,2.84,0,0,1,1.27-1.75,6.65,6.65,0,0,1,2.45-.85A18.85,18.85,0,0,1,63.28,43.25Z"/><circle class="cls-3" cx="124.07" cy="21.77" r="2.44"/></g></g></svg>