<svg xmlns="http://www.w3.org/2000/svg" viewBox="0 0 46.23 6.5"><title>Footlocker_white</title><path d="M16,4.92a.37.37,0,0,1-.37-.37V3.45h.63V1.93h-.63V.42H13.89V1.93h-.67V3.45h.67V5.59a.84.84,0,0,0,.84.84h1.79V4.92Z" fill="#fff"/><path d="M21.55,4.54V0H19.87V5.59a.84.84,0,0,0,.84.84h2.46V4.92H21.93A.37.37,0,0,1,21.55,4.54Z" fill="#fff"/><path d="M43.86,1.81a.84.84,0,0,0-.84.84V6.43H44.7V3.7a.37.37,0,0,1,.37-.37H46V1.81Z" fill="#fff"/><path d="M2.06,1.54H3.3V0H.84A.84.84,0,0,0,0,.87V6.43H1.68V4.15h.89V2.64H1.68V1.91A.37.37,0,0,1,2.06,1.54Z" fill="#fff"/><path d="M3,4.13A2.36,2.36,0,1,1,5.36,6.49,2.36,2.36,0,0,1,3,4.13Zm2.36.68a.68.68,0,1,0-.68-.68A.68.68,0,0,0,5.36,4.81Z" fill="#fff"/><path d="M8.18,4.13a2.36,2.36,0,1,1,2.36,2.36A2.36,2.36,0,0,1,8.18,4.13Zm2.36.68a.68.68,0,1,0-.68-.68A.68.68,0,0,0,10.54,4.81Z" fill="#fff"/><path d="M23.55,4.13a2.36,2.36,0,1,1,2.36,2.36A2.36,2.36,0,0,1,23.55,4.13Zm2.36.68a.68.68,0,1,0-.68-.68A.68.68,0,0,0,25.91,4.81Z" fill="#fff"/><path d="M31.73,4.49a.68.68,0,1,1,0-.73l1.42-.9a2.36,2.36,0,1,0,0,2.54Z" fill="#fff"/><polygon points="38.3 6.43 36.31 4.02 37.89 2.11 36.08 2.11 35.22 3.16 35.22 0.01 33.54 0.01 33.54 6.43 35.22 6.43 35.22 5.06 35.34 5.2 36.35 6.43 38.3 6.43" fill="#fff"/><path d="M40.67,4.74h0a.77.77,0,0,1-1.09-.15l3-.67a2.55,2.55,0,0,0-.49-1.25,2.42,2.42,0,0,0-1.73-.92,2.37,2.37,0,0,0-2.54,2.37A2.38,2.38,0,0,0,41.64,6h0a2.39,2.39,0,0,0,.56-.61l-1.35-.86A.77.77,0,0,1,40.67,4.74ZM39.46,3.9A.75.75,0,0,1,40,3.38a.79.79,0,0,1,.79.22Z" fill="#fff"/><path d="M45.37,6a.43.43,0,1,1,.43.43A.43.43,0,0,1,45.37,6Zm.8,0a.37.37,0,1,0-.37.37A.37.37,0,0,0,46.17,6ZM46,6.24h-.08L45.79,6h-.08v.22h-.07V5.77h.21c.09,0,.17,0,.17.13s-.07.13-.15.13ZM45.79,6c.06,0,.16,0,.16-.06s-.06-.06-.12-.06h-.13V6Z" fill="#fff"/></svg>