<svg xmlns="http://www.w3.org/2000/svg" viewBox="0 0 42.15 14.06"><title>globus_white</title><path d="M42.15,0V14.06H0V0H42.15ZM22.53,3.55v4h2a2.58,2.58,0,0,0,.44,0,1.14,1.14,0,0,0,.7-1.82,3.12,3.12,0,0,0-.37-.34v0a1,1,0,0,0-.09-1.56,1.25,1.25,0,0,0-.82-.26H22.53ZM18,3.47h-.22a2.11,2.11,0,0,0-1.49.73,2.05,2.05,0,0,0-.48,1.61,2,2,0,0,0,1,1.55,2.32,2.32,0,0,0,1.65.28A2.1,2.1,0,0,0,18,3.47ZM7.81,6.21c0,.16,0,.31,0,.46a.1.1,0,0,1-.08.11A1.75,1.75,0,0,1,7,6.86,1.27,1.27,0,0,1,5.86,5.14a1.34,1.34,0,0,1,1.3-.86,3,3,0,0,1,1.3.3l.21.1c0-.27,0-.53,0-.78a.12.12,0,0,0-.06-.08,3,3,0,0,0-2.43-.16A2,2,0,0,0,4.83,5.46a2,2,0,0,0,1.28,2,2.75,2.75,0,0,0,2.5-.21.16.16,0,0,0,.06-.12c0-.54,0-1.09,0-1.63,0,0,0-.05,0-.09H7.12v.78ZM28,3.56c0,.38,0,.75,0,1.12s0,1,0,1.52a1.39,1.39,0,0,0,.6,1.09,2.12,2.12,0,0,0,1.72.34A1.62,1.62,0,0,0,31.8,5.94c0-.75,0-1.51,0-2.26V3.56h-1v.13q0,1.17,0,2.34a.75.75,0,0,1-.43.73,1.09,1.09,0,0,1-.94,0A.71.71,0,0,1,29,6.21a1.85,1.85,0,0,1,0-.28q0-1.12,0-2.24V3.56Zm6.12,2.89c0,.27,0,.53,0,.79,0,0,0,.06.06.07a4.14,4.14,0,0,0,.51.23,2.32,2.32,0,0,0,1.58,0,1.16,1.16,0,0,0,.78-1.32,1,1,0,0,0-.63-.8c-.25-.12-.52-.21-.79-.32a3.59,3.59,0,0,1-.49-.23.26.26,0,0,1,0-.44.63.63,0,0,1,.25-.13,1.88,1.88,0,0,1,1.24.16l.23.11c0-.27,0-.53,0-.78a.12.12,0,0,0-.07-.08,4.65,4.65,0,0,0-.53-.18,2.23,2.23,0,0,0-1.47.08,1.1,1.1,0,0,0-.7,1,1,1,0,0,0,.65,1.06c.32.14.65.25,1,.38a1.49,1.49,0,0,1,.31.16.27.27,0,0,1,0,.44.68.68,0,0,1-.29.15,1.92,1.92,0,0,1-1.17-.16C34.45,6.62,34.32,6.53,34.16,6.45Zm-23,1.14h2.94V6.78h-2V3.56h-.95Zm18,3-.71-.85a.16.16,0,0,0-.09-.06h-.33v1.46h.36V10.2l.06.07.66.79s0,.06.07.06h.34V9.67h-.36Zm-14.76.54c-.18-.22-.19-.52-.43-.68a.38.38,0,0,0,.21-.45.37.37,0,0,0-.36-.3l-.41,0H13.2v1.46h.37v-.58c.15,0,.2.05.3.25s.09.26.18.32.24,0,.37,0Zm2.91-1.17V9.67h-1v1.45h1v-.28h-.64v-.32h.59v-.28h-.59V9.95ZM25,11.12h1v-.29h-.64v-.32H26v-.29h-.59V9.95H26V9.67H25ZM22.85,10a1.73,1.73,0,0,1,0-.2c0-.07,0-.1-.09-.13a.9.9,0,0,0-.48-.07.45.45,0,0,0-.32.17.4.4,0,0,0,.17.64l.32.14c.07,0,.14.08.12.16a.15.15,0,0,1-.18.11,2.55,2.55,0,0,1-.36-.1.73.73,0,0,1-.13-.08c0,.11,0,.2,0,.28A.11.11,0,0,0,22,11a.83.83,0,0,0,.55.11.47.47,0,0,0,.43-.31.44.44,0,0,0-.27-.56c-.1,0-.21-.08-.31-.14s-.07-.08-.1-.12a.6.6,0,0,1,.13-.09.22.22,0,0,1,.13,0Zm-3.38-.37v1.45h.33V9.67Z" fill="#fff"/><path d="M23.44,6.83V5.89h1a.42.42,0,0,1,.41.27.47.47,0,0,1-.36.67C24.18,6.84,23.81,6.83,23.44,6.83Z" fill="#fff"/><path d="M23.44,5.14V4.32h0c.29,0,.57,0,.86,0a.39.39,0,0,1,.34.42.38.38,0,0,1-.36.4Z" fill="#fff"/><path d="M19.2,5.57a1.25,1.25,0,0,1-.88,1.24,1.23,1.23,0,0,1-1.59-1.12,1.28,1.28,0,0,1,.53-1.21,1.23,1.23,0,0,1,1.91.78C19.18,5.37,19.19,5.47,19.2,5.57Z" fill="#fff"/><path d="M13.58,10.25V10c.1,0,.2,0,.26.06a.19.19,0,0,1,0,.16C13.79,10.29,13.68,10.25,13.58,10.25Z" fill="#fff"/></svg>