<svg xmlns="http://www.w3.org/2000/svg" viewBox="0 0 63.89 9.19"><title>hunkemoller_white</title><path d="M0,0H1C1,1.66,1,3.31,1,5c.09-.1.15-.23.23-.34a2.05,2.05,0,0,1,1.5-.9,2,2,0,0,1,1.38.36,1.29,1.29,0,0,1,.42,1c0,1.31,0,2.63,0,3.94h-1V4.76a.92.92,0,0,0-.25-.69.81.81,0,0,0-.65-.14,1.63,1.63,0,0,0-1,.55A3.84,3.84,0,0,0,1,5.31a.24.24,0,0,0,0,.14V9H0Z" fill="#fff"/><path d="M45.55,2.56a1,1,0,0,0,.64-.3,1,1,0,0,0,.22-.8A.72.72,0,0,0,46,.93a1.09,1.09,0,0,0-.95,0A3.9,3.9,0,0,0,44,1.84a.16.16,0,0,1-.24,0,4.42,4.42,0,0,0-.83-.72,1.37,1.37,0,0,0-.84-.25.75.75,0,0,0-.67.42,1,1,0,0,0,0,.81.92.92,0,0,0,.72.48,2.26,2.26,0,0,0,1.29-.21.35.35,0,0,1-.1.12,5.59,5.59,0,0,1-.77.66.84.84,0,0,1-.68.17s-.1,0-.1-.07a.23.23,0,0,0,0-.37.22.22,0,0,0-.35.14c0,.17.13.27.25.35a.79.79,0,0,0,.8,0,3.88,3.88,0,0,0,1.06-.92,2.28,2.28,0,0,1,.31-.33,8.17,8.17,0,0,0,.92,1,1.59,1.59,0,0,0,.74.39.73.73,0,0,0,.71-.31.22.22,0,0,0-.29-.3.23.23,0,0,0,0,.42.73.73,0,0,1-.77-.09,6.05,6.05,0,0,1-.93-.81A2.43,2.43,0,0,0,45.55,2.56ZM43.75,2a1.7,1.7,0,0,1-1.46.18.83.83,0,0,1-.56-.53.48.48,0,0,1,.34-.56,1,1,0,0,1,.72.09,3.21,3.21,0,0,1,1,.78A.11.11,0,0,1,43.75,2ZM44,2a3.07,3.07,0,0,1,.84-.73,1.17,1.17,0,0,1,.81-.18.5.5,0,0,1,.4.42.6.6,0,0,1-.28.53A1.61,1.61,0,0,1,44,2Z" fill="#fff"/><path d="M24,4.37A3.46,3.46,0,0,0,24.44,4a1.81,1.81,0,0,0-.35,0L21.36,6.64a1.84,1.84,0,0,1-.2.18c0-2.27,0-4.55,0-6.82h-1c0,3,0,6,0,9h1c0-.64,0-1.29,0-1.93a4.61,4.61,0,0,1,.43-.39l1.76,2.19c0,.05.09.15.18.13.42,0,.85,0,1.27,0C24,8,23.16,7,22.35,6,22.91,5.44,23.48,4.91,24,4.37Z" fill="#fff"/><path d="M51.56,0q0,4.52,0,9h1q0-4.52,0-9Z" fill="#fff"/><path d="M48.13,9c.34,0,.69,0,1,0V0h-1C48.14,3,48.14,6,48.13,9Z" fill="#fff"/><path d="M39.5,4.46a1.31,1.31,0,0,0-.77-.64,2.43,2.43,0,0,0-1.09-.09,1.89,1.89,0,0,0-1.39,1.19s0,.09-.06.1a1.47,1.47,0,0,0-.37-.89A1.46,1.46,0,0,0,35,3.75a2.22,2.22,0,0,0-1.13.1,2.18,2.18,0,0,0-1.06,1l0,0c0-.4,0-.79,0-1.19h-1c0,1.77,0,3.55,0,5.32.35,0,.7,0,1,0,0-1.17,0-2.34,0-3.51a.48.48,0,0,1,0-.19,3,3,0,0,1,.59-.95,1.45,1.45,0,0,1,1-.47.87.87,0,0,1,.67.2,1,1,0,0,1,.2.68V9c.35,0,.7,0,1,0,0-1.16,0-2.32,0-3.47a2.85,2.85,0,0,1,.49-1,1.51,1.51,0,0,1,1-.64.86.86,0,0,1,.74.21,1.19,1.19,0,0,1,.25.79V9c.35,0,.7,0,1,0,0-1.27,0-2.54,0-3.82A1.65,1.65,0,0,0,39.5,4.46Z" fill="#fff"/><path d="M29.28,8.63A2,2,0,0,1,27.84,9a1,1,0,0,1-.72-.45,2.2,2.2,0,0,1-.27-1.15c0-.47,0-.93,0-1.4H30c.11,0,.14-.1.12-.19a2.59,2.59,0,0,0-.46-1.07,2.25,2.25,0,0,0-1.41-1,1.86,1.86,0,0,0-1.46.36,3.11,3.11,0,0,0-1.12,1.84,3.23,3.23,0,0,0,.12,1.62A2.39,2.39,0,0,0,27.16,9c.19.08.39.11.59.18h.69A4.3,4.3,0,0,0,29,9a2.25,2.25,0,0,0,1.23-1.7h-.2A2.06,2.06,0,0,1,29.28,8.63Zm-2.23-4.2a1,1,0,0,1,1.66-.15A2.44,2.44,0,0,1,29,5.71c0,.08-.09.06-.15.06-.66,0-1.32,0-2,0A2.74,2.74,0,0,1,27.05,4.43Z" fill="#fff"/><path d="M17.07,3.76a2.2,2.2,0,0,0-1.16.08,2.43,2.43,0,0,0-1.18,1.1l0,0c0-.41,0-.83,0-1.24h-1c0,1.78,0,3.55,0,5.33h1c0-1.18,0-2.35,0-3.53,0-.06,0-.13,0-.19a4.9,4.9,0,0,1,.41-.66,1.85,1.85,0,0,1,1.06-.73.89.89,0,0,1,.74.12,1,1,0,0,1,.27.74c0,1.41,0,2.83,0,4.24h1V5.11A1.36,1.36,0,0,0,18,4.22,1.42,1.42,0,0,0,17.07,3.76Z" fill="#fff"/><path d="M10.3,3.71c0,1,0,2,0,3a3.13,3.13,0,0,1,0,.8,2.06,2.06,0,0,1-1,1.32,1,1,0,0,1-1,0,.81.81,0,0,1-.36-.69c0-1.49,0-3,0-4.49h-1c0,1.37,0,2.74,0,4.12a1.26,1.26,0,0,0,.46,1,2,2,0,0,0,.84.34h.66A3.24,3.24,0,0,0,9.36,9a2.1,2.1,0,0,0,.91-1.08c0,.38,0,.76,0,1.14.35,0,.7,0,1,0,0-1.77,0-3.54,0-5.32Z" fill="#fff"/><path d="M63.3,3.74a1.39,1.39,0,0,0-1,.2,2.07,2.07,0,0,0-.82,1.25,1.84,1.84,0,0,1,0-.38c0-.36,0-.73,0-1.09h-1c0,.35,0,.7,0,1.05,0,1.43,0,2.85,0,4.28h1V7.11a5.72,5.72,0,0,1,.17-1.91,2.25,2.25,0,0,1,.73-1.08A.81.81,0,0,1,63,3.93a.76.76,0,0,0-.23.36c0,.23,0,.55.21.67a.69.69,0,0,0,.65,0,.57.57,0,0,0,.22-.4V4.36A.73.73,0,0,0,63.3,3.74Z" fill="#fff"/><path d="M46.1,5a2.52,2.52,0,0,0-1.46-1.18,2.63,2.63,0,0,0-2.14.27,2.69,2.69,0,0,0-1,1.31,3,3,0,0,0-.06,1.92,2.68,2.68,0,0,0,1.19,1.53,3.47,3.47,0,0,0,.93.33h.73c.16-.06.33-.08.49-.14a2.59,2.59,0,0,0,1.49-1.4A3,3,0,0,0,46.1,5Zm-.89,3a1.14,1.14,0,0,1-.53.76A2,2,0,0,1,43.54,9a1.12,1.12,0,0,1-.85-.51,2.81,2.81,0,0,1-.25-1.34c0-.57,0-1.13,0-1.7a1.87,1.87,0,0,1,.33-1.09A1.1,1.1,0,0,1,43.44,4h0a2,2,0,0,1,1.21.12,1.11,1.11,0,0,1,.56.77,7.79,7.79,0,0,1,.09,1.63A7.7,7.7,0,0,1,45.21,8.06Z" fill="#fff"/><path d="M58.67,7.29a2,2,0,0,1-.9,1.41A2,2,0,0,1,56.45,9a1,1,0,0,1-.72-.42,2.11,2.11,0,0,1-.28-1.12c0-.48,0-1,0-1.45h3.2a.1.1,0,0,0,.12-.11,1.76,1.76,0,0,0-.21-.71,2.76,2.76,0,0,0-1-1.17,1.83,1.83,0,0,0-1.57-.16,2.46,2.46,0,0,0-1.15,1,3.07,3.07,0,0,0-.54,1.8,2.92,2.92,0,0,0,.64,1.81,2.22,2.22,0,0,0,1,.68c.14,0,.29.07.43.12H57a3.15,3.15,0,0,0,.71-.25,2.26,2.26,0,0,0,1.12-1.65ZM55.58,4.57a1,1,0,0,1,.6-.6A1.11,1.11,0,0,1,57,4a1,1,0,0,1,.44.63,3.59,3.59,0,0,1,.09,1c0,.05-.06.06-.11.06h-2A3.14,3.14,0,0,1,55.58,4.57Z" fill="#fff"/></svg>