<svg xmlns="http://www.w3.org/2000/svg" viewBox="0 0 164.31 34.75"><defs><style>.cls-1{isolation:isolate;}.cls-2{mix-blend-mode:multiply;}.cls-3{fill:#fff;}</style></defs><title>imagination</title><g class="cls-1"><g id="Layer_2" data-name="Layer 2"><g id="Layer_1-2" data-name="Layer 1"><g class="cls-2"><path class="cls-3" d="M0,2.05V33.42H6.88V2.05Z"/><path d="M84.06,33.48H77.15V.26l8.16,11.9V2.07h7.1V17.78l.23,0L98.14.49l.22,0,7.06,22.15.14,0V8h-3V2.09h20.27V6.51c3.62-4,7.9-6.14,13-6.14s9.43,2.1,13,6.14V.07l.23-.07,4.18,6.16c1.38,2,2.77,4.07,4.35,6.08V2.08h6.64V34.75l-8.12-12-.21.07v10.6h-7V27.67a16.86,16.86,0,0,1-26,.25v5.52h-7V8.08h-3.24V33.39a5.84,5.84,0,0,1-.74.11c-3,0-6,0-9,0a.89.89,0,0,1-1-.76c-.23-.8-.32-1.89-.87-2.26s-1.66-.18-2.52-.19-2.15-.32-2.82.13S95.05,32.1,94.65,33c-.11.24-.47.37-.73.55,0,0-.13,0-.19,0-2.4.45-4-.41-5.14-2.64a63,63,0,0,0-3.92-5.94c-.13-.2-.3-.38-.62-.78Zm51.85-6.4A9.93,9.93,0,1,0,126,17.2,9.92,9.92,0,0,0,135.91,27.08ZM99.75,25.7l-1.4-4.31L97,25.7Z"/><path d="M38.32,10.43C43.85-1,57.17-2.05,64.34,4.17L60.25,9.48A10.13,10.13,0,0,0,47,9.93a9.94,9.94,0,0,0,9.31,16.85c4-1,7.28-4.79,7.27-8.35H52.44V12.22H68V2.16h7V33.5H68v-7a17.87,17.87,0,0,1-10.44,7,16.85,16.85,0,0,1-12.48-2l.54,2c-2.14,0-4.22,0-6.3,0-.2,0-.48-.43-.58-.71-.65-1.81-.64-1.82-2.52-1.82-1.12,0-2.25,0-3.37,0a.86.86,0,0,0-1,.71c-.57,1.88-.6,1.87-2.55,1.87H21.62c0-2.25,0-4.39,0-6.53v-6.3l-.2-.06-2.75,3.33-2.71-3.39V33.44H9V.18l9.59,12.54L28.27.28V20.36l.29.06L35,.16ZM33.75,25.69h2.72l-1.34-4.32Z"/><path d="M0,2.05H6.88V33.42H0Z"/><path class="cls-3" d="M99.75,25.7H97l1.35-4.31Z"/><path class="cls-3" d="M33.75,25.69l1.38-4.32,1.34,4.32Z"/></g></g></g></g></svg>