<svg xmlns="http://www.w3.org/2000/svg" viewBox="0 0 60.8 6.88"><title>intersport_white</title><path d="M3.29,1.9A1.64,1.64,0,1,1,1.64.25,1.64,1.64,0,0,1,3.29,1.9Z" fill="#fff" fill-rule="evenodd"/><path d="M1.7,3.54s1.21.28,3-1.79A5,5,0,0,1,8.35.17V3.54A3.23,3.23,0,0,0,5.48,5.18,4.62,4.62,0,0,1,1.69,6.87V3.54Z" fill="#fff" fill-rule="evenodd"/><path d="M10,.89a.65.65,0,1,1,1.29,0V6A.65.65,0,1,1,10,6V.89Z" fill="#fff" fill-rule="evenodd"/><path d="M12.51,1c0-.59.26-.84.81-.84A.69.69,0,0,1,14,.55l2.25,4h0V.87c0-.46.24-.69.62-.69s.62.23.62.69V5.8c0,.57-.22.89-.76.89A.65.65,0,0,1,16,6.31L13.76,2.38h0V6c0,.46-.24.69-.62.69s-.62-.23-.62-.69V1Z" fill="#fff" fill-rule="evenodd"/><path d="M19.86,1.49H18.64A.6.6,0,0,1,18,.89a.6.6,0,0,1,.67-.6h3.72a.6.6,0,0,1,.67.6.6.6,0,0,1-.67.6H21.15V6a.65.65,0,1,1-1.29,0V1.49Z" fill="#fff" fill-rule="evenodd"/><path d="M23.52,1.13c0-.64.3-.84.75-.84h3c.38,0,.65.12.65.58s-.27.58-.65.58H24.8V2.8H27c.34,0,.6.1.6.55s-.27.55-.6.55H24.8V5.42h2.55c.38,0,.65.12.65.58s-.27.58-.65.58H24.27c-.46,0-.75-.2-.75-.84V1.13Z" fill="#fff" fill-rule="evenodd"/><path d="M30.3,1.39h1.33c.56,0,.93.17.93.85s-.49.85-1,.85H30.3V1.39ZM29,6A.65.65,0,1,0,30.3,6V4.13h1.27c.71,0,.89.45.89,1.55,0,.25.05,1,.76,1a.59.59,0,0,0,.6-.56,9.39,9.39,0,0,1-.17-1.29c0-.64-.12-1.17-.78-1.28v0a1.5,1.5,0,0,0,1-1.51c0-.81-.41-1.75-1.94-1.75H29.77c-.46,0-.75.2-.75.84V6Z" fill="#fff" fill-rule="evenodd"/><path d="M39.23,1.93a4.6,4.6,0,0,0-1.66-.31c-.34,0-.92,0-.92.41,0,.81,2.94,0,2.94,2.44,0,1.66-1.48,2.08-2.72,2.08a8.75,8.75,0,0,1-2.3-.29V4.64a4.73,4.73,0,0,0,1.92.41c.5,0,1-.12,1-.43,0-.84-2.94-.08-2.94-2.49,0-1.71,1.6-2,2.87-2a8.6,8.6,0,0,1,1.85.21V1.93Z" fill="#fff" fill-rule="evenodd"/><path d="M41.45,1.86h.19c.33,0,.75,0,.75.51s-.39.57-.74.57h-.2V1.86Zm-2,4.53h2V4.51h1a1.83,1.83,0,0,0,1.85-2.07A2.1,2.1,0,0,0,42.07.15H39.49V6.39Z" fill="#fff" fill-rule="evenodd"/><path d="M47.27,2.1a1.1,1.1,0,0,1,1,1.22,1.06,1.06,0,1,1-2.1,0,1.1,1.1,0,0,1,1-1.22Zm0-2.05a3.07,3.07,0,0,0-3.1,3.23,3.1,3.1,0,1,0,6.2,0A3.07,3.07,0,0,0,47.27.05Z" fill="#fff" fill-rule="evenodd"/><path d="M52.29,1.86h.16c.35,0,.65.06.65.54s-.33.52-.67.52h-.14V1.86Zm-2,4.53h2v-2h0l.89,2h2.35l-1.22-2A1.51,1.51,0,0,0,54,4v0a1.46,1.46,0,0,0,1.09-1.62A2.06,2.06,0,0,0,52.76.15H50.3V6.39Z" fill="#fff" fill-rule="evenodd"/><polygon points="54.86 0.15 59.14 0.15 59.14 2.18 58.02 2.12 58.02 6.39 55.98 6.39 55.98 2.12 54.86 2.18 54.86 0.15 54.86 0.15" fill="#fff" fill-rule="evenodd"/><path d="M60.19,1.2a.48.48,0,0,1-.47-.52.47.47,0,1,1,.93,0,.48.48,0,0,1-.47.52Zm0,.16A.65.65,0,0,0,60.8.68a.62.62,0,1,0-1.22,0,.65.65,0,0,0,.61.68Zm.14-.63A.17.17,0,0,0,60.5.54c0-.19-.1-.22-.25-.22h-.31V1h.14V.73h.1l.14.3h.15l-.15-.3ZM60.09.62V.45h.14c.06,0,.14,0,.14.07s0,.11-.11.11Z" fill="#fff" fill-rule="evenodd"/></svg>