<svg xmlns="http://www.w3.org/2000/svg" viewBox="0 0 34.5 17.62"><title>jaguar_white</title><path d="M12.91,5.76a1.25,1.25,0,0,1-1.1.53,4.65,4.65,0,0,1-2.31-.53A4.8,4.8,0,0,0,9,5.54a1.65,1.65,0,0,0-.62-.09c-.16,0-.19,0-.17.2A.5.5,0,0,1,8,6.05a1.08,1.08,0,0,1-.58.36.67.67,0,0,1-.8-.55,1.16,1.16,0,0,1,.26-1,1.89,1.89,0,0,1,.83-.59,3.62,3.62,0,0,1,1.08-.22h.36S9.15,4,9.13,4A7.13,7.13,0,0,0,7.34,3a1.83,1.83,0,0,0-1-.13A2.59,2.59,0,0,0,5,3.55a1.54,1.54,0,0,1-.31.25A.5.5,0,0,1,4,3.38a.15.15,0,0,1,0-.1c.11-.1.07-.21,0-.32s0,0,0-.06l.16.06a.23.23,0,0,0,.29-.05.68.68,0,0,0,.21-.72A.35.35,0,0,0,4.07,2a.56.56,0,0,0-.14.69.83.83,0,0,1,0,.11.41.41,0,0,1-.27,0,.39.39,0,0,0-.17,0,.62.62,0,0,1-.59-.23,3.14,3.14,0,0,1-.28-.41.32.32,0,0,1,.05-.42c.16-.16.33-.31.51-.45a.21.21,0,0,0,.1-.18A.36.36,0,0,1,3.41.85,1.57,1.57,0,0,1,3.94.46,4.39,4.39,0,0,1,5.19.1a9.87,9.87,0,0,1,2.64,0,27.64,27.64,0,0,1,5.6,1.32c1.66.54,3.26,1.23,4.86,1.92,2.82,1.2,5.54,2.6,8.24,4.05.31.17.6.36.9.54a12.88,12.88,0,0,0,1.6.87,2.26,2.26,0,0,0,1.93,0,1.45,1.45,0,0,1,.36-.13.94.94,0,0,1,.38,0,.35.35,0,0,1,.25.49,1.16,1.16,0,0,1-.2.33,1.77,1.77,0,0,1-1,.54,3.66,3.66,0,0,1-.92.08h-.21c0,.08,0,.16,0,.23a.65.65,0,0,1-.52.73,1.7,1.7,0,0,1-.91-.07A4.13,4.13,0,0,1,27,10.31c-.22-.17-.43-.34-.64-.53A2.27,2.27,0,0,0,25,9.24a13.86,13.86,0,0,0-1.79,0,6.43,6.43,0,0,1-1.3-.06A3.21,3.21,0,0,1,19.8,7.88a9.61,9.61,0,0,1-.64-1,1.32,1.32,0,0,0-1-.69,2.93,2.93,0,0,0-.61,0L16,6.19a7.92,7.92,0,0,1-3-.41Zm4.85-.62,0,0c.11.07.23.14.33.22a4.55,4.55,0,0,1,1.12,1.28c.11.19.21.37.33.55a3.35,3.35,0,0,0,3,1.57c.42,0,.85,0,1.27,0s.78,0,1.17.09a2.33,2.33,0,0,1,1.24.51l.74.61c.19.15.38.3.57.43a1.52,1.52,0,0,0,.83.27.84.84,0,0,0,.46-.09.4.4,0,0,0,.21-.38.37.37,0,0,0-.24-.34,3.58,3.58,0,0,1-1.51-1.19,2.48,2.48,0,0,0-.33-.37,1.65,1.65,0,0,0-1-.4l-1.75-.1A1.37,1.37,0,0,1,23,7a4.84,4.84,0,0,0-.57-1,1.38,1.38,0,0,1,.53.46c.13.18.27.37.42.54a1.65,1.65,0,0,0,1,.56c.51.08,1,.16,1.53.21a1.88,1.88,0,0,1,1.33.65c.15.17.32.32.47.49A2.63,2.63,0,0,0,29,9.61a3.87,3.87,0,0,1,.38.15,1.61,1.61,0,0,0,.29.1,3.32,3.32,0,0,0,1.1,0,1.62,1.62,0,0,0,.78-.36.48.48,0,0,0,.2-.3.24.24,0,0,0-.25-.29l-.16,0a2.87,2.87,0,0,0-.38.13,1.48,1.48,0,0,1-.64.13,3.14,3.14,0,0,1-1.45-.35c-.5-.26-1-.53-1.49-.8-.31-.17-.61-.37-.93-.53s-.92-.45-1.36-.69c-1.39-.75-2.82-1.43-4.27-2.07-2.19-1-4.4-1.85-6.66-2.61A18.35,18.35,0,0,0,12,1.56a.55.55,0,0,0-.32,0c.06.12.12.23.17.34a.69.69,0,0,1,.1.35,5,5,0,0,0-1.58-1A8.1,8.1,0,0,0,7.95.59a1.91,1.91,0,0,0-1.2.25A2.58,2.58,0,0,0,6.53,1a2.85,2.85,0,0,1,.91.54,2.1,2.1,0,0,1,.61.8l-.15-.11c-.32-.21-.64-.43-1-.63a2.66,2.66,0,0,0-.8-.31,2.2,2.2,0,0,1-.43-.16A.32.32,0,0,1,5.49.9a1.63,1.63,0,0,0,.74,0A.89.89,0,0,0,6.8.46l-.07,0A6.37,6.37,0,0,0,4.56.52a4.91,4.91,0,0,0-.73.25A.79.79,0,0,0,3.56,1c-.08.1,0,.2.08.24a.47.47,0,0,0,.13,0,.56.56,0,0,1,.44-.4,1,1,0,0,1,.62.06,1.18,1.18,0,0,1-.9.51l-.27,0A.91.91,0,0,0,3,1.91a.36.36,0,0,0,0,.24.44.44,0,0,0,.33.29.32.32,0,0,0,.36-.13l.13-.2C3.87,2,4,1.85,4,1.72a.48.48,0,0,1,.45-.21A.56.56,0,0,1,5,1.86a.79.79,0,0,1-.11.93c-.18.19-.38.35-.57.52l-.12.1c.11.16.21.2.37.13a.9.9,0,0,0,.2-.13l.37-.33a2,2,0,0,1,.24-.16,4.28,4.28,0,0,0,.41-.24.66.66,0,0,0,.28-.61c0-.18-.07-.35-.1-.52a.41.41,0,0,1,.25.1,1.3,1.3,0,0,1,.4.48.65.65,0,0,0,.49.37A3.31,3.31,0,0,1,9,3.6l.1.09A1.81,1.81,0,0,1,9,2.59c.11.23.22.46.31.69a1.77,1.77,0,0,0,1.16,1l.33.11L11,4.5a.19.19,0,0,1-.11,0,9.74,9.74,0,0,0-1.69-.13,3.45,3.45,0,0,0-1.37.25,1.61,1.61,0,0,0-.6.42A1.06,1.06,0,0,0,7,5.77a.41.41,0,0,0,.25.38.35.35,0,0,0,.44-.06,3,3,0,0,0,.24-.25c.09-.11.08-.13,0-.21a.19.19,0,0,1,0-.34A.43.43,0,0,1,8,5.18a1.3,1.3,0,0,1,.39-.07,4,4,0,0,1,.75.09c.37.09.74.22,1.11.32a3.07,3.07,0,0,0,1.4.13,1,1,0,0,0,.92-1.06,4.79,4.79,0,0,0-.1-.89l-.07-.35.12.08a5,5,0,0,0,1.07.6,8.8,8.8,0,0,0,2.42.6l.13,0v0A9.15,9.15,0,0,1,13,4.21a2.48,2.48,0,0,1,.15,1l0,0a6.76,6.76,0,0,0,2.22.61c.79.07,1.58,0,2.38,0l.46,0A1.41,1.41,0,0,0,17.76,5.14ZM4.37,1C4.14.94,4,1,3.93,1.22,4.1,1.21,4.27,1.2,4.37,1Z" fill="#fff"/><path d="M33.25,14.83l1.25,1.73-.14,0H33.6a.25.25,0,0,1-.24-.13l-.93-1.35-.12-.17h-.8v1.64h-.9V12.19h1.66a3.35,3.35,0,0,1,.93.12,1.37,1.37,0,0,1,.57.3,1.24,1.24,0,0,1,.37,1.09,1.28,1.28,0,0,1-.7,1l-.18.1Zm-1.72-.28c.29,0,.57,0,.84,0a1,1,0,0,0,.85-1.15.82.82,0,0,0-.6-.71,3.26,3.26,0,0,0-1.08-.07Z" fill="#fff"/><path d="M15,12.44V13L14.9,13a2.48,2.48,0,0,0-1.12-.43,2.09,2.09,0,0,0-1.28.25,1.67,1.67,0,0,0-.84,1.3,2.13,2.13,0,0,0,.11,1.11,1.57,1.57,0,0,0,1.21,1,2.58,2.58,0,0,0,1.24-.08l.07,0V14.51h.89v1.82l-.21.09a4.81,4.81,0,0,1-2.81.08,2.08,2.08,0,0,1-1.1-3.31,2.56,2.56,0,0,1,1.5-1,3.66,3.66,0,0,1,2.23.11Z" fill="#fff"/><path d="M17.73,12.19h.9v.22q0,1.17,0,2.34c0,.16,0,.32,0,.48a1,1,0,0,0,.87,1,2.32,2.32,0,0,0,.86,0,1.05,1.05,0,0,0,.94-1,4.23,4.23,0,0,0,0-.48c0-.76,0-1.51,0-2.27v-.23h.57a.39.39,0,0,1,0,.09c0,.91,0,1.83,0,2.74a2,2,0,0,1-.09.51,1.46,1.46,0,0,1-1.22,1.07,3.92,3.92,0,0,1-1.81-.06,1.34,1.34,0,0,1-1.07-1.25c0-.15,0-.31,0-.46,0-.82,0-1.65,0-2.47C17.72,12.3,17.73,12.26,17.73,12.19Z" fill="#fff"/><path d="M6.89,12.18,9,16.57H8.09a.18.18,0,0,1-.19-.13c-.14-.32-.28-.64-.43-1,0-.08-.07-.13-.17-.13h-2l-.57,1.19h-.6a1.42,1.42,0,0,1,.05-.14l2-4.1a.21.21,0,0,1,.24-.14Zm-.49,1c-.3.63-.59,1.22-.87,1.83H7.24Z" fill="#fff"/><path d="M24.35,16.56h-.62l2.18-4.37h.58l2.13,4.37-.17,0c-.25,0-.49,0-.74,0a.22.22,0,0,1-.24-.17c-.12-.29-.26-.58-.39-.87L27,15.37H24.93ZM25.12,15h1.71L26,13.14Z" fill="#fff"/><path d="M0,17.57l.1-.1A1.91,1.91,0,0,0,.88,16c0-.32,0-.64,0-1,0-.87,0-1.74,0-2.62v-.23h.9c0,.06,0,.12,0,.18,0,1.05,0,2.1,0,3.15a2.4,2.4,0,0,1-.24,1.09,1.76,1.76,0,0,1-1.44,1H0Z" fill="#fff"/><path d="M6.45.62a1.21,1.21,0,0,1-.71.1C5.83.55,6.11.51,6.45.62Z" fill="#fff"/></svg>