<svg xmlns="http://www.w3.org/2000/svg" viewBox="0 0 31.61 15.91"><title>land_rover_white</title><path d="M15.8,0c.92,0,1.84.07,2.76.15a26.32,26.32,0,0,1,4,.65A20.43,20.43,0,0,1,26.9,2.32a11,11,0,0,1,3.22,2.29A5.29,5.29,0,0,1,31.5,7,4.21,4.21,0,0,1,31,10.21a7.53,7.53,0,0,1-2.08,2.22A14,14,0,0,1,26,14a19.33,19.33,0,0,1-3.27,1.07c-.92.21-1.86.37-2.79.52a24.71,24.71,0,0,1-3,.26,30.6,30.6,0,0,1-3.65-.07A26.12,26.12,0,0,1,7,14.56a15.71,15.71,0,0,1-4.08-2,7.91,7.91,0,0,1-2.2-2.22A4.34,4.34,0,0,1,0,7.66,4.54,4.54,0,0,1,.84,5.41a8.76,8.76,0,0,1,2.79-2.5,18.38,18.38,0,0,1,4.94-2A24.87,24.87,0,0,1,12.44.21C13.16.14,13.88.1,14.61.06c.39,0,.79,0,1.19,0Zm0,15.29a31.15,31.15,0,0,0,3.44-.19,25.75,25.75,0,0,0,4.71-1,16.3,16.3,0,0,0,4-1.76,8.07,8.07,0,0,0,2.21-2,3.85,3.85,0,0,0,.2-4.6,7.16,7.16,0,0,0-2.06-2,15.11,15.11,0,0,0-3.89-1.86A26.65,26.65,0,0,0,17.23.68,30.73,30.73,0,0,0,11.42,1,24,24,0,0,0,6.87,2,14.75,14.75,0,0,0,3.3,3.81,7,7,0,0,0,1.2,5.93a3.74,3.74,0,0,0-.47,3,4.74,4.74,0,0,0,1.13,2,9.7,9.7,0,0,0,2.76,2,19.24,19.24,0,0,0,4.55,1.63A29.1,29.1,0,0,0,15.8,15.29Z" fill="#fff"/><path d="M15.8,14.93a29.47,29.47,0,0,1-7.68-1A15.8,15.8,0,0,1,3.75,12a7.12,7.12,0,0,1-2-1.88A3.59,3.59,0,0,1,1,7.53a4,4,0,0,1,.91-2A7.82,7.82,0,0,1,4,3.78,18,18,0,0,1,9.6,1.68a28,28,0,0,1,4.23-.58,31.08,31.08,0,0,1,4.18,0,25.5,25.5,0,0,1,6.66,1.31A13.6,13.6,0,0,1,28.4,4.33,6.38,6.38,0,0,1,30,6a3.52,3.52,0,0,1-.09,4,7.52,7.52,0,0,1-2.35,2.11A16.79,16.79,0,0,1,23.05,14a24.91,24.91,0,0,1-4.54.76C17.61,14.84,16.7,14.88,15.8,14.93Zm-.26-7.77h.88A.2.2,0,0,0,16.65,7c.33-.92.68-1.84,1-2.76l.38-1H17c-.18.69-.48,1.31-.71,2a4.42,4.42,0,0,1-.07-.44c-.06-.47-.12-.95-.17-1.42,0-.08,0-.12-.13-.11h-1a2.69,2.69,0,0,1-.07.33L14,5.76l-.51,1.38h1a2.9,2.9,0,0,1,.06-.34c.06-.18.13-.36.19-.53l.43-1.17h0ZM23.63,8a.67.67,0,0,1,0,.52c-.17.46-.33.93-.51,1.39a16.77,16.77,0,0,1-.79,2h1.25A11,11,0,0,1,24,10.6L24.67,12h1.28l-.84-1.46a3.43,3.43,0,0,0,.5-.14,1.42,1.42,0,0,0,.83-1.15.92.92,0,0,0-.76-1.15,1.08,1.08,0,0,0-.23,0ZM10.72,10.48l.25,0A1.47,1.47,0,0,0,12.09,9a.8.8,0,0,0-.51-.8A2,2,0,0,0,10.9,8c-.52,0-1,0-1.57,0h0a2.36,2.36,0,0,1-.06.44c-.3.88-.61,1.76-.92,2.64-.1.28-.22.56-.32.84H9.14l.5-1.37L10.33,12h1.23Zm6.73-3.32h.05c.54,0,1.08,0,1.62,0a2.53,2.53,0,0,0,1.65-.68,2.86,2.86,0,0,0,.86-1.73,1.8,1.8,0,0,0,0-.67,1.1,1.1,0,0,0-1.08-.83c-.57,0-1.14,0-1.71,0l0,0h0a3.53,3.53,0,0,1-.11.55c-.36,1-.74,2-1.11,3C17.57,6.92,17.51,7,17.46,7.15ZM16,9.57c0-.23-.06-.46-.11-.68a1.19,1.19,0,0,0-1-.94,2,2,0,0,0-1.48.27,2.6,2.6,0,0,0-1.21,2.32A1.47,1.47,0,0,0,14.05,12,2.56,2.56,0,0,0,16,9.57ZM11.94,3.22a2.46,2.46,0,0,1-.17.38L9.38,7.15h1.17l.27-.5a.12.12,0,0,1,.09,0h1.23l0,.55h1.17a2,2,0,0,1-.06-.3Q13.12,5.22,13,3.59a3.57,3.57,0,0,1,0-.37Zm9.35,6.34c.07-.19.14-.37.19-.55a.16.16,0,0,1,.19-.14h.88a2.09,2.09,0,0,1,.27,0L23.15,8H20.62c0,.18-.07.36-.13.52-.21.6-.43,1.2-.66,1.8A9.54,9.54,0,0,1,19.17,12s0,0,0,0h2.48s.13,0,.14,0c.11-.29.2-.58.3-.87H20.7c.07-.19.13-.36.2-.53a.17.17,0,0,1,.12-.09h1l.32-.9ZM16.41,8c0,.15,0,.28,0,.41q0,1.41,0,2.82c0,.24,0,.47,0,.72h.83c.1,0,.19,0,.23-.12a.68.68,0,0,1,.13-.19c.94-1.21,1.78-2.49,2.8-3.63H19a1.09,1.09,0,0,1-.08.27L18,9.74l-.46.68c0-.33,0-.63,0-.93A6.86,6.86,0,0,1,17.63,8ZM8,3.22a2.22,2.22,0,0,1-.07.39C7.49,4.79,7.08,6,6.62,7.16H8.79c.24,0,.24,0,.32-.22l.24-.67H8.07L9.23,3.22ZM6.07,9.45v0l.13,0,1.55-.54a.22.22,0,0,0,.12-.09A2.54,2.54,0,0,0,8,8.45l-.16,0c-.76.25-1.51.52-2.28.74a.72.72,0,0,0-.6.61,3.85,3.85,0,0,1-.16.5H7.25a.09.09,0,0,0,.07,0l.3-.84Zm16-2.83,2.81-.92A.14.14,0,0,0,25,5.63l.31-.91h-2c-.17,0-.38-.06-.49,0s-.14.3-.19.46l-.14.41H24a.16.16,0,0,1-.08.06l-1.57.54a.23.23,0,0,0-.13.08A2.6,2.6,0,0,0,22.09,6.62Z" fill="#fff"/><path d="M24.32,9.72c.08-.24.16-.48.24-.71A.11.11,0,0,1,24.65,9H25a.24.24,0,0,1,.24.32.52.52,0,0,1-.47.44A3.18,3.18,0,0,1,24.32,9.72Z" fill="#fff"/><path d="M9.94,9.71c.09-.25.16-.49.25-.72a.12.12,0,0,1,.09-.06,2,2,0,0,1,.37,0,.26.26,0,0,1,.21.4.74.74,0,0,1-.27.29A1.09,1.09,0,0,1,9.94,9.71Z" fill="#fff"/><path d="M18.94,6.24l.36-1c.12-.34.25-.68.36-1a.16.16,0,0,1,.18-.13c.45,0,.62.17.57.62a2.3,2.3,0,0,1-.48,1.18A1,1,0,0,1,18.94,6.24Z" fill="#fff"/><path d="M13.42,10.47a2.28,2.28,0,0,1,.35-1.23,1.19,1.19,0,0,1,.29-.3.47.47,0,0,1,.77.33,2.34,2.34,0,0,1-.27,1.38,1.11,1.11,0,0,1-.24.32.68.68,0,0,1-.29.15.44.44,0,0,1-.56-.35A2.55,2.55,0,0,1,13.42,10.47Z" fill="#fff"/><path d="M12.09,4.61V5.69H11.4l.67-1.09Z" fill="#fff"/></svg>