<svg xmlns="http://www.w3.org/2000/svg" viewBox="0 0 302.98 46.41"><title>Samsung</title><g id="Layer_2" data-name="Layer 2"><g id="Layer_1-2" data-name="Layer 1"><path d="M11.51,12.54a5.37,5.37,0,0,1,0-2.27c.3-1.38,1.23-2.92,4-2.92a3.7,3.7,0,0,1,4,3.93V14h10.8v-3C30.26,1.5,21.77,0,15.64,0,8,0,1.67,2.55.52,9.62A14.85,14.85,0,0,0,.6,15.46c1.88,8.86,17.27,11.42,19.51,17a5.49,5.49,0,0,1,.08,3.2c-.35,1.45-1.33,2.93-4.22,2.93-2.71,0-4.33-1.58-4.33-3.95V30.5H0v3.31c0,9.69,7.61,12.6,15.75,12.6,7.83,0,14.25-2.67,15.31-9.92A21.59,21.59,0,0,0,31,29.4c-1.82-9.09-18.25-11.78-19.49-16.86Zm276.15,7.84V26.7h4.44V33a8.38,8.38,0,0,1-.11,1.65c-.18,1.17-1.29,3.16-4.43,3.16s-4.23-2-4.41-3.16A10.1,10.1,0,0,1,283,33V13.17a8.53,8.53,0,0,1,.2-2c.21-1.05,1.14-3.14,4.31-3.14s4.13,2.2,4.32,3.14A10.17,10.17,0,0,1,292,12.8V15.2H302.9V13.78a25.87,25.87,0,0,0-.08-2.87C302,2.79,295.3.21,287.63.21s-14.25,2.6-15.21,10.7c-.09.75-.22,2.07-.22,2.87V32a25.1,25.1,0,0,0,.18,2.86c.71,7.9,7.56,10.7,15.22,10.7s14.5-2.8,15.23-10.7c.12-1.45.13-2.07.15-2.86V20.38Zm-75.21-19h-11v32a7.61,7.61,0,0,1-.09,1.64,3.91,3.91,0,0,1-4.16,3.15,3.87,3.87,0,0,1-4.12-3.15,6.77,6.77,0,0,1-.12-1.64v-32H182v31c0,.81.05,2.44.09,2.87.76,8.08,7.13,10.72,15.1,10.72s14.35-2.63,15.12-10.72a26.21,26.21,0,0,0,.1-2.87v-31Zm-100.65,0-5.47,33.85L100.87,1.38H83.2L82.27,44.7H93.09l.29-40.1,7.45,40.1h11l7.46-40.1.3,40.1h10.85l-1-43.31Zm-65.43,0-8,43.31H50L56.1,4.59,62,44.7H73.62l-8-43.31ZM250.73,36.25,240.54,1.38H224.46V44.24h10.62l-.61-36,11,36h15.42V1.38h-10.7l.59,34.87Zm-98.35-23.6a5.73,5.73,0,0,1,0-2.24c.31-1.39,1.25-2.9,3.92-2.9a3.65,3.65,0,0,1,4,3.9v2.64h10.69V11c0-9.34-8.37-10.8-14.43-10.8-7.62,0-13.86,2.52-15,9.54a14.43,14.43,0,0,0,.1,5.77c1.85,8.76,17.1,11.3,19.31,16.84a5.82,5.82,0,0,1,.08,3.18c-.33,1.44-1.31,2.89-4.18,2.89-2.69,0-4.32-1.55-4.32-3.89V30.41H141v3.31c0,9.57,7.5,12.46,15.58,12.46,7.73,0,14.12-2.64,15.15-9.81a21.27,21.27,0,0,0-.08-7c-1.8-9-18-11.69-19.27-16.7Z"/></g></g></svg>