<svg xmlns="http://www.w3.org/2000/svg" viewBox="0 0 42.97 6.28"><title>samsung_white</title><path d="M13.37,6H11.88L12,.26h2.53l.1.64.31,2c0,.16,0,.31.07.47s.05.06.08.1.09-.06.09-.1c.08-.43.15-.87.22-1.3L15.66.54l.05-.31h2.5L18.37,6H16.88c0-.41,0-.82,0-1.23q0-1.51,0-3s0-.09-.07-.13-.09.08-.1.12c-.15.85-.3,1.7-.45,2.55-.1.53-.19,1.06-.29,1.6,0,0-.07.12-.11.12H14.34l-.17-.9-.61-3.33a.2.2,0,0,0,0-.09s-.06-.06-.09-.06a.11.11,0,0,0-.07.08c0,.14,0,.29,0,.43q0,1.86,0,3.72Z" fill="#fff"/><path d="M34.25.23l1.58,3.59h.06a.53.53,0,0,0,0-.13c0-.86-.06-1.72-.09-2.59,0-.28,0-.56,0-.85H37.3V6H35.52L34.77,4.4,34,2.6a.47.47,0,0,0-.1-.1.42.42,0,0,0,0,.14c0,.69,0,1.38.06,2.06,0,.44,0,.89,0,1.34H32.43V.23Z" fill="#fff"/><path d="M28.7.24h1.58V.42c0,1.41,0,2.83,0,4.24A1.33,1.33,0,0,1,29.43,6,3,3,0,0,1,27,6a1.35,1.35,0,0,1-.87-1.31c0-1.45,0-2.89,0-4.34,0,0,0-.06,0-.1h1.6c0,.06,0,.12,0,.18,0,1.37,0,2.74,0,4.12a.87.87,0,0,0,.08.38.44.44,0,0,0,.52.2.39.39,0,0,0,.32-.35,1.82,1.82,0,0,0,0-.28q0-2,0-4Z" fill="#fff"/><path d="M20.12,4.2h1.61c0,.16,0,.32,0,.47a.46.46,0,0,0,.47.47.48.48,0,0,0,.47-.47A.76.76,0,0,0,22.2,4c-.43-.25-.88-.47-1.31-.73A1.33,1.33,0,0,1,20.25,2c0-.26,0-.53,0-.79a1.06,1.06,0,0,1,.67-1,2.58,2.58,0,0,1,1-.23,3.39,3.39,0,0,1,1.46.19,1.09,1.09,0,0,1,.74,1.08c0,.18,0,.36,0,.54S24.11,2,24,2H22.79c-.1,0-.13,0-.12-.13s0-.18,0-.27a.42.42,0,0,0-.27-.42.51.51,0,0,0-.54.09.52.52,0,0,0-.08.55,1.27,1.27,0,0,0,.62.52l1.08.56a1.48,1.48,0,0,1,.79,1.41c0,.21,0,.41,0,.62a1.19,1.19,0,0,1-.72,1,3.14,3.14,0,0,1-2.47.13,1.3,1.3,0,0,1-.93-1.31C20.13,4.59,20.12,4.4,20.12,4.2Z" fill="#fff"/><path d="M4,2H2.52c0-.15,0-.3,0-.45a.42.42,0,0,0-.43-.41.45.45,0,0,0-.47.35A.63.63,0,0,0,2,2.16c.37.2.76.39,1.14.59A1.61,1.61,0,0,1,4,3.6a2,2,0,0,1,.12.55A4.3,4.3,0,0,1,4.1,5a1.24,1.24,0,0,1-.84,1A3.12,3.12,0,0,1,.76,6,1.21,1.21,0,0,1,0,4.8c0-.2,0-.39,0-.6H1.61c0,.16,0,.31,0,.46a.44.44,0,0,0,.4.48.48.48,0,0,0,.5-.35.62.62,0,0,0-.29-.71c-.25-.17-.52-.29-.79-.44s-.52-.3-.77-.46a1.15,1.15,0,0,1-.53-.93,7.08,7.08,0,0,1,0-1.19A1,1,0,0,1,.84.31,3.2,3.2,0,0,1,2.55.08a2.22,2.22,0,0,1,.94.29A1,1,0,0,1,4,1.28C4,1.51,4,1.74,4,2Z" fill="#fff"/><path d="M41,3.67v-.8H43A.58.58,0,0,1,43,3q0,.88,0,1.76a1.22,1.22,0,0,1-1.1,1.39,3.1,3.1,0,0,1-2-.12A1.26,1.26,0,0,1,39,4.78q0-1.63,0-3.26A1.31,1.31,0,0,1,40,.18a3,3,0,0,1,2.35.12,1.11,1.11,0,0,1,.61,1c0,.21,0,.43,0,.66H41.45c0-.13,0-.26,0-.39a.43.43,0,0,0-.71-.37.39.39,0,0,0-.15.27c0,1.07,0,2.15,0,3.22a.44.44,0,0,0,.44.43.45.45,0,0,0,.43-.41c0-.31,0-.61,0-.92,0,0-.07-.1-.11-.11A1.67,1.67,0,0,0,41,3.67Z" fill="#fff"/><path d="M7.23,6H5.64l.22-1.3.4-2.35L6.6.51s0-.09,0-.14A.13.13,0,0,1,6.76.25H9.19l1,5.79H8.69A.14.14,0,0,1,8.59,6c-.07-.5-.13-1-.19-1.49s-.12-.9-.18-1.35S8.1,2.25,8,1.82a.75.75,0,0,0,0-.19s-.06-.1-.09-.09a.14.14,0,0,0-.1.09c0,.27-.07.53-.11.8L7.51,4,7.36,5.07Z" fill="#fff"/></svg>