<svg xmlns="http://www.w3.org/2000/svg" viewBox="0 0 55.06 9.75"><title>timberland_white</title><path d="M0,2.6l.11-.5L.3,1.2C.35,1,.39.76.45.54S.59.2.81.24A.35.35,0,0,1,1,.33a.44.44,0,0,0,.37.15c.14,0,.29,0,.43,0l2.7,0A3.18,3.18,0,0,0,5,.43.76.76,0,0,0,5.29.28c.12-.09.29-.11.36,0a.84.84,0,0,1,.14.27c.14.55.27,1.11.39,1.66a4.66,4.66,0,0,1,.09.66.44.44,0,0,1-.42.42A.48.48,0,0,1,5.37,3c-.13-.24-.25-.48-.36-.73a3.27,3.27,0,0,0-.37-.64.37.37,0,0,0-.37-.14.18.18,0,0,0-.13.19c0,.23,0,.46,0,.69q0,.93,0,1.86c0,.49,0,1,0,1.48,0,.72,0,1.44,0,2.16,0,.26,0,.53,0,.79s.27.46.43.44A.41.41,0,0,0,4.87,9,.53.53,0,0,0,5,8.6c0-.26,0-.53,0-.79C5,7.19,5,6.57,5,6c0-.34,0-.68,0-1a.3.3,0,0,0-.14-.23l-.18-.13c-.19-.13-.15-.28,0-.37A3.84,3.84,0,0,1,5.17,4c.33-.14.67-.28,1-.4a.57.57,0,0,1,.45,0,.18.18,0,0,1,.09.16q0,1.13,0,2.26,0,.92,0,1.85c0,.26,0,.52,0,.78A1.23,1.23,0,0,0,6.9,9,.18.18,0,0,0,7,9a.22.22,0,0,1,.07.36.63.63,0,0,1-.23.13.72.72,0,0,1-.23,0H5.06a.46.46,0,0,1-.41-.17A1.12,1.12,0,0,1,4,9.58H2.88l-.49,0a1.1,1.1,0,0,1-.63-.16.23.23,0,0,1,0-.33l0,0a.5.5,0,0,0,.33-.55c0-1.24,0-2.48,0-3.71q0-1.05,0-2.11c0-.35,0-.69,0-1a.21.21,0,0,0-.3-.16.48.48,0,0,0-.28.25c-.13.23-.24.47-.35.71S1,2.88.88,3.08a.44.44,0,0,1-.43.24A.46.46,0,0,1,0,3H0Z" fill="#fff"/><path d="M14.64,9.15a.74.74,0,0,0,0-.11c0-.49,0-1,0-1.47s0-1.21,0-1.82l0-1.8c0-.61,0-1.22,0-1.83a1,1,0,0,0-.3-.66.21.21,0,0,1,0-.32,1.43,1.43,0,0,1,.56-.33L15.6.53c.09,0,.16-.11.25-.14a.59.59,0,0,1,.25,0,.29.29,0,0,1,.26.33c0,.6,0,1.21,0,1.81,0,.37,0,.74,0,1.11a.16.16,0,0,0,.06.1s.06,0,.09,0l.07-.07a.45.45,0,0,1,.31-.15,1.24,1.24,0,0,1,1,.29,2.07,2.07,0,0,1,.45.56,4,4,0,0,1,.43,1.33l.1.56c0-.16,0-.32.07-.47s.08-.43.13-.65a2.56,2.56,0,0,1,.39-.86,1.71,1.71,0,0,1,1-.73,1.64,1.64,0,0,1,1.2.16,1.17,1.17,0,0,1,.29.25,4.93,4.93,0,0,1,.36.45,1.94,1.94,0,0,1,.34.81,2.24,2.24,0,0,1,0,.88.14.14,0,0,1-.08.08l-1.05.44-.91.36a.19.19,0,0,0-.09.22,2.08,2.08,0,0,0,.33.73A.45.45,0,0,0,21,8a2.61,2.61,0,0,0,.54.15c.28,0,.34-.14.39-.33s0-.13,0-.19a.24.24,0,0,1,.32-.17.64.64,0,0,1,.41.23.51.51,0,0,1,.09.21,1.94,1.94,0,0,1-.38,1.3.76.76,0,0,1-.28.21,2.1,2.1,0,0,1-.84.23,2,2,0,0,1-1.08-.18,1.9,1.9,0,0,1-.76-.73A4.34,4.34,0,0,1,19,7.39s0,0,0-.07l0-.07c0,.2,0,.4-.07.59a2.64,2.64,0,0,1-.43,1.26,1.35,1.35,0,0,1-.92.56,2.1,2.1,0,0,1-.91-.06A1.45,1.45,0,0,1,16,9.21a.56.56,0,0,1-.08-.13.15.15,0,0,0-.28,0c-.06.09-.09.2-.16.28a.69.69,0,0,1-.54.3c-.12,0-.18-.09-.24-.17a1.75,1.75,0,0,1-.3.12,2.48,2.48,0,0,1-.37,0H12.67a.38.38,0,0,1-.34-.18.18.18,0,0,1,.06-.27.49.49,0,0,0,.27-.43,6.07,6.07,0,0,0,0-.74s0-.07,0-.1l-.07-1c0-.15,0-.3,0-.46s-.05-.43-.08-.64,0-.29-.07-.43a1.31,1.31,0,0,0-.22-.54c-.07-.1-.13-.11-.24-.05a.4.4,0,0,0-.24.39c0,1.15,0,2.29,0,3.44a.51.51,0,0,0,.29.5c.09,0,.09.22,0,.31a.44.44,0,0,1-.33.15h-.74c-.22,0-.44,0-.65,0a.62.62,0,0,1-.49-.19.22.22,0,0,1,.06-.3.43.43,0,0,0,.28-.43c0-.81,0-1.63,0-2.44,0-.42,0-.83,0-1.25A.26.26,0,0,0,10,4.73a.31.31,0,0,0-.36,0,.67.67,0,0,0-.32.56c0,.51,0,1,0,1.54s0,1.23,0,1.85a.52.52,0,0,0,.27.44.17.17,0,0,1,.07.21.3.3,0,0,1-.26.23,3.23,3.23,0,0,1-.39,0H7.66a.68.68,0,0,1-.4-.11.21.21,0,0,1,0-.38.58.58,0,0,0,.28-.53c0-.32,0-.64,0-1q0-.81,0-1.62,0-.53,0-1.05a.24.24,0,0,0-.12-.21l-.22-.16a.2.2,0,0,1,0-.34,2.26,2.26,0,0,1,.62-.29l.88-.36a.54.54,0,0,1,.51,0,.21.21,0,0,1,.07.13c0,.07,0,.15,0,.22a.19.19,0,0,0,.08.13.18.18,0,0,0,.14,0,.55.55,0,0,0,.13-.14.89.89,0,0,1,.75-.39,1.72,1.72,0,0,1,.7.11.82.82,0,0,1,.37.32l.08.1a.12.12,0,0,0,.2,0,.62.62,0,0,0,.13-.16.58.58,0,0,1,.41-.32,1.32,1.32,0,0,1,1,.15,1.1,1.1,0,0,1,.36.43,3,3,0,0,1,.3.94c0,.23.1.47.14.7s.06.37.08.56.06.46.09.69,0,.29,0,.44,0,.39,0,.58,0,.36,0,.54a1.76,1.76,0,0,0,.06.32C14.41,9,14.52,9.09,14.64,9.15Zm2.83-2.73a4.61,4.61,0,0,0-.12-1c-.05-.25-.13-.5-.2-.75s-.09-.23-.2-.24-.19.08-.24.18a3.19,3.19,0,0,0-.17.4,4.32,4.32,0,0,0-.21,1.52,5.1,5.1,0,0,0,.09.93,1.69,1.69,0,0,0,.28.74s.08.11.15.08A.4.4,0,0,0,17,8.11a2.08,2.08,0,0,0,.2-.38A3.28,3.28,0,0,0,17.47,6.41Zm2.72-.87c0,.09,0,.22,0,.35a2.69,2.69,0,0,0,.11.36c0,.07.07.09.14,0s.25-.11.37-.18a.69.69,0,0,0,.24-.19.83.83,0,0,0,.11-.68,3.47,3.47,0,0,0-.4-.88.25.25,0,0,0-.11-.11.36.36,0,0,0-.35.14,1,1,0,0,0-.15.57C20.17,5.15,20.18,5.33,20.18,5.55Z" fill="#fff"/><path d="M33.22,9.31l-.11.13a.85.85,0,0,1-.58.24,1.08,1.08,0,0,1-.84-.35.49.49,0,0,0-.13-.1.18.18,0,0,0-.2,0,1.69,1.69,0,0,1-.95.46,1.58,1.58,0,0,1-1.17-.35,1.29,1.29,0,0,1-.47-.63,2.4,2.4,0,0,1-.09-.4,2.47,2.47,0,0,1,0-.43,2.23,2.23,0,0,1,.14-.8,1.51,1.51,0,0,1,.42-.57,3.74,3.74,0,0,1,.53-.42,4.64,4.64,0,0,1,.81-.36,1.18,1.18,0,0,1,.21-.06c.17,0,.17-.17.18-.28a1.27,1.27,0,0,0-.19-.88.4.4,0,0,0-.32-.18l-.37,0a.63.63,0,0,0-.16,0l0,.05.13.09a.42.42,0,0,1,.21.37.71.71,0,0,1-.11.51.65.65,0,0,1-.25.17.93.93,0,0,1-.61.05.65.65,0,0,1-.47-.44,1.1,1.1,0,0,1,0-.81,1.13,1.13,0,0,1,.41-.46,1.79,1.79,0,0,1,.95-.29c.24,0,.48,0,.72,0a2.92,2.92,0,0,1,.66.08,1.14,1.14,0,0,1,.83.86c.07.26.12.52.17.79s.08.53.11.79c0,.08,0,.16,0,.25s0,.31,0,.46c0,.36,0,.71.06,1.07,0,.15,0,.3,0,.46a.18.18,0,0,0,.19.18c.16,0,.21,0,.26.18s.06.24.09.36a.31.31,0,0,0,.26-.21,1.13,1.13,0,0,0,.08-.45c0-.21,0-.41,0-.62q0-1,0-1.93c0-.31,0-.62,0-.93,0-.15-.13-.22-.22-.31l-.17-.14a.17.17,0,0,1,0-.28l.5-.25.87-.4a.49.49,0,0,1,.5,0c.05,0,.06.14.08.22l.05.15h0a1.3,1.3,0,0,0,.1-.15.76.76,0,0,1,.55-.38.82.82,0,0,1,.64.17,1.9,1.9,0,0,1,.78,1,4.6,4.6,0,0,1,.22.95c0,.25.09.51.13.76s.06.51.09.77.07.52.09.78,0,.4,0,.59,0,.21,0,.32a.34.34,0,0,0,.19.27.2.2,0,0,1,.14.22c0,.19-.12.25-.26.27a14.6,14.6,0,0,1-1.73,0A.38.38,0,0,1,36,9.36a.22.22,0,0,1,.1-.34.34.34,0,0,0,.18-.24,2.79,2.79,0,0,0,0-1c0-.15,0-.3,0-.45s-.05-.44-.09-.66-.14-.65-.22-1-.13-.46-.2-.69a.43.43,0,0,0-.26-.28.18.18,0,0,0-.22.13.87.87,0,0,0,0,.3c0,.85,0,1.69,0,2.54,0,.33,0,.65,0,1a.4.4,0,0,0,.19.29c.09.07.18.14.14.27a.35.35,0,0,1-.27.22A7.33,7.33,0,0,1,34,9.56l-.37,0A.49.49,0,0,1,33.22,9.31Zm-3-1.66h0a1.75,1.75,0,0,0,.07.64.46.46,0,0,0,.68.29c.06,0,.13-.1.13-.15q0-.52,0-1c0-.29,0-.58-.07-.86,0-.13-.08-.19-.2-.14a.88.88,0,0,0-.54.59A6.54,6.54,0,0,0,30.21,7.65Z" fill="#fff"/><path d="M46.05,3l-.48-.58-.15-.19a.07.07,0,0,1,0-.06l.21-.35.31.34.6.67c.05.06.1.13.21.09a.75.75,0,0,1,.22,0l-.25-.29-.6-.69-.22-.24c0-.05-.07-.1,0-.16l.37-.37c.08-.08.17,0,.25,0l.74.14h0V1.13c0-.19,0-.39,0-.58s0-.09.06-.11l.51-.2c.06,0,.1,0,.13.06l.33.69.15.28.36-.65.29-.56A.12.12,0,0,1,49.21,0a.12.12,0,0,1,.09.06L50,1.4l.23-.06L49.64,0h.3a.22.22,0,0,1,.21.14l.48.88.81-.44a.28.28,0,0,1,.4.1l-.95.84.27.75.31-.42.64-.9c0-.07.11-.06.21,0a.44.44,0,0,1,.1.11.11.11,0,0,1,0,.09l-.35.54L52,1.82l.44,0,.7,0,.07,0a1,1,0,0,1,.27.4l-.36,0-.61,0a.08.08,0,0,0-.05,0L52,3.16a7.31,7.31,0,0,0,1.69-.55l.16.37c0,.05,0,.08-.06.11-.31.12-.61.25-.93.36a6.09,6.09,0,0,1-.63.16c-.13,0-.26,0-.38.08a.3.3,0,0,0-.13.12c-.08.12-.15.24-.23.36v0l2.55-.62c0,.23.1.44.12.66a6.66,6.66,0,0,1,.05.83,4,4,0,0,1-.19,1.2c-.09.29-.21.57-.33.85a2.36,2.36,0,0,1-.2.34.15.15,0,0,1-.09,0l-.65.13a5.74,5.74,0,0,1-.58.06c-.36,0-.73,0-1.09,0s-.67,0-1,0l-.61,0-1-.05c-.34,0-.69,0-1,0s-.66,0-1,.06-.6.07-.89.11a.11.11,0,0,1-.12-.06,4,4,0,0,1-.7-1.47c-.05-.21-.1-.42-.14-.63a1.16,1.16,0,0,1,0-.2c0-.23,0-.47,0-.7a5.09,5.09,0,0,1,.3-1.52A.12.12,0,0,1,45,3L45.76,3ZM52.11,5l-.28,0c-.06,0-.11,0-.16-.06a1.48,1.48,0,0,0-.19-.24.11.11,0,0,0-.1,0L50,5.14a.1.1,0,0,0-.09.12c0,.12,0,.24,0,.37,0,.3,0,.61.06.91a2.57,2.57,0,0,0,.06.37A.13.13,0,0,0,50.1,7l1,.15.84.07.74,0,.13,0a.31.31,0,0,0,.36-.13,2.82,2.82,0,0,0,.16-.28,5,5,0,0,0,.46-1.33,3.08,3.08,0,0,0,0-.47,1.92,1.92,0,0,0,0-.39c0-.15-.08-.29-.12-.44l-.4.12.35.65L53.2,5A.22.22,0,0,1,53,4.92a4.69,4.69,0,0,0-.32-.38s-.05,0-.08,0l-.66.15Zm-3.71-.78L48.16,4s-.07,0-.1,0c-.3.24-.59.48-.88.74a.68.68,0,0,1-.56.22,2.12,2.12,0,0,0-.28,0l.31-.4L46,4.3l-.26.36a.39.39,0,0,1-.41.22c-.11,0-.15,0-.15.13a2.93,2.93,0,0,0,0,.4c0,.2.07.4.11.6a2.67,2.67,0,0,0,.11.39.18.18,0,0,0,.12.1l.62,0h.07l.85.07.59.06.7.09.62.07v0Q49,6,49,5.13A.19.19,0,0,0,49,5l-.26-.39-.29.17A.73.73,0,0,1,48,5a5.18,5.18,0,0,0-.57,0l-.2,0v0ZM49.26,1l-.49.92a.12.12,0,0,0,0,.08l.28.92.32-.22a.26.26,0,0,0,.1-.13c0-.2.07-.41.09-.62a.33.33,0,0,0,0-.15C49.49,1.5,49.38,1.24,49.26,1ZM47.67,3.62a1.33,1.33,0,0,0-.1-.13s-.1-.11-.15-.12c-.22,0-.45,0-.67-.06a.11.11,0,0,0-.08,0l-.32.49,0,0,.67.26h.06ZM50,3.85h0L50.68,3a.28.28,0,0,0,.07-.18,2.79,2.79,0,0,0-.1-.37l-.06,0L50,3A.09.09,0,0,0,50,3c0,.1,0,.21,0,.31S50,3.68,50,3.85Zm-2.7-1.44c0-.2,0-.38,0-.56a.08.08,0,0,0,0-.06l-.7-.19Zm3.86.8h.25a.1.1,0,0,0,.07,0l.45-.75h-.09c-.09,0-.19,0-.26.12S51.29,3,51.14,3.21Zm-.69,1.17h.18c.07,0,.16,0,.19,0S51,4,51.15,3.8l-.36.05s0,0,0,0Zm-2.3-2.23L47.8,2l0,.79h0ZM45.79,3.7,46,3.38l-.79,0Zm2.7-.77h0l-.15.31a.1.1,0,0,0,0,.09l.31.37h0Zm.95.35c-.31.12-.23,0-.23.41,0,.12.13.07.2.12Zm-3.92.81L45.25,4l0,.49h0Zm2.29-3h0v.4l.21,0Zm2.58.75c-.2.12-.2.12-.16.27C50.28,2,50.46,2,50.39,1.84Z" fill="#fff"/><path d="M24.76,4.48l.07-.06a7,7,0,0,1,.43-.56,1,1,0,0,1,1-.34.9.9,0,0,1,.17,0l.3.15c0-.06,0-.15,0-.23s0-.21,0-.32,0-.28,0-.42,0-.25,0-.38,0-.29,0-.44a.3.3,0,0,0-.12-.23l-.15-.12a.24.24,0,0,1,0-.33,1.78,1.78,0,0,1,.82-.45A3,3,0,0,0,28,.46a.32.32,0,0,1,.35,0,.27.27,0,0,1,.15.26c0,.23,0,.46,0,.68,0,.63,0,1.26,0,1.88s0,1.49,0,2.23,0,1.55,0,2.32c0,.25,0,.5,0,.75a.5.5,0,0,0,.26.44.18.18,0,0,1,.08.1.35.35,0,0,1-.27.45,1.58,1.58,0,0,1-.32,0H27.06a2,2,0,0,1-.45-.06.32.32,0,0,1-.21-.43.24.24,0,0,1,.09-.1.55.55,0,0,0,.27-.31.44.44,0,0,0,0-.1c0-.83,0-1.66,0-2.5,0-.46,0-.93,0-1.39a0,0,0,0,0,0,0l0,.25a2.31,2.31,0,0,1-.06.32.31.31,0,0,1-.3.25A.42.42,0,0,1,26,5.33,1.87,1.87,0,0,1,25.81,5c0-.09-.08-.13-.17-.09a1.08,1.08,0,0,0-.26.15,1.79,1.79,0,0,0-.6,1.07,4.61,4.61,0,0,0-.06.67c0,.23,0,.47,0,.7s0,.67,0,1a1.66,1.66,0,0,1,0,.22.19.19,0,0,0,.13.2A.63.63,0,0,1,25,9c.12.13,0,.43-.21.47a1.9,1.9,0,0,1-.32,0h-.76l-.92,0a.34.34,0,0,1-.28-.29A.23.23,0,0,1,22.73,9l.08,0a.2.2,0,0,0,.13-.2c0-.15,0-.29,0-.44,0-.34,0-.68,0-1s0-.6,0-.9c0-.5,0-1,0-1.51a.33.33,0,0,0-.17-.27,1.88,1.88,0,0,1-.18-.14c-.13-.12-.1-.22,0-.33a2.21,2.21,0,0,1,.68-.32c.3-.13.6-.24.9-.35.11,0,.39,0,.45.07a.45.45,0,0,1,.06.18c0,.16,0,.31,0,.47s0,.18,0,.27Z" fill="#fff"/><path d="M40.48,2.78c0-.24,0-.48,0-.72a.47.47,0,0,0-.21-.41l-.18-.13A.3.3,0,0,1,40,1.2.27.27,0,0,1,40.26,1a.9.9,0,0,0,.43-.1L41.76.44l.13-.07a.22.22,0,0,1,.33.21q0,.62,0,1.24,0,1,0,2t0,1.89c0,.64,0,1.28,0,1.92,0,.21,0,.42,0,.63a.23.23,0,0,0,.16.21.59.59,0,0,1,.15.06c.11.08.06.2.05.3a.25.25,0,0,1-.17.21l-1.12.44a3,3,0,0,1-.51.14.46.46,0,0,1-.25,0c-.09,0,0-.14,0-.21a.2.2,0,0,0,0-.1s-.07,0-.09,0l-.17.16a.76.76,0,0,1-.7.23,1.81,1.81,0,0,1-.69-.24,1.51,1.51,0,0,1-.58-.63A2.81,2.81,0,0,1,38,7.69a9.64,9.64,0,0,1,0-1c0-.32.07-.63.1-.95a3.71,3.71,0,0,1,.45-1.42A2.63,2.63,0,0,1,39,3.64a.94.94,0,0,1,.59-.24,1.87,1.87,0,0,1,.32,0,.92.92,0,0,1,.43.24s.07,0,.08,0a.14.14,0,0,0,0-.09C40.48,3.32,40.48,3,40.48,2.78Zm.1,3.75c0-.17,0-.33,0-.5a3,3,0,0,0,0-.37c0-.23-.1-.46-.16-.68a1.07,1.07,0,0,0-.25-.49c-.14-.14-.25-.13-.32,0a3.88,3.88,0,0,0-.19.62,8,8,0,0,0-.13.86,4.18,4.18,0,0,0,0,.75,5.51,5.51,0,0,0,.14.74,1.25,1.25,0,0,0,.34.66.18.18,0,0,0,.3,0,2.66,2.66,0,0,0,.15-.34A3.66,3.66,0,0,0,40.58,6.53Z" fill="#fff"/><path d="M53.35,7.67c0,.11,0,.16-.09.22a3.81,3.81,0,0,1-.38.43c-.18.18-.39.33-.58.49a.12.12,0,0,1-.08,0c-.25,0-.5,0-.75,0l-1-.09-1.11-.16-.89-.13-1-.16-.68-.08-.94-.08c-.07,0-.18-.14-.21-.26l.57-.07,1.2-.07.67,0,.6,0,.74,0,.87.05.77,0c.29,0,.58,0,.87,0s.66-.07,1-.11Z" fill="#fff"/><path d="M46,8.27h.33l.3,0,1.14.15.91.13.87.14.75.09.8.09.62.06L52,9a4.71,4.71,0,0,1-3.67.61A4.53,4.53,0,0,1,46,8.31Z" fill="#fff"/><path d="M38.64,1.77a.51.51,0,1,1,.52-.51A.49.49,0,0,1,38.64,1.77Zm.27-.21A.39.39,0,0,0,39,1.17a.39.39,0,1,0-.76.21.39.39,0,0,0,.65.18Z" fill="#fff"/><path d="M55.06,1.39a1,1,0,0,1-.07.29.52.52,0,0,1-.71.13.53.53,0,0,1-.18-.63A.52.52,0,0,1,54.68.9a.44.44,0,0,1,.31.22A1.18,1.18,0,0,1,55.06,1.39ZM54.57,1a.39.39,0,0,0-.4.4.4.4,0,0,0,.39.4.39.39,0,0,0,.4-.4A.38.38,0,0,0,54.57,1Z" fill="#fff"/><path d="M38.91,1.56c-.16.05-.18-.09-.24-.17s0-.1-.13-.07v.25h-.1V1a1.88,1.88,0,0,1,.31,0,.19.19,0,0,1,.12.11.13.13,0,0,1-.06.18l-.07,0,.16.25Zm-.36-.35a.6.6,0,0,0,.15,0,.1.1,0,0,0,.06-.08s0-.05-.07-.06h-.14Z" fill="#fff"/><path d="M54.67,1.44l.15.23h-.11c-.09-.08-.09-.23-.24-.25v.24h-.09V1.08a3.14,3.14,0,0,1,.34,0s.07.07.08.11,0,.14-.05.18Zm-.2-.09.18,0a.08.08,0,0,0,0-.07.09.09,0,0,0-.05-.06l-.17,0Z" fill="#fff"/></svg>