<svg xmlns="http://www.w3.org/2000/svg" viewBox="0 0 21.07 21.07"><title>ww_white</title><path d="M0,11.08C0,4.73,4.74,0,10.51,0A10.55,10.55,0,0,1,21.07,10.54,10.2,10.2,0,0,1,18,18a10.18,10.18,0,0,1-7.44,3.1A10.2,10.2,0,0,1,3.1,18,10.07,10.07,0,0,1,0,11.08Zm1.33-.54a9.21,9.21,0,1,0,9.21-9.22A9.22,9.22,0,0,0,1.33,10.54Z" fill="#fff"/><path d="M6.6,3.7,6.72,4l1.74,4.8L8.91,10c0,.05,0,.06.09.06h3.15a.07.07,0,0,0,.08-.05l1.26-3.46,1-2.82,0,0,.15.09a8,8,0,0,1,1.89,1.64.09.09,0,0,1,0,.11l-1.17,3L13.8,12.77l-.51,1.32,0,0-.15-.38-1-2.67A.07.07,0,0,0,12,11H8.94c-.06,0-.07,0-.09.07L8,13.3l-.32.83-.13-.33L6.2,10.3,4.79,6.64l-.39-1a.08.08,0,0,1,0-.09A8,8,0,0,1,6.55,3.73Z" fill="#fff"/><path d="M14.2,17.52l3.73-9.74h0a7.94,7.94,0,0,1-3.74,9.75Z" fill="#fff"/><path d="M3.09,7.94l3.64,9.49A7.86,7.86,0,0,1,3.09,7.94Z" fill="#fff"/><path d="M10.47,12.73l.3.77,1.3,3.37L12.49,18a.83.83,0,0,1,0,.2s0,0,0,0l-.61.13a5.77,5.77,0,0,1-.93.1c-.31,0-.62,0-.93,0a7.19,7.19,0,0,1-1.52-.25s-.06,0-.06-.08a.61.61,0,0,1,.07-.25l1.75-4.54.2-.53Z" fill="#fff"/><path d="M10.57,8.39l-2-5.5a8,8,0,0,1,4,0Z" fill="#fff"/></svg>