<svg xmlns="http://www.w3.org/2000/svg" xmlns:xlink="http://www.w3.org/1999/xlink" viewBox="0 0 31.08 30.24"><defs><style>.cls-1{fill:none;}.cls-2{clip-path:url(#clip-path);}.cls-3{fill:#fff;}</style><clipPath id="clip-path" transform="translate(-2.66 -2.88)"><rect class="cls-1" width="36.65" height="36"/></clipPath></defs><title>arrow-right</title><g id="Layer_2" data-name="Layer 2"><g id="Layer_1-2" data-name="Layer 1"><g class="cls-2"><path class="cls-3" d="M13.16,8.11c4.84,3.23,9,6,14,9.29a.73.73,0,0,1,.32.6c0,.37-.21.44-.36.62-4.28,2.89-9.24,6.1-14,9.34a.78.78,0,0,1-.91-.08A.72.72,0,0,1,12,27l5.34-9c-1.83-3.09-3.83-6.21-5.45-9.36a.72.72,0,0,1,.37-.71c.35-.19.59.06.88.18Zm5-5.23A15.33,15.33,0,0,0,2.66,18,15.33,15.33,0,0,0,18.2,33.12,15.33,15.33,0,0,0,33.74,18,15.33,15.33,0,0,0,18.2,2.88Z" transform="translate(-2.66 -2.88)"/></g></g></g></svg>