<svg xmlns="http://www.w3.org/2000/svg" viewBox="0 0 20.24 21.01"><defs><style>.cls-1,.cls-2{fill:none;}.cls-1{stroke:#fff;stroke-miterlimit:10;stroke-width:0.75px;}</style></defs><title>assortment</title><g id="Layer_2" data-name="Layer 2"><g id="Layer_1-2" data-name="Layer 1"><path class="cls-1" d="M17,1.81A4.22,4.22,0,0,0,13.94.38H6.29A4.22,4.22,0,0,0,3.21,1.81L.48,4.71,2.85,8.22,5,6.51v9.55H15.23V6.51l2.16,1.71,2.37-3.51Z"/><polyline class="cls-1" points="7.71 0.37 10.12 3.93 12.53 0.37"/><path class="cls-2" d="M19.76,16.06a4.58,4.58,0,1,1-4.58-4.58,4.58,4.58,0,0,1,4.58,4.58"/><circle class="cls-1" cx="15.18" cy="16.06" r="4.58"/><path class="cls-1" d="M12.11,12.67a4.58,4.58,0,0,1,0,6.78"/><path class="cls-1" d="M18.36,12.67a4.58,4.58,0,0,0,0,6.78"/><line class="cls-1" x1="15.18" y1="12.67" x2="15.18" y2="20.63"/><line class="cls-1" x1="11.73" y1="16.06" x2="19.76" y2="16.06"/></g></g></svg>