<svg xmlns="http://www.w3.org/2000/svg" viewBox="0 0 201.23 99.63"><defs><style>.cls-1{fill:none;stroke:#000;stroke-miterlimit:10;stroke-width:5px;}</style></defs><title>category</title><g id="Layer_2" data-name="Layer 2"><g id="Layer_1-2" data-name="Layer 1"><path class="cls-1" d="M68.12,15.64C61.4,10.76,67,5,73.43,2.84,81.12.23,94.88,13.38,94.88,13.38"/><path class="cls-1" d="M98.23,15.9l-3.35-2.52s-6-5.06-16.26-3.24S51.15,33.26,35.89,33.26c-13.67,0-12.63-15.67-21.45-15.67S2.5,40.17,2.5,51.46,3.19,71,6.65,79.26a12.9,12.9,0,0,0-2.77,8.26c0,5.22,1.38,9.61,5.54,9.61H169.7c12.2,0,28.11-4.21,29-16s-8.48-16.18-15.22-17.36c-4.49-.78-21.37-7-46-21.6"/><path class="cls-1" d="M68.12,15.64,128.78,51.8c9.69,5.39,22.45,11.61,27.66.83"/><path class="cls-1" d="M131.8,53.43c-2,5.27.1,15.38,12,15.38s39.66,2.2,42.75-4.29"/><line class="cls-1" x1="6.65" y1="79.26" x2="198.72" y2="79.26"/><line class="cls-1" x1="2.5" y1="53.43" x2="27.99" y2="30.79"/><line class="cls-1" x1="32.77" y1="79.26" x2="84.42" y2="25.36"/><line class="cls-1" x1="96.09" y1="79.26" x2="124.48" y2="49.23"/><path class="cls-1" d="M102.67,20.21l-9.5,4.55A3.13,3.13,0,0,1,89,23.39L89,23.24a3,3,0,0,1,1.41-4l9.5-4.55A3.13,3.13,0,0,1,104,16l.08.16A3,3,0,0,1,102.67,20.21Z"/><path class="cls-1" d="M114,28.19l-8.7,4.17a3,3,0,0,1-4-1.33l-.17-.34a2.88,2.88,0,0,1,1.36-3.9l8.7-4.17a3,3,0,0,1,4,1.33l.17.34A2.88,2.88,0,0,1,114,28.19Z"/><path class="cls-1" d="M136.73,42.83l-6.6,4.28a2.83,2.83,0,0,1-3.87-.76l-.43-.63A2.67,2.67,0,0,1,126.6,42l6.6-4.28a2.83,2.83,0,0,1,3.87.76l.43.63A2.67,2.67,0,0,1,136.73,42.83Z"/><path class="cls-1" d="M125.1,35.13l-6.67,4.33a2.83,2.83,0,0,1-3.87-.76l-.43-.63a2.67,2.67,0,0,1,.78-3.77L121.57,30a2.83,2.83,0,0,1,3.87.76l.43.63A2.67,2.67,0,0,1,125.1,35.13Z"/><path class="cls-1" d="M109,23.71q-2.76-1.95-5.6-4"/><path class="cls-1" d="M119.82,31.11q-2.5-1.65-5.06-3.41"/><path class="cls-1" d="M131.66,38.68q-3.08-1.89-6.29-4"/></g></g></svg>