<svg xmlns="http://www.w3.org/2000/svg" viewBox="0 0 537.92 242.78"><defs><style>.cls-1,.cls-2,.cls-3,.cls-4,.cls-7{fill:none;}.cls-1,.cls-2,.cls-3,.cls-4,.cls-6,.cls-7{stroke:#000;}.cls-1,.cls-3,.cls-6{stroke-miterlimit:10;}.cls-1{stroke-width:1.38px;}.cls-2,.cls-3,.cls-4{stroke-linecap:round;}.cls-2,.cls-4{stroke-linejoin:round;}.cls-2,.cls-3{stroke-width:1.49px;}.cls-4{stroke-width:1.02px;}.cls-5{fill-rule:evenodd;}.cls-6{stroke-width:0.62px;}.cls-7{stroke-linejoin:bevel;stroke-width:2.92px;}</style></defs><title>categories_4</title><g id="Layer_2" data-name="Layer 2"><g id="categories"><g id="product"><path class="cls-1" d="M365.57,146.6c-1.85-1.34-.3-2.92,1.46-3.52,2.12-.72,5.9,2.9,5.9,2.9"/><path class="cls-1" d="M373.86,146.67l-.92-.69a5.65,5.65,0,0,0-4.48-.89c-2.85.5-7.56,6.36-11.76,6.36-3.76,0-3.48-4.31-5.9-4.31s-3.28,6.21-3.28,9.32a18.85,18.85,0,0,0,1.14,7.65,3.55,3.55,0,0,0-.76,2.27c0,1.44.38,2.64,1.52,2.64h44.11c3.36,0,7.74-1.16,8-4.41s-2.33-4.45-4.19-4.78c-1.23-.22-5.88-1.93-12.66-5.94"/><path class="cls-1" d="M365.57,146.6l16.69,10c2.67,1.48,6.18,3.2,7.61.23"/><path class="cls-1" d="M383.1,157a3.16,3.16,0,0,0,3.31,4.23c3.28,0,10.91.6,11.76-1.18"/><line class="cls-1" x1="348.66" y1="164.11" x2="401.51" y2="164.11"/><line class="cls-1" x1="347.52" y1="157" x2="354.53" y2="150.77"/><line class="cls-1" x1="355.85" y1="164.11" x2="370.06" y2="149.27"/><line class="cls-1" x1="373.27" y1="164.11" x2="381.08" y2="155.84"/><path class="cls-1" d="M375.08,147.86l-2.61,1.25a.86.86,0,0,1-1.14-.38l0,0a.82.82,0,0,1,.39-1.11l2.61-1.25a.86.86,0,0,1,1.14.38l0,0A.82.82,0,0,1,375.08,147.86Z"/><path class="cls-1" d="M378.21,150.05l-2.39,1.15a.83.83,0,0,1-1.1-.36l0-.09a.79.79,0,0,1,.37-1.07l2.39-1.15a.83.83,0,0,1,1.1.36l0,.09A.79.79,0,0,1,378.21,150.05Z"/><path class="cls-1" d="M384.45,154.08l-1.82,1.18a.78.78,0,0,1-1.06-.21l-.12-.17a.74.74,0,0,1,.21-1l1.82-1.18a.78.78,0,0,1,1.06.21l.12.17A.74.74,0,0,1,384.45,154.08Z"/><path class="cls-1" d="M381.25,152l-1.84,1.19a.78.78,0,0,1-1.06-.21l-.12-.17a.74.74,0,0,1,.21-1l1.84-1.19a.78.78,0,0,1,1.06.21l.12.17A.74.74,0,0,1,381.25,152Z"/><path class="cls-1" d="M376.82,148.82l-1.54-1.1"/><path class="cls-1" d="M379.8,150.86l-1.39-.94"/><path class="cls-1" d="M383.06,152.94l-1.73-1.09"/></g><path d="M484.26,128l22.81.28.2-16.75a.7.7,0,0,1,.44-.64.71.71,0,0,1,.76.15l1.3,1.29c1-.76,3.59-3.16,5.93-5.49a102.57,102.57,0,0,0-6.53-8.52c-2.17-2.62-6.83-4-8-4.27A11.61,11.61,0,0,1,491,93.93c-1.19.27-5.88,1.5-8.11,4.07a103.12,103.12,0,0,0-6.73,8.36c2.29,2.38,4.8,4.84,5.8,5.63l1.33-1.26a.7.7,0,0,1,1.19.52Zm23.49,1.69-24.21-.29a.7.7,0,0,1-.7-.71L483,112.9l-.52.49a.71.71,0,0,1-.74.14c-1.06-.41-5.63-5.13-7-6.57a.7.7,0,0,1-.13-.77c.74-1.64,6.1-7.87,7.17-9.11,2.87-3.31,8.92-4.54,9.18-4.59a.7.7,0,0,1,.55.12,10,10,0,0,0,9.11.11.71.71,0,0,1,.55-.11c.26.06,6.28,1.43,9.07,4.81,1,1.26,6.26,7.62,7,9.28a.7.7,0,0,1-.15.77c-1.41,1.4-6.09,6-7.16,6.4a.71.71,0,0,1-.74-.16l-.51-.5L508.46,129a.71.71,0,0,1-.71.69Z"/><path d="M491.59,94.4a4,4,0,0,0,.88,2.32,5.28,5.28,0,0,0,6.8,0,4.05,4.05,0,0,0,.88-2.32,12.36,12.36,0,0,1-8.55,0Zm4.28,5a5.6,5.6,0,0,1-4.47-1.74,6.09,6.09,0,0,1-1.18-4.5.71.71,0,0,1,1.1-.47,10,10,0,0,0,9.11,0,.71.71,0,0,1,1.1.47,6.08,6.08,0,0,1-1.18,4.5,5.6,5.6,0,0,1-4.47,1.74Z"/><path d="M508.68,111.09l1.1,1.07c1-.77,3.55-3.21,5.87-5.56a97.47,97.47,0,0,0-6.26-8,3.29,3.29,0,0,0-.71,2Zm1,2.66a.7.7,0,0,1-.49-.2l-1.71-1.66a.7.7,0,0,1-.21-.5V100.62c0-.12,0-2.93,2.07-3.58a.7.7,0,0,1,.75.22c1.05,1.25,6.35,7.55,7.06,9.2a.7.7,0,0,1-.14.77c-1.39,1.42-6,6.09-7.08,6.49a.71.71,0,0,1-.25,0Z"/><path d="M476.08,106.61c2.32,2.35,4.86,4.78,5.87,5.56l1.1-1.07V100.62a3.26,3.26,0,0,0-.71-2,97.35,97.35,0,0,0-6.26,8Zm6,7.15a.71.71,0,0,1-.25,0c-1.06-.4-5.69-5.06-7.08-6.49a.7.7,0,0,1-.14-.77c.72-1.65,6-7.95,7.06-9.2a.71.71,0,0,1,.75-.22c2,.65,2.07,3.46,2.07,3.58v10.77a.7.7,0,0,1-.21.5l-1.71,1.66a.71.71,0,0,1-.49.2Z"/><path class="cls-2" d="M117.15,119.19s5,6.5,10.75.19l12.62,6.2-4.39,8.22-4.33-2.49A84.84,84.84,0,0,1,133.65,156s-6-.41-7.63,7h-6.1s-.77-4.88-7.27-7a97.59,97.59,0,0,1,1.13-24.68l-5.37,2.5L104,125.56Z"/><path class="cls-3" d="M123.92,132.83s1.49,1.23,4.15,0"/><path d="M160.42,228.92h28.89V210.2c-1.59-1.09-7.1-5.64-5.95-15.44h-1.47c0,3.68-1.29,9.71-6.85,10.91a.91.91,0,0,1-.34,0c-5.57-1.2-6.9-7.23-6.86-10.91h-1.47c1.16,9.8-4.36,14.35-5.95,15.44Zm29.7,1.62H159.61a.81.81,0,0,1-.81-.81v-20a.81.81,0,0,1,.41-.7c.29-.17,7.11-4.26,5.43-15a.81.81,0,0,1,.8-.94h3.25a.81.81,0,0,1,.59.26.8.8,0,0,1,.21.61c0,.35-.6,8.59,5.37,10,6-1.45,5.37-9.95,5.37-10a.81.81,0,0,1,.81-.88h3.25a.81.81,0,0,1,.8.94c-1.68,10.73,5.14,14.82,5.43,15a.82.82,0,0,1,.41.7v20a.81.81,0,0,1-.81.81Z"/><path d="M159.61,210.57a.81.81,0,0,1-.81-.81v-3.13a.81.81,0,0,1,.29-.62c4.85-4.1,3.39-11.83,3.38-11.91a.81.81,0,0,1,.17-.67.82.82,0,0,1,.63-.3h2.18a.81.81,0,1,1,0,1.62H164.2c.26,2.35.46,8.39-3.78,12.24v2.76a.81.81,0,0,1-.81.81Z"/><path d="M190.12,210.57a.81.81,0,0,1-.81-.81V207c-4.23-3.85-4-9.89-3.78-12.24h-1.24a.81.81,0,1,1,0-1.62h2.18a.81.81,0,0,1,.63.3.8.8,0,0,1,.17.67c0,.08-1.46,7.82,3.38,11.91a.81.81,0,0,1,.29.62v3.13a.81.81,0,0,1-.81.81Z"/><path d="M183.83,209.37h-4.26a.81.81,0,0,1,0-1.62h4.26a.81.81,0,0,1,0,1.62Z"/><path d="M183.83,211.78h-4.26a.81.81,0,1,1,0-1.62h4.26a.81.81,0,0,1,0,1.62Z"/><path d="M302.08,35l-.58-2.72h31.75L332.66,35Zm1.79-12.39c1.18-4.46.34-17,.09-20.37l1.64-.29c.1,3.11.77,12.21,5.31,16.8a8.77,8.77,0,0,0,6.45,2.71,8.44,8.44,0,0,0,6.2-2.62c4.51-4.56,5.17-13.79,5.26-16.91l2.1.32c-.22,3.26-.93,15.21.07,20.29a4.94,4.94,0,0,0,3.56,3.58l-1.13,5.26H301.31l-1.1-5.13c1.74-.09,3.07-1.41,3.67-3.66Zm32.44,2.22a.88.88,0,0,0-.69-.33,3.2,3.2,0,0,1-2.89-2.29c-1.09-5.56,0-20.49,0-20.64A.88.88,0,0,0,332,.61L328.1,0a.89.89,0,0,0-.71.21c-.2.17-.22,12.46-5.06,17.36a6.66,6.66,0,0,1-5,2.09,7,7,0,0,1-5.2-2.18C307.29,12.54,307.25.38,307.05.21a.88.88,0,0,0-.73-.2l-3.46.6a.88.88,0,0,0-.73.94c0,.16,1.29,15.81,0,20.57-.28,1.07-.89,2.35-2.15,2.35h-.9a.88.88,0,0,0-.86,1.07L300.5,36a.88.88,0,0,0,.86.7h32a.88.88,0,0,0,.86-.7l2.26-10.49a.89.89,0,0,0-.18-.74Z"/><path d="M217.65,150v14.84a1.94,1.94,0,0,0,1.92,1.94V148.09a1.94,1.94,0,0,0-1.92,1.94Z"/><rect x="227.01" y="155.16" width="18" height="4.58"/><path d="M223.37,145.47h-.15a2.51,2.51,0,0,0-2.51,2.51v.48h0v18h0v.48a2.51,2.51,0,0,0,2.51,2.51h.15a2.51,2.51,0,0,0,2.51-2.51V148a2.51,2.51,0,0,0-2.51-2.51Z"/><rect x="246.16" y="145.47" width="5.16" height="23.95" rx="2.51" ry="2.51"/><path d="M252.45,148.09v18.72a1.94,1.94,0,0,0,1.92-1.94V150a1.94,1.94,0,0,0-1.92-1.94Z"/><path d="M214.52,157.45a2.84,2.84,0,0,0,1.34,2.41l.7.44v-5.7l-.7.44a2.84,2.84,0,0,0-1.34,2.41Z"/><path d="M256.17,155l-.7-.44v5.7l.7-.44a2.84,2.84,0,0,0,0-4.82Z"/><path class="cls-4" d="M366.29,76.67a15.48,15.48,0,0,1,10,14.49v7.35a2,2,0,0,1-2,2H338.8a2,2,0,0,1-2-2V91.15a16.19,16.19,0,0,1,10-14.5"/><path class="cls-4" d="M351,75.77a15.66,15.66,0,0,1,1.71-.09h9.1"/><path class="cls-4" d="M367.28,79.38a13.59,13.59,0,0,1,7,9.37"/><path class="cls-4" d="M350.16,78a14.6,14.6,0,0,1,3.09-.33H361a14.8,14.8,0,0,1,1.77.11"/><path class="cls-4" d="M338.82,89.1a13.08,13.08,0,0,1,6.8-9.33"/><line class="cls-4" x1="362.12" y1="87.41" x2="350.09" y2="87.41"/><line class="cls-4" x1="351.04" y1="88.67" x2="351.04" y2="90.07"/><path class="cls-4" d="M356.41,63.63a1.75,1.75,0,0,0-1.75,1.75,13.88,13.88,0,0,1-.19,2.69c-.41,2.45-4,7.08-5.8,14.23h-3.76c.15-.57.31-1.21.49-1.79,2.88-9.71,7.51-13.36,7.51-15.14a3.61,3.61,0,0,1,3.5-3.5"/><path class="cls-4" d="M348,100.54h-3.76s-.11-4.25-.11-7.07.45-7.3.45-7.3h3.76s-.45,4.54-.45,7.3S348,100.54,348,100.54Z"/><polygon class="cls-4" points="348.33 86.17 344.57 86.17 344.91 82.31 348.67 82.31 348.33 86.17"/><line class="cls-4" x1="347.26" y1="83.64" x2="345.92" y2="84.94"/><line class="cls-4" x1="345.92" y1="83.64" x2="347.26" y2="84.94"/><path class="cls-4" d="M356.62,63.62a1.75,1.75,0,0,1,1.75,1.75,13.88,13.88,0,0,0,.19,2.69c.4,2.45,4,7.08,5.8,14.23h3.76c-.15-.57-.31-1.21-.49-1.79-2.88-9.71-7.51-13.36-7.51-15.14a3.61,3.61,0,0,0-3.5-3.5"/><path class="cls-4" d="M365,100.53h3.76s.11-4.25.11-7.07-.45-7.3-.45-7.3h-3.76s.45,4.54.45,7.3S365,100.53,365,100.53Z"/><polygon class="cls-4" points="364.69 86.16 368.45 86.16 368.12 82.3 364.35 82.3 364.69 86.16"/><line class="cls-4" x1="365.77" y1="83.63" x2="367.1" y2="84.94"/><line class="cls-4" x1="367.1" y1="83.63" x2="365.77" y2="84.94"/><path class="cls-4" d="M336.77,93.91s2.81,1.65,3.38,3.11a19,19,0,0,1,.85,3.51"/><path class="cls-4" d="M376,93.91s-2.81,1.65-3.38,3.11a19,19,0,0,0-.85,3.51"/><path d="M215.5,86.1c26,0,30.25-.8,30.87-1.12l.47-.24a3.61,3.61,0,0,0,.08-.4c-2.95.08-13.42.24-24.2.24h-7.44c-1.71,0-3.34-.08-5-.08A103.88,103.88,0,0,1,197,83.61l-.08,2.32c2.24.08,10,.16,18.61.16Zm30.79-5a6.41,6.41,0,0,0-2.79-2.24c-.08,1-1.47,1.36-1.86,1.44a14.65,14.65,0,0,0-6,2.72c5.43-.08,9.69-.16,11.24-.16a3.31,3.31,0,0,0-.54-1.76Zm-8.45-3.44a13.62,13.62,0,0,1-4.11-1.28,8.22,8.22,0,0,1-1.47.16A28.39,28.39,0,0,1,224,75l-1.63,8.25c4,0,8.06,0,11.63-.08.78-2.16,5.43-3.69,7.29-4.17a3.06,3.06,0,0,0,.78-.24,3.36,3.36,0,0,0-.78-.56,20.24,20.24,0,0,0-3.49-.48ZM224.19,70a3.47,3.47,0,0,0-2.79-1.44c.39.16.7.4,1.08.56a1.43,1.43,0,0,1,.54.16l.08.08a3.81,3.81,0,0,0,1.09.64Zm-1.48-4.25c-.15-.4-.39-.48-.47-.48-.78-.24-2.25.8-3.41,1.84a19.52,19.52,0,0,0,3.88-1.36ZM216,67.67a4.83,4.83,0,0,0-2.71,1,5.55,5.55,0,0,0-.23.64,109.56,109.56,0,0,0,10.47,4.09.75.75,0,0,1,.08-.88l.78-.8h-.08a17.71,17.71,0,0,0-1.71-.88l-1,1a.66.66,0,0,1-.47.24.67.67,0,0,1-.47-.24.75.75,0,0,1,0-1l.7-.72a8,8,0,0,1-.85-.48L219.3,71a.66.66,0,0,1-.47.24.67.67,0,0,1-.47-.24.75.75,0,0,1,0-1l.93-1c-.54-.24-1.08-.48-1.55-.72l-1,1a.69.69,0,0,1-.93,0,.75.75,0,0,1,0-1l.62-.64c-.22,0-.38,0-.38-.08ZM215,83.13l5.2-9.53c-.54-.16-1-.4-1.55-.56l-7.06,10c1.17.08,2.25.08,3.41.08Zm11.63-9.53.39-.48-1.4-.72-1.08,1.12c-.08.08-.15.08-.15.16a19.93,19.93,0,0,0,2.09.56.63.63,0,0,1,.15-.64Zm1.63.16-.7.72a27.1,27.1,0,0,0,3.26.56c-.78-.4-1.63-.8-2.56-1.28ZM221,83.21l1.71-8.65a8.56,8.56,0,0,0-1.32-.4l-5,9.05Zm-14.58-10.1c-3.8,0-5.43-2.48-6.51-4.17a5.51,5.51,0,0,0-.93-1.2,26.87,26.87,0,0,0-1,2.56c-.62,1.76-.78,5.21.54,6.73a19.75,19.75,0,0,1,3,5.69c2.33.16,5.2.24,8.38.32l7.37-10.5c-2.33-.88-4.11-1.68-5-2.08a6.85,6.85,0,0,1-5.9,2.65Zm-9.54,8.81c0,.08.08.16.08.24a21.66,21.66,0,0,0,3.18.4,19.5,19.5,0,0,0-2.64-4.65,6.23,6.23,0,0,1-1.16-3c0,.08-.08.08-.08.16-.93,1.84.15,5.53.62,6.81Zm-1.39.56a.27.27,0,0,1,.08-.16c-.31-.88-1.78-5.29-.62-7.77a38.42,38.42,0,0,0,1.4-3.76c.08-.32.23-.64.31-1,.85-2.48,1.24-3.52,2.09-3.52s1.55.88,2.17,1.92c1,1.6,2.33,3.52,5.43,3.52,4.81,0,5.58-3.52,5.58-3.69a.69.69,0,0,1,.23-.4,6.87,6.87,0,0,1,3.49-1.36H216c.31.08.7.16,1.16.32.85-.88,3.41-3.29,5.27-2.8a2.38,2.38,0,0,1,1.55,2,.64.64,0,0,1-.15.64,4.93,4.93,0,0,1-1.47.88,4.08,4.08,0,0,1,2.79,2,.78.78,0,0,1-.31,1c-.08,0-.15.08-.23.08a.08.08,0,0,1,.08.08c4.81,2.56,10.32,5.53,13,5.85,5,.32,8.21,1.68,9.69,4.08a5.89,5.89,0,0,1,.85,3.2,6.31,6.31,0,0,1-.31,1.84.81.81,0,0,1-.31.4l-.7.4c-.62.32-2.33,1.28-31.49,1.28-10.24,0-19.23-.16-19.31-.16a.55.55,0,0,1-.47-.24.6.6,0,0,1-.15-.48l.08-3.52a.67.67,0,0,1-.16-.64Z"/><path d="M401,44.47c.82,1.64,2.79,2.89,5.3,3.42,3.54.71,10.58-.11,15.23-.66,1.75-.21,3.14-.37,4-.42,3-.17,5.09.59,8,1.63l1.4.49c6.66,2.31,12.91,1.95,18.06-1a10.88,10.88,0,0,0,4.4-4c-2.66,1.67-9.08,5.22-15.55,4.93h0a15.59,15.59,0,0,1-1.73-.17,29.32,29.32,0,0,1-8-2.21,11.74,11.74,0,0,0-5-1.15,53.3,53.3,0,0,0-7.91.52l-.28.06-1.05.12a64.35,64.35,0,0,1-9.87.61c-5-.22-6.53-3.31-7-4.84l-.24.56a2.47,2.47,0,0,0,.18,2.07ZM454.56,37c-.78-.12-1.52-.25-2.23-.37.27,1.8.49,5.56-1.77,8.45h0a8.27,8.27,0,0,1-1.15,1.17,36.79,36.79,0,0,0,8.31-4.16,23.21,23.21,0,0,0,.11-2.58c0-1.13-.14-2-3.28-2.5Zm-21.38-9.42c-.12,0-.48,0-1.09.69h0a15.59,15.59,0,0,0-2.2,3.57.68.68,0,0,1-.91.31.7.7,0,0,1-.31-.93,20.24,20.24,0,0,1,1.9-3.24c-.39-.27-.75-.49-1.06-.67a7.56,7.56,0,0,1-1.58,4,8,8,0,0,1-1.51,1.47c-1.47,2.49-4.9,8.6-5.66,11.47a44.81,44.81,0,0,1,6.49-.34,13,13,0,0,1,5.39,1.26,28.06,28.06,0,0,0,7.61,2.16c4.37.19,7.48-.88,9.21-3.11,2.16-2.76,1.65-6.63,1.41-7.87h0a51.48,51.48,0,0,1-6.73-1.76,16,16,0,0,0-2.33,4,.67.67,0,0,1-.88.3.7.7,0,0,1-.35-.88,20.08,20.08,0,0,1,2.21-3.91c-.67-.26-1.24-.52-1.79-.77A14.59,14.59,0,0,0,438.75,37a.68.68,0,0,1-.89.29.7.7,0,0,1-.33-.89,17.88,17.88,0,0,1,2.24-3.69c-.67-.36-1.21-.75-1.71-1.06h0a13.78,13.78,0,0,0-2.39,3.76.69.69,0,0,1-.93.32.72.72,0,0,1-.35-.4.72.72,0,0,1,0-.54,16.75,16.75,0,0,1,2.48-4v0l-.4-.31c-.36-.28-.66-.53-1-.74-.51.35-1.38,1.32-2.6,3.82a.68.68,0,0,1-.91.31.7.7,0,0,1-.31-.93A14.18,14.18,0,0,1,434.24,29c-.1-.15-.2-.3-.29-.45a1.31,1.31,0,0,0-.75-.93ZM427,26.54c-.31.11-.48.55-.74,1.28a4.66,4.66,0,0,1-1.22,2.2c-1.41,1.2-5.27,2.33-8.51,2a5.67,5.67,0,0,1-4-1.84c-1.55-1.89-3.71-2.8-4.82-2.43a.68.68,0,0,0-.43.45.7.7,0,0,0,.11.62c.49,1.1,3.15,5.82,11.88,5a12.38,12.38,0,0,0,6.15-2,6.89,6.89,0,0,0,1.31-1.25,6.26,6.26,0,0,0,1.32-3.82,1.74,1.74,0,0,0-1.06-.19Zm-15.37,7.77a10.17,10.17,0,0,1-4.91-3.9,14.1,14.1,0,0,1-1.85,2.74,10.61,10.61,0,0,0-2.71,7.68c0,.17.46,4.17,5.87,4.41h0a56.35,56.35,0,0,0,8.42-.48,24.6,24.6,0,0,1-4.82-10.46Zm6.48,10.3,1.14-.13c.51-2.55,3.15-7.48,4.78-10.36h0a16.48,16.48,0,0,1-4.62,1.07,21.62,21.62,0,0,1-3,.09,15.78,15.78,0,0,1-3.3-.49,25.82,25.82,0,0,0,4.91,9.83Zm-18.62-2.8a31,31,0,0,0,1.37-3.67.69.69,0,0,1,.13-.24,11,11,0,0,1,2.86-5.68,11.79,11.79,0,0,0,2.57-5.07.7.7,0,0,1,.31-.47c1.88-1.18,5,.41,6.79,2.63a4.46,4.46,0,0,0,3.14,1.31c2.77.27,6.32-.68,7.5-1.69a3.56,3.56,0,0,0,.83-1.58c.29-.85.62-1.81,1.59-2.14s2.5.21,4.83,1.79a2.46,2.46,0,0,1,1.85-.79,2.41,2.41,0,0,1,1.85,1.7l.44.21h0a1.85,1.85,0,0,1,.55,0A2.54,2.54,0,0,1,438,29.86h0a2,2,0,0,1,1.07-.22c1.36.11,1.86,1.7,1.91,1.88h0a2,2,0,0,1,1.16-.28A2.35,2.35,0,0,1,444,32.94a1.95,1.95,0,0,1,3.11,1,.66.66,0,0,1,0,.16,67.59,67.59,0,0,0,7.61,1.57c4.26.66,4.5,2.45,4.38,4.23V40c.4,1.33,1,5.48-5.47,9.18h0a20.62,20.62,0,0,1-11.3,2.63,27.85,27.85,0,0,1-7.89-1.57l-1.41-.5c-2.9-1-4.8-1.71-7.51-1.55-.84,0-2.28.22-3.94.41-4.74.56-11.9,1.4-15.65.65-2.93-.59-5.19-2.1-6.21-4.15h0a3.82,3.82,0,0,1-.22-3.28Z"/><path d="M120,58a51.42,51.42,0,0,0,25.7,0c-.76-2.34-2.54-8.31-2.54-13.06a92.91,92.91,0,0,1,.54-9.52c.21-2.2.39-4.1.39-6.15a1,1,0,0,1,.94-1h2.29l3.88-6.49-7-4a9.75,9.75,0,0,0-3.94-1.24c-.39,4.57-3.41,7.79-7.46,7.79s-7.07-3.22-7.46-7.79a9.8,9.8,0,0,0-3.94,1.24l-7,4,3.88,6.49h2.29a1,1,0,0,1,.94,1c0,2,.18,3.95.39,6.15a92.9,92.9,0,0,1,.54,9.52c0,4.74-1.78,10.72-2.54,13.06Zm12.85,3.59a47.38,47.38,0,0,1-14.36-2A.94.94,0,0,1,118,59a1,1,0,0,1,0-.76c0-.08,2.75-7.82,2.75-13.37a90.84,90.84,0,0,0-.53-9.32c-.18-1.83-.34-3.57-.39-5.37h-1.89a.93.93,0,0,1-.8-.46l-4.69-7.83a1,1,0,0,1-.11-.77,1,1,0,0,1,.46-.61l7.85-4.47a11.59,11.59,0,0,1,5.73-1.53,1,1,0,0,1,.94,1c0,4,2.37,6.86,5.62,6.86s5.62-2.88,5.62-6.85a1,1,0,0,1,.94-1,11.6,11.6,0,0,1,5.73,1.53L153,20.53a1,1,0,0,1,.46.61,1,1,0,0,1-.11.77l-4.69,7.83a.93.93,0,0,1-.8.46H146c0,1.79-.22,3.54-.39,5.37a91.38,91.38,0,0,0-.53,9.32c0,5.55,2.73,13.29,2.75,13.37a1,1,0,0,1,0,.76.94.94,0,0,1-.55.5,47.3,47.3,0,0,1-14.36,2Z"/><path d="M139.45,16.5H126.33a1,1,0,0,1,0-2h13.13a1,1,0,0,1,0,2Z"/><path class="cls-5" d="M60.67,188.4a6.31,6.31,0,0,1,.49-1.46,6.35,6.35,0,0,0,.54-3.84,14.69,14.69,0,0,0-1.25-3.79c-.06-.15-.19-.32-.33-.26l-.43,3a10.8,10.8,0,0,0-.15,1.59,9,9,0,0,0,.33,2.2,26.24,26.24,0,0,0,.83,2.61Zm.15-23.18a3.52,3.52,0,0,1,.62,2.28c0,3-.75,6-.06,8.91a33,33,0,0,0,1.85,4.6,7.8,7.8,0,0,1,.66,4.84,19.63,19.63,0,0,1-1.05,2.46c-1.31,3.11-.76,6.71-.18,10.07l.76,4.38a2.45,2.45,0,0,0,.7,1.6,1.45,1.45,0,0,0,1.91-.42,4.88,4.88,0,0,0,.82-2.09l1.54-6.92c.56-2.52,1.13-5.22.31-7.67-.38-1.13-1-2.13-1.44-3.24a4.19,4.19,0,0,1,0-3.46c1.24-2.21,2.47-4.44,3.54-6.75a14.84,14.84,0,0,0,1.43-4.44c.49-4.24-2.09-8.19-2.68-12.43a1.64,1.64,0,0,0-1.14-1.26,4.39,4.39,0,0,0-1.72-.1l-14.2,1a2.85,2.85,0,0,0-2.3.92,3.21,3.21,0,0,0-.4,1.1q-.88,3.8-1.63,7.63a14.9,14.9,0,0,0-.4,4.56,14.62,14.62,0,0,0,.86,3.21q1.47,4.1,3.09,8.15a9.15,9.15,0,0,1,.66,2.11c.33,2.32-1.16,4.53-1.31,6.86a9.94,9.94,0,0,0,.45,3.28,49.72,49.72,0,0,0,2.71,7,5.56,5.56,0,0,0,1.43,2.19,1.7,1.7,0,0,0,2.31,0,2.93,2.93,0,0,0,.5-1.72l.31-4a24.19,24.19,0,0,0,0-6.12c-.42-2.42-1.58-4.65-1.8-7.09-.33-3.81,1.62-7.44,1.33-11.26-.1-1.42-.51-2.8-.68-4.24a5.74,5.74,0,0,1,.78-4.08,2.28,2.28,0,0,0,2.42,0Zm5.25,39.66-2.18.54c-.65.16-1.46.26-1.85-.33a2,2,0,0,1-.24-.86l-.76-6-.53,5.11a2.18,2.18,0,0,1-.65,1.61c-1,.7-2.64-1.07-3.5-.09a1.34,1.34,0,0,1-1.85,0A4.55,4.55,0,0,1,53.39,203c-1-2.51-2.09-5-3-7.58a11.44,11.44,0,0,1-.79-5.07c.15-1.06.55-2,.76-3.09.52-2.66-.29-5.4-1.28-7.89s-2.21-5-2.55-7.66c-.38-2.91.3-5.88,1-8.74l1.37-5.83a2.14,2.14,0,0,1,.75-1.38,1.75,1.75,0,0,1,.81-.18l17.8-1a2.7,2.7,0,0,1,2.07.53,3,3,0,0,1,.54,1.22l2.33,8.13a17.42,17.42,0,0,1,.87,4.56c0,3.77-2.27,7-4,10.25-.69,1.27-1.32,2.83-.76,4.17a12.13,12.13,0,0,1,1.2,9.69l-2.2,9.73a3.36,3.36,0,0,1-.38,1.09,2.84,2.84,0,0,1-1.83,1Z"/><path class="cls-5" d="M57,47.32H47.43v3c3.19,0,6.38-.1,9.57,0Zm1.93,3.05v2.92c.88,0,1.76,0,2.63,0V50.37ZM57,52.27H47.43V54.2c3.19,0,6.38-.1,9.57,0Zm1.94,4.92c.88,0,1.75,0,2.63,0v-1.9H58.93v1.87Zm0,2q0,7.26,0,14.52c.88,0,1.76,0,2.64,0V59.24ZM57,72.71H52.57l.09,7.08L55,77.86l.17-.15a5.47,5.47,0,0,0,.66-.69,5.36,5.36,0,0,0,1-2.11A5.62,5.62,0,0,0,57,73.71Zm1.64,3a7.36,7.36,0,0,1-1.33,2.58l-.13.16.05,4.34,2.38-1.93.17-.15A5.28,5.28,0,0,0,61.43,78a5.58,5.58,0,0,0,.13-1.19v-1ZM57,56.18H47.43V70.44a1,1,0,0,1-.06.25,1.07,1.07,0,0,1-.2.32l-.09.09L35.9,80.34l-.23.17-.07.05,6.06,7.7L42,88c1-.71,2-1.45,3-2.2,1.48-1.12,2.94-2.27,4.4-3.42l1.38-1.1-.12-9.59a1.17,1.17,0,0,1,0-.31,1,1,0,0,1,.56-.63.93.93,0,0,1,.24-.06h.12c1.8,0,3.6,0,5.4,0ZM34.28,82a5,5,0,0,0-.67,2.19A5.11,5.11,0,0,0,34,86.46a4.93,4.93,0,0,0,.69,1.2,4.83,4.83,0,0,0,1.22,1.11,4.69,4.69,0,0,0,3.5.62,4.76,4.76,0,0,0,.56-.16Zm21-1.83-1,.79q-2.61,2.1-5.24,4.17c-1.28,1-2.57,2-3.87,3l-.93.68,2,2.5.33-.23c1-.71,2-1.45,3-2.2,1.48-1.12,2.94-2.27,4.4-3.42l1.38-1.1Zm-12.6,9.74-.34.24-.48.32-.44.25a6.54,6.54,0,0,1-1.61.59A4.67,4.67,0,0,0,44,92.45a4.61,4.61,0,0,0,.56-.16Zm-5.33,1.46a6.45,6.45,0,0,1-1.28-.35A6.69,6.69,0,0,1,34,89.77a7,7,0,0,1-1.8-2.62,7.15,7.15,0,0,1-.2-4.58,7,7,0,0,1,.88-1.9,6.87,6.87,0,0,1,1.2-1.38,7.16,7.16,0,0,1,.66-.51h0l10.77-8.93V46.32a.89.89,0,0,1,0-.26,1,1,0,0,1,.56-.66.88.88,0,0,1,.24-.07H58.08l.12,0a.85.85,0,0,1,.23.1,1,1,0,0,1,.45.6,1.1,1.1,0,0,1,0,.26v2.06h3.73l.13,0a1,1,0,0,1,.23.1,1,1,0,0,1,.48.86c0,9.16.07,18.33,0,27.5,0,.17,0,.35,0,.52a7.58,7.58,0,0,1-.18,1.11,7.25,7.25,0,0,1-2.41,3.9l-2,1.64q-2.61,2.1-5.24,4.17c-1.28,1-2.57,2-3.87,3-.7.52-1.4,1-2.12,1.54l-.74.51-.49.32L46,93.8a6.53,6.53,0,0,1-5.35.31,6.71,6.71,0,0,1-2.1-1.29,7,7,0,0,1-1.18-1.41Z"/><path d="M290,45.72l.66-.91a2.87,2.87,0,0,0,2.11.93c1,0,1.33-.47,1.33-.92,0-1.4-3.88-.53-3.88-3,0-1.11,1-2,2.43-2a3.45,3.45,0,0,1,2.49.94l-.66.87a2.72,2.72,0,0,0-1.94-.77c-.68,0-1.12.34-1.12.83,0,1.25,3.88.48,3.88,3,0,1.11-.79,2.07-2.58,2.07A3.64,3.64,0,0,1,290,45.72Z"/><path d="M296.37,46.66V40h2.94a2.09,2.09,0,1,1,0,4.17h-1.77v2.5Zm3.91-4.58A1,1,0,0,0,299.15,41h-1.61v2.11h1.61A1,1,0,0,0,300.28,42.08Z"/><path d="M302.17,43.33a3.41,3.41,0,1,1,3.41,3.45A3.31,3.31,0,0,1,302.17,43.33Zm5.62,0a2.22,2.22,0,1,0-2.21,2.41A2.21,2.21,0,0,0,307.79,43.33Z"/><path d="M313.92,46.66l-1.47-2.49h-1.17v2.49h-1.17V40H313a2,2,0,0,1,2.19,2.09,1.88,1.88,0,0,1-1.59,2l1.64,2.62Zm.11-4.59a1,1,0,0,0-1.14-1h-1.61v2.12h1.61A1.05,1.05,0,0,0,314,42.07Z"/><path d="M317.89,46.66V41h-2V40h5.21v1h-2v5.64Z"/><path d="M324.65,46.66V40h3.28a1.7,1.7,0,0,1,1.9,1.7,1.51,1.51,0,0,1-1.16,1.53A1.63,1.63,0,0,1,330,44.85,1.75,1.75,0,0,1,328,46.66Zm4-4.78a.84.84,0,0,0-.93-.86h-1.88v1.72h1.88A.83.83,0,0,0,328.63,41.88Zm.13,2.82a.92.92,0,0,0-1-.93h-1.93v1.86h1.93A.9.9,0,0,0,328.76,44.7Z"/><path d="M334.95,46.66l-1.47-2.49h-1.17v2.49h-1.17V40h2.93a2,2,0,0,1,2.19,2.09,1.88,1.88,0,0,1-1.59,2l1.64,2.62Zm.11-4.59a1,1,0,0,0-1.14-1h-1.61v2.12h1.61A1.05,1.05,0,0,0,335.06,42.07Z"/><path d="M342.11,46.66l-.49-1.29h-3.06l-.49,1.29h-1.33L339.36,40h1.46l2.62,6.67Zm-2-5.5-1.2,3.18h2.4Z"/><path d="M343.63,45.72l.66-.91a2.87,2.87,0,0,0,2.11.93c1,0,1.33-.47,1.33-.92,0-1.4-3.88-.53-3.88-3,0-1.11,1-2,2.43-2a3.45,3.45,0,0,1,2.49.94l-.66.87a2.72,2.72,0,0,0-1.94-.77c-.68,0-1.12.34-1.12.83,0,1.25,3.88.48,3.88,3,0,1.11-.79,2.07-2.58,2.07A3.64,3.64,0,0,1,343.63,45.72Z"/><path d="M391.53,63.66l-1.29-4.93-1.3,4.93h-1.25L385.79,57h1.3l1.3,5.13L389.77,57h.93l1.38,5.13,1.3-5.13h1.31l-1.91,6.67Z"/><path d="M395,60.33a3.41,3.41,0,1,1,3.41,3.45A3.31,3.31,0,0,1,395,60.33Zm5.62,0a2.22,2.22,0,1,0-2.21,2.41A2.21,2.21,0,0,0,400.59,60.33Z"/><path d="M408.67,63.66V58.51l-2,5.15h-.5l-2-5.15v5.15h-1.17V57h1.65l1.82,4.58L408.19,57h1.65v6.67Z"/><path d="M411.26,63.66V57h4.57v1h-3.4v1.72h3.33v1h-3.33v1.86h3.4v1Z"/><path d="M421.68,63.66l-3.48-4.77v4.77H417V57h1.2l3.41,4.62V57h1.17v6.67Z"/><path d="M424.57,59.5l-.48-.38a1.62,1.62,0,0,0,.72-.94l-.17,0a.6.6,0,0,1-.59-.63.68.68,0,0,1,.68-.68.81.81,0,0,1,.77.91A2.11,2.11,0,0,1,424.57,59.5Z"/><path d="M425.94,63l.48-.75a2.48,2.48,0,0,0,1.63.67c.63,0,1-.26,1-.64,0-.95-2.92-.27-2.92-2.13,0-.79.68-1.46,1.9-1.46a2.76,2.76,0,0,1,1.87.67l-.44.74a2,2,0,0,0-1.43-.58c-.55,0-.89.26-.89.6,0,.85,2.92.21,2.92,2.13,0,.86-.71,1.51-2,1.51A2.93,2.93,0,0,1,425.94,63Z"/><path d="M437.49,63.66,436,61.17h-1.17v2.49h-1.17V57h2.93a2,2,0,0,1,2.19,2.09,1.88,1.88,0,0,1-1.59,2l1.64,2.62Zm.11-4.59a1,1,0,0,0-1.14-1h-1.61v2.12h1.61A1.05,1.05,0,0,0,437.6,59.07Z"/><path d="M440,61V57h1.19v4a1.7,1.7,0,1,0,3.4,0V57h1.19v4A2.89,2.89,0,0,1,440,61Z"/><path d="M451.82,63.66l-3.48-4.77v4.77h-1.17V57h1.2l3.41,4.62V57h1.17v6.67Z"/><path d="M459,63.66l-3.48-4.77v4.77h-1.17V57h1.2L459,61.61V57h1.17v6.67Z"/><path d="M461.57,63.66V57h1.17v6.67Z"/><path d="M468.81,63.66l-3.48-4.77v4.77h-1.17V57h1.2l3.41,4.62V57h1.17v6.67Z"/><path d="M471.07,60.33a3.35,3.35,0,0,1,3.5-3.45,3.12,3.12,0,0,1,2.68,1.38l-1,.55a2.15,2.15,0,0,0-1.73-.89,2.41,2.41,0,0,0,0,4.82,2.39,2.39,0,0,0,1.58-.6v-1h-2v-1h3.16v2.49a3.6,3.6,0,0,1-2.74,1.22A3.36,3.36,0,0,1,471.07,60.33Z"/><path d="M465.19,139.66v-5.15l-2,5.15h-.5l-2-5.15v5.15h-1.17V133h1.65l1.82,4.58,1.81-4.58h1.65v6.67Z"/><path d="M467.78,139.66V133h4.57v1h-3.4v1.72h3.33v1h-3.33v1.86h3.4v1Z"/><path d="M478.2,139.66l-3.48-4.77v4.77h-1.17V133h1.2l3.41,4.62V133h1.17v6.67Z"/><path d="M481.09,135.5l-.48-.38a1.62,1.62,0,0,0,.72-.94l-.17,0a.6.6,0,0,1-.59-.63.68.68,0,0,1,.68-.68.81.81,0,0,1,.77.91A2.11,2.11,0,0,1,481.09,135.5Z"/><path d="M482.46,139l.48-.75a2.48,2.48,0,0,0,1.63.67c.63,0,1-.26,1-.64,0-.95-2.92-.27-2.92-2.13,0-.79.68-1.46,1.9-1.46a2.76,2.76,0,0,1,1.87.67l-.44.74a2,2,0,0,0-1.43-.58c-.55,0-.89.26-.89.6,0,.85,2.92.21,2.92,2.13,0,.86-.71,1.51-2,1.51A2.92,2.92,0,0,1,482.46,139Z"/><path d="M489.91,136.33a3.36,3.36,0,0,1,3.5-3.45,3,3,0,0,1,2.67,1.49l-1,.52a2,2,0,0,0-1.68-1,2.41,2.41,0,0,0,0,4.82,2,2,0,0,0,1.68-1l1,.5a3,3,0,0,1-2.68,1.51A3.36,3.36,0,0,1,489.91,136.33Z"/><path d="M496.94,139.66V133h1.17v5.64H501v1Z"/><path d="M501.49,136.33a3.41,3.41,0,1,1,3.41,3.45A3.31,3.31,0,0,1,501.49,136.33Zm5.62,0a2.22,2.22,0,1,0-2.21,2.41A2.21,2.21,0,0,0,507.11,136.33Z"/><path d="M510.77,139.66V134h-2v-1H514v1h-2v5.64Z"/><path d="M519.59,139.66v-2.92h-3.47v2.92h-1.17V133h1.17v2.72h3.47V133h1.17v6.67Z"/><path d="M522.18,139.66V133h1.17v6.67Z"/><path d="M529.42,139.66l-3.48-4.77v4.77h-1.17V133H526l3.41,4.62V133h1.17v6.67Z"/><path d="M531.68,136.33a3.35,3.35,0,0,1,3.5-3.45,3.12,3.12,0,0,1,2.68,1.38l-1,.55a2.15,2.15,0,0,0-1.73-.89,2.41,2.41,0,0,0,0,4.82,2.39,2.39,0,0,0,1.58-.6v-1h-2v-1h3.16v2.49a3.6,3.6,0,0,1-2.74,1.22A3.36,3.36,0,0,1,531.68,136.33Z"/><path d="M341.53,179.66l-1.29-4.93-1.3,4.93h-1.25l-1.9-6.67h1.3l1.3,5.13,1.38-5.13h.93l1.38,5.13,1.3-5.13h1.31l-1.91,6.67Z"/><path d="M345,176.33a3.41,3.41,0,1,1,3.41,3.45A3.31,3.31,0,0,1,345,176.33Zm5.62,0a2.22,2.22,0,1,0-2.21,2.41A2.21,2.21,0,0,0,350.59,176.33Z"/><path d="M358.67,179.66v-5.15l-2,5.15h-.5l-2-5.15v5.15h-1.17V173h1.65l1.82,4.58,1.81-4.58h1.65v6.67Z"/><path d="M361.26,179.66V173h4.57v1h-3.4v1.72h3.33v1h-3.33v1.86h3.4v1Z"/><path d="M371.68,179.66l-3.48-4.77v4.77H367V173h1.2l3.41,4.62V173h1.17v6.67Z"/><path d="M374.57,175.5l-.48-.38a1.62,1.62,0,0,0,.72-.94l-.17,0a.6.6,0,0,1-.59-.63.68.68,0,0,1,.68-.68.81.81,0,0,1,.77.91A2.11,2.11,0,0,1,374.57,175.5Z"/><path d="M375.94,179l.48-.75a2.48,2.48,0,0,0,1.63.67c.63,0,1-.26,1-.64,0-.95-2.92-.27-2.92-2.13,0-.79.68-1.46,1.9-1.46a2.76,2.76,0,0,1,1.87.67l-.44.74a2,2,0,0,0-1.43-.58c-.55,0-.89.26-.89.6,0,.85,2.92.21,2.92,2.13,0,.86-.71,1.51-2,1.51A2.92,2.92,0,0,1,375.94,179Z"/><path d="M383.39,176.33a3.36,3.36,0,0,1,3.5-3.45,3,3,0,0,1,2.67,1.49l-1,.52a2,2,0,0,0-1.68-1,2.41,2.41,0,0,0,0,4.82,2,2,0,0,0,1.68-1l1,.5a3,3,0,0,1-2.68,1.51A3.36,3.36,0,0,1,383.39,176.33Z"/><path d="M395.13,179.66l-.49-1.29h-3.06l-.49,1.29h-1.33l2.62-6.67h1.46l2.62,6.67Zm-2-5.5-1.2,3.18h2.4Z"/><path d="M396.65,178.72l.66-.91a2.86,2.86,0,0,0,2.11.93c1,0,1.33-.47,1.33-.92,0-1.4-3.88-.53-3.88-3,0-1.11,1-2,2.43-2a3.45,3.45,0,0,1,2.49.94l-.66.87a2.72,2.72,0,0,0-1.94-.77c-.68,0-1.12.34-1.12.83,0,1.25,3.88.48,3.88,3,0,1.11-.79,2.07-2.58,2.07A3.64,3.64,0,0,1,396.65,178.72Z"/><path d="M403,177v-4h1.19v4a1.7,1.7,0,1,0,3.4,0v-4h1.19v4a2.89,2.89,0,0,1-5.78,0Z"/><path d="M414.6,179.66l-.49-1.29H411l-.49,1.29h-1.33l2.62-6.67h1.46l2.62,6.67Zm-2-5.5-1.2,3.18h2.4Z"/><path d="M416.57,179.66V173h1.17v5.64h2.94v1Z"/><path d="M438.19,211.66v-5.15l-2,5.15h-.5l-2-5.15v5.15h-1.17V205h1.65l1.82,4.58,1.81-4.58h1.65v6.67Z"/><path d="M440.78,211.66V205h4.57v1h-3.4v1.72h3.33v1h-3.33v1.86h3.4v1Z"/><path d="M451.2,211.66l-3.48-4.77v4.77h-1.17V205h1.2l3.41,4.62V205h1.17v6.67Z"/><path d="M454.09,207.5l-.48-.38a1.62,1.62,0,0,0,.72-.94l-.17,0a.6.6,0,0,1-.59-.63.68.68,0,0,1,.68-.68.81.81,0,0,1,.77.91A2.11,2.11,0,0,1,454.09,207.5Z"/><path d="M455.46,211l.48-.75a2.48,2.48,0,0,0,1.63.67c.63,0,1-.26,1-.64,0-.95-2.92-.27-2.92-2.13,0-.79.68-1.46,1.9-1.46a2.76,2.76,0,0,1,1.87.67l-.44.74a2,2,0,0,0-1.43-.58c-.55,0-.89.26-.89.6,0,.85,2.92.21,2.92,2.13,0,.86-.71,1.51-2,1.51A2.92,2.92,0,0,1,455.46,211Z"/><path d="M462.77,210.72l.66-.91a2.86,2.86,0,0,0,2.11.93c1,0,1.33-.47,1.33-.92,0-1.4-3.88-.53-3.88-3,0-1.11,1-2,2.43-2a3.45,3.45,0,0,1,2.49.94l-.66.87a2.72,2.72,0,0,0-1.94-.77c-.68,0-1.12.34-1.12.83,0,1.25,3.88.48,3.88,3,0,1.11-.79,2.07-2.58,2.07A3.64,3.64,0,0,1,462.77,210.72Z"/><path d="M468.85,208.33a3.41,3.41,0,1,1,3.41,3.45A3.31,3.31,0,0,1,468.85,208.33Zm5.62,0a2.22,2.22,0,1,0-2.21,2.41A2.21,2.21,0,0,0,474.47,208.33Z"/><path d="M476.5,208.33a3.36,3.36,0,0,1,3.5-3.45,3,3,0,0,1,2.67,1.49l-1,.52a2,2,0,0,0-1.68-1,2.41,2.41,0,0,0,0,4.82,2,2,0,0,0,1.68-1l1,.5a3,3,0,0,1-2.68,1.51A3.36,3.36,0,0,1,476.5,208.33Z"/><path d="M483.32,208.33a3.36,3.36,0,0,1,3.5-3.45,3,3,0,0,1,2.67,1.49l-1,.52a2,2,0,0,0-1.68-1,2.41,2.41,0,0,0,0,4.82,2,2,0,0,0,1.68-1l1,.5a3,3,0,0,1-2.68,1.51A3.36,3.36,0,0,1,483.32,208.33Z"/><path d="M490.43,211.66V205H495v1h-3.4v1.72h3.33v1H491.6v1.86H495v1Z"/><path d="M500,211.66l-1.47-2.49h-1.17v2.49H496.2V205h2.93a2,2,0,0,1,2.19,2.09,1.88,1.88,0,0,1-1.59,2l1.64,2.62Zm.11-4.59a1,1,0,0,0-1.14-1h-1.61v2.12H499A1.05,1.05,0,0,0,500.12,207.07Z"/><path d="M184,179.66V174h-2v-1h5.21v1h-2v5.64Z"/><path d="M192,179.66l-1.47-2.49h-1.17v2.49H188.2V173h2.93a2,2,0,0,1,2.19,2.09,1.88,1.88,0,0,1-1.59,2l1.64,2.62Zm.11-4.59a1,1,0,0,0-1.14-1h-1.61v2.12H191A1.05,1.05,0,0,0,192.12,175.07Z"/><path d="M199.17,179.66l-.49-1.29h-3.06l-.49,1.29H193.8l2.62-6.67h1.46l2.62,6.67Zm-2-5.5-1.2,3.18h2.4Z"/><path d="M201.22,179.66V173h1.17v6.67Z"/><path d="M208.46,179.66,205,174.89v4.77h-1.17V173H205l3.41,4.62V173h1.17v6.67Z"/><path d="M211,179.66V173h1.17v6.67Z"/><path d="M218.25,179.66l-3.48-4.77v4.77H213.6V173h1.2l3.41,4.62V173h1.17v6.67Z"/><path d="M220.51,176.33a3.35,3.35,0,0,1,3.5-3.45,3.12,3.12,0,0,1,2.68,1.38l-1,.55a2.15,2.15,0,0,0-1.73-.89,2.41,2.41,0,0,0,0,4.82,2.4,2.4,0,0,0,1.58-.6v-1h-2v-1h3.16v2.49a3.6,3.6,0,0,1-2.74,1.22A3.36,3.36,0,0,1,220.51,176.33Z"/><path d="M230.55,179.66V173h4.57v1h-3.4v1.72H235v1h-3.33v1.86h3.4v1Z"/><path d="M236,176.33a3.41,3.41,0,1,1,6.82,0,3.49,3.49,0,0,1-.89,2.4l.55.62-.81.68-.58-.65a3.56,3.56,0,0,1-1.68.4A3.31,3.31,0,0,1,236,176.33Zm4.35,2.21-.83-.94.82-.68.83.94a2.63,2.63,0,0,0,.45-1.53,2.2,2.2,0,1,0-1.27,2.21Z"/><path d="M244,177v-4h1.19v4a1.7,1.7,0,1,0,3.4,0v-4h1.19v4a2.89,2.89,0,0,1-5.78,0Z"/><path d="M251,173.59a.65.65,0,1,1,.65.65A.65.65,0,0,1,251,173.59Zm.12,6.07v-4.83h1v4.83Z"/><path d="M253.58,179.66V173h2.94a2.09,2.09,0,1,1,0,4.17h-1.77v2.5Zm3.91-4.58a1,1,0,0,0-1.13-1.06h-1.61v2.11h1.61A1,1,0,0,0,257.49,175.08Z"/><path d="M265.43,179.66v-5.15l-2,5.15h-.5l-2-5.15v5.15h-1.17V173h1.65l1.82,4.58,1.81-4.58h1.65v6.67Z"/><path d="M268,179.66V173h4.57v1h-3.4v1.72h3.33v1h-3.33v1.86h3.4v1Z"/><path d="M278.44,179.66,275,174.89v4.77h-1.17V173H275l3.41,4.62V173h1.17v6.67Z"/><path d="M282.58,179.66V174h-2v-1h5.21v1h-2v5.64Z"/><path d="M307.43,111.66V105h3.28a1.7,1.7,0,0,1,1.9,1.7,1.51,1.51,0,0,1-1.16,1.53,1.63,1.63,0,0,1,1.29,1.63,1.75,1.75,0,0,1-1.94,1.81Zm4-4.78a.84.84,0,0,0-.93-.86H308.6v1.72h1.88A.83.83,0,0,0,311.41,106.88Zm.13,2.82a.92.92,0,0,0-1-.93H308.6v1.86h1.93A.9.9,0,0,0,311.54,109.7Z"/><path d="M318.6,111.66l-.49-1.29H315l-.49,1.29h-1.33l2.62-6.67h1.46l2.62,6.67Zm-2-5.5-1.2,3.18h2.4Z"/><path d="M320,108.33a3.35,3.35,0,0,1,3.5-3.45,3.12,3.12,0,0,1,2.68,1.38l-1,.55a2.15,2.15,0,0,0-1.73-.89,2.41,2.41,0,0,0,0,4.82,2.4,2.4,0,0,0,1.58-.6v-1h-2v-1h3.16v2.49a3.6,3.6,0,0,1-2.74,1.22A3.36,3.36,0,0,1,320,108.33Z"/><path d="M327,110.72l.66-.91a2.86,2.86,0,0,0,2.11.93c1,0,1.33-.47,1.33-.92,0-1.4-3.88-.53-3.88-3,0-1.11,1-2,2.43-2a3.45,3.45,0,0,1,2.49.94l-.66.87a2.72,2.72,0,0,0-1.94-.77c-.68,0-1.12.34-1.12.83,0,1.25,3.88.48,3.88,3,0,1.11-.79,2.07-2.58,2.07A3.64,3.64,0,0,1,327,110.72Z"/><path d="M340.18,111.66c-.16-.15-.37-.35-.59-.58a2.83,2.83,0,0,1-1.87.7,1.9,1.9,0,0,1-2.14-1.9,2.16,2.16,0,0,1,1.45-1.95,3.15,3.15,0,0,1-.47-1.47,1.66,1.66,0,0,1,1.81-1.57c.9,0,1.64.49,1.64,1.36s-.83,1.45-1.66,1.85c.23.32.47.61.66.83s.44.53.66.77a5.59,5.59,0,0,0,.66-1.4l.85.39a8.33,8.33,0,0,1-.92,1.66c.4.42.82.85,1.3,1.31ZM339,110.47c-.34-.36-.65-.71-.82-.93a11.84,11.84,0,0,1-.74-.95,1.4,1.4,0,0,0-.76,1.2,1.12,1.12,0,0,0,1.17,1.15A1.81,1.81,0,0,0,339,110.47Zm-1.07-3c.63-.3,1.14-.62,1.14-1.18a.62.62,0,0,0-.67-.65.8.8,0,0,0-.8.83A2.14,2.14,0,0,0,337.94,107.49Z"/><path d="M349.7,111.66l-.49-1.29h-3.06l-.49,1.29h-1.33l2.62-6.67h1.46l2.62,6.67Zm-2-5.5-1.2,3.18h2.4Z"/><path d="M351.11,108.33a3.36,3.36,0,0,1,3.5-3.45,3,3,0,0,1,2.67,1.49l-1,.52a2,2,0,0,0-1.68-1,2.41,2.41,0,0,0,0,4.82,2,2,0,0,0,1.68-1l1,.5a3,3,0,0,1-2.68,1.51A3.36,3.36,0,0,1,351.11,108.33Z"/><path d="M357.93,108.33a3.36,3.36,0,0,1,3.5-3.45,3,3,0,0,1,2.67,1.49l-1,.52a2,2,0,0,0-1.68-1,2.41,2.41,0,0,0,0,4.82,2,2,0,0,0,1.68-1l1,.5a3,3,0,0,1-2.68,1.51A3.36,3.36,0,0,1,357.93,108.33Z"/><path d="M365,111.66V105h4.57v1h-3.4v1.72h3.33v1h-3.33v1.86h3.4v1Z"/><path d="M370.38,110.72l.66-.91a2.86,2.86,0,0,0,2.11.93c1,0,1.33-.47,1.33-.92,0-1.4-3.88-.53-3.88-3,0-1.11,1-2,2.43-2a3.45,3.45,0,0,1,2.49.94l-.66.87a2.72,2.72,0,0,0-1.94-.77c-.68,0-1.12.34-1.12.83,0,1.25,3.88.48,3.88,3,0,1.11-.79,2.07-2.58,2.07A3.64,3.64,0,0,1,370.38,110.72Z"/><path d="M376.32,110.72l.66-.91a2.86,2.86,0,0,0,2.11.93c1,0,1.33-.47,1.33-.92,0-1.4-3.88-.53-3.88-3,0-1.11,1-2,2.43-2a3.45,3.45,0,0,1,2.49.94l-.66.87a2.72,2.72,0,0,0-1.94-.77c-.68,0-1.12.34-1.12.83,0,1.25,3.88.48,3.88,3,0,1.11-.79,2.07-2.58,2.07A3.64,3.64,0,0,1,376.32,110.72Z"/><path d="M382.4,108.33a3.41,3.41,0,1,1,3.41,3.45A3.31,3.31,0,0,1,382.4,108.33Zm5.62,0a2.22,2.22,0,1,0-2.21,2.41A2.21,2.21,0,0,0,388,108.33Z"/><path d="M394.15,111.66l-1.47-2.49h-1.17v2.49h-1.17V105h2.93a2,2,0,0,1,2.19,2.09,1.88,1.88,0,0,1-1.59,2l1.64,2.62Zm.11-4.59a1,1,0,0,0-1.14-1h-1.61v2.12h1.61A1.05,1.05,0,0,0,394.26,107.07Z"/><path d="M396.63,111.66V105h1.17v6.67Z"/><path d="M399.22,111.66V105h4.57v1h-3.4v1.72h3.33v1h-3.33v1.86h3.4v1Z"/><path d="M404.56,110.72l.66-.91a2.86,2.86,0,0,0,2.11.93c1,0,1.33-.47,1.33-.92,0-1.4-3.88-.53-3.88-3,0-1.11,1-2,2.43-2a3.45,3.45,0,0,1,2.49.94l-.66.87a2.72,2.72,0,0,0-1.94-.77c-.68,0-1.12.34-1.12.83,0,1.25,3.88.48,3.88,3,0,1.11-.79,2.07-2.58,2.07A3.64,3.64,0,0,1,404.56,110.72Z"/><path d="M147.43,242.66V236h3.28a1.7,1.7,0,0,1,1.9,1.7,1.51,1.51,0,0,1-1.16,1.53,1.63,1.63,0,0,1,1.29,1.63,1.75,1.75,0,0,1-1.94,1.81Zm4-4.78a.84.84,0,0,0-.93-.86H148.6v1.72h1.88A.83.83,0,0,0,151.41,237.88Zm.13,2.82a.92.92,0,0,0-1-.93H148.6v1.86h1.93A.9.9,0,0,0,151.54,240.7Z"/><path d="M158.6,242.66l-.49-1.29H155l-.49,1.29h-1.33l2.62-6.67h1.46l2.62,6.67Zm-2-5.5-1.2,3.18h2.4Z"/><path d="M160.12,241.72l.66-.91a2.86,2.86,0,0,0,2.11.93c1,0,1.33-.47,1.33-.92,0-1.4-3.88-.53-3.88-3,0-1.11,1-2,2.43-2a3.45,3.45,0,0,1,2.49.94l-.66.87a2.72,2.72,0,0,0-1.94-.77c-.68,0-1.12.34-1.12.83,0,1.25,3.88.48,3.88,3,0,1.11-.79,2.07-2.58,2.07A3.64,3.64,0,0,1,160.12,241.72Z"/><path d="M170.48,242.66l-2.23-2.82-.59.69v2.13h-1.17V236h1.17v3.17l2.61-3.17h1.45L169,239.13l2.92,3.53Z"/><path d="M172.7,242.66V236h4.57v1h-3.4v1.72h3.33v1h-3.33v1.86h3.4v1Z"/><path d="M180.06,242.66V237h-2v-1h5.21v1h-2v5.64Z"/><path d="M184.24,242.66V236h3.28a1.7,1.7,0,0,1,1.9,1.7,1.51,1.51,0,0,1-1.16,1.53,1.63,1.63,0,0,1,1.29,1.63,1.75,1.75,0,0,1-1.94,1.81Zm4-4.78a.84.84,0,0,0-.93-.86h-1.88v1.72h1.88A.83.83,0,0,0,188.22,237.88Zm.13,2.82a.92.92,0,0,0-1-.93h-1.93v1.86h1.93A.9.9,0,0,0,188.35,240.7Z"/><path d="M195.41,242.66l-.49-1.29h-3.06l-.49,1.29H190l2.62-6.67h1.46l2.62,6.67Zm-2-5.5-1.2,3.18h2.4Z"/><path d="M197.38,242.66V236h1.17v5.64h2.94v1Z"/><path d="M202.44,242.66V236h1.17v5.64h2.94v1Z"/><path d="M196.19,97.66V92.51l-2,5.15h-.5l-2-5.15v5.15h-1.17V91h1.65l1.82,4.58L195.71,91h1.65v6.67Z"/><path d="M198.78,97.66V91h4.57v1h-3.4v1.72h3.33v1h-3.33v1.86h3.4v1Z"/><path d="M209.2,97.66l-3.48-4.77v4.77h-1.17V91h1.2l3.41,4.62V91h1.17v6.67Z"/><path d="M212.09,93.5l-.48-.38a1.62,1.62,0,0,0,.72-.94l-.17,0a.6.6,0,0,1-.59-.63.68.68,0,0,1,.68-.68.81.81,0,0,1,.77.91A2.11,2.11,0,0,1,212.09,93.5Z"/><path d="M213.46,97l.48-.75a2.48,2.48,0,0,0,1.63.67c.63,0,1-.26,1-.64,0-.95-2.92-.27-2.92-2.13,0-.79.68-1.46,1.9-1.46a2.76,2.76,0,0,1,1.87.67l-.44.74a2,2,0,0,0-1.43-.58c-.55,0-.89.26-.89.6,0,.85,2.92.21,2.92,2.13,0,.86-.71,1.51-2,1.51A2.93,2.93,0,0,1,213.46,97Z"/><path d="M220.91,94.33a3.36,3.36,0,0,1,3.5-3.45,3,3,0,0,1,2.67,1.49l-1,.52a2,2,0,0,0-1.68-1,2.41,2.41,0,0,0,0,4.82,2,2,0,0,0,1.68-1l1,.5a3,3,0,0,1-2.68,1.51A3.36,3.36,0,0,1,220.91,94.33Z"/><path d="M232.65,97.66l-.49-1.29H229.1l-.49,1.29h-1.33L229.9,91h1.46L234,97.66Zm-2-5.5-1.2,3.18h2.4Z"/><path d="M234.17,96.72l.66-.91a2.87,2.87,0,0,0,2.11.93c1,0,1.33-.47,1.33-.92,0-1.4-3.88-.53-3.88-3,0-1.11,1-2,2.43-2a3.45,3.45,0,0,1,2.49.94l-.66.87a2.72,2.72,0,0,0-1.94-.77c-.68,0-1.12.34-1.12.83,0,1.25,3.88.48,3.88,3,0,1.11-.79,2.07-2.58,2.07A3.64,3.64,0,0,1,234.17,96.72Z"/><path d="M240.54,95V91h1.19v4a1.7,1.7,0,1,0,3.4,0V91h1.19v4a2.89,2.89,0,0,1-5.78,0Z"/><path d="M252.12,97.66l-.49-1.29h-3.06l-.49,1.29h-1.33L249.37,91h1.46l2.62,6.67Zm-2-5.5-1.2,3.18h2.4Z"/><path d="M254.09,97.66V91h1.17v5.64h2.94v1Z"/><path d="M90.53,72.66l-1.29-4.93-1.3,4.93H86.69L84.79,66h1.3l1.3,5.13L88.77,66h.93l1.38,5.13L92.38,66h1.31l-1.91,6.67Z"/><path d="M94,69.33a3.41,3.41,0,1,1,3.41,3.45A3.31,3.31,0,0,1,94,69.33Zm5.62,0a2.22,2.22,0,1,0-2.21,2.41A2.21,2.21,0,0,0,99.59,69.33Z"/><path d="M107.67,72.66V67.51l-2,5.15h-.5l-2-5.15v5.15h-1.17V66h1.65l1.82,4.58L107.19,66h1.65v6.67Z"/><path d="M110.26,72.66V66h4.57v1h-3.4v1.72h3.33v1h-3.33v1.86h3.4v1Z"/><path d="M120.68,72.66l-3.48-4.77v4.77H116V66h1.2l3.41,4.62V66h1.17v6.67Z"/><path d="M123.57,68.5l-.48-.38a1.62,1.62,0,0,0,.72-.94l-.17,0a.6.6,0,0,1-.59-.63.68.68,0,0,1,.68-.68.81.81,0,0,1,.77.91A2.11,2.11,0,0,1,123.57,68.5Z"/><path d="M124.94,72l.48-.75a2.48,2.48,0,0,0,1.63.67c.63,0,1-.26,1-.64,0-.95-2.92-.27-2.92-2.13,0-.79.68-1.46,1.9-1.46a2.76,2.76,0,0,1,1.87.67l-.44.74a2,2,0,0,0-1.43-.58c-.55,0-.89.26-.89.6,0,.85,2.92.21,2.92,2.13,0,.86-.71,1.51-2,1.51A2.93,2.93,0,0,1,124.94,72Z"/><path d="M132.39,69.33a3.36,3.36,0,0,1,3.5-3.45,3,3,0,0,1,2.67,1.49l-1,.52a2,2,0,0,0-1.68-1,2.41,2.41,0,0,0,0,4.82,2,2,0,0,0,1.68-1l1,.5a3,3,0,0,1-2.68,1.51A3.36,3.36,0,0,1,132.39,69.33Z"/><path d="M139.42,72.66V66h1.17v5.64h2.94v1Z"/><path d="M144,69.33a3.41,3.41,0,1,1,3.41,3.45A3.31,3.31,0,0,1,144,69.33Zm5.62,0a2.22,2.22,0,1,0-2.21,2.41A2.21,2.21,0,0,0,149.59,69.33Z"/><path d="M153.25,72.66V67h-2V66h5.21v1h-2v5.64Z"/><path d="M162.07,72.66V69.74H158.6v2.92h-1.17V66h1.17v2.72h3.47V66h1.17v6.67Z"/><path d="M164.66,72.66V66h1.17v6.67Z"/><path d="M171.9,72.66l-3.48-4.77v4.77h-1.17V66h1.2l3.41,4.62V66H173v6.67Z"/><path d="M174.16,69.33a3.35,3.35,0,0,1,3.5-3.45,3.12,3.12,0,0,1,2.68,1.38l-1,.55a2.15,2.15,0,0,0-1.73-.89,2.41,2.41,0,0,0,0,4.82,2.39,2.39,0,0,0,1.58-.6v-1h-2v-1h3.16v2.49a3.6,3.6,0,0,1-2.74,1.22A3.36,3.36,0,0,1,174.16,69.33Z"/><path d="M0,103.72l.66-.91a2.87,2.87,0,0,0,2.11.93c1,0,1.33-.47,1.33-.92,0-1.4-3.88-.53-3.88-3,0-1.11,1-2,2.43-2a3.45,3.45,0,0,1,2.49.94l-.66.87a2.72,2.72,0,0,0-1.94-.77c-.68,0-1.12.34-1.12.83,0,1.25,3.88.48,3.88,3,0,1.11-.79,2.07-2.58,2.07A3.64,3.64,0,0,1,0,103.72Z"/><path d="M6.08,101.33a3.31,3.31,0,0,1,3.41-3.45,3.45,3.45,0,0,1,0,6.9A3.31,3.31,0,0,1,6.08,101.33Zm5.62,0a2.22,2.22,0,1,0-2.21,2.41A2.21,2.21,0,0,0,11.7,101.33Z"/><path d="M13.73,101.33a3.36,3.36,0,0,1,3.5-3.45,3,3,0,0,1,2.67,1.49l-1,.52a2,2,0,0,0-1.68-1,2.41,2.41,0,0,0,0,4.82,2,2,0,0,0,1.68-1l1,.5a3,3,0,0,1-2.68,1.51A3.36,3.36,0,0,1,13.73,101.33Z"/><path d="M24.83,104.66l-2.23-2.82-.59.69v2.13H20.84V98H22v3.17L24.62,98h1.45l-2.71,3.14,2.92,3.53Z"/><path d="M26.62,103.72l.66-.91a2.87,2.87,0,0,0,2.11.93c1,0,1.33-.47,1.33-.92,0-1.4-3.88-.53-3.88-3,0-1.11,1-2,2.43-2a3.45,3.45,0,0,1,2.49.94l-.66.87a2.72,2.72,0,0,0-1.94-.77c-.68,0-1.12.34-1.12.83,0,1.25,3.88.48,3.88,3,0,1.11-.79,2.07-2.58,2.07A3.64,3.64,0,0,1,26.62,103.72Z"/><path d="M39.76,104.66c-.16-.15-.37-.35-.59-.58a2.83,2.83,0,0,1-1.87.7,1.9,1.9,0,0,1-2.14-1.9,2.15,2.15,0,0,1,1.45-1.95,3.15,3.15,0,0,1-.47-1.47,1.66,1.66,0,0,1,1.81-1.57c.9,0,1.64.49,1.64,1.36s-.83,1.45-1.66,1.85c.23.32.47.61.66.83s.44.53.66.77a5.57,5.57,0,0,0,.66-1.4l.85.39a8.3,8.3,0,0,1-.92,1.66c.4.42.82.85,1.3,1.31Zm-1.17-1.19c-.34-.36-.65-.71-.82-.93a11.85,11.85,0,0,1-.74-.95,1.4,1.4,0,0,0-.76,1.2,1.12,1.12,0,0,0,1.17,1.15A1.81,1.81,0,0,0,38.59,103.47Zm-1.07-3c.63-.3,1.14-.62,1.14-1.18a.62.62,0,0,0-.67-.65.8.8,0,0,0-.8.83A2.15,2.15,0,0,0,37.52,100.49Z"/><path d="M42,102V98h1.19v4a1.7,1.7,0,1,0,3.4,0V98H47.8v4a2.57,2.57,0,0,1-2.89,2.76A2.58,2.58,0,0,1,42,102Z"/><path d="M53.87,104.66l-3.48-4.77v4.77H49.22V98h1.2l3.41,4.62V98H55v6.67Z"/><path d="M56.42,104.66V98H58.9a3.34,3.34,0,1,1,0,6.67Zm4.77-3.34A2.15,2.15,0,0,0,58.91,99H57.59v4.61H58.9A2.19,2.19,0,0,0,61.19,101.32Z"/><path d="M63.52,104.66V98h4.57v1h-3.4v1.72H68v1H64.69v1.86h3.4v1Z"/><path d="M73.1,104.66l-1.47-2.49H70.46v2.49H69.29V98h2.93a2,2,0,0,1,2.19,2.09,1.88,1.88,0,0,1-1.59,2l1.64,2.62Zm.11-4.59a1,1,0,0,0-1.14-1H70.46v2.12h1.61A1.05,1.05,0,0,0,73.21,100.07Z"/><path d="M80.68,104.66l-1.29-4.93-1.3,4.93H76.84L74.94,98h1.3l1.3,5.13L78.92,98h.93l1.38,5.13L82.53,98h1.31l-1.91,6.67Z"/><path d="M84.61,104.66V98h4.57v1h-3.4v1.72h3.33v1H85.78v1.86h3.4v1Z"/><path d="M95.06,104.66l-.49-1.29H91.51L91,104.66H89.69L92.31,98h1.46l2.62,6.67Zm-2-5.5-1.2,3.18h2.4Z"/><path d="M100.92,104.66l-1.47-2.49H98.28v2.49H97.11V98H100a2,2,0,0,1,2.19,2.09,1.88,1.88,0,0,1-1.59,2l1.64,2.62Zm.11-4.59a1,1,0,0,0-1.14-1H98.28v2.12h1.61A1.05,1.05,0,0,0,101,100.07Z"/><path d="M103.8,174.07l.55-.89a1.48,1.48,0,0,0,1.14.56,1.12,1.12,0,0,0,1.17-1.21V168h1.17v4.55a2.06,2.06,0,0,1-2.25,2.24A2.36,2.36,0,0,1,103.8,174.07Z"/><path d="M109.25,172v-4h1.19v4a1.7,1.7,0,1,0,3.4,0v-4H115v4a2.89,2.89,0,0,1-5.78,0Z"/><path d="M121.1,174.66l-3.48-4.77v4.77h-1.17V168h1.2l3.41,4.62V168h1.17v6.67Z"/><path d="M123.65,174.66V168h1.17v6.67Z"/><path d="M125.95,171.33a3.41,3.41,0,1,1,3.41,3.45A3.31,3.31,0,0,1,125.95,171.33Zm5.62,0a2.22,2.22,0,1,0-2.21,2.41A2.21,2.21,0,0,0,131.57,171.33Z"/><path d="M137.7,174.66l-1.47-2.49h-1.17v2.49h-1.17V168h2.93a2,2,0,0,1,2.19,2.09,1.88,1.88,0,0,1-1.59,2l1.64,2.62Zm.11-4.59a1,1,0,0,0-1.14-1h-1.61v2.12h1.61A1.05,1.05,0,0,0,137.81,170.07Z"/><path d="M37.35,215.66V209h1.17v5.64h2.94v1Z"/><path d="M42.49,215.66V209h4.57v1h-3.4v1.72H47v1H43.66v1.86h3.4v1Z"/><path d="M48,212.33a3.35,3.35,0,0,1,3.5-3.45,3.12,3.12,0,0,1,2.68,1.38l-1,.55a2.15,2.15,0,0,0-1.73-.89,2.41,2.41,0,0,0,0,4.82,2.4,2.4,0,0,0,1.58-.6v-1H51v-1h3.16v2.49a3.6,3.6,0,0,1-2.74,1.22A3.36,3.36,0,0,1,48,212.33Z"/><path d="M55.14,212.33a3.35,3.35,0,0,1,3.5-3.45,3.12,3.12,0,0,1,2.68,1.38l-1,.55a2.15,2.15,0,0,0-1.73-.89,2.41,2.41,0,0,0,0,4.82,2.4,2.4,0,0,0,1.58-.6v-1h-2v-1h3.16v2.49a3.6,3.6,0,0,1-2.74,1.22A3.36,3.36,0,0,1,55.14,212.33Z"/><path d="M62.6,215.66V209h1.17v6.67Z"/><path d="M69.84,215.66l-3.48-4.77v4.77H65.19V209h1.2l3.41,4.62V209H71v6.67Z"/><path d="M72.1,212.33a3.35,3.35,0,0,1,3.5-3.45,3.12,3.12,0,0,1,2.68,1.38l-1,.55a2.15,2.15,0,0,0-1.73-.89,2.41,2.41,0,0,0,0,4.82,2.4,2.4,0,0,0,1.58-.6v-1h-2v-1h3.16v2.49a3.6,3.6,0,0,1-2.74,1.22A3.36,3.36,0,0,1,72.1,212.33Z"/><path d="M79.13,214.72l.66-.91a2.86,2.86,0,0,0,2.11.93c1,0,1.33-.47,1.33-.92,0-1.4-3.88-.53-3.88-3,0-1.11,1-2,2.43-2a3.45,3.45,0,0,1,2.49.94l-.66.87a2.72,2.72,0,0,0-1.94-.77c-.68,0-1.12.34-1.12.83,0,1.25,3.88.48,3.88,3,0,1.11-.79,2.07-2.58,2.07A3.64,3.64,0,0,1,79.13,214.72Z"/><path d="M490.78,194a33.38,33.38,0,0,1-5.36,1.53c-1.1.23-2.21.43-3.31.6a.54.54,0,0,0-.23,0l-.17,0c-2.32.34-4.57.57-6.55.72a.54.54,0,0,0-.47,0l-1,.08a25.94,25.94,0,0,1-5.9-.14c-.77-.12-1.54-.26-2.29-.4-1.2-.22-2.44-.44-3.68-.59a63.67,63.67,0,0,0-9.79-.3.48.48,0,0,0-.24,0l-.09,0-2.06.1-.68,0c-1.34.08-2.69.16-4,.17h-.13a.53.53,0,0,0-.31-.08,3,3,0,0,0-.6.09,19.37,19.37,0,0,1-5.92-.92,6.87,6.87,0,0,1-3.22-1.86c1.43-.74,6.24-2.62,14.71-.19,1.24.47,2.26.8,3.15,1.05l.27.1a.52.52,0,0,0,.19,0h0a19.83,19.83,0,0,0,4.87.59,41,41,0,0,1,4.3.31c1.37.17,2.55.44,3.69.7a27.74,27.74,0,0,0,6.71.88c3.4,0,8.1-.63,15.74-2.64a27.94,27.94,0,0,0,3.26-.77,15.81,15.81,0,0,0,1.77-.65,9.65,9.65,0,0,1-2.6,1.44Zm-2.92,2.85a5.27,5.27,0,0,0-.1,1.06l-1.81.47a4.47,4.47,0,0,0-1.53-1.56l1.22-.24c.7-.15,1.56-.34,2.51-.6a3.87,3.87,0,0,0-.29.87Zm-8.07,1.37a5.17,5.17,0,0,0-.23,1l-1.86.23a4.31,4.31,0,0,0-1.17-1.63c1.14-.1,2.35-.23,3.6-.39a3.68,3.68,0,0,0-.34.74Zm-7.49.65a5.11,5.11,0,0,0-.36,1h-1.88a4.31,4.31,0,0,0-1-1.76c.66.05,1.31.07,1.94.07s1.17,0,1.72,0a3.84,3.84,0,0,0-.45.73Zm-22.78-1.33a4.89,4.89,0,0,0-.29,1l-1.87.12a4.32,4.32,0,0,0-1.11-1.73c.91,0,1.82-.09,2.72-.14l.68,0,.31,0a3.91,3.91,0,0,0-.43.78Zm-7.59-.14a5,5,0,0,0-.45,1l-1.87-.18a4.29,4.29,0,0,0-.76-1.8,20.07,20.07,0,0,0,3.44.53,3.83,3.83,0,0,0-.36.49Zm-7.8-5.19a6.19,6.19,0,0,1-.48-1.85h0s2.41-2.55,10.41.43c-5.49-.57-8.74.78-9.93,1.43Zm-.44-4.55a47.19,47.19,0,0,1,1-5.59l0-.2a16.61,16.61,0,0,1,1.65-4.85c.16-.26.46-.68.74-.55s.47.6.62.95l0,.06a8.94,8.94,0,0,0,2.55,3.64,7.6,7.6,0,0,0,8.66.1,8.64,8.64,0,0,0,2.25-2.29c.25-.33.52-.68.8-1a4,4,0,0,1,3.69-1.35,6.26,6.26,0,0,0,.63.42,20.57,20.57,0,0,0,2.06,1.05l-8.08,14.09-.67-.2c-1-.38-2.17-.85-3.52-1.43-7.55-3.24-11.16-2.22-12.58-1.4a14,14,0,0,1,.09-1.43Zm22.09-13.39a1,1,0,0,1,.58-.64,1.3,1.3,0,0,1,1.08.15c1,.59,2.09,1.12,3.13,1.63l1.17.58-1,1.89-.57-.24a27.1,27.1,0,0,1-3.25-1.56c-1.3-.77-1.33-1.32-1.16-1.8Zm7.5,1.29.08,0a.18.18,0,0,1,.07.24L461.78,179a.18.18,0,0,1-.16.1l-.08,0a.18.18,0,0,1-.07-.24l1.66-3.16A.18.18,0,0,1,463.28,175.6Zm4.16,2.14.08,0a.18.18,0,0,1,.07.24l-1.66,3.16a.18.18,0,0,1-.16.09l-.08,0a.18.18,0,0,1-.07-.24l1.66-3.16A.18.18,0,0,1,467.44,177.74ZM472,180a.21.21,0,0,1,.11,0,.21.21,0,0,1,.11.11.08.08,0,0,1,0,.07l-1.51,2.88a.12.12,0,0,1-.11,0l-.11,0c-.09,0-.13-.14-.11-.19l1.51-2.88a.12.12,0,0,1,.11,0Zm2.74,2.46-.33.79-2.17-.79.48-.91c.67.32,1.35.62,2,.91h0Zm1.36-.46.13,0a.3.3,0,0,1,.17.15l-1.1,2.64a.16.16,0,0,1-.09,0l-.13,0a.3.3,0,0,1-.17-.15L476,182A.18.18,0,0,1,476.07,182Zm-15.49,5.47,8.34,5.07a.53.53,0,0,0,.48.3h0l4.48,2.73a26.07,26.07,0,0,1-7.75-.82c-1.16-.26-2.37-.53-3.79-.71a41.26,41.26,0,0,0-4.41-.32l-1,0Zm6.31-5.79,0-.07h0l2.42.92A1.23,1.23,0,0,0,470,184a1.32,1.32,0,0,0,.6.15,1.18,1.18,0,0,0,1.05-.62l.09-.17,2.26.82,0,0a1.15,1.15,0,0,0,.71,1.46,1.34,1.34,0,0,0,.52.11,1.08,1.08,0,0,0,1-.63l.07-.16,1.11.39a.56.56,0,0,0,.18,0,.54.54,0,0,0,.18-1l-1.06-.37.28-.68c1.75.68,3.54,1.24,5.33,1.75.38.44,1.33,1.7.85,2.92-1.13,2.9-8.87,3.57-13.54,3.71l-8.51-5.17,3.43-5.93.09,0a1.25,1.25,0,0,0,.6,1.51,1.24,1.24,0,0,0,.58.14,1.25,1.25,0,0,0,1.1-.67Zm1.25-2.38,2.3,1.16-.59,1.13-2.42-.92ZM464,177.15l1.94,1-.83,1.58-.37-.15-.11-.09a.5.5,0,0,0-.28-.07l-1.27-.52ZM452.86,193q-.77-.29-1.51-.54l8-14,.39.17.61.26A1.26,1.26,0,0,0,461,180a1.24,1.24,0,0,0,1.46-.22h0l1.07.44-7.69,13.31h0a17.31,17.31,0,0,1-3-.57ZM488,186.65l.6.16c1.83.47,5.22,1.33,6,3a1.48,1.48,0,0,1,.13.55c-.48,1.24-4.25,2.29-6.53,2.65h0a79.42,79.42,0,0,1-12.48,2.45l-4.4-2.68c7.59-.39,11.92-1.84,12.89-4.33a3.44,3.44,0,0,0-.26-2.87l2.09.55,2,.54Zm7.53,2.67c-.95-2.09-4.53-3-6.67-3.55l-.59-.15-2.06-.54c-1.12-.29-2.25-.59-3.39-.91a.51.51,0,0,0-.41-.12c-1.71-.49-3.42-1-5.08-1.67a1,1,0,0,0-.11-.72,1.31,1.31,0,0,0-.65-.57,1.35,1.35,0,0,0-.52-.11,1.09,1.09,0,0,0-.94.49h0c-.64-.28-1.29-.57-1.94-.88a1.18,1.18,0,0,0,0-.82,1.27,1.27,0,0,0-.61-.69,1.33,1.33,0,0,0-.6-.15,1.18,1.18,0,0,0-1,.58l-2.32-1.17a1.25,1.25,0,0,0-2.2-1.13l-2-1a1.25,1.25,0,0,0-2.21-1.12l-1.2-.6c-1-.5-2.08-1-3.07-1.59a2.37,2.37,0,0,0-2-.23,2.05,2.05,0,0,0-1.21,1.29,2,2,0,0,0,0,1.52,5.23,5.23,0,0,0-3.55,1.79c-.31.35-.58.71-.84,1.06a7.7,7.7,0,0,1-2,2,6.52,6.52,0,0,1-7.42,0,7.67,7.67,0,0,1-2.24-3.23l0-.06a2.62,2.62,0,0,0-1.16-1.51c-.36-.16-1.28-.39-2.1,1a17.69,17.69,0,0,0-1.78,5.16l0,.2a47.85,47.85,0,0,0-1,5.72,9.6,9.6,0,0,0,.74,5.53,6.21,6.21,0,0,0,3.56,2.71.5.5,0,0,0,.14.18,4.12,4.12,0,0,1,1.51,2.69.54.54,0,0,0,.48.56l2.77.27h.05a.54.54,0,0,0,.52-.42s.37-1.66,1.59-2.07h.65a4,4,0,0,1,1.77,2.32.54.54,0,0,0,.53.48h0l2.77-.18a.53.53,0,0,0,.5-.5,4.06,4.06,0,0,1,.29-1.18,2,2,0,0,1,1.29-1.26,63.09,63.09,0,0,1,9.84.28c1.21.14,2.44.37,3.62.58l2,.35,0,0a4.1,4.1,0,0,1,1.76,2.53.54.54,0,0,0,.54.51h2.78a.53.53,0,0,0,.53-.47s.26-2.13,1.87-2.36a.54.54,0,0,0,.21-.08,3.82,3.82,0,0,1,1.79,2.13.54.54,0,0,0,.53.45h.07l2.76-.34a.54.54,0,0,0,.47-.54,4,4,0,0,1,.22-1.19,2,2,0,0,1,1.17-1.32l.7-.11.1,0c.54.2,2,1,2.34,2a.53.53,0,0,0,.51.38l.14,0,2.69-.7a.54.54,0,0,0,.4-.59,4,4,0,0,1,.06-1.21,2,2,0,0,1,1.16-1.54.54.54,0,0,0,.23-.18l.87-.32c1.39-.55,3.33-1.47,4.22-3.21a2.8,2.8,0,0,0,.15-2.52Z"/><path class="cls-6" d="M287.66,206.89h.07c0-4.12,0-5.51,1.25-6.15a.51.51,0,0,1,.58,0c.46.37.29,1.86.29,1.88h.06c0-.07.18-1.55-.31-2a.57.57,0,0,0-.65,0c-1.24.66-1.33,2.06-1.28,6.23Z"/><path class="cls-6" d="M289.23,200.6c1.14-.47.88,1.77.88,1.77s-.22.13-.22.18.21-1.9-.66-1.95"/><path class="cls-6" d="M289.44,200.66s-1.58,1.32-1.34,5.05a10.56,10.56,0,0,0-.41,1.1s0-2,0-3.07.29-3.13,1.72-3.13"/><path class="cls-6" d="M317.91,222c1.83,0,3.83-.06,5.77-.23,5.58-.48,9.38-1.65,11.29-3.47a.75.75,0,0,0,.25-.59h-.34a.35.35,0,0,1-.11.27h0c-1.83,1.74-5.66,2.91-11.1,3.38a73.08,73.08,0,0,1-10.64.07,45.12,45.12,0,0,1-8.7-1.65l-.71-.18a15.07,15.07,0,0,0-2.67-.49,32.66,32.66,0,0,1-5.21-1,52.78,52.78,0,0,0-11.57-1.38v.38a52.66,52.66,0,0,1,11.49,1.37,32.83,32.83,0,0,0,5.25,1,14.81,14.81,0,0,1,2.62.48l.71.19a45.28,45.28,0,0,0,8.75,1.66c1.25.09,3,.17,4.91.17Z"/><path class="cls-6" d="M295.65,218.34H296a5.66,5.66,0,0,0-2.27-4.37c-1.53-1-3-1.92-3.83-2.4l-.66-.4c-.1-.07-.34-.19-.64-.34a7.21,7.21,0,0,1-1.47-.85h0l-.33.12c.07.25.55.52,1.65,1.06.27.13.52.26.6.31l.67.41c.86.52,2.3,1.39,3.82,2.39a5.35,5.35,0,0,1,2.1,4Z"/><path class="cls-6" d="M334.86,217c.15,1.9-.31,2.54-4,3.69a59.63,59.63,0,0,1-15.86,2,77.34,77.34,0,0,1-11.76-1.64l-.83-.16a7.34,7.34,0,0,0-1.87-.17c-.74,0-1.5,0-4.91-.95a50.31,50.31,0,0,0-11.87-1.59c0-.2,0-.52.07-.73s.15-.22.28-.3a.3.3,0,0,0,.18-.16l.76-2.14.28,0,.13-.11c.13-.31,1.33-3.42,1.47-3.93.06-.2.09-.36.13-.53s.11-.52.26-1a13,13,0,0,0,.5-2.31,16.07,16.07,0,0,1,2-4l.06-.08c.29-.35.34-.42.73-.3s1,.28,1,2.49a3.5,3.5,0,0,0,1.75,3.29c.59.3,2.25,0,4.21-2.13,1.75-1.89,2.61-2.09,3-2.17l.15,0c.32-.1.39-.24.49-.54l.09-.23a6.88,6.88,0,0,0,.36-1.52c0-.09,0-.1.12-.18a2.41,2.41,0,0,0,.24-.22,1.78,1.78,0,0,1,1.24-.07h0c.24,0,.29.05.86.83a14,14,0,0,0,2.78,2.57l.24.13c.21.11.21.12.26.19a.33.33,0,0,1,.06.14,2.2,2.2,0,0,0,.14.35,7.43,7.43,0,0,0,1.91,1.39,6.71,6.71,0,0,0,1.34.51,1.61,1.61,0,0,1,1,.94c.3.58.52.6.89.57H313a1.45,1.45,0,0,1,1,.55.07.07,0,0,1,0,0,.81.81,0,0,0,.26.49c.22.26.6.26,1,.26a4.71,4.71,0,0,1,.66,0c.21,0,.23.12.22.47a.66.66,0,0,0,.17.59,16.74,16.74,0,0,0,2.27.88l.76.27.62.19.31.08a2.81,2.81,0,0,1,1.19.47A5,5,0,0,0,324,214a27.17,27.17,0,0,1,4,.95,19.79,19.79,0,0,0,4.89.56,2.16,2.16,0,0,1,2,1.53Zm-25.12,8.79a.27.27,0,0,0-.21.15c-.07.11-.13.19-.24.19h-1.11a.6.6,0,0,1-.17-.29c0-.07,0-.21-.15-.24s-.14,0-.2.13a.44.44,0,0,1-.37.26,6.47,6.47,0,0,1-1.35,0,1.8,1.8,0,0,1-.13-.22l-.2-.1-.12.21s0,.09-.13.12a7.4,7.4,0,0,1-1.33,0,.41.41,0,0,1-.16-.16c0-.16-.07-.21-.13-.23s-.15,0-.21.13-.11.21-.27.2c-.32,0-.68,0-.83,0a1.72,1.72,0,0,1-.42-.59s0-.2-.17-.22-.19.11-.23.19a.73.73,0,0,1-.49.47,3.39,3.39,0,0,1-1.19,0,1.16,1.16,0,0,1,0-.14.26.26,0,0,0-.06-.27c-.1-.09-.2,0-.28,0a1.8,1.8,0,0,1-1.24.24.82.82,0,0,1-.44-.12l0,0a.28.28,0,0,0,0-.27c-.08-.1-.22-.12-.43-.06l-.08.06a.67.67,0,0,0-.1.15l-.48.05h-.65c-.13,0-.29-.15-.36-.23h0a.22.22,0,0,0,0-.28c-.09-.15-.23-.11-.66.12a1.71,1.71,0,0,1-.3.14,6,6,0,0,1-1.29,0,.36.36,0,0,1,0-.15.23.23,0,0,0-.07-.26c-.11-.07-.21-.07-.63.35a7.5,7.5,0,0,1-1.64-.13.12.12,0,0,1,0-.14.24.24,0,0,0,.05-.28.17.17,0,0,0-.2-.1,1,1,0,0,0-.51.51,8.74,8.74,0,0,1-1.64-.34h0l-.1,0h-.07c0-.06.08-.22,0-.31s-.23,0-.33.15a1.6,1.6,0,0,1-.25.26c-.61-.08-1.21-.22-1.21-.22h0c-2.86-.53-3.69-1.63-3.92-2.08a2.41,2.41,0,0,1-.22-1.45c0-.12,0-.24,0-.38s0-.34,0-.48c0-.73,0-.74.19-.81a1.47,1.47,0,0,0,.65-.64,50.21,50.21,0,0,1,11.87,1.57c3.46,1,4.24,1,5,1a7,7,0,0,1,1.81.16l.83.16A77.39,77.39,0,0,0,315,223.09a60.12,60.12,0,0,0,16-2c2.5-.79,3.63-1.39,4-2.4l0,0h0v0a3.06,3.06,0,0,1-.74,1.84.18.18,0,0,0-.18-.13c-.16,0-.19.19-.21.38a3.63,3.63,0,0,1-1.73,1.14.19.19,0,0,0-.07-.1.17.17,0,0,0-.19,0,.48.48,0,0,0-.17.31,8.64,8.64,0,0,1-2.45,1.13.19.19,0,0,0-.08-.2c-.08-.06-.17,0-.25.07a1.49,1.49,0,0,1-.76.53.2.2,0,0,0-.1-.18c-.13-.08-.23,0-.34.15a1.51,1.51,0,0,1-.22.21,2.49,2.49,0,0,1-.63.26c0-.12-.05-.19-.14-.21s-.2.11-.21.16-.07.17-.12.19h0a3.67,3.67,0,0,1-.89.24.19.19,0,0,0-.07-.17.16.16,0,0,0-.24,0,1,1,0,0,1-.56.34l-.19,0a3.37,3.37,0,0,1-.54.09l-.25-.17a.74.74,0,0,1-.29.25l-.13,0a3.22,3.22,0,0,1-1,.2c-.08,0-.1-.05-.1-.05l-.32-.13c-.06.13-.21.31-.29.31h-.25a4.3,4.3,0,0,0-.7,0l-.13-.09-.1,0c-.31,0-.37.11-.4.14l0,0s-.1.15-.54.23a2.63,2.63,0,0,1-.84.07l0,0a.2.2,0,0,0-.08-.2c-.18-.13-.45.2-.51.27s-.13.17-.58.18h-.94a.22.22,0,0,0-.1-.23c-.13-.07-.24,0-.38.2l-.15.16h-1.38a.64.64,0,0,1-.13-.13l-.08-.15H314a.75.75,0,0,1-.63.42H312.1a.92.92,0,0,1,0-.16c0-.13,0-.21-.13-.24s-.2.07-.24.12a.78.78,0,0,1-.2.21,5.28,5.28,0,0,1-1.53,0,.74.74,0,0,1-.06-.12.2.2,0,0,0-.16-.13h0Zm-.9.72h.46a.56.56,0,0,0,.43-.22l.06.07.1.05a4.75,4.75,0,0,0,1.8,0l.1-.07,0,.07.16.13h1.36a1,1,0,0,0,.77-.38,1.11,1.11,0,0,0,.22.2l.09,0h1.47c.1,0,.19-.09.33-.24a.29.29,0,0,0,.14.11h0s.54,0,1,0,.71-.16.83-.31l.06-.06a.54.54,0,0,0,.23.14,2.85,2.85,0,0,0,1-.06c.5-.09.67-.24.76-.38l.11,0,.13.09.11,0a3.91,3.91,0,0,1,.71,0h.26a.59.59,0,0,0,.42-.24.5.5,0,0,0,.23.11,2.94,2.94,0,0,0,1.13-.2l.13,0a.66.66,0,0,0,.23-.12.27.27,0,0,0,.18.06,3.09,3.09,0,0,0,.65-.1l.19,0a1.3,1.3,0,0,0,.54-.26l.08.06a3.42,3.42,0,0,0,1.18-.26h0a.44.44,0,0,0,.17-.13l0,0a2.69,2.69,0,0,0,.95-.35,1.13,1.13,0,0,0,.19-.16l0,0a.2.2,0,0,0,.2,0,1.8,1.8,0,0,0,.91-.48.25.25,0,0,0,.1.06h.08A7.25,7.25,0,0,0,331,223a3.48,3.48,0,0,0,1.05-.66,3.82,3.82,0,0,0,2.15-1.34v0a.26.26,0,0,0,.13,0l0,0a3.32,3.32,0,0,0,1-2.25.41.41,0,0,0-.15-.35.27.27,0,0,0-.14-.06,4.58,4.58,0,0,0,.05-1.35v0a2.54,2.54,0,0,0-2.36-1.82,19.41,19.41,0,0,1-4.79-.54,27.54,27.54,0,0,0-4.05-1,4.55,4.55,0,0,1-2.29-.75,2.82,2.82,0,0,0-1.35-.57l-.31-.08-.59-.18-.76-.27a22.17,22.17,0,0,1-2.18-.83.87.87,0,0,1,0-.26c0-.27,0-.77-.52-.86a5.15,5.15,0,0,0-.71,0c-.33,0-.67,0-.78-.13s-.16-.23-.16-.27a.62.62,0,0,0,0-.11,1.68,1.68,0,0,0-1.28-.8h-.3c-.3,0-.36,0-.57-.38-.42-.81-.88-1.06-1.19-1.13a6.4,6.4,0,0,1-1.27-.48,8.11,8.11,0,0,1-1.75-1.23,1.75,1.75,0,0,1-.11-.28.78.78,0,0,0-.12-.26.89.89,0,0,0-.38-.29l-.24-.13a14,14,0,0,1-2.67-2.47c-.61-.84-.71-.91-1.07-1h0c-.54-.09-1.24-.14-1.53.16a1.77,1.77,0,0,1-.2.19.57.57,0,0,0-.26.46,6.49,6.49,0,0,1-.33,1.4l-.09.24c-.09.25-.1.26-.27.32l-.12,0c-.44.1-1.34.3-3.16,2.27s-3.42,2.26-3.83,2.05a3.12,3.12,0,0,1-1.55-3c0-2.2-.63-2.67-1.26-2.85s-.77,0-1.07.42l-.06.07a16.84,16.84,0,0,0-2.08,4.21,12.84,12.84,0,0,1-.49,2.25,10.7,10.7,0,0,0-.27,1.07c0,.17-.06.31-.12.5-.12.43-1.16,3.16-1.42,3.79l-.29,0-.14.12-.78,2.19,0,0a.81.81,0,0,0-.47.56,8.82,8.82,0,0,0-.08.94,1.19,1.19,0,0,1-.49.52c-.42.16-.42.44-.42,1.17,0,.13,0,.29,0,.47s0,.27,0,.38a2.79,2.79,0,0,0,.27,1.64c.25.5,1.15,1.72,4.16,2.27.06,0,.65.15,1.26.23.13,0,.24-.07.37-.21a.44.44,0,0,0,.34.13,5.16,5.16,0,0,0,1.93.31.22.22,0,0,0,.11-.18v0a.67.67,0,0,0,.06.13c.05.09.22.27,2,.27l.12-.05.17-.17a.52.52,0,0,0,0,.1v0c.05.1.13.18.73.19a7.9,7.9,0,0,0,.89,0,1.53,1.53,0,0,0,.42-.18l.13-.07a.45.45,0,0,0,.1.16.87.87,0,0,0,.62.35h.66l.61-.07.13-.19a.43.43,0,0,0,0,.18c.09.18.31.27.7.31a2.24,2.24,0,0,0,1.23-.17.34.34,0,0,0,0,.21l.1.07a3.83,3.83,0,0,0,1.46.08,1,1,0,0,0,.61-.45,3,3,0,0,0,.47.56l.12,0s.47,0,.87,0a.55.55,0,0,0,.42-.16.91.91,0,0,0,.25.2l.06,0a8,8,0,0,0,1.45,0,.52.52,0,0,0,.26-.13l0,0,.12.08a7,7,0,0,0,1.51,0,.84.84,0,0,0,.42-.19,1.19,1.19,0,0,0,.24.29l.1,0a7.06,7.06,0,0,0,.72,0Z"/><path class="cls-6" d="M317.87,212a1.81,1.81,0,0,0,.36,0l-.06-.37a3.93,3.93,0,0,1-1.66-.2,5.58,5.58,0,0,1-1.44-.65,8.81,8.81,0,0,0-1.09-.57l-.39-.16a9.25,9.25,0,0,1-1.58-.79l-.35-.21a8.12,8.12,0,0,1-1.44-1.1,5.4,5.4,0,0,0-1.5-.89,2.07,2.07,0,0,1-1.1-.8,4.54,4.54,0,0,0-2.49-1.32l-.24-.07h0a.68.68,0,0,0-.7-.43h-.27a1.82,1.82,0,0,1-1.23-.36,3.46,3.46,0,0,0-1.89-.44l0,.38a3.21,3.21,0,0,1,1.69.38,2.13,2.13,0,0,0,1.4.42h.26c.32,0,.37.12.41.22l.06.11c.05.07.11.08.41.16a4.39,4.39,0,0,1,2.3,1.17,2.39,2.39,0,0,0,1.25.93,5.09,5.09,0,0,1,1.42.84,8.18,8.18,0,0,0,1.49,1.13l.34.2a9.82,9.82,0,0,0,1.62.81l.39.16a8.84,8.84,0,0,1,1,.55,6,6,0,0,0,1.51.68,5.15,5.15,0,0,0,1.44.24Z"/><path class="cls-6" d="M295.29,211a4.33,4.33,0,0,0,1.54-.26c3.29-1.25,7.68-5.46,7.86-5.64l-.23-.29s-4.52,4.34-7.75,5.56S288.81,208,287.8,207l-.22.29a17.86,17.86,0,0,0,3.69,2.5,9.15,9.15,0,0,0,4,1.16Z"/><polygon class="cls-6" points="310.01 207.96 310.46 207.06 310.17 206.87 309.71 207.78 310.01 207.96"/><polygon class="cls-6" points="309.01 207.4 309.46 206.59 309.18 206.39 308.72 207.19 309.01 207.4"/><polygon class="cls-6" points="308.5 207.21 309.11 206.41 308.85 206.16 308.24 206.96 308.5 207.21"/><polygon class="cls-6" points="307.83 206.61 308.34 205.86 308.06 205.63 307.56 206.38 307.83 206.61"/><polygon class="cls-6" points="314.96 211.12 315.21 210.99 315.39 210.01 315.06 209.93 314.92 210.67 314.6 210.49 314.71 209.94 314.37 209.86 314.24 210.55 314.32 210.76 314.96 211.12"/><path class="cls-6" d="M312.66,209.78a4,4,0,0,1,.55-1l-.27-.24a4.35,4.35,0,0,0-.62,1.15Z"/><path class="cls-6" d="M312,209.33a2.7,2.7,0,0,1,.31-.82l-.29-.2a3.08,3.08,0,0,0-.36,1Z"/><path class="cls-7" d="M288.11,225.16"/><path d="M279.72,237.93v-5.15l-2,5.15h-.5l-2-5.15v5.15H274v-6.67h1.65l1.82,4.58,1.81-4.58h1.65v6.67Z"/><path d="M282.31,237.93v-6.67h4.57v1h-3.4V234h3.33v1h-3.33v1.86h3.4v1Z"/><path d="M292.73,237.93l-3.48-4.77v4.77h-1.17v-6.67h1.2l3.41,4.62v-4.62h1.17v6.67Z"/><path d="M295.62,233.77l-.48-.38a1.62,1.62,0,0,0,.72-.94l-.17,0a.6.6,0,0,1-.59-.63.68.68,0,0,1,.68-.68.81.81,0,0,1,.77.91A2.12,2.12,0,0,1,295.62,233.77Z"/><path d="M297,237.29l.48-.75a2.47,2.47,0,0,0,1.63.67c.63,0,1-.26,1-.64,0-.95-2.92-.27-2.92-2.13,0-.79.68-1.46,1.9-1.46a2.76,2.76,0,0,1,1.87.67l-.44.74a2,2,0,0,0-1.43-.58c-.55,0-.89.26-.89.6,0,.85,2.92.21,2.92,2.13,0,.86-.71,1.51-2,1.51A2.93,2.93,0,0,1,297,237.29Z"/><path d="M308.54,237.93l-1.47-2.49H305.9v2.49h-1.17v-6.67h2.93a2,2,0,0,1,2.19,2.09,1.88,1.88,0,0,1-1.59,2l1.64,2.62Zm.11-4.59a1,1,0,0,0-1.14-1H305.9v2.12h1.61A1.05,1.05,0,0,0,308.65,233.34Z"/><path d="M311,235.29v-4h1.19v4a1.7,1.7,0,1,0,3.4,0v-4h1.19v4a2.89,2.89,0,0,1-5.78,0Z"/><path d="M322.87,237.93l-3.48-4.77v4.77h-1.17v-6.67h1.2l3.41,4.62v-4.62H324v6.67Z"/><path d="M330.07,237.93l-3.48-4.77v4.77h-1.17v-6.67h1.2l3.41,4.62v-4.62h1.17v6.67Z"/><path d="M332.62,237.93v-6.67h1.17v6.67Z"/><path d="M339.86,237.93l-3.48-4.77v4.77h-1.17v-6.67h1.2l3.41,4.62v-4.62H341v6.67Z"/><path d="M342.12,234.6a3.35,3.35,0,0,1,3.5-3.45,3.12,3.12,0,0,1,2.68,1.38l-1,.55a2.15,2.15,0,0,0-1.73-.89,2.41,2.41,0,0,0,0,4.82,2.39,2.39,0,0,0,1.58-.6v-1h-2v-1h3.16v2.49a3.6,3.6,0,0,1-2.74,1.22A3.36,3.36,0,0,1,342.12,234.6Z"/></g></g></svg>