<svg xmlns="http://www.w3.org/2000/svg" viewBox="0 0 71 35.45"><defs><style>.a{fill:gray;}</style></defs><title>StoreDNA</title><path class="a" d="M71,23.69c0-.31,0-.63,0-1,0-3-3.51-3.17-7.22-3.4L62,19.21c-2.68-.21-9.55-2.42-15.56-4.86a1.82,1.82,0,0,0-.21-1A2.44,2.44,0,0,0,45,12.29a2.36,2.36,0,0,0-1.9,0A2.45,2.45,0,0,0,40,10.72a2.37,2.37,0,0,0-1.14-1.5,2.26,2.26,0,0,0-2.3,0c-.69-.75-1.46-1.69-2.27-2.68-2.44-3-5-6.06-7-6.06a2.18,2.18,0,0,0-1.61.63,4.72,4.72,0,0,0-.9,3.3c-1.41.08-2.9,1.38-4.47,2.76s-3.48,3.05-5.1,3.05c-1.46,0-1.65-1.37-1.78-3.63-.12-2-.25-4.2-2.4-4.2a1.77,1.77,0,0,0-.26,0A2.91,2.91,0,0,0,10.22.55,1.61,1.61,0,0,0,9,0C7.91,0,6.7,1.06,6.65,9.29h0c0,2-1.82,6.94-3.38,9.77a32,32,0,0,0-2.11,4.63C.1,24.28,0,26,0,26.27c0,3.12.59,6.23,7.62,7a2.74,2.74,0,0,0,.72,0,2,2,0,0,1,.45,0,1.49,1.49,0,0,1,.4.16,2.19,2.19,0,0,0,.72.25,2.14,2.14,0,0,0,.76-.09,1.5,1.5,0,0,1,.41-.06,1.47,1.47,0,0,1,.4.17,2.11,2.11,0,0,0,.75.27,1.82,1.82,0,0,0,.78-.12,1.65,1.65,0,0,1,.37-.08,1.19,1.19,0,0,1,.33.18,1.73,1.73,0,0,0,.78.33,1.78,1.78,0,0,0,.83-.18c.12,0,.27-.14.35-.11a1.18,1.18,0,0,1,.33.18,1.74,1.74,0,0,0,.78.33,1.72,1.72,0,0,0,.83-.19,1.75,1.75,0,0,1,.35-.11,1.19,1.19,0,0,1,.34.17,1.71,1.71,0,0,0,.78.32,1.75,1.75,0,0,0,.83-.19,1.62,1.62,0,0,1,.35-.12,1.19,1.19,0,0,1,.34.17,1.71,1.71,0,0,0,.78.32,1.69,1.69,0,0,0,.83-.2,2.19,2.19,0,0,1,.35-.12,1.19,1.19,0,0,1,.34.17,1.72,1.72,0,0,0,.79.31,1.93,1.93,0,0,0,.83-.21,1.65,1.65,0,0,1,.35-.12,1.2,1.2,0,0,1,.34.17,1.73,1.73,0,0,0,.79.3,1.75,1.75,0,0,0,.83-.21,1,1,0,0,1,.35-.12,1.19,1.19,0,0,1,.34.16,1.73,1.73,0,0,0,.79.29,1.84,1.84,0,0,0,.83-.22,1.13,1.13,0,0,1,.34-.13,1.17,1.17,0,0,1,.35.16,1.72,1.72,0,0,0,.8.29,1.67,1.67,0,0,0,.83-.23,1.34,1.34,0,0,1,.34-.13,1.16,1.16,0,0,1,.35.15,1.73,1.73,0,0,0,.8.28,2,2,0,0,0,.82-.24,1.24,1.24,0,0,1,.34-.14h0a1.2,1.2,0,0,1,.35.15,1.7,1.7,0,0,0,.8.27h0a1.78,1.78,0,0,0,.81-.25,1.2,1.2,0,0,1,.34-.14,1.19,1.19,0,0,1,.35.14,1.72,1.72,0,0,0,.8.25h0a1.76,1.76,0,0,0,.82-.27,1.26,1.26,0,0,1,.33-.15s.23.08.35.14a2,2,0,0,0,.81.24,1.76,1.76,0,0,0,.81-.28,1.22,1.22,0,0,1,.34-.15c.08,0,.23.07.36.13a1.64,1.64,0,0,0,.81.23,1.77,1.77,0,0,0,.81-.3,1.25,1.25,0,0,1,.33-.16,1.46,1.46,0,0,1,.36.13,1.39,1.39,0,0,0,1.62-.1,1.21,1.21,0,0,1,.32-.16,1.28,1.28,0,0,1,.36.12,1.65,1.65,0,0,0,.82.19,1.77,1.77,0,0,0,.79-.33,1.21,1.21,0,0,1,.32-.17c.08,0,.24.06.37.11a1.75,1.75,0,0,0,.83.17,1.77,1.77,0,0,0,.79-.35,1.21,1.21,0,0,1,.32-.18,1,1,0,0,1,.37.1,1.69,1.69,0,0,0,.83.15,1.75,1.75,0,0,0,.78-.38,1.22,1.22,0,0,1,.31-.19A1.37,1.37,0,0,1,53,34a2,2,0,0,0,.76,0,2.2,2.2,0,0,0,.73-.31,1.43,1.43,0,0,1,.37-.18,1.72,1.72,0,0,1,.47,0,2.38,2.38,0,0,0,.79,0,2,2,0,0,0,.7-.34,1.14,1.14,0,0,1,.32-.18,1.87,1.87,0,0,1,.46,0,2.79,2.79,0,0,0,.72-.06,44.6,44.6,0,0,0,8.15-2.89C71.12,27.87,71.06,26,71,23.69Zm-7.3-3.36c3.89.24,6.28.48,6.28,2.4,0,.35,0,.68,0,1v.18c-3.35,4.88-17.35,6-30.36,5.22C36,28,28.33,25.73,24,24.69c-1.64-.4-3.58-.83-5.63-1.25-.2-4.16-4.6-6.53-8.52-8.63-1.11-.59-2.15-1.16-3-1.72a18.91,18.91,0,0,0,.7-2.85c2.77,2.1,6.15,4.55,9.5,4.55,3.66,0,10.38-5.21,13-8.29a38.87,38.87,0,0,1,6.58,4.11C41.4,14,57.29,19.85,61.92,20.2Zm-19-7.12a1.46,1.46,0,0,1,.7.63l0,.09-1.78-.76A1.37,1.37,0,0,1,44.64,13.2Zm-3.15-1.45a1.39,1.39,0,0,1,.67.75c-.62-.29-1.2-.57-1.75-.85A1.36,1.36,0,0,1,41.49,11.75Zm-3.11-1.67a1.36,1.36,0,0,1,.66.84c-.64-.35-1.19-.69-1.65-1A1.4,1.4,0,0,1,38.38,10.08Zm-12-8.32a1.2,1.2,0,0,1,.9-.33c1.56,0,4.14,3.16,6.21,5.69l.23.28a16.17,16.17,0,0,0-8-3A4.09,4.09,0,0,1,26.41,1.76Zm-14,4.84c.12,2,.27,4.57,2.78,4.57,2,0,3.91-1.68,5.76-3.3,1.41-1.24,2.88-2.52,3.95-2.52a11.86,11.86,0,0,1,4.14.75c-2.78,3.17-9,7.69-12,7.69s-6.54-2.56-9.25-4.62l-.15-.11C7.79,6.67,9.73,3.33,11,3.33,12.14,3.33,12.32,4.38,12.45,6.6ZM9,1a.61.61,0,0,1,.5.21,2.51,2.51,0,0,1,.31,1.58,6.9,6.9,0,0,0-2,2.45C8.14,1.07,8.92,1,9,1ZM6.54,14.06c.86.54,1.84,1.07,2.88,1.63,3.59,1.93,7.62,4.09,8,7.55a98.39,98.39,0,0,0-14.12-2c.25-.53.54-1.1.87-1.7A39.17,39.17,0,0,0,6.54,14.06ZM66,29.23a43.65,43.65,0,0,1-8,2.83,2,2,0,0,1-.45,0,2.79,2.79,0,0,0-.7.05,1.91,1.91,0,0,0-.65.32,1.08,1.08,0,0,1-.34.19,1.6,1.6,0,0,1-.45,0,2.48,2.48,0,0,0-.78,0,2.18,2.18,0,0,0-.69.3,1.49,1.49,0,0,1-.4.19,1.46,1.46,0,0,1-.4,0,2.24,2.24,0,0,0-.76,0,1.72,1.72,0,0,0-.74.37,1.17,1.17,0,0,1-.33.2,1,1,0,0,1-.35-.1,1.76,1.76,0,0,0-.84-.15,1.74,1.74,0,0,0-.75.34,1.14,1.14,0,0,1-.33.19,1.42,1.42,0,0,1-.35-.11,1.82,1.82,0,0,0-.83-.18,1.73,1.73,0,0,0-.77.33,1.2,1.2,0,0,1-.34.18,1.59,1.59,0,0,1-.35-.12,1.4,1.4,0,0,0-1.6.11,1.19,1.19,0,0,1-.34.17,1.28,1.28,0,0,1-.34-.12,1.81,1.81,0,0,0-.82-.21,1.71,1.71,0,0,0-.78.29,1.19,1.19,0,0,1-.34.16c-.07,0-.23-.07-.34-.13a2.12,2.12,0,0,0-.82-.23,1.72,1.72,0,0,0-.79.28,1.2,1.2,0,0,1-.35.15h0a1.24,1.24,0,0,1-.34-.14,2.13,2.13,0,0,0-.82-.25,1.73,1.73,0,0,0-.79.26,1.16,1.16,0,0,1-.35.15h0a1.24,1.24,0,0,1-.34-.14,1.77,1.77,0,0,0-.81-.26h0a1.73,1.73,0,0,0-.8.25,1.21,1.21,0,0,1-.35.14h0A1.22,1.22,0,0,1,35,34.3a1.78,1.78,0,0,0-.81-.27,2.19,2.19,0,0,0-.8.24,1.21,1.21,0,0,1-.35.14h0a1.18,1.18,0,0,1-.34-.15,1.78,1.78,0,0,0-.81-.28,1.93,1.93,0,0,0-.81.23,1,1,0,0,1-.36.13,1.2,1.2,0,0,1-.33-.15,1.76,1.76,0,0,0-.8-.29,2,2,0,0,0-.81.22c-.13.06-.31.15-.36.13a1.25,1.25,0,0,1-.34-.16,1.76,1.76,0,0,0-.8-.3,1.72,1.72,0,0,0-.81.21,1.63,1.63,0,0,1-.36.13,1.22,1.22,0,0,1-.33-.16,1.77,1.77,0,0,0-.79-.31,1.85,1.85,0,0,0-.82.21,1,1,0,0,1-.36.12,1.21,1.21,0,0,1-.33-.17,1.76,1.76,0,0,0-.79-.31,1.69,1.69,0,0,0-.82.2c-.13.06-.28.14-.36.12a1.2,1.2,0,0,1-.33-.17,1.77,1.77,0,0,0-.79-.32,1.63,1.63,0,0,0-.82.19,1.72,1.72,0,0,1-.36.12,1.22,1.22,0,0,1-.33-.17,1.78,1.78,0,0,0-.79-.33,1.73,1.73,0,0,0-.82.18,1.68,1.68,0,0,1-.36.11,1.23,1.23,0,0,1-.33-.17,1.77,1.77,0,0,0-.78-.33,1.76,1.76,0,0,0-.82.18,1.06,1.06,0,0,1-.36.11,1.2,1.2,0,0,1-.33-.18,1.73,1.73,0,0,0-.78-.34,1.75,1.75,0,0,0-.77.12,1.24,1.24,0,0,1-.37.08,1.45,1.45,0,0,1-.39-.17,2.12,2.12,0,0,0-.76-.28,2.06,2.06,0,0,0-.75.09,1.31,1.31,0,0,1-.42.06,1.46,1.46,0,0,1-.4-.15,2.24,2.24,0,0,0-.73-.25,2.89,2.89,0,0,0-.71,0,1.84,1.84,0,0,1-.46,0C1,31.54,1,28.74,1,26.29c0-.46.21-1.51.69-1.73,5.44,0,8.39.66,17,2.55l4,.88a123.34,123.34,0,0,0,24.15,2.34c9.93,0,19.31-1.29,23.09-4.87C69.72,26.75,68.91,27.83,66,29.23Z"/></svg>