<svg xmlns="http://www.w3.org/2000/svg" viewBox="0 0 160.12 166.81"><defs><style>.cls-1{fill:none;stroke-width:2.17px;}.cls-1,.cls-2{stroke:#000;stroke-miterlimit:10;}.cls-2{stroke-width:1.45px;}</style></defs><title>fleet</title><g id="Layer_2" data-name="Layer 2"><g id="Layer_1-2" data-name="Layer 1"><g id="fleet"><path class="cls-1" d="M157.65,98.1v1.31c-.06.28-.12.56-.17.84a78.47,78.47,0,0,1-24.28,44.64,79.65,79.65,0,0,1-9.07,7.23,78.54,78.54,0,0,1-21.4,10.24,75,75,0,0,1-18.44,3.26,80.32,80.32,0,0,1-19.21-1.24A78.78,78.78,0,0,1,1.2,91.07a77.35,77.35,0,0,1,.87-16.49,79.43,79.43,0,0,1,5.12-18,78.19,78.19,0,0,1,16.5-24.81,85.75,85.75,0,0,1,6.74-6.07A77.78,77.78,0,0,1,73.13,8.57c.86-.07,1.71-.18,2.57-.28h7.56c.21,0,.42.1.63.12,3.57.41,7.18.63,10.71,1.26a74.9,74.9,0,0,1,22.48,7.95,78.89,78.89,0,0,1,19.81,15.13,80.15,80.15,0,0,1,11,14.58c.36.62.63,1.29.94,1.94a5.31,5.31,0,0,1-.44-.56,76.31,76.31,0,0,0-10-13.3,89.05,89.05,0,0,0-20.17-15.91A36.56,36.56,0,0,0,109,15.24l-.5-.11-.08.15L113,18.85l-5.78.5c2.44,4.61,6.45,7.65,10.09,11.21.42-.87,1-1.11,1.76-.74a3.35,3.35,0,0,0,.63.18l3.26.81.09-.23-7.91-7c1.6.15,3,.26,4.43.41a1.75,1.75,0,0,1,.93.33q2.29,2,4.52,4.09a.86.86,0,0,1,.15.78A24.14,24.14,0,0,1,124,31.75a1.22,1.22,0,0,1-.77.5c-.68.12-1.38.14-2.05.2.49,1.57,1,3.08,1.43,4.61a1.67,1.67,0,0,1-.15,1.13c-.57,1.06-1.22,2.08-1.87,3.17.24.16.43.3.63.42,1.16.7,2.28,1.48,3.5,2.07,1,.47.83,1.24.83,2s-.63.65-1,.82c-1.13.48-2.27.9-3.43,1.36.47,1.6.9,3.11,1.38,4.6a1.05,1.05,0,0,0,.6.53c1.29.48,2.6.92,3.9,1.37.53.18,2.62-.4,2.76-.88a10.45,10.45,0,0,0,.66-3.3c-.07-1.68-.51-3.34-.75-5a1.12,1.12,0,0,1,.31-.83c.54-.52,1.17-.94,1.72-1.45a.71.71,0,0,1,1.11,0c.68.56,1.41,1.07,2.11,1.6l.13-.11-1.6-3.84h0a1,1,0,0,1,.34.07c1.68,1.1,3.37,2.18,5,3.31.82.56,1.58,1.22,2.37,1.83l.13-.1-1.05-3.05a1.55,1.55,0,0,1,.27,0c1.17.52,2.36,1,3.51,1.57a1.76,1.76,0,0,1,.76.78,24.9,24.9,0,0,0,1.06,2.54,2.16,2.16,0,0,1-.72,3.29,1.32,1.32,0,0,0-.53,1.26c0,.78,0,1.57,0,2.46-1.64-.53-3.13-1-4.63-1.47a2.09,2.09,0,0,1-1.29-1c-.62-1-1.3-2-1.94-2.93a1.25,1.25,0,0,0-.3.1,12.53,12.53,0,0,1-1.14.89A6.41,6.41,0,0,0,132,55c0,.21-.38.47-.63.54-.89.23-1.8.35-2.69.59a.88.88,0,0,0-.54.58c-.11.81-.14,1.64-.19,2.46a20.94,20.94,0,0,1-1.18,6.16c-.82,2.26-1.29,4.65-2,6.94a5.85,5.85,0,0,0,.52,5,5.65,5.65,0,0,1,.68,2.25c.14,1.78.16,3.58.17,5.37a4.29,4.29,0,0,0,1.4,3.61,23.83,23.83,0,0,1,2.22,2.18q2.62,2.82,5.19,5.68a.7.7,0,0,0,1,.21,58.52,58.52,0,0,0,9.43-5.69c.43-.33.91-.61,1.38-.93a10.19,10.19,0,0,1,.85,1.1c.5.87,1.14,1.25,2.12.75a1.3,1.3,0,0,1,.46,0c.06.68.11,1.33.18,2,.32,3.22.66,6.44,1,9.66a8.76,8.76,0,0,1,.17,3c-1.83,6.59-3.77,13.15-5.68,19.73-.24.84-.48,1.68-.72,2.53a4.82,4.82,0,0,0,1.12-1.18,64.64,64.64,0,0,0,10.4-24.08C157,101.61,157.32,99.85,157.65,98.1ZM76.83,28.53l.09-.19c-.39-.38-.77-.79-1.19-1.15a3.33,3.33,0,0,1-1.28-2.12,3.37,3.37,0,0,0-2.57-2.9c-2.15-.8-2.12-.91-3.88.6a1.69,1.69,0,0,0-.44.85c-.1.42-.09.87-.17,1.29a.61.61,0,0,1-.3.41c-.77.24-1.55.45-2.41.68l.21-3.09c-1.73.44-3.38.88-5,1.28a1.87,1.87,0,0,1-2.35-1.44c-.22-.89-.4-1.8-.66-2.67a1.06,1.06,0,0,0-.59-.58,14.76,14.76,0,0,0-1.67-.41l2.09-3.54c-5.16,1.64-10.21,3.37-14.79,6.25l1.4.06c-1.56,2.61-2.9,5.18-4.54,7.53a86.62,86.62,0,0,1-10.6,12.78,9.77,9.77,0,0,0-1.6,2.37c-.49.89-.79,1.88-1.28,2.77a14.06,14.06,0,0,0-1.78,7.92c.08,1.3.23,2.33,1.41,3.06a1.28,1.28,0,0,1,.55.92c-.06,5.06-.17,10.11-.24,15.17a1.79,1.79,0,0,0,.39,1.08c.8,1,1.66,1.89,2.52,2.81a32.3,32.3,0,0,0,3.37,3.5c2.28,1.8,4.71,3.39,7.07,5.08a3.6,3.6,0,0,1,.78.74c.73,1,1.48,1.93,2.12,2.95a14.18,14.18,0,0,0,4.35,4.26c1.6,1.07,3.16,1.92,5.14,1.58.52-.09.66.17.65.66,0,1.4,0,2.81,0,4.21a2.38,2.38,0,0,1-.38,1.19c-.85,1.26-1.88,2.42-2.62,3.75-.91,1.63-1.89,3.26-1.36,5.36s.75,4,2.13,5.6a20.25,20.25,0,0,1,3.65,7.2,2,2,0,0,0,.78,1q3.67,2.35,7.39,4.62a1.17,1.17,0,0,1,.63,1.17c0,2.13,0,4.26,0,6.39A4.18,4.18,0,0,0,62,139a9.29,9.29,0,0,1,.06,7.1.73.73,0,0,0-.06.21c-.1,1.58-.21,3.16-.31,4.84h2.09c0,1.09,0,2.08,0,3.06a1.17,1.17,0,0,0,.19.74c1.77,1.76,3.23,4,6.15,4a9.1,9.1,0,0,1,1.49.28,3,3,0,0,0,.51,0l.09-.17-2.29-2.2,1.45-2.45c-.37-.32-.71-.62-1.06-.91s-.35-.41-.11-.73c.77-1,1.48-2.1,2.82-2.49a9.39,9.39,0,0,0,1.05-.49,85.68,85.68,0,0,0,13.55-7.41,1.2,1.2,0,0,0,.53-.8,25.14,25.14,0,0,0-.19-3c-.07-.61.15-.84.71-1,2.91-.89,5.81-1.85,8.72-2.74a1.37,1.37,0,0,0,1-.93c.34-.93.69-1.86,1.12-2.76a11.89,11.89,0,0,0,1.37-6.5,1.67,1.67,0,0,1,.41-1c1.26-1.65,2.56-3.28,3.85-4.92l2.82-3.62a3.71,3.71,0,0,0-2.52-1.64,78.72,78.72,0,0,1-15.09-4.63,2.31,2.31,0,0,1-1-.84c-1-1.64-2-3.32-3-5a2.84,2.84,0,0,0-1-.93q-7-4-14-7.88a3.18,3.18,0,0,0-1.5-.38c-1.72,0-3.43.08-5.15.17a2,2,0,0,1-1.46-.48c-.93-.74-1.91-1.41-2.83-2.15a.8.8,0,0,0-1-.1c-1.29.62-2.58,1.22-3.89,1.8a10.79,10.79,0,0,1-2.27.92,33.77,33.77,0,0,1-4,.43,1.3,1.3,0,0,1-.88-.34c-1-.93-2-1.89-2.87-2.88a1.18,1.18,0,0,1-.25-.93c.43-1.76.9-3.51,1.4-5.26.14-.49,0-.7-.48-.8-1-.2-2-.46-3-.69l-2.73-.65,2.44-6.41c-1-.15-1.89-.24-2.77-.41a1.32,1.32,0,0,0-1.25.33c-.7.62-1.44,1.19-2.19,1.79-1.57-1.26-3.09-2.46-4.57-3.69a.77.77,0,0,1-.1-.71c.87-1.91,1.94-3.76,2.64-5.73a5.14,5.14,0,0,1,4.16-3.66,1.54,1.54,0,0,1,1.56.33c.79.73,1.64,1.4,2.51,2.14.36-.71.69-1.33,1-2a.6.6,0,0,1,.81-.38c1.31.34,2.63.65,3.93,1a.8.8,0,0,1,.46.57c.14,1.71.22,3.43.33,5.14,0,.73.12,1.47.19,2.28.93-.39,1.78-.72,2.61-1.11a.8.8,0,0,0,.38-.54c.09-.69.12-1.4.17-2.1.16-2.15.32-4.29.47-6.44a.88.88,0,0,1,.73-.91c1.16-.32,2.31-.72,3.46-1.1.66-.22,1.58-.28,1.9-.74s.17-1.39.15-2.11A1.54,1.54,0,0,1,60,57.22c.83-.78,1.66-1.57,2.41-2.42a4.35,4.35,0,0,1,2.93-1.67,1,1,0,0,0,.74-.54,2,2,0,0,1,1.25-1.29c1.1-.51,2.17-1.07,3.25-1.61.21-.1.43-.18.76-.32v2.17l6.48-2.15v-.15L73.11,48l.7-2.45-2.2-.84,0-.28c1.28,0,2.56,0,3.84,0a4.85,4.85,0,0,0,2.13-.23,28.1,28.1,0,0,0,3.12-2.34c-.43-.47-.77-.91-1.17-1.29a13.38,13.38,0,0,1-4-5.9.36.36,0,0,0-.1-.19c-.16-.11-.34-.29-.51-.29-.63,0-1.26.06-1.88.11-1.18.11-1.18.11-1.36-1,0-.12,0-.27,0-.36s-.28-.51-.49-.58c-.94-.3-1.9-.56-2.87-.77a1.05,1.05,0,0,0-.76.23,5.15,5.15,0,0,0-2.15,3.54,3.57,3.57,0,0,1-.3,1.12,4.47,4.47,0,0,1-.71,1.12c-.74.82-1.54,1.6-2.29,2.41-.36.38-.68.79-1.1,1.28-.09-.56-.13-1-.24-1.4A5.48,5.48,0,0,0,60.09,38c-1.06-1.41-2.25-2.72-3.42-4a.78.78,0,0,1-.15-1c.36-.66.67-1.34,1-2a1,1,0,0,1,.41-.48c1.79-.72,3.59-1.41,5.41-2.12.13.2.25.35.34.52,1,1.67,1,1.65,2.83,1.12.45-.13.67-.28.52-.8a10.41,10.41,0,0,1-.3-1.64c0-.18,0-.5.15-.56.76-.39,1.55-.73,2.42-1.13,0,.9,0,1.65,0,2.39a1.34,1.34,0,0,0,.4.85c.86.74,1.77,1.42,2.68,2.11a1.26,1.26,0,0,0,.63.31c1,0,2.06,0,3.26,0l-2.2-3ZM88.9,34.48c.2-.5.39-.92.53-1.35a10,10,0,0,1,1.92-3.37c1.34-1.62,2.56-3.34,3.85-5a.92.92,0,0,0-.07-1.34,18.07,18.07,0,0,1-1.55-2,15.68,15.68,0,0,0-3.67-3.57,1.4,1.4,0,0,0-.66-.25q-2.44-.37-4.88-.71a4.3,4.3,0,0,0-1.78-.15c-2.1.71-4.16,1.55-6.31,2.37.77.69,1.37,1.42,2.44,1.44a5.36,5.36,0,0,1,1.49.27,1,1,0,0,1,.57.55c.46,2.18.86,4.36,1.32,6.54A2.28,2.28,0,0,0,82.72,29c.81.79,1.69,1.53,2.54,2.28ZM57.75,80.73c-.43-1.2-.55-2.28-1.6-3-1.25-.86-2.38-1.9-3.6-2.82a1.92,1.92,0,0,0-1-.36c-1.62,0-3.24,0-4.87,0H45.31l-.1.21a12.27,12.27,0,0,1,1.41,1.33,2.48,2.48,0,0,0,2.81,1c1.55-.35,1.56-.24,2,1.33a1,1,0,0,0,.49.68C53.77,79.63,55.66,80.15,57.75,80.73ZM58,82.61c1.59,1.19,3.2.65,4.9.3-.39-.71-.74-1.37-1.11-2a.41.41,0,0,0-.28-.2,8.81,8.81,0,0,0-2.72.1c-.41.13-.54,1.1-.79,1.69A.28.28,0,0,0,58,82.61ZM108.19,15l0,0h0Z"/><path class="cls-1" d="M133.39,40.7l1.6,3.84-.13.11c-.71-.53-1.43-1-2.11-1.6a.71.71,0,0,0-1.11,0c-.54.51-1.18.93-1.72,1.45a1.12,1.12,0,0,0-.31.83c.23,1.68.67,3.34.75,5a10.45,10.45,0,0,1-.66,3.3c-.14.49-2.23,1.06-2.76.88-1.3-.45-2.61-.89-3.9-1.37a1.05,1.05,0,0,1-.6-.53c-.48-1.49-.91-3-1.38-4.6,1.16-.46,2.31-.89,3.43-1.36.41-.17,1-.13,1-.82s.14-1.55-.83-2c-1.21-.59-2.34-1.37-3.5-2.07-.2-.12-.39-.26-.63-.42.65-1.09,1.3-2.11,1.87-3.17a1.67,1.67,0,0,0,.15-1.13c-.43-1.53-.93-3-1.43-4.61.67-.06,1.37-.08,2.05-.2a1.22,1.22,0,0,0,.77-.5,24.14,24.14,0,0,0,1.27-2.53.86.86,0,0,0-.15-.78q-2.22-2.08-4.52-4.09a1.75,1.75,0,0,0-.93-.33c-1.42-.15-2.83-.27-4.43-.41l7.91,7-.09.23L119.75,30a3.35,3.35,0,0,1-.63-.18c-.78-.37-1.34-.13-1.76.74-3.64-3.56-7.65-6.6-10.09-11.21l5.78-.5-4.65-3.56.08-.15.5.11a36.56,36.56,0,0,1,9.18,4.26,89.05,89.05,0,0,1,20.17,15.91,76.31,76.31,0,0,1,10,13.3,5.31,5.31,0,0,0,.44.56l.19.4.11.14v0l.26.47,0,.1.1.17h0l.15.29h0l.16.27h0l.15.27v0l.1.19,0,.09.1.2,0,.09.1.19a1.74,1.74,0,0,0,.08.2,65.51,65.51,0,0,1,6,17.45c.44,2.15.83,4.3,1.24,6.45V98.1c-.33,1.75-.63,3.51-1,5.26a64.64,64.64,0,0,1-10.4,24.08,4.82,4.82,0,0,1-1.12,1.18c.24-.84.47-1.69.72-2.53,1.91-6.57,3.86-13.13,5.68-19.73a8.76,8.76,0,0,0-.17-3c-.32-3.22-.65-6.44-1-9.66-.07-.65-.12-1.29-.18-2a1.3,1.3,0,0,0-.46,0c-1,.5-1.62.13-2.12-.75a10.19,10.19,0,0,0-.85-1.1c-.47.32-.94.6-1.38.93A58.52,58.52,0,0,1,136,96.53a.7.7,0,0,1-1-.21q-2.56-2.87-5.19-5.68a23.83,23.83,0,0,0-2.22-2.18,4.29,4.29,0,0,1-1.4-3.61c0-1.79,0-3.58-.17-5.37a5.65,5.65,0,0,0-.68-2.25,5.85,5.85,0,0,1-.52-5c.76-2.29,1.22-4.68,2-6.94A20.94,20.94,0,0,0,128,59.16c0-.82.07-1.65.19-2.46a.88.88,0,0,1,.54-.58c.89-.23,1.8-.36,2.69-.59.25-.06.59-.32.63-.54a6.41,6.41,0,0,1,3.22-4.64,12.53,12.53,0,0,0,1.14-.89,1.25,1.25,0,0,1,.3-.1c.64,1,1.32,1.93,1.94,2.93a2.09,2.09,0,0,0,1.29,1c1.5.44,3,.94,4.63,1.47,0-.9,0-1.68,0-2.46a1.32,1.32,0,0,1,.53-1.26,2.16,2.16,0,0,0,.72-3.29,24.9,24.9,0,0,1-1.06-2.54,1.76,1.76,0,0,0-.76-.78c-1.15-.56-2.34-1.05-3.51-1.57a1.55,1.55,0,0,0-.27,0l1.05,3.05-.13.1c-.79-.61-1.55-1.27-2.37-1.83-1.66-1.13-3.35-2.22-5-3.31a1,1,0,0,0-.34-.07l0,0Z"/><path class="cls-1" d="M76.83,28.53H74.11l2.2,3c-1.2,0-2.23,0-3.26,0a1.26,1.26,0,0,1-.63-.31c-.9-.69-1.81-1.38-2.68-2.11a1.34,1.34,0,0,1-.4-.85c-.06-.74,0-1.49,0-2.39-.88.4-1.66.74-2.42,1.13-.12.06-.18.37-.15.56a10.41,10.41,0,0,0,.3,1.64c.15.52-.06.67-.52.8-1.86.53-1.85.54-2.83-1.12-.1-.16-.21-.32-.34-.52-1.82.71-3.62,1.4-5.41,2.12a1,1,0,0,0-.41.48c-.35.66-.66,1.35-1,2a.78.78,0,0,0,.15,1c1.16,1.33,2.35,2.64,3.42,4a5.48,5.48,0,0,1,.62,1.88c.11.41.15.84.24,1.4.42-.49.74-.9,1.1-1.28.76-.81,1.55-1.59,2.29-2.41a4.47,4.47,0,0,0,.71-1.12,3.57,3.57,0,0,0,.3-1.12,5.15,5.15,0,0,1,2.15-3.54,1.05,1.05,0,0,1,.76-.23c1,.21,1.93.47,2.87.77.21.07.35.37.49.58s0,.24,0,.36c.18,1.16.18,1.15,1.36,1,.63-.06,1.25-.11,1.88-.11.17,0,.34.18.51.29a.36.36,0,0,1,.1.19,13.38,13.38,0,0,0,4,5.9c.4.38.74.81,1.17,1.29a28.1,28.1,0,0,1-3.12,2.34,4.85,4.85,0,0,1-2.13.23c-1.28,0-2.56,0-3.84,0l0,.28,2.2.84L73.11,48l4.69,1.2v.15l-6.48,2.15V49.37c-.33.14-.55.22-.76.32-1.08.54-2.16,1.1-3.25,1.61a2,2,0,0,0-1.25,1.29,1,1,0,0,1-.74.54,4.35,4.35,0,0,0-2.93,1.67c-.76.85-1.58,1.64-2.41,2.42a1.54,1.54,0,0,0-.52,1.28c0,.72.2,1.61-.15,2.11s-1.24.52-1.9.74c-1.15.38-2.29.78-3.46,1.1a.88.88,0,0,0-.73.91c-.15,2.15-.31,4.29-.47,6.44-.05.7-.08,1.4-.17,2.1a.8.8,0,0,1-.38.54c-.83.39-1.68.72-2.61,1.11-.07-.81-.14-1.54-.19-2.28-.11-1.71-.19-3.43-.33-5.14a.8.8,0,0,0-.46-.57c-1.3-.37-2.62-.68-3.93-1a.6.6,0,0,0-.81.38c-.29.64-.62,1.25-1,2-.87-.74-1.72-1.41-2.51-2.14a1.54,1.54,0,0,0-1.56-.33,5.14,5.14,0,0,0-4.16,3.66C34,70,32.89,71.88,32,73.8a.77.77,0,0,0,.1.71c1.49,1.24,3,2.44,4.57,3.69.74-.6,1.48-1.17,2.19-1.79a1.32,1.32,0,0,1,1.25-.33c.87.17,1.76.27,2.77.41l-2.44,6.41,2.73.65c1,.24,2,.49,3,.69.51.1.62.31.48.8-.49,1.75-1,3.5-1.4,5.26a1.18,1.18,0,0,0,.25.93c.92,1,1.89,1.95,2.87,2.88a1.3,1.3,0,0,0,.88.34,33.77,33.77,0,0,0,4-.43,10.79,10.79,0,0,0,2.27-.92c1.3-.59,2.6-1.18,3.89-1.8a.8.8,0,0,1,1,.1c.93.74,1.91,1.41,2.83,2.15a2,2,0,0,0,1.46.48c1.72-.08,3.43-.16,5.15-.17a3.18,3.18,0,0,1,1.5.38q7,3.91,14,7.88a2.84,2.84,0,0,1,1,.93c1,1.64,2,3.33,3,5a2.31,2.31,0,0,0,1,.84,78.72,78.72,0,0,0,15.09,4.63,3.71,3.71,0,0,1,2.52,1.64l-2.82,3.62c-1.28,1.64-2.58,3.26-3.85,4.92a1.67,1.67,0,0,0-.41,1,11.89,11.89,0,0,1-1.37,6.5c-.43.89-.78,1.83-1.12,2.76a1.37,1.37,0,0,1-1,.93c-2.91.89-5.81,1.84-8.72,2.74-.57.17-.79.41-.71,1a25.14,25.14,0,0,1,.19,3,1.2,1.2,0,0,1-.53.8A85.68,85.68,0,0,1,74,149.81a9.39,9.39,0,0,1-1.05.49c-1.34.39-2,1.47-2.82,2.49-.24.31-.16.51.11.73s.69.59,1.06.91l-1.45,2.45,2.29,2.2-.09.17a3,3,0,0,1-.51,0A9.1,9.1,0,0,0,70.1,159c-2.92,0-4.39-2.23-6.15-4a1.17,1.17,0,0,1-.19-.74c0-1,0-2,0-3.06H61.65c.11-1.69.21-3.27.31-4.84a.73.73,0,0,1,.06-.21A9.29,9.29,0,0,0,62,139a4.18,4.18,0,0,1-.2-1.49c0-2.13,0-4.26,0-6.39a1.17,1.17,0,0,0-.63-1.17q-3.72-2.27-7.39-4.62a2,2,0,0,1-.78-1,20.25,20.25,0,0,0-3.65-7.2c-1.38-1.65-1.63-3.64-2.13-5.6s.44-3.73,1.36-5.36c.74-1.32,1.77-2.48,2.62-3.75a2.38,2.38,0,0,0,.38-1.19c0-1.4,0-2.81,0-4.21,0-.49-.12-.75-.65-.66-2,.34-3.54-.52-5.14-1.58a14.18,14.18,0,0,1-4.35-4.26c-.64-1-1.39-2-2.12-2.95a3.6,3.6,0,0,0-.78-.74c-2.36-1.69-4.79-3.29-7.07-5.08a32.3,32.3,0,0,1-3.37-3.5c-.86-.92-1.72-1.84-2.52-2.81a1.79,1.79,0,0,1-.39-1.08c.07-5.06.18-10.11.24-15.17a1.28,1.28,0,0,0-.55-.92c-1.18-.72-1.33-1.76-1.41-3.06a14.06,14.06,0,0,1,1.78-7.92c.49-.89.79-1.88,1.28-2.77a9.77,9.77,0,0,1,1.6-2.37,86.62,86.62,0,0,0,10.6-12.78c1.64-2.35,3-4.91,4.54-7.53l-1.4-.06c4.58-2.88,9.63-4.61,14.79-6.25l-2.09,3.54a14.76,14.76,0,0,1,1.67.41,1.06,1.06,0,0,1,.59.58c.26.88.45,1.78.66,2.67a1.87,1.87,0,0,0,2.35,1.44c1.66-.4,3.32-.84,5-1.28L64.68,26c.86-.24,1.64-.44,2.41-.68a.61.61,0,0,0,.3-.41c.08-.43.07-.87.17-1.29a1.69,1.69,0,0,1,.44-.85c1.76-1.52,1.73-1.4,3.88-.6a3.37,3.37,0,0,1,2.57,2.9,3.33,3.33,0,0,0,1.28,2.12c.42.36.79.76,1.19,1.15Z"/><path class="cls-1" d="M88.9,34.48l-3.64-3.21c-.85-.75-1.72-1.49-2.54-2.28a2.28,2.28,0,0,1-.62-1.08c-.46-2.17-.86-4.36-1.32-6.54a1,1,0,0,0-.57-.55,5.36,5.36,0,0,0-1.49-.27c-1.07,0-1.67-.76-2.44-1.44,2.15-.82,4.21-1.66,6.31-2.37a4.3,4.3,0,0,1,1.78.15q2.44.34,4.88.71a1.4,1.4,0,0,1,.66.25,15.68,15.68,0,0,1,3.67,3.57,18.07,18.07,0,0,0,1.55,2,.92.92,0,0,1,.07,1.34c-1.29,1.66-2.51,3.38-3.85,5a10,10,0,0,0-1.92,3.37C89.29,33.56,89.1,34,88.9,34.48Z"/><path class="cls-1" d="M57.75,80.73c-2.09-.59-4-1.1-5.85-1.67a1,1,0,0,1-.49-.68c-.42-1.58-.43-1.69-2-1.33a2.48,2.48,0,0,1-2.81-1,12.27,12.27,0,0,0-1.41-1.33l.1-.21h1.33c1.62,0,3.25,0,4.87,0a1.92,1.92,0,0,1,1,.36c1.21.92,2.34,2,3.6,2.82C57.2,78.46,57.32,79.54,57.75,80.73Z"/><path class="cls-1" d="M58,82.61a.28.28,0,0,1,0-.12c.25-.59.39-1.56.79-1.69a8.81,8.81,0,0,1,2.72-.1.41.41,0,0,1,.28.2c.37.65.72,1.3,1.11,2C61.23,83.26,59.62,83.8,58,82.61Z"/><polygon class="cls-1" points="108.19 15.03 108.21 15.07 108.16 15.06 108.19 15.03"/><path class="cls-1" d="M149.12,49.83l.26.47Z"/><path class="cls-1" d="M149.53,50.58l.15.29Z"/><path class="cls-1" d="M149.68,50.86l.16.27Z"/><path class="cls-1" d="M149.84,51.15l.15.27Z"/><path class="cls-1" d="M133.39,40.7l-.05,0,0,0Z"/><path class="cls-1" d="M149,49.67l.11.14Z"/><path class="cls-1" d="M149.43,50.4l.1.17Z"/><path class="cls-1" d="M150,51.44l.1.19Z"/><path class="cls-1" d="M150.14,51.72l.1.2Z"/><path class="cls-1" d="M150.28,52l.1.19Z"/><path id="svg_1" data-name="svg 1" class="cls-2" d="M37.11,36.43c0,5.76-10.24,19.51-10.2,19.53S16.75,42.17,16.75,36.41a10.18,10.18,0,1,1,20.36,0ZM26.94,32a4.39,4.39,0,1,0,4.28,4.39A4.34,4.34,0,0,0,26.94,32Z"/><path id="svg_1-2" data-name="svg 1" class="cls-2" d="M55.56,11.22c0,5.76-10.24,19.51-10.2,19.53S35.2,17,35.2,11.19a10.18,10.18,0,1,1,20.36,0ZM45.39,6.81a4.39,4.39,0,1,0,4.28,4.39,4.34,4.34,0,0,0-4.28-4.39Z"/><path id="svg_1-3" data-name="svg 1" class="cls-2" d="M64.84,45.32c0,5.76-10.24,19.51-10.2,19.53S44.47,51.06,44.48,45.3a10.18,10.18,0,1,1,20.36,0ZM54.66,40.91a4.39,4.39,0,1,0,4.28,4.39,4.34,4.34,0,0,0-4.28-4.39Z"/><path id="svg_1-4" data-name="svg 1" class="cls-2" d="M86.05,118.22c0,7.64-13.59,25.88-13.53,25.91S59,125.83,59,118.19a13.51,13.51,0,1,1,27,0Zm-13.5-5.85a5.82,5.82,0,1,0,5.68,5.82,5.75,5.75,0,0,0-5.68-5.82Z"/><path id="svg_1-5" data-name="svg 1" class="cls-2" d="M149.51,73c0,5.76-10.24,19.51-10.2,19.53S129.15,78.73,129.16,73a10.18,10.18,0,1,1,20.36,0Zm-10.17-4.41A4.39,4.39,0,1,0,143.62,73a4.34,4.34,0,0,0-4.28-4.39Z"/><path id="svg_1-6" data-name="svg 1" class="cls-2" d="M139.62,11.16c0,5.76-10.24,19.51-10.2,19.53s-10.16-13.8-10.16-19.55a10.18,10.18,0,1,1,20.36,0ZM129.45,6.75a4.39,4.39,0,1,0,4.28,4.39,4.34,4.34,0,0,0-4.28-4.39Z"/><path id="svg_1-7" data-name="svg 1" class="cls-2" d="M159.4,39.38c0,5.76-10.24,19.51-10.2,19.53S139,45.12,139,39.36a10.18,10.18,0,1,1,20.36,0ZM149.22,35a4.39,4.39,0,1,0,4.28,4.39A4.34,4.34,0,0,0,149.22,35Z"/></g></g></g></svg>