<svg xmlns="http://www.w3.org/2000/svg" viewBox="0 0 653.7 132.75"><title>logo</title><g id="Layer_2" data-name="Layer 2"><g id="Layer_1-2" data-name="Layer 1"><path d="M175.59,21.68,12.94,117.58l35.94-108a1.66,1.66,0,0,1,2.35-.67L98.64,50.75l5.51-3.37L51.44.79A5.21,5.21,0,0,0,44,2.89L.53,126.53c-1.84,3.39,1.41,7.43,4.74,5.88L170,33.58,152.16,88.41c-.36,1.07-.91,1.83-2.35.67L130,71.32,124.8,75l24.58,21.62a5.21,5.21,0,0,0,7.41-2.1l23.54-67C182.17,24.17,178.92,20.13,175.59,21.68Z"/><path d="M271.68,67a14.54,14.54,0,0,0-2.83-2.37,32,32,0,0,0-3.73-2.05l-4.2-2q-1.32-.63-2.44-1.2a8.9,8.9,0,0,1-1.88-1.26,5.62,5.62,0,0,1-1.24-1.57,4.5,4.5,0,0,1-.46-2.13,4.89,4.89,0,0,1,.52-2.3,4.75,4.75,0,0,1,1.42-1.64,6.56,6.56,0,0,1,2.11-1,9.25,9.25,0,0,1,2.49-.34,9.82,9.82,0,0,1,4.74,1.21,10.21,10.21,0,0,1,3.68,3.46L270,54l3.71-2.75-.12-.19a14.31,14.31,0,0,0-5-4.7,14,14,0,0,0-7.13-1.84,14.27,14.27,0,0,0-4.47.7,11.6,11.6,0,0,0-3.75,2,9.75,9.75,0,0,0-2.56,3.21,9.28,9.28,0,0,0-.94,4.19,8.68,8.68,0,0,0,.74,3.66,9.82,9.82,0,0,0,2,2.83,14.19,14.19,0,0,0,2.8,2.16c1,.61,2.12,1.2,3.24,1.73l4.25,2c.9.45,1.75.89,2.52,1.32a11.37,11.37,0,0,1,2,1.35,5.08,5.08,0,0,1,1.26,1.62,5,5,0,0,1,.44,2.17,5.37,5.37,0,0,1-2.06,4.44,8.42,8.42,0,0,1-5.34,1.64,10.75,10.75,0,0,1-3.35-.5,11,11,0,0,1-2.81-1.38,13.26,13.26,0,0,1-2.31-2,19.91,19.91,0,0,1-1.9-2.47l-.14-.21-3.7,2.75.1.18A16.69,16.69,0,0,0,253.34,82a15.78,15.78,0,0,0,8.28,2.22,15.48,15.48,0,0,0,4.9-.76,12,12,0,0,0,4-2.17,10.33,10.33,0,0,0,2.65-3.41,10.15,10.15,0,0,0,1-4.47A9,9,0,0,0,271.68,67ZM290.3,49.63h13.33V83.54h5V49.63h13.33v-4.5H290.3ZM370,50.2a19.8,19.8,0,0,0-14-5.7A20.09,20.09,0,0,0,348.23,46a19.77,19.77,0,0,0-6.34,4.19,19.56,19.56,0,0,0-4.25,6.31,20.61,20.61,0,0,0,0,15.64,19.23,19.23,0,0,0,4.25,6.28,20.44,20.44,0,0,0,6.31,4.18A20,20,0,0,0,370,78.47a19.93,19.93,0,0,0,4.27-6.31,20.26,20.26,0,0,0,0-15.65A19.94,19.94,0,0,0,370,50.2Zm-.39,20.17a14.23,14.23,0,0,1-7.75,8A14.67,14.67,0,0,1,356,79.56a15,15,0,0,1-5.94-1.16,14.33,14.33,0,0,1-4.69-3.2,14.48,14.48,0,0,1-3.08-4.83,16.54,16.54,0,0,1-1.1-6.09,16.15,16.15,0,0,1,1.1-6,14.56,14.56,0,0,1,3.08-4.81,14.37,14.37,0,0,1,4.69-3.19A15.06,15.06,0,0,1,356,49.11a14.7,14.7,0,0,1,5.85,1.16,14.28,14.28,0,0,1,7.75,8,16.15,16.15,0,0,1,1.1,6A16.54,16.54,0,0,1,369.65,70.37Zm49.69-7.18a11,11,0,0,0,2.17-6.84,11.39,11.39,0,0,0-.88-4.52,10.37,10.37,0,0,0-2.5-3.56,11.3,11.3,0,0,0-3.9-2.32,15.2,15.2,0,0,0-5.14-.82H395.53v38.4h5V67.62h7.75L420,83.44l.07.1h5.82L413.62,67A10.91,10.91,0,0,0,419.34,63.19Zm-18.86-.06V49.63h8.44a7.53,7.53,0,0,1,5.58,1.91,6.67,6.67,0,0,1,1.89,4.86,6.55,6.55,0,0,1-1.88,4.86,7.67,7.67,0,0,1-5.58,1.86Zm47.82,2.14h15.17v-4.5H448.3V49.63h19.83v-4.5H443.34v38.4h25.47V79H448.3Zm94.64-14.75a19,19,0,0,0-6.58-4,25.5,25.5,0,0,0-8.76-1.42H516.1v38.4h11.5a25,25,0,0,0,8.76-1.45,18.81,18.81,0,0,0,6.58-4A17.7,17.7,0,0,0,547,71.93a21.38,21.38,0,0,0,0-15.35A17.12,17.12,0,0,0,542.93,50.52Zm-.64,19.63a13.23,13.23,0,0,1-3,4.66,14.26,14.26,0,0,1-4.95,3.11A18.81,18.81,0,0,1,527.54,79h-6.49V49.63h6.49a19.74,19.74,0,0,1,6.76,1.08,13.84,13.84,0,0,1,4.94,3,13,13,0,0,1,3,4.63,17.09,17.09,0,0,1,0,11.78ZM595,73.34,571.23,44.59l-.07-.09h-2v39h5V55.45l23.72,28.63.07.09h2v-39h-5Zm42.06-28.69L637,44.5h-1.92l-16.7,39h5.29l3.22-7.7h18.19l3.28,7.7h5.34Zm-8.31,26.7L636,53.64l7.18,17.7Z"/></g></g></svg>