<svg xmlns="http://www.w3.org/2000/svg" viewBox="0 0 180.86 132.75"><title>Asset 2</title><g id="Layer_2" data-name="Layer 2"><g id="Layer_1-2" data-name="Layer 1"><path d="M175.59,21.68,12.94,117.58l35.94-108a1.66,1.66,0,0,1,2.35-.67L98.64,50.75l5.51-3.37L51.44.79A5.21,5.21,0,0,0,44,2.89L.53,126.53c-1.84,3.39,1.41,7.43,4.74,5.88L170,33.58,152.16,88.41c-.36,1.07-.91,1.83-2.35.67L130,71.32,124.8,75l24.58,21.62a5.21,5.21,0,0,0,7.41-2.1l23.54-67C182.17,24.17,178.92,20.13,175.59,21.68Z" fill="#fff"/></g></g></svg>
