<svg xmlns="http://www.w3.org/2000/svg" viewBox="0 0 22.09 19.37"><defs><style>.cls-1,.cls-2{fill:none;stroke:#fff;stroke-width:0.75px;}.cls-1{stroke-miterlimit:10;}.cls-2{stroke-linejoin:bevel;}</style></defs><title>memberships</title><g id="Layer_2" data-name="Layer 2"><g id="Layer_1-2" data-name="Layer 1"><path class="cls-1" d="M5.51,8.48V1.53A1.15,1.15,0,0,1,6.66.38h13.9a1.15,1.15,0,0,1,1.15,1.15v8.74a1.15,1.15,0,0,1-1.15,1.15h-14"/><path class="cls-1" d="M5.51,3.77,2.67,6.67C1.35,8.05.15,9.6.41,12.18l.79,7.15"/><path class="cls-1" d="M2.47,11.21,7.92,6.32c.51.51,1.92,1.7.29,3.51L5.8,12.23a3.87,3.87,0,0,1,0,4.67"/><path class="cls-1" d="M10.58,11.42v2.66a2.9,2.9,0,0,1-1.93,2.83v2.42"/><polyline class="cls-2" points="12.42 3.63 10.63 8.06 8.84 3.63"/><line class="cls-1" x1="13.71" y1="3.63" x2="13.71" y2="8.16"/><path class="cls-1" d="M15.61,8.16V3.95H17a1.36,1.36,0,0,1,1.54,1.31A1.46,1.46,0,0,1,17,6.71H15.61"/></g></g></svg>