<svg xmlns="http://www.w3.org/2000/svg" viewBox="0 0 16.94 18.03"><defs><style>.cls-1{fill:none;stroke:#fff;stroke-miterlimit:10;stroke-width:0.75px;}</style></defs><title>navigation</title><g id="Layer_2" data-name="Layer 2"><g id="Layer_1-2" data-name="Layer 1"><path class="cls-1" d="M15.89,7.17H3.72A.7.7,0,0,1,3.21,7L.53,4.15a.54.54,0,0,1,0-.76L3.21.59A.7.7,0,0,1,3.72.38H15.89a.64.64,0,0,1,.59,1L14.95,3.77l1.53,2.44A.64.64,0,0,1,15.89,7.17Z"/><path class="cls-1" d="M1.06,10.86H13.23a.71.71,0,0,1,.51.21l2.68,2.8a.54.54,0,0,1,0,.76l-2.68,2.8a.71.71,0,0,1-.51.21H1.06a.64.64,0,0,1-.59-1L2,14.26.47,11.81A.64.64,0,0,1,1.06,10.86Z"/><line class="cls-1" x1="4.82" y1="2.76" x2="12.17" y2="2.76"/><line class="cls-1" x1="4.82" y1="4.79" x2="8.89" y2="4.79"/><line class="cls-1" x1="4.82" y1="13.24" x2="12.17" y2="13.24"/><line class="cls-1" x1="4.82" y1="15.27" x2="11.04" y2="15.27"/></g></g></svg>