<svg xmlns="http://www.w3.org/2000/svg" viewBox="0 0 16.05 19.96"><defs><style>.cls-1{fill:none;stroke:#fff;stroke-miterlimit:10;stroke-width:0.75px;}</style></defs><title>promos</title><g id="Layer_2" data-name="Layer 2"><g id="Layer_1-2" data-name="Layer 1"><path class="cls-1" d="M10.29,19.53,1.23,16.65A1.29,1.29,0,0,1,.44,15L4.15,3.34A1.85,1.85,0,0,1,5.31,2.13l5-1.67A1.63,1.63,0,0,1,12.18,1l3.14,4.27A1.85,1.85,0,0,1,15.58,7L11.88,18.64A1.29,1.29,0,0,1,10.29,19.53Z"/><circle class="cls-1" cx="10.37" cy="3.56" r="0.93" transform="translate(3.84 12.37) rotate(-72.38)"/><line class="cls-1" x1="4.32" y1="15.61" x2="10.79" y2="9.13"/><circle class="cls-1" cx="5.61" cy="10.42" r="1.28"/><circle class="cls-1" cx="9.51" cy="14.32" r="1.29"/></g></g></svg>