<svg xmlns="http://www.w3.org/2000/svg" viewBox="0 0 265.5 200.15"><defs><style>.cls-1{fill:none;stroke:#000;stroke-miterlimit:10;stroke-width:5px;}</style></defs><title>sku</title><g id="Layer_2" data-name="Layer 2"><g id="Layer_1-2" data-name="Layer 1"><g id="product"><path class="cls-1" d="M132.39,116.16c-6.72-4.88-1.11-10.62,5.31-12.8,7.7-2.61,21.45,10.53,21.45,10.53"/><path class="cls-1" d="M162.49,116.41l-3.35-2.52s-6-5.06-16.26-3.24-27.46,23.13-42.73,23.13c-13.67,0-12.63-15.67-21.45-15.67S66.77,140.69,66.77,152s.69,19.55,4.15,27.8A12.9,12.9,0,0,0,68.15,188c0,5.22,1.38,9.61,5.54,9.61H234c12.2,0,28.11-4.21,29-16s-8.48-16.18-15.22-17.36c-4.49-.78-21.37-7-46-21.6"/><path class="cls-1" d="M132.39,116.16l60.66,36.16c9.69,5.39,22.45,11.61,27.66.83"/><path class="cls-1" d="M196.07,154c-2,5.27.1,15.38,12,15.38s39.66,2.2,42.75-4.29"/><line class="cls-1" x1="70.92" y1="179.78" x2="262.99" y2="179.78"/><line class="cls-1" x1="66.77" y1="153.95" x2="92.26" y2="131.31"/><line class="cls-1" x1="97.04" y1="179.78" x2="148.69" y2="125.87"/><line class="cls-1" x1="160.36" y1="179.78" x2="188.75" y2="149.75"/><path class="cls-1" d="M166.94,120.73l-9.5,4.55a3.13,3.13,0,0,1-4.14-1.37l-.08-.16a3,3,0,0,1,1.41-4l9.5-4.55a3.13,3.13,0,0,1,4.14,1.37l.08.16A3,3,0,0,1,166.94,120.73Z"/><path class="cls-1" d="M178.31,128.71l-8.7,4.17a3,3,0,0,1-4-1.33l-.17-.34a2.88,2.88,0,0,1,1.36-3.9l8.7-4.17a3,3,0,0,1,4,1.33l.17.34A2.88,2.88,0,0,1,178.31,128.71Z"/><path class="cls-1" d="M201,143.35l-6.6,4.28a2.83,2.83,0,0,1-3.87-.76l-.43-.63a2.67,2.67,0,0,1,.78-3.77l6.6-4.28a2.83,2.83,0,0,1,3.87.76l.43.63A2.67,2.67,0,0,1,201,143.35Z"/><path class="cls-1" d="M189.37,135.65,182.7,140a2.83,2.83,0,0,1-3.87-.76l-.43-.63a2.67,2.67,0,0,1,.78-3.77l6.67-4.32a2.83,2.83,0,0,1,3.87.76l.43.63A2.67,2.67,0,0,1,189.37,135.65Z"/><path class="cls-1" d="M173.27,124.23q-2.76-1.95-5.6-4"/><path class="cls-1" d="M184.09,131.63q-2.5-1.65-5.06-3.41"/><path class="cls-1" d="M195.93,139.2q-3.08-1.89-6.29-4"/><path d="M140.72,110.5V81a3,3,0,0,1,1.85-2.78,3,3,0,0,1,3.29.62l5.65,5.49c4.31-3.3,15.24-13.77,25.21-23.88-3.85-6.35-16.58-22.2-28.48-36.28C138.78,13,118.7,7.5,113.6,6.26c-5.3,3.22-13.17,5.06-21.88,5.06S75.14,9.48,69.84,6.26C64.74,7.5,44.66,13,35.21,24.17,23.31,38.25,10.59,54.1,6.73,60.45,16.69,70.54,27.6,81,31.94,84.32l5.65-5.49A3,3,0,0,1,42.72,81v72H64.85l-.34,6H39.69a3,3,0,0,1-3-3V88.16l-2.2,2.14A3,3,0,0,1,31.3,91C26.73,89.26,6.84,69.21.86,63.1a3,3,0,0,1-.61-3.31C3.32,52.7,26.06,25.64,30.59,20.28,42.75,5.9,68.69.3,69.79.07a3,3,0,0,1,2.36.49c4.21,3,11.53,4.72,19.57,4.72S107.09,3.52,111.3.56a3.07,3.07,0,0,1,2.36-.49c1.1.23,27,5.83,39.2,20.21,4.53,5.36,27.27,32.42,30.34,39.51a3,3,0,0,1-.61,3.31c-6,6.11-25.87,26.16-30.44,27.87a3,3,0,0,1-3.18-.66l-2.2-2.14v24.66Z"/><path d="M73.34,8a17.39,17.39,0,0,0,3.77,10c3.06,3.54,8,5.33,14.6,5.33s11.55-1.79,14.6-5.33A17.41,17.41,0,0,0,110.1,8a48.27,48.27,0,0,1-18.38,3.28A48.12,48.12,0,0,1,73.34,8ZM91.72,29.36c-8.5,0-15-2.52-19.22-7.47C65.75,14,67.35,3,67.42,2.56a3,3,0,0,1,4.73-2c4.21,3,11.53,4.72,19.57,4.72S107.08,3.51,111.29.55a3,3,0,0,1,4.73,2c.07.46,1.68,11.46-5.08,19.32-4.26,5-10.73,7.47-19.22,7.47Z"/><path d="M146.77,79.72l4.73,4.6c4.34-3.32,15.25-13.78,25.21-23.87C173,54.38,161.24,39.63,149.81,26c-2.9,2.58-3,8.61-3,8.68Zm4.31,11.44A3,3,0,0,1,149,90.3l-7.33-7.14a3,3,0,0,1-.92-2.17V34.73c0-.51.1-12.6,8.91-15.38a3,3,0,0,1,3.22.93c4.53,5.36,27.27,32.42,30.34,39.51a3,3,0,0,1-.61,3.31c-6,6.11-25.87,26.16-30.44,27.87a3,3,0,0,1-1.06.19Z"/><path d="M6.73,60.46C16.69,70.55,27.6,81,31.94,84.33l4.73-4.6v-45c0-.06-.13-6.1-3-8.68C22.2,39.64,10.42,54.39,6.73,60.46Zm25.63,30.7A3,3,0,0,1,31.3,91C26.73,89.26,6.84,69.21.86,63.1a3,3,0,0,1-.61-3.31C3.32,52.7,26.06,25.64,30.59,20.28a3,3,0,0,1,3.22-.93c8.81,2.78,8.91,14.87,8.91,15.38V81a3,3,0,0,1-.92,2.17L34.48,90.3a3.07,3.07,0,0,1-2.12.86Z"/></g></g></g></svg>