<svg xmlns="http://www.w3.org/2000/svg" viewBox="0 0 759.49 343.05"><defs><style>.cls-1{fill:#b0bec5;}.cls-10,.cls-11,.cls-2,.cls-3{fill:none;stroke:#575a67;}.cls-10,.cls-2{stroke-linecap:round;}.cls-11,.cls-2,.cls-3,.cls-7{stroke-miterlimit:10;}.cls-4{fill:#dde3e6;}.cls-5{fill:#eceff1;}.cls-6{fill:#cfd8dc;}.cls-7{fill:#ddf3f1;stroke:#c4e3e6;}.cls-8,.cls-9{font-size:12px;font-family:ProximaNova-Regular, Proxima Nova;}.cls-8{fill:#1d1d1b;}.cls-10{stroke-linejoin:round;}.cls-11{stroke-width:0.93px;}.cls-12{fill:#fff;}</style></defs><title>skus</title><g id="Layer_2" data-name="Layer 2"><g id="Design"><path class="cls-1" d="M465.67,106a20,20,0,0,1,0,2.25c0,2.81-2.09,4-3,4.61-2.09,1.39-5.95,3.57-12.87,3.57H403.32c-2.07-1-.68-4.87-.68-4.87h44.83c5.72,0,13-.43,18.19-5.56Z"/><path class="cls-1" d="M445,97.63a.66.66,0,0,1,.28.8,2,2,0,0,1-.12.28,7.11,7.11,0,0,1-1.71,2.21.83.83,0,0,1-1,0,.69.69,0,0,1-.22-.94c.53-.75.88-1.15,1.35-1.8l.2-.3A.83.83,0,0,1,445,97.63Z"/><path class="cls-1" d="M441,96.08a.82.82,0,0,1,.36.93c-.06.13-.11.26-.17.38h0a7.48,7.48,0,0,1-1.79,2.31.92.92,0,0,1-1.08,0c-.06-.05-.65-.59-.21-1a8.17,8.17,0,0,0,1.5-1.84,4.77,4.77,0,0,0,.24-.47A.81.81,0,0,1,441,96.08Z"/><path class="cls-1" d="M437.11,94.45a.8.8,0,0,1,.43,1l-.24.48a9.4,9.4,0,0,1-2.11,2.6,1,1,0,0,1-1.15,0,.77.77,0,0,1-.1-1.19,14.82,14.82,0,0,0,1.72-2.11,5.71,5.71,0,0,0,.31-.56A.8.8,0,0,1,437.11,94.45Z"/><path class="cls-1" d="M433.41,92.8A1,1,0,0,1,433.6,94l-.12.23A9,9,0,0,1,431.08,97a1,1,0,0,1-1.25-.14.79.79,0,0,1,0-1.13,13.34,13.34,0,0,0,2-2.37c.07-.12.14-.24.2-.37A.88.88,0,0,1,433.41,92.8Z"/><path class="cls-2" d="M431.85,93.37l-1.21-.66c-1.48-.79-2.79-.69-3.45.3a11.27,11.27,0,0,1-3.67,3.92,11.68,11.68,0,0,1-6.4,1.7,29.56,29.56,0,0,1-12.91-3.29A11,11,0,0,0,403,99.17a63.38,63.38,0,0,0-.39,12.36s-1.39,3.86.68,4.87h46.42c6.92,0,10.77-2.19,12.87-3.57,1-.62,3-1.8,3-4.61a20,20,0,0,0,0-2.25c-.18-1.36-1-2.58-4.36-3.18-.66-.12-1.5-.27-2.47-.47-3.36-.7-8.38-1.91-13.69-3.59"/><path class="cls-2" d="M402.64,111.52h44.83c5.72,0,13-.43,18.19-5.56"/><path class="cls-2" d="M423.53,96.94a27.92,27.92,0,0,0,5,2.22,58.9,58.9,0,0,0,10.15,2.53,78.52,78.52,0,0,0,20.2.62"/><path class="cls-2" d="M403,99.17a25.23,25.23,0,0,0,6,2.44,28.55,28.55,0,0,0,7.76,1.08c8.07,0,11.72-3.52,11.72-3.52"/><line class="cls-2" x1="409.01" y1="101.61" x2="409.01" y2="111.52"/><path class="cls-3" d="M433.48,94.19A9,9,0,0,1,431.08,97a1,1,0,0,1-1.25-.14.79.79,0,0,1,0-1.13,13.34,13.34,0,0,0,2-2.37c.07-.12.14-.24.2-.37a.88.88,0,0,1,1.36-.2A1,1,0,0,1,433.6,94Z"/><path class="cls-3" d="M437.31,95.89a9.4,9.4,0,0,1-2.11,2.6,1,1,0,0,1-1.15,0,.77.77,0,0,1-.1-1.19,14.82,14.82,0,0,0,1.72-2.11,5.71,5.71,0,0,0,.31-.56.9.9,0,0,1,1.57.77Z"/><path class="cls-3" d="M441.22,97.4a7.48,7.48,0,0,1-1.79,2.31.92.92,0,0,1-1.08,0c-.06-.05-.65-.59-.21-1a8.17,8.17,0,0,0,1.5-1.84,4.77,4.77,0,0,0,.24-.47.81.81,0,0,1,1.15-.26.82.82,0,0,1,.36.93c-.06.13-.11.26-.17.38"/><path class="cls-3" d="M445.14,98.72a7.11,7.11,0,0,1-1.71,2.21.83.83,0,0,1-1,0,.69.69,0,0,1-.22-.94c.53-.75.88-1.15,1.35-1.8l.2-.3a.83.83,0,0,1,1.22-.28.66.66,0,0,1,.28.8A2,2,0,0,1,445.14,98.72Z"/><line class="cls-3" x1="438.64" y1="101.69" x2="431.58" y2="111.52"/><path class="cls-2" d="M435.67,95.19c-.75-.32-1.47-.66-2.19-1"/><path class="cls-2" d="M439.65,96.81c-.79-.3-1.57-.6-2.34-.92"/><path class="cls-2" d="M443.54,98.19c-.77-.25-1.54-.53-2.31-.8h0"/><path class="cls-4" d="M72.54,81.16h0C67.29,86.3,60,86.73,54.34,86.73H38.43l7.07-9.83a78.52,78.52,0,0,0,20.2.62c1,.2,1.81.36,2.47.47C71.53,78.59,72.36,79.81,72.54,81.16Z"/><path class="cls-4" d="M52,73.92c5.3,1.69,10.33,2.89,13.7,3.59a78.52,78.52,0,0,1-20.2-.62,60,60,0,0,1-10.15-2.52,28.54,28.54,0,0,1-5-2.22,11.53,11.53,0,0,0,3.67-3.93c.65-1,2-1.09,3.44-.3l1.22.66a13.68,13.68,0,0,1-2,2.38.79.79,0,0,0,0,1.13,1,1,0,0,0,1.25.14,8.72,8.72,0,0,0,2.41-2.83c.72.35,1.44.69,2.19,1a14.91,14.91,0,0,1-1.73,2.11.77.77,0,0,0,.1,1.19,1,1,0,0,0,1.15,0,9.4,9.4,0,0,0,2.11-2.6c.77.32,1.55.63,2.34.93A8.53,8.53,0,0,1,45,73.85c-.44.45.14,1,.2,1a.92.92,0,0,0,1.08,0,7.64,7.64,0,0,0,1.8-2.31c.77.28,1.54.54,2.31.8l0,0c-.47.64-.81,1.05-1.35,1.8a.71.71,0,0,0,.23.95.85.85,0,0,0,1,0A7.11,7.11,0,0,0,52,73.92Z"/><path class="cls-4" d="M45.5,76.89l-7.07,9.83H15.87V76.81a28.57,28.57,0,0,0,7.77,1.08c8.07,0,11.72-3.52,11.72-3.52A60,60,0,0,0,45.5,76.89Z"/><path class="cls-4" d="M35.35,74.37s-3.65,3.52-11.72,3.52a28.57,28.57,0,0,1-7.77-1.08,25.23,25.23,0,0,1-6-2.44,10.82,10.82,0,0,1,1.19-3.81A29.56,29.56,0,0,0,24,73.85a11.81,11.81,0,0,0,6.41-1.69A28.54,28.54,0,0,0,35.35,74.37Z"/><path class="cls-4" d="M15.87,76.81v9.92H9.51a63.22,63.22,0,0,1,.38-12.36A25.23,25.23,0,0,0,15.87,76.81Z"/><path class="cls-2" d="M38.72,68.58l-1.22-.66c-1.48-.79-2.79-.69-3.44.3a11.53,11.53,0,0,1-3.67,3.93A11.81,11.81,0,0,1,24,73.85a29.56,29.56,0,0,1-12.91-3.29,10.82,10.82,0,0,0-1.19,3.81,63.22,63.22,0,0,0-.38,12.36s-1.4,3.86.67,4.87H56.6c6.92,0,10.77-2.19,12.87-3.57a5.27,5.27,0,0,0,3.06-4.61,20,20,0,0,0,0-2.25c-.18-1.36-1-2.57-4.36-3.18-.66-.12-1.49-.27-2.47-.47-3.36-.7-8.39-1.91-13.7-3.59"/><path class="cls-2" d="M9.51,86.73H54.34c5.71,0,13-.43,18.18-5.56"/><path class="cls-2" d="M30.38,72.14h0a28.54,28.54,0,0,0,5,2.22A60,60,0,0,0,45.5,76.89a78.52,78.52,0,0,0,20.2.62"/><path class="cls-2" d="M9.89,74.37a25.23,25.23,0,0,0,6,2.44,28.57,28.57,0,0,0,7.77,1.08c8.07,0,11.72-3.52,11.72-3.52"/><line class="cls-2" x1="15.87" y1="76.81" x2="15.87" y2="86.73"/><path class="cls-3" d="M40.34,69.39a8.72,8.72,0,0,1-2.41,2.83,1,1,0,0,1-1.25-.14.79.79,0,0,1,0-1.13,13.68,13.68,0,0,0,2-2.38c.07-.12.14-.24.2-.37a.87.87,0,0,1,1.35-.2,1,1,0,0,1,.19,1.17A1.82,1.82,0,0,1,40.34,69.39Z"/><path class="cls-3" d="M44.16,71.09a9.4,9.4,0,0,1-2.11,2.6,1,1,0,0,1-1.15,0,.77.77,0,0,1-.1-1.19,14.91,14.91,0,0,0,1.73-2.11,5.71,5.71,0,0,0,.31-.56A.8.8,0,0,1,44,69.65a.81.81,0,0,1,.43,1C44.33,70.77,44.25,70.93,44.16,71.09Z"/><path class="cls-3" d="M48.08,72.6a7.64,7.64,0,0,1-1.8,2.31.92.92,0,0,1-1.08,0c-.06-.05-.64-.59-.2-1A8.53,8.53,0,0,0,46.5,72a5,5,0,0,0,.24-.47.83.83,0,0,1,1.16-.26.84.84,0,0,1,.36.93Z"/><path class="cls-3" d="M52,73.92a7.11,7.11,0,0,1-1.71,2.21.85.85,0,0,1-1,0,.71.71,0,0,1-.23-.95c.53-.75.88-1.15,1.35-1.8l.21-.3a.82.82,0,0,1,1.21-.28.65.65,0,0,1,.29.8A2,2,0,0,1,52,73.92Z"/><line class="cls-3" x1="45.5" y1="76.89" x2="38.43" y2="86.73"/><path class="cls-2" d="M42.53,70.4c-.75-.32-1.47-.66-2.19-1h0"/><path class="cls-2" d="M46.51,72h0c-.79-.3-1.57-.61-2.34-.93"/><path class="cls-2" d="M50.4,73.41c-.77-.26-1.54-.53-2.31-.8"/><path class="cls-1" d="M756,208.6a4.66,4.66,0,0,1,0,.59c-.28,3.82-5.43,5.18-9.38,5.18H694.72c-1.35,0-1.8-1.41-1.8-3.11a4.14,4.14,0,0,1,.9-2.67H756Z"/><path class="cls-5" d="M756,208.6H722.77l9.2-9.72,1.39.83,1,.53c-.64,1.71,0,5,3.9,5s12.84.71,13.84-1.39A5,5,0,0,1,756,208.6Z"/><path class="cls-1" d="M751.05,203.57a8.39,8.39,0,0,1,1,.25c-1,2.1-10,1.39-13.84,1.39s-4.53-3.27-3.9-5c3,1.57,6.46,2.88,8-.25h0A42.21,42.21,0,0,0,751.05,203.57Z"/><path class="cls-5" d="M742.31,200h0c-1.52,3.13-5,1.82-8,.25l-1-.53-1.39-.83-13-7.73L713.72,188a9.41,9.41,0,0,1,3.4-1.79,6.73,6.73,0,0,1,5.24,1l0,0,1,.73-2.42,1.16a1,1,0,0,0-.46,1.3l0,.05a1,1,0,0,0,1.34.45l3.07-1.47a.71.71,0,0,0,.24-.17h0c.61.45,1.2.88,1.8,1.3l-2.09,1a.92.92,0,0,0-.44,1.25l.05.11a1,1,0,0,0,1.3.43l2.81-1.35a.78.78,0,0,0,.24-.16c.55.38,1.1.75,1.63,1.1l-1.58,1a.86.86,0,0,0-.25,1.22l.14.2a.92.92,0,0,0,1.25.25l2.16-1.4a.74.74,0,0,0,.13-.11c.68.44,1.35.86,2,1.25l-1.63,1.07a.85.85,0,0,0-.25,1.21l.14.21a.93.93,0,0,0,1.25.25l2.14-1.39a.81.81,0,0,0,.23-.22C738.43,197.92,740.49,199,742.31,200Z"/><path class="cls-1" d="M736.18,195.58a.84.84,0,0,1,0,1,.81.81,0,0,1-.23.22l-2.14,1.39a.93.93,0,0,1-1.25-.25l-.14-.21a.85.85,0,0,1,.25-1.21l1.63-1.07.5-.32a.92.92,0,0,1,1.25.25Z"/><path class="cls-1" d="M732.29,194.2a.74.74,0,0,1-.13.11L730,195.7a.92.92,0,0,1-1.25-.25l-.14-.2a.86.86,0,0,1,.25-1.22l1.58-1,.57-.36a.92.92,0,0,1,1.25.25l.14.2A.86.86,0,0,1,732.29,194.2Z"/><polygon class="cls-1" points="731.97 198.87 722.77 208.6 702.28 208.6 719 191.14 731.97 198.87"/><path class="cls-1" d="M729,190.8a.93.93,0,0,1-.21,1.1.78.78,0,0,1-.24.16l-2.81,1.35a1,1,0,0,1-1.3-.43l-.05-.11a.92.92,0,0,1,.44-1.25l2.09-1,.72-.35a1,1,0,0,1,1.3.43Z"/><path class="cls-1" d="M723.35,188l.65-.31a1,1,0,0,1,1.34.45l0,.05a.94.94,0,0,1-.21,1.13h0a.71.71,0,0,1-.24.17L721.83,191a1,1,0,0,1-1.34-.45l0-.05a1,1,0,0,1,.46-1.3Z"/><path class="cls-5" d="M719,191.14,702.28,208.6h-8.45a21.29,21.29,0,0,1-1.35-8.37l8.26-7.33a4,4,0,0,0,2.55.8c3.51,0,7.32-3.47,10.43-5.7Z"/><path class="cls-1" d="M722.37,187.24a6.73,6.73,0,0,0-5.24-1,9.41,9.41,0,0,0-3.4,1.79c-2.17-1.58-.36-3.44,1.72-4.14C717.84,183,722.07,187,722.37,187.24Z"/><path class="cls-1" d="M700.74,192.9l-8.26,7.33v-.64c0-3.66,1-11,3.87-11C698.49,188.62,698.83,191.48,700.74,192.9Z"/><path class="cls-3" d="M713.72,188c-2.17-1.58-.36-3.44,1.72-4.14,2.41-.81,6.63,3.11,6.93,3.39"/><path class="cls-3" d="M723.47,188.08l-.12-.09-1-.73,0,0a6.73,6.73,0,0,0-5.24-1,9.41,9.41,0,0,0-3.4,1.79c-3.12,2.23-6.92,5.7-10.43,5.7a4,4,0,0,1-2.55-.8c-1.91-1.42-2.24-4.28-4.39-4.28-2.86,0-3.87,7.31-3.87,11v.64a21.29,21.29,0,0,0,1.35,8.37,4.14,4.14,0,0,0-.9,2.67c0,1.69.45,3.11,1.8,3.11h51.89c3.95,0,9.1-1.36,9.38-5.18a4.66,4.66,0,0,0,0-.59,5,5,0,0,0-3.92-4.78,8.39,8.39,0,0,0-1-.25,42.21,42.21,0,0,1-8.74-3.61c-1.82-.92-3.89-2-6.15-3.39"/><path class="cls-3" d="M713.72,188l5.28,3.14,13,7.73,1.39.83,1,.53c3,1.57,6.46,2.88,8-.25"/><path class="cls-3" d="M734.33,200.23c-.64,1.71,0,5,3.9,5s12.84.71,13.84-1.39"/><polyline class="cls-3" points="693.83 208.6 702.28 208.6 722.77 208.6 755.99 208.6 756 208.6"/><line class="cls-3" x1="692.48" y1="200.23" x2="700.74" y2="192.9"/><line class="cls-3" x1="702.28" y1="208.6" x2="719" y2="191.14"/><line class="cls-3" x1="722.77" y1="208.6" x2="731.97" y2="198.87"/><path class="cls-3" d="M725.15,189.31a.71.71,0,0,1-.24.17L721.83,191a1,1,0,0,1-1.34-.45l0-.05a1,1,0,0,1,.46-1.3l2.42-1.16.65-.31a1,1,0,0,1,1.34.45l0,.05a.94.94,0,0,1-.21,1.13"/><path class="cls-3" d="M728.82,191.9a.78.78,0,0,1-.24.16l-2.81,1.35a1,1,0,0,1-1.3-.43l-.05-.11a.92.92,0,0,1,.44-1.25l2.09-1,.72-.35a1,1,0,0,1,1.3.43l.06.11A.93.93,0,0,1,728.82,191.9Z"/><path class="cls-3" d="M736.16,196.58a.81.81,0,0,1-.23.22l-2.14,1.39a.93.93,0,0,1-1.25-.25l-.14-.21a.85.85,0,0,1,.25-1.21l1.63-1.07.5-.32a.92.92,0,0,1,1.25.25l.14.2A.84.84,0,0,1,736.16,196.58Z"/><path class="cls-3" d="M732.29,194.2a.74.74,0,0,1-.13.11L730,195.7a.92.92,0,0,1-1.25-.25l-.14-.2a.86.86,0,0,1,.25-1.22l1.58-1,.57-.36a.92.92,0,0,1,1.25.25l.14.2A.86.86,0,0,1,732.29,194.2Z"/><path class="cls-3" d="M727,190.61c-.6-.42-1.19-.85-1.8-1.3h0"/><path class="cls-3" d="M730.46,193c-.53-.36-1.08-.72-1.63-1.1"/><path class="cls-3" d="M734.29,195.45c-.65-.4-1.32-.81-2-1.25l0,0"/><path class="cls-5" d="M153.91,252.66H120.69l9.19-9.71,1.4.83,1,.53c-.64,1.71,0,5,3.9,5S149,250,150,247.89A5,5,0,0,1,153.91,252.66Z"/><path class="cls-5" d="M149,247.65a8.39,8.39,0,0,1,1,.25c-1,2.1-10,1.39-13.84,1.39s-4.53-3.27-3.9-5c3,1.57,6.46,2.87,8-.26A42.21,42.21,0,0,0,149,247.65Z"/><path class="cls-5" d="M140.23,244c-1.52,3.13-5,1.83-8,.26l-1-.53-1.4-.83-13-7.73-5.28-3.14a9.45,9.45,0,0,1,3.4-1.79,6.74,6.74,0,0,1,5.25,1l0,0,1,.73-2.42,1.16a1,1,0,0,0-.46,1.3l0,.05a1,1,0,0,0,1.34.44l3.07-1.47a.78.78,0,0,0,.24-.16c.61.45,1.21.88,1.81,1.3l-2.09,1a.93.93,0,0,0-.44,1.26l.05.11a1,1,0,0,0,1.3.43l2.81-1.36a1,1,0,0,0,.24-.15l1.63,1.1-1.59,1a.86.86,0,0,0-.25,1.22l.14.2a.92.92,0,0,0,1.25.25l2.16-1.4a.74.74,0,0,0,.13-.11l2,1.25-1.63,1.06a.87.87,0,0,0-.25,1.22l.14.2a.92.92,0,0,0,1.25.25l2.13-1.38a1,1,0,0,0,.24-.22C136.35,242,138.41,243.12,140.23,244Z"/><path class="cls-5" d="M134.1,239.65a.85.85,0,0,1,0,1,1,1,0,0,1-.24.22l-2.13,1.38a.92.92,0,0,1-1.25-.25l-.14-.2a.87.87,0,0,1,.25-1.22l1.63-1.06.5-.32a.92.92,0,0,1,1.25.25Z"/><path class="cls-5" d="M130.21,238.27a.74.74,0,0,1-.13.11l-2.16,1.4a.92.92,0,0,1-1.25-.25l-.14-.2a.86.86,0,0,1,.25-1.22l1.59-1,.57-.36a.92.92,0,0,1,1.25.25l.14.2A.86.86,0,0,1,130.21,238.27Z"/><polygon class="cls-5" points="116.92 235.21 129.88 242.95 120.69 252.66 100.2 252.66 116.92 235.21"/><path class="cls-5" d="M126.94,234.88a.92.92,0,0,1-.2,1.1,1,1,0,0,1-.24.15l-2.81,1.36a1,1,0,0,1-1.3-.43l-.05-.11a.93.93,0,0,1,.44-1.26l2.09-1,.72-.35a1,1,0,0,1,1.3.43Z"/><path class="cls-5" d="M121.27,232.06l.65-.31a1,1,0,0,1,1.34.44l0,.05a1,1,0,0,1-.22,1.14.78.78,0,0,1-.24.16L119.75,235a1,1,0,0,1-1.34-.44l0-.05a1,1,0,0,1,.46-1.3Z"/><path class="cls-5" d="M116.92,235.21,100.2,252.66H91.74a21.22,21.22,0,0,1-1.35-8.36L98.65,237a4.11,4.11,0,0,0,2.56.8c3.51,0,7.32-3.47,10.43-5.7Z"/><path class="cls-5" d="M120.29,231.32a6.74,6.74,0,0,0-5.25-1,9.45,9.45,0,0,0-3.4,1.79c-2.17-1.58-.36-3.44,1.72-4.14C115.76,227.12,120,231,120.29,231.32Z"/><path class="cls-5" d="M98.65,237,90.4,244.3v-.64c0-3.66,1-11,3.86-11C96.4,232.7,96.75,235.54,98.65,237Z"/><path class="cls-3" d="M111.64,232.07c-2.17-1.58-.36-3.44,1.72-4.14,2.41-.81,6.63,3.11,6.93,3.39"/><path class="cls-3" d="M121.39,232.15l-.12-.08-1-.73,0,0a6.74,6.74,0,0,0-5.25-1,9.45,9.45,0,0,0-3.4,1.79c-3.12,2.23-6.92,5.7-10.43,5.7a4.11,4.11,0,0,1-2.56-.8c-1.9-1.43-2.24-4.28-4.39-4.28-2.85,0-3.86,7.31-3.86,11v.64a21.22,21.22,0,0,0,1.35,8.36,4.18,4.18,0,0,0-.9,2.68c0,1.69.45,3.11,1.8,3.11h51.89c3.95,0,9.1-1.36,9.38-5.18a4.81,4.81,0,0,0,0-.6,5,5,0,0,0-3.92-4.77,8.39,8.39,0,0,0-1-.25,42.21,42.21,0,0,1-8.74-3.61c-1.82-.92-3.89-2-6.15-3.39"/><path class="cls-3" d="M111.64,232.07l5.28,3.14,13,7.73,1.4.83,1,.53c3,1.57,6.46,2.87,8-.26"/><path class="cls-3" d="M132.26,244.3c-.64,1.71,0,5,3.9,5S149,250,150,247.89"/><polyline class="cls-3" points="91.75 252.66 100.2 252.66 120.69 252.66 153.91 252.66 153.92 252.66"/><line class="cls-3" x1="90.4" y1="244.3" x2="98.65" y2="236.98"/><line class="cls-3" x1="100.2" y1="252.66" x2="116.92" y2="235.21"/><line class="cls-3" x1="120.69" y1="252.66" x2="129.88" y2="242.95"/><path class="cls-3" d="M123.07,233.38a.78.78,0,0,1-.24.16L119.75,235a1,1,0,0,1-1.34-.44l0-.05a1,1,0,0,1,.46-1.3l2.42-1.16.65-.31a1,1,0,0,1,1.34.44l0,.05A1,1,0,0,1,123.07,233.38Z"/><path class="cls-3" d="M126.74,236a1,1,0,0,1-.24.15l-2.81,1.36a1,1,0,0,1-1.3-.43l-.05-.11a.93.93,0,0,1,.44-1.26l2.09-1,.72-.35a1,1,0,0,1,1.3.43l.05.11A.92.92,0,0,1,126.74,236Z"/><path class="cls-3" d="M134.08,240.65a1,1,0,0,1-.24.22l-2.13,1.38a.92.92,0,0,1-1.25-.25l-.14-.2a.87.87,0,0,1,.25-1.22l1.63-1.06.5-.32a.92.92,0,0,1,1.25.25l.14.2A.85.85,0,0,1,134.08,240.65Z"/><path class="cls-3" d="M130.21,238.27a.74.74,0,0,1-.13.11l-2.16,1.4a.92.92,0,0,1-1.25-.25l-.14-.2a.86.86,0,0,1,.25-1.22l1.59-1,.57-.36a.92.92,0,0,1,1.25.25l.14.2A.86.86,0,0,1,130.21,238.27Z"/><path class="cls-3" d="M124.88,234.68c-.6-.42-1.2-.85-1.81-1.3"/><path class="cls-3" d="M128.38,237.08l-1.63-1.1"/><path class="cls-3" d="M132.21,239.52l-2-1.25,0,0"/><path class="cls-5" d="M695.22,21c1.39,3.6-8.49,8.53-17.71,8.53-6.88,0-11.65-2.74-17-2.74l-1.19,0c-.95-7.89-9.39-11.65-9.39-11.65,6,.36,12.24-2.09,12.24-8.85a19.84,19.84,0,0,1,3.18,1.35h0L663.5,11.3a1.16,1.16,0,0,0,.52,1.59l.06,0a1.22,1.22,0,0,0,1.61-.54l1.85-3.6,1.78,1,0,0-1.88,3.64A1.16,1.16,0,0,0,668,15l.07,0a1.22,1.22,0,0,0,1.61-.55L671.47,11l1.89,1-1.83,3.55a1.16,1.16,0,0,0,.52,1.59l.06,0a1.22,1.22,0,0,0,1.61-.54l1.82-3.54h0c.57.27,1.15.53,1.73.77l-1.82,3.53A1.17,1.17,0,0,0,676,19l.06,0a1.23,1.23,0,0,0,1.62-.55l1.88-3.66a.3.3,0,0,0,0-.08h0c1.16.38,3.9,2.47,8.17,3C692.43,18.38,694.68,19.58,695.22,21Z"/><path class="cls-1" d="M677.28,13.84l.07-.14a1.23,1.23,0,0,1,1.62-.54l.06,0a1.16,1.16,0,0,1,.54,1.52.3.3,0,0,1,0,.08l-1.88,3.66A1.23,1.23,0,0,1,676,19L676,19a1.17,1.17,0,0,1-.52-1.58Z"/><path class="cls-1" d="M675.1,11.36a1.16,1.16,0,0,1,.51,1.58l-.06.13h0l-1.82,3.54a1.22,1.22,0,0,1-1.61.54l-.06,0a1.16,1.16,0,0,1-.52-1.59L673.36,12l.06-.11a1.22,1.22,0,0,1,1.61-.55Z"/><path class="cls-1" d="M671.47,11h0l-1.82,3.52a1.22,1.22,0,0,1-1.61.55L668,15a1.16,1.16,0,0,1-.51-1.58l1.88-3.64v0A1.21,1.21,0,0,1,671,9.22l.06,0a1.16,1.16,0,0,1,.52,1.59Z"/><path class="cls-1" d="M667.06,7.12a1.16,1.16,0,0,1,.51,1.58l0,.07-1.85,3.6a1.22,1.22,0,0,1-1.61.54l-.06,0a1.16,1.16,0,0,1-.52-1.59l1.89-3.66h0A1.22,1.22,0,0,1,667,7.09Z"/><path class="cls-1" d="M660.56,6a5.75,5.75,0,0,1,1.65.29c0,6.76-6.24,9.21-12.24,8.85a18.33,18.33,0,0,1-4.88-1c-3.4-1.18-5.95-3.33-5.95-6.07.39-1.74,1.5-2.11,2.25-2.11,3.28,0,2.9,5.88,11.57,5.88C659.52,11.88,657.31,6,660.56,6Z"/><path class="cls-5" d="M650,15.14s8.44,3.77,9.39,11.65c-2.48.08-5.55.41-8.68.59,1.4-5.45-3.06-10.12-5.59-13.2A18.33,18.33,0,0,0,650,15.14Z"/><path class="cls-5" d="M645.09,14.18c2.53,3.08,7,7.76,5.59,13.2-6.37.4-13,.26-15.3-3.43a7.53,7.53,0,0,1-1.11-3.56c0-.19,0-.39,0-.58,0-4.62,3.83-7,4.89-11.71C639.15,10.85,641.7,13,645.09,14.18Z"/><path class="cls-3" d="M634.28,20.4c-2.07,1.13-3.74,12.28,8.67,12.28h31.82c15.09,0,25.05-6.13,20.45-11.7v0"/><path class="cls-3" d="M639.15,8.11c0,2.74,2.55,4.9,5.95,6.07a18.33,18.33,0,0,0,4.88,1c6,.36,12.24-2.09,12.24-8.85"/><path class="cls-3" d="M665.38,7.63A1.22,1.22,0,0,1,667,7.09l.07,0a1.16,1.16,0,0,1,.51,1.58l0,.07-1.85,3.6a1.22,1.22,0,0,1-1.61.54l-.06,0a1.16,1.16,0,0,1-.52-1.59l1.89-3.66Z"/><path class="cls-3" d="M671.47,11l-1.82,3.52a1.22,1.22,0,0,1-1.61.55L668,15a1.16,1.16,0,0,1-.51-1.58l1.88-3.64v0A1.21,1.21,0,0,1,671,9.22l.06,0a1.16,1.16,0,0,1,.52,1.59l-.07.13"/><path class="cls-3" d="M675.54,13.07l-1.82,3.54a1.22,1.22,0,0,1-1.61.54l-.06,0a1.16,1.16,0,0,1-.52-1.59L673.36,12l.06-.11a1.22,1.22,0,0,1,1.61-.55l.07,0a1.16,1.16,0,0,1,.51,1.58l-.06.13"/><path class="cls-3" d="M679.56,14.7a.3.3,0,0,1,0,.08l-1.88,3.66A1.23,1.23,0,0,1,676,19L676,19a1.17,1.17,0,0,1-.52-1.58l1.82-3.53.07-.14a1.23,1.23,0,0,1,1.62-.54l.06,0A1.16,1.16,0,0,1,679.56,14.7Z"/><path class="cls-3" d="M675.54,13.07h0c.57.27,1.15.53,1.73.77h0"/><path class="cls-3" d="M671.47,11h0l1.89,1"/><path class="cls-3" d="M667.54,8.78l1.78,1"/><path class="cls-3" d="M679.57,14.7c1.16.38,3.9,2.47,8.17,3,4.68.63,6.94,1.83,7.48,3.23,1.39,3.6-8.49,8.53-17.71,8.53-6.88,0-11.65-2.74-17-2.74l-1.19,0c-2.48.08-5.55.41-8.68.59-6.37.4-13,.26-15.3-3.43a7.53,7.53,0,0,1-1.11-3.56c0-.19,0-.39,0-.58,0-4.62,3.83-7,4.89-11.71.39-1.74,1.5-2.11,2.25-2.11,3.28,0,2.9,5.88,11.57,5.88,6.55,0,4.34-5.88,7.59-5.88a5.75,5.75,0,0,1,1.65.29,19.84,19.84,0,0,1,3.18,1.35"/><path class="cls-3" d="M645.09,14.18c2.53,3.08,7,7.76,5.59,13.2h0"/><path class="cls-3" d="M650,15.14s8.44,3.77,9.39,11.65"/><path class="cls-6" d="M248,202.81c4.6,5.56-5.36,11.7-20.45,11.7H198.45c-16.64,0-13.53-10.82-11.45-12.22a8.24,8.24,0,0,0,.35,3.46c2.35,7.17,18.59,5.59,25.86,5.59h17.13C239.56,211.34,249.43,206.41,248,202.81Z"/><path class="cls-5" d="M248,202.81c1.39,3.6-8.49,8.53-17.71,8.53h-1.77s-6.89-12-19.17-10.4-17.3-2.48-19.62-6a15.68,15.68,0,0,0,2.19-5c0,8.27,23.06,11.17,23.06-1.82a19.84,19.84,0,0,1,3.18,1.35h0l-1.89,3.66a1.16,1.16,0,0,0,.52,1.59l.06,0a1.22,1.22,0,0,0,1.61-.54l1.85-3.6,1.78,1,0,0-1.87,3.64a1.17,1.17,0,0,0,.51,1.59l.06,0a1.22,1.22,0,0,0,1.62-.55l1.82-3.52,1.89,1-1.83,3.55a1.16,1.16,0,0,0,.52,1.59l.06,0a1.23,1.23,0,0,0,1.61-.55l1.82-3.54h0c.57.27,1.15.53,1.72.78l-1.81,3.52a1.16,1.16,0,0,0,.52,1.58l.06,0a1.23,1.23,0,0,0,1.62-.55l1.88-3.66,0-.07h0c1.16.37,3.9,2.46,8.17,3C245.25,200.21,247.5,201.41,248,202.81Z"/><path class="cls-6" d="M231.84,195a1.16,1.16,0,0,1,.54,1.52h0l0,.07-1.88,3.66a1.23,1.23,0,0,1-1.62.55l-.06,0a1.16,1.16,0,0,1-.52-1.58l1.81-3.52h0l.07-.14a1.23,1.23,0,0,1,1.62-.54Z"/><path class="cls-5" d="M187,202.29c0-.21,0-.42.08-.64a16.09,16.09,0,0,1,2.69-6.74c2.33,3.56,7.34,7.61,19.62,6s19.17,10.4,19.17,10.4H213.21c-7.27,0-23.5,1.58-25.86-5.59A8.24,8.24,0,0,1,187,202.29Z"/><path class="cls-6" d="M227.92,193.19a1.16,1.16,0,0,1,.51,1.58l-.06.13h0l-1.82,3.54a1.23,1.23,0,0,1-1.61.55l-.06,0a1.16,1.16,0,0,1-.52-1.59l1.83-3.55.06-.11a1.22,1.22,0,0,1,1.61-.55Z"/><path class="cls-6" d="M224.3,192.8h0l-1.82,3.52a1.22,1.22,0,0,1-1.62.55l-.06,0a1.17,1.17,0,0,1-.51-1.59l1.87-3.64v0a1.23,1.23,0,0,1,1.62-.55l.06,0a1.17,1.17,0,0,1,.52,1.58Z"/><path class="cls-6" d="M219.88,189a1.16,1.16,0,0,1,.51,1.58l0,.07-1.85,3.6a1.22,1.22,0,0,1-1.61.54l-.06,0a1.16,1.16,0,0,1-.52-1.59l1.89-3.66h0a1.22,1.22,0,0,1,1.61-.54Z"/><path class="cls-6" d="M213.38,187.83a5.75,5.75,0,0,1,1.65.29c0,13-23.06,10.09-23.06,1.82.39-1.74,1.49-2.11,2.25-2.11,3.28,0,2.9,5.89,11.57,5.89C212.34,193.71,210.13,187.83,213.38,187.83Z"/><path class="cls-3" d="M187.1,202.23l-.09.06c-2.08,1.4-5.19,12.22,11.45,12.22h29.14c15.09,0,25.05-6.13,20.45-11.7v0"/><path class="cls-3" d="M192,189.94c0,8.27,23.06,11.17,23.06-1.82"/><path class="cls-3" d="M218.21,189.46a1.22,1.22,0,0,1,1.61-.54l.07,0a1.16,1.16,0,0,1,.51,1.58l0,.07-1.85,3.6a1.22,1.22,0,0,1-1.61.54l-.06,0a1.16,1.16,0,0,1-.52-1.59l1.89-3.66Z"/><path class="cls-3" d="M224.3,192.81l-1.82,3.52a1.22,1.22,0,0,1-1.62.55l-.06,0a1.17,1.17,0,0,1-.51-1.59l1.87-3.64v0a1.23,1.23,0,0,1,1.62-.55l.06,0a1.17,1.17,0,0,1,.52,1.58l-.07.13"/><path class="cls-3" d="M228.36,194.9l-1.82,3.54a1.23,1.23,0,0,1-1.61.55l-.06,0a1.16,1.16,0,0,1-.52-1.59l1.83-3.55.06-.11a1.22,1.22,0,0,1,1.61-.55l.07,0a1.16,1.16,0,0,1,.51,1.58l-.06.13"/><path class="cls-3" d="M230.1,195.68l.07-.14a1.23,1.23,0,0,1,1.62-.54l.06,0a1.16,1.16,0,0,1,.54,1.52h0l0,.07-1.88,3.66a1.23,1.23,0,0,1-1.62.55l-.06,0a1.16,1.16,0,0,1-.52-1.58l1.81-3.52"/><path class="cls-3" d="M228.36,194.9h0c.57.27,1.15.53,1.72.78h0"/><path class="cls-3" d="M224.29,192.8h0l1.89,1"/><path class="cls-3" d="M220.36,190.61l1.78,1"/><path class="cls-3" d="M232.39,196.54c1.16.37,3.9,2.46,8.17,3,4.68.63,6.94,1.83,7.48,3.23,1.39,3.6-8.49,8.53-17.71,8.53H213.21c-7.27,0-23.5,1.58-25.86-5.59a8.24,8.24,0,0,1-.35-3.46c0-.21,0-.42.08-.64a16.09,16.09,0,0,1,2.69-6.74,15.68,15.68,0,0,0,2.19-5c.39-1.74,1.49-2.11,2.25-2.11,3.28,0,2.9,5.89,11.57,5.89,6.55,0,4.34-5.89,7.59-5.89a5.75,5.75,0,0,1,1.65.29,19.84,19.84,0,0,1,3.18,1.35"/><path class="cls-3" d="M189.77,194.9c2.33,3.56,7.34,7.61,19.62,6s19.17,10.4,19.17,10.4"/><path class="cls-6" d="M332.6,247.26c1.3,3.29-6.86,7.71-15.33,8.44,2.63-1.19,7.83-3.55,6.76-11.65l0-.18c.34.07.69.13,1.06.18C329.79,244.67,332,245.86,332.6,247.26Z"/><path class="cls-6" d="M324,244c1.08,8.11-4.13,10.47-6.76,11.65h0q-1.18.1-2.36.1c-6.89,0-11.65-2.74-17-2.74-2,0-4.42.22-7.06.42.08-4,2.87-11.48,6.57-15.2a8,8,0,0,0,2.13-5.7,20.17,20.17,0,0,1,3.18,1.35h0l-1.89,3.66a1.17,1.17,0,0,0,.52,1.58l.06,0a1.23,1.23,0,0,0,1.62-.55l1.85-3.59,1.79,1,0,0-1.88,3.65a1.16,1.16,0,0,0,.51,1.58l.07,0a1.22,1.22,0,0,0,1.61-.55l1.82-3.52,1.89,1-1.83,3.55a1.18,1.18,0,0,0,.52,1.59l.06,0a1.23,1.23,0,0,0,1.62-.55l1.81-3.53h0c.57.27,1.15.53,1.73.77l-1.81,3.52a1.17,1.17,0,0,0,.51,1.59l.06,0a1.24,1.24,0,0,0,1.62-.55l1.89-3.67,0-.07h0c1.07.35,3.44,2.13,7.12,2.86Z"/><path class="cls-6" d="M297.46,238.28c-3.7,3.72-6.5,11.21-6.57,15.2l-2.84.19c-3.68-3-5.26-9.88-4.79-13C288.08,242.14,294.26,241.65,297.46,238.28Z"/><path class="cls-6" d="M288.05,253.68c-6.37.4-13,.26-15.29-3.43a7.48,7.48,0,0,1-1.1-3.56q0-.29,0-.58c0-4.62,3.83-7,4.89-11.71,0,3,2.95,5.23,6.74,6.32C282.79,243.8,284.37,250.65,288.05,253.68Z"/><path class="cls-3" d="M271.66,246.69c-2.08,1.13-3.74,12.27,8.67,12.27h31.81c15.11,0,25.07-6.13,20.45-11.71"/><path class="cls-3" d="M276.52,234.4c0,3,2.95,5.23,6.74,6.32,4.82,1.41,11,.92,14.2-2.44a8,8,0,0,0,2.13-5.7"/><path class="cls-3" d="M302.76,233.93a1.23,1.23,0,0,1,1.62-.54l.06,0a1.17,1.17,0,0,1,.51,1.59l0,.07-1.85,3.59a1.23,1.23,0,0,1-1.62.55l-.06,0a1.17,1.17,0,0,1-.52-1.58l1.89-3.66Z"/><path class="cls-3" d="M306.73,236.08v0a1.22,1.22,0,0,1,1.61-.54l.06,0a1.16,1.16,0,0,1,.52,1.59l-.07.14L307,240.8a1.22,1.22,0,0,1-1.61.55l-.07,0a1.16,1.16,0,0,1-.51-1.58Z"/><path class="cls-3" d="M312.92,239.37l-1.81,3.53a1.23,1.23,0,0,1-1.62.55l-.06,0a1.18,1.18,0,0,1-.52-1.59l1.83-3.55.06-.11a1.22,1.22,0,0,1,1.62-.55l.06,0a1.16,1.16,0,0,1,.51,1.58l-.06.13"/><path class="cls-3" d="M316.94,241l0,.07L315,244.74a1.24,1.24,0,0,1-1.62.55l-.06,0a1.17,1.17,0,0,1-.51-1.59l1.81-3.52.07-.14a1.23,1.23,0,0,1,1.62-.55l.06,0A1.16,1.16,0,0,1,316.94,241Z"/><path class="cls-3" d="M312.92,239.37h0c.57.27,1.15.53,1.73.77h0"/><path class="cls-3" d="M308.84,237.27h0l1.89,1"/><path class="cls-3" d="M304.91,235.07l1.79,1"/><path class="cls-3" d="M317.26,255.7q-1.18.1-2.36.1c-6.89,0-11.65-2.74-17-2.74-2,0-4.42.22-7.06.42l-2.84.19c-6.37.4-13,.26-15.29-3.43a7.48,7.48,0,0,1-1.1-3.56q0-.29,0-.58c0-4.62,3.83-7,4.89-11.71.39-1.74,1.5-2.12,2.25-2.12,3.28,0,2.91,5.89,11.57,5.89,6.55,0,4.34-5.89,7.6-5.89a5.5,5.5,0,0,1,1.64.3,20.17,20.17,0,0,1,3.18,1.35"/><path class="cls-3" d="M316.95,241c1.07.35,3.44,2.13,7.12,2.86.34.07.69.13,1.06.18,4.66.63,6.91,1.82,7.47,3.22,1.3,3.29-6.86,7.71-15.33,8.44"/><path class="cls-3" d="M297.46,238.28c-3.7,3.72-6.5,11.21-6.57,15.2v.17"/><path class="cls-3" d="M283.27,240.72c-.47,3.07,1.1,9.93,4.79,13h0"/><path class="cls-3" d="M317,255.8l.22-.1h0c2.63-1.19,7.83-3.55,6.76-11.65"/><rect class="cls-7" x="694.13" y="320.58" width="61.41" height="20.75" rx="10.16" ry="10.16"/><text class="cls-8" transform="translate(703.8 334.76)">MR0138</text><rect class="cls-7" x="595.41" y="214.89" width="61.41" height="20.75" rx="10.16" ry="10.16"/><text class="cls-8" transform="translate(605.02 229.07)">MR0136</text><rect class="cls-7" x="633.89" y="35.27" width="61.41" height="20.75" rx="10.16" ry="10.16"/><text class="cls-8" transform="translate(643.5 49.45)">MR0139</text><rect class="cls-7" x="579.51" y="90.33" width="61.41" height="20.75" rx="10.16" ry="10.16"/><text class="cls-8" transform="translate(589.32 104.51)">MR0143</text><rect class="cls-7" x="424.39" y="35.27" width="61.41" height="20.75" rx="10.16" ry="10.16"/><text class="cls-8" transform="translate(435.51 49.45)">MR0131</text><rect class="cls-7" x="492.52" y="119.27" width="61.41" height="20.75" rx="10.16" ry="10.16"/><text class="cls-8" transform="translate(502 133.45)">MR0128</text><rect class="cls-7" x="399.97" y="119.27" width="61.41" height="20.75" rx="10.16" ry="10.16"/><text class="cls-8" transform="translate(409.59 133.45)">MR0124</text><rect class="cls-7" x="270.13" y="35.27" width="61.41" height="20.75" rx="10.16" ry="10.16"/><text class="cls-9" transform="translate(279.8 50.2)">MR0145</text><rect class="cls-7" x="160.47" y="93.31" width="61.41" height="20.75" rx="10.16" ry="10.16"/><text class="cls-9" transform="translate(170.11 107.9)">MR0133</text><rect class="cls-7" x="79.95" y="30.53" width="61.41" height="20.75" rx="10.16" ry="10.16"/><text class="cls-9" transform="translate(90.62 45.14)">MR0123</text><rect class="cls-7" x="0.5" y="216.72" width="61.41" height="20.75" rx="10.16" ry="10.16"/><text class="cls-9" transform="translate(10.75 231.52)">MR0134</text><rect class="cls-7" x="7.7" y="93.31" width="61.41" height="20.75" rx="10.16" ry="10.16"/><text class="cls-9" transform="translate(17.53 107.49)">MR0135</text><rect class="cls-7" x="270.13" y="119.27" width="61.41" height="20.75" rx="10.16" ry="10.16"/><text class="cls-9" transform="translate(280.01 133.45)">MR0127</text><rect class="cls-7" x="183.47" y="216.72" width="61.41" height="20.75" rx="10.16" ry="10.16"/><text class="cls-9" transform="translate(192.83 231.43)">MR0125</text><rect class="cls-7" x="183.47" y="320.58" width="61.41" height="20.75" rx="10.16" ry="10.16"/><text class="cls-8" transform="translate(193.88 335.01)">MR0142</text><rect class="cls-7" x="89.55" y="261.08" width="61.41" height="20.75" rx="10.16" ry="10.16"/><text class="cls-9" transform="translate(100.67 275.26)">MR0141</text><rect class="cls-7" x="0.5" y="320.58" width="61.41" height="20.75" rx="10.16" ry="10.16"/><text class="cls-8" transform="translate(10.3 334.76)">MR0144</text><rect class="cls-7" x="270.13" y="261.08" width="61.41" height="20.75" rx="10.16" ry="10.16"/><text class="cls-8" transform="translate(279.55 275.26)">MR0129</text><rect class="cls-7" x="694.13" y="98.12" width="61.41" height="20.75" rx="10.16" ry="10.16"/><text class="cls-8" transform="translate(703.74 112.3)">MR0145</text><rect class="cls-7" x="579.51" y="321.8" width="61.41" height="20.75" rx="10.16" ry="10.16"/><text class="cls-8" transform="translate(589.14 335.98)">MR0132</text><rect class="cls-7" x="694.13" y="216.72" width="61.41" height="20.75" rx="10.16" ry="10.16"/><text class="cls-8" transform="translate(703.76 230.9)">MR0142</text><rect class="cls-7" x="492.52" y="261.08" width="61.41" height="20.75" rx="10.16" ry="10.16"/><text class="cls-8" transform="translate(501.94 275.26)">MR0126</text><rect class="cls-7" x="399.97" y="320.58" width="61.41" height="20.75" rx="10.16" ry="10.16"/><text class="cls-8" transform="translate(410.03 334.76)">MR0137</text><rect class="cls-7" x="399.97" y="216.72" width="61.41" height="20.75" rx="10.16" ry="10.16"/><text class="cls-8" transform="translate(409.44 230.9)">MR0140</text><path class="cls-1" d="M734.23,300.16c5.62,2.3,12.15,4.39,14.62,4.57,3.95.3,7.71.12,7.71,2.74,0,.44,0,.85,0,1.23-4.55,7-30.58,5.88-43.27,3.11l-4.42-1c.81-6.84-7-9.48-10.57-11.93a13.45,13.45,0,0,0,.79-3.63c2.63,2,5.86,4.53,9,4.53s9.37-4.74,11.65-7.63a32.46,32.46,0,0,1,6,3.66l.37.27a20.6,20.6,0,0,0,2.25,1.36l.13.06c.83.45,1.77.9,2.79,1.36l.09,0C732.28,299.35,733.24,299.76,734.23,300.16Z"/><path class="cls-1" d="M698.32,298.92c3.59,2.45,11.38,5.08,10.57,11.93-7.23-1.59-10-2.16-14.85-2.16a27.63,27.63,0,0,1,1.95-4.31A35.51,35.51,0,0,0,698.32,298.92Z"/><path class="cls-3" d="M715.58,291.25c0-1-.16-3.56,1.82-3.56,2.3,0,5.91,5.58,8.38,8.11l.19.19"/><path class="cls-3" d="M756.58,308.7c.05,1.91-.11,3.27-3.85,5.09a40.61,40.61,0,0,1-7.31,2.59c-.34.09-.71,0-1.06.08s-.57.39-.91.47-.78-.09-1.13,0-.64.37-1,.44-.71-.14-1.07-.08-.63.47-1,.52-.74-.27-1.09-.23-.64.44-1,.48-.73-.29-1.08-.25-.66.42-1,.46-.72-.31-1.08-.29-.66.42-1,.43-.71-.32-1.07-.3-.67.4-1,.42-.7-.34-1.06-.33-.69.38-1,.39-.7-.35-1.06-.34-.69.37-1,.37-.69-.36-1-.36-.69.36-1.05.36-.69-.36-1-.37-.7.36-1.05.35-.69-.38-1-.4-.7.35-1.06.34-.68-.39-1-.41-.71.34-1.06.32-.68-.4-1-.42-.71.33-1.07.3-.67-.4-1-.42-.71.32-1.07.3-.67-.41-1-.43-.72.31-1.07.29-.67-.42-1-.44-.72.3-1.07.28-.66-.42-1-.45-.72.3-1.08.27-.66-.42-1-.46-.73.3-1.08.26-.66-.43-1-.47-.69.22-1,.19-.69-.36-1-.41-.72.18-1.07.14-.67-.33-1-.37-.71.1-1.06.07c-6.17-.72-6.51-3.33-6.51-5.95,0,0,.06-1.7,1-2a27.63,27.63,0,0,1,1.95-4.31,35.51,35.51,0,0,0,2.33-5.45,13.45,13.45,0,0,0,.79-3.63c0-1.89,1.39-4.83,2.81-5.64a1.49,1.49,0,0,1,.72-.21c3.16,0,.22,7.11,3.8,7.11,3.1,0,6.38-5.29,8.81-5.29h.33a11,11,0,0,1,4.18.92,32.46,32.46,0,0,1,6,3.66l.37.27a20.6,20.6,0,0,0,2.25,1.36l.13.06c.83.45,1.77.9,2.79,1.36l.09,0c.9.42,1.85.82,2.85,1.23,5.62,2.3,12.15,4.39,14.62,4.57,3.95.3,7.71.12,7.71,2.74C756.56,307.91,756.57,308.32,756.58,308.7Z"/><path class="cls-3" d="M694,308.68c4.89,0,7.61.57,14.85,2.16l4.42,1c12.7,2.77,38.72,3.88,43.27-3.11v0"/><path class="cls-3" d="M699.11,295.29c2.63,2,5.86,4.53,9,4.53s9.37-4.74,11.65-7.63"/><path class="cls-3" d="M698.32,298.92c3.59,2.45,11.38,5.08,10.57,11.93"/><path class="cls-3" d="M701.92,289.64s.34-2.34-1.17-2.34-1.63,5.51-1.64,8"/><path class="cls-3" d="M725.71,295.9l0-.06,0,0a1.45,1.45,0,0,1,1.9-.19,1.41,1.41,0,0,1,.72,1.84"/><path class="cls-3" d="M728.53,297.49a1.6,1.6,0,0,1,2.76,1.41v0"/><path class="cls-3" d="M731.39,298.93a1.42,1.42,0,0,1,1.91-.51,1.41,1.41,0,0,1,.92,1.74h0"/><path class="cls-5" d="M628.37,189.36c1,.63,2,1.26,3,1.88s2.11,1.25,3.1,1.8c1.3.73,2.51,1.36,3.5,1.8.43.19.82.35,1.17.47a21.38,21.38,0,0,0,2.57.64c6.27,1.25,17.59,2.44,16,8.5,0,0-1.77,2.5-26.48,2.5q-3.51,0-6.64-.17a90.5,90.5,0,0,1-17.26-2.41s2-6.91-.84-9.4c5.51,1.18,12.1,0,15.88-9.49C623.92,186.51,626.07,187.92,628.37,189.36Z"/><path class="cls-6" d="M626.25,211.47a15.57,15.57,0,0,0-3-.29c-.39,0-.76,0-1.13,0v0l2.35-2.39.11-2q3.14.17,6.64.17c24.71,0,26.48-2.5,26.48-2.5s1,2.65-4.85,5.36a32.62,32.62,0,0,1-10.39,2.62c-1.52.16-3.07.26-4.67.31-1.42.05-2.87.07-4.34.08h-.65a12.19,12.19,0,0,1-3.22-.48C628.54,212.05,627.49,211.71,626.25,211.47Z"/><path class="cls-6" d="M604,212.3a29.3,29.3,0,0,1-3.58-.79,18.15,18.15,0,0,1-3.12-1.19,6.49,6.49,0,0,1-2.45-1.95c-1.89-2.8,2.4-7.5,2.4-7.5a56.5,56.5,0,0,0,10.11,3.49,90.5,90.5,0,0,0,17.26,2.41l-.11,2-2.35,2.39v0c-3.66.24-6.53,1.58-12.07,1.58A37,37,0,0,1,604,212.3Z"/><path class="cls-1" d="M621.9,185.16l.47.31C618.6,195,612,196.14,606.5,195a23.88,23.88,0,0,1-8.38-3.68c.76-2.94,2.15-5.41,4.68-5.41.94,0,.81,6.59,7.28,6.59,3.74,0,7.15-2.91,9.12-6.6A1.89,1.89,0,0,1,621.9,185.16Z"/><path class="cls-5" d="M606.5,195c2.88,2.49.84,9.4.84,9.4a56.5,56.5,0,0,1-10.11-3.49,37.89,37.89,0,0,1,.89-9.6A23.88,23.88,0,0,0,606.5,195Z"/><path class="cls-3" d="M598.11,191.27c.76-2.94,2.15-5.41,4.68-5.41.94,0,.81,6.59,7.28,6.59,3.74,0,7.15-2.91,9.12-6.6a1.89,1.89,0,0,1,2.72-.69l.47.31c1.54,1,3.69,2.45,6,3.89,1,.63,2,1.26,3,1.88s2.11,1.25,3.1,1.8c1.3.73,2.51,1.36,3.5,1.8.43.19.82.35,1.17.47a21.38,21.38,0,0,0,2.57.64c6.27,1.25,17.59,2.44,16,8.5,0,0,1,2.65-4.85,5.36a32.62,32.62,0,0,1-10.39,2.62c-1.52.16-3.07.26-4.67.31-1.42.05-2.87.07-4.34.08h-.65a12.19,12.19,0,0,1-3.22-.48c-1.05-.28-2.1-.62-3.34-.86a15.57,15.57,0,0,0-3-.29c-.39,0-.76,0-1.13,0-3.66.24-6.53,1.58-12.07,1.58a37,37,0,0,1-6.09-.51,29.3,29.3,0,0,1-3.58-.79,18.15,18.15,0,0,1-3.12-1.19,6.49,6.49,0,0,1-2.45-1.95c-1.89-2.8,2.4-7.5,2.4-7.5A37.89,37.89,0,0,1,598.11,191.27Z"/><path class="cls-3" d="M597.22,200.87a56.5,56.5,0,0,0,10.11,3.49,90.5,90.5,0,0,0,17.26,2.41q3.14.17,6.64.17c24.71,0,26.48-2.5,26.48-2.5"/><line class="cls-3" x1="628.37" y1="189.36" x2="624.53" y2="193.11"/><line class="cls-3" x1="631.42" y1="191.24" x2="627.34" y2="195.32"/><line class="cls-3" x1="634.52" y1="193.04" x2="630.87" y2="196.64"/><line class="cls-3" x1="638.01" y1="194.84" x2="634.59" y2="198.2"/><line class="cls-3" x1="641.75" y1="195.94" x2="638.11" y2="199.55"/><line class="cls-3" x1="594.83" y1="208.38" x2="598.05" y2="205.11"/><polyline class="cls-3" points="597.22 210.37 597.27 210.32 600.8 206.74"/><line class="cls-3" x1="600.39" y1="211.52" x2="603.97" y2="207.89"/><polyline class="cls-3" points="603.89 212.39 603.97 212.31 607.46 208.76"/><line class="cls-3" x1="607.96" y1="212.65" x2="611.72" y2="208.83"/><line class="cls-3" x1="612.25" y1="212.65" x2="616.04" y2="208.81"/><line class="cls-3" x1="617.1" y1="212.02" x2="620.22" y2="208.86"/><line class="cls-3" x1="622.13" y1="211.2" x2="624.49" y2="208.81"/><polyline class="cls-3" points="626.11 211.63 626.25 211.47 628.46 209.24"/><polyline class="cls-3" points="629.53 212.39 629.59 212.33 631.87 210"/><line class="cls-3" x1="633.46" y1="212.81" x2="636.04" y2="210.2"/><polyline class="cls-3" points="637.73 212.81 637.8 212.74 640.31 210.2"/><polyline class="cls-3" points="642.38 212.51 642.47 212.42 644.73 210.12"/><path class="cls-3" d="M598,191.23l.07,0A23.88,23.88,0,0,0,606.5,195c5.51,1.18,12.1,0,15.88-9.49"/><path class="cls-3" d="M606.5,195c2.88,2.49.84,9.4.84,9.4"/><path class="cls-1" d="M247.44,306.6c.12.38,2.1,7.68-25.35,6.39-2.31-.11-4.51-.25-6.59-.42-10.71-.84-18.34-2.35-23.73-4.2h0a74.21,74.21,0,0,1,1.55-8.66c4.93,2.1,12.16,3.3,17.19-3.26,3.9,3.3,13.12,9.46,19.52,4.9,4.84,1.63,16.3,2,17.4,5.23Z"/><path class="cls-1" d="M230,301.36c-6.4,4.56-15.63-1.6-19.52-4.9a20.61,20.61,0,0,0,2.72-4.93C217.48,294.35,226.4,300.13,230,301.36Z"/><path class="cls-1" d="M212.76,291.21l.47.32a20.61,20.61,0,0,1-2.72,4.93c-5,6.56-12.26,5.36-17.19,3.26a24.24,24.24,0,0,1-4.36-2.39c.76-2.94,2.16-5.41,4.68-5.41.94,0,.81,6.58,7.28,6.58,3.74,0,7.14-2.91,9.12-6.6A1.89,1.89,0,0,1,212.76,291.21Z"/><path class="cls-1" d="M193.32,299.72a74.21,74.21,0,0,0-1.55,8.66,37,37,0,0,1-3.69-1.46,38.07,38.07,0,0,1,.88-9.59A24.24,24.24,0,0,0,193.32,299.72Z"/><path class="cls-3" d="M247.44,306.6c.25.35,3.93,5.81-3.73,9.25a34.07,34.07,0,0,1-10.38,2.6c-1.52.17-3.07.27-4.67.33-1.42.06-2.88.08-4.35.08h-.66a11.85,11.85,0,0,1-3.22-.49c-1.05-.27-2.1-.62-3.33-.86a15.57,15.57,0,0,0-3-.29c-.39,0-.76,0-1.13,0-3.66.24-6.52,1.59-12.07,1.59a37.11,37.11,0,0,1-6.1-.51,30.43,30.43,0,0,1-3.57-.79,18.86,18.86,0,0,1-3.12-1.2,6.49,6.49,0,0,1-2.45-1.95c-1.89-2.8,2.4-7.5,2.4-7.5a38.07,38.07,0,0,1,.88-9.59c.76-2.94,2.16-5.41,4.68-5.41.94,0,.81,6.58,7.28,6.58,3.74,0,7.14-2.91,9.12-6.6a1.89,1.89,0,0,1,2.72-.69l.47.32c4.24,2.82,13.17,8.61,16.8,9.83,4.84,1.63,16.3,2,17.4,5.23"/><path class="cls-3" d="M191.77,308.38c5.4,1.85,13,3.36,23.73,4.2,2.08.17,4.28.3,6.59.42,27.45,1.29,25.47-6,25.35-6.39v0"/><path class="cls-3" d="M188.08,306.92a37,37,0,0,0,3.69,1.46"/><line class="cls-3" x1="185.68" y1="314.42" x2="188.89" y2="311.16"/><polyline class="cls-3" points="188.08 316.42 188.13 316.37 191.65 312.79"/><line class="cls-3" x1="191.25" y1="317.57" x2="194.82" y2="313.94"/><polyline class="cls-3" points="194.74 318.44 194.82 318.36 198.32 314.81"/><line class="cls-3" x1="198.81" y1="318.7" x2="202.57" y2="314.88"/><line class="cls-3" x1="203.1" y1="318.7" x2="206.89" y2="314.85"/><line class="cls-3" x1="207.96" y1="318.06" x2="211.07" y2="314.91"/><line class="cls-3" x1="212.99" y1="317.25" x2="215.33" y2="314.86"/><polyline class="cls-3" points="216.96 317.68 217.1 317.52 219.31 315.3"/><polyline class="cls-3" points="220.37 318.44 220.43 318.38 222.73 316.06"/><line class="cls-3" x1="224.31" y1="318.87" x2="226.9" y2="316.24"/><polyline class="cls-3" points="228.58 318.87 228.66 318.78 231.16 316.24"/><polyline class="cls-3" points="233.23 318.56 233.33 318.45 235.59 316.18"/><path class="cls-3" d="M188.9,297.29l.06,0a24.24,24.24,0,0,0,4.36,2.39c4.93,2.1,12.16,3.3,17.19-3.26a20.61,20.61,0,0,0,2.72-4.93"/><path class="cls-3" d="M210.51,296.46c3.9,3.3,13.12,9.46,19.52,4.9"/><path class="cls-3" d="M193.32,299.72a74.21,74.21,0,0,0-1.55,8.66h0a.35.35,0,0,0,0,.06"/><path class="cls-5" d="M642,308.58a4.12,4.12,0,0,1-.37,2.18c-5.4,5.38-18.85,3.42-19.92,3.29s-2.92-.54-4,.17-3.23.21-4,.05c-.56-.12-2.08-.49-4.25-1a14.18,14.18,0,0,1,8.15-3.15c3.17,0,4.1,2.24,7,2.24s15.7-2.24,14.74-6.9l0-.05C640.84,306.15,642,307.19,642,308.58Z"/><path class="cls-5" d="M609.35,313.23c2.17.54,3.69.91,4.25,1,.81.16,2.93.66,4-.05s3-.3,4-.17,14.53,2.09,19.92-3.29c0,0-.69,3.46-6.32,5.91s-14.38,3-18.26,3-13.1-.4-17.3-.4-13.67-.21-19-2.09c-2.42-1-2.39-2.24-2.21-4.1s.25-5.62,2.24-7.29c1.49,1.83,8.26,5.63,13.13,5.84,1.14,0,2.2.06,3.21.07a36,36,0,0,1,8.89.75Z"/><path class="cls-6" d="M639.22,305.42c1,4.66-11.85,6.9-14.74,6.9s-3.81-2.24-7-2.24a14.18,14.18,0,0,0-8.15,3.15l-3.35-.84a36,36,0,0,0-8.89-.75v-.07c5.09-4.67,11.86-8.9,12.71-9.61s-1.18-2.81-3.52-2.92a76,76,0,0,0-9.27,1.57l0-2.52c1.76,0,3.15-.33,4.51-3.42.45-1,.86-2,1.26-3,2.51,4.06,11.44,7.44,14.89,7.3a2.79,2.79,0,0,1,2.17,1.47,3.34,3.34,0,0,1,3,1.26c.93,1.47,5.23,1.33,5.23,1.33s7.17.3,11.23,2.3Z"/><path class="cls-5" d="M617.64,299c-3.45.14-12.38-3.24-14.89-7.3,1.09-2.51,2.13-4.46,3.64-4.46C608.46,287.26,614.08,293.68,617.64,299Z"/><path class="cls-5" d="M606.3,299c2.35.11,4.37,2.21,3.52,2.92s-7.62,4.95-12.71,9.61v.07c-1,0-2.07,0-3.21-.07-4.87-.2-11.64-4-13.13-5.84,0,0,.08-.66.29-1.68,2.15-.5,9.66-2.18,16-3.46A76,76,0,0,1,606.3,299Z"/><path class="cls-6" d="M597,298.09l0,2.52c-6.31,1.28-13.81,3-16,3.46a27.12,27.12,0,0,1,2.38-7.26c2-3.7,3.26-6.1,5-6.1,3,0,.24,7.45,7.39,7.38Z"/><path class="cls-3" d="M581.06,304.06a27.12,27.12,0,0,1,2.38-7.26c2-3.7,3.26-6.1,5-6.1,3,0,.24,7.45,7.39,7.38H597c1.76,0,3.15-.33,4.51-3.42.45-1,.86-2,1.26-3,1.09-2.51,2.13-4.46,3.64-4.46,2.07,0,7.68,6.42,11.25,11.76a2.79,2.79,0,0,1,2.17,1.47,3.34,3.34,0,0,1,3,1.26c.93,1.47,5.23,1.33,5.23,1.33s7.17.3,11.23,2.3c1.6.78,2.72,1.82,2.72,3.21a4.12,4.12,0,0,1-.37,2.18s-.69,3.46-6.32,5.91-14.38,3-18.26,3-13.1-.4-17.3-.4-13.67-.21-19-2.09c-2.42-1-2.39-2.24-2.21-4.1s.25-5.62,2.24-7.29C580.77,305.74,580.85,305.08,581.06,304.06Z"/><path class="cls-3" d="M617.64,299c-3.45.14-12.38-3.24-14.89-7.3"/><path class="cls-3" d="M580.77,305.74c1.49,1.83,8.26,5.63,13.13,5.84,1.14,0,2.2.06,3.21.07a36,36,0,0,1,8.89.75l3.35.84c2.17.54,3.69.91,4.25,1,.81.16,2.93.66,4-.05s3-.3,4-.17,14.53,2.09,19.92-3.29"/><path class="cls-3" d="M581.06,304.06c2.15-.5,9.66-2.18,16-3.46A76,76,0,0,1,606.3,299c2.35.11,4.37,2.21,3.52,2.92s-7.62,4.95-12.71,9.61"/><path class="cls-3" d="M609.24,313.32l.11-.09a14.18,14.18,0,0,1,8.15-3.15c3.17,0,4.1,2.24,7,2.24s15.7-2.24,14.74-6.9"/><path class="cls-1" d="M66.51,203.48a4,4,0,0,1-.38,2.17c-5.4,5.38-18.85,3.42-19.91,3.29s-2.92-.55-4,.16-3.23.21-4,.05c-.56-.12-2.08-.49-4.24-1A14.16,14.16,0,0,1,42.05,205c3.17,0,4.09,2.24,7,2.24s15.7-2.24,14.74-6.9l0-.05C65.39,201,66.51,202.09,66.51,203.48Z"/><path class="cls-6" d="M33.9,208.12c2.16.54,3.68.91,4.24,1,.81.16,2.93.66,4-.05s3-.3,4-.16,14.52,2.08,19.91-3.29c0,0-.69,3.46-6.32,5.91s-14.38,3-18.26,3-13.1-.39-17.3-.39-13.67-.22-19-2.1c-2.42-1-2.38-2.24-2.2-4.1s.25-5.62,2.24-7.29c1.5,1.83,8.26,5.63,13.13,5.84l1.63.05c4,.08,7-.11,10.47.76Z"/><path class="cls-1" d="M63.76,200.31c1,4.66-11.85,6.9-14.74,6.9s-3.8-2.24-7-2.24a14.16,14.16,0,0,0-8.15,3.15l-3.36-.84c-3.45-.87-6.45-.69-10.47-.76,1.19-2.41-.64-9-6.22-11.24,5.41,1.61,11.37,1.4,13-.7a18.93,18.93,0,0,0,3-5.4c3.71,2.81,9.72,4.84,12.41,4.73a2.81,2.81,0,0,1,2.17,1.47,3.38,3.38,0,0,1,3,1.26c.92,1.47,5.23,1.34,5.23,1.34s7.17.3,11.22,2.29Z"/><path class="cls-1" d="M42.19,193.91c-2.68.1-8.7-1.92-12.41-4.73a9.77,9.77,0,0,1-2.48-2.56c1.09-2.51,2.14-4.46,3.64-4.46C33,182.15,38.62,188.57,42.19,193.91Z"/><path class="cls-1" d="M29.78,189.18a18.93,18.93,0,0,1-3,5.4c-1.59,2.1-7.55,2.31-13,.7a9.72,9.72,0,0,0-1.19-.39,18,18,0,0,1-5-2.59c.09-.2.19-.41.3-.6,2-3.7,3.25-6.1,5-6.1,3,0,.24,7.46,7.39,7.38,2.34,0,4,.31,5.67-3.41.45-1,.86-2,1.26-2.95A9.77,9.77,0,0,0,29.78,189.18Z"/><path class="cls-1" d="M12.67,194.89c.39.14.79.28,1.19.39,5.58,2.22,7.4,8.83,6.22,11.24l-1.63-.05c-4.87-.2-11.63-4-13.13-5.84a31.59,31.59,0,0,1,2.38-8.33A18,18,0,0,0,12.67,194.89Z"/><path class="cls-3" d="M7.69,192.3c.09-.2.19-.41.3-.6,2-3.7,3.25-6.1,5-6.1,3,0,.24,7.46,7.39,7.38,2.34,0,4,.31,5.67-3.41.45-1,.86-2,1.26-2.95,1.09-2.51,2.14-4.46,3.64-4.46,2.07,0,7.68,6.42,11.25,11.76a2.81,2.81,0,0,1,2.17,1.47,3.38,3.38,0,0,1,3,1.26c.92,1.47,5.23,1.34,5.23,1.34s7.17.3,11.22,2.29c1.61.78,2.73,1.83,2.73,3.22a4,4,0,0,1-.38,2.17s-.69,3.46-6.32,5.91-14.38,3-18.26,3-13.1-.39-17.3-.39-13.67-.22-19-2.1c-2.42-1-2.38-2.24-2.2-4.1s.25-5.62,2.24-7.29A31.59,31.59,0,0,1,7.69,192.3Z"/><path class="cls-3" d="M42.19,193.91c-2.68.1-8.7-1.92-12.41-4.73a9.77,9.77,0,0,1-2.48-2.56"/><path class="cls-3" d="M5.31,200.64c1.5,1.83,8.26,5.63,13.13,5.84l1.63.05c4,.08,7-.11,10.47.76l3.36.84c2.16.54,3.68.91,4.24,1,.81.16,2.93.66,4-.05s3-.3,4-.16,14.52,2.08,19.91-3.29"/><path class="cls-3" d="M33.79,208.22l.11-.09A14.16,14.16,0,0,1,42.05,205c3.17,0,4.09,2.24,7,2.24s15.7-2.24,14.74-6.9"/><path class="cls-3" d="M7.68,192.29h0a18,18,0,0,0,5,2.59c.39.14.79.28,1.19.39,5.41,1.61,11.37,1.4,13-.7a18.93,18.93,0,0,0,3-5.4"/><path class="cls-3" d="M12.57,194.87l.1,0a9.72,9.72,0,0,1,1.19.39c5.58,2.22,7.4,8.83,6.22,11.24l-.09.16"/><path class="cls-1" d="M594.38,81c5,.5,12.2,1.58,17.93,2.35,2.07.28,3.94.53,5.44.69,6.1.64,21.93.54,22.62-1a6.5,6.5,0,0,0-.05-3.89c1.33.12,1.55,2.1,1.55,2.1,1.3,8.54-9.65,7.63-9.65,7.63h-.94V88h-1.91v.86h-2.56V88h-1.91v.86h-2.56V88h-1.91v.86h-2.56V88H616v.86h-2.56V88h-1.91v.86H609V88h-1.91v.86H604.5V88h-1.91v.86H600V88h-1.91v.86h-2.56V88h-1.91v.86h-2.55V88h-1.91v.86h-.64a16.24,16.24,0,0,1-9-3.27c-1.73-1.55,0-6.12,1.11-7.22,1.25,1.63,5.62,1.95,12.09,2.49C593.28,80.88,593.82,80.93,594.38,81Z"/><path class="cls-6" d="M640.32,79.11a6.5,6.5,0,0,1,.05,3.89c-.69,1.57-16.52,1.67-22.62,1-1.5-.16-3.37-.41-5.44-.69,2-2.63,7.78-8.57,8.17-13v0a46.82,46.82,0,0,0,5.57,2.83C630.22,74.79,640.32,79.11,640.32,79.11Z"/><path class="cls-6" d="M608.14,62.87l.12.06-3,2.26a.57.57,0,0,0-.12.8l.14.19a.56.56,0,0,0,.8.11l3.5-2.61,2,1.25-2.82,2.49a.57.57,0,0,0-.05.8l.15.18a.57.57,0,0,0,.8.05l3.15-2.78h0l.24.14c.52.3,1.13.67,1.84,1.1L612.1,69.7a.57.57,0,0,0,0,.8l.17.17a.56.56,0,0,0,.8,0l3-3,.08.08c.6.37,1.24.76,1.91,1.15L615.71,72a.56.56,0,0,0,.1.8l.19.15a.57.57,0,0,0,.8-.11l2.49-3.23,0,0c.39.23.79.47,1.19.69v0c-.4,4.46-6.16,10.41-8.17,13-5.73-.77-13-1.85-17.93-2.35-2.19-7-10.94-10.37-13.37-11.84.21-1.15.47-2.28.76-3.3.57-2,1.27-3.52,2.08-4a1,1,0,0,1,.58-.19c2.81,0,2,7.29,6.43,7.29,3.85,0,7-2,9.48-3.92,2.18-1.7,3.75-3.32,4.62-3.32A7.62,7.62,0,0,1,608.14,62.87Z"/><path class="cls-6" d="M618.09,68.87l.41-.53a.58.58,0,0,1,.8-.1l.19.14a.57.57,0,0,1,.1.8l-.3.4-2.49,3.23a.57.57,0,0,1-.8.11l-.19-.15a.56.56,0,0,1-.1-.8Z"/><path class="cls-6" d="M616.32,66.64a.57.57,0,0,1,0,.8l-.21.2-3,3a.56.56,0,0,1-.8,0l-.17-.17a.57.57,0,0,1,0-.8l2.78-2.78.47-.46a.57.57,0,0,1,.8,0Z"/><path class="cls-6" d="M613.14,64.63a.58.58,0,0,1-.05.8l-.28.25h0l-3.15,2.78a.57.57,0,0,1-.8-.05l-.15-.18a.57.57,0,0,1,.05-.8l2.82-2.49.61-.53a.57.57,0,0,1,.8.05Z"/><path class="cls-6" d="M609.83,62.76a.57.57,0,0,1-.12.8l-.17.13L606,66.29a.56.56,0,0,1-.8-.11l-.14-.19a.57.57,0,0,1,.12-.8l3-2.26.64-.47a.56.56,0,0,1,.8.11Z"/><path class="cls-6" d="M602.81,57.57a11,11,0,0,1,5.33,5.3,7.62,7.62,0,0,0-3.19-1.2c-.86,0-2.44,1.62-4.62,3.32C600.32,64,600.37,56.45,602.81,57.57Z"/><path class="cls-6" d="M594.38,81c-.56-.07-1.09-.11-1.58-.15-6.48-.54-10.85-.86-12.09-2.49-.63-.82-.43-5.16.3-9.2C583.43,70.63,592.18,74,594.38,81Z"/><path class="cls-3" d="M580.7,78.35c-1.15,1.1-2.84,5.67-1.11,7.22a16.24,16.24,0,0,0,9,3.27h.64V88h1.91v.86h2.55V88h1.91v.86h2.56V88H600v.86h2.56V88h1.91v.86h2.56V88H609v.86h2.56V88h1.91v.86H616V88h1.91v.86h2.56V88h1.91v.86h2.56V88h1.91v.86h2.56V88h1.91v.86h.94s10.94.91,9.65-7.63c0,0-.22-2-1.55-2.1"/><path class="cls-3" d="M612.31,83.34c2-2.63,7.78-8.57,8.17-13"/><path class="cls-3" d="M581,69.12l.05,0C583.43,70.63,592.18,74,594.38,81a.59.59,0,0,1,0,.11"/><path class="cls-3" d="M608.19,63l-.05-.09a11,11,0,0,0-5.33-5.3c-2.44-1.12-2.49,6.4-2.48,7.42v.11"/><path class="cls-3" d="M583.82,61.78a4.14,4.14,0,0,0-3.51-1.19c-.92.14-2.57,2.35-1.52,3.46s2.46.48,2.9,1.78"/><path class="cls-3" d="M612.8,65.68l-3.15,2.78a.57.57,0,0,1-.8-.05l-.15-.18a.57.57,0,0,1,.05-.8l2.82-2.49.61-.53a.57.57,0,0,1,.8.05l.16.18a.58.58,0,0,1-.05.8l-.28.25"/><path class="cls-3" d="M609.55,63.68,606,66.29a.56.56,0,0,1-.8-.11l-.14-.19a.57.57,0,0,1,.12-.8l3-2.26.64-.47a.56.56,0,0,1,.8.11l.14.19a.57.57,0,0,1-.12.8Z"/><path class="cls-3" d="M616.11,67.65l-3,3a.56.56,0,0,1-.8,0l-.17-.17a.57.57,0,0,1,0-.8l2.78-2.78.47-.46a.57.57,0,0,1,.8,0l.17.17a.57.57,0,0,1,0,.8Z"/><path class="cls-3" d="M619.29,69.59l-2.49,3.23a.57.57,0,0,1-.8.11l-.19-.15a.56.56,0,0,1-.1-.8l2.38-3.1.41-.53a.58.58,0,0,1,.8-.1l.19.14a.57.57,0,0,1,.1.8Z"/><path class="cls-3" d="M619.3,69.6c.39.23.79.47,1.19.69a46.82,46.82,0,0,0,5.57,2.83c4.16,1.67,14.25,6,14.25,6a6.5,6.5,0,0,1,.05,3.89c-.69,1.57-16.52,1.67-22.62,1-1.5-.16-3.37-.41-5.44-.69-5.73-.77-13-1.85-17.93-2.35-.56-.07-1.09-.11-1.58-.15-6.48-.54-10.85-.86-12.09-2.49-.63-.82-.43-5.16.3-9.2.21-1.15.47-2.28.76-3.3.57-2,1.27-3.52,2.08-4a1,1,0,0,1,.58-.19c2.81,0,2,7.29,6.43,7.29,3.85,0,7-2,9.48-3.92,2.18-1.7,3.75-3.32,4.62-3.32a7.62,7.62,0,0,1,3.19,1.2l.12.06"/><path class="cls-3" d="M616.19,67.72c.6.37,1.24.76,1.91,1.15h0"/><path class="cls-3" d="M612.8,65.68h0l.24.14c.52.3,1.13.67,1.84,1.1"/><path class="cls-3" d="M609.55,63.68l2,1.25"/><path class="cls-4" d="M462.32,308.21a6.5,6.5,0,0,1,.05,3.89c-.7,1.57-16.52,1.68-22.62,1-1.49-.16-3.36-.4-5.44-.68h0c2-2.63,7.78-8.56,8.17-13v0a48,48,0,0,0,5.57,2.82C452.23,303.89,462.32,308.21,462.32,308.21Z"/><path class="cls-4" d="M430.14,292l.12.07-3,2.27a.57.57,0,0,0-.12.8l.14.19a.57.57,0,0,0,.8.12l3.49-2.62h0l2,1.25-2.83,2.49a.57.57,0,0,0-.05.8l.16.18a.57.57,0,0,0,.8.05l3.15-2.78.25.15c.52.29,1.13.67,1.83,1.09h0l-2.78,2.78a.57.57,0,0,0,0,.8l.17.17a.57.57,0,0,0,.8,0l3-3,.07.07,1.91,1.16-2.38,3.1a.57.57,0,0,0,.11.8l.19.14a.57.57,0,0,0,.8-.1l2.49-3.23,0,0,1.19.69v0c-.4,4.46-6.16,10.4-8.17,13h0c-5.73-.77-13-1.85-17.94-2.36-2.21-7-10.94-10.35-13.37-11.83a33.72,33.72,0,0,1,.76-3.29c.57-2,1.27-3.53,2.08-4a1,1,0,0,1,.58-.19c2.8,0,2,7.29,6.43,7.29,3.85,0,7-2,9.48-3.91,2.19-1.7,3.74-3.32,4.62-3.32A7.64,7.64,0,0,1,430.14,292Z"/><path class="cls-4" d="M438.32,295.74a.57.57,0,0,1,0,.8l-.2.2-3,3a.57.57,0,0,1-.8,0l-.17-.17a.57.57,0,0,1,0-.8l2.78-2.78.46-.46a.56.56,0,0,1,.8,0Z"/><path class="cls-4" d="M435.14,293.72a.57.57,0,0,1-.05.8l-.28.25-3.15,2.78a.57.57,0,0,1-.8-.05l-.16-.18a.57.57,0,0,1,.05-.8l2.83-2.49.61-.53a.57.57,0,0,1,.8.05Z"/><path class="cls-4" d="M431.83,291.85a.56.56,0,0,1-.11.8l-.17.13h0l-3.49,2.62a.57.57,0,0,1-.8-.12l-.14-.19a.57.57,0,0,1,.12-.8l3-2.27.64-.47a.57.57,0,0,1,.8.12Z"/><path class="cls-4" d="M424.82,286.66a11.09,11.09,0,0,1,5.32,5.29,7.64,7.64,0,0,0-3.18-1.19c-.87,0-2.43,1.62-4.62,3.32C422.33,293.11,422.37,285.55,424.82,286.66Z"/><path class="cls-4" d="M416.38,310.08l-1.58-.14c-6.48-.54-10.85-.86-12.09-2.48-.64-.83-.44-5.16.3-9.21C405.43,299.73,414.17,303.08,416.38,310.08Z"/><path class="cls-3" d="M402.71,307.45c-1.15,1.09-2.85,5.67-1.12,7.22a16.18,16.18,0,0,0,9,3.28h.64v-.86h1.91v.86h2.56v-.86h1.91v.86h2.56v-.86H422v.86h2.55v-.86h1.91v.86h2.55v-.86H431v.86h2.55v-.86h1.91v.86H438v-.86h1.91v.86h2.56v-.86h1.91v.86h2.56v-.86h1.91v.86h2.56v-.86h1.91v.86h.93s11,.9,9.66-7.63c0,0-.22-2-1.55-2.11"/><path class="cls-3" d="M434.31,312.43c2-2.63,7.78-8.56,8.17-13"/><path class="cls-3" d="M403,298.21l.05,0c2.42,1.48,11.15,4.84,13.37,11.83l0,.13"/><path class="cls-3" d="M430.19,292.06l-.05-.11a11.09,11.09,0,0,0-5.32-5.29c-2.45-1.11-2.49,6.45-2.48,7.43v.1"/><path class="cls-3" d="M405.82,290.87a4.18,4.18,0,0,0-3.51-1.19c-.91.14-2.57,2.35-1.51,3.46s2.46.49,2.9,1.79"/><path class="cls-3" d="M434.81,294.77l-3.15,2.78a.57.57,0,0,1-.8-.05l-.16-.18a.57.57,0,0,1,.05-.8l2.83-2.49.61-.53a.57.57,0,0,1,.8.05l.15.18a.57.57,0,0,1-.05.8Z"/><path class="cls-3" d="M431.54,292.78l-3.49,2.62a.57.57,0,0,1-.8-.12l-.14-.19a.57.57,0,0,1,.12-.8l3-2.27.64-.47a.57.57,0,0,1,.8.12l.14.19a.56.56,0,0,1-.11.8l-.17.13"/><path class="cls-3" d="M438.12,296.75l-3,3a.57.57,0,0,1-.8,0l-.17-.17a.57.57,0,0,1,0-.8l2.78-2.78.46-.46a.56.56,0,0,1,.8,0l.17.17a.57.57,0,0,1,0,.8Z"/><path class="cls-3" d="M441.29,298.69l-2.49,3.23a.57.57,0,0,1-.8.1l-.19-.14a.57.57,0,0,1-.11-.8l2.38-3.1.42-.53a.58.58,0,0,1,.8-.1l.19.14a.58.58,0,0,1,.1.8Z"/><path class="cls-3" d="M441.31,298.7l1.19.69a48,48,0,0,0,5.57,2.82c4.16,1.68,14.25,6,14.25,6a6.5,6.5,0,0,1,.05,3.89c-.7,1.57-16.52,1.68-22.62,1-1.49-.16-3.36-.4-5.44-.68-5.73-.77-13-1.85-17.94-2.36l-1.58-.14c-6.48-.54-10.85-.86-12.09-2.48-.64-.83-.44-5.16.3-9.21a33.72,33.72,0,0,1,.76-3.29c.57-2,1.27-3.53,2.08-4a1,1,0,0,1,.58-.19c2.8,0,2,7.29,6.43,7.29,3.85,0,7-2,9.48-3.91,2.19-1.7,3.74-3.32,4.62-3.32a7.64,7.64,0,0,1,3.18,1.19l.12.07"/><path class="cls-3" d="M438.19,296.82l1.91,1.16h0"/><path class="cls-3" d="M434.81,294.77l.25.15c.52.29,1.13.67,1.83,1.09"/><path class="cls-3" d="M431.54,292.78h0l2,1.25"/><path class="cls-1" d="M745.72,87.16a3.34,3.34,0,0,1,1.56-.63c2.21-.32,7.22-.13,8.62-2.65a5.19,5.19,0,0,1,3,5.51c-4.23,3.37-12.05,4.27-18.13,4.27a38.38,38.38,0,0,1-5.67-.53c.91-1.54,2-4,4.89-4C744,89.11,744.65,87.94,745.72,87.16Z"/><path class="cls-5" d="M755.9,83.87h0c-1.4,2.52-6.41,2.33-8.62,2.65a3.34,3.34,0,0,0-1.56.63c-.08-.28-1.44-4.66-3.77-5.53V80c.54.3.95.53,1.19.64a26.17,26.17,0,0,0,9.53,2.46A7.3,7.3,0,0,1,755.9,83.87Z"/><path class="cls-5" d="M745.72,87.16c-1.08.78-1.76,1.95-5.69,1.95-2.91,0-4,2.48-4.89,4-2.19-.34-4.51-.8-6.75-1.25l-3-1.92.13-.19,9.76-8.27L738,83s1.74-2,3.68-1.47l.24.08C744.28,82.5,745.64,86.88,745.72,87.16Z"/><path class="cls-5" d="M723.35,72.19,721,71.13l-3.23,3,1.77,1,5.31-2.25ZM734.87,76l3.55,2L742,80v1.65l-.24-.08C739.79,81,738,83,738,83l-2.79-1.52-2.88-1.58L729,78.1l-2.68-1.47-1.2-.66a3,3,0,0,0-2.52-.15l-3,1.2a1.94,1.94,0,0,1-1.9-.26l-3.39-2.63c3.24-1.8,5.23-4.63,7.16-4.63a16.59,16.59,0,0,1,4.82,1.85c.47.23,1,.48,1.49.75,1.13.58,2.33,1.22,3.55,1.88Z"/><path class="cls-5" d="M735.26,81.49l-9.76,8.27-.13.19-2.89-1.84.4-.09,9.42-8,.08-.14Z"/><path class="cls-5" d="M732.38,79.92l-.08.14-9.42,8-.4.09-3-1.88,0,0,9.42-8,.08-.14Z"/><path class="cls-5" d="M726.36,76.63,729,78.1l-.08.14-9.42,8,0,0L717,84.61Z"/><path class="cls-5" d="M725.16,76l1.2.66-9.41,8-7.51-4.77c-3.16-2-3.13-3.08-2.92-4.68a7,7,0,0,0,2.41.41,10.91,10.91,0,0,0,5.38-1.43l3.39,2.63a1.94,1.94,0,0,0,1.9.26l3-1.2A3,3,0,0,1,725.16,76Z"/><path class="cls-5" d="M725.37,90l3,1.92c-3.5-.69-6.79-1.39-9.09-1.58-1.84-.15-4.43-.26-7.32-.42l-1.13-3a2.85,2.85,0,0,0-2.3-1.82l-12.37-1.64a13.41,13.41,0,0,0-.46-3,13.17,13.17,0,0,1-.07-4.85c1.92,1.27,3.7,2,5,.38s2.54-3.25,2.54-3.25a7.68,7.68,0,0,0,3.3,2.47c-.2,1.6-.24,2.7,2.92,4.68L717,84.61l2.57,1.63,3,1.88Z"/><path class="cls-1" d="M710.85,86.86l1.13,3a121.7,121.7,0,0,1-15.81-1.55h0a38.93,38.93,0,0,0,.05-5L708.56,85A2.85,2.85,0,0,1,710.85,86.86Z"/><path class="cls-1" d="M703.21,72.69s-1.23,1.63-2.54,3.25-3.09.89-5-.38c.38-2.85,1.43-6,3.41-7C700.54,67.76,701.35,70.42,703.21,72.69Z"/><path class="cls-3" d="M755.9,83.88a5.19,5.19,0,0,1,3,5.51c0,.16,0,.32-.08.49-1,4.58-12.3,6.17-18.74,6.17H699.7c-2.75,0-4.4-1.65-3.87-4.95.14-.83.24-1.78.3-2.77a38.93,38.93,0,0,0,.05-5,13.41,13.41,0,0,0-.46-3,13.17,13.17,0,0,1-.07-4.85c.38-2.85,1.43-6,3.41-7,1.47-.78,2.28,1.88,4.14,4.14a7.68,7.68,0,0,0,3.3,2.47,7,7,0,0,0,2.41.41,10.91,10.91,0,0,0,5.38-1.43c3.24-1.8,5.23-4.63,7.16-4.63a16.59,16.59,0,0,1,4.82,1.85c.47.23,1,.48,1.49.75,1.13.58,2.33,1.22,3.55,1.88l3.55,2,3.55,2L742,80c.54.3.95.53,1.19.64a26.17,26.17,0,0,0,9.53,2.46,7.3,7.3,0,0,1,3.22.8"/><path class="cls-3" d="M696.18,83.39h0L708.56,85a2.85,2.85,0,0,1,2.3,1.82l1.13,3,2.31,6.17"/><path class="cls-3" d="M696.18,88.35A121.7,121.7,0,0,0,712,89.9c2.89.15,5.48.26,7.32.42,2.3.19,5.59.88,9.09,1.58,2.24.45,4.57.91,6.75,1.25a38.38,38.38,0,0,0,5.67.53c6.07,0,13.89-.9,18.13-4.27l.06,0"/><path class="cls-3" d="M714.3,74.13l3.39,2.63a1.94,1.94,0,0,0,1.9.26l3-1.2a3,3,0,0,1,2.52.15l1.2.66L729,78.1l3.34,1.82,2.88,1.58L738,83s1.74-2,3.68-1.47l.24.08c2.33.87,3.68,5.25,3.77,5.53v0"/><path class="cls-3" d="M695.66,75.56c1.92,1.27,3.7,2,5,.38s2.54-3.25,2.54-3.25"/><path class="cls-3" d="M706.52,75.16c-.2,1.6-.24,2.7,2.92,4.68L717,84.61l2.57,1.63,3,1.88L725.37,90l3,1.92"/><path class="cls-3" d="M735.15,93.13c.91-1.54,2-4,4.89-4,3.93,0,4.62-1.17,5.69-1.95a3.34,3.34,0,0,1,1.56-.63c2.21-.32,7.22-.13,8.62-2.65h0"/><line class="cls-3" x1="716.95" y1="84.61" x2="726.36" y2="76.63"/><line class="cls-3" x1="719.54" y1="86.22" x2="728.96" y2="78.24"/><line class="cls-3" x1="722.88" y1="88.03" x2="732.3" y2="80.05"/><line class="cls-3" x1="725.5" y1="89.77" x2="735.26" y2="81.49"/><polyline class="cls-10" points="727.77 73.73 727.77 72.11 727.77 70.93 726.28 71.36 723.35 72.19 721.25 72.8"/><polyline class="cls-2" points="731.32 72.91 731.32 73.99 731.32 75.7"/><polyline class="cls-2" points="734.87 74.88 734.87 75.95 734.87 77.67"/><polyline class="cls-2" points="738.41 76.84 738.41 77.96 738.41 79.64"/><polyline class="cls-2" points="741.96 78.82 741.96 79.98 741.96 81.61"/><polygon class="cls-10" points="721.03 71.13 723.35 72.19 724.88 72.91 719.57 75.16 717.8 74.13 721.03 71.13"/><path class="cls-4" d="M64.05,312.05a4.76,4.76,0,0,1-.08.48c-1,4.57-12.3,6.17-18.73,6.17H19.42l-2.31-6.17c2.89.15,5.48.27,7.32.42a92,92,0,0,1,9.09,1.58c2.24.45,4.57.91,6.76,1.25a38.27,38.27,0,0,0,5.66.53C52,316.31,59.81,315.42,64.05,312.05Z"/><path class="cls-1" d="M37.49,302.57l2.88,1.58-9.76,8.27-.13.2-2.89-1.84.41-.09,9.41-8Z"/><path class="cls-1" d="M34.16,300.74l-.08.15-9.41,8,0,0-2.58-1.64,9.41-8Z"/><path class="cls-4" d="M17.1,312.54l2.31,6.17H4.81c-2.75,0-4.4-1.65-3.87-5,.14-.83.24-1.78.3-2.77H1.3A118.68,118.68,0,0,0,17.1,312.54Z"/><path class="cls-4" d="M8.33,295.33S7.1,297,5.79,298.59s-3.08.89-5-.39c.39-2.85,1.43-6,3.42-7C5.65,290.41,6.47,293.07,8.33,295.33Z"/><path class="cls-3" d="M.77,298.2c.39-2.85,1.43-6,3.42-7,1.46-.77,2.27,1.88,4.13,4.15a7.59,7.59,0,0,0,3.31,2.47,7,7,0,0,0,2.4.41,10.82,10.82,0,0,0,5.38-1.43c3.24-1.8,5.23-4.64,7.16-4.64A16.83,16.83,0,0,1,31.41,294l1.48.75c1.13.58,2.33,1.23,3.55,1.89s2.39,1.31,3.55,2l3.55,2,3.55,2c.53.3.94.52,1.19.64a26.17,26.17,0,0,0,9.53,2.45,7.2,7.2,0,0,1,3.22.8,5.2,5.2,0,0,1,3,5.53,4.76,4.76,0,0,1-.08.48c-1,4.57-12.3,6.17-18.73,6.17H4.81c-2.75,0-4.4-1.65-3.87-5,.14-.83.24-1.78.3-2.77A38.78,38.78,0,0,0,1.3,306a13.4,13.4,0,0,0-.45-3A13,13,0,0,1,.77,298.2Z"/><path class="cls-3" d="M1.3,306l12.37,1.63A2.85,2.85,0,0,1,16,309.5l1.13,3,2.31,6.17"/><path class="cls-3" d="M1.3,311a118.68,118.68,0,0,0,15.8,1.55c2.89.15,5.48.27,7.32.42a92,92,0,0,1,9.09,1.58c2.24.45,4.57.91,6.76,1.25a38.27,38.27,0,0,0,5.66.53c6.06,0,13.88-.9,18.13-4.26l.07-.05"/><path class="cls-3" d="M19.42,296.78l3.39,2.62a1.92,1.92,0,0,0,1.9.27l3-1.21a3,3,0,0,1,2.53.16l1.19.65,2.68,1.47,3.33,1.83,2.88,1.58,2.79,1.52s1.74-2,3.67-1.47l.25.08c2.34.89,3.7,5.29,3.77,5.53h0"/><path class="cls-3" d="M.77,298.2c1.93,1.28,3.7,2,5,.39s2.54-3.25,2.54-3.25"/><path class="cls-3" d="M11.64,297.81c-.2,1.59-.25,2.69,2.91,4.68l7.51,4.76,2.58,1.64,2.95,1.88,2.89,1.84,3,1.92"/><path class="cls-3" d="M40.27,315.78c.91-1.54,2-4,4.88-4,3.93,0,4.62-1.17,5.7-1.95a3.31,3.31,0,0,1,1.55-.63c2.21-.32,7.24-.13,8.62-2.66"/><line class="cls-3" x1="22.07" y1="307.25" x2="31.48" y2="299.27"/><line class="cls-3" x1="24.67" y1="308.87" x2="34.08" y2="300.89"/><line class="cls-3" x1="28" y1="310.68" x2="37.41" y2="302.7"/><line class="cls-3" x1="30.61" y1="312.41" x2="40.37" y2="304.14"/><polyline class="cls-10" points="32.89 296.38 32.89 294.75 32.89 293.58 31.41 294 28.46 294.84 26.37 295.44"/><polyline class="cls-2" points="36.44 295.56 36.44 296.64 36.44 298.35"/><polyline class="cls-2" points="39.99 297.52 39.99 298.6 39.99 300.31"/><polyline class="cls-2" points="43.54 299.49 43.54 300.62 43.54 302.29"/><polyline class="cls-2" points="47.09 301.46 47.09 302.64 47.09 304.25"/><polygon class="cls-10" points="26.14 293.78 28.46 294.84 30 295.56 24.69 297.81 22.91 296.78 26.14 293.78"/><path class="cls-1" d="M557.22,245.84a12,12,0,0,1,.33,5.26h0a21.5,21.5,0,0,1-7.15,2.35,48.48,48.48,0,0,1-6.39-5.23.63.63,0,0,1,.4-1.08c4.37-.3,9.49-1.36,12-2.52A2.24,2.24,0,0,1,557.22,245.84Z"/><path class="cls-6" d="M557.55,251.11a3.59,3.59,0,0,1-.46,1.09c-1.59,2.43-7.07,5.78-12.24,6.49l-.06,0c-.56-.41-5.1-3.66-6.16-3.66-4.17,0-6.72,4.27-6.72,4.27l-1.38-1.42-3.2-3.21a1.59,1.59,0,0,0-2-.22l-7.56,4.85.86-3.39a1.65,1.65,0,0,0-1-2l-5.89-2.17a4.18,4.18,0,0,0-3.37.21l-12.09,6.34c-1.22-.79-2.29-2.24-2-4.87l.72-4a1.29,1.29,0,0,1,.29-.6,21.11,21.11,0,0,1,2.74-.27,23.85,23.85,0,0,1,5.21.34A17.36,17.36,0,0,1,507.1,250a10.18,10.18,0,0,1,4.77-1.52c1.13,0,3.27.91,5.25,1.87,2.29,1.11,4.34,2.31,4.34,2.31a21.27,21.27,0,0,1,3.16-1.2,8.4,8.4,0,0,1,2.1-.34,10.19,10.19,0,0,1,4.51,1.54l3.71-.56a54.69,54.69,0,0,0,12.15,1.58,22.49,22.49,0,0,0,3.3-.25A21.5,21.5,0,0,0,557.55,251.11Z"/><path class="cls-1" d="M533.12,238.42a57.63,57.63,0,0,0,5.61,2.18,155.39,155.39,0,0,0,16.69,3.57,2.23,2.23,0,0,1,1,.47c-2.55,1.17-7.67,2.22-12,2.52a.63.63,0,0,0-.4,1.08,48.48,48.48,0,0,0,6.39,5.23,22.49,22.49,0,0,1-3.3.25,54.69,54.69,0,0,1-12.15-1.58l-3.71.56a10.19,10.19,0,0,0-4.51-1.54,8.4,8.4,0,0,0-2.1.34l3.63-2.18a1.36,1.36,0,0,0-.17-2.41l-27.94-11.35.24-.49s3.65-3.63,5.72-3.63c1.26,0,2.56,6.9,5,6.9.9,0,3-1.79,5.33-3.27,1.86-1.19,3.88-2.18,5.56-1.91a2.62,2.62,0,0,1,.79.23l.14.07c.92.42,2.17,1.05,3.61,1.79l3.35,1.65C530.89,237.4,532,237.92,533.12,238.42Z"/><path class="cls-6" d="M544.79,258.65l-1.71-1.07-1.82,1.68h-9.35s2.56-4.27,6.72-4.27C539.69,255,544.23,258.24,544.79,258.65Z"/><path class="cls-6" d="M527.33,254.63l3.2,3.21-1.69,1.42H517.76l7.56-4.85A1.59,1.59,0,0,1,527.33,254.63Z"/><path class="cls-6" d="M528.08,246.89a1.36,1.36,0,0,1,.17,2.41l-3.63,2.18a21.27,21.27,0,0,0-3.16,1.2s-2.06-1.2-4.34-2.31l1.3-1.19c1.3-1.19-.73-1.87-.73-1.87l-4-1.62a5.48,5.48,0,0,0-4.79.07c-1.69.81-5.67,3.1-5.67,3.1a23.85,23.85,0,0,0-5.21-.34v0s3.07-2.41,4.75-3.83-1.67-2.81-3.28-3.68a2.37,2.37,0,0,1-.63-2.86l1.26-2.59h0Z"/><path class="cls-1" d="M522,233.15c-1.68-.27-3.69.72-5.56,1.91,0,0-2.69-6.23-2.38-7.37s3.39-.4,4.56.36S522,233.15,522,233.15Z"/><path class="cls-6" d="M517.59,253.92a1.65,1.65,0,0,1,1,2l-.86,3.39H499.18a6.51,6.51,0,0,1-2.94-1L508.33,252a4.18,4.18,0,0,1,3.37-.21Z"/><path class="cls-1" d="M517.69,247.32s2,.69.73,1.87l-1.3,1.19c-2-1-4.12-1.87-5.25-1.87A10.18,10.18,0,0,0,507.1,250a17.36,17.36,0,0,0-3.87-1.15s4-2.29,5.67-3.1a5.48,5.48,0,0,1,4.79-.07Z"/><path class="cls-1" d="M499.49,241c1.61.86,5,2.26,3.28,3.68S498,248.5,498,248.5v0a21.11,21.11,0,0,0-2.74.27,1.3,1.3,0,0,1,.7-.46,4,4,0,0,0,2.91-3.5Z"/><path class="cls-10" d="M544.79,258.65l-1.71-1.07-1.82,1.68h-9.35l-1.38-1.42-1.69,1.42H499.18a6.51,6.51,0,0,1-2.94-1c-1.22-.79-2.29-2.24-2-4.87l.72-4a1.29,1.29,0,0,1,.29-.6,1.3,1.3,0,0,1,.7-.46,4,4,0,0,0,2.91-3.5l.6-3.85a2.37,2.37,0,0,1-.63-2.86l1.26-2.59"/><path class="cls-10" d="M557.55,251.11a3.59,3.59,0,0,1-.46,1.09c-1.59,2.43-7.07,5.78-12.24,6.49"/><path class="cls-10" d="M500.14,235.55l.24-.49s3.65-3.63,5.72-3.63c1.26,0,2.56,6.9,5,6.9.9,0,3-1.79,5.33-3.27,1.86-1.19,3.88-2.18,5.56-1.91a2.62,2.62,0,0,1,.79.23l.14.07c.92.42,2.17,1.05,3.61,1.79l3.35,1.65c1.06.52,2.16,1,3.29,1.54a57.63,57.63,0,0,0,5.61,2.18,155.39,155.39,0,0,0,16.69,3.57,2.3,2.3,0,0,1,1.81,1.68,12,12,0,0,1,.33,5.26"/><path class="cls-10" d="M522,233.15s-2.2-4.36-3.38-5.11-4.23-1.5-4.56-.36,2.38,7.37,2.38,7.37"/><path class="cls-10" d="M495.28,248.8a21.11,21.11,0,0,1,2.74-.27,23.85,23.85,0,0,1,5.21.34A17.36,17.36,0,0,1,507.1,250a10.18,10.18,0,0,1,4.77-1.52c1.13,0,3.27.91,5.25,1.87,2.29,1.11,4.34,2.31,4.34,2.31a21.27,21.27,0,0,1,3.16-1.2,8.4,8.4,0,0,1,2.1-.34,10.19,10.19,0,0,1,4.51,1.54l3.71-.56a54.69,54.69,0,0,0,12.15,1.58,22.49,22.49,0,0,0,3.3-.25,21.5,21.5,0,0,0,7.15-2.35h0"/><path class="cls-10" d="M496.24,258.29,508.33,252a4.18,4.18,0,0,1,3.37-.21l5.89,2.17a1.65,1.65,0,0,1,1,2l-.86,3.39,7.56-4.85a1.59,1.59,0,0,1,2,.22l3.2,3.21"/><path class="cls-10" d="M531.91,259.26s2.56-4.27,6.72-4.27c1.06,0,5.6,3.25,6.16,3.66l.06,0"/><path class="cls-10" d="M500.13,235.55h0l27.94,11.35a1.36,1.36,0,0,1,.17,2.41l-3.63,2.18"/><path class="cls-10" d="M499.49,241c1.61.86,5,2.26,3.28,3.68S498,248.5,498,248.5"/><path class="cls-10" d="M503.23,248.87s4-2.29,5.67-3.1a5.48,5.48,0,0,1,4.79-.07l4,1.62s2,.69.73,1.87l-1.3,1.19"/><path class="cls-10" d="M556.44,244.63c-2.55,1.17-7.67,2.22-12,2.52a.63.63,0,0,0-.4,1.08,48.48,48.48,0,0,0,6.39,5.23"/><polyline class="cls-10" points="519.38 236.37 522.88 233.44 523.47 232.94"/><polyline class="cls-10" points="525.29 236.59 526.49 235.23 527 234.66"/><polyline class="cls-10" points="528.54 238.27 529.83 236.88 530.39 236.29"/><polyline class="cls-10" points="532.11 239.59 533.12 238.43 533.59 237.87"/><path class="cls-4" d="M318.72,21.61a.62.62,0,0,1,.54-.39c4.36-.3,9.49-1.36,12-2.52a2.24,2.24,0,0,1,.79,1.21,11.87,11.87,0,0,1,.32,5.27,21.5,21.5,0,0,1-7.15,2.35,47.92,47.92,0,0,1-6.39-5.23A.61.61,0,0,1,318.72,21.61Z"/><path class="cls-1" d="M332.41,25.17a3.51,3.51,0,0,1-.46,1.09c-1.59,2.43-7.07,5.78-12.24,6.49l-1.77-1.11-1.82,1.68H311.8l-1.47-1.42-1.47,1.42h-2.09l-1.55-1.42-1.52,1.42h-8l-.42-1.79h-2l-.41,1.79,1-4.45a.91.91,0,0,0-.54-1l-1-.44.85-2,3.2,1.36a21.27,21.27,0,0,1,3.16-1.2,8.4,8.4,0,0,1,2.1-.34,10.14,10.14,0,0,1,4.51,1.54l3.72-.56A54.69,54.69,0,0,0,322,27.76a22.49,22.49,0,0,0,3.3-.25A21.5,21.5,0,0,0,332.41,25.17Z"/><path class="cls-4" d="M330.26,18.23a2.26,2.26,0,0,1,1,.47c-2.55,1.17-7.67,2.22-12,2.52a.62.62,0,0,0-.54.39,72.64,72.64,0,0,0-16.11-6.77c-4.41-1.25-9.27-.12-11.15,1.46L275,9.61l.24-.49s3.66-3.63,5.72-3.63c1.27,0,2.56,6.9,5,6.9.91,0,3-1.79,5.33-3.27,1.86-1.19,3.88-2.18,5.56-1.91a2.62,2.62,0,0,1,.79.23c3.13,1.42,10.15,5.38,16,7.22A154.84,154.84,0,0,0,330.26,18.23Z"/><path class="cls-5" d="M325.26,27.52a22.49,22.49,0,0,1-3.3.25,54.69,54.69,0,0,1-12.15-1.58l-3.72.56a10.14,10.14,0,0,0-4.51-1.54,8.4,8.4,0,0,0-2.1.34l3.62-2.18a1.36,1.36,0,0,0-.16-2.41L291.46,16.3c1.88-1.58,6.73-2.71,11.15-1.46a72.64,72.64,0,0,1,16.11,6.77.61.61,0,0,0,.14.69A47.92,47.92,0,0,0,325.26,27.52Z"/><path class="cls-4" d="M302.94,21a1.36,1.36,0,0,1,.16,2.41l-3.62,2.18a21.27,21.27,0,0,0-3.16,1.2l-3.2-1.36-1.15-.5.32-.75,1-.9c1.29-1.19-.74-1.87-.74-1.87l-4-1.62a5.48,5.48,0,0,0-4.79.07c-1.69.81-5.44,3-5.44,3l0,.08a27.72,27.72,0,0,0-5.43-.27v0s3.06-2.41,4.74-3.83-1.67-2.81-3.27-3.68a2.36,2.36,0,0,1-.64-2.86L275,9.61l16.47,6.69Z"/><path class="cls-4" d="M296.82,7.21c-1.69-.27-3.7.72-5.56,1.91,0,0-2.69-6.23-2.37-7.37s3.38-.4,4.56.36S296.82,7.21,296.82,7.21Z"/><path class="cls-1" d="M293.32,27.84a.91.91,0,0,1,.54,1l-1,4.45h-4.76l-.41-1.79h-2l-.41,1.79h-2.91L282,31.53h-2l-.41,1.79H274a5.88,5.88,0,0,1-.94-.14L287,25.55a.91.91,0,0,1,.8,0l4.52,1.9Z"/><path class="cls-5" d="M292.29,24.15l-.32.75c-2-.87-4.22-1.84-5.24-2.33s-3.79,1.3-4.1,1.51l0,0a17.91,17.91,0,0,0-4.29-1.22l0-.08s3.74-2.15,5.44-3a5.48,5.48,0,0,1,4.79-.07l4,1.62s2,.69.74,1.87Z"/><path class="cls-1" d="M282.63,24.07c.31-.2,3.13-2,4.1-1.51S289.94,24,292,24.89l1.15.5-.85,2-4.52-1.9a.91.91,0,0,0-.8,0l-13.86,7.63a4.77,4.77,0,0,1-4-5.69l.47-2.57,4.22,3a1.3,1.3,0,0,0,1.41.07c1.14-.64,4.84-2.46,7.39-3.87Z"/><path class="cls-1" d="M282.61,24.09c-2.56,1.41-6.25,3.23-7.39,3.87a1.3,1.3,0,0,1-1.41-.07l-4.22-3,.26-1.45a1.36,1.36,0,0,1,.28-.6,24.88,24.88,0,0,1,2.75-.26,27.72,27.72,0,0,1,5.43.27A17.91,17.91,0,0,1,282.61,24.09Z"/><path class="cls-5" d="M274.36,15.06c1.6.86,5,2.26,3.27,3.68s-4.74,3.83-4.74,3.83v0a24.88,24.88,0,0,0-2.75.26,1.35,1.35,0,0,1,.71-.46,4,4,0,0,0,2.91-3.5Z"/><path class="cls-10" d="M296.82,7.21s-2.2-4.36-3.38-5.11-4.23-1.5-4.56-.36,2.37,7.37,2.37,7.37"/><path class="cls-10" d="M282.63,24.07c.31-.2,3.13-2,4.1-1.51S289.94,24,292,24.89l1.15.5,3.2,1.36a21.27,21.27,0,0,1,3.16-1.2,8.4,8.4,0,0,1,2.1-.34,10.14,10.14,0,0,1,4.51,1.54l3.72-.56A54.69,54.69,0,0,0,322,27.76a22.49,22.49,0,0,0,3.3-.25,21.5,21.5,0,0,0,7.15-2.35h0"/><path class="cls-10" d="M270.13,22.86a24.88,24.88,0,0,1,2.75-.26,27.72,27.72,0,0,1,5.43.27,17.91,17.91,0,0,1,4.29,1.22"/><path class="cls-10" d="M275,9.61l16.47,6.69L302.94,21a1.36,1.36,0,0,1,.16,2.41l-3.62,2.18"/><path class="cls-10" d="M274.36,15.06c1.6.86,5,2.26,3.27,3.68s-4.74,3.83-4.74,3.83"/><path class="cls-10" d="M278.33,22.79s3.74-2.15,5.44-3a5.48,5.48,0,0,1,4.79-.07l4,1.62s2,.69.74,1.87l-1,.9-.31.29"/><path class="cls-10" d="M331.3,18.69c-2.55,1.17-7.67,2.22-12,2.52a.63.63,0,0,0-.4,1.08,47.92,47.92,0,0,0,6.39,5.23"/><path class="cls-10" d="M332.41,25.17a11.87,11.87,0,0,0-.32-5.27,2.29,2.29,0,0,0-1.82-1.68,154.84,154.84,0,0,1-16.68-3.57c-5.84-1.85-12.85-5.8-16-7.22a2.62,2.62,0,0,0-.79-.23c-1.69-.27-3.7.72-5.56,1.91-2.33,1.48-4.42,3.27-5.33,3.27-2.42,0-3.71-6.9-5-6.9-2.06,0-5.72,3.63-5.72,3.63l-.24.49-1.27,2.59a2.36,2.36,0,0,0,.64,2.86l-.6,3.85a4,4,0,0,1-2.91,3.5,1.36,1.36,0,0,0-1,1.06l-.26,1.45-.47,2.57a4.77,4.77,0,0,0,4,5.69,5.88,5.88,0,0,0,.94.14h5.58l.41-1.79h2l.42,1.79h2.91l.41-1.79h2l.41,1.79h4.76l.41-1.79h2l.42,1.79h8l1.52-1.42,1.55,1.42h2.09l1.47-1.42,1.47,1.42h4.32l1.82-1.68,1.77,1.11c5.17-.71,10.65-4.06,12.24-6.49A3.51,3.51,0,0,0,332.41,25.17Z"/><path class="cls-10" d="M283.88,23.37c-.36.22-.79.46-1.25.7l0,0c-2.56,1.41-6.25,3.23-7.39,3.87a1.3,1.3,0,0,1-1.41-.07l-4.22-3"/><path class="cls-10" d="M273.09,33.18,287,25.55a.91.91,0,0,1,.8,0l4.52,1.9,1,.44a.91.91,0,0,1,.54,1l-1,4.45"/><path class="cls-10" d="M318.75,21.62l0,0a72.64,72.64,0,0,0-16.11-6.77c-4.41-1.25-9.27-.12-11.15,1.46"/><path class="cls-4" d="M488.86,25.63c.08,2-7.64,7-18.35,7H428.9c-2.66,0-4-1.36-2.61-5.24a121.09,121.09,0,0,1,13.86,1.2h0l4.36.56c1.86.25,3.72.48,5.55.7,2.07.25,4.09.47,6,.64,2.16.19,4.18.3,6,.3h.23c9.85,0,18.85.55,26.08-6.45C488.38,24.39,488.77,23.6,488.86,25.63Z"/><path class="cls-1" d="M480.31,18.82c4.56.8,8.06,2,8.06,5.56-7.22,7-16.23,6.46-26.08,6.45L471,20.07a14.28,14.28,0,0,0,3.83.61C477.75,20.68,479.53,19.68,480.31,18.82Z"/><path class="cls-1" d="M468.63,16.08a22.7,22.7,0,0,0,3.32,1.3,12.39,12.39,0,0,0,1.47.36l1.82.3c1.74.28,3.47.51,5.06.79-.79.86-2.57,1.86-5.45,1.86a14.28,14.28,0,0,1-3.83-.61,32.85,32.85,0,0,1-4.94-1.88c-1.55-.71-3.1-1.53-4.58-2.39s-2.84-1.69-4.07-2.52a43.43,43.43,0,0,1-4.82-3.59,19,19,0,0,0,2.87-2.46s1.43,1.24,3.61,2.88c.94.7,2,1.47,3.18,2.26,1,.68,2.07,1.36,3.16,2S467.57,15.57,468.63,16.08Z"/><path class="cls-4" d="M471,20.07,462.3,30.84h-.23c-1.81,0-3.84-.11-6-.3l10-12.35A32.85,32.85,0,0,0,471,20.07Z"/><path class="cls-1" d="M466.1,18.19l-10,12.35c-1.91-.17-3.94-.39-6-.64l11.45-14.1C463,16.66,464.55,17.48,466.1,18.19Z"/><path class="cls-4" d="M461.52,15.81l-11.45,14.1c-1.83-.22-3.68-.46-5.55-.7l12.92-15.91C458.68,14.11,460.06,15,461.52,15.81Z"/><path class="cls-1" d="M457.45,13.29,444.52,29.2l-4.36-.56h0c1.1-10.59-7.65-12.79-13.12-14.5a26.42,26.42,0,0,1,1.59-3,8.41,8.41,0,0,0,1.47.82,23,23,0,0,0,9.6,1.82A22.16,22.16,0,0,0,452.63,9.7,43.43,43.43,0,0,0,457.45,13.29Z"/><path class="cls-1" d="M427,14.14c5.47,1.71,14.22,3.91,13.12,14.5a121.09,121.09,0,0,0-13.86-1.2s-1.69-6.06-.58-9.78A28.25,28.25,0,0,1,427,14.14Z"/><path class="cls-10" d="M430.1,11.93a23,23,0,0,0,9.6,1.82A22.16,22.16,0,0,0,452.63,9.7a19,19,0,0,0,2.87-2.46s1.43,1.24,3.61,2.88c.94.7,2,1.47,3.18,2.26,1,.68,2.07,1.36,3.16,2s2.13,1.19,3.19,1.7a22.7,22.7,0,0,0,3.32,1.3,12.39,12.39,0,0,0,1.47.36l1.82.3c1.74.28,3.47.51,5.06.79,4.56.8,8.06,2,8.06,5.56,0,0,.39-.79.48,1.25s-7.64,7-18.35,7H428.9c-2.66,0-4-1.36-2.61-5.24,0,0-1.69-6.06-.58-9.78A28.25,28.25,0,0,1,427,14.14a26.42,26.42,0,0,1,1.59-3A8.41,8.41,0,0,0,430.1,11.93Z"/><path class="cls-10" d="M428.63,11.11c-.26-2.6-.5-6.17,1.47-6.17,2.41,0,0,7,0,7"/><path class="cls-10" d="M440.16,28.65l4.36.56c1.86.25,3.72.48,5.55.7,2.07.25,4.09.47,6,.64,2.16.19,4.18.3,6,.3h.23c9.85,0,18.85.55,26.08-6.45"/><path class="cls-10" d="M426.29,27.43a121.09,121.09,0,0,1,13.86,1.2"/><path class="cls-10" d="M452.59,9.67l0,0a43.43,43.43,0,0,0,4.82,3.59c1.24.82,2.62,1.69,4.07,2.52s3,1.68,4.58,2.39A32.85,32.85,0,0,0,471,20.07a14.28,14.28,0,0,0,3.83.61c2.88,0,4.66-1,5.45-1.86"/><path class="cls-10" d="M427,14.14c5.47,1.71,14.22,3.91,13.12,14.5h0"/><line class="cls-10" x1="444.52" y1="29.2" x2="457.45" y2="13.29"/><line class="cls-10" x1="450.07" y1="29.91" x2="461.52" y2="15.81"/><line class="cls-10" x1="456.07" y1="30.54" x2="466.1" y2="18.19"/><line class="cls-10" x1="462.3" y1="30.84" x2="471.04" y2="20.07"/><polyline class="cls-10" points="459.11 8.87 459.11 10.11 459.11 11.94"/><polyline class="cls-10" points="462.28 11.06 462.28 12.38 462.28 13.59"/><polyline class="cls-10" points="465.44 13.3 465.44 14.37 465.44 15.59"/><polyline class="cls-10" points="468.63 15.18 468.63 16.08 468.63 17.31"/><polyline class="cls-10" points="471.95 16.54 471.95 17.37 471.95 18.21"/><polyline class="cls-10" points="475.25 17.31 475.25 18.03 475.25 18.82"/><path class="cls-1" d="M222.93,84.56c.09,2-7.63,7-18.35,7H163c-2.66,0-4-1.36-2.6-5.24a121.09,121.09,0,0,1,13.86,1.2c6.22.8,12.81,1.74,18.24,2.08q1.94.13,3.66.13c9.94,0,19,.6,26.32-6.45C222.46,83.31,222.85,82.53,222.93,84.56Z"/><path class="cls-4" d="M214.4,77.75c4.56.8,8.06,2,8.06,5.56-7.28,7.06-16.37,6.45-26.32,6.45q-1.72,0-3.66-.13c5.07-3.38,5.59-9.19,5.14-13.79,3.94,2.08,8.15,3.76,11.32,3.76C211.83,79.61,213.6,78.61,214.4,77.75Z"/><path class="cls-4" d="M202.71,75A22.79,22.79,0,0,0,206,76.3a12.67,12.67,0,0,0,1.47.36l1.83.3c1.74.28,3.47.52,5.06.79-.8.86-2.57,1.86-5.45,1.86-3.18,0-7.39-1.68-11.32-3.76-1.54-.81-3-1.69-4.44-2.57a51.74,51.74,0,0,1-6.48-4.66,18.49,18.49,0,0,0,2.86-2.46S191,67.41,193.19,69c.94.7,2,1.48,3.17,2.26s2.08,1.36,3.17,2S201.64,74.5,202.71,75Z"/><path class="cls-4" d="M197.63,75.85c.45,4.6-.07,10.41-5.14,13.79-5.43-.33-12-1.28-18.24-2.08a13.11,13.11,0,0,0-.54-5.77h0s14.84,1.52,19.48-8.51C194.58,74.16,196.08,75,197.63,75.85Z"/><path class="cls-4" d="M164.17,70.86a22.77,22.77,0,0,0,9.6,1.83,22.19,22.19,0,0,0,12.94-4.06,51.74,51.74,0,0,0,6.48,4.66c-4.64,10-19.48,8.51-19.48,8.51h0c-2-5.75-8.29-7.39-12.58-8.74a26.68,26.68,0,0,1,1.59-3A8.21,8.21,0,0,0,164.17,70.86Z"/><path class="cls-4" d="M173.7,81.8a13.11,13.11,0,0,1,.54,5.77,121.09,121.09,0,0,0-13.86-1.2s-1.69-6.06-.58-9.78a29.27,29.27,0,0,1,1.33-3.52C165.41,74.4,171.72,76,173.7,81.8Z"/><path class="cls-10" d="M164.17,70.86a22.77,22.77,0,0,0,9.6,1.83,22.19,22.19,0,0,0,12.94-4.06,18.49,18.49,0,0,0,2.86-2.46S191,67.41,193.19,69c.94.7,2,1.48,3.17,2.26s2.08,1.36,3.17,2,2.12,1.19,3.18,1.7A22.79,22.79,0,0,0,206,76.3a12.67,12.67,0,0,0,1.47.36l1.83.3c1.74.28,3.47.52,5.06.79,4.56.8,8.06,2,8.06,5.56,0,0,.39-.79.47,1.25s-7.63,7-18.35,7H163c-2.66,0-4-1.36-2.6-5.24,0,0-1.69-6.06-.58-9.78a29.27,29.27,0,0,1,1.33-3.52,26.68,26.68,0,0,1,1.59-3A8.21,8.21,0,0,0,164.17,70.86Z"/><path class="cls-10" d="M162.71,70c-.26-2.6-.51-6.17,1.46-6.17,2.36,0,.12,6.65,0,7h0"/><path class="cls-10" d="M160.38,86.36a121.09,121.09,0,0,1,13.86,1.2c6.22.8,12.81,1.74,18.24,2.08q1.94.13,3.66.13c9.94,0,19,.6,26.32-6.45"/><path class="cls-10" d="M186.67,68.6l0,0a51.74,51.74,0,0,0,6.48,4.66c1.39.87,2.9,1.75,4.44,2.57,3.94,2.08,8.15,3.76,11.32,3.76,2.88,0,4.65-1,5.45-1.86"/><path class="cls-10" d="M161.12,73.06c4.29,1.35,10.6,3,12.58,8.74a13.11,13.11,0,0,1,.54,5.77"/><polyline class="cls-10" points="193.19 67.8 193.19 69.04 193.19 70.86"/><polyline class="cls-10" points="196.35 69.99 196.35 71.31 196.35 72.52"/><polyline class="cls-10" points="199.52 72.23 199.52 73.3 199.52 74.51"/><polyline class="cls-10" points="202.71 74.11 202.71 75.01 202.71 76.23"/><polyline class="cls-10" points="206.04 75.46 206.04 76.3 206.04 77.14"/><polyline class="cls-10" points="209.33 76.23 209.33 76.96 209.33 77.75"/><path class="cls-10" d="M193.19,73.29c-4.64,10-19.48,8.51-19.48,8.51"/><path class="cls-10" d="M197.63,75.85c.45,4.6-.07,10.41-5.14,13.79"/><path class="cls-5" d="M465.71,207a4,4,0,0,1-1.18,2.58l-.12-.1a10.34,10.34,0,0,1-1.53.76c0-1.51-.87-2.73-3.17-3.26-2.58-.61-5.37.86-10.76.86s-9.33-1.23-14.3-3.07-17.72-7.13-20.37-8.27l0-.1c3.4.55,7.45,1.57,9.29,1.57,2.52,0,4.72-.58,4.79-1.8s-3.33-4.8-5-6.32c.64-.61,1.2-1.25,1.76-1.8a66,66,0,0,1,6.39,4.79c2.12,1.74,4.27,3.64,5.9,5.26.55.53,1,1,1.45,1.5,2.68,3,3.16,3.89,4.14,4.93.76.81,2.16,1.85,7.74,1.25s10-1.25,12-2.79l0,0A4.21,4.21,0,0,1,465.71,207Z"/><path class="cls-6" d="M462.88,210.23a10.34,10.34,0,0,0,1.53-.76l.12.1c-2.45,2.76-8.57,5.3-16.76,5.3H435.89v-.06a34.58,34.58,0,0,0-6.75-6.32,10.77,10.77,0,0,0-2.74-1C430.3,208.43,452.77,214.38,462.88,210.23Z"/><path class="cls-5" d="M462.79,202.94l0,0c-2,1.54-6.41,2.2-12,2.79s-7-.44-7.74-1.25c-1-1-1.47-2-4.14-4.93-.42-.46-.9-1-1.45-1.5l.19-.19a.73.73,0,0,0,.72.14l4.95-2.14c.34.19.66.38,1,.54,5.49,2.78,10.91,5.8,14.42,5.8A10.89,10.89,0,0,1,462.79,202.94Z"/><path class="cls-5" d="M459.71,207c2.3.53,3.13,1.75,3.17,3.26-10.1,4.14-32.58-1.8-36.48-2.78-5.19-1.39-14.54-2.18-15.95-2.3a4.1,4.1,0,0,0-2.35.37c-.58-.87-1.51-2.45-5.38-.21a20.44,20.44,0,0,1,.11-4.71l.23,0c2.34-2.95,4.4-4.57,7.85-4.57a22.73,22.73,0,0,1,3.38.35l0,.1c2.65,1.13,15.4,6.43,20.37,8.27s8.89,3.07,14.3,3.07S457.13,206.36,459.71,207Z"/><path class="cls-5" d="M443.27,195.89,438.32,198a.73.73,0,0,1-.72-.14.57.57,0,0,1-.12-.13l-.57-.81a.45.45,0,0,1,.17-.69l4-1.74,1-.44a.73.73,0,0,1,.84.26l.57.81a.45.45,0,0,1-.17.69Z"/><path class="cls-5" d="M441.1,194.52l-4,1.74a.45.45,0,0,0-.17.69l.57.81a.57.57,0,0,0,.12.13l-.19.19c-1.63-1.62-3.79-3.51-5.9-5.26l.1-.1a.7.7,0,0,0,.74.15l4.08-1.76,1.28,1-3.35,1.45a.45.45,0,0,0-.18.69l.57.81a.73.73,0,0,0,.84.26l4.09-1.77h0C440.16,193.87,440.63,194.2,441.1,194.52Z"/><path class="cls-5" d="M440.38,192.6a.45.45,0,0,1-.17.69l-.53.23h0l-4.09,1.77a.73.73,0,0,1-.84-.26l-.57-.81a.45.45,0,0,1,.18-.69l3.35-1.45,1.27-.55a.73.73,0,0,1,.84.26Z"/><path class="cls-5" d="M437.26,190.14a.44.44,0,0,1-.17.69l-.66.29-4.08,1.76a.7.7,0,0,1-.74-.15.41.41,0,0,1-.1-.11l-.57-.81a.44.44,0,0,1,.17-.69l3.35-1.45,1.39-.6a.73.73,0,0,1,.84.26Z"/><path class="cls-6" d="M408.11,205.52a4.1,4.1,0,0,1,2.35-.37c1.41.13,10.76.91,15.95,2.3a10.77,10.77,0,0,1,2.74,1,34.58,34.58,0,0,1,6.75,6.32v.06H405.32a3.77,3.77,0,0,1-2.14-.86l.14-.07,4.76-2.87a1.35,1.35,0,0,0,.44-1.9,6.43,6.43,0,0,1-1.15-2.52A1.29,1.29,0,0,1,408.11,205.52Zm16.6,5.4a1.52,1.52,0,0,0-1.52-1.52h-9.77a1.52,1.52,0,0,0,0,3h9.77A1.52,1.52,0,0,0,424.71,210.92Z"/><path class="cls-5" d="M434.46,189.66l-3.35,1.45a.44.44,0,0,0-.17.69l.57.81a.41.41,0,0,0,.1.11l-.1.1a66,66,0,0,0-6.39-4.79,4.26,4.26,0,0,1,3-1.59C429.69,186.45,432,187.86,434.46,189.66Z"/><path class="cls-5" d="M423.36,189.85c1.69,1.52,5.09,5.09,5,6.32s-2.27,1.8-4.79,1.8c-1.84,0-5.89-1-9.29-1.57a22.73,22.73,0,0,0-3.38-.35c-3.46,0-5.51,1.63-7.85,4.57l-.23,0a45.39,45.39,0,0,1,1.45-7.33c.81-2.59,2.6-5.56,4.22-5.56s5,4.59,9,4.59A8,8,0,0,0,423.36,189.85Z"/><path class="cls-6" d="M408.52,209.18a1.35,1.35,0,0,1-.44,1.9L403.32,214l-.14.07a3.07,3.07,0,0,1-1-2.44c0-3.19,1-3,.54-6.27,3.87-2.24,4.8-.66,5.38.21a1.29,1.29,0,0,0-.74,1.13A6.43,6.43,0,0,0,408.52,209.18Z"/><path class="cls-3" d="M425.1,188l0,0a66,66,0,0,1,6.39,4.79c2.12,1.74,4.27,3.64,5.9,5.26.55.53,1,1,1.45,1.5,2.68,3,3.16,3.89,4.14,4.93.76.81,2.16,1.85,7.74,1.25s10-1.25,12-2.79"/><path class="cls-3" d="M423.34,189.83l0,0c1.69,1.52,5.09,5.09,5,6.32s-2.27,1.8-4.79,1.8c-1.84,0-5.89-1-9.29-1.57a22.73,22.73,0,0,0-3.38-.35c-3.46,0-5.51,1.63-7.85,4.57"/><path class="cls-3" d="M403.32,214l4.76-2.87a1.35,1.35,0,0,0,.44-1.9,6.43,6.43,0,0,1-1.15-2.52,1.29,1.29,0,0,1,.74-1.13,4.1,4.1,0,0,1,2.35-.37c1.41.13,10.76.91,15.95,2.3a10.77,10.77,0,0,1,2.74,1,34.58,34.58,0,0,1,6.75,6.32"/><path class="cls-3" d="M426.4,207.46c3.9,1,26.37,6.92,36.48,2.78a10.34,10.34,0,0,0,1.53-.76"/><path class="cls-3" d="M408.14,205.57l0,0c-.58-.87-1.51-2.45-5.38-.21"/><path class="cls-3" d="M414.28,196.5c2.65,1.13,15.4,6.43,20.37,8.27s8.89,3.07,14.3,3.07,8.18-1.47,10.76-.86c2.3.53,3.13,1.75,3.17,3.26h0"/><path class="cls-3" d="M423.18,212.44h-9.77a1.52,1.52,0,0,1,0-3h9.77a1.52,1.52,0,0,1,0,3Z"/><path class="cls-11" d="M431.61,192.73a.7.7,0,0,0,.74.15l4.08-1.76.66-.29a.44.44,0,0,0,.17-.69l-.57-.81a.73.73,0,0,0-.84-.26l-1.39.6-3.35,1.45a.44.44,0,0,0-.17.69l.57.81A.41.41,0,0,0,431.61,192.73Z"/><path class="cls-11" d="M439.68,193.52l.53-.23a.45.45,0,0,0,.17-.69l-.57-.81a.73.73,0,0,0-.84-.26l-1.27.55-3.35,1.45a.45.45,0,0,0-.18.69l.57.81a.73.73,0,0,0,.84.26l4.09-1.77"/><path class="cls-11" d="M437.6,197.89a.73.73,0,0,0,.72.14l4.95-2.14.08,0a.45.45,0,0,0,.17-.69l-.57-.81a.73.73,0,0,0-.84-.26l-1,.44-4,1.74a.45.45,0,0,0-.17.69l.57.81A.57.57,0,0,0,437.6,197.89Z"/><path class="cls-3" d="M443.26,195.89h0c.34.19.66.38,1,.54,5.49,2.78,10.91,5.8,14.42,5.8a10.89,10.89,0,0,1,4.1.71,4.21,4.21,0,0,1,2.92,4,4,4,0,0,1-1.18,2.58c-2.45,2.76-8.57,5.3-16.76,5.3H405.32a3.77,3.77,0,0,1-2.14-.86,3.07,3.07,0,0,1-1-2.44c0-3.19,1-3,.54-6.27a20.44,20.44,0,0,1,.11-4.71,45.39,45.39,0,0,1,1.45-7.33c.81-2.59,2.6-5.56,4.22-5.56s5,4.59,9,4.59a8,8,0,0,0,5.89-2.45c.64-.61,1.2-1.25,1.76-1.8a4.26,4.26,0,0,1,3-1.59c1.57,0,3.83,1.41,6.34,3.21"/><path class="cls-3" d="M439.67,193.52h0c.48.35.95.68,1.42,1"/><path class="cls-3" d="M436.43,191.12l1.28,1"/><path class="cls-6" d="M145.11,21a4,4,0,0,1-1.18,2.58l-.12-.1a10.34,10.34,0,0,1-1.53.76c0-1.51-.87-2.73-3.17-3.27-2.57-.6-5.36.87-10.76.87s-9.33-1.23-14.3-3.07-17.72-7.13-20.36-8.27l0-.1C97.11,11,101.16,12,103,12c2.52,0,4.72-.58,4.79-1.8s-3.32-4.8-5-6.32c.64-.61,1.21-1.25,1.76-1.81a68.57,68.57,0,0,1,6.42,4.81c2.1,1.74,4.24,3.63,5.88,5.24.55.53,1,1,1.45,1.5,2.67,3,3.16,3.89,4.14,4.93.75.81,2.15,1.85,7.74,1.25s10-1.25,12-2.79l0,0A4.21,4.21,0,0,1,145.11,21Z"/><path class="cls-5" d="M142.28,24.28a10.34,10.34,0,0,0,1.53-.76l.12.1c-2.45,2.76-8.56,5.3-16.75,5.3H115.3v-.06a34.58,34.58,0,0,0-6.75-6.32,11.45,11.45,0,0,0-2.74-1C109.7,22.48,132.18,28.42,142.28,24.28Z"/><path class="cls-12" d="M142.2,17l0,0c-2,1.54-6.41,2.2-12,2.79s-7-.44-7.74-1.25c-1-1-1.47-2-4.14-4.93-.42-.46-.9-1-1.45-1.5l.19-.19a.73.73,0,0,0,.72.14l4.94-2.14c.34.19.67.38,1,.54,5.5,2.78,10.92,5.8,14.42,5.8A10.93,10.93,0,0,1,142.2,17Z"/><path class="cls-6" d="M139.12,21c2.3.54,3.13,1.76,3.17,3.27-10.1,4.14-32.58-1.8-36.47-2.78-5.18-1.39-14.55-2.17-16-2.3a4.17,4.17,0,0,0-2.34.36c-.58-.88-1.52-2.43-5.39-.2a20.44,20.44,0,0,1,.11-4.71l.23,0c2.35-2.95,4.4-4.57,7.85-4.57a22.84,22.84,0,0,1,3.39.35l0,.1c2.64,1.13,15.39,6.43,20.36,8.27s8.89,3.07,14.3,3.07S136.54,20.41,139.12,21Z"/><path class="cls-12" d="M120.52,8.57l-4,1.74a.44.44,0,0,0-.17.69l.57.81a.42.42,0,0,0,.12.13l-.19.19c-1.63-1.61-3.78-3.5-5.88-5.24l.08-.1a.73.73,0,0,0,.72.14l4.08-1.76,1.28,1-3.35,1.45a.44.44,0,0,0-.17.69l.57.81a.73.73,0,0,0,.84.26l4.09-1.77C119.56,7.92,120,8.25,120.52,8.57Z"/><path class="cls-5" d="M87.52,19.57a4.17,4.17,0,0,1,2.34-.36c1.41.14,10.77.91,16,2.3a11.45,11.45,0,0,1,2.74,1,34.58,34.58,0,0,1,6.75,6.32v.06H84.72a3.77,3.77,0,0,1-2.14-.86l.14-.07,4.77-2.87a1.36,1.36,0,0,0,.43-1.9,6.56,6.56,0,0,1-1.15-2.52A1.31,1.31,0,0,1,87.52,19.57Zm16.6,5.4a1.53,1.53,0,0,0-1.52-1.52H92.82a1.52,1.52,0,0,0,0,3h9.77A1.53,1.53,0,0,0,104.12,25Z"/><path class="cls-12" d="M113.87,3.71l-3.35,1.45a.45.45,0,0,0-.17.69l.57.81a.57.57,0,0,0,.12.13l-.08.1a68.57,68.57,0,0,0-6.42-4.81,4.28,4.28,0,0,1,3-1.58C109.11.5,111.36,1.91,113.87,3.71Z"/><path class="cls-5" d="M87.93,23.23a1.36,1.36,0,0,1-.43,1.9L82.73,28l-.14.07a3.07,3.07,0,0,1-1-2.44c0-3.19,1-3,.54-6.27,3.87-2.23,4.81-.68,5.39.2a1.31,1.31,0,0,0-.75,1.14A6.56,6.56,0,0,0,87.93,23.23Z"/><path class="cls-3" d="M104.51,2.08h0a68.57,68.57,0,0,1,6.42,4.81c2.1,1.74,4.24,3.63,5.88,5.24.55.53,1,1,1.45,1.5,2.67,3,3.16,3.89,4.14,4.93.75.81,2.15,1.85,7.74,1.25s10-1.25,12-2.79"/><path class="cls-3" d="M102.75,3.88l0,0c1.7,1.52,5.1,5.09,5,6.32S105.52,12,103,12c-1.84,0-5.89-1-9.29-1.57a22.84,22.84,0,0,0-3.39-.35c-3.46,0-5.51,1.63-7.85,4.57"/><path class="cls-3" d="M82.73,28l4.77-2.87a1.36,1.36,0,0,0,.43-1.9,6.56,6.56,0,0,1-1.15-2.52,1.31,1.31,0,0,1,.75-1.14,4.17,4.17,0,0,1,2.34-.36c1.41.14,10.77.91,16,2.3a11.45,11.45,0,0,1,2.74,1,34.58,34.58,0,0,1,6.75,6.32"/><path class="cls-3" d="M105.81,21.5c3.89,1,26.37,6.92,36.47,2.78a10.34,10.34,0,0,0,1.53-.76"/><path class="cls-3" d="M87.55,19.62l0-.05c-.58-.88-1.52-2.43-5.39-.2"/><path class="cls-3" d="M93.69,10.55c2.64,1.13,15.39,6.43,20.36,8.27s8.89,3.07,14.3,3.07,8.19-1.47,10.76-.87c2.3.54,3.13,1.76,3.17,3.27h0"/><path class="cls-3" d="M102.6,26.49H92.82a1.52,1.52,0,0,1,0-3h9.77a1.52,1.52,0,0,1,0,3Z"/><path class="cls-11" d="M111,6.79a.73.73,0,0,0,.72.14l4.08-1.76.67-.29a.45.45,0,0,0,.17-.69l-.57-.81a.73.73,0,0,0-.84-.26l-1.4.6-3.35,1.45a.45.45,0,0,0-.17.69l.57.81A.57.57,0,0,0,111,6.79Z"/><path class="cls-11" d="M117.11,6.12l-3.35,1.45a.44.44,0,0,0-.17.69l.57.81a.73.73,0,0,0,.84.26l4.09-1.77.53-.23a.44.44,0,0,0,.17-.69l-.57-.81a.73.73,0,0,0-.84-.26Z"/><path class="cls-11" d="M117,11.94a.73.73,0,0,0,.72.14l4.94-2.14.08,0a.44.44,0,0,0,.17-.69l-.57-.81a.73.73,0,0,0-.84-.26l-1,.44-4,1.74a.44.44,0,0,0-.17.69l.57.81A.42.42,0,0,0,117,11.94Z"/><path class="cls-3" d="M122.67,9.94h0c.34.19.67.38,1,.54,5.5,2.78,10.92,5.8,14.42,5.8a10.93,10.93,0,0,1,4.11.71,4.21,4.21,0,0,1,2.91,4,4,4,0,0,1-1.18,2.58c-2.45,2.76-8.56,5.3-16.75,5.3H84.72a3.77,3.77,0,0,1-2.14-.86,3.07,3.07,0,0,1-1-2.44c0-3.19,1-3,.54-6.27a20.44,20.44,0,0,1,.11-4.71A44.37,44.37,0,0,1,83.7,7.32c.81-2.59,2.59-5.56,4.21-5.56s5,4.59,9,4.59a8,8,0,0,0,5.89-2.45c.64-.61,1.21-1.25,1.76-1.81a4.28,4.28,0,0,1,3-1.58c1.57,0,3.82,1.41,6.33,3.21"/><path class="cls-3" d="M119.09,7.57c.47.35,1,.68,1.43,1"/><path class="cls-3" d="M115.83,5.17l1.28,1"/><path class="cls-5" d="M550.4,104.62c1.85.66,3.13,1.38,3.13,2.14a61,61,0,0,1-15.14,2.52c-5.67.05-8.3.86-10.93,4l-1,1.3,0,0a52.8,52.8,0,0,0-8.09-1.9l8.94-9.06a2.76,2.76,0,0,0,1.3-.28,5,5,0,0,1,5.77.55c1.24,1.17,2.34,2,4,1.47A35.31,35.31,0,0,1,550.4,104.62Z"/><path class="cls-5" d="M536.38,100.69l.89.41c2,.85,9,2.06,13.14,3.53a35.31,35.31,0,0,0-12.05.73c-1.65.49-2.75-.3-4-1.47a5,5,0,0,0-5.77-.55,2.76,2.76,0,0,1-1.3.28,4.78,4.78,0,0,1-1.88-.42l-1.58-.57c-.92-.33-2.1-.77-3.13-1.17-.75-.3-1.42-.58-1.84-.78a6.55,6.55,0,0,1-1.33-.8,2.35,2.35,0,0,1-.74-1.63c-.18-1.29-1.57-2.82-2.29-3.82l0-.06a10.68,10.68,0,0,1,5-1.52,8.3,8.3,0,0,1,1.93.68c.79.34,1.76.79,2.85,1.3l2.94,1.4,2.88,1.4,3.1,1.52C534.43,99.76,535.55,100.3,536.38,100.69Zm-8.89.26a1,1,0,0,0-.57-1.35L520.6,97a1.07,1.07,0,0,0-.4-.08,1,1,0,0,0-1,.64,1,1,0,0,0,.57,1.36l6.32,2.59A1,1,0,0,0,527.48,100.95Z"/><path class="cls-5" d="M526.92,99.6a1,1,0,1,1-.79,1.91l-6.32-2.59a1,1,0,0,1-.57-1.36,1,1,0,0,1,1-.64,1.07,1.07,0,0,1,.4.08Z"/><path class="cls-5" d="M527.3,103.62l-8.94,9.06c-1.3-.21-2.63-.38-3.93-.53l9.4-9.53,1.58.57A4.78,4.78,0,0,0,527.3,103.62Z"/><path class="cls-5" d="M523.83,102.63l-9.4,9.53c-1.32-.14-2.63-.26-3.92-.36l10.2-10.34C521.73,101.85,522.91,102.3,523.83,102.63Z"/><path class="cls-5" d="M520.71,101.46l-10.2,10.34c-1.48-.11-2.94-.19-4.34-.27v-.11l11.37-11.54a6.55,6.55,0,0,0,1.33.8C519.28,100.88,520,101.16,520.71,101.46Z"/><path class="cls-5" d="M509.54,97.26c1.68-.9,3.3-2,4.95-2.89l0,.06c.72,1,2.11,2.53,2.29,3.82a2.35,2.35,0,0,0,.74,1.63l-11.37,11.54v.11c-5.7-.29-10.61-.37-13.37-1.13a12,12,0,0,1-1.18-7c.19-1,.48-2.29.85-3.71h0c4.82-1.1,5.39,1.47,8,1.47,2.24,0,3.69-2.24,3.69-2.24A11.33,11.33,0,0,0,509.54,97.26Z"/><path class="cls-5" d="M509.87,87a90.87,90.87,0,0,0,9.58,5.88,10.68,10.68,0,0,0-5,1.52c-1.64.88-3.27,2-4.95,2.89-.6-.3-5.82-3-4.86-5.86A9.59,9.59,0,0,1,508.51,87,1.22,1.22,0,0,1,509.87,87Z"/><path class="cls-1" d="M504.19,98.9s-1.45,2.24-3.69,2.24c-2.64,0-3.21-2.57-8-1.47h0c.95-3.74,2.41-8.11,3.91-8.11C498.24,91.56,500.31,98.9,504.19,98.9Z"/><path class="cls-3" d="M492.46,99.68c.95-3.74,2.41-8.11,3.91-8.11,1.86,0,3.94,7.33,7.82,7.33a11.33,11.33,0,0,0,5.34-1.63c1.68-.9,3.3-2,4.95-2.89a10.68,10.68,0,0,1,5-1.52,8.3,8.3,0,0,1,1.93.68c.79.34,1.76.79,2.85,1.3l2.94,1.4,2.88,1.4,3.1,1.52c1.29.63,2.41,1.17,3.24,1.55l.89.41c2,.85,9,2.06,13.14,3.53,1.85.66,3.13,1.38,3.13,2.14,0,0,1.41.15,1.41,2.23,0,1.27.79,3.2-4.94,5.12A61.46,61.46,0,0,1,533.28,117H498.47s-3.7-.11-6-1.76a1.27,1.27,0,0,1-.47-1.32l.79-3.47a12,12,0,0,1-1.18-7C491.81,102.43,492.1,101.1,492.46,99.68Z"/><path class="cls-3" d="M553.54,106.77a61,61,0,0,1-15.14,2.52c-5.67.05-8.3.86-10.93,4l-1,1.3-1.79,2.34"/><path class="cls-3" d="M492.79,110.4c2.76.75,7.67.84,13.37,1.13,1.41.08,2.86.16,4.34.27,1.29.09,2.6.21,3.92.36s2.63.31,3.93.53a52.8,52.8,0,0,1,8.09,1.9"/><path class="cls-3" d="M492.47,99.68c4.82-1.1,5.39,1.47,8,1.47,2.24,0,3.69-2.24,3.69-2.24"/><path class="cls-3" d="M519.44,92.85A90.87,90.87,0,0,1,509.87,87a1.22,1.22,0,0,0-1.36,0,9.59,9.59,0,0,0-3.84,4.44c-1,2.83,4.26,5.56,4.86,5.86l.06,0"/><path class="cls-3" d="M514.52,94.44c.72,1,2.11,2.53,2.29,3.82a2.35,2.35,0,0,0,.74,1.63,6.55,6.55,0,0,0,1.33.8c.42.2,1.08.48,1.84.78,1,.4,2.2.84,3.13,1.17l1.58.57a4.78,4.78,0,0,0,1.88.42,2.76,2.76,0,0,0,1.3-.28,5,5,0,0,1,5.77.55c1.24,1.17,2.34,2,4,1.47a35.31,35.31,0,0,1,12.05-.73l.36.05"/><path class="cls-3" d="M527.48,100.95a1,1,0,0,1-1.36.57l-6.32-2.59a1,1,0,0,1-.57-1.36,1,1,0,0,1,1-.64,1.07,1.07,0,0,1,.4.08l6.32,2.59A1,1,0,0,1,527.48,100.95Z"/><polyline class="cls-3" points="506.17 111.42 517.54 99.88 517.57 99.86"/><line class="cls-3" x1="510.51" y1="111.8" x2="520.71" y2="101.46"/><line class="cls-3" x1="514.43" y1="112.15" x2="523.83" y2="102.63"/><line class="cls-3" x1="518.36" y1="112.68" x2="527.3" y2="103.62"/><polyline class="cls-2" points="520.81 92.03 521.38 93.53 522.01 95.21"/><polyline class="cls-2" points="523.67 93.36 524.22 94.83 524.87 96.54"/><polyline class="cls-2" points="526.59 94.71 527.16 96.22 527.79 97.88"/><polyline class="cls-2" points="529.46 96.09 530.04 97.62 530.67 99.26"/><polyline class="cls-2" points="532.5 97.45 533.14 99.14 533.71 100.63"/><polyline class="cls-2" points="535.77 99.08 536.38 100.69 536.97 102.25"/><path class="cls-6" d="M332.55,109.07c0,1.28.79,3.2-4.94,5.13A61.89,61.89,0,0,1,310.89,117H302.3v0l1.79-2.34,1-1.3c2.63-3.16,5.25-4,10.92-4a60.2,60.2,0,0,0,15.15-2.52S332.55,107,332.55,109.07Z"/><path class="cls-5" d="M287.14,97.34c1.68-.91,3.3-2,5-2.9l0,.07c.71,1,2.11,2.53,2.29,3.81s.53,1.68,2.07,2.43,6.55,2.52,6.55,2.52a4.05,4.05,0,0,0,3.18.14A5,5,0,0,1,312,104c1.25,1.17,2.35,2,4,1.47A34.94,34.94,0,0,1,328,104.7c1.85.66,3.13,1.37,3.13,2.13A60.2,60.2,0,0,1,316,109.35c-5.67.05-8.29.86-10.92,4l-1,1.3,0,0a49.78,49.78,0,0,0-6.9-1.69l0-.14c5.83-7-5-12-12.37-14.42A17.32,17.32,0,0,0,287.14,97.34Z"/><path class="cls-5" d="M314,100.77c.36.17.66.3.89.4,2,.86,9,2.06,13.14,3.54a34.94,34.94,0,0,0-12.06.73c-1.65.49-2.75-.3-4-1.47a5,5,0,0,0-5.76-.55,4.05,4.05,0,0,1-3.18-.14s-5-1.77-6.55-2.52-1.89-1.14-2.07-2.43-1.58-2.81-2.29-3.81l0-.07a10.62,10.62,0,0,1,5-1.52,8.08,8.08,0,0,1,1.94.69c.8.34,1.77.78,2.85,1.29.92.43,1.92.91,2.94,1.41l2.88,1.39,3.1,1.52C312,99.84,313.17,100.38,314,100.77Z"/><path class="cls-6" d="M304.09,114.67,302.3,117v0H276.07s-3.69-.11-6-1.77a1.28,1.28,0,0,1-.48-1.32l.8-3.46c3.76,1,11.47.8,19.73,1.57,2.32.2,4.68.49,7,.91a49.78,49.78,0,0,1,6.9,1.69Z"/><path class="cls-6" d="M284.81,98.4c7.39,2.43,18.2,7.45,12.37,14.42l0,.14c-2.34-.42-4.7-.71-7-.91v-.13c7-5.11-5.06-11.13-8.34-13A8.8,8.8,0,0,0,284.81,98.4Z"/><path class="cls-5" d="M287.48,87.05A91.58,91.58,0,0,0,297,92.92a10.62,10.62,0,0,0-5,1.52c-1.65.88-3.28,2-5,2.9-.64-.33-5.82-3.06-4.86-5.86A9.68,9.68,0,0,1,286.12,87,1.22,1.22,0,0,1,287.48,87.05Z"/><path class="cls-5" d="M281.8,99c3.28,1.82,15.38,7.84,8.34,13V112c-8.27-.76-16-.54-19.73-1.57a12,12,0,0,1-1.18-7c.19-1,.48-2.29.84-3.71h0c4.81-1.11,5.39,1.47,8,1.47C280.35,101.22,281.8,99,281.8,99Z"/><path class="cls-6" d="M281.8,99s-1.45,2.25-3.69,2.25c-2.64,0-3.22-2.57-8-1.47h0c1-3.74,2.41-8.12,3.92-8.12C275.85,91.64,277.92,99,281.8,99Z"/><path class="cls-3" d="M270.06,99.76c1-3.74,2.41-8.12,3.92-8.12,1.86,0,3.94,7.33,7.82,7.33a8.8,8.8,0,0,0,3-.57,17.32,17.32,0,0,0,2.33-1.06c1.68-.91,3.3-2,5-2.9a10.62,10.62,0,0,1,5-1.52,8.08,8.08,0,0,1,1.94.69c.8.34,1.77.78,2.85,1.29.92.43,1.92.91,2.94,1.41l2.88,1.39,3.1,1.52c1.29.63,2.41,1.17,3.24,1.55.36.17.66.3.89.4,2,.86,9,2.06,13.14,3.54,1.85.66,3.13,1.37,3.13,2.13,0,0,1.41.16,1.41,2.23,0,1.28.79,3.2-4.94,5.13A61.89,61.89,0,0,1,310.89,117H276.07s-3.69-.11-6-1.77a1.28,1.28,0,0,1-.48-1.32l.8-3.46a12,12,0,0,1-1.18-7C269.42,102.51,269.71,101.18,270.06,99.76Z"/><path class="cls-3" d="M331.15,106.84A60.2,60.2,0,0,1,316,109.35c-5.67.05-8.29.86-10.92,4l-1,1.3L302.3,117"/><path class="cls-3" d="M270.4,110.48c3.76,1,11.47.8,19.73,1.57,2.32.2,4.68.49,7,.91a49.78,49.78,0,0,1,6.9,1.69"/><path class="cls-3" d="M270.08,99.76c4.81-1.11,5.39,1.47,8,1.47,2.24,0,3.69-2.25,3.69-2.25"/><path class="cls-3" d="M297,92.92a91.58,91.58,0,0,1-9.57-5.87,1.22,1.22,0,0,0-1.36,0,9.68,9.68,0,0,0-3.85,4.45c-1,2.8,4.23,5.53,4.86,5.86l.07,0"/><path class="cls-3" d="M292.13,94.51c.71,1,2.11,2.53,2.29,3.81s.53,1.68,2.07,2.43,6.55,2.52,6.55,2.52a4.05,4.05,0,0,0,3.18.14A5,5,0,0,1,312,104c1.25,1.17,2.35,2,4,1.47A34.94,34.94,0,0,1,328,104.7l.36.05"/><polyline class="cls-2" points="298.42 92.1 298.99 93.61 299.62 95.28"/><polyline class="cls-2" points="301.28 93.44 301.83 94.9 302.49 96.61"/><polyline class="cls-2" points="304.2 94.78 304.77 96.3 305.4 97.95"/><polyline class="cls-2" points="307.07 96.16 307.65 97.69 308.27 99.33"/><polyline class="cls-2" points="310.12 97.53 310.75 99.22 311.32 100.71"/><polyline class="cls-2" points="313.38 99.15 313.99 100.77 314.58 102.32"/><path class="cls-3" d="M284.81,98.4c7.39,2.43,18.2,7.45,12.37,14.42"/><path class="cls-3" d="M281.8,99c3.28,1.82,15.38,7.84,8.34,13"/></g></g></svg>