<svg xmlns="http://www.w3.org/2000/svg" viewBox="0 0 16.94 20.63"><defs><style>.cls-1{fill:none;stroke:#fff;stroke-miterlimit:10;stroke-width:0.75px;}</style></defs><title>staff</title><g id="Layer_2" data-name="Layer 2"><g id="Layer_1-2" data-name="Layer 1"><circle class="cls-1" cx="3.56" cy="2.07" r="1.7"/><path class="cls-1" d="M.38,13.59V6.89A1.67,1.67,0,0,1,1.92,5.11H5.19A1.67,1.67,0,0,1,6.74,6.89v3.48H9.26"/><line class="cls-1" x1="2.08" y1="12.48" x2="2.08" y2="20.63"/><line class="cls-1" x1="5.03" y1="12.48" x2="5.03" y2="20.63"/><circle class="cls-1" cx="13.39" cy="2.07" r="1.7"/><path class="cls-1" d="M10.2,13.59V6.89a1.67,1.67,0,0,1,1.55-1.78H15a1.67,1.67,0,0,1,1.55,1.78v6.7"/><line class="cls-1" x1="11.91" y1="12.48" x2="11.91" y2="20.63"/><line class="cls-1" x1="14.86" y1="12.48" x2="14.86" y2="20.63"/></g></g></svg>