<svg xmlns="http://www.w3.org/2000/svg" viewBox="0 0 387.37 117.88"><defs><style>.cls-1{stroke:#000;stroke-miterlimit:10;stroke-width:1.01px;}</style></defs><title>stores-btns</title><g id="Layer_2" data-name="Layer 2"><g id="stores-items"><g id="utrecht"><path id="svg_1" data-name="svg 1" class="cls-1" d="M29.15,36.2c0,4-7.15,13.61-7.12,13.63s-7.09-9.63-7.09-13.64a7.1,7.1,0,1,1,14.21,0Zm-7.1-3.08a3.06,3.06,0,1,0,3,3.06,3,3,0,0,0-3-3.06Z"/><path d="M0,56.74v-4H1.19v4a1.58,1.58,0,0,0,1.7,1.75,1.58,1.58,0,0,0,1.7-1.75v-4H5.78v4A2.57,2.57,0,0,1,2.89,59.5,2.58,2.58,0,0,1,0,56.74Z"/><path d="M8.79,59.38V53.74h-2v-1H12v1H10v5.64Z"/><path d="M16.78,59.38l-1.47-2.49H14.14v2.49H13V52.71H15.9a2,2,0,0,1,2.19,2.09,1.88,1.88,0,0,1-1.59,2l1.64,2.62Zm.11-4.59a1,1,0,0,0-1.14-1H14.14v2.12h1.61A1.05,1.05,0,0,0,16.89,54.79Z"/><path d="M19.26,59.38V52.71h4.57v1h-3.4v1.72h3.33v1H20.43v1.86h3.4v1Z"/><path d="M24.74,56a3.36,3.36,0,0,1,3.5-3.45,3,3,0,0,1,2.67,1.49l-1,.52a2,2,0,0,0-1.68-1,2.41,2.41,0,0,0,0,4.82,2,2,0,0,0,1.68-1l1,.5a3,3,0,0,1-2.68,1.51A3.36,3.36,0,0,1,24.74,56Z"/><path d="M36.49,59.38V56.46H33v2.92H31.85V52.71H33v2.72h3.47V52.71h1.17v6.67Z"/><path d="M40.67,59.38V53.74h-2v-1h5.21v1h-2v5.64Z"/></g><g id="rome"><path d="M145.81,44.38l-1.47-2.49h-1.17v2.49H142V37.71h2.93a2,2,0,0,1,2.19,2.09,1.88,1.88,0,0,1-1.59,2l1.64,2.62Zm.11-4.59a1,1,0,0,0-1.14-1h-1.61v2.12h1.61A1.05,1.05,0,0,0,145.92,39.79Z"/><path d="M148,41a3.41,3.41,0,1,1,3.41,3.45A3.31,3.31,0,0,1,148,41Zm5.62,0a2.22,2.22,0,1,0-2.21,2.41A2.21,2.21,0,0,0,153.62,41Z"/><path d="M161.7,44.38V39.23l-2,5.15h-.5l-2-5.15v5.15h-1.17V37.71h1.65l1.82,4.58,1.81-4.58h1.65v6.67Z"/><path d="M164.29,44.38V37.71h4.57v1h-3.4v1.72h3.33v1h-3.33v1.86h3.4v1Z"/><path id="svg_1-2" data-name="svg 1" class="cls-1" d="M162.13,21.06c0,4-7.15,13.61-7.12,13.63s-7.09-9.63-7.09-13.64a7.1,7.1,0,1,1,14.21,0ZM155,18A3.06,3.06,0,1,0,158,21,3,3,0,0,0,155,18Z"/></g><g id="amsterdam"><path id="svg_1-3" data-name="svg 1" class="cls-1" d="M346.14,7.79c0,4-7.15,13.61-7.12,13.63s-7.09-9.63-7.09-13.64a7.1,7.1,0,1,1,14.21,0ZM339,4.71a3.06,3.06,0,1,0,3,3.06,3,3,0,0,0-3-3.06Z"/><path d="M314.68,33.38l-.49-1.29h-3.06l-.49,1.29h-1.33l2.62-6.67h1.46L316,33.38Zm-2-5.5-1.2,3.18h2.4Z"/><path d="M322.49,33.38V28.23l-2,5.15h-.5l-2-5.15v5.15h-1.17V26.71h1.65l1.82,4.58L322,26.71h1.65v6.67Z"/><path d="M324.65,32.44l.66-.91a2.86,2.86,0,0,0,2.11.93c1,0,1.33-.47,1.33-.92,0-1.4-3.88-.53-3.88-3,0-1.11,1-2,2.43-2a3.45,3.45,0,0,1,2.49.94l-.66.87a2.72,2.72,0,0,0-1.94-.77c-.68,0-1.12.34-1.12.83,0,1.25,3.88.48,3.88,3,0,1.11-.79,2.07-2.58,2.07A3.65,3.65,0,0,1,324.65,32.44Z"/><path d="M332.51,33.38V27.74h-2v-1h5.21v1h-2v5.64Z"/><path d="M336.69,33.38V26.71h4.57v1h-3.4v1.72h3.33v1h-3.33v1.86h3.4v1Z"/><path d="M346.27,33.38l-1.47-2.49h-1.17v2.49h-1.17V26.71h2.93a2,2,0,0,1,2.19,2.09,1.88,1.88,0,0,1-1.59,2l1.64,2.62Zm.11-4.59a1,1,0,0,0-1.14-1h-1.61v2.12h1.61A1.05,1.05,0,0,0,346.38,28.79Z"/><path d="M348.75,33.38V26.71h2.48a3.34,3.34,0,1,1,0,6.67ZM353.52,30a2.15,2.15,0,0,0-2.28-2.3h-1.32v4.61h1.31A2.19,2.19,0,0,0,353.52,30Z"/><path d="M360.18,33.38l-.49-1.29h-3.06l-.49,1.29h-1.33l2.62-6.67h1.46l2.62,6.67Zm-2-5.5L357,31.06h2.4Z"/><path d="M368,33.38V28.23l-2,5.15h-.5l-2-5.15v5.15h-1.17V26.71h1.65l1.82,4.58,1.81-4.58h1.65v6.67Z"/></g><g id="dublin"><path id="svg_1-4" data-name="svg 1" class="cls-1" d="M250.88,44c0,4-7.15,13.61-7.12,13.63S236.67,48,236.68,44a7.1,7.1,0,1,1,14.21,0Zm-7.1-3.08a3.06,3.06,0,1,0,3,3.06,3,3,0,0,0-3-3.06Z"/><path d="M228,69.38V62.71h2.48a3.34,3.34,0,1,1,0,6.67ZM232.77,66a2.15,2.15,0,0,0-2.28-2.3h-1.32v4.61h1.31A2.19,2.19,0,0,0,232.77,66Z"/><path d="M235.1,66.74v-4h1.19v4a1.7,1.7,0,1,0,3.4,0v-4h1.19v4a2.89,2.89,0,0,1-5.78,0Z"/><path d="M242.3,69.38V62.71h3.28a1.7,1.7,0,0,1,1.9,1.7,1.51,1.51,0,0,1-1.16,1.53,1.63,1.63,0,0,1,1.29,1.63,1.75,1.75,0,0,1-1.94,1.81Zm4-4.78a.84.84,0,0,0-.93-.86h-1.88v1.72h1.88A.83.83,0,0,0,246.28,64.6Zm.13,2.82a.92.92,0,0,0-1-.93h-1.93v1.86h1.93A.9.9,0,0,0,246.41,67.42Z"/><path d="M248.71,69.38V62.71h1.17v5.64h2.94v1Z"/><path d="M253.85,69.38V62.71H255v6.67Z"/><path d="M261.09,69.38l-3.48-4.77v4.77h-1.17V62.71h1.2L261,67.33V62.71h1.17v6.67Z"/></g><g id="istambul"><path id="svg_1-5" data-name="svg 1" class="cls-1" d="M326.86,63.85c0,4-7.15,13.61-7.12,13.63s-7.09-9.63-7.09-13.64a7.1,7.1,0,1,1,14.21,0Zm-7.1-3.08a3.06,3.06,0,1,0,3,3.06,3,3,0,0,0-3-3.06Z"/><path d="M297,89.38V82.71h1.17v6.67Z"/><path d="M299.16,88.44l.66-.91a2.86,2.86,0,0,0,2.11.93c1,0,1.33-.47,1.33-.92,0-1.4-3.88-.53-3.88-3,0-1.11,1-2,2.43-2a3.45,3.45,0,0,1,2.49.94l-.66.87a2.72,2.72,0,0,0-1.94-.77c-.68,0-1.12.34-1.12.83,0,1.25,3.88.48,3.88,3,0,1.11-.79,2.07-2.58,2.07A3.65,3.65,0,0,1,299.16,88.44Z"/><path d="M307,89.38V83.74h-2v-1h5.21v1h-2v5.64Z"/><path d="M315.23,89.38l-.49-1.29h-3.06l-.49,1.29h-1.33l2.62-6.67h1.46l2.62,6.67Zm-2-5.5L312,87.06h2.4Z"/><path d="M321.93,89.38l-3.48-4.77v4.77h-1.17V82.71h1.2l3.41,4.62V82.71h1.17v6.67Z"/><path d="M324.48,89.38V82.71h3.28a1.7,1.7,0,0,1,1.9,1.7,1.51,1.51,0,0,1-1.16,1.53,1.63,1.63,0,0,1,1.29,1.63,1.75,1.75,0,0,1-1.94,1.81Zm4-4.78a.84.84,0,0,0-.93-.86h-1.88v1.72h1.88A.83.83,0,0,0,328.46,84.6Zm.13,2.82a.92.92,0,0,0-1-.93h-1.93v1.86h1.93A.9.9,0,0,0,328.59,87.42Z"/><path d="M331,86.74v-4h1.19v4a1.7,1.7,0,1,0,3.4,0v-4h1.19v4a2.89,2.89,0,0,1-5.78,0Z"/><path d="M338.09,89.38V82.71h1.17v5.64h2.94v1Z"/></g><g id="la"><path id="svg_1-6" data-name="svg 1" class="cls-1" d="M386.86,92.85c0,4-7.15,13.61-7.12,13.63s-7.09-9.63-7.09-13.64a7.1,7.1,0,1,1,14.21,0Zm-7.1-3.08a3.06,3.06,0,1,0,3,3.06,3,3,0,0,0-3-3.06Z"/><path d="M374.93,117.88v-6.67h1.17v5.64H379v1Z"/><path d="M384.75,117.88l-.49-1.29H381.2l-.49,1.29h-1.33l2.62-6.67h1.46l2.62,6.67Zm-2-5.5-1.2,3.18h2.4Z"/></g></g></g></svg>