<svg xmlns="http://www.w3.org/2000/svg" viewBox="0 0 500.47 229.71"><defs><style>.cls-1{stroke:#000;stroke-miterlimit:10;stroke-width:1.01px;}</style></defs><title>stores</title><g id="Layer_2" data-name="Layer 2"><g id="Layer_2-2" data-name="Layer 2"><path id="svg_1" data-name="svg 1" class="cls-1" d="M223.54,94c0,4-7.15,13.61-7.12,13.63S209.33,98,209.33,94a7.1,7.1,0,1,1,14.21,0Zm-7.1-3.08a3.06,3.06,0,1,0,3,3.06,3,3,0,0,0-3-3.06Z"/><path id="svg_1-2" data-name="svg 1" class="cls-1" d="M291.88,67.2c0,4-7.15,13.61-7.12,13.63s-7.09-9.63-7.09-13.64a7.1,7.1,0,1,1,14.21,0Zm-7.1-3.08a3.06,3.06,0,1,0,3,3.06,3,3,0,0,0-3-3.06Z"/><path id="svg_1-3" data-name="svg 1" class="cls-1" d="M344.07,82.36c0,4-7.15,13.61-7.12,13.63s-7.09-9.63-7.09-13.64a7.1,7.1,0,1,1,14.21,0ZM337,79.28a3.06,3.06,0,1,0,3,3.06,3,3,0,0,0-3-3.06Z"/><path id="svg_1-4" data-name="svg 1" class="cls-1" d="M28.15,147.93c0,4-7.15,13.61-7.12,13.63s-7.09-9.63-7.09-13.64a7.1,7.1,0,1,1,14.21,0ZM21,144.85a3.06,3.06,0,1,0,3,3.06,3,3,0,0,0-3-3.06Z"/><path id="svg_1-5" data-name="svg 1" class="cls-1" d="M77.79,112.93c0,4-7.15,13.61-7.12,13.63s-7.09-9.63-7.09-13.64a7.1,7.1,0,1,1,14.21,0Zm-7.1-3.08a3.06,3.06,0,1,0,3,3.06,3,3,0,0,0-3-3.06Z"/><path id="svg_1-6" data-name="svg 1" class="cls-1" d="M343.8,7.79c0,4-7.15,13.61-7.12,13.63s-7.09-9.63-7.09-13.64a7.1,7.1,0,1,1,14.21,0Zm-7.1-3.08a3.06,3.06,0,1,0,3,3.06,3,3,0,0,0-3-3.06Z"/><path id="svg_1-7" data-name="svg 1" class="cls-1" d="M95.67,68.19c0,4-7.15,13.61-7.12,13.63s-7.09-9.63-7.09-13.64a7.1,7.1,0,1,1,14.21,0Zm-7.1-3.08a3.06,3.06,0,1,0,3,3.06,3,3,0,0,0-3-3.06Z"/><path id="svg_1-8" data-name="svg 1" class="cls-1" d="M377.14,42c0,4-7.15,13.61-7.12,13.63S362.93,46,362.94,42a7.1,7.1,0,1,1,14.21,0ZM370,38.91A3.06,3.06,0,1,0,373,42a3,3,0,0,0-3-3.06Z"/><path id="svg_1-9" data-name="svg 1" class="cls-1" d="M129.34,36.73c0,4-7.15,13.61-7.12,13.63s-7.09-9.63-7.09-13.64a7.1,7.1,0,1,1,14.21,0Zm-7.1-3.08a3.06,3.06,0,1,0,3,3.06,3,3,0,0,0-3-3.06Z"/><path id="svg_1-10" data-name="svg 1" class="cls-1" d="M176.14,69.42c0,4-7.15,13.61-7.12,13.63s-7.09-9.63-7.09-13.64a7.1,7.1,0,1,1,14.21,0ZM169,66.34a3.06,3.06,0,1,0,3,3.06,3,3,0,0,0-3-3.06Z"/><path id="svg_1-11" data-name="svg 1" class="cls-1" d="M35.42,60.3c0,4-7.15,13.61-7.12,13.63s-7.09-9.63-7.09-13.64a7.1,7.1,0,1,1,14.21,0Zm-7.1-3.08a3.06,3.06,0,1,0,3,3.06,3,3,0,0,0-3-3.06Z"/><path id="svg_1-12" data-name="svg 1" class="cls-1" d="M77.81,170.2c0,4-7.15,13.61-7.12,13.63s-7.09-9.63-7.09-13.64a7.1,7.1,0,1,1,14.21,0Zm-7.1-3.08a3.06,3.06,0,1,0,3,3.06,3,3,0,0,0-3-3.06Z"/><path id="svg_1-13" data-name="svg 1" class="cls-1" d="M63.68,19.61c0,4-7.15,13.61-7.12,13.63s-7.09-9.63-7.09-13.64a7.1,7.1,0,1,1,14.21,0Zm-7.1-3.08a3.06,3.06,0,1,0,3,3.06,3,3,0,0,0-3-3.06Z"/><path id="svg_1-14" data-name="svg 1" class="cls-1" d="M157.15,150.4c0,4-7.15,13.61-7.12,13.63s-7.09-9.63-7.09-13.64a7.1,7.1,0,1,1,14.21,0Zm-7.1-3.08a3.06,3.06,0,1,0,3,3.06,3,3,0,0,0-3-3.06Z"/><path id="svg_1-15" data-name="svg 1" class="cls-1" d="M216.24,169.71c0,4-7.15,13.61-7.12,13.63S202,173.71,202,169.7a7.1,7.1,0,1,1,14.21,0Zm-7.1-3.08a3.06,3.06,0,1,0,3,3.06,3,3,0,0,0-3-3.06Z"/><path id="svg_1-16" data-name="svg 1" class="cls-1" d="M230.34,25.57c0,4-7.15,13.61-7.12,13.63s-7.09-9.63-7.09-13.64a7.1,7.1,0,1,1,14.21,0Zm-7.1-3.08a3.06,3.06,0,1,0,3,3.06,3,3,0,0,0-3-3.06Z"/><path id="svg_1-17" data-name="svg 1" class="cls-1" d="M290.13,135.26c0,4-7.15,13.61-7.12,13.63s-7.09-9.63-7.09-13.64a7.1,7.1,0,1,1,14.21,0Zm-7.1-3.08a3.06,3.06,0,1,0,3,3.06,3,3,0,0,0-3-3.06Z"/><path id="svg_1-18" data-name="svg 1" class="cls-1" d="M162.42,205.14c0,4-7.15,13.61-7.12,13.63s-7.09-9.63-7.09-13.64a7.1,7.1,0,1,1,14.21,0Zm-7.1-3.08a3.06,3.06,0,1,0,3,3.06,3,3,0,0,0-3-3.06Z"/><path id="svg_1-19" data-name="svg 1" class="cls-1" d="M447.41,36.4c0,4-7.15,13.61-7.12,13.63s-7.09-9.63-7.09-13.64a7.1,7.1,0,1,1,14.21,0Zm-7.1-3.08a3.06,3.06,0,1,0,3,3.06,3,3,0,0,0-3-3.06Z"/><path id="svg_1-20" data-name="svg 1" class="cls-1" d="M378.88,158.2c0,4-7.15,13.61-7.12,13.63s-7.09-9.63-7.09-13.64a7.1,7.1,0,1,1,14.21,0Zm-7.1-3.08a3.06,3.06,0,1,0,3,3.06,3,3,0,0,0-3-3.06Z"/><path id="svg_1-21" data-name="svg 1" class="cls-1" d="M409.07,129.36c0,4-7.15,13.61-7.12,13.63s-7.09-9.63-7.09-13.64a7.1,7.1,0,1,1,14.21,0Zm-7.1-3.08a3.06,3.06,0,1,0,3,3.06,3,3,0,0,0-3-3.06Z"/><path id="svg_1-22" data-name="svg 1" class="cls-1" d="M454.86,178.05c0,4-7.15,13.61-7.12,13.63s-7.09-9.63-7.09-13.64a7.1,7.1,0,1,1,14.21,0Zm-7.1-3.08a3.06,3.06,0,1,0,3,3.06,3,3,0,0,0-3-3.06Z"/><path id="svg_1-23" data-name="svg 1" class="cls-1" d="M454.8,84.79c0,4-7.15,13.61-7.12,13.63s-7.09-9.63-7.09-13.64a7.1,7.1,0,1,1,14.21,0Zm-7.1-3.08a3.06,3.06,0,1,0,3,3.06,3,3,0,0,0-3-3.06Z"/><path id="svg_1-24" data-name="svg 1" class="cls-1" d="M474.14,122c0,4-7.15,13.61-7.12,13.63S459.93,126,459.94,122a7.1,7.1,0,1,1,14.21,0Zm-7.1-3.08a3.06,3.06,0,1,0,3,3.06,3,3,0,0,0-3-3.06Z"/><path id="svg_1-25" data-name="svg 1" class="cls-1" d="M491.15,55.93c0,4-7.15,13.61-7.12,13.63s-7.09-9.63-7.09-13.64a7.1,7.1,0,1,1,14.21,0ZM484,52.85a3.06,3.06,0,1,0,3,3.06,3,3,0,0,0-3-3.06Z"/><path id="svg_1-26" data-name="svg 1" class="cls-1" d="M283.13,194.26c0,4-7.15,13.61-7.12,13.63s-7.09-9.63-7.09-13.64a7.1,7.1,0,1,1,14.21,0Zm-7.1-3.08a3.06,3.06,0,1,0,3,3.06,3,3,0,0,0-3-3.06Z"/><path id="svg_1-27" data-name="svg 1" class="cls-1" d="M500,204.5c0,4-7.15,13.61-7.12,13.63s-7.09-9.63-7.09-13.64a7.1,7.1,0,1,1,14.21,0Zm-7.1-3.08a3.06,3.06,0,1,0,3,3.06,3,3,0,0,0-3-3.06Z"/><path id="svg_1-28" data-name="svg 1" class="cls-1" d="M379.15,206.93c0,4-7.15,13.61-7.12,13.63s-7.09-9.63-7.09-13.64a7.1,7.1,0,1,1,14.21,0Zm-7.1-3.08a3.06,3.06,0,1,0,3,3.06,3,3,0,0,0-3-3.06Z"/><path d="M7.92,85.58V78.91H9.09v5.64H12v1Z"/><path d="M12.47,82.25a3.31,3.31,0,0,1,3.41-3.45,3.45,3.45,0,0,1,0,6.9A3.31,3.31,0,0,1,12.47,82.25Zm5.62,0a2.22,2.22,0,1,0-2.21,2.41A2.21,2.21,0,0,0,18.09,82.25Z"/><path d="M25.06,85.58l-3.48-4.77v4.77H20.41V78.91h1.2L25,83.53V78.91h1.17v6.67Z"/><path d="M27.61,85.58V78.91h2.48a3.34,3.34,0,1,1,0,6.67Zm4.77-3.34a2.15,2.15,0,0,0-2.28-2.3H28.78v4.61h1.31A2.19,2.19,0,0,0,32.38,82.24Z"/><path d="M34.42,82.25a3.41,3.41,0,1,1,3.41,3.45A3.31,3.31,0,0,1,34.42,82.25Zm5.62,0a2.22,2.22,0,1,0-2.21,2.41A2.21,2.21,0,0,0,40,82.25Z"/><path d="M47,85.58l-3.48-4.77v4.77H42.36V78.91h1.2L47,83.53V78.91h1.17v6.67Z"/><path d="M468,81.58V74.91h3.28a1.7,1.7,0,0,1,1.9,1.7A1.51,1.51,0,0,1,472,78.14a1.63,1.63,0,0,1,1.29,1.63,1.75,1.75,0,0,1-1.94,1.81Zm4-4.78a.84.84,0,0,0-.93-.86h-1.88v1.72H471A.83.83,0,0,0,472,76.8Zm.13,2.82a.92.92,0,0,0-1-.93h-1.93v1.86h1.93A.9.9,0,0,0,472.11,79.62Z"/><path d="M474.49,81.58V74.91h4.57v1h-3.4v1.72H479v1h-3.33v1.86h3.4v1Z"/><path d="M484.07,81.58l-1.47-2.49h-1.17v2.49h-1.17V74.91h2.93A2,2,0,0,1,485.38,77a1.88,1.88,0,0,1-1.59,2l1.64,2.62Zm.11-4.59a1,1,0,0,0-1.14-1h-1.61v2.12H483A1.05,1.05,0,0,0,484.18,77Z"/><path d="M486.47,81.58V74.91h1.17v5.64h2.94v1Z"/><path d="M491.61,81.58V74.91h1.17v6.67Z"/><path d="M498.85,81.58l-3.48-4.77v4.77H494.2V74.91h1.2l3.41,4.62V74.91H500v6.67Z"/><path d="M428,62.58V55.91h2.94a2.09,2.09,0,1,1,0,4.17h-1.77v2.5ZM431.91,58a1,1,0,0,0-1.13-1.06h-1.61v2.11h1.61A1,1,0,0,0,431.91,58Z"/><path d="M438,62.58l-.49-1.29h-3.06L434,62.58h-1.33l2.62-6.67h1.46l2.62,6.67Zm-2-5.5-1.2,3.18h2.4Z"/><path d="M443.88,62.58l-1.47-2.49h-1.17v2.49h-1.17V55.91H443A2,2,0,0,1,445.19,58a1.88,1.88,0,0,1-1.59,2l1.64,2.62ZM444,58a1,1,0,0,0-1.14-1h-1.61v2.12h1.61A1.05,1.05,0,0,0,444,58Z"/><path d="M446.36,62.58V55.91h1.17v6.67Z"/><path d="M448.52,61.64l.66-.91a2.87,2.87,0,0,0,2.11.93c1,0,1.33-.47,1.33-.92,0-1.4-3.88-.53-3.88-3,0-1.11,1-2,2.43-2a3.45,3.45,0,0,1,2.49.94l-.66.87a2.72,2.72,0,0,0-1.94-.77c-.68,0-1.12.34-1.12.83,0,1.25,3.88.48,3.88,3,0,1.11-.79,2.07-2.58,2.07A3.64,3.64,0,0,1,448.52,61.64Z"/><path d="M389.71,150.25a3.41,3.41,0,1,1,3.41,3.45A3.31,3.31,0,0,1,389.71,150.25Zm5.62,0a2.22,2.22,0,1,0-2.21,2.41A2.21,2.21,0,0,0,395.33,150.25Z"/><path d="M397.22,152.64l.66-.91a2.86,2.86,0,0,0,2.11.93c1,0,1.33-.47,1.33-.92,0-1.4-3.88-.53-3.88-3,0-1.11,1-2,2.43-2a3.45,3.45,0,0,1,2.49.94l-.66.87a2.72,2.72,0,0,0-1.94-.77c-.68,0-1.12.34-1.12.83,0,1.25,3.88.48,3.88,3,0,1.11-.79,2.07-2.58,2.07A3.65,3.65,0,0,1,397.22,152.64Z"/><path d="M403.51,153.58v-6.67h1.17v5.64h2.94v1Z"/><path d="M408.06,150.25a3.41,3.41,0,1,1,3.41,3.45A3.31,3.31,0,0,1,408.06,150.25Zm5.62,0a2.22,2.22,0,1,0-2.21,2.41A2.21,2.21,0,0,0,413.68,150.25Z"/><path d="M190.74,195.58v-1l3.4-4.69h-3.4v-1h4.93v.94l-3.42,4.7h3.49v1Z"/><path d="M201.57,195.58l-.49-1.29H198l-.49,1.29H196.2l2.62-6.67h1.46l2.62,6.67Zm-2-5.5-1.2,3.18h2.4Z"/><path d="M203,192.25a3.35,3.35,0,0,1,3.5-3.45,3.12,3.12,0,0,1,2.68,1.38l-.95.55a2.15,2.15,0,0,0-1.73-.89,2.41,2.41,0,0,0,0,4.82,2.4,2.4,0,0,0,1.58-.6v-1h-2v-1h3.16v2.49a3.6,3.6,0,0,1-2.74,1.22A3.36,3.36,0,0,1,203,192.25Z"/><path d="M214.25,195.58l-1.47-2.49h-1.17v2.49h-1.17v-6.67h2.93a2,2,0,0,1,2.19,2.09,1.88,1.88,0,0,1-1.59,2l1.64,2.62Zm.11-4.59a1,1,0,0,0-1.14-1h-1.61v2.12h1.61A1.05,1.05,0,0,0,214.36,191Z"/><path d="M216.73,195.58v-6.67h4.57v1h-3.4v1.72h3.33v1H217.9v1.86h3.4v1Z"/><path d="M222.5,195.58v-6.67h3.28a1.7,1.7,0,0,1,1.9,1.7,1.51,1.51,0,0,1-1.16,1.53,1.63,1.63,0,0,1,1.29,1.63,1.75,1.75,0,0,1-1.94,1.81Zm4-4.78a.84.84,0,0,0-.93-.86h-1.88v1.72h1.88A.83.83,0,0,0,226.48,190.8Zm.13,2.82a.92.92,0,0,0-1-.93h-1.93v1.86h1.93A.9.9,0,0,0,226.61,193.62Z"/><path d="M150,95.58V88.91h2.94a2.09,2.09,0,1,1,0,4.17h-1.77v2.5ZM153.91,91a1,1,0,0,0-1.13-1.06h-1.61v2.11h1.61A1,1,0,0,0,153.91,91Z"/><path d="M159.9,95.58l-1.47-2.49h-1.17v2.49h-1.17V88.91H159A2,2,0,0,1,161.21,91a1.88,1.88,0,0,1-1.59,2l1.64,2.62ZM160,91a1,1,0,0,0-1.14-1h-1.61v2.12h1.61A1.05,1.05,0,0,0,160,91Z"/><path d="M167.06,95.58l-.49-1.29h-3.06L163,95.58h-1.33l2.62-6.67h1.46l2.62,6.67Zm-2-5.5-1.2,3.18h2.4Z"/><path d="M168.47,92.25a3.41,3.41,0,1,1,6.82,0,3.49,3.49,0,0,1-.89,2.4l.55.62-.81.68-.58-.65a3.56,3.56,0,0,1-1.68.4A3.31,3.31,0,0,1,168.47,92.25Zm4.35,2.21-.83-.94.82-.68.83.94a2.63,2.63,0,0,0,.45-1.53,2.22,2.22,0,1,0-2.21,2.41A2.19,2.19,0,0,0,172.82,94.46Z"/><path d="M176.41,92.94v-4h1.19v4a1.7,1.7,0,1,0,3.4,0v-4h1.19v4a2.89,2.89,0,0,1-5.78,0Z"/><path d="M183.61,95.58V88.91h4.57v1h-3.4v1.72h3.33v1h-3.33v1.86h3.4v1Z"/><path d="M128,170.94v-4h1.19v4a1.7,1.7,0,1,0,3.4,0v-4h1.19v4a2.89,2.89,0,0,1-5.78,0Z"/><path d="M136.79,173.58v-5.64h-2v-1H140v1h-2v5.64Z"/><path d="M144.78,173.58l-1.47-2.49h-1.17v2.49H141v-6.67h2.93a2,2,0,0,1,2.19,2.09,1.88,1.88,0,0,1-1.59,2l1.64,2.62Zm.11-4.59a1,1,0,0,0-1.14-1h-1.61v2.12h1.61A1.05,1.05,0,0,0,144.89,169Z"/><path d="M147.26,173.58v-6.67h4.57v1h-3.4v1.72h3.33v1h-3.33v1.86h3.4v1Z"/><path d="M152.74,170.25a3.36,3.36,0,0,1,3.5-3.45,3,3,0,0,1,2.67,1.49l-1,.52a2,2,0,0,0-1.68-1,2.41,2.41,0,0,0,0,4.82,2,2,0,0,0,1.68-1l1,.5a3,3,0,0,1-2.68,1.51A3.36,3.36,0,0,1,152.74,170.25Z"/><path d="M164.49,173.58v-2.92H161v2.92h-1.17v-6.67H161v2.72h3.47v-2.72h1.17v6.67Z"/><path d="M168.67,173.58v-5.64h-2v-1h5.21v1h-2v5.64Z"/><path d="M262.76,219.58v-5.15l-2,5.15h-.5l-2-5.15v5.15H257v-6.67h1.65l1.82,4.58,1.81-4.58h1.65v6.67Z"/><path d="M265.35,216.94v-4h1.19v4a1.7,1.7,0,1,0,3.4,0v-4h1.19v4a2.89,2.89,0,0,1-5.78,0Z"/><path d="M277.2,219.58l-3.48-4.77v4.77h-1.17v-6.67h1.2l3.41,4.62v-4.62h1.17v6.67Z"/><path d="M279.75,219.58v-6.67h1.17v6.67Z"/><path d="M282.05,216.25a3.36,3.36,0,0,1,3.5-3.45,3,3,0,0,1,2.67,1.49l-1,.52a2,2,0,0,0-1.68-1,2.41,2.41,0,0,0,0,4.82,2,2,0,0,0,1.68-1l1,.5a3,3,0,0,1-2.68,1.51A3.36,3.36,0,0,1,282.05,216.25Z"/><path d="M293.8,219.58v-2.92h-3.47v2.92h-1.17v-6.67h1.17v2.72h3.47v-2.72H295v6.67Z"/><path d="M43.57,193.64l.66-.91a2.86,2.86,0,0,0,2.11.93c1,0,1.33-.47,1.33-.92,0-1.4-3.88-.53-3.88-3,0-1.11,1-2,2.43-2a3.45,3.45,0,0,1,2.49.94l-.66.87a2.71,2.71,0,0,0-1.94-.77c-.68,0-1.12.34-1.12.83,0,1.25,3.88.48,3.88,3,0,1.11-.79,2.07-2.58,2.07A3.65,3.65,0,0,1,43.57,193.64Z"/><path d="M51.43,194.58v-5.64h-2v-1h5.21v1h-2v5.64Z"/><path d="M55.07,191.25a3.41,3.41,0,1,1,3.41,3.45A3.31,3.31,0,0,1,55.07,191.25Zm5.62,0a2.22,2.22,0,1,0-2.21,2.41A2.21,2.21,0,0,0,60.69,191.25Z"/><path d="M62.72,191.25a3.36,3.36,0,0,1,3.5-3.45,3,3,0,0,1,2.67,1.49l-1,.52a2,2,0,0,0-1.68-1,2.41,2.41,0,0,0,0,4.82,2,2,0,0,0,1.68-1l1,.5a3,3,0,0,1-2.68,1.51A3.36,3.36,0,0,1,62.72,191.25Z"/><path d="M74.47,194.58v-2.92H71v2.92H69.83v-6.67H71v2.72h3.47v-2.72h1.17v6.67Z"/><path d="M76.77,191.25a3.41,3.41,0,1,1,3.41,3.45A3.31,3.31,0,0,1,76.77,191.25Zm5.62,0a2.22,2.22,0,1,0-2.21,2.41A2.21,2.21,0,0,0,82.39,191.25Z"/><path d="M84.63,194.58v-6.67H85.8v5.64h2.94v1Z"/><path d="M95.53,194.58v-5.15l-2,5.15H93l-2-5.15v5.15H89.77v-6.67h1.65l1.82,4.58L95,187.91H96.7v6.67Z"/><path d="M210.76,50.58V45.43l-2,5.15h-.5l-2-5.15v5.15H205V43.91h1.65l1.82,4.58,1.81-4.58h1.65v6.67Z"/><path d="M218,50.58l-.49-1.29h-3.06L214,50.58h-1.33l2.62-6.67h1.46l2.62,6.67Zm-2-5.5-1.2,3.18h2.4Z"/><path d="M220.08,50.58V43.91h2.48a3.34,3.34,0,1,1,0,6.67Zm4.77-3.34a2.15,2.15,0,0,0-2.28-2.3h-1.32v4.61h1.31A2.19,2.19,0,0,0,224.85,47.24Z"/><path d="M231,50.58l-1.47-2.49h-1.17v2.49h-1.17V43.91h2.93A2,2,0,0,1,232.3,46a1.88,1.88,0,0,1-1.59,2l1.64,2.62ZM231.1,46a1,1,0,0,0-1.14-1h-1.61v2.12H230A1.05,1.05,0,0,0,231.1,46Z"/><path d="M233.47,50.58V43.91h1.17v6.67Z"/><path d="M236.06,50.58V43.91h2.48a3.34,3.34,0,1,1,0,6.67Zm4.77-3.34a2.15,2.15,0,0,0-2.28-2.3h-1.32v4.61h1.31A2.19,2.19,0,0,0,240.83,47.24Z"/><path d="M343,66.58V59.91h3.28a1.7,1.7,0,0,1,1.9,1.7A1.51,1.51,0,0,1,347,63.14a1.63,1.63,0,0,1,1.29,1.63,1.75,1.75,0,0,1-1.94,1.81Zm4-4.78a.84.84,0,0,0-.93-.86h-1.88v1.72H346A.83.83,0,0,0,347,61.8Zm.13,2.82a.92.92,0,0,0-1-.93h-1.93v1.86h1.93A.9.9,0,0,0,347.11,64.62Z"/><path d="M354.17,66.58l-.49-1.29h-3.06l-.49,1.29H348.8l2.62-6.67h1.46l2.62,6.67Zm-2-5.5-1.2,3.18h2.4Z"/><path d="M360,66.58l-1.47-2.49h-1.17v2.49h-1.17V59.91h2.93A2,2,0,0,1,361.34,62a1.88,1.88,0,0,1-1.59,2l1.64,2.62Zm.11-4.59a1,1,0,0,0-1.14-1h-1.61v2.12H359A1.05,1.05,0,0,0,360.14,62Z"/><path d="M362.22,63.25a3.36,3.36,0,0,1,3.5-3.45,3,3,0,0,1,2.67,1.49l-1,.52a2,2,0,0,0-1.68-1,2.41,2.41,0,0,0,0,4.82,2,2,0,0,0,1.68-1l1,.5a3,3,0,0,1-2.68,1.51A3.36,3.36,0,0,1,362.22,63.25Z"/><path d="M369.33,66.58V59.91h4.57v1h-3.4v1.72h3.33v1H370.5v1.86h3.4v1Z"/><path d="M375,66.58V59.91h1.17v5.64h2.94v1Z"/><path d="M379.57,63.25A3.41,3.41,0,1,1,383,66.7,3.31,3.31,0,0,1,379.57,63.25Zm5.62,0A2.22,2.22,0,1,0,383,65.66,2.21,2.21,0,0,0,385.19,63.25Z"/><path d="M392.16,66.58l-3.48-4.77v4.77h-1.17V59.91h1.2l3.41,4.62V59.91h1.17v6.67Z"/><path d="M399.39,66.58l-.49-1.29h-3.06l-.49,1.29H394l2.62-6.67h1.46l2.62,6.67Zm-2-5.5-1.2,3.18h2.4Z"/><path d="M273.81,158.58l-1.47-2.49h-1.17v2.49H270v-6.67h2.93a2,2,0,0,1,2.19,2.09,1.88,1.88,0,0,1-1.59,2l1.64,2.62Zm.11-4.59a1,1,0,0,0-1.14-1h-1.61v2.12h1.61A1.05,1.05,0,0,0,273.92,154Z"/><path d="M276,155.25a3.41,3.41,0,1,1,3.41,3.45A3.31,3.31,0,0,1,276,155.25Zm5.62,0a2.22,2.22,0,1,0-2.21,2.41A2.21,2.21,0,0,0,281.62,155.25Z"/><path d="M289.7,158.58v-5.15l-2,5.15h-.5l-2-5.15v5.15h-1.17v-6.67h1.65l1.82,4.58,1.81-4.58h1.65v6.67Z"/><path d="M292.29,158.58v-6.67h4.57v1h-3.4v1.72h3.33v1h-3.33v1.86h3.4v1Z"/><path d="M46.76,42.58V37.43l-2,5.15h-.5l-2-5.15v5.15H41V35.91h1.65l1.82,4.58,1.81-4.58h1.65v6.67Z"/><path d="M49.35,42.58V35.91h1.17v6.67Z"/><path d="M51.86,42.58V35.91H53v5.64H56v1Z"/><path d="M61.68,42.58l-.49-1.29H58.13l-.49,1.29H56.31l2.62-6.67h1.46L63,42.58Zm-2-5.5-1.2,3.18h2.4Z"/><path d="M68.38,42.58,64.9,37.81v4.77H63.73V35.91h1.2l3.41,4.62V35.91h1.17v6.67Z"/><path d="M98,60.58V53.91h4.57v1h-3.4v1.72h3.33v1H99.17v2.89Z"/><path d="M103.55,60.58V53.91h1.17v5.64h2.94v1Z"/><path d="M108.1,57.25a3.41,3.41,0,1,1,3.41,3.45A3.31,3.31,0,0,1,108.1,57.25Zm5.62,0a2.22,2.22,0,1,0-2.21,2.41A2.21,2.21,0,0,0,113.72,57.25Z"/><path d="M119.85,60.58l-1.47-2.49h-1.17v2.49H116V53.91H119A2,2,0,0,1,121.16,56a1.88,1.88,0,0,1-1.59,2l1.64,2.62ZM120,56a1,1,0,0,0-1.14-1h-1.61v2.12h1.61A1.05,1.05,0,0,0,120,56Z"/><path d="M122.33,60.58V53.91h4.57v1h-3.4v1.72h3.33v1H123.5v1.86h3.4v1Z"/><path d="M132.75,60.58l-3.48-4.77v4.77H128.1V53.91h1.2l3.41,4.62V53.91h1.17v6.67Z"/><path d="M135,57.25a3.36,3.36,0,0,1,3.5-3.45,3,3,0,0,1,2.67,1.49l-1,.52a2,2,0,0,0-1.68-1,2.41,2.41,0,0,0,0,4.82,2,2,0,0,0,1.68-1l1,.5a3,3,0,0,1-2.68,1.51A3.36,3.36,0,0,1,135,57.25Z"/><path d="M142.12,60.58V53.91h4.57v1h-3.4v1.72h3.33v1h-3.33v1.86h3.4v1Z"/><path d="M268.92,92.58V85.91h1.17v5.64H273v1Z"/><path d="M274.06,92.58V85.91h1.17v6.67Z"/><path d="M276.22,91.64l.66-.91a2.86,2.86,0,0,0,2.11.93c1,0,1.33-.47,1.33-.92,0-1.4-3.88-.53-3.88-3,0-1.11,1-2,2.43-2a3.45,3.45,0,0,1,2.49.94l-.66.87a2.72,2.72,0,0,0-1.94-.77c-.68,0-1.12.34-1.12.83,0,1.25,3.88.48,3.88,3,0,1.11-.79,2.07-2.58,2.07A3.64,3.64,0,0,1,276.22,91.64Z"/><path d="M282.59,92.58V85.91h3.28a1.7,1.7,0,0,1,1.9,1.7,1.51,1.51,0,0,1-1.16,1.53,1.63,1.63,0,0,1,1.29,1.63A1.75,1.75,0,0,1,286,92.58Zm4-4.78a.84.84,0,0,0-.93-.86h-1.88v1.72h1.88A.83.83,0,0,0,286.57,87.8Zm.13,2.82a.92.92,0,0,0-1-.93h-1.93v1.86h1.93A.9.9,0,0,0,286.7,90.62Z"/><path d="M288.79,89.25a3.41,3.41,0,1,1,3.41,3.45A3.31,3.31,0,0,1,288.79,89.25Zm5.62,0a2.22,2.22,0,1,0-2.21,2.41A2.21,2.21,0,0,0,294.41,89.25Z"/><path d="M301.06,92.58l-.49-1.29h-3.06L297,92.58h-1.33l2.62-6.67h1.46l2.62,6.67Zm-2-5.5-1.2,3.18h2.4Z"/><path d="M129.71,226.25a3.36,3.36,0,0,1,3.5-3.45,3,3,0,0,1,2.67,1.49l-1,.52a2,2,0,0,0-1.68-1,2.41,2.41,0,0,0,0,4.82,2,2,0,0,0,1.68-1l1,.5a3,3,0,0,1-2.68,1.51A3.36,3.36,0,0,1,129.71,226.25Z"/><path d="M141.46,229.58v-2.92H138v2.92h-1.17v-6.67H138v2.72h3.47v-2.72h1.17v6.67Z"/><path d="M144,229.58v-6.67h1.17v6.67Z"/><path d="M146.35,226.25a3.36,3.36,0,0,1,3.5-3.45,3,3,0,0,1,2.67,1.49l-1,.52a2,2,0,0,0-1.68-1,2.41,2.41,0,0,0,0,4.82,2,2,0,0,0,1.68-1l1,.5a3,3,0,0,1-2.68,1.51A3.36,3.36,0,0,1,146.35,226.25Z"/><path d="M158.1,229.58v-2.92h-3.47v2.92h-1.17v-6.67h1.17v2.72h3.47v-2.72h1.17v6.67Z"/><path d="M165.37,229.58l-.49-1.29h-3.06l-.49,1.29H160l2.62-6.67h1.46l2.62,6.67Zm-2-5.5-1.2,3.18h2.4Z"/><path d="M166.78,226.25a3.35,3.35,0,0,1,3.5-3.45,3.12,3.12,0,0,1,2.68,1.38l-.95.55a2.15,2.15,0,0,0-1.73-.89,2.41,2.41,0,0,0,0,4.82,2.4,2.4,0,0,0,1.58-.6v-1h-2v-1H173v2.49a3.6,3.6,0,0,1-2.74,1.22A3.36,3.36,0,0,1,166.78,226.25Z"/><path d="M173.95,226.25a3.41,3.41,0,1,1,3.41,3.45A3.31,3.31,0,0,1,173.95,226.25Zm5.62,0a2.22,2.22,0,1,0-2.21,2.41A2.21,2.21,0,0,0,179.57,226.25Z"/><path d="M332.65,106.58l-3.48-4.77v4.77H328V99.91h1.2l3.41,4.62V99.91h1.17v6.67Z"/><path d="M337.1,106.58v-2.77l-2.59-3.9h1.34l1.83,2.85,1.83-2.85h1.34l-2.58,3.9v2.77Z"/><path d="M340.88,103.25a3.36,3.36,0,0,1,3.5-3.45,3,3,0,0,1,2.67,1.49l-1,.52a2,2,0,0,0-1.68-1,2.41,2.41,0,0,0,0,4.82,2,2,0,0,0,1.68-1l1,.5a3,3,0,0,1-2.68,1.51A3.36,3.36,0,0,1,340.88,103.25Z"/><path d="M297.57,33.64l.66-.91a2.86,2.86,0,0,0,2.11.93c1,0,1.33-.47,1.33-.92,0-1.4-3.88-.53-3.88-3,0-1.11,1-2,2.43-2a3.45,3.45,0,0,1,2.49.94l-.66.87a2.72,2.72,0,0,0-1.94-.77c-.68,0-1.12.34-1.12.83,0,1.25,3.88.48,3.88,3,0,1.11-.79,2.07-2.58,2.07A3.65,3.65,0,0,1,297.57,33.64Z"/><path d="M308.52,34.58,308,33.29H305l-.49,1.29h-1.33l2.62-6.67h1.46l2.62,6.67Zm-2-5.5-1.2,3.18h2.4Z"/><path d="M315.22,34.58l-3.48-4.77v4.77h-1.17V27.91h1.2l3.41,4.62V27.91h1.17v6.67Z"/><path d="M320.35,34.58V27.91h4.57v1h-3.4v1.72h3.33v1h-3.33v2.89Z"/><path d="M329.79,34.58l-1.47-2.49h-1.17v2.49H326V27.91h2.93A2,2,0,0,1,331.1,30a1.88,1.88,0,0,1-1.59,2l1.64,2.62ZM329.9,30a1,1,0,0,0-1.14-1h-1.61v2.12h1.61A1.05,1.05,0,0,0,329.9,30Z"/><path d="M336.95,34.58l-.49-1.29H333.4l-.49,1.29h-1.33l2.62-6.67h1.46l2.62,6.67Zm-2-5.5-1.2,3.18h2.4Z"/><path d="M343.65,34.58l-3.48-4.77v4.77H339V27.91h1.2l3.41,4.62V27.91h1.17v6.67Z"/><path d="M345.91,31.25a3.36,3.36,0,0,1,3.5-3.45,3,3,0,0,1,2.67,1.49l-1,.52a2,2,0,0,0-1.68-1,2.41,2.41,0,0,0,0,4.82,2,2,0,0,0,1.68-1l1,.5a3,3,0,0,1-2.68,1.51A3.36,3.36,0,0,1,345.91,31.25Z"/><path d="M353,34.58V27.91h1.17v6.67Z"/><path d="M355.18,33.64l.66-.91a2.86,2.86,0,0,0,2.11.93c1,0,1.33-.47,1.33-.92,0-1.4-3.88-.53-3.88-3,0-1.11,1-2,2.43-2a3.45,3.45,0,0,1,2.49.94l-.66.87a2.72,2.72,0,0,0-1.94-.77c-.68,0-1.12.34-1.12.83,0,1.25,3.88.48,3.88,3,0,1.11-.79,2.07-2.58,2.07A3.64,3.64,0,0,1,355.18,33.64Z"/><path d="M361.26,31.25a3.36,3.36,0,0,1,3.5-3.45,3,3,0,0,1,2.67,1.49l-1,.52a2,2,0,0,0-1.68-1,2.41,2.41,0,0,0,0,4.82,2,2,0,0,0,1.68-1l1,.5a3,3,0,0,1-2.68,1.51A3.36,3.36,0,0,1,361.26,31.25Z"/><path d="M368.08,31.25a3.41,3.41,0,1,1,3.41,3.45A3.31,3.31,0,0,1,368.08,31.25Zm5.62,0a2.22,2.22,0,1,0-4.42,0,2.22,2.22,0,1,0,4.42,0Z"/><path d="M421,109.58v-6.67h3.28a1.7,1.7,0,0,1,1.9,1.7,1.51,1.51,0,0,1-1.16,1.53,1.63,1.63,0,0,1,1.29,1.63,1.75,1.75,0,0,1-1.94,1.81Zm4-4.78a.84.84,0,0,0-.93-.86h-1.88v1.72H424A.83.83,0,0,0,425,104.8Zm.13,2.82a.92.92,0,0,0-1-.93h-1.93v1.86h1.93A.9.9,0,0,0,425.11,107.62Z"/><path d="M431.3,109.58l-1.47-2.49h-1.17v2.49h-1.17v-6.67h2.93a2,2,0,0,1,2.19,2.09,1.88,1.88,0,0,1-1.59,2l1.64,2.62Zm.11-4.59a1,1,0,0,0-1.14-1h-1.61v2.12h1.61A1.05,1.05,0,0,0,431.41,105Z"/><path d="M433.78,106.94v-4H435v4a1.7,1.7,0,1,0,3.4,0v-4h1.19v4a2.89,2.89,0,0,1-5.78,0Z"/><path d="M445.45,109.58,443.58,107l-1.87,2.61h-1.4l2.49-3.42-2.34-3.25h1.4l1.72,2.44,1.71-2.44h1.41l-2.35,3.24,2.5,3.43Z"/><path d="M447.59,109.58v-6.67h4.57v1h-3.4v1.72h3.33v1h-3.33v1.86h3.4v1Z"/><path d="M453.28,109.58v-6.67h1.17v5.64h2.94v1Z"/><path d="M458.34,109.58v-6.67h1.17v5.64h2.94v1Z"/><path d="M463.48,109.58v-6.67H468v1h-3.4v1.72H468v1h-3.33v1.86H468v1Z"/><path d="M468.82,108.64l.66-.91a2.86,2.86,0,0,0,2.11.93c1,0,1.33-.47,1.33-.92,0-1.4-3.88-.53-3.88-3,0-1.11,1-2,2.43-2a3.45,3.45,0,0,1,2.49.94l-.66.87a2.72,2.72,0,0,0-1.94-.77c-.68,0-1.12.34-1.12.83,0,1.25,3.88.48,3.88,3,0,1.11-.79,2.07-2.58,2.07A3.64,3.64,0,0,1,468.82,108.64Z"/><path d="M442.68,147.58l-.49-1.29h-3.06l-.49,1.29h-1.33l2.62-6.67h1.46l2.62,6.67Zm-2-5.5-1.2,3.18h2.4Z"/><path d="M450.49,147.58v-5.15l-2,5.15h-.5l-2-5.15v5.15h-1.17v-6.67h1.65l1.82,4.58,1.81-4.58h1.65v6.67Z"/><path d="M452.65,146.64l.66-.91a2.86,2.86,0,0,0,2.11.93c1,0,1.33-.47,1.33-.92,0-1.4-3.88-.53-3.88-3,0-1.11,1-2,2.43-2a3.45,3.45,0,0,1,2.49.94l-.66.87a2.72,2.72,0,0,0-1.94-.77c-.68,0-1.12.34-1.12.83,0,1.25,3.88.48,3.88,3,0,1.11-.79,2.07-2.58,2.07A3.65,3.65,0,0,1,452.65,146.64Z"/><path d="M460.51,147.58v-5.64h-2v-1h5.21v1h-2v5.64Z"/><path d="M464.69,147.58v-6.67h4.57v1h-3.4v1.72h3.33v1h-3.33v1.86h3.4v1Z"/><path d="M474.27,147.58l-1.47-2.49h-1.17v2.49h-1.17v-6.67h2.93a2,2,0,0,1,2.19,2.09,1.88,1.88,0,0,1-1.59,2l1.64,2.62Zm.11-4.59a1,1,0,0,0-1.14-1h-1.61v2.12h1.61A1.05,1.05,0,0,0,474.38,143Z"/><path d="M476.75,147.58v-6.67h2.48a3.34,3.34,0,1,1,0,6.67Zm4.77-3.34a2.15,2.15,0,0,0-2.28-2.3h-1.32v4.61h1.31A2.19,2.19,0,0,0,481.52,144.24Z"/><path d="M488.18,147.58l-.49-1.29h-3.06l-.49,1.29h-1.33l2.62-6.67h1.46l2.62,6.67Zm-2-5.5-1.2,3.18h2.4Z"/><path d="M496,147.58v-5.15l-2,5.15h-.5l-2-5.15v5.15h-1.17v-6.67h1.65l1.82,4.58,1.81-4.58h1.65v6.67Z"/><path d="M356,183.58v-6.67h2.48a3.34,3.34,0,1,1,0,6.67Zm4.77-3.34a2.15,2.15,0,0,0-2.28-2.3h-1.32v4.61h1.31A2.19,2.19,0,0,0,360.77,180.24Z"/><path d="M363.1,180.94v-4h1.19v4a1.7,1.7,0,1,0,3.4,0v-4h1.19v4a2.89,2.89,0,0,1-5.78,0Z"/><path d="M370.3,183.58v-6.67h3.28a1.7,1.7,0,0,1,1.9,1.7,1.51,1.51,0,0,1-1.16,1.53,1.63,1.63,0,0,1,1.29,1.63,1.75,1.75,0,0,1-1.94,1.81Zm4-4.78a.84.84,0,0,0-.93-.86h-1.88v1.72h1.88A.83.83,0,0,0,374.28,178.8Zm.13,2.82a.92.92,0,0,0-1-.93h-1.93v1.86h1.93A.9.9,0,0,0,374.41,181.62Z"/><path d="M376.71,183.58v-6.67h1.17v5.64h2.94v1Z"/><path d="M381.85,183.58v-6.67H383v6.67Z"/><path d="M389.09,183.58l-3.48-4.77v4.77h-1.17v-6.67h1.2l3.41,4.62v-4.62h1.17v6.67Z"/><path d="M61.57,90.64l.66-.91a2.86,2.86,0,0,0,2.11.93c1,0,1.33-.47,1.33-.92,0-1.4-3.88-.53-3.88-3,0-1.11,1-2,2.43-2a3.45,3.45,0,0,1,2.49.94l-.66.87a2.72,2.72,0,0,0-1.94-.77c-.68,0-1.12.34-1.12.83,0,1.25,3.88.48,3.88,3,0,1.11-.79,2.07-2.58,2.07A3.64,3.64,0,0,1,61.57,90.64Z"/><path d="M72.52,91.58,72,90.29H69l-.49,1.29H67.15l2.62-6.67h1.46l2.62,6.67Zm-2-5.5-1.2,3.18h2.4Z"/><path d="M79.22,91.58l-3.48-4.77v4.77H74.57V84.91h1.2l3.41,4.62V84.91h1.17v6.67Z"/><path d="M84.35,91.58V84.91h2.48a3.34,3.34,0,1,1,0,6.67Zm4.77-3.34a2.15,2.15,0,0,0-2.28-2.3H85.52v4.61h1.31A2.19,2.19,0,0,0,89.12,88.24Z"/><path d="M91.45,91.58V84.91h1.17v6.67Z"/><path d="M94,91.58V84.91h4.57v1h-3.4v1.72h3.33v1H95.21v1.86h3.4v1Z"/><path d="M99.52,88.25A3.35,3.35,0,0,1,103,84.8a3.12,3.12,0,0,1,2.68,1.38l-.95.55a2.15,2.15,0,0,0-1.73-.89,2.41,2.41,0,0,0,0,4.82,2.39,2.39,0,0,0,1.58-.6V89h-2V88h3.16v2.49A3.6,3.6,0,0,1,103,91.71,3.36,3.36,0,0,1,99.52,88.25Z"/><path d="M106.69,88.25a3.41,3.41,0,1,1,3.41,3.45A3.31,3.31,0,0,1,106.69,88.25Zm5.62,0a2.22,2.22,0,1,0-2.21,2.41A2.21,2.21,0,0,0,112.31,88.25Z"/><path d="M55.93,138.58l-2.62-6.67h1.33l2,5.39,2-5.39H60l-2.62,6.67Z"/><path d="M60.73,138.58v-6.67H61.9v6.67Z"/><path d="M63.32,138.58v-6.67h4.57v1h-3.4v1.72h3.33v1H64.49v1.86h3.4v1Z"/><path d="M73.74,138.58l-3.48-4.77v4.77H69.09v-6.67h1.2l3.41,4.62v-4.62h1.17v6.67Z"/><path d="M80.94,138.58l-3.48-4.77v4.77H76.29v-6.67h1.2l3.41,4.62v-4.62h1.17v6.67Z"/><path d="M88.17,138.58l-.49-1.29H84.62l-.49,1.29H82.8l2.62-6.67h1.46l2.62,6.67Zm-2-5.5-1.2,3.18h2.4Z"/><path d="M196.64,119.58v-2.92h-3.47v2.92H192v-6.67h1.17v2.72h3.47v-2.72h1.17v6.67Z"/><path d="M203.91,119.58l-.49-1.29h-3.06l-.49,1.29h-1.33l2.62-6.67h1.46l2.62,6.67Zm-2-5.5-1.2,3.18h2.4Z"/><path d="M211.72,119.58v-5.15l-2,5.15h-.5l-2-5.15v5.15H206v-6.67h1.65l1.82,4.58,1.81-4.58h1.65v6.67Z"/><path d="M214.31,119.58v-6.67h3.28a1.7,1.7,0,0,1,1.9,1.7,1.51,1.51,0,0,1-1.16,1.53,1.63,1.63,0,0,1,1.29,1.63,1.75,1.75,0,0,1-1.94,1.81Zm4-4.78a.84.84,0,0,0-.93-.86h-1.88v1.72h1.88A.83.83,0,0,0,218.29,114.8Zm.13,2.82a.92.92,0,0,0-1-.93h-1.93v1.86h1.93A.9.9,0,0,0,218.42,117.62Z"/><path d="M220.8,116.94v-4H222v4a1.7,1.7,0,1,0,3.4,0v-4h1.19v4a2.89,2.89,0,0,1-5.78,0Z"/><path d="M231.81,119.58l-1.47-2.49h-1.17v2.49H228v-6.67h2.93a2,2,0,0,1,2.19,2.09,1.88,1.88,0,0,1-1.59,2l1.64,2.62Zm.11-4.59a1,1,0,0,0-1.14-1h-1.61v2.12h1.61A1.05,1.05,0,0,0,231.92,115Z"/><path d="M234,116.25a3.35,3.35,0,0,1,3.5-3.45,3.12,3.12,0,0,1,2.68,1.38l-.95.55a2.15,2.15,0,0,0-1.73-.89,2.41,2.41,0,0,0,0,4.82,2.4,2.4,0,0,0,1.58-.6v-1h-2v-1h3.16v2.49a3.6,3.6,0,0,1-2.74,1.22A3.36,3.36,0,0,1,234,116.25Z"/><path d="M5.76,173.58v-5.15l-2,5.15h-.5l-2-5.15v5.15H0v-6.67H1.65l1.82,4.58,1.81-4.58H6.93v6.67Z"/><path d="M8.06,170.25a3.31,3.31,0,0,1,3.41-3.45,3.45,3.45,0,0,1,0,6.9A3.31,3.31,0,0,1,8.06,170.25Zm5.62,0a2.22,2.22,0,1,0-2.21,2.41A2.21,2.21,0,0,0,13.68,170.25Z"/><path d="M20.65,173.58l-3.48-4.77v4.77H16v-6.67h1.2l3.41,4.62v-4.62h1.17v6.67Z"/><path d="M27.88,173.58l-.49-1.29H24.33l-.49,1.29H22.51l2.62-6.67h1.46l2.62,6.67Zm-2-5.5-1.2,3.18h2.4Z"/><path d="M29.29,170.25a3.36,3.36,0,0,1,3.5-3.45,3,3,0,0,1,2.67,1.49l-1,.52a2,2,0,0,0-1.68-1,2.41,2.41,0,0,0,0,4.82,2,2,0,0,0,1.68-1l1,.5a3,3,0,0,1-2.68,1.51A3.36,3.36,0,0,1,29.29,170.25Z"/><path d="M36.11,170.25a3.41,3.41,0,1,1,3.41,3.45A3.31,3.31,0,0,1,36.11,170.25Zm5.62,0a2.22,2.22,0,1,0-2.21,2.41A2.21,2.21,0,0,0,41.73,170.25Z"/><path d="M355.76,229.58v-5.15l-2,5.15h-.5l-2-5.15v5.15H350v-6.67h1.65l1.82,4.58,1.81-4.58h1.65v6.67Z"/><path d="M358.06,226.25a3.41,3.41,0,1,1,3.41,3.45A3.31,3.31,0,0,1,358.06,226.25Zm5.62,0a2.22,2.22,0,1,0-2.21,2.41A2.21,2.21,0,0,0,363.68,226.25Z"/><path d="M365.57,228.64l.66-.91a2.86,2.86,0,0,0,2.11.93c1,0,1.33-.47,1.33-.92,0-1.4-3.88-.53-3.88-3,0-1.11,1-2,2.43-2a3.45,3.45,0,0,1,2.49.94l-.66.87a2.72,2.72,0,0,0-1.94-.77c-.68,0-1.12.34-1.12.83,0,1.25,3.88.48,3.88,3,0,1.11-.79,2.07-2.58,2.07A3.65,3.65,0,0,1,365.57,228.64Z"/><path d="M371.65,226.25a3.36,3.36,0,0,1,3.5-3.45,3,3,0,0,1,2.67,1.49l-1,.52a2,2,0,0,0-1.68-1,2.41,2.41,0,0,0,0,4.82,2,2,0,0,0,1.68-1l1,.5a3,3,0,0,1-2.68,1.51A3.36,3.36,0,0,1,371.65,226.25Z"/><path d="M378.47,226.25a3.41,3.41,0,1,1,3.41,3.45A3.31,3.31,0,0,1,378.47,226.25Zm5.62,0a2.22,2.22,0,1,0-2.21,2.41A2.21,2.21,0,0,0,384.09,226.25Z"/><path d="M391.31,229.58,390,224.65l-1.3,4.93h-1.25l-1.9-6.67h1.3l1.3,5.13,1.38-5.13h.93l1.38,5.13,1.3-5.13h1.31l-1.91,6.67Z"/><path d="M425,203.58v-6.67h1.17v6.67Z"/><path d="M427.16,202.64l.66-.91a2.86,2.86,0,0,0,2.11.93c1,0,1.33-.47,1.33-.92,0-1.4-3.88-.53-3.88-3,0-1.11,1-2,2.43-2a3.45,3.45,0,0,1,2.49.94l-.66.87a2.72,2.72,0,0,0-1.94-.77c-.68,0-1.12.34-1.12.83,0,1.25,3.88.48,3.88,3,0,1.11-.79,2.07-2.58,2.07A3.65,3.65,0,0,1,427.16,202.64Z"/><path d="M435,203.58v-5.64h-2v-1h5.21v1h-2v5.64Z"/><path d="M443.23,203.58l-.49-1.29h-3.06l-.49,1.29h-1.33l2.62-6.67h1.46l2.62,6.67Zm-2-5.5-1.2,3.18h2.4Z"/><path d="M449.93,203.58l-3.48-4.77v4.77h-1.17v-6.67h1.2l3.41,4.62v-4.62h1.17v6.67Z"/><path d="M452.48,203.58v-6.67h3.28a1.7,1.7,0,0,1,1.9,1.7,1.51,1.51,0,0,1-1.16,1.53,1.63,1.63,0,0,1,1.29,1.63,1.75,1.75,0,0,1-1.94,1.81Zm4-4.78a.84.84,0,0,0-.93-.86h-1.88v1.72h1.88A.83.83,0,0,0,456.46,198.8Zm.13,2.82a.92.92,0,0,0-1-.93h-1.93v1.86h1.93A.9.9,0,0,0,456.59,201.62Z"/><path d="M459,200.94v-4h1.19v4a1.7,1.7,0,1,0,3.4,0v-4h1.19v4a2.89,2.89,0,0,1-5.78,0Z"/><path d="M466.09,203.58v-6.67h1.17v5.64h2.94v1Z"/><path d="M487.92,227.58v-6.67h1.17v5.64H492v1Z"/><path d="M497.74,227.58l-.49-1.29h-3.06l-.49,1.29h-1.33l2.62-6.67h1.46l2.62,6.67Zm-2-5.5-1.2,3.18h2.4Z"/></g></g></svg>