<svg xmlns="http://www.w3.org/2000/svg" viewBox="0 0 15.22 30.86"><defs><style>.cls-1{stroke:#000;stroke-miterlimit:10;stroke-width:1.01px;}</style></defs><title>store-btn</title><g id="Layer_2" data-name="Layer 2"><g id="Layer_2-2" data-name="Layer 2"><path id="svg_1" data-name="svg 1" class="cls-1" d="M14.71,7.79c0,4-7.15,13.61-7.12,13.63S.5,11.79.51,7.77A7.19,7.19,0,0,1,7.62.51,7.19,7.19,0,0,1,14.71,7.79ZM7.61,4.71a3.06,3.06,0,1,0,3,3.06,3,3,0,0,0-3-3.06Z"/><path d="M2.66,30.86V24.19H3.83v5.64H6.77v1Z"/><path d="M12.48,30.86,12,29.57H8.93l-.49,1.29H7.11l2.62-6.67h1.46l2.62,6.67Zm-2-5.5-1.2,3.18h2.4Z"/></g></g></svg>