<svg xmlns="http://www.w3.org/2000/svg" viewBox="0 0 297.91 201.32"><defs><style>.cls-1,.cls-2{fill:none;stroke:#000;}.cls-1{stroke-miterlimit:10;stroke-width:5px;}.cls-2{stroke-linecap:round;stroke-linejoin:round;stroke-width:4.36px;}</style></defs><title>store_1</title><g id="Layer_2" data-name="Layer 2"><g id="Layer_1-2" data-name="Layer 1"><g id="product"><path class="cls-1" d="M132.39,117.34c-6.72-4.88-1.11-10.62,5.31-12.8,7.7-2.61,21.45,10.53,21.45,10.53"/><path class="cls-1" d="M162.49,117.59l-3.35-2.52s-6-5.06-16.26-3.24S115.42,135,100.16,135c-13.67,0-12.63-15.67-21.45-15.67s-11.94,22.58-11.94,33.87.69,19.55,4.15,27.8a12.9,12.9,0,0,0-2.77,8.26c0,5.22,1.38,9.61,5.54,9.61H234c12.2,0,28.11-4.21,29-16s-8.48-16.18-15.22-17.36c-4.49-.78-21.37-7-46-21.6"/><path class="cls-1" d="M132.39,117.34l60.66,36.16c9.69,5.39,22.45,11.61,27.66.83"/><path class="cls-1" d="M196.07,155.13c-2,5.27.1,15.38,12,15.38s39.66,2.2,42.75-4.29"/><line class="cls-1" x1="70.92" y1="180.96" x2="262.99" y2="180.96"/><line class="cls-1" x1="66.77" y1="155.13" x2="92.26" y2="132.49"/><line class="cls-1" x1="97.04" y1="180.96" x2="148.69" y2="127.05"/><line class="cls-1" x1="160.36" y1="180.96" x2="188.75" y2="150.93"/><path class="cls-1" d="M166.94,121.91l-9.5,4.55a3.13,3.13,0,0,1-4.14-1.37l-.08-.16a3,3,0,0,1,1.41-4l9.5-4.55a3.13,3.13,0,0,1,4.14,1.37l.08.16A3,3,0,0,1,166.94,121.91Z"/><path class="cls-1" d="M178.31,129.89l-8.7,4.17a3,3,0,0,1-4-1.33l-.17-.34a2.88,2.88,0,0,1,1.36-3.9l8.7-4.17a3,3,0,0,1,4,1.33l.17.34A2.88,2.88,0,0,1,178.31,129.89Z"/><path class="cls-1" d="M201,144.52l-6.6,4.28a2.83,2.83,0,0,1-3.87-.76l-.43-.63a2.67,2.67,0,0,1,.78-3.77l6.6-4.28a2.83,2.83,0,0,1,3.87.76l.43.63A2.67,2.67,0,0,1,201,144.52Z"/><path class="cls-1" d="M189.37,136.83l-6.67,4.33a2.83,2.83,0,0,1-3.87-.76l-.43-.63a2.67,2.67,0,0,1,.78-3.77l6.67-4.32a2.83,2.83,0,0,1,3.87.76l.43.63A2.67,2.67,0,0,1,189.37,136.83Z"/><path class="cls-1" d="M173.27,125.41q-2.76-1.95-5.6-4"/><path class="cls-1" d="M184.09,132.81q-2.5-1.65-5.06-3.41"/><path class="cls-1" d="M195.93,140.37q-3.08-1.89-6.29-4"/><path d="M140.72,111.68V82.17a3,3,0,0,1,1.85-2.78,3,3,0,0,1,3.29.62l5.65,5.49c4.31-3.3,15.24-13.77,25.21-23.88-3.85-6.35-16.58-22.2-28.48-36.28C138.78,14.19,118.7,8.68,113.6,7.44c-5.3,3.22-13.17,5.06-21.88,5.06S75.14,10.66,69.84,7.44c-5.1,1.24-25.18,6.75-34.63,17.92C23.31,39.43,10.59,55.28,6.73,61.63c10,10.09,20.87,20.55,25.21,23.87L37.59,80a3,3,0,0,1,5.14,2.16v72H64.85l-.34,6H39.69a3,3,0,0,1-3-3V89.34l-2.2,2.14a3,3,0,0,1-3.18.66C26.73,90.44,6.84,70.39.86,64.28A3,3,0,0,1,.25,61c3.07-7.09,25.81-34.15,30.34-39.51,12.16-14.38,38.1-20,39.2-20.21a3,3,0,0,1,2.36.49c4.21,3,11.53,4.72,19.57,4.72S107.09,4.7,111.3,1.74a3.07,3.07,0,0,1,2.36-.49c1.1.23,27,5.83,39.2,20.21,4.53,5.36,27.27,32.42,30.34,39.51a3,3,0,0,1-.61,3.31c-6,6.11-25.87,26.16-30.44,27.87a3,3,0,0,1-3.18-.66l-2.2-2.14V114Z"/><path d="M73.34,9.21a17.39,17.39,0,0,0,3.77,10c3.06,3.54,8,5.33,14.6,5.33s11.55-1.79,14.6-5.33a17.41,17.41,0,0,0,3.77-10,48.27,48.27,0,0,1-18.38,3.28A48.12,48.12,0,0,1,73.34,9.21ZM91.72,30.54c-8.5,0-15-2.52-19.22-7.47C65.75,15.2,67.35,4.2,67.42,3.74a3,3,0,0,1,4.73-2c4.21,3,11.53,4.72,19.57,4.72s15.36-1.76,19.57-4.72a3,3,0,0,1,4.73,2c.07.46,1.68,11.46-5.08,19.32-4.26,5-10.73,7.47-19.22,7.47Z"/><path d="M146.77,80.9l4.73,4.6c4.34-3.32,15.25-13.78,25.21-23.87-3.69-6.07-15.47-20.82-26.9-34.41-2.9,2.58-3,8.61-3,8.68Zm4.31,11.44a3,3,0,0,1-2.11-.86l-7.33-7.14a3,3,0,0,1-.92-2.17V35.91c0-.51.1-12.6,8.91-15.38a3,3,0,0,1,3.22.93c4.53,5.36,27.27,32.42,30.34,39.51a3,3,0,0,1-.61,3.31c-6,6.11-25.87,26.16-30.44,27.87a3,3,0,0,1-1.06.19Z"/><path d="M6.73,61.64c10,10.09,20.87,20.55,25.21,23.87l4.73-4.6v-45c0-.06-.13-6.1-3-8.68C22.2,40.82,10.42,55.57,6.73,61.64Zm25.63,30.7a3,3,0,0,1-1.06-.19C26.73,90.44,6.84,70.39.86,64.28A3,3,0,0,1,.25,61c3.07-7.09,25.81-34.15,30.34-39.51a3,3,0,0,1,3.22-.93c8.81,2.78,8.91,14.87,8.91,15.38V82.17a3,3,0,0,1-.92,2.17l-7.33,7.14a3.07,3.07,0,0,1-2.12.86Z"/></g><path class="cls-2" d="M267.24,44.26a44,44,0,0,1,28.5,41.21v20.92a5.79,5.79,0,0,1-5.79,5.79H189a5.79,5.79,0,0,1-5.79-5.79V85.47c0-18.21,12.76-35.12,28.38-41.24"/><path class="cls-2" d="M223.7,41.71a44.56,44.56,0,0,1,4.87-.27H253l1.47,0"/><path class="cls-2" d="M270.05,52A38.67,38.67,0,0,1,290,78.66"/><path class="cls-2" d="M221.35,48.1a41.53,41.53,0,0,1,8.8-.94h22.15a42.09,42.09,0,0,1,5,.3"/><path class="cls-2" d="M189.09,79.64c1.82-11.14,9.68-21.9,19.35-26.53"/><line class="cls-2" x1="255.36" y1="74.83" x2="221.14" y2="74.83"/><line class="cls-2" x1="223.87" y1="78.42" x2="223.87" y2="82.38"/><path class="cls-2" d="M239.13,7.18a5,5,0,0,0-5,5,39.48,39.48,0,0,1-.54,7.66c-1.15,7-11.36,20.14-16.5,40.49h-10.7c.43-1.61.89-3.43,1.38-5.09,8.19-27.63,21.37-38,21.37-43.06a10.26,10.26,0,0,1,10-10"/><path class="cls-2" d="M215.19,112.18h-10.7s-.32-12.09-.32-20.12,1.28-20.76,1.28-20.76h10.7s-1.28,12.92-1.28,20.76S215.19,112.18,215.19,112.18Z"/><polygon class="cls-2" points="216.16 71.3 205.45 71.3 206.42 60.31 217.12 60.31 216.16 71.3"/><line class="cls-2" x1="213.09" y1="64.1" x2="209.3" y2="67.81"/><line class="cls-2" x1="209.3" y1="64.1" x2="213.09" y2="67.81"/><path class="cls-2" d="M239.72,7.16a5,5,0,0,1,5,5,39.48,39.48,0,0,0,.54,7.66c1.15,7,11.35,20.14,16.5,40.49h10.7c-.43-1.61-.89-3.43-1.38-5.09-8.19-27.63-21.37-38-21.37-43.06a10.26,10.26,0,0,0-10-10"/><path class="cls-2" d="M263.66,112.16h10.7s.32-12.09.32-20.12-1.28-20.76-1.28-20.76h-10.7S264,84.19,264,92,263.66,112.16,263.66,112.16Z"/><polygon class="cls-2" points="262.69 71.27 273.39 71.27 272.43 60.29 261.73 60.29 262.69 71.27"/><line class="cls-2" x1="265.75" y1="64.08" x2="269.55" y2="67.79"/><line class="cls-2" x1="269.55" y1="64.08" x2="265.75" y2="67.79"/><path class="cls-2" d="M183.25,93.31s8,4.68,9.6,8.86a54.09,54.09,0,0,1,2.41,10"/><path class="cls-2" d="M295,93.31s-8,4.68-9.6,8.86a54.09,54.09,0,0,0-2.41,10"/></g></g></svg>