<svg xmlns="http://www.w3.org/2000/svg" viewBox="0 0 804.8 341.02"><defs><style>.cls-1{fill:#b0bec5;}.cls-10,.cls-11,.cls-12,.cls-13,.cls-14,.cls-15,.cls-2,.cls-4,.cls-5,.cls-6,.cls-7,.cls-8,.cls-9{fill:#ddf3f1;stroke:#c4e3e6;stroke-miterlimit:10;}.cls-3{font-size:12px;fill:#1d1d1b;font-family:ProximaNova-Semibold, Proxima Nova;font-weight:700;}.cls-4{stroke-width:1.12px;}.cls-5{stroke-width:1.07px;}.cls-6{stroke-width:1.16px;}.cls-7{stroke-width:0.94px;}.cls-8{stroke-width:1.25px;}.cls-9{stroke-width:1.05px;}.cls-10{stroke-width:1.16px;}.cls-11{stroke-width:1.13px;}.cls-12{stroke-width:1.08px;}.cls-13{stroke-width:0.92px;}.cls-14{stroke-width:1.07px;}.cls-15{stroke-width:1.01px;}</style></defs><title>stores</title><g id="Layer_2" data-name="Layer 2"><g id="Design"><path id="svg_1" data-name="svg 1" class="cls-1" d="M45.72,70.6c0,6.77-12,23-12,23s-12-16.23-11.95-23a12,12,0,1,1,23.95,0Zm-12-5.19a5.16,5.16,0,1,0,5,5.16,5.1,5.1,0,0,0-5-5.16Z"/><rect class="cls-2" x="0.5" y="96.72" width="66.5" height="24.5" rx="12" ry="12"/><text class="cls-3" transform="translate(13.53 112.46)">London</text><path id="svg_1-2" data-name="svg 1" class="cls-1" d="M45.72,289.84c0,6.77-12,23-12,23s-12-16.23-11.95-23a12,12,0,1,1,23.95,0Zm-12-5.19a5.16,5.16,0,1,0,5,5.16,5.1,5.1,0,0,0-5-5.16Z"/><rect class="cls-2" x="0.5" y="315.96" width="66.5" height="24.5" rx="12" ry="12"/><text class="cls-3" transform="translate(12.24 331.7)">Monaco</text><path id="svg_1-3" data-name="svg 1" class="cls-1" d="M186.86,103.29c0,6.77-12,23-12,23s-12-16.23-11.95-23a12,12,0,1,1,23.95,0Zm-12-5.19a5.16,5.16,0,1,0,5,5.16,5.1,5.1,0,0,0-5-5.16Z"/><rect class="cls-4" x="133.39" y="129.41" width="82.99" height="24.5" rx="12.25" ry="12.25"/><text class="cls-3" transform="translate(147.17 145.15)">San Diego</text><path id="svg_1-4" data-name="svg 1" class="cls-1" d="M354.19,103.29c0,6.77-12,23-12,23s-12-16.23-11.95-23a12,12,0,1,1,23.95,0Zm-12-5.19a5.16,5.16,0,1,0,5,5.16,5.1,5.1,0,0,0-5-5.16Z"/><rect class="cls-4" x="300.72" y="129.41" width="82.99" height="24.5" rx="12.25" ry="12.25"/><text class="cls-3" transform="translate(317.2 145.15)">Hamburg</text><path id="svg_1-5" data-name="svg 1" class="cls-1" d="M696.91,103.29c0,6.77-12,23-12,23S673,110,673,103.26a12,12,0,1,1,23.95,0Zm-12-5.19a5.16,5.16,0,1,0,5,5.16,5.1,5.1,0,0,0-5-5.16Z"/><rect class="cls-4" x="643.44" y="129.41" width="82.99" height="24.5" rx="12.25" ry="12.25"/><text class="cls-3" transform="translate(660.17 145.15)">Bruxelles</text><path id="svg_1-6" data-name="svg 1" class="cls-1" d="M696.91,253.92c0,6.77-12,23-12,23s-12-16.23-11.95-23a12,12,0,1,1,23.95,0Zm-12-5.19a5.16,5.16,0,1,0,5,5.16,5.1,5.1,0,0,0-5-5.16Z"/><rect class="cls-5" x="646.87" y="280.03" width="76.14" height="24.5" rx="11.73" ry="11.73"/><text class="cls-3" transform="translate(663.68 295.78)">Istanbul</text><path id="svg_1-7" data-name="svg 1" class="cls-1" d="M618,70.6c0,6.77-12,23-12,23s-12-16.23-11.95-23a12,12,0,1,1,23.95,0Zm-12-5.19a5.16,5.16,0,1,0,5,5.16,5.1,5.1,0,0,0-5-5.16Z"/><rect class="cls-6" x="561.18" y="96.72" width="89.61" height="24.5" rx="12.25" ry="12.25"/><text class="cls-3" transform="translate(578.94 112.46)">Barcelona</text><path id="svg_1-8" data-name="svg 1" class="cls-1" d="M767.66,197.31c0,6.77-12,23-12,23s-12-16.23-11.95-23a12,12,0,1,1,23.95,0Zm-12-5.19a5.16,5.16,0,1,0,5,5.16,5.1,5.1,0,0,0-5-5.16Z"/><rect class="cls-6" x="707.15" y="223.43" width="97.06" height="24.5" rx="12.25" ry="12.25"/><text class="cls-3" transform="translate(724.77 239.17)">Amsterdam</text><path id="svg_1-9" data-name="svg 1" class="cls-1" d="M271.34,70.6c0,6.77-12,23-12,23s-12-16.23-11.95-23a12,12,0,1,1,23.95,0Zm-12-5.19a5.16,5.16,0,1,0,5,5.16,5.1,5.1,0,0,0-5-5.16Z"/><rect class="cls-2" x="226.12" y="96.72" width="66.5" height="24.5" rx="12" ry="12"/><text class="cls-3" transform="translate(240.19 112.46)">Prague</text><path id="svg_1-10" data-name="svg 1" class="cls-1" d="M459.23,70.6c0,6.77-12,23-12,23s-12-16.23-11.95-23a12,12,0,1,1,23.95,0Zm-12-5.19a5.16,5.16,0,1,0,5,5.16,5.1,5.1,0,0,0-5-5.16Z"/><rect class="cls-2" x="414.01" y="96.72" width="66.5" height="24.5" rx="12" ry="12"/><text class="cls-3" transform="translate(429.79 112.46)">Lisboa</text><path id="svg_1-11" data-name="svg 1" class="cls-1" d="M767.66,70.6c0,6.77-12,23-12,23s-12-16.23-11.95-23a12,12,0,1,1,23.95,0Zm-12-5.19a5.16,5.16,0,1,0,5,5.16,5.1,5.1,0,0,0-5-5.16Z"/><rect class="cls-2" x="722.44" y="96.72" width="66.5" height="24.5" rx="12" ry="12"/><text class="cls-3" transform="translate(740.07 112.46)">Berlin</text><path id="svg_1-12" data-name="svg 1" class="cls-1" d="M354.19,12.27c0,6.77-12,23-12,23s-12-16.23-11.95-23a12,12,0,1,1,23.95,0Zm-12-5.19a5.16,5.16,0,1,0,5,5.16,5.1,5.1,0,0,0-5-5.16Z"/><rect class="cls-2" x="308.97" y="38.39" width="66.5" height="24.5" rx="12" ry="12"/><text class="cls-3" transform="translate(323.49 54.13)">Madrid</text><path id="svg_1-13" data-name="svg 1" class="cls-1" d="M696.91,12.27c0,6.77-12,23-12,23S673,19,673,12.25a12,12,0,1,1,23.95,0Zm-12-5.19a5.16,5.16,0,1,0,5,5.16,5.1,5.1,0,0,0-5-5.16Z"/><rect class="cls-7" x="655.29" y="38.39" width="59.3" height="24.5" rx="11.33" ry="11.33"/><text class="cls-3" transform="translate(671.7 54.13)">Paris</text><path id="svg_1-14" data-name="svg 1" class="cls-1" d="M534.2,12.27c0,6.77-12,23-12,23s-12-16.23-11.95-23a12,12,0,1,1,23.95,0Zm-12-5.19a5.16,5.16,0,1,0,5,5.16,5.1,5.1,0,0,0-5-5.16Z"/><rect class="cls-8" x="469.9" y="38.39" width="104.65" height="24.5" rx="12.25" ry="12.25"/><text class="cls-3" transform="translate(484.71 54.13)">San Francisco</text><path id="svg_1-15" data-name="svg 1" class="cls-1" d="M186.86,12.27c0,6.77-12,23-12,23s-12-16.23-11.95-23a12,12,0,1,1,23.95,0Zm-12-5.19a5.16,5.16,0,1,0,5,5.16,5.1,5.1,0,0,0-5-5.16Z"/><rect class="cls-9" x="138.35" y="38.39" width="73.07" height="24.5" rx="12.25" ry="12.25"/><text class="cls-3" transform="translate(151.46 54.13)">Florence</text><path id="svg_1-16" data-name="svg 1" class="cls-1" d="M354.19,253.92c0,6.77-12,23-12,23s-12-16.23-11.95-23a12,12,0,1,1,23.95,0Zm-12-5.19a5.16,5.16,0,1,0,5,5.16,5.1,5.1,0,0,0-5-5.16Z"/><rect class="cls-9" x="305.68" y="280.03" width="73.07" height="24.5" rx="12.25" ry="12.25"/><text class="cls-3" transform="translate(323.07 295.78)">Zagreb</text><path id="svg_1-17" data-name="svg 1" class="cls-1" d="M186.86,253.92c0,6.77-12,23-12,23s-12-16.23-11.95-23a12,12,0,1,1,23.95,0Zm-12-5.19a5.16,5.16,0,1,0,5,5.16,5.1,5.1,0,0,0-5-5.16Z"/><rect class="cls-10" x="130.33" y="280.03" width="89.11" height="24.5" rx="12.25" ry="12.25"/><text class="cls-3" transform="translate(146.52 295.78)">Stochkolm</text><path id="svg_1-18" data-name="svg 1" class="cls-1" d="M271.34,289.84c0,6.77-12,23-12,23s-12-16.23-11.95-23a12,12,0,1,1,23.95,0Zm-12-5.19a5.16,5.16,0,1,0,5,5.16,5.1,5.1,0,0,0-5-5.16Z"/><rect class="cls-11" x="217.04" y="315.96" width="84.66" height="24.5" rx="12.25" ry="12.25"/><text class="cls-3" transform="translate(233.88 331.7)">Chichago</text><path id="svg_1-19" data-name="svg 1" class="cls-1" d="M271.34,197.31c0,6.77-12,23-12,23s-12-16.23-11.95-23a12,12,0,1,1,23.95,0Zm-12-5.19a5.16,5.16,0,1,0,5,5.16,5.1,5.1,0,0,0-5-5.16Z"/><rect class="cls-12" x="220.68" y="223.43" width="77.38" height="24.5" rx="11.71" ry="11.71"/><text class="cls-3" transform="translate(239.41 239.17)">Utrecht</text><path id="svg_1-20" data-name="svg 1" class="cls-1" d="M103.32,12.27c0,6.77-12,23-12,23s-12-16.23-11.95-23a12,12,0,1,1,23.95,0Zm-12-5.19a5.16,5.16,0,1,0,5,5.16,5.1,5.1,0,0,0-5-5.16Z"/><rect class="cls-2" x="58.1" y="38.39" width="66.5" height="24.5" rx="12" ry="12"/><text class="cls-3" transform="translate(73.38 54.13)">Milano</text><path id="svg_1-21" data-name="svg 1" class="cls-1" d="M103.32,197.31c0,6.77-12,23-12,23s-12-16.23-11.95-23a12,12,0,1,1,23.95,0Zm-12-5.19a5.16,5.16,0,1,0,5,5.16,5.1,5.1,0,0,0-5-5.16Z"/><rect class="cls-2" x="58.1" y="223.43" width="66.5" height="24.5" rx="12" ry="12"/><text class="cls-3" transform="translate(72.49 239.17)">Vienna</text><path id="svg_1-22" data-name="svg 1" class="cls-1" d="M459.23,197.31c0,6.77-12,23-12,23s-12-16.23-11.95-23a12,12,0,1,1,23.95,0Zm-12-5.19a5.16,5.16,0,1,0,5,5.16,5.1,5.1,0,0,0-5-5.16Z"/><rect class="cls-2" x="414.01" y="223.43" width="66.5" height="24.5" rx="12" ry="12"/><text class="cls-3" transform="translate(428.4 239.17)">Vienna</text><path id="svg_1-23" data-name="svg 1" class="cls-1" d="M618,197.31c0,6.77-12,23-12,23s-12-16.23-11.95-23a12,12,0,1,1,23.95,0Zm-12-5.19a5.16,5.16,0,1,0,5,5.16,5.1,5.1,0,0,0-5-5.16Z"/><rect class="cls-13" x="577.74" y="223.43" width="56.49" height="24.5" rx="11.06" ry="11.06"/><text class="cls-3" transform="translate(593.68 239.17)">Oslo</text><path id="svg_1-24" data-name="svg 1" class="cls-1" d="M767.66,289.84c0,6.77-12,23-12,23s-12-16.23-11.95-23a12,12,0,1,1,23.95,0Zm-12-5.19a5.16,5.16,0,1,0,5,5.16,5.1,5.1,0,0,0-5-5.16Z"/><rect class="cls-13" x="727.44" y="315.96" width="56.49" height="24.5" rx="11.06" ry="11.06"/><text class="cls-3" transform="translate(748.61 331.7)">LA</text><path id="svg_1-25" data-name="svg 1" class="cls-1" d="M534.2,103.29c0,6.77-12,23-12,23s-12-16.23-11.95-23a12,12,0,1,1,23.95,0Zm-12-5.19a5.16,5.16,0,1,0,5,5.16,5.1,5.1,0,0,0-5-5.16Z"/><rect class="cls-13" x="493.99" y="129.41" width="56.49" height="24.5" rx="11.06" ry="11.06"/><text class="cls-3" transform="translate(510 145.15)">NYC</text><path id="svg_1-26" data-name="svg 1" class="cls-1" d="M459.23,289.84c0,6.77-12,23-12,23s-12-16.23-11.95-23a12,12,0,1,1,23.95,0Zm-12-5.19a5.16,5.16,0,1,0,5,5.16,5.1,5.1,0,0,0-5-5.16Z"/><rect class="cls-2" x="414.01" y="315.96" width="66.5" height="24.5" rx="12" ry="12"/><text class="cls-3" transform="translate(427.6 331.7)">Munich</text><path id="svg_1-27" data-name="svg 1" class="cls-1" d="M618,289.84c0,6.77-12,23-12,23s-12-16.23-11.95-23a12,12,0,1,1,23.95,0Zm-12-5.19a5.16,5.16,0,1,0,5,5.16,5.1,5.1,0,0,0-5-5.16Z"/><rect class="cls-14" x="568.26" y="315.96" width="75.45" height="24.5" rx="12.25" ry="12.25"/><text class="cls-3" transform="translate(583.74 331.7)">Moscow</text><path id="svg_1-28" data-name="svg 1" class="cls-1" d="M534.2,253.92c0,6.77-12,23-12,23s-12-16.23-11.95-23a12,12,0,1,1,23.95,0Zm-12-5.19a5.16,5.16,0,1,0,5,5.16,5.1,5.1,0,0,0-5-5.16Z"/><rect class="cls-15" x="488.09" y="280.03" width="68.28" height="24.5" rx="11.65" ry="11.65"/><text class="cls-3" transform="translate(504.79 295.78)">Dublin</text></g></g></svg>