<svg xmlns="http://www.w3.org/2000/svg" viewBox="0 0 79.02 51.01"><defs><style>.a{fill:gray;}</style></defs><title>StoreDNA</title><path class="a" d="M65.68,6.25A13.34,13.34,0,1,0,79,19.58,13.36,13.36,0,0,0,65.68,6.25ZM78,19.08H70.91a12.35,12.35,0,0,1,3.54-8.16A12.29,12.29,0,0,1,78,19.08Zm-11.81,0V7.27a12.27,12.27,0,0,1,7.55,3,13.35,13.35,0,0,0-3.81,8.84Zm-1,0H61.73a13.35,13.35,0,0,0-3.95-9,12.28,12.28,0,0,1,7.39-2.84Zm0,1V31.9a12.28,12.28,0,0,1-7.39-2.84,13.35,13.35,0,0,0,3.95-9Zm1,0h3.73a13.35,13.35,0,0,0,3.81,8.84,12.27,12.27,0,0,1-7.55,3ZM57,10.78a12.35,12.35,0,0,1,3.69,8.3H53.36A12.29,12.29,0,0,1,57,10.78Zm-3.68,9.3h7.37A12.35,12.35,0,0,1,57,28.39,12.29,12.29,0,0,1,53.36,20.08Zm21.09,8.16a12.35,12.35,0,0,1-3.55-8.16H78A12.29,12.29,0,0,1,74.46,28.24Z"/><path class="a" d="M74,41.74c0-2.25-2.58-2.41-5.3-2.57l-1.24-.08c-2.86-.22-14.19-4.2-17.67-6.71l-.08-.06c-.58-.57-1.26-1.4-2-2.28-1.76-2.16-3.59-4.39-5.11-4.39a1.7,1.7,0,0,0-1.25.49,3.4,3.4,0,0,0-.68,2.34,5.24,5.24,0,0,0-2.45,1.39V16.95l5,4,6.47-9.59L42.58,3.77A11.1,11.1,0,0,0,34.47,0H15.24A11.11,11.11,0,0,0,7.13,3.77L0,11.34l6.47,9.59,5-4V40.4H24.58c-.43.91-.7,1.62-.82,1.95a2.56,2.56,0,0,0-.86,1.94c0,2.29.43,4.58,5.58,5.18a2.24,2.24,0,0,0,.55,0,1.34,1.34,0,0,1,.29,0,1.06,1.06,0,0,1,.24.1,1.7,1.7,0,0,0,.56.19,1.67,1.67,0,0,0,.6-.07l.25,0a1.16,1.16,0,0,1,.23.1,1.63,1.63,0,0,0,.59.21,1.45,1.45,0,0,0,.62-.09c.07,0,.16-.07.2-.05a1.1,1.1,0,0,1,.18.11,1.37,1.37,0,0,0,.62.26,1.41,1.41,0,0,0,.67-.14l.18-.07a1.13,1.13,0,0,1,.19.11,1.37,1.37,0,0,0,.62.26,1.39,1.39,0,0,0,.66-.14l.18-.07a1.2,1.2,0,0,1,.18.1,1.36,1.36,0,0,0,.63.25,1.39,1.39,0,0,0,.66-.15l.18-.07a1.18,1.18,0,0,1,.19.1,1.36,1.36,0,0,0,.63.25,1.52,1.52,0,0,0,.66-.15l.17-.07a1.08,1.08,0,0,1,.19.1,1.13,1.13,0,0,0,1.29.08l.18-.08a1.17,1.17,0,0,1,.19.1,1.36,1.36,0,0,0,.63.24,1.4,1.4,0,0,0,.66-.17l.18-.08a1.14,1.14,0,0,1,.19.1,1.37,1.37,0,0,0,.63.23,1.35,1.35,0,0,0,.66-.17l.17-.08a1.11,1.11,0,0,1,.19.1,1.38,1.38,0,0,0,.63.22,1.48,1.48,0,0,0,.66-.18l.17-.08a1.08,1.08,0,0,1,.19.09,1.36,1.36,0,0,0,.64.22,1.63,1.63,0,0,0,.66-.19l.17-.08.19.09a1.37,1.37,0,0,0,.64.21h0a1.39,1.39,0,0,0,.64-.2l.17-.08a1,1,0,0,1,.19.09A1.36,1.36,0,0,0,50,51a1,1,0,0,0,.66-.21l.17-.09a1.09,1.09,0,0,1,.2.08,1.47,1.47,0,0,0,.65.19,1.38,1.38,0,0,0,.65-.22l.17-.09a1.1,1.1,0,0,1,.2.08,1.36,1.36,0,0,0,.65.18,1.37,1.37,0,0,0,.64-.23l.16-.09a1.13,1.13,0,0,1,.2.08,1.43,1.43,0,0,0,.65.16,1.37,1.37,0,0,0,.64-.24l.16-.1a1.09,1.09,0,0,1,.2.07,1.13,1.13,0,0,0,1.29-.11l.16-.1.2.07a1.35,1.35,0,0,0,.66.13,1.37,1.37,0,0,0,.63-.28l.16-.1.21.06a1.35,1.35,0,0,0,.66.11,1.37,1.37,0,0,0,.62-.3l.16-.11A1.09,1.09,0,0,1,61,50a1.61,1.61,0,0,0,.6,0,1.69,1.69,0,0,0,.57-.24,1.12,1.12,0,0,1,.22-.11,1.62,1.62,0,0,1,.29,0,1.77,1.77,0,0,0,.61,0,1.5,1.5,0,0,0,.55-.26.86.86,0,0,1,.18-.11,1.57,1.57,0,0,1,.3,0,2.07,2.07,0,0,0,.55,0,32.59,32.59,0,0,0,5.86-2.08C73.92,45.6,74,44.34,74,42.43,74,42.21,74,42,74,41.74Zm-6.62-1.66,1.26.08c2.71.16,4.36.33,4.36,1.57,0,.25,0,.49,0,.72v.08c-3.58,5.08-23.65,4.29-33.52,2.14L36.6,44l-.19,0c.26-4-3.9-6.53-7-8.41l-1.29-.81a13.94,13.94,0,0,0,.43-1.73c2,1.48,4.33,3.15,6.7,3.15,2.56,0,7.24-3.46,9.33-5.9a28.42,28.42,0,0,1,4.59,2.88C52.6,35.67,64,39.83,67.35,40.09ZM38.16,31.22c1-.87,2-1.77,2.73-1.77a8.3,8.3,0,0,1,2.71.46c-2,2.24-6.24,5.29-8.34,5.29s-4.61-1.82-6.54-3.28l0,0C28.8,30.28,30.09,28,30.95,28c.62,0,.77.58.86,2.2.08,1.44.2,3.41,2.13,3.41C35.43,33.62,36.82,32.4,38.16,31.22ZM29.9,27.41a4.47,4.47,0,0,0-1.07,1.18c.23-2,.61-2.24.62-2.25a.3.3,0,0,1,.25.1A1.58,1.58,0,0,1,29.9,27.41Zm-2.1,8.36,1.1.69c2.81,1.71,6.6,4,6.51,7.34-4.9-1.07-7.18-1.53-10.54-1.58a23.29,23.29,0,0,1,1.26-2.67A28.19,28.19,0,0,0,27.8,35.77Zm14.79-9.12c1,0,2.62,1.93,4,3.56a10.94,10.94,0,0,0-4.89-1.71A2.59,2.59,0,0,1,42,26.84.7.7,0,0,1,42.59,26.65ZM30,1,24.86,8.54,19.74,1ZM12.5,39.4V14.88L6.7,19.47l-5.42-8,6.59-7A10.12,10.12,0,0,1,15.24,1h3.29l6.32,9.32L31.18,1h3.29a10.12,10.12,0,0,1,7.38,3.45l6.59,7-5.42,8-5.81-4.59V30.73c-1.07.93-2.25,1.89-3.26,1.89s-1-.79-1.13-2.46c-.08-1.4-.18-3.14-1.86-3.14H30.9a2.11,2.11,0,0,0-.43-1.23,1.29,1.29,0,0,0-1-.44c-1.23,0-1.77,2-1.79,6.79h0c0,1.44-1.29,4.91-2.4,6.93l-.18.34Zm57.73,6.88a31.12,31.12,0,0,1-5.67,2,1.34,1.34,0,0,1-.29,0,2.27,2.27,0,0,0-.54,0,1.5,1.5,0,0,0-.51.25.78.78,0,0,1-.2.11,1.08,1.08,0,0,1-.28,0,2,2,0,0,0-.6,0,1.67,1.67,0,0,0-.54.23,1.06,1.06,0,0,1-.24.12.78.78,0,0,1-.24,0,1.71,1.71,0,0,0-.59,0,1.35,1.35,0,0,0-.6.29l-.16.11-.2-.06a1.14,1.14,0,0,0-1.27.15l-.16.11L58,49.5a1.4,1.4,0,0,0-.66-.14,1.37,1.37,0,0,0-.61.25l-.17.11-.19-.07a1.46,1.46,0,0,0-.66-.15,1.37,1.37,0,0,0-.62.24l-.17.1-.19-.08a1.26,1.26,0,0,0-.66-.17,1.36,1.36,0,0,0-.62.23l-.17.1-.19-.08a1.57,1.57,0,0,0-.65-.18,1.38,1.38,0,0,0-.63.22l-.17.09-.19-.08a1.27,1.27,0,0,0-.65-.19,1.37,1.37,0,0,0-.63.21L50,50l-.19-.09a1.39,1.39,0,0,0-.65-.2h0a1.36,1.36,0,0,0-.64.2l-.17.09-.19-.09a1.39,1.39,0,0,0-.64-.21,1.22,1.22,0,0,0-.64.19l-.18.09-.19-.09a1.38,1.38,0,0,0-.64-.22,1.22,1.22,0,0,0-.64.18l-.18.08a1.12,1.12,0,0,1-.19-.09,1.39,1.39,0,0,0-.64-.23,1.52,1.52,0,0,0-.65.17l-.18.08-.19-.1a1.38,1.38,0,0,0-.63-.23,1.43,1.43,0,0,0-.65.17l-.18.08a1.09,1.09,0,0,1-.18-.1,1.39,1.39,0,0,0-.63-.24,1.42,1.42,0,0,0-.65.16l-.18.08-.18-.1a1.38,1.38,0,0,0-.63-.25,1.48,1.48,0,0,0-.65.15l-.18.08-.18-.1a1.37,1.37,0,0,0-.63-.25,1.35,1.35,0,0,0-.65.15l-.18.07-.18-.1a1.38,1.38,0,0,0-.63-.25,1.46,1.46,0,0,0-.66.14l-.18.07-.18-.1a1.39,1.39,0,0,0-.62-.26,1.35,1.35,0,0,0-.66.14l-.18.07a1.11,1.11,0,0,1-.18-.11,1.38,1.38,0,0,0-.62-.26,1.36,1.36,0,0,0-.61.09l-.21.05a1.16,1.16,0,0,1-.23-.1,1.35,1.35,0,0,0-1.18-.15.78.78,0,0,1-.25,0,1.06,1.06,0,0,1-.24-.1,1.74,1.74,0,0,0-.57-.19,2.22,2.22,0,0,0-.54,0,1.27,1.27,0,0,1-.29,0c-4.7-.54-4.7-2.48-4.7-4.17,0-.39.17-1,.4-1.1,3.85,0,6,.47,12.09,1.82l2.87.63a88.44,88.44,0,0,0,17.43,1.73c6.8,0,13.21-.87,16.14-3.24C72.57,44.84,71.89,45.47,70.24,46.28Z"/></svg>