<svg xmlns="http://www.w3.org/2000/svg" viewBox="0 0 183.9 145.91"><title>store</title><g id="Layer_2" data-name="Layer 2"><g id="Layer_1-2" data-name="Layer 1"><g id="store"><g id="store-2" data-name="store"><g id="_8gUVar.tif" data-name="8gUVar.tif"><path d="M15.82,145.25A15.71,15.71,0,0,1,9.05,143c-7.62-5.7-9.36-13.52-9-22.61.51-13,.24-26.06.37-39.09C.53,70.39,8.25,62.63,19.16,62.5c7.24-.09,14.48.12,21.72,0a10.16,10.16,0,0,0,4.24-1.38,10.31,10.31,0,0,0,2.25-2.2L87,18.19C83.19,10.88,83.66,5.55,88.3,2.11a10.35,10.35,0,0,1,13.14.49c4.38,3.84,4.62,9,.58,15.51.57.74,1.13,1.61,1.82,2.36,12.29,13.41,24.54,26.86,37,40.13a9.11,9.11,0,0,0,5.65,2.49c6,.35,12.1.16,18.16.22,11.51.11,19.21,7.56,19.26,19q.09,22.51-.22,45c-.15,10.86-8.2,18.65-19,18.59ZM49,62.62l88.61.49c-1.1-1.32-1.56-1.94-2.08-2.51q-17.67-18.93-35.36-37.84c-2.9-3.1-8.65-3.22-11.61-.25Q75.78,35.41,63,48.34C58.6,52.78,54.26,57.28,49,62.62Z"/></g></g></g></g></g></svg>