<svg xmlns="http://www.w3.org/2000/svg" viewBox="0 0 570.98 207.71"><defs><style>.cls-1{stroke:#000;stroke-miterlimit:10;stroke-width:1.01px;}</style></defs><title>verify-bg_1</title><g id="Layer_2" data-name="Layer 2"><g id="stores"><path id="svg_1" data-name="svg 1" class="cls-1" d="M252.54,102c0,4-7.15,13.61-7.12,13.63S238.33,106,238.33,102a7.1,7.1,0,1,1,14.21,0Zm-7.1-3.08a3.06,3.06,0,1,0,3,3.06,3,3,0,0,0-3-3.06Z"/><path id="svg_1-2" data-name="svg 1" class="cls-1" d="M320.88,75.2c0,4-7.15,13.61-7.12,13.63s-7.09-9.63-7.09-13.64a7.1,7.1,0,1,1,14.21,0Zm-7.1-3.08a3.06,3.06,0,1,0,3,3.06,3,3,0,0,0-3-3.06Z"/><path id="svg_1-3" data-name="svg 1" class="cls-1" d="M373.07,90.36c0,4-7.15,13.61-7.12,13.63s-7.09-9.63-7.09-13.64a7.1,7.1,0,1,1,14.21,0ZM366,87.28a3.06,3.06,0,1,0,3,3.06,3,3,0,0,0-3-3.06Z"/><path id="svg_1-4" data-name="svg 1" class="cls-1" d="M28.15,141.93c0,4-7.15,13.61-7.12,13.63s-7.09-9.63-7.09-13.64a7.1,7.1,0,1,1,14.21,0ZM21,138.85a3.06,3.06,0,1,0,3,3.06,3,3,0,0,0-3-3.06Z"/><path id="svg_1-5" data-name="svg 1" class="cls-1" d="M102.79,120.93c0,4-7.15,13.61-7.12,13.63s-7.09-9.63-7.09-13.64a7.1,7.1,0,1,1,14.21,0Zm-7.1-3.08a3.06,3.06,0,1,0,3,3.06,3,3,0,0,0-3-3.06Z"/><path id="svg_1-6" data-name="svg 1" class="cls-1" d="M372.8,7.79c0,4-7.15,13.61-7.12,13.63s-7.09-9.63-7.09-13.64a7.1,7.1,0,1,1,14.21,0Zm-7.1-3.08a3.06,3.06,0,1,0,3,3.06,3,3,0,0,0-3-3.06Z"/><path id="svg_1-7" data-name="svg 1" class="cls-1" d="M120.67,76.19c0,4-7.15,13.61-7.12,13.63s-7.09-9.63-7.09-13.64a7.1,7.1,0,1,1,14.21,0Zm-7.1-3.08a3.06,3.06,0,1,0,3,3.06,3,3,0,0,0-3-3.06Z"/><path id="svg_1-8" data-name="svg 1" class="cls-1" d="M428.14,50c0,4-7.15,13.61-7.12,13.63S413.93,54,413.94,50a7.1,7.1,0,1,1,14.21,0ZM421,46.91A3.06,3.06,0,1,0,424,50a3,3,0,0,0-3-3.06Z"/><path id="svg_1-9" data-name="svg 1" class="cls-1" d="M154.34,44.73c0,4-7.15,13.61-7.12,13.63s-7.09-9.63-7.09-13.64a7.1,7.1,0,1,1,14.21,0Zm-7.1-3.08a3.06,3.06,0,1,0,3,3.06,3,3,0,0,0-3-3.06Z"/><path id="svg_1-10" data-name="svg 1" class="cls-1" d="M201.14,77.42c0,4-7.15,13.61-7.12,13.63s-7.09-9.63-7.09-13.64a7.1,7.1,0,1,1,14.21,0ZM194,74.34a3.06,3.06,0,1,0,3,3.06,3,3,0,0,0-3-3.06Z"/><path id="svg_1-11" data-name="svg 1" class="cls-1" d="M53.42,68.3c0,4-7.15,13.61-7.12,13.63s-7.09-9.63-7.09-13.64a7.1,7.1,0,1,1,14.21,0Zm-7.1-3.08a3.06,3.06,0,1,0,3,3.06,3,3,0,0,0-3-3.06Z"/><path id="svg_1-12" data-name="svg 1" class="cls-1" d="M102.81,164.2c0,4-7.15,13.61-7.12,13.63s-7.09-9.63-7.09-13.64a7.1,7.1,0,1,1,14.21,0Zm-7.1-3.08a3.06,3.06,0,1,0,3,3.06,3,3,0,0,0-3-3.06Z"/><path id="svg_1-13" data-name="svg 1" class="cls-1" d="M88.68,27.61c0,4-7.15,13.61-7.12,13.63s-7.09-9.63-7.09-13.64a7.1,7.1,0,1,1,14.21,0Zm-7.1-3.08a3.06,3.06,0,1,0,3,3.06,3,3,0,0,0-3-3.06Z"/><path id="svg_1-14" data-name="svg 1" class="cls-1" d="M245.24,147.71c0,4-7.15,13.61-7.12,13.63S231,151.71,231,147.7a7.1,7.1,0,1,1,14.21,0Zm-7.1-3.08a3.06,3.06,0,1,0,3,3.06,3,3,0,0,0-3-3.06Z"/><path id="svg_1-15" data-name="svg 1" class="cls-1" d="M259.34,33.57c0,4-7.15,13.61-7.12,13.63s-7.09-9.63-7.09-13.64a7.1,7.1,0,1,1,14.21,0Zm-7.1-3.08a3.06,3.06,0,1,0,3,3.06,3,3,0,0,0-3-3.06Z"/><path id="svg_1-16" data-name="svg 1" class="cls-1" d="M187.42,183.14c0,4-7.15,13.61-7.12,13.63s-7.09-9.63-7.09-13.64a7.1,7.1,0,1,1,14.21,0Zm-7.1-3.08a3.06,3.06,0,1,0,3,3.06,3,3,0,0,0-3-3.06Z"/><path id="svg_1-17" data-name="svg 1" class="cls-1" d="M498.41,44.4c0,4-7.15,13.61-7.12,13.63s-7.09-9.63-7.09-13.64a7.1,7.1,0,1,1,14.21,0Zm-7.1-3.08a3.06,3.06,0,1,0,3,3.06,3,3,0,0,0-3-3.06Z"/><path id="svg_1-18" data-name="svg 1" class="cls-1" d="M460.07,123.36c0,4-7.15,13.61-7.12,13.63s-7.09-9.63-7.09-13.64a7.1,7.1,0,1,1,14.21,0Zm-7.1-3.08a3.06,3.06,0,1,0,3,3.06,3,3,0,0,0-3-3.06Z"/><path id="svg_1-19" data-name="svg 1" class="cls-1" d="M467.8,87.79c0,4-7.15,13.61-7.12,13.63s-7.09-9.63-7.09-13.64a7.1,7.1,0,1,1,14.21,0Zm-7.1-3.08a3.06,3.06,0,1,0,3,3.06,3,3,0,0,0-3-3.06Z"/><path id="svg_1-20" data-name="svg 1" class="cls-1" d="M562.15,63.93c0,4-7.15,13.61-7.12,13.63s-7.09-9.63-7.09-13.64a7.1,7.1,0,1,1,14.21,0ZM555,60.85a3.06,3.06,0,1,0,3,3.06,3,3,0,0,0-3-3.06Z"/><path id="svg_1-21" data-name="svg 1" class="cls-1" d="M312.13,172.26c0,4-7.15,13.61-7.12,13.63s-7.09-9.63-7.09-13.64a7.1,7.1,0,1,1,14.21,0Zm-7.1-3.08a3.06,3.06,0,1,0,3,3.06,3,3,0,0,0-3-3.06Z"/><path id="svg_1-22" data-name="svg 1" class="cls-1" d="M430.15,184.93c0,4-7.15,13.61-7.12,13.63s-7.09-9.63-7.09-13.64a7.1,7.1,0,1,1,14.21,0Zm-7.1-3.08a3.06,3.06,0,1,0,3,3.06,3,3,0,0,0-3-3.06Z"/><path d="M25.92,93.58V86.91h1.17v5.64H30v1Z"/><path d="M30.47,90.25a3.41,3.41,0,1,1,3.41,3.45A3.31,3.31,0,0,1,30.47,90.25Zm5.62,0a2.22,2.22,0,1,0-2.21,2.41A2.21,2.21,0,0,0,36.09,90.25Z"/><path d="M43.06,93.58l-3.48-4.77v4.77H38.41V86.91h1.2L43,91.53V86.91h1.17v6.67Z"/><path d="M45.61,93.58V86.91h2.48a3.34,3.34,0,1,1,0,6.67Zm4.77-3.34a2.15,2.15,0,0,0-2.28-2.3H46.78v4.61h1.31A2.19,2.19,0,0,0,50.38,90.24Z"/><path d="M52.42,90.25a3.41,3.41,0,1,1,3.41,3.45A3.31,3.31,0,0,1,52.42,90.25Zm5.62,0a2.22,2.22,0,1,0-2.21,2.41A2.21,2.21,0,0,0,58,90.25Z"/><path d="M65,93.58l-3.48-4.77v4.77H60.36V86.91h1.2L65,91.53V86.91h1.17v6.67Z"/><path d="M539,89.58V82.91h3.28a1.7,1.7,0,0,1,1.9,1.7A1.51,1.51,0,0,1,543,86.14a1.63,1.63,0,0,1,1.29,1.63,1.75,1.75,0,0,1-1.94,1.81Zm4-4.78a.84.84,0,0,0-.93-.86h-1.88v1.72H542A.83.83,0,0,0,543,84.8Zm.13,2.82a.92.92,0,0,0-1-.93h-1.93v1.86h1.93A.9.9,0,0,0,543.11,87.62Z"/><path d="M545.49,89.58V82.91h4.57v1h-3.4v1.72H550v1h-3.33v1.86h3.4v1Z"/><path d="M555.07,89.58l-1.47-2.49h-1.17v2.49h-1.17V82.91h2.93A2,2,0,0,1,556.38,85a1.88,1.88,0,0,1-1.59,2l1.64,2.62Zm.11-4.59a1,1,0,0,0-1.14-1h-1.61v2.12H554A1.05,1.05,0,0,0,555.18,85Z"/><path d="M557.47,89.58V82.91h1.17v5.64h2.94v1Z"/><path d="M562.61,89.58V82.91h1.17v6.67Z"/><path d="M569.85,89.58l-3.48-4.77v4.77H565.2V82.91h1.2l3.41,4.62V82.91H571v6.67Z"/><path d="M479,70.58V63.91h2.94a2.09,2.09,0,1,1,0,4.17h-1.77v2.5ZM482.91,66a1,1,0,0,0-1.13-1.06h-1.61v2.11h1.61A1,1,0,0,0,482.91,66Z"/><path d="M489,70.58l-.49-1.29h-3.06L485,70.58h-1.33l2.62-6.67h1.46l2.62,6.67Zm-2-5.5-1.2,3.18h2.4Z"/><path d="M494.88,70.58l-1.47-2.49h-1.17v2.49h-1.17V63.91H494A2,2,0,0,1,496.19,66a1.88,1.88,0,0,1-1.59,2l1.64,2.62ZM495,66a1,1,0,0,0-1.14-1h-1.61v2.12h1.61A1.05,1.05,0,0,0,495,66Z"/><path d="M497.36,70.58V63.91h1.17v6.67Z"/><path d="M499.52,69.64l.66-.91a2.87,2.87,0,0,0,2.11.93c1,0,1.33-.47,1.33-.92,0-1.4-3.88-.53-3.88-3,0-1.11,1-2,2.43-2a3.45,3.45,0,0,1,2.49.94l-.66.87a2.72,2.72,0,0,0-1.94-.77c-.68,0-1.12.34-1.12.83,0,1.25,3.88.48,3.88,3,0,1.11-.79,2.07-2.58,2.07A3.64,3.64,0,0,1,499.52,69.64Z"/><path d="M440.71,144.25a3.41,3.41,0,1,1,3.41,3.45A3.31,3.31,0,0,1,440.71,144.25Zm5.62,0a2.22,2.22,0,1,0-2.21,2.41A2.21,2.21,0,0,0,446.33,144.25Z"/><path d="M448.22,146.64l.66-.91a2.86,2.86,0,0,0,2.11.93c1,0,1.33-.47,1.33-.92,0-1.4-3.88-.53-3.88-3,0-1.11,1-2,2.43-2a3.45,3.45,0,0,1,2.49.94l-.66.87a2.72,2.72,0,0,0-1.94-.77c-.68,0-1.12.34-1.12.83,0,1.25,3.88.48,3.88,3,0,1.11-.79,2.07-2.58,2.07A3.65,3.65,0,0,1,448.22,146.64Z"/><path d="M454.51,147.58v-6.67h1.17v5.64h2.94v1Z"/><path d="M459.06,144.25a3.41,3.41,0,1,1,3.41,3.45A3.31,3.31,0,0,1,459.06,144.25Zm5.62,0a2.22,2.22,0,1,0-2.21,2.41A2.21,2.21,0,0,0,464.68,144.25Z"/><path d="M219.74,173.58v-1l3.4-4.69h-3.4v-1h4.93v.94l-3.42,4.7h3.49v1Z"/><path d="M230.57,173.58l-.49-1.29H227l-.49,1.29H225.2l2.62-6.67h1.46l2.62,6.67Zm-2-5.5-1.2,3.18h2.4Z"/><path d="M232,170.25a3.35,3.35,0,0,1,3.5-3.45,3.12,3.12,0,0,1,2.68,1.38l-.95.55a2.15,2.15,0,0,0-1.73-.89,2.41,2.41,0,0,0,0,4.82,2.4,2.4,0,0,0,1.58-.6v-1h-2v-1h3.16v2.49a3.6,3.6,0,0,1-2.74,1.22A3.36,3.36,0,0,1,232,170.25Z"/><path d="M243.25,173.58l-1.47-2.49h-1.17v2.49h-1.17v-6.67h2.93a2,2,0,0,1,2.19,2.09,1.88,1.88,0,0,1-1.59,2l1.64,2.62Zm.11-4.59a1,1,0,0,0-1.14-1h-1.61v2.12h1.61A1.05,1.05,0,0,0,243.36,169Z"/><path d="M245.73,173.58v-6.67h4.57v1h-3.4v1.72h3.33v1H246.9v1.86h3.4v1Z"/><path d="M251.5,173.58v-6.67h3.28a1.7,1.7,0,0,1,1.9,1.7,1.51,1.51,0,0,1-1.16,1.53,1.63,1.63,0,0,1,1.29,1.63,1.75,1.75,0,0,1-1.94,1.81Zm4-4.78a.84.84,0,0,0-.93-.86h-1.88v1.72h1.88A.83.83,0,0,0,255.48,168.8Zm.13,2.82a.92.92,0,0,0-1-.93h-1.93v1.86h1.93A.9.9,0,0,0,255.61,171.62Z"/><path d="M175,103.58V96.91h2.94a2.09,2.09,0,1,1,0,4.17h-1.77v2.5ZM178.91,99a1,1,0,0,0-1.13-1.06h-1.61v2.11h1.61A1,1,0,0,0,178.91,99Z"/><path d="M184.9,103.58l-1.47-2.49h-1.17v2.49h-1.17V96.91H184A2,2,0,0,1,186.21,99a1.88,1.88,0,0,1-1.59,2l1.64,2.62ZM185,99a1,1,0,0,0-1.14-1h-1.61v2.12h1.61A1.05,1.05,0,0,0,185,99Z"/><path d="M192.06,103.58l-.49-1.29h-3.06l-.49,1.29h-1.33l2.62-6.67h1.46l2.62,6.67Zm-2-5.5-1.2,3.18h2.4Z"/><path d="M193.47,100.25a3.41,3.41,0,1,1,6.82,0,3.49,3.49,0,0,1-.89,2.4l.55.62-.81.68-.58-.65a3.56,3.56,0,0,1-1.68.4A3.31,3.31,0,0,1,193.47,100.25Zm4.35,2.21-.83-.94.82-.68.83.94a2.63,2.63,0,0,0,.45-1.53,2.22,2.22,0,1,0-2.21,2.41A2.19,2.19,0,0,0,197.82,102.46Z"/><path d="M201.41,100.94v-4h1.19v4a1.7,1.7,0,1,0,3.4,0v-4h1.19v4a2.89,2.89,0,0,1-5.78,0Z"/><path d="M208.61,103.58V96.91h4.57v1h-3.4v1.72h3.33v1h-3.33v1.86h3.4v1Z"/><path d="M291.76,197.58v-5.15l-2,5.15h-.5l-2-5.15v5.15H286v-6.67h1.65l1.82,4.58,1.81-4.58h1.65v6.67Z"/><path d="M294.35,194.94v-4h1.19v4a1.7,1.7,0,1,0,3.4,0v-4h1.19v4a2.89,2.89,0,0,1-5.78,0Z"/><path d="M306.2,197.58l-3.48-4.77v4.77h-1.17v-6.67h1.2l3.41,4.62v-4.62h1.17v6.67Z"/><path d="M308.75,197.58v-6.67h1.17v6.67Z"/><path d="M311.05,194.25a3.36,3.36,0,0,1,3.5-3.45,3,3,0,0,1,2.67,1.49l-1,.52a2,2,0,0,0-1.68-1,2.41,2.41,0,0,0,0,4.82,2,2,0,0,0,1.68-1l1,.5a3,3,0,0,1-2.68,1.51A3.36,3.36,0,0,1,311.05,194.25Z"/><path d="M322.8,197.58v-2.92h-3.47v2.92h-1.17v-6.67h1.17v2.72h3.47v-2.72H324v6.67Z"/><path d="M68.57,187.64l.66-.91a2.86,2.86,0,0,0,2.11.93c1,0,1.33-.47,1.33-.92,0-1.4-3.88-.53-3.88-3,0-1.11,1-2,2.43-2a3.45,3.45,0,0,1,2.49.94l-.66.87a2.71,2.71,0,0,0-1.94-.77c-.68,0-1.12.34-1.12.83,0,1.25,3.88.48,3.88,3,0,1.11-.79,2.07-2.58,2.07A3.65,3.65,0,0,1,68.57,187.64Z"/><path d="M76.43,188.58v-5.64h-2v-1h5.21v1h-2v5.64Z"/><path d="M80.07,185.25a3.41,3.41,0,1,1,3.41,3.45A3.31,3.31,0,0,1,80.07,185.25Zm5.62,0a2.22,2.22,0,1,0-2.21,2.41A2.21,2.21,0,0,0,85.69,185.25Z"/><path d="M87.72,185.25a3.36,3.36,0,0,1,3.5-3.45,3,3,0,0,1,2.67,1.49l-1,.52a2,2,0,0,0-1.68-1,2.41,2.41,0,0,0,0,4.82,2,2,0,0,0,1.68-1l1,.5a3,3,0,0,1-2.68,1.51A3.36,3.36,0,0,1,87.72,185.25Z"/><path d="M99.47,188.58v-2.92H96v2.92H94.83v-6.67H96v2.72h3.47v-2.72h1.17v6.67Z"/><path d="M101.77,185.25a3.41,3.41,0,1,1,3.41,3.45A3.31,3.31,0,0,1,101.77,185.25Zm5.62,0a2.22,2.22,0,1,0-2.21,2.41A2.21,2.21,0,0,0,107.39,185.25Z"/><path d="M109.63,188.58v-6.67h1.17v5.64h2.94v1Z"/><path d="M120.53,188.58v-5.15l-2,5.15H118l-2-5.15v5.15h-1.17v-6.67h1.65l1.82,4.58,1.81-4.58h1.65v6.67Z"/><path d="M239.76,58.58V53.43l-2,5.15h-.5l-2-5.15v5.15H234V51.91h1.65l1.82,4.58,1.81-4.58h1.65v6.67Z"/><path d="M247,58.58l-.49-1.29h-3.06L243,58.58h-1.33l2.62-6.67h1.46l2.62,6.67Zm-2-5.5-1.2,3.18h2.4Z"/><path d="M249.08,58.58V51.91h2.48a3.34,3.34,0,1,1,0,6.67Zm4.77-3.34a2.15,2.15,0,0,0-2.28-2.3h-1.32v4.61h1.31A2.19,2.19,0,0,0,253.85,55.24Z"/><path d="M260,58.58l-1.47-2.49h-1.17v2.49h-1.17V51.91h2.93A2,2,0,0,1,261.3,54a1.88,1.88,0,0,1-1.59,2l1.64,2.62ZM260.1,54a1,1,0,0,0-1.14-1h-1.61v2.12H259A1.05,1.05,0,0,0,260.1,54Z"/><path d="M262.47,58.58V51.91h1.17v6.67Z"/><path d="M265.06,58.58V51.91h2.48a3.34,3.34,0,1,1,0,6.67Zm4.77-3.34a2.15,2.15,0,0,0-2.28-2.3h-1.32v4.61h1.31A2.19,2.19,0,0,0,269.83,55.24Z"/><path d="M393,74.58V67.91h3.28a1.7,1.7,0,0,1,1.9,1.7A1.51,1.51,0,0,1,397,71.14a1.63,1.63,0,0,1,1.29,1.63,1.75,1.75,0,0,1-1.94,1.81Zm4-4.78a.84.84,0,0,0-.93-.86h-1.88v1.72H396A.83.83,0,0,0,397,69.8Zm.13,2.82a.92.92,0,0,0-1-.93h-1.93v1.86h1.93A.9.9,0,0,0,397.11,72.62Z"/><path d="M404.17,74.58l-.49-1.29h-3.06l-.49,1.29H398.8l2.62-6.67h1.46l2.62,6.67Zm-2-5.5-1.2,3.18h2.4Z"/><path d="M410,74.58l-1.47-2.49h-1.17v2.49h-1.17V67.91h2.93A2,2,0,0,1,411.34,70a1.88,1.88,0,0,1-1.59,2l1.64,2.62Zm.11-4.59a1,1,0,0,0-1.14-1h-1.61v2.12H409A1.05,1.05,0,0,0,410.14,70Z"/><path d="M412.22,71.25a3.36,3.36,0,0,1,3.5-3.45,3,3,0,0,1,2.67,1.49l-1,.52a2,2,0,0,0-1.68-1,2.41,2.41,0,0,0,0,4.82,2,2,0,0,0,1.68-1l1,.5a3,3,0,0,1-2.68,1.51A3.36,3.36,0,0,1,412.22,71.25Z"/><path d="M419.33,74.58V67.91h4.57v1h-3.4v1.72h3.33v1H420.5v1.86h3.4v1Z"/><path d="M425,74.58V67.91h1.17v5.64h2.94v1Z"/><path d="M429.57,71.25A3.41,3.41,0,1,1,433,74.7,3.31,3.31,0,0,1,429.57,71.25Zm5.62,0A2.22,2.22,0,1,0,433,73.66,2.21,2.21,0,0,0,435.19,71.25Z"/><path d="M442.16,74.58l-3.48-4.77v4.77h-1.17V67.91h1.2l3.41,4.62V67.91h1.17v6.67Z"/><path d="M449.39,74.58l-.49-1.29h-3.06l-.49,1.29H444l2.62-6.67h1.46l2.62,6.67Zm-2-5.5-1.2,3.18h2.4Z"/><path d="M71.76,50.58V45.43l-2,5.15h-.5l-2-5.15v5.15H66V43.91h1.65l1.82,4.58,1.81-4.58h1.65v6.67Z"/><path d="M74.35,50.58V43.91h1.17v6.67Z"/><path d="M76.86,50.58V43.91H78v5.64H81v1Z"/><path d="M86.68,50.58l-.49-1.29H83.13l-.49,1.29H81.31l2.62-6.67h1.46L88,50.58Zm-2-5.5-1.2,3.18h2.4Z"/><path d="M93.38,50.58,89.9,45.81v4.77H88.73V43.91h1.2l3.41,4.62V43.91h1.17v6.67Z"/><path d="M123,68.58V61.91h4.57v1h-3.4v1.72h3.33v1h-3.33v2.89Z"/><path d="M128.55,68.58V61.91h1.17v5.64h2.94v1Z"/><path d="M133.1,65.25a3.41,3.41,0,1,1,3.41,3.45A3.31,3.31,0,0,1,133.1,65.25Zm5.62,0a2.22,2.22,0,1,0-2.21,2.41A2.21,2.21,0,0,0,138.72,65.25Z"/><path d="M144.85,68.58l-1.47-2.49h-1.17v2.49H141V61.91H144A2,2,0,0,1,146.16,64a1.88,1.88,0,0,1-1.59,2l1.64,2.62ZM145,64a1,1,0,0,0-1.14-1h-1.61v2.12h1.61A1.05,1.05,0,0,0,145,64Z"/><path d="M147.33,68.58V61.91h4.57v1h-3.4v1.72h3.33v1H148.5v1.86h3.4v1Z"/><path d="M157.75,68.58l-3.48-4.77v4.77H153.1V61.91h1.2l3.41,4.62V61.91h1.17v6.67Z"/><path d="M160,65.25a3.36,3.36,0,0,1,3.5-3.45,3,3,0,0,1,2.67,1.49l-1,.52a2,2,0,0,0-1.68-1,2.41,2.41,0,0,0,0,4.82,2,2,0,0,0,1.68-1l1,.5a3,3,0,0,1-2.68,1.51A3.36,3.36,0,0,1,160,65.25Z"/><path d="M167.12,68.58V61.91h4.57v1h-3.4v1.72h3.33v1h-3.33v1.86h3.4v1Z"/><path d="M297.92,100.58V93.91h1.17v5.64H302v1Z"/><path d="M303.06,100.58V93.91h1.17v6.67Z"/><path d="M305.22,99.64l.66-.91a2.86,2.86,0,0,0,2.11.93c1,0,1.33-.47,1.33-.92,0-1.4-3.88-.53-3.88-3,0-1.11,1-2,2.43-2a3.45,3.45,0,0,1,2.49.94l-.66.87a2.72,2.72,0,0,0-1.94-.77c-.68,0-1.12.34-1.12.83,0,1.25,3.88.48,3.88,3,0,1.11-.79,2.07-2.58,2.07A3.64,3.64,0,0,1,305.22,99.64Z"/><path d="M311.59,100.58V93.91h3.28a1.7,1.7,0,0,1,1.9,1.7,1.51,1.51,0,0,1-1.16,1.53,1.63,1.63,0,0,1,1.29,1.63,1.75,1.75,0,0,1-1.94,1.81Zm4-4.78a.84.84,0,0,0-.93-.86h-1.88v1.72h1.88A.83.83,0,0,0,315.57,95.8Zm.13,2.82a.92.92,0,0,0-1-.93h-1.93v1.86h1.93A.9.9,0,0,0,315.7,98.62Z"/><path d="M317.79,97.25a3.41,3.41,0,1,1,3.41,3.45A3.31,3.31,0,0,1,317.79,97.25Zm5.62,0a2.22,2.22,0,1,0-2.21,2.41A2.21,2.21,0,0,0,323.41,97.25Z"/><path d="M330.06,100.58l-.49-1.29h-3.06l-.49,1.29h-1.33l2.62-6.67h1.46l2.62,6.67Zm-2-5.5-1.2,3.18h2.4Z"/><path d="M154.71,204.25a3.36,3.36,0,0,1,3.5-3.45,3,3,0,0,1,2.67,1.49l-1,.52a2,2,0,0,0-1.68-1,2.41,2.41,0,0,0,0,4.82,2,2,0,0,0,1.68-1l1,.5a3,3,0,0,1-2.68,1.51A3.36,3.36,0,0,1,154.71,204.25Z"/><path d="M166.46,207.58v-2.92H163v2.92h-1.17v-6.67H163v2.72h3.47v-2.72h1.17v6.67Z"/><path d="M169,207.58v-6.67h1.17v6.67Z"/><path d="M171.35,204.25a3.36,3.36,0,0,1,3.5-3.45,3,3,0,0,1,2.67,1.49l-1,.52a2,2,0,0,0-1.68-1,2.41,2.41,0,0,0,0,4.82,2,2,0,0,0,1.68-1l1,.5a3,3,0,0,1-2.68,1.51A3.36,3.36,0,0,1,171.35,204.25Z"/><path d="M183.1,207.58v-2.92h-3.47v2.92h-1.17v-6.67h1.17v2.72h3.47v-2.72h1.17v6.67Z"/><path d="M190.37,207.58l-.49-1.29h-3.06l-.49,1.29H185l2.62-6.67h1.46l2.62,6.67Zm-2-5.5-1.2,3.18h2.4Z"/><path d="M191.78,204.25a3.35,3.35,0,0,1,3.5-3.45,3.12,3.12,0,0,1,2.68,1.38l-.95.55a2.15,2.15,0,0,0-1.73-.89,2.41,2.41,0,0,0,0,4.82,2.4,2.4,0,0,0,1.58-.6v-1h-2v-1H198v2.49a3.6,3.6,0,0,1-2.74,1.22A3.36,3.36,0,0,1,191.78,204.25Z"/><path d="M198.95,204.25a3.41,3.41,0,1,1,3.41,3.45A3.31,3.31,0,0,1,198.95,204.25Zm5.62,0a2.22,2.22,0,1,0-2.21,2.41A2.21,2.21,0,0,0,204.57,204.25Z"/><path d="M361.65,114.58l-3.48-4.77v4.77H357v-6.67h1.2l3.41,4.62v-4.62h1.17v6.67Z"/><path d="M366.1,114.58v-2.77l-2.59-3.9h1.34l1.83,2.85,1.83-2.85h1.34l-2.58,3.9v2.77Z"/><path d="M369.88,111.25a3.36,3.36,0,0,1,3.5-3.45,3,3,0,0,1,2.67,1.49l-1,.52a2,2,0,0,0-1.68-1,2.41,2.41,0,0,0,0,4.82,2,2,0,0,0,1.68-1l1,.5a3,3,0,0,1-2.68,1.51A3.36,3.36,0,0,1,369.88,111.25Z"/><path d="M326.57,33.64l.66-.91a2.86,2.86,0,0,0,2.11.93c1,0,1.33-.47,1.33-.92,0-1.4-3.88-.53-3.88-3,0-1.11,1-2,2.43-2a3.45,3.45,0,0,1,2.49.94l-.66.87a2.72,2.72,0,0,0-1.94-.77c-.68,0-1.12.34-1.12.83,0,1.25,3.88.48,3.88,3,0,1.11-.79,2.07-2.58,2.07A3.65,3.65,0,0,1,326.57,33.64Z"/><path d="M337.52,34.58,337,33.29H334l-.49,1.29h-1.33l2.62-6.67h1.46l2.62,6.67Zm-2-5.5-1.2,3.18h2.4Z"/><path d="M344.22,34.58l-3.48-4.77v4.77h-1.17V27.91h1.2l3.41,4.62V27.91h1.17v6.67Z"/><path d="M349.35,34.58V27.91h4.57v1h-3.4v1.72h3.33v1h-3.33v2.89Z"/><path d="M358.79,34.58l-1.47-2.49h-1.17v2.49H355V27.91h2.93A2,2,0,0,1,360.1,30a1.88,1.88,0,0,1-1.59,2l1.64,2.62ZM358.9,30a1,1,0,0,0-1.14-1h-1.61v2.12h1.61A1.05,1.05,0,0,0,358.9,30Z"/><path d="M365.95,34.58l-.49-1.29H362.4l-.49,1.29h-1.33l2.62-6.67h1.46l2.62,6.67Zm-2-5.5-1.2,3.18h2.4Z"/><path d="M372.65,34.58l-3.48-4.77v4.77H368V27.91h1.2l3.41,4.62V27.91h1.17v6.67Z"/><path d="M374.91,31.25a3.36,3.36,0,0,1,3.5-3.45,3,3,0,0,1,2.67,1.49l-1,.52a2,2,0,0,0-1.68-1,2.41,2.41,0,0,0,0,4.82,2,2,0,0,0,1.68-1l1,.5a3,3,0,0,1-2.68,1.51A3.36,3.36,0,0,1,374.91,31.25Z"/><path d="M382,34.58V27.91h1.17v6.67Z"/><path d="M384.18,33.64l.66-.91a2.86,2.86,0,0,0,2.11.93c1,0,1.33-.47,1.33-.92,0-1.4-3.88-.53-3.88-3,0-1.11,1-2,2.43-2a3.45,3.45,0,0,1,2.49.94l-.66.87a2.72,2.72,0,0,0-1.94-.77c-.68,0-1.12.34-1.12.83,0,1.25,3.88.48,3.88,3,0,1.11-.79,2.07-2.58,2.07A3.64,3.64,0,0,1,384.18,33.64Z"/><path d="M390.26,31.25a3.36,3.36,0,0,1,3.5-3.45,3,3,0,0,1,2.67,1.49l-1,.52a2,2,0,0,0-1.68-1,2.41,2.41,0,0,0,0,4.82,2,2,0,0,0,1.68-1l1,.5a3,3,0,0,1-2.68,1.51A3.36,3.36,0,0,1,390.26,31.25Z"/><path d="M397.08,31.25a3.41,3.41,0,1,1,3.41,3.45A3.31,3.31,0,0,1,397.08,31.25Zm5.62,0a2.22,2.22,0,1,0-4.42,0,2.22,2.22,0,1,0,4.42,0Z"/><path d="M434,112.58v-6.67h3.28a1.7,1.7,0,0,1,1.9,1.7,1.51,1.51,0,0,1-1.16,1.53,1.63,1.63,0,0,1,1.29,1.63,1.75,1.75,0,0,1-1.94,1.81Zm4-4.78a.84.84,0,0,0-.93-.86h-1.88v1.72H437A.83.83,0,0,0,438,107.8Zm.13,2.82a.92.92,0,0,0-1-.93h-1.93v1.86h1.93A.9.9,0,0,0,438.11,110.62Z"/><path d="M444.3,112.58l-1.47-2.49h-1.17v2.49h-1.17v-6.67h2.93a2,2,0,0,1,2.19,2.09,1.88,1.88,0,0,1-1.59,2l1.64,2.62Zm.11-4.59a1,1,0,0,0-1.14-1h-1.61v2.12h1.61A1.05,1.05,0,0,0,444.41,108Z"/><path d="M446.78,109.94v-4H448v4a1.7,1.7,0,1,0,3.4,0v-4h1.19v4a2.89,2.89,0,0,1-5.78,0Z"/><path d="M458.45,112.58,456.58,110l-1.87,2.61h-1.4l2.49-3.42-2.34-3.25h1.4l1.72,2.44,1.71-2.44h1.41l-2.35,3.24,2.5,3.43Z"/><path d="M460.59,112.58v-6.67h4.57v1h-3.4v1.72h3.33v1h-3.33v1.86h3.4v1Z"/><path d="M466.28,112.58v-6.67h1.17v5.64h2.94v1Z"/><path d="M471.34,112.58v-6.67h1.17v5.64h2.94v1Z"/><path d="M476.48,112.58v-6.67H481v1h-3.4v1.72H481v1h-3.33v1.86H481v1Z"/><path d="M481.82,111.64l.66-.91a2.86,2.86,0,0,0,2.11.93c1,0,1.33-.47,1.33-.92,0-1.4-3.88-.53-3.88-3,0-1.11,1-2,2.43-2a3.45,3.45,0,0,1,2.49.94l-.66.87a2.72,2.72,0,0,0-1.94-.77c-.68,0-1.12.34-1.12.83,0,1.25,3.88.48,3.88,3,0,1.11-.79,2.07-2.58,2.07A3.64,3.64,0,0,1,481.82,111.64Z"/><path d="M86.57,98.64l.66-.91a2.86,2.86,0,0,0,2.11.93c1,0,1.33-.47,1.33-.92,0-1.4-3.88-.53-3.88-3,0-1.11,1-2,2.43-2a3.45,3.45,0,0,1,2.49.94l-.66.87a2.72,2.72,0,0,0-1.94-.77c-.68,0-1.12.34-1.12.83,0,1.25,3.88.48,3.88,3,0,1.11-.79,2.07-2.58,2.07A3.64,3.64,0,0,1,86.57,98.64Z"/><path d="M97.52,99.58,97,98.29H94l-.49,1.29H92.15l2.62-6.67h1.46l2.62,6.67Zm-2-5.5-1.2,3.18h2.4Z"/><path d="M104.22,99.58l-3.48-4.77v4.77H99.57V92.91h1.2l3.41,4.62V92.91h1.17v6.67Z"/><path d="M109.35,99.58V92.91h2.48a3.34,3.34,0,1,1,0,6.67Zm4.77-3.34a2.15,2.15,0,0,0-2.28-2.3h-1.32v4.61h1.31A2.19,2.19,0,0,0,114.12,96.24Z"/><path d="M116.45,99.58V92.91h1.17v6.67Z"/><path d="M119,99.58V92.91h4.57v1h-3.4v1.72h3.33v1h-3.33v1.86h3.4v1Z"/><path d="M124.52,96.25A3.35,3.35,0,0,1,128,92.8a3.12,3.12,0,0,1,2.68,1.38l-.95.55a2.15,2.15,0,0,0-1.73-.89,2.41,2.41,0,0,0,0,4.82,2.39,2.39,0,0,0,1.58-.6V97h-2V96h3.16v2.49A3.6,3.6,0,0,1,128,99.71,3.36,3.36,0,0,1,124.52,96.25Z"/><path d="M131.69,96.25a3.41,3.41,0,1,1,3.41,3.45A3.31,3.31,0,0,1,131.69,96.25Zm5.62,0a2.22,2.22,0,1,0-2.21,2.41A2.21,2.21,0,0,0,137.31,96.25Z"/><path d="M80.93,146.58l-2.62-6.67h1.33l2,5.39,2-5.39H85l-2.62,6.67Z"/><path d="M85.73,146.58v-6.67H86.9v6.67Z"/><path d="M88.32,146.58v-6.67h4.57v1h-3.4v1.72h3.33v1H89.49v1.86h3.4v1Z"/><path d="M98.74,146.58l-3.48-4.77v4.77H94.09v-6.67h1.2l3.41,4.62v-4.62h1.17v6.67Z"/><path d="M105.94,146.58l-3.48-4.77v4.77h-1.17v-6.67h1.2l3.41,4.62v-4.62h1.17v6.67Z"/><path d="M113.17,146.58l-.49-1.29h-3.06l-.49,1.29H107.8l2.62-6.67h1.46l2.62,6.67Zm-2-5.5-1.2,3.18h2.4Z"/><path d="M225.64,127.58v-2.92h-3.47v2.92H221v-6.67h1.17v2.72h3.47v-2.72h1.17v6.67Z"/><path d="M232.91,127.58l-.49-1.29h-3.06l-.49,1.29h-1.33l2.62-6.67h1.46l2.62,6.67Zm-2-5.5-1.2,3.18h2.4Z"/><path d="M240.72,127.58v-5.15l-2,5.15h-.5l-2-5.15v5.15H235v-6.67h1.65l1.82,4.58,1.81-4.58h1.65v6.67Z"/><path d="M243.31,127.58v-6.67h3.28a1.7,1.7,0,0,1,1.9,1.7,1.51,1.51,0,0,1-1.16,1.53,1.63,1.63,0,0,1,1.29,1.63,1.75,1.75,0,0,1-1.94,1.81Zm4-4.78a.84.84,0,0,0-.93-.86h-1.88v1.72h1.88A.83.83,0,0,0,247.29,122.8Zm.13,2.82a.92.92,0,0,0-1-.93h-1.93v1.86h1.93A.9.9,0,0,0,247.42,125.62Z"/><path d="M249.8,124.94v-4H251v4a1.7,1.7,0,1,0,3.4,0v-4h1.19v4a2.89,2.89,0,0,1-5.78,0Z"/><path d="M260.81,127.58l-1.47-2.49h-1.17v2.49H257v-6.67h2.93a2,2,0,0,1,2.19,2.09,1.88,1.88,0,0,1-1.59,2l1.64,2.62Zm.11-4.59a1,1,0,0,0-1.14-1h-1.61v2.12h1.61A1.05,1.05,0,0,0,260.92,123Z"/><path d="M263,124.25a3.35,3.35,0,0,1,3.5-3.45,3.12,3.12,0,0,1,2.68,1.38l-.95.55a2.15,2.15,0,0,0-1.73-.89,2.41,2.41,0,0,0,0,4.82,2.4,2.4,0,0,0,1.58-.6v-1h-2v-1h3.16v2.49a3.6,3.6,0,0,1-2.74,1.22A3.36,3.36,0,0,1,263,124.25Z"/><path d="M5.76,167.58v-5.15l-2,5.15h-.5l-2-5.15v5.15H0v-6.67H1.65l1.82,4.58,1.81-4.58H6.93v6.67Z"/><path d="M8.06,164.25a3.31,3.31,0,0,1,3.41-3.45,3.45,3.45,0,0,1,0,6.9A3.31,3.31,0,0,1,8.06,164.25Zm5.62,0a2.22,2.22,0,1,0-2.21,2.41A2.21,2.21,0,0,0,13.68,164.25Z"/><path d="M20.65,167.58l-3.48-4.77v4.77H16v-6.67h1.2l3.41,4.62v-4.62h1.17v6.67Z"/><path d="M27.88,167.58l-.49-1.29H24.33l-.49,1.29H22.51l2.62-6.67h1.46l2.62,6.67Zm-2-5.5-1.2,3.18h2.4Z"/><path d="M29.29,164.25a3.36,3.36,0,0,1,3.5-3.45,3,3,0,0,1,2.67,1.49l-1,.52a2,2,0,0,0-1.68-1,2.41,2.41,0,0,0,0,4.82,2,2,0,0,0,1.68-1l1,.5a3,3,0,0,1-2.68,1.51A3.36,3.36,0,0,1,29.29,164.25Z"/><path d="M36.11,164.25a3.41,3.41,0,1,1,3.41,3.45A3.31,3.31,0,0,1,36.11,164.25Zm5.62,0a2.22,2.22,0,1,0-2.21,2.41A2.21,2.21,0,0,0,41.73,164.25Z"/><path d="M406.76,207.58v-5.15l-2,5.15h-.5l-2-5.15v5.15H401v-6.67h1.65l1.82,4.58,1.81-4.58h1.65v6.67Z"/><path d="M409.06,204.25a3.41,3.41,0,1,1,3.41,3.45A3.31,3.31,0,0,1,409.06,204.25Zm5.62,0a2.22,2.22,0,1,0-2.21,2.41A2.21,2.21,0,0,0,414.68,204.25Z"/><path d="M416.57,206.64l.66-.91a2.86,2.86,0,0,0,2.11.93c1,0,1.33-.47,1.33-.92,0-1.4-3.88-.53-3.88-3,0-1.11,1-2,2.43-2a3.45,3.45,0,0,1,2.49.94l-.66.87a2.72,2.72,0,0,0-1.94-.77c-.68,0-1.12.34-1.12.83,0,1.25,3.88.48,3.88,3,0,1.11-.79,2.07-2.58,2.07A3.65,3.65,0,0,1,416.57,206.64Z"/><path d="M422.65,204.25a3.36,3.36,0,0,1,3.5-3.45,3,3,0,0,1,2.67,1.49l-1,.52a2,2,0,0,0-1.68-1,2.41,2.41,0,0,0,0,4.82,2,2,0,0,0,1.68-1l1,.5a3,3,0,0,1-2.68,1.51A3.36,3.36,0,0,1,422.65,204.25Z"/><path d="M429.47,204.25a3.41,3.41,0,1,1,3.41,3.45A3.31,3.31,0,0,1,429.47,204.25Zm5.62,0a2.22,2.22,0,1,0-2.21,2.41A2.21,2.21,0,0,0,435.09,204.25Z"/><path d="M442.31,207.58,441,202.65l-1.3,4.93h-1.25l-1.9-6.67h1.3l1.3,5.13,1.38-5.13h.93l1.38,5.13,1.3-5.13h1.31l-1.91,6.67Z"/></g></g></svg>