<svg xmlns="http://www.w3.org/2000/svg" viewBox="0 0 271.38 182.64"><defs><style>.cls-1{fill:#fff;}</style></defs><title>verify</title><g id="Layer_2" data-name="Layer 2"><g id="Layer_1-2" data-name="Layer 1"><g id="verify"><g id="store"><g id="store-2" data-name="store"><g id="_8gUVar.tif" data-name="8gUVar.tif"><path d="M133.59,177.32c-4.29-1.52-7.05-10.75-6.6-17.84.65-10.16.7-20.36,1.06-30.54.3-8.52,6.48-14.44,15-14.32,5.66.07,11.31.38,17,.44a7.94,7.94,0,0,0,3.34-1,8.06,8.06,0,0,0,1.8-1.67L196.9,81.32c-2.8-5.79-2.32-9.94,1.36-12.54a8.09,8.09,0,0,1,10.25.64c3.35,3.09,3.43,7.13.15,12.13.43.59.85,1.28,1.38,1.88,9.34,10.72,18.65,21.47,28.11,32.08a7.12,7.12,0,0,0,4.36,2.05c4.71.39,9.45.36,14.18.53,9,.31,14.86,6.29,14.68,15.21q-.37,17.59-1.06,35.17a14.3,14.3,0,0,1-15.22,14.15c-38.36-1.19-75.94-.4-115.07-3.61A28.22,28.22,0,0,1,133.59,177.32Zm32.82-62,69.23,2.12c-.83-1.06-1.18-1.55-1.58-2q-13.44-15.13-26.89-30.25a6.67,6.67,0,0,0-9.07-.42q-10.28,9.82-20.52,19.67C174.06,107.8,170.58,111.23,166.41,115.29Z"/></g></g><path class="cls-1" d="M173.09,145.45l6,22.82c.71,2.69,3.74,3,5.65,1.49l47-36.83c3.42-2.68-1.39-7.44-4.78-4.78L180,165l5.65,1.49-6-22.82c-1.11-4.21-7.63-2.42-6.52,1.8Z"/></g><g id="store-3" data-name="store"><g id="store-4" data-name="store"><g id="_8gUVar.tif-2" data-name="8gUVar.tif"><path d="M70.4,144.16c-5.12-3.11-7.05-10.75-6.6-17.84.65-10.16.7-20.36,1.06-30.54.3-8.52,6.48-14.44,15-14.32,5.66.07,11.31.38,17,.44a7.94,7.94,0,0,0,3.34-1,8.06,8.06,0,0,0,1.8-1.67l31.72-31.06c-2.8-5.79-2.32-9.94,1.36-12.54a8.09,8.09,0,0,1,10.25.64c3.35,3.09,3.43,7.13.15,12.13.43.59.85,1.28,1.38,1.88C156.2,61,165.51,71.74,175,82.36a7.12,7.12,0,0,0,4.36,2.05c4.71.39,9.45.36,14.18.53,9,.31,14.86,6.29,14.68,15.21q-.37,17.59-1.06,35.17a14.3,14.3,0,0,1-15.22,14.15c-38.36-1.19-86.39-1.24-115.07-3.61A17,17,0,0,1,70.4,144.16Zm32.82-62,69.23,2.12c-.83-1.06-1.18-1.55-1.58-2Q157.43,67.12,144,52a6.67,6.67,0,0,0-9.07-.42Q124.64,61.4,114.4,71.25C110.88,74.64,107.4,78.07,103.22,82.14Z"/></g></g><path class="cls-1" d="M109.9,112.29l6,22.82c.71,2.69,3.74,3,5.65,1.49l47-36.83c3.42-2.68-1.39-7.44-4.78-4.78l-47,36.83,5.65,1.49-6-22.82c-1.11-4.21-7.63-2.42-6.52,1.8Z"/></g><g id="store-5" data-name="store"><g id="store-6" data-name="store"><g id="_8gUVar.tif-3" data-name="8gUVar.tif"><path d="M11.93,111.95a10,10,0,0,1-5.25-1.88C.84,105.46-.37,99.31.09,92.22c.65-10.16.7-20.36,1.06-30.54.3-8.52,6.48-14.44,15-14.32,5.66.07,11.31.38,17,.44a7.94,7.94,0,0,0,3.34-1,8.06,8.06,0,0,0,1.8-1.67L70,14.07c-2.8-5.79-2.32-9.94,1.36-12.54a8.09,8.09,0,0,1,10.25.64C85,5.26,85,9.3,81.76,14.3c.43.59.85,1.28,1.38,1.88,9.34,10.72,18.65,21.47,28.11,32.08a7.12,7.12,0,0,0,4.36,2.05c4.71.39,9.45.36,14.18.53,9,.31,14.86,6.29,14.68,15.21q-.37,17.59-1.06,35.17a14.3,14.3,0,0,1-15.22,14.15ZM39.51,48l69.23,2.12c-.83-1.06-1.18-1.55-1.58-2Q93.72,33,80.27,17.9a6.67,6.67,0,0,0-9.07-.42Q60.93,27.3,50.68,37.15C47.16,40.54,43.68,44,39.51,48Z"/></g></g><path class="cls-1" d="M46.18,78.2l6,22.82c.71,2.69,3.74,3,5.65,1.49l47-36.83c3.42-2.68-1.39-7.44-4.78-4.78l-47,36.83,5.65,1.49-6-22.82c-1.11-4.21-7.63-2.42-6.52,1.8Z"/></g></g></g></g></svg>