<svg xmlns="http://www.w3.org/2000/svg" viewBox="0 0 50.13 51"><defs><style>.a{fill:gray;}</style></defs><title>StoreDNA</title><polygon class="a" points="9.23 13.78 7.55 12.02 6.83 12.71 9.22 15.22 13.91 10.43 13.2 9.73 9.23 13.78"/><polygon class="a" points="9.23 22.57 7.55 20.81 6.83 21.5 9.22 24.01 13.91 19.22 13.2 18.52 9.23 22.57"/><polygon class="a" points="9.23 31.35 7.55 29.59 6.83 30.28 9.22 32.79 13.91 28 13.2 27.3 9.23 31.35"/><rect class="a" x="17.08" y="14" width="15.62" height="1"/><rect class="a" x="17.08" y="22.79" width="15.62" height="1"/><rect class="a" x="17.08" y="31.57" width="9.31" height="1"/><path class="a" d="M39.51,28.79V4.68A4.68,4.68,0,0,0,34.83,0H4.68A4.68,4.68,0,0,0,0,4.68V40.19a4.68,4.68,0,0,0,4.68,4.68H29.09A11.11,11.11,0,1,0,39.51,28.79ZM27.89,39.88a11,11,0,0,0,.75,4h-24A3.68,3.68,0,0,1,1,40.19V4.68A3.68,3.68,0,0,1,4.68,1H34.83a3.68,3.68,0,0,1,3.68,3.68V28.79A11.12,11.12,0,0,0,27.89,39.88Zm9.67,4.18-3.66-3.84.72-.69,2.94,3.09,6.65-6.79.71.7Z"/></svg>